G04 EAGLE Gerber RS-274X export*
G75*
%MOMM*%
%FSLAX34Y34*%
%LPD*%
%INBottom Copper*%
%IPPOS*%
%AMOC8*
5,1,8,0,0,1.08239X$1,22.5*%
G01*
G04 Define Apertures*
%ADD10P,1.73204X8X112.5*%
%ADD11R,1.459600X1.459600*%
%ADD12C,1.459600*%
%ADD13C,1.409600*%
%ADD14C,1.459600*%
%ADD15C,1.709600*%
%ADD16R,2.800000X2.800000*%
%ADD17C,1.625600*%
%ADD18C,1.574800*%
%ADD19C,1.389600*%
%ADD20C,3.000000*%
%ADD21C,1.016000*%
%ADD22C,0.243331*%
%ADD23C,0.203200*%
G36*
X1220219Y500060D02*
X1220469Y500232D01*
X1220632Y500487D01*
X1220683Y500762D01*
X1220683Y501788D01*
X1228212Y509317D01*
X1472433Y509317D01*
X1472730Y509377D01*
X1472972Y509540D01*
X1475366Y511935D01*
X1478373Y513180D01*
X1481627Y513180D01*
X1484634Y511935D01*
X1486935Y509634D01*
X1488180Y506627D01*
X1488180Y503942D01*
X1488240Y503645D01*
X1488412Y503395D01*
X1488667Y503231D01*
X1488942Y503180D01*
X1491627Y503180D01*
X1494634Y501935D01*
X1496345Y500223D01*
X1496598Y500056D01*
X1496884Y500000D01*
X1498116Y500000D01*
X1498413Y500060D01*
X1498655Y500223D01*
X1500366Y501935D01*
X1503373Y503180D01*
X1506627Y503180D01*
X1509634Y501935D01*
X1511345Y500223D01*
X1511598Y500056D01*
X1511884Y500000D01*
X1513116Y500000D01*
X1513413Y500060D01*
X1513655Y500223D01*
X1515366Y501935D01*
X1518373Y503180D01*
X1521627Y503180D01*
X1524634Y501935D01*
X1526345Y500223D01*
X1526598Y500056D01*
X1526884Y500000D01*
X1633580Y500000D01*
X1633877Y500060D01*
X1634119Y500223D01*
X1638104Y504209D01*
X2077405Y504209D01*
X2077702Y504269D01*
X2077952Y504440D01*
X2078115Y504696D01*
X2078166Y504995D01*
X2078109Y505262D01*
X2076820Y508373D01*
X2076820Y511627D01*
X2078065Y514634D01*
X2080366Y516935D01*
X2083373Y518180D01*
X2086627Y518180D01*
X2089634Y516935D01*
X2092028Y514540D01*
X2092281Y514372D01*
X2092567Y514317D01*
X2182433Y514317D01*
X2182730Y514377D01*
X2182972Y514540D01*
X2185366Y516935D01*
X2188373Y518180D01*
X2191627Y518180D01*
X2194634Y516935D01*
X2196935Y514634D01*
X2197486Y513302D01*
X2197656Y513051D01*
X2197910Y512885D01*
X2198208Y512832D01*
X2198504Y512900D01*
X2198729Y513055D01*
X2395460Y709786D01*
X2395628Y710039D01*
X2395683Y710325D01*
X2395683Y782360D01*
X2395623Y782657D01*
X2395452Y782907D01*
X2395196Y783071D01*
X2394897Y783121D01*
X2394630Y783064D01*
X2391627Y781820D01*
X2388373Y781820D01*
X2385366Y783065D01*
X2383065Y785366D01*
X2381820Y788373D01*
X2381820Y791627D01*
X2383065Y794634D01*
X2385460Y797028D01*
X2385628Y797281D01*
X2385683Y797567D01*
X2385683Y837433D01*
X2385623Y837730D01*
X2385460Y837972D01*
X2383039Y840393D01*
X2382786Y840560D01*
X2382488Y840616D01*
X2382192Y840551D01*
X2381961Y840393D01*
X2379540Y837972D01*
X2379372Y837719D01*
X2379317Y837433D01*
X2379317Y808212D01*
X2363403Y792299D01*
X2363236Y792046D01*
X2363180Y791760D01*
X2363180Y788373D01*
X2361935Y785366D01*
X2359634Y783065D01*
X2356627Y781820D01*
X2353373Y781820D01*
X2350366Y783065D01*
X2348039Y785393D01*
X2347786Y785560D01*
X2347488Y785616D01*
X2347192Y785551D01*
X2346961Y785393D01*
X2344634Y783065D01*
X2341627Y781820D01*
X2338373Y781820D01*
X2335366Y783065D01*
X2333065Y785366D01*
X2331820Y788373D01*
X2331820Y791627D01*
X2333065Y794634D01*
X2335460Y797028D01*
X2335628Y797281D01*
X2335683Y797567D01*
X2335683Y842433D01*
X2335623Y842730D01*
X2335460Y842972D01*
X2333065Y845366D01*
X2331820Y848373D01*
X2331820Y851627D01*
X2333065Y854634D01*
X2335366Y856935D01*
X2338373Y858180D01*
X2341627Y858180D01*
X2344634Y856935D01*
X2346935Y854634D01*
X2348180Y851627D01*
X2348180Y848373D01*
X2346935Y845366D01*
X2344540Y842972D01*
X2344372Y842719D01*
X2344317Y842433D01*
X2344317Y797567D01*
X2344377Y797270D01*
X2344540Y797028D01*
X2346961Y794607D01*
X2347214Y794440D01*
X2347512Y794384D01*
X2347808Y794449D01*
X2348039Y794607D01*
X2350366Y796935D01*
X2353373Y798180D01*
X2356760Y798180D01*
X2357057Y798240D01*
X2357299Y798403D01*
X2370460Y811565D01*
X2370628Y811818D01*
X2370683Y812104D01*
X2370683Y837433D01*
X2370623Y837730D01*
X2370460Y837972D01*
X2368065Y840366D01*
X2366820Y843373D01*
X2366820Y846627D01*
X2368065Y849634D01*
X2370366Y851935D01*
X2373373Y853180D01*
X2376627Y853180D01*
X2379634Y851935D01*
X2381961Y849607D01*
X2382214Y849440D01*
X2382512Y849384D01*
X2382808Y849449D01*
X2383039Y849607D01*
X2385366Y851935D01*
X2388373Y853180D01*
X2391627Y853180D01*
X2394630Y851936D01*
X2394927Y851878D01*
X2395224Y851941D01*
X2395473Y852114D01*
X2395634Y852371D01*
X2395683Y852640D01*
X2395683Y1009264D01*
X2395623Y1009562D01*
X2395452Y1009812D01*
X2395196Y1009975D01*
X2394897Y1010026D01*
X2394602Y1009956D01*
X2394383Y1009803D01*
X2392973Y1008394D01*
X2389145Y1006808D01*
X2387836Y1006808D01*
X2387836Y1027636D01*
X2389145Y1027636D01*
X2392973Y1026051D01*
X2394383Y1024641D01*
X2394635Y1024474D01*
X2394934Y1024418D01*
X2395230Y1024483D01*
X2395477Y1024659D01*
X2395636Y1024917D01*
X2395683Y1025180D01*
X2395683Y1107896D01*
X2395623Y1108194D01*
X2395460Y1108435D01*
X2393435Y1110460D01*
X2393182Y1110628D01*
X2392896Y1110683D01*
X2262108Y1110683D01*
X2213717Y1159075D01*
X2213464Y1159243D01*
X2213166Y1159298D01*
X2212886Y1159240D01*
X2211457Y1158648D01*
X2207091Y1158648D01*
X2203058Y1160319D01*
X2199971Y1163406D01*
X2198300Y1167440D01*
X2198300Y1169238D01*
X2198240Y1169535D01*
X2198068Y1169785D01*
X2197813Y1169949D01*
X2197538Y1170000D01*
X2195610Y1170000D01*
X2195313Y1169940D01*
X2195063Y1169768D01*
X2194899Y1169513D01*
X2194848Y1169238D01*
X2194848Y1167440D01*
X2194256Y1166010D01*
X2194198Y1165713D01*
X2194261Y1165416D01*
X2194421Y1165180D01*
X2264100Y1095501D01*
X2264353Y1095334D01*
X2264639Y1095278D01*
X2328151Y1095278D01*
X2328448Y1095338D01*
X2328690Y1095501D01*
X2330726Y1097537D01*
X2333732Y1098782D01*
X2336986Y1098782D01*
X2339993Y1097537D01*
X2342294Y1095236D01*
X2343539Y1092229D01*
X2343539Y1088975D01*
X2342294Y1085968D01*
X2339993Y1083667D01*
X2336986Y1082422D01*
X2333732Y1082422D01*
X2330726Y1083667D01*
X2328425Y1085968D01*
X2328339Y1086174D01*
X2328170Y1086426D01*
X2327916Y1086591D01*
X2327635Y1086645D01*
X2260747Y1086645D01*
X2188317Y1159075D01*
X2188064Y1159243D01*
X2187766Y1159298D01*
X2187486Y1159240D01*
X2186057Y1158648D01*
X2181691Y1158648D01*
X2177658Y1160319D01*
X2174571Y1163406D01*
X2172900Y1167440D01*
X2172900Y1169238D01*
X2172840Y1169535D01*
X2172668Y1169785D01*
X2172413Y1169949D01*
X2172138Y1170000D01*
X2170210Y1170000D01*
X2169913Y1169940D01*
X2169663Y1169768D01*
X2169499Y1169513D01*
X2169448Y1169238D01*
X2169448Y1167440D01*
X2167777Y1163406D01*
X2164690Y1160319D01*
X2160657Y1158648D01*
X2156291Y1158648D01*
X2152258Y1160319D01*
X2149171Y1163406D01*
X2147500Y1167440D01*
X2147500Y1169238D01*
X2147440Y1169535D01*
X2147268Y1169785D01*
X2147013Y1169949D01*
X2146738Y1170000D01*
X2144810Y1170000D01*
X2144513Y1169940D01*
X2144263Y1169768D01*
X2144099Y1169513D01*
X2144048Y1169238D01*
X2144048Y1167440D01*
X2142377Y1163406D01*
X2139290Y1160319D01*
X2135257Y1158648D01*
X2130891Y1158648D01*
X2126858Y1160319D01*
X2123771Y1163406D01*
X2122100Y1167440D01*
X2122100Y1169238D01*
X2122040Y1169535D01*
X2121868Y1169785D01*
X2121613Y1169949D01*
X2121338Y1170000D01*
X2119410Y1170000D01*
X2119113Y1169940D01*
X2118863Y1169768D01*
X2118699Y1169513D01*
X2118648Y1169238D01*
X2118648Y1167440D01*
X2116977Y1163406D01*
X2113890Y1160319D01*
X2109857Y1158648D01*
X2109296Y1158648D01*
X2108999Y1158588D01*
X2108749Y1158417D01*
X2108585Y1158161D01*
X2108534Y1157862D01*
X2108604Y1157567D01*
X2108757Y1157348D01*
X2131206Y1134899D01*
X2131458Y1134732D01*
X2131744Y1134676D01*
X2192792Y1134676D01*
X2193089Y1134736D01*
X2193331Y1134899D01*
X2195726Y1137294D01*
X2198732Y1138539D01*
X2201986Y1138539D01*
X2204993Y1137294D01*
X2207294Y1134993D01*
X2208539Y1131986D01*
X2208539Y1128732D01*
X2207294Y1125726D01*
X2204993Y1123425D01*
X2201986Y1122179D01*
X2198732Y1122179D01*
X2195726Y1123425D01*
X2193331Y1125819D01*
X2193078Y1125987D01*
X2192792Y1126043D01*
X2133798Y1126043D01*
X2133501Y1125982D01*
X2133251Y1125811D01*
X2133087Y1125555D01*
X2133036Y1125256D01*
X2133106Y1124961D01*
X2133259Y1124742D01*
X2209699Y1048302D01*
X2209952Y1048134D01*
X2210250Y1048079D01*
X2210546Y1048144D01*
X2210794Y1048319D01*
X2210953Y1048577D01*
X2211000Y1048841D01*
X2211000Y1051155D01*
X2212671Y1055189D01*
X2215758Y1058276D01*
X2219791Y1059946D01*
X2224157Y1059946D01*
X2228190Y1058276D01*
X2231277Y1055189D01*
X2232948Y1051155D01*
X2232948Y1046790D01*
X2231277Y1042756D01*
X2228190Y1039669D01*
X2224157Y1037998D01*
X2221842Y1037998D01*
X2221545Y1037938D01*
X2221295Y1037767D01*
X2221132Y1037511D01*
X2221081Y1037212D01*
X2221151Y1036917D01*
X2221304Y1036698D01*
X2230232Y1027770D01*
X2230484Y1027602D01*
X2230782Y1027546D01*
X2231062Y1027604D01*
X2232491Y1028196D01*
X2236857Y1028196D01*
X2240890Y1026526D01*
X2243977Y1023439D01*
X2245648Y1019405D01*
X2245648Y1015040D01*
X2243977Y1011006D01*
X2240890Y1007919D01*
X2236857Y1006248D01*
X2232491Y1006248D01*
X2228458Y1007919D01*
X2225371Y1011006D01*
X2223700Y1015040D01*
X2223700Y1019405D01*
X2224292Y1020834D01*
X2224350Y1021132D01*
X2224287Y1021429D01*
X2224127Y1021665D01*
X2094986Y1150805D01*
X2094734Y1150973D01*
X2094448Y1151028D01*
X1940073Y1151028D01*
X1939776Y1150968D01*
X1939526Y1150797D01*
X1939363Y1150541D01*
X1939312Y1150242D01*
X1939369Y1149975D01*
X1940848Y1146405D01*
X1940848Y1145079D01*
X1940908Y1144781D01*
X1941080Y1144531D01*
X1941335Y1144368D01*
X1941610Y1144317D01*
X1962433Y1144317D01*
X1962730Y1144377D01*
X1962972Y1144540D01*
X1965366Y1146935D01*
X1968373Y1148180D01*
X1971627Y1148180D01*
X1974634Y1146935D01*
X1976935Y1144634D01*
X1978180Y1141627D01*
X1978180Y1138373D01*
X1976935Y1135366D01*
X1974634Y1133065D01*
X1971627Y1131820D01*
X1968373Y1131820D01*
X1965366Y1133065D01*
X1962972Y1135460D01*
X1962719Y1135628D01*
X1962433Y1135683D01*
X1943485Y1135683D01*
X1943188Y1135623D01*
X1942946Y1135460D01*
X1936390Y1128904D01*
X1936222Y1128651D01*
X1936167Y1128353D01*
X1936232Y1128057D01*
X1936390Y1127826D01*
X1939177Y1125039D01*
X1940848Y1121005D01*
X1940848Y1116640D01*
X1939177Y1112606D01*
X1936390Y1109819D01*
X1936222Y1109566D01*
X1936167Y1109268D01*
X1936232Y1108972D01*
X1936390Y1108741D01*
X1939021Y1106110D01*
X1945591Y1099540D01*
X1945844Y1099372D01*
X1946130Y1099317D01*
X1972896Y1099317D01*
X1973194Y1099377D01*
X1973435Y1099540D01*
X1985460Y1111565D01*
X1985628Y1111818D01*
X1985683Y1112104D01*
X1985683Y1132433D01*
X1985623Y1132730D01*
X1985460Y1132972D01*
X1983065Y1135366D01*
X1981820Y1138373D01*
X1981820Y1141627D01*
X1983065Y1144634D01*
X1985366Y1146935D01*
X1988373Y1148180D01*
X1991627Y1148180D01*
X1994634Y1146935D01*
X1996961Y1144607D01*
X1997214Y1144440D01*
X1997512Y1144384D01*
X1997808Y1144449D01*
X1998039Y1144607D01*
X2000366Y1146935D01*
X2003373Y1148180D01*
X2006627Y1148180D01*
X2009634Y1146935D01*
X2011935Y1144634D01*
X2013180Y1141627D01*
X2013180Y1138373D01*
X2011935Y1135366D01*
X2009540Y1132972D01*
X2009372Y1132719D01*
X2009317Y1132433D01*
X2009317Y1098212D01*
X1989088Y1077983D01*
X1937273Y1077983D01*
X1936975Y1077923D01*
X1936725Y1077751D01*
X1936562Y1077496D01*
X1936511Y1077197D01*
X1936581Y1076902D01*
X1936734Y1076682D01*
X1939177Y1074239D01*
X1940848Y1070205D01*
X1940848Y1070079D01*
X1940908Y1069781D01*
X1941080Y1069531D01*
X1941335Y1069368D01*
X1941610Y1069317D01*
X1981788Y1069317D01*
X1994317Y1056788D01*
X1994317Y1024760D01*
X1991221Y1021665D01*
X1991054Y1021412D01*
X1990998Y1021114D01*
X1991056Y1020834D01*
X1991648Y1019405D01*
X1991648Y1015040D01*
X1989977Y1011006D01*
X1986890Y1007919D01*
X1982857Y1006248D01*
X1978491Y1006248D01*
X1974458Y1007919D01*
X1971371Y1011006D01*
X1969700Y1015040D01*
X1969700Y1019405D01*
X1971371Y1023439D01*
X1974458Y1026526D01*
X1978491Y1028196D01*
X1982857Y1028196D01*
X1984286Y1027604D01*
X1984584Y1027546D01*
X1984880Y1027609D01*
X1985117Y1027770D01*
X1985460Y1028113D01*
X1985628Y1028366D01*
X1985683Y1028652D01*
X1985683Y1052896D01*
X1985623Y1053194D01*
X1985460Y1053435D01*
X1978435Y1060460D01*
X1978182Y1060628D01*
X1977896Y1060683D01*
X1944685Y1060683D01*
X1944388Y1060623D01*
X1944146Y1060460D01*
X1936390Y1052704D01*
X1936222Y1052451D01*
X1936167Y1052153D01*
X1936232Y1051857D01*
X1936390Y1051626D01*
X1939177Y1048839D01*
X1940848Y1044805D01*
X1940848Y1040440D01*
X1939177Y1036406D01*
X1936090Y1033319D01*
X1932057Y1031648D01*
X1927691Y1031648D01*
X1923658Y1033319D01*
X1920571Y1036406D01*
X1918900Y1040440D01*
X1918900Y1044805D01*
X1920571Y1048839D01*
X1923014Y1051282D01*
X1923182Y1051535D01*
X1923237Y1051833D01*
X1923172Y1052129D01*
X1922997Y1052377D01*
X1922739Y1052536D01*
X1922475Y1052583D01*
X1892088Y1052583D01*
X1887299Y1057373D01*
X1887046Y1057540D01*
X1886760Y1057596D01*
X1883373Y1057596D01*
X1880366Y1058841D01*
X1878065Y1061142D01*
X1876820Y1064149D01*
X1876820Y1067403D01*
X1878065Y1070409D01*
X1880366Y1072710D01*
X1883373Y1073956D01*
X1886627Y1073956D01*
X1889634Y1072710D01*
X1891935Y1070409D01*
X1893180Y1067403D01*
X1893180Y1064016D01*
X1893240Y1063719D01*
X1893403Y1063477D01*
X1895441Y1061440D01*
X1895694Y1061272D01*
X1895980Y1061216D01*
X1919675Y1061216D01*
X1919972Y1061277D01*
X1920222Y1061448D01*
X1920385Y1061704D01*
X1920436Y1062003D01*
X1920379Y1062270D01*
X1918900Y1065840D01*
X1918900Y1070205D01*
X1920571Y1074239D01*
X1923014Y1076682D01*
X1923182Y1076935D01*
X1923237Y1077233D01*
X1923172Y1077529D01*
X1922997Y1077777D01*
X1922739Y1077936D01*
X1922475Y1077983D01*
X1849403Y1077983D01*
X1849106Y1077923D01*
X1848865Y1077760D01*
X1800602Y1029497D01*
X1800434Y1029244D01*
X1800379Y1028946D01*
X1800444Y1028650D01*
X1800619Y1028403D01*
X1800877Y1028243D01*
X1801141Y1028196D01*
X1805057Y1028196D01*
X1809090Y1026526D01*
X1812177Y1023439D01*
X1813848Y1019405D01*
X1813848Y1015040D01*
X1812177Y1011006D01*
X1809090Y1007919D01*
X1805057Y1006248D01*
X1800691Y1006248D01*
X1796658Y1007919D01*
X1793571Y1011006D01*
X1791900Y1015040D01*
X1791900Y1018956D01*
X1791840Y1019253D01*
X1791668Y1019503D01*
X1791413Y1019666D01*
X1791114Y1019717D01*
X1790819Y1019648D01*
X1790599Y1019495D01*
X1776722Y1005617D01*
X1776555Y1005365D01*
X1776499Y1005067D01*
X1776564Y1004770D01*
X1776740Y1004523D01*
X1776998Y1004364D01*
X1777261Y1004317D01*
X2000995Y1004317D01*
X2001293Y1004377D01*
X2001543Y1004549D01*
X2001706Y1004804D01*
X2001757Y1005079D01*
X2001757Y1006623D01*
X2001697Y1006920D01*
X2001526Y1007170D01*
X2001287Y1007327D01*
X1999858Y1007919D01*
X1996771Y1011006D01*
X1995100Y1015040D01*
X1995100Y1019405D01*
X1996771Y1023439D01*
X1999858Y1026526D01*
X2003891Y1028196D01*
X2008257Y1028196D01*
X2012290Y1026526D01*
X2015377Y1023439D01*
X2017048Y1019405D01*
X2017048Y1015040D01*
X2015377Y1011006D01*
X2012290Y1007919D01*
X2010861Y1007327D01*
X2010610Y1007158D01*
X2010444Y1006903D01*
X2010391Y1006623D01*
X2010391Y999286D01*
X2006722Y995617D01*
X2006555Y995365D01*
X2006499Y995067D01*
X2006564Y994770D01*
X2006740Y994523D01*
X2006998Y994364D01*
X2007261Y994317D01*
X2037433Y994317D01*
X2037730Y994377D01*
X2037972Y994540D01*
X2040366Y996935D01*
X2043373Y998180D01*
X2046627Y998180D01*
X2049634Y996935D01*
X2051257Y995312D01*
X2051509Y995144D01*
X2051808Y995089D01*
X2052104Y995154D01*
X2052351Y995329D01*
X2052510Y995587D01*
X2052557Y995851D01*
X2052557Y1006623D01*
X2052497Y1006920D01*
X2052326Y1007170D01*
X2052087Y1007327D01*
X2050658Y1007919D01*
X2047571Y1011006D01*
X2045900Y1015040D01*
X2045900Y1019405D01*
X2047571Y1023439D01*
X2050658Y1026526D01*
X2054691Y1028196D01*
X2059057Y1028196D01*
X2063090Y1026526D01*
X2066177Y1023439D01*
X2067848Y1019405D01*
X2067848Y1015040D01*
X2066177Y1011006D01*
X2063090Y1007919D01*
X2061661Y1007327D01*
X2061410Y1007158D01*
X2061244Y1006903D01*
X2061191Y1006623D01*
X2061191Y998939D01*
X2061251Y998641D01*
X2061423Y998391D01*
X2061678Y998228D01*
X2061977Y998177D01*
X2062272Y998247D01*
X2062517Y998426D01*
X2062657Y998647D01*
X2063065Y999634D01*
X2065366Y1001935D01*
X2068373Y1003180D01*
X2071760Y1003180D01*
X2072057Y1003240D01*
X2072299Y1003403D01*
X2073212Y1004317D01*
X2291548Y1004317D01*
X2291845Y1004377D01*
X2292087Y1004540D01*
X2300327Y1012780D01*
X2300494Y1013033D01*
X2300550Y1013331D01*
X2300492Y1013610D01*
X2299900Y1015040D01*
X2299900Y1019405D01*
X2301571Y1023439D01*
X2304658Y1026526D01*
X2308691Y1028196D01*
X2313057Y1028196D01*
X2317090Y1026526D01*
X2320177Y1023439D01*
X2321848Y1019405D01*
X2321848Y1015040D01*
X2320177Y1011006D01*
X2317090Y1007919D01*
X2313057Y1006248D01*
X2308691Y1006248D01*
X2307262Y1006840D01*
X2306964Y1006898D01*
X2306668Y1006836D01*
X2306432Y1006675D01*
X2295440Y995683D01*
X2290694Y995683D01*
X2290397Y995623D01*
X2290147Y995452D01*
X2289983Y995196D01*
X2289932Y994897D01*
X2290002Y994602D01*
X2290155Y994383D01*
X2291935Y992603D01*
X2293180Y989596D01*
X2293180Y986342D01*
X2291935Y983336D01*
X2289634Y981035D01*
X2286627Y979789D01*
X2283373Y979789D01*
X2282090Y980321D01*
X2281793Y980379D01*
X2281496Y980316D01*
X2281260Y980155D01*
X2236788Y935683D01*
X2199272Y935683D01*
X2158729Y976227D01*
X2158476Y976394D01*
X2158178Y976450D01*
X2157882Y976385D01*
X2157634Y976209D01*
X2157486Y975979D01*
X2156935Y974648D01*
X2154540Y972253D01*
X2154372Y972000D01*
X2154317Y971714D01*
X2154317Y943279D01*
X2098336Y887299D01*
X2098169Y887046D01*
X2098113Y886760D01*
X2098113Y883373D01*
X2096867Y880366D01*
X2094566Y878065D01*
X2093235Y877514D01*
X2092984Y877344D01*
X2092818Y877090D01*
X2092765Y876792D01*
X2092832Y876496D01*
X2092988Y876271D01*
X2109317Y859942D01*
X2109317Y847640D01*
X2109377Y847343D01*
X2109549Y847093D01*
X2109804Y846929D01*
X2110103Y846879D01*
X2110370Y846936D01*
X2113373Y848180D01*
X2116627Y848180D01*
X2119634Y846935D01*
X2121935Y844634D01*
X2123180Y841627D01*
X2123180Y838373D01*
X2121935Y835366D01*
X2119540Y832972D01*
X2119372Y832719D01*
X2119317Y832433D01*
X2119317Y817640D01*
X2119377Y817343D01*
X2119549Y817093D01*
X2119804Y816929D01*
X2120103Y816879D01*
X2120370Y816936D01*
X2123373Y818180D01*
X2126627Y818180D01*
X2129634Y816935D01*
X2131935Y814634D01*
X2133180Y811627D01*
X2133180Y808373D01*
X2131935Y805366D01*
X2129540Y802972D01*
X2129372Y802719D01*
X2129317Y802433D01*
X2129317Y793942D01*
X2129377Y793645D01*
X2129549Y793395D01*
X2129804Y793231D01*
X2130079Y793180D01*
X2131627Y793180D01*
X2134634Y791935D01*
X2136935Y789634D01*
X2138180Y786627D01*
X2138180Y783373D01*
X2136935Y780366D01*
X2136049Y779481D01*
X2135882Y779228D01*
X2135826Y778930D01*
X2135891Y778634D01*
X2136067Y778386D01*
X2136325Y778227D01*
X2136588Y778180D01*
X2138658Y778180D01*
X2141664Y776935D01*
X2143965Y774634D01*
X2145211Y771627D01*
X2145211Y768373D01*
X2143965Y765366D01*
X2141664Y763065D01*
X2138658Y761820D01*
X2135404Y761820D01*
X2132397Y763065D01*
X2130002Y765460D01*
X2129749Y765628D01*
X2129463Y765683D01*
X2113212Y765683D01*
X2100617Y778278D01*
X2100365Y778445D01*
X2100067Y778501D01*
X2099770Y778436D01*
X2099523Y778260D01*
X2099364Y778002D01*
X2099317Y777739D01*
X2099317Y777104D01*
X2099377Y776806D01*
X2099540Y776565D01*
X2217702Y658403D01*
X2217954Y658236D01*
X2218240Y658180D01*
X2221627Y658180D01*
X2224634Y656935D01*
X2226935Y654634D01*
X2228180Y651627D01*
X2228180Y648373D01*
X2226935Y645366D01*
X2224634Y643065D01*
X2221627Y641820D01*
X2218373Y641820D01*
X2215366Y643065D01*
X2213065Y645366D01*
X2211820Y648373D01*
X2211820Y651760D01*
X2211760Y652057D01*
X2211597Y652299D01*
X2090683Y773212D01*
X2090683Y807433D01*
X2090623Y807730D01*
X2090460Y807972D01*
X2088065Y810366D01*
X2086820Y813373D01*
X2086820Y816627D01*
X2088065Y819634D01*
X2090366Y821935D01*
X2093373Y823180D01*
X2096627Y823180D01*
X2099630Y821936D01*
X2099927Y821878D01*
X2100224Y821941D01*
X2100473Y822114D01*
X2100634Y822371D01*
X2100683Y822640D01*
X2100683Y856051D01*
X2100623Y856348D01*
X2100460Y856589D01*
X2085617Y871432D01*
X2085365Y871600D01*
X2085067Y871655D01*
X2084770Y871590D01*
X2084523Y871415D01*
X2084364Y871157D01*
X2084317Y870893D01*
X2084317Y657567D01*
X2084377Y657270D01*
X2084540Y657028D01*
X2086935Y654634D01*
X2088180Y651627D01*
X2088180Y648373D01*
X2086935Y645366D01*
X2084634Y643065D01*
X2081627Y641820D01*
X2078373Y641820D01*
X2075366Y643065D01*
X2073065Y645366D01*
X2071820Y648373D01*
X2071820Y651627D01*
X2073065Y654634D01*
X2075460Y657028D01*
X2075628Y657281D01*
X2075683Y657567D01*
X2075683Y782360D01*
X2075623Y782657D01*
X2075452Y782907D01*
X2075196Y783071D01*
X2074897Y783121D01*
X2074630Y783064D01*
X2071627Y781820D01*
X2068373Y781820D01*
X2065366Y783065D01*
X2063065Y785366D01*
X2061820Y788373D01*
X2061820Y791627D01*
X2063065Y794634D01*
X2065460Y797028D01*
X2065628Y797281D01*
X2065683Y797567D01*
X2065683Y892433D01*
X2065623Y892730D01*
X2065460Y892972D01*
X2063065Y895366D01*
X2061820Y898373D01*
X2061820Y901627D01*
X2063065Y904634D01*
X2065366Y906935D01*
X2068373Y908180D01*
X2068876Y908180D01*
X2069173Y908240D01*
X2069423Y908412D01*
X2069586Y908667D01*
X2069637Y908966D01*
X2069568Y909261D01*
X2069415Y909481D01*
X2062299Y916597D01*
X2062046Y916764D01*
X2061760Y916820D01*
X2058373Y916820D01*
X2055366Y918065D01*
X2053065Y920366D01*
X2051820Y923373D01*
X2051820Y926627D01*
X2053064Y929630D01*
X2053122Y929927D01*
X2053059Y930224D01*
X2052886Y930473D01*
X2052629Y930634D01*
X2052360Y930683D01*
X1991073Y930683D01*
X1990776Y930623D01*
X1990526Y930452D01*
X1990362Y930196D01*
X1990311Y929897D01*
X1990381Y929602D01*
X1990534Y929383D01*
X1991737Y928180D01*
X1991737Y913286D01*
X1959540Y881089D01*
X1959372Y880836D01*
X1959317Y880550D01*
X1959317Y747104D01*
X1959377Y746806D01*
X1959540Y746565D01*
X1999317Y706788D01*
X1999317Y702567D01*
X1999377Y702270D01*
X1999540Y702028D01*
X2001935Y699634D01*
X2003180Y696627D01*
X2003180Y693373D01*
X2001935Y690366D01*
X1999634Y688065D01*
X1996627Y686820D01*
X1993373Y686820D01*
X1990366Y688065D01*
X1988065Y690366D01*
X1986820Y693373D01*
X1986820Y696627D01*
X1988065Y699634D01*
X1990460Y702028D01*
X1990628Y702281D01*
X1990683Y702567D01*
X1990683Y702896D01*
X1990623Y703194D01*
X1990460Y703435D01*
X1950617Y743278D01*
X1950365Y743445D01*
X1950067Y743501D01*
X1949770Y743436D01*
X1949523Y743260D01*
X1949364Y743002D01*
X1949317Y742739D01*
X1949317Y657567D01*
X1949377Y657270D01*
X1949540Y657028D01*
X1951961Y654607D01*
X1952214Y654440D01*
X1952512Y654384D01*
X1952808Y654449D01*
X1953039Y654607D01*
X1955460Y657028D01*
X1955628Y657281D01*
X1955683Y657567D01*
X1955683Y697433D01*
X1955623Y697730D01*
X1955460Y697972D01*
X1953065Y700366D01*
X1951820Y703373D01*
X1951820Y706627D01*
X1953065Y709634D01*
X1955366Y711935D01*
X1958373Y713180D01*
X1961627Y713180D01*
X1964634Y711935D01*
X1966961Y709607D01*
X1967214Y709440D01*
X1967512Y709384D01*
X1967808Y709449D01*
X1968039Y709607D01*
X1970366Y711935D01*
X1973373Y713180D01*
X1976627Y713180D01*
X1979634Y711935D01*
X1981935Y709634D01*
X1983180Y706627D01*
X1983180Y703373D01*
X1981935Y700366D01*
X1979540Y697972D01*
X1979372Y697719D01*
X1979317Y697433D01*
X1979317Y657567D01*
X1979377Y657270D01*
X1979540Y657028D01*
X1981935Y654634D01*
X1983180Y651627D01*
X1983180Y648373D01*
X1981935Y645366D01*
X1979634Y643065D01*
X1976627Y641820D01*
X1973373Y641820D01*
X1970366Y643065D01*
X1968039Y645393D01*
X1967786Y645560D01*
X1967488Y645616D01*
X1967192Y645551D01*
X1966961Y645393D01*
X1964634Y643065D01*
X1961627Y641820D01*
X1958373Y641820D01*
X1955366Y643065D01*
X1953039Y645393D01*
X1952786Y645560D01*
X1952488Y645616D01*
X1952192Y645551D01*
X1951961Y645393D01*
X1949634Y643065D01*
X1946627Y641820D01*
X1943373Y641820D01*
X1940366Y643065D01*
X1938065Y645366D01*
X1936820Y648373D01*
X1936820Y651627D01*
X1938065Y654634D01*
X1940460Y657028D01*
X1940628Y657281D01*
X1940683Y657567D01*
X1940683Y697360D01*
X1940623Y697657D01*
X1940452Y697907D01*
X1940196Y698071D01*
X1939897Y698121D01*
X1939630Y698064D01*
X1936627Y696820D01*
X1933373Y696820D01*
X1930366Y698065D01*
X1928065Y700366D01*
X1926820Y703373D01*
X1926820Y706627D01*
X1928065Y709634D01*
X1930366Y711935D01*
X1933373Y713180D01*
X1934921Y713180D01*
X1935219Y713240D01*
X1935469Y713412D01*
X1935632Y713667D01*
X1935683Y713942D01*
X1935683Y779306D01*
X1935623Y779603D01*
X1935452Y779853D01*
X1935196Y780017D01*
X1934897Y780068D01*
X1934602Y779998D01*
X1934383Y779845D01*
X1932869Y778331D01*
X1932701Y778078D01*
X1932645Y777792D01*
X1932645Y716541D01*
X1868403Y652299D01*
X1868236Y652046D01*
X1868180Y651760D01*
X1868180Y648373D01*
X1866935Y645366D01*
X1864634Y643065D01*
X1861627Y641820D01*
X1858373Y641820D01*
X1855366Y643065D01*
X1853065Y645366D01*
X1851820Y648373D01*
X1851820Y651627D01*
X1853065Y654634D01*
X1855366Y656935D01*
X1858373Y658180D01*
X1861760Y658180D01*
X1862057Y658240D01*
X1862299Y658403D01*
X1923789Y719894D01*
X1923956Y720146D01*
X1924012Y720432D01*
X1924012Y766667D01*
X1923952Y766965D01*
X1923780Y767215D01*
X1923525Y767378D01*
X1923226Y767429D01*
X1922958Y767371D01*
X1921627Y766820D01*
X1918373Y766820D01*
X1915366Y768065D01*
X1912972Y770460D01*
X1912719Y770628D01*
X1912433Y770683D01*
X1873212Y770683D01*
X1843435Y800460D01*
X1843182Y800628D01*
X1842896Y800683D01*
X1437104Y800683D01*
X1436806Y800623D01*
X1436565Y800460D01*
X1346788Y710683D01*
X657104Y710683D01*
X656806Y710623D01*
X656565Y710460D01*
X644540Y698435D01*
X644372Y698182D01*
X644317Y697896D01*
X644317Y552104D01*
X644377Y551806D01*
X644540Y551565D01*
X666565Y529540D01*
X666818Y529372D01*
X667104Y529317D01*
X672896Y529317D01*
X673194Y529377D01*
X673435Y529540D01*
X685943Y542048D01*
X686110Y542300D01*
X686166Y542586D01*
X686166Y557849D01*
X687875Y561976D01*
X691034Y565135D01*
X695161Y566844D01*
X699627Y566844D01*
X703754Y565135D01*
X706913Y561976D01*
X708622Y557849D01*
X708622Y537127D01*
X706913Y533000D01*
X703754Y529841D01*
X699627Y528132D01*
X695161Y528132D01*
X691034Y529841D01*
X689029Y531846D01*
X688776Y532014D01*
X688478Y532070D01*
X688182Y532004D01*
X687951Y531846D01*
X676788Y520683D01*
X663212Y520683D01*
X635683Y548212D01*
X635683Y701788D01*
X653212Y719317D01*
X1342896Y719317D01*
X1343194Y719377D01*
X1343435Y719540D01*
X1433212Y809317D01*
X1846788Y809317D01*
X1870519Y785586D01*
X1870772Y785418D01*
X1871070Y785362D01*
X1871366Y785428D01*
X1871614Y785603D01*
X1871773Y785861D01*
X1871820Y786124D01*
X1871820Y786627D01*
X1873065Y789634D01*
X1875460Y792028D01*
X1875628Y792281D01*
X1875683Y792567D01*
X1875683Y807433D01*
X1875623Y807730D01*
X1875460Y807972D01*
X1873065Y810366D01*
X1871820Y813373D01*
X1871820Y816627D01*
X1873065Y819634D01*
X1875366Y821935D01*
X1878373Y823180D01*
X1881627Y823180D01*
X1884634Y821935D01*
X1886961Y819607D01*
X1887214Y819440D01*
X1887512Y819384D01*
X1887808Y819449D01*
X1888039Y819607D01*
X1890366Y821935D01*
X1893373Y823180D01*
X1896627Y823180D01*
X1899634Y821935D01*
X1901961Y819607D01*
X1902214Y819440D01*
X1902512Y819384D01*
X1902808Y819449D01*
X1903039Y819607D01*
X1905366Y821935D01*
X1908373Y823180D01*
X1911627Y823180D01*
X1914634Y821935D01*
X1916961Y819607D01*
X1917214Y819440D01*
X1917512Y819384D01*
X1917808Y819449D01*
X1918039Y819607D01*
X1920366Y821935D01*
X1923373Y823180D01*
X1926627Y823180D01*
X1929276Y822083D01*
X1929573Y822025D01*
X1929703Y822053D01*
X1929744Y821888D01*
X1929894Y821674D01*
X1931935Y819634D01*
X1933180Y816627D01*
X1933180Y813240D01*
X1933240Y812943D01*
X1933403Y812702D01*
X1939383Y806722D01*
X1939635Y806555D01*
X1939934Y806499D01*
X1940230Y806564D01*
X1940477Y806740D01*
X1940636Y806998D01*
X1940683Y807261D01*
X1940683Y822360D01*
X1940623Y822657D01*
X1940452Y822907D01*
X1940196Y823071D01*
X1939897Y823121D01*
X1939630Y823064D01*
X1936627Y821820D01*
X1933373Y821820D01*
X1930725Y822917D01*
X1930427Y822975D01*
X1930297Y822947D01*
X1930256Y823112D01*
X1930106Y823326D01*
X1927972Y825460D01*
X1927719Y825628D01*
X1927433Y825683D01*
X1872567Y825683D01*
X1872270Y825623D01*
X1872028Y825460D01*
X1869634Y823065D01*
X1866627Y821820D01*
X1863373Y821820D01*
X1860366Y823065D01*
X1858065Y825366D01*
X1856820Y828373D01*
X1856820Y831627D01*
X1858065Y834634D01*
X1860366Y836935D01*
X1863373Y838180D01*
X1866627Y838180D01*
X1869634Y836935D01*
X1872028Y834540D01*
X1872281Y834372D01*
X1872567Y834317D01*
X1927433Y834317D01*
X1927730Y834377D01*
X1927972Y834540D01*
X1930366Y836935D01*
X1933373Y838180D01*
X1936627Y838180D01*
X1939630Y836936D01*
X1939927Y836878D01*
X1940224Y836941D01*
X1940473Y837114D01*
X1940634Y837371D01*
X1940683Y837640D01*
X1940683Y880757D01*
X1971571Y911645D01*
X1971739Y911897D01*
X1971794Y912196D01*
X1971729Y912492D01*
X1971554Y912739D01*
X1971324Y912887D01*
X1969993Y913439D01*
X1967807Y915625D01*
X1967554Y915792D01*
X1967256Y915848D01*
X1966960Y915783D01*
X1966729Y915625D01*
X1926788Y875683D01*
X1872567Y875683D01*
X1872270Y875623D01*
X1872028Y875460D01*
X1869634Y873065D01*
X1866627Y871820D01*
X1863373Y871820D01*
X1860366Y873065D01*
X1858065Y875366D01*
X1856820Y878373D01*
X1856820Y881627D01*
X1858065Y884634D01*
X1860366Y886935D01*
X1863373Y888180D01*
X1866627Y888180D01*
X1869634Y886935D01*
X1872028Y884540D01*
X1872281Y884372D01*
X1872567Y884317D01*
X1922896Y884317D01*
X1923194Y884377D01*
X1923435Y884540D01*
X1963586Y924690D01*
X1967059Y924690D01*
X1967356Y924751D01*
X1967598Y924913D01*
X1969993Y927308D01*
X1971832Y928070D01*
X1972084Y928240D01*
X1972249Y928494D01*
X1972302Y928792D01*
X1972235Y929088D01*
X1972079Y929313D01*
X1964088Y937304D01*
X1963835Y937472D01*
X1963537Y937527D01*
X1963241Y937462D01*
X1962994Y937287D01*
X1962845Y937057D01*
X1962294Y935726D01*
X1959993Y933425D01*
X1956986Y932179D01*
X1953732Y932179D01*
X1950726Y933425D01*
X1948690Y935460D01*
X1948437Y935628D01*
X1948151Y935683D01*
X1897261Y935683D01*
X1896964Y935623D01*
X1896714Y935452D01*
X1896550Y935196D01*
X1896499Y934897D01*
X1896569Y934602D01*
X1896722Y934383D01*
X1907702Y923403D01*
X1907954Y923236D01*
X1908240Y923180D01*
X1911627Y923180D01*
X1914634Y921935D01*
X1916935Y919634D01*
X1918180Y916627D01*
X1918180Y913373D01*
X1916935Y910366D01*
X1914634Y908065D01*
X1911627Y906820D01*
X1908373Y906820D01*
X1905366Y908065D01*
X1903065Y910366D01*
X1901820Y913373D01*
X1901820Y916760D01*
X1901760Y917057D01*
X1901597Y917299D01*
X1893435Y925460D01*
X1893182Y925628D01*
X1892896Y925683D01*
X1880537Y925683D01*
X1880239Y925623D01*
X1879998Y925460D01*
X1877603Y923065D01*
X1874596Y921820D01*
X1871342Y921820D01*
X1868336Y923065D01*
X1866035Y925366D01*
X1864789Y928373D01*
X1864789Y931627D01*
X1866033Y934630D01*
X1866091Y934927D01*
X1866028Y935224D01*
X1865855Y935473D01*
X1865598Y935634D01*
X1865329Y935683D01*
X1862567Y935683D01*
X1862270Y935623D01*
X1862028Y935460D01*
X1859634Y933065D01*
X1856627Y931820D01*
X1853373Y931820D01*
X1850366Y933065D01*
X1848065Y935366D01*
X1846820Y938373D01*
X1846820Y941627D01*
X1848065Y944634D01*
X1850366Y946935D01*
X1853373Y948180D01*
X1856627Y948180D01*
X1859634Y946935D01*
X1862028Y944540D01*
X1862281Y944372D01*
X1862567Y944317D01*
X1947635Y944317D01*
X1947933Y944377D01*
X1948183Y944549D01*
X1948339Y944787D01*
X1948425Y944993D01*
X1950038Y946606D01*
X1950205Y946859D01*
X1950261Y947157D01*
X1950196Y947453D01*
X1950038Y947684D01*
X1943435Y954286D01*
X1940683Y957038D01*
X1940683Y962896D01*
X1940623Y963194D01*
X1940460Y963435D01*
X1932299Y971597D01*
X1932046Y971764D01*
X1931760Y971820D01*
X1928373Y971820D01*
X1925366Y973065D01*
X1923065Y975366D01*
X1921820Y978373D01*
X1921820Y981627D01*
X1923064Y984630D01*
X1923122Y984927D01*
X1923059Y985224D01*
X1922886Y985473D01*
X1922629Y985634D01*
X1922360Y985683D01*
X1823942Y985683D01*
X1823645Y985623D01*
X1823395Y985452D01*
X1823231Y985196D01*
X1823180Y984921D01*
X1823180Y983373D01*
X1821935Y980366D01*
X1819634Y978065D01*
X1816627Y976820D01*
X1813373Y976820D01*
X1810366Y978065D01*
X1808065Y980366D01*
X1806820Y983373D01*
X1806820Y986627D01*
X1808065Y989634D01*
X1810366Y991935D01*
X1813373Y993180D01*
X1816760Y993180D01*
X1817057Y993240D01*
X1817299Y993403D01*
X1818278Y994383D01*
X1818445Y994635D01*
X1818501Y994934D01*
X1818436Y995230D01*
X1818260Y995477D01*
X1818002Y995636D01*
X1817739Y995683D01*
X1307104Y995683D01*
X1306806Y995623D01*
X1306565Y995460D01*
X1152194Y841090D01*
X1152027Y840837D01*
X1151971Y840539D01*
X1152036Y840242D01*
X1152212Y839995D01*
X1152441Y839847D01*
X1154634Y838939D01*
X1156961Y836611D01*
X1157214Y836444D01*
X1157512Y836388D01*
X1157808Y836453D01*
X1158039Y836611D01*
X1160366Y838939D01*
X1163373Y840184D01*
X1166627Y840184D01*
X1169634Y838939D01*
X1171961Y836611D01*
X1172214Y836444D01*
X1172512Y836388D01*
X1172808Y836453D01*
X1173039Y836611D01*
X1175366Y838939D01*
X1178373Y840184D01*
X1181627Y840184D01*
X1184634Y838939D01*
X1186961Y836611D01*
X1187214Y836444D01*
X1187512Y836388D01*
X1187808Y836453D01*
X1188039Y836611D01*
X1190366Y838939D01*
X1193373Y840184D01*
X1196627Y840184D01*
X1199634Y838939D01*
X1201935Y836638D01*
X1203180Y833631D01*
X1203180Y830377D01*
X1201935Y827370D01*
X1199540Y824976D01*
X1199372Y824723D01*
X1199317Y824437D01*
X1199317Y792104D01*
X1199377Y791806D01*
X1199540Y791565D01*
X1231565Y759540D01*
X1231818Y759372D01*
X1232104Y759317D01*
X1302371Y759317D01*
X1302668Y759377D01*
X1302918Y759549D01*
X1303082Y759804D01*
X1303133Y760103D01*
X1303063Y760398D01*
X1302910Y760617D01*
X1300125Y763402D01*
X1298352Y767683D01*
X1298352Y772317D01*
X1300125Y776598D01*
X1303402Y779875D01*
X1307683Y781648D01*
X1312317Y781648D01*
X1316598Y779875D01*
X1319875Y776598D01*
X1321648Y772317D01*
X1321648Y767683D01*
X1319875Y763402D01*
X1317090Y760617D01*
X1316923Y760365D01*
X1316867Y760067D01*
X1316932Y759770D01*
X1317108Y759523D01*
X1317366Y759364D01*
X1317629Y759317D01*
X1327371Y759317D01*
X1327668Y759377D01*
X1327918Y759549D01*
X1328082Y759804D01*
X1328133Y760103D01*
X1328063Y760398D01*
X1327910Y760617D01*
X1325125Y763402D01*
X1323352Y767683D01*
X1323352Y772317D01*
X1325125Y776598D01*
X1328402Y779875D01*
X1332683Y781648D01*
X1337317Y781648D01*
X1341598Y779875D01*
X1344875Y776598D01*
X1346648Y772317D01*
X1346648Y767683D01*
X1344875Y763402D01*
X1341598Y760125D01*
X1339787Y759375D01*
X1339536Y759206D01*
X1339370Y758952D01*
X1339317Y758671D01*
X1339317Y758212D01*
X1331788Y750683D01*
X1228212Y750683D01*
X1190683Y788212D01*
X1190683Y824437D01*
X1190623Y824734D01*
X1190460Y824976D01*
X1188039Y827397D01*
X1187786Y827564D01*
X1187488Y827620D01*
X1187192Y827555D01*
X1186961Y827397D01*
X1184540Y824976D01*
X1184372Y824723D01*
X1184317Y824437D01*
X1184317Y797567D01*
X1184377Y797270D01*
X1184540Y797028D01*
X1186935Y794634D01*
X1188180Y791627D01*
X1188180Y788373D01*
X1186935Y785366D01*
X1184634Y783065D01*
X1181627Y781820D01*
X1178373Y781820D01*
X1175366Y783065D01*
X1173039Y785393D01*
X1172786Y785560D01*
X1172488Y785616D01*
X1172192Y785551D01*
X1171961Y785393D01*
X1169634Y783065D01*
X1166627Y781820D01*
X1163373Y781820D01*
X1160366Y783065D01*
X1158039Y785393D01*
X1157786Y785560D01*
X1157488Y785616D01*
X1157192Y785551D01*
X1156961Y785393D01*
X1154634Y783065D01*
X1151627Y781820D01*
X1148373Y781820D01*
X1145366Y783065D01*
X1143065Y785366D01*
X1141820Y788373D01*
X1141820Y791627D01*
X1143065Y794634D01*
X1145460Y797028D01*
X1145628Y797281D01*
X1145683Y797567D01*
X1145683Y824437D01*
X1145623Y824734D01*
X1145460Y824976D01*
X1143065Y827370D01*
X1142157Y829563D01*
X1141988Y829814D01*
X1141734Y829980D01*
X1141435Y830033D01*
X1141139Y829965D01*
X1140915Y829810D01*
X1134540Y823435D01*
X1134372Y823182D01*
X1134317Y822896D01*
X1134317Y762567D01*
X1134377Y762270D01*
X1134540Y762028D01*
X1136935Y759634D01*
X1138180Y756627D01*
X1138180Y753373D01*
X1136935Y750366D01*
X1134634Y748065D01*
X1131627Y746820D01*
X1128373Y746820D01*
X1125366Y748065D01*
X1123065Y750366D01*
X1121820Y753373D01*
X1121820Y756627D01*
X1123065Y759634D01*
X1125460Y762028D01*
X1125628Y762281D01*
X1125683Y762567D01*
X1125683Y797739D01*
X1125623Y798036D01*
X1125452Y798286D01*
X1125196Y798450D01*
X1124897Y798501D01*
X1124602Y798431D01*
X1124383Y798278D01*
X1121788Y795683D01*
X1002104Y795683D01*
X1001806Y795623D01*
X1001565Y795460D01*
X981063Y774958D01*
X980896Y774706D01*
X980840Y774407D01*
X980898Y774128D01*
X981648Y772317D01*
X981648Y767683D01*
X979875Y763402D01*
X976598Y760125D01*
X972317Y758352D01*
X967683Y758352D01*
X963402Y760125D01*
X960125Y763402D01*
X958352Y767683D01*
X958352Y772317D01*
X960125Y776598D01*
X963402Y779875D01*
X967683Y781648D01*
X972317Y781648D01*
X974128Y780898D01*
X974426Y780840D01*
X974722Y780903D01*
X974958Y781063D01*
X998278Y804383D01*
X998445Y804635D01*
X998501Y804934D01*
X998436Y805230D01*
X998260Y805477D01*
X998002Y805636D01*
X997739Y805683D01*
X932104Y805683D01*
X931806Y805623D01*
X931565Y805460D01*
X858403Y732299D01*
X858236Y732046D01*
X858180Y731760D01*
X858180Y728373D01*
X856935Y725366D01*
X854634Y723065D01*
X851627Y721820D01*
X848373Y721820D01*
X845366Y723065D01*
X843065Y725366D01*
X841820Y728373D01*
X841820Y731627D01*
X843065Y734634D01*
X845366Y736935D01*
X848373Y738180D01*
X851760Y738180D01*
X852057Y738240D01*
X852299Y738403D01*
X928212Y814317D01*
X1022896Y814317D01*
X1023194Y814377D01*
X1023435Y814540D01*
X1030495Y821599D01*
X1030662Y821852D01*
X1030718Y822150D01*
X1030653Y822446D01*
X1030477Y822694D01*
X1030219Y822853D01*
X1029956Y822900D01*
X999716Y822900D01*
X997900Y824716D01*
X997900Y855284D01*
X999716Y857100D01*
X1030284Y857100D01*
X1032100Y855284D01*
X1032100Y825044D01*
X1032160Y824747D01*
X1032332Y824497D01*
X1032587Y824334D01*
X1032886Y824283D01*
X1033181Y824353D01*
X1033401Y824506D01*
X1041597Y832702D01*
X1041764Y832954D01*
X1041820Y833240D01*
X1041820Y836627D01*
X1043065Y839634D01*
X1045366Y841935D01*
X1048373Y843180D01*
X1051627Y843180D01*
X1054634Y841935D01*
X1056935Y839634D01*
X1058180Y836627D01*
X1058180Y833373D01*
X1056935Y830366D01*
X1054634Y828065D01*
X1051627Y826820D01*
X1048240Y826820D01*
X1047943Y826760D01*
X1047702Y826597D01*
X1026722Y805617D01*
X1026555Y805365D01*
X1026499Y805067D01*
X1026564Y804770D01*
X1026740Y804523D01*
X1026998Y804364D01*
X1027261Y804317D01*
X1114921Y804317D01*
X1115219Y804377D01*
X1115469Y804549D01*
X1115632Y804804D01*
X1115683Y805079D01*
X1115683Y826788D01*
X1293813Y1004917D01*
X1293980Y1005170D01*
X1294036Y1005468D01*
X1293971Y1005764D01*
X1293795Y1006012D01*
X1293537Y1006171D01*
X1293274Y1006218D01*
X1020233Y1006218D01*
X1019935Y1006158D01*
X1019694Y1005995D01*
X832134Y818435D01*
X824855Y818435D01*
X824558Y818374D01*
X824316Y818212D01*
X781063Y774958D01*
X780896Y774706D01*
X780840Y774407D01*
X780898Y774128D01*
X781648Y772317D01*
X781648Y767683D01*
X779875Y763402D01*
X776598Y760125D01*
X772317Y758352D01*
X767683Y758352D01*
X763402Y760125D01*
X760125Y763402D01*
X758352Y767683D01*
X758352Y772317D01*
X760125Y776598D01*
X763402Y779875D01*
X767683Y781648D01*
X772317Y781648D01*
X774128Y780898D01*
X774426Y780840D01*
X774722Y780903D01*
X774958Y781063D01*
X815495Y821599D01*
X815662Y821852D01*
X815718Y822150D01*
X815653Y822446D01*
X815477Y822694D01*
X815219Y822853D01*
X814956Y822900D01*
X799716Y822900D01*
X797900Y824716D01*
X797900Y855284D01*
X799716Y857100D01*
X830284Y857100D01*
X832100Y855284D01*
X832100Y832450D01*
X832160Y832153D01*
X832332Y831903D01*
X832587Y831739D01*
X832886Y831688D01*
X833181Y831758D01*
X833401Y831911D01*
X1010872Y1009383D01*
X1011040Y1009635D01*
X1011095Y1009934D01*
X1011030Y1010230D01*
X1010855Y1010477D01*
X1010597Y1010636D01*
X1010333Y1010683D01*
X747104Y1010683D01*
X746806Y1010623D01*
X746565Y1010460D01*
X694540Y958435D01*
X694372Y958182D01*
X694317Y957896D01*
X694317Y813212D01*
X691788Y810683D01*
X617104Y810683D01*
X616806Y810623D01*
X616565Y810460D01*
X581063Y774958D01*
X580896Y774706D01*
X580840Y774407D01*
X580898Y774128D01*
X581648Y772317D01*
X581648Y767683D01*
X579875Y763402D01*
X576598Y760125D01*
X572317Y758352D01*
X567683Y758352D01*
X563402Y760125D01*
X560125Y763402D01*
X558352Y767683D01*
X558352Y772317D01*
X560125Y776598D01*
X563402Y779875D01*
X567683Y781648D01*
X572317Y781648D01*
X574128Y780898D01*
X574426Y780840D01*
X574722Y780903D01*
X574958Y781063D01*
X613212Y819317D01*
X684921Y819317D01*
X685219Y819377D01*
X685469Y819549D01*
X685632Y819804D01*
X685683Y820079D01*
X685683Y961788D01*
X743212Y1019317D01*
X1622360Y1019317D01*
X1622657Y1019377D01*
X1622907Y1019549D01*
X1623071Y1019804D01*
X1623121Y1020103D01*
X1623064Y1020370D01*
X1621820Y1023373D01*
X1621820Y1026627D01*
X1623065Y1029634D01*
X1625366Y1031935D01*
X1628373Y1033180D01*
X1631627Y1033180D01*
X1634634Y1031935D01*
X1637028Y1029540D01*
X1637281Y1029372D01*
X1637567Y1029317D01*
X1637896Y1029317D01*
X1638194Y1029377D01*
X1638435Y1029540D01*
X1706597Y1097702D01*
X1706764Y1097954D01*
X1706820Y1098240D01*
X1706820Y1101627D01*
X1708065Y1104634D01*
X1710366Y1106935D01*
X1713373Y1108180D01*
X1716627Y1108180D01*
X1719634Y1106935D01*
X1721935Y1104634D01*
X1723180Y1101627D01*
X1723180Y1098373D01*
X1721935Y1095366D01*
X1719634Y1093065D01*
X1716627Y1091820D01*
X1713240Y1091820D01*
X1712943Y1091760D01*
X1712702Y1091597D01*
X1641722Y1020617D01*
X1641555Y1020365D01*
X1641499Y1020067D01*
X1641564Y1019770D01*
X1641740Y1019523D01*
X1641998Y1019364D01*
X1642261Y1019317D01*
X1652360Y1019317D01*
X1652657Y1019377D01*
X1652907Y1019549D01*
X1653071Y1019804D01*
X1653121Y1020103D01*
X1653064Y1020370D01*
X1651820Y1023373D01*
X1651820Y1026627D01*
X1653065Y1029634D01*
X1655366Y1031935D01*
X1658373Y1033180D01*
X1661627Y1033180D01*
X1664634Y1031935D01*
X1667028Y1029540D01*
X1667281Y1029372D01*
X1667567Y1029317D01*
X1672896Y1029317D01*
X1673194Y1029377D01*
X1673435Y1029540D01*
X1761597Y1117702D01*
X1761764Y1117954D01*
X1761820Y1118240D01*
X1761820Y1121627D01*
X1763065Y1124634D01*
X1765366Y1126935D01*
X1768373Y1128180D01*
X1771627Y1128180D01*
X1774634Y1126935D01*
X1776935Y1124634D01*
X1778180Y1121627D01*
X1778180Y1118373D01*
X1776935Y1115366D01*
X1774634Y1113065D01*
X1771627Y1111820D01*
X1768240Y1111820D01*
X1767943Y1111760D01*
X1767702Y1111597D01*
X1676722Y1020617D01*
X1676555Y1020365D01*
X1676499Y1020067D01*
X1676564Y1019770D01*
X1676740Y1019523D01*
X1676998Y1019364D01*
X1677261Y1019317D01*
X1762896Y1019317D01*
X1763194Y1019377D01*
X1763435Y1019540D01*
X1845460Y1101565D01*
X1845628Y1101818D01*
X1845683Y1102104D01*
X1845683Y1106788D01*
X1876312Y1137416D01*
X1919675Y1137416D01*
X1919972Y1137477D01*
X1920222Y1137648D01*
X1920385Y1137904D01*
X1920436Y1138203D01*
X1920379Y1138470D01*
X1918900Y1142040D01*
X1918900Y1146405D01*
X1920379Y1149975D01*
X1920437Y1150272D01*
X1920374Y1150569D01*
X1920200Y1150818D01*
X1919944Y1150979D01*
X1919675Y1151028D01*
X584349Y1151028D01*
X584052Y1150968D01*
X583810Y1150805D01*
X497838Y1064834D01*
X497671Y1064581D01*
X497615Y1064283D01*
X497673Y1064003D01*
X498048Y1063099D01*
X498048Y1059101D01*
X496518Y1055408D01*
X493692Y1052582D01*
X489999Y1051052D01*
X486001Y1051052D01*
X482308Y1052582D01*
X479482Y1055408D01*
X477952Y1059101D01*
X477952Y1063099D01*
X479482Y1066792D01*
X482308Y1069618D01*
X486001Y1071148D01*
X489999Y1071148D01*
X490903Y1070773D01*
X491201Y1070715D01*
X491498Y1070778D01*
X491734Y1070938D01*
X580457Y1159662D01*
X1795475Y1159662D01*
X1795773Y1159722D01*
X1796023Y1159894D01*
X1796186Y1160149D01*
X1796237Y1160448D01*
X1796167Y1160743D01*
X1796014Y1160963D01*
X1793571Y1163406D01*
X1791900Y1167440D01*
X1791900Y1169238D01*
X1791840Y1169535D01*
X1791668Y1169785D01*
X1791413Y1169949D01*
X1791138Y1170000D01*
X230762Y1170000D01*
X230465Y1169940D01*
X230215Y1169768D01*
X230051Y1169513D01*
X230000Y1169238D01*
X230000Y500762D01*
X230060Y500465D01*
X230232Y500215D01*
X230487Y500051D01*
X230762Y500000D01*
X1219921Y500000D01*
X1220219Y500060D01*
G37*
%LPC*%
G36*
X1407865Y1021312D02*
X1404858Y1022557D01*
X1402557Y1024858D01*
X1401312Y1027865D01*
X1401312Y1031119D01*
X1401546Y1031684D01*
X1401604Y1031982D01*
X1401541Y1032279D01*
X1401381Y1032515D01*
X1375683Y1058212D01*
X1375683Y1132433D01*
X1375623Y1132730D01*
X1375460Y1132972D01*
X1373065Y1135366D01*
X1371820Y1138373D01*
X1371820Y1141627D01*
X1373065Y1144634D01*
X1375366Y1146935D01*
X1378373Y1148180D01*
X1381627Y1148180D01*
X1384634Y1146935D01*
X1386935Y1144634D01*
X1388180Y1141627D01*
X1388180Y1138373D01*
X1386935Y1135366D01*
X1384540Y1132972D01*
X1384372Y1132719D01*
X1384317Y1132433D01*
X1384317Y1062104D01*
X1384377Y1061806D01*
X1384540Y1061565D01*
X1408210Y1037895D01*
X1408462Y1037728D01*
X1408748Y1037672D01*
X1411119Y1037672D01*
X1414126Y1036427D01*
X1416427Y1034126D01*
X1417672Y1031119D01*
X1417672Y1027865D01*
X1416427Y1024858D01*
X1414126Y1022557D01*
X1411119Y1021312D01*
X1407865Y1021312D01*
G37*
G36*
X486001Y1076452D02*
X482308Y1077982D01*
X479482Y1080808D01*
X477952Y1084501D01*
X477952Y1088499D01*
X479482Y1092192D01*
X482308Y1095018D01*
X486001Y1096548D01*
X489999Y1096548D01*
X493692Y1095018D01*
X496518Y1092192D01*
X498048Y1088499D01*
X498048Y1084501D01*
X496518Y1080808D01*
X493692Y1077982D01*
X489999Y1076452D01*
X486001Y1076452D01*
G37*
G36*
X406601Y1076452D02*
X402908Y1077982D01*
X400082Y1080808D01*
X398552Y1084501D01*
X398552Y1088499D01*
X400082Y1092192D01*
X402908Y1095018D01*
X406601Y1096548D01*
X410599Y1096548D01*
X414292Y1095018D01*
X417118Y1092192D01*
X418648Y1088499D01*
X418648Y1084501D01*
X417118Y1080808D01*
X414292Y1077982D01*
X410599Y1076452D01*
X406601Y1076452D01*
G37*
G36*
X406601Y1051052D02*
X402908Y1052582D01*
X400082Y1055408D01*
X398552Y1059101D01*
X398552Y1063099D01*
X400082Y1066792D01*
X402908Y1069618D01*
X406601Y1071148D01*
X410599Y1071148D01*
X414292Y1069618D01*
X417118Y1066792D01*
X418648Y1063099D01*
X418648Y1059101D01*
X417118Y1055408D01*
X414292Y1052582D01*
X410599Y1051052D01*
X406601Y1051052D01*
G37*
G36*
X2321391Y1037998D02*
X2317358Y1039669D01*
X2314271Y1042756D01*
X2312600Y1046790D01*
X2312600Y1051155D01*
X2314271Y1055189D01*
X2317358Y1058276D01*
X2321391Y1059946D01*
X2325757Y1059946D01*
X2329790Y1058276D01*
X2332877Y1055189D01*
X2334548Y1051155D01*
X2334548Y1046790D01*
X2332877Y1042756D01*
X2329790Y1039669D01*
X2325757Y1037998D01*
X2321391Y1037998D01*
G37*
G36*
X2295991Y1037998D02*
X2291958Y1039669D01*
X2288871Y1042756D01*
X2287200Y1046790D01*
X2287200Y1051155D01*
X2288871Y1055189D01*
X2291958Y1058276D01*
X2295991Y1059946D01*
X2300357Y1059946D01*
X2304390Y1058276D01*
X2307477Y1055189D01*
X2309148Y1051155D01*
X2309148Y1046790D01*
X2307477Y1042756D01*
X2304390Y1039669D01*
X2300357Y1037998D01*
X2295991Y1037998D01*
G37*
G36*
X2270591Y1037998D02*
X2266558Y1039669D01*
X2263471Y1042756D01*
X2261800Y1046790D01*
X2261800Y1051155D01*
X2263471Y1055189D01*
X2266558Y1058276D01*
X2270591Y1059946D01*
X2274957Y1059946D01*
X2278990Y1058276D01*
X2282077Y1055189D01*
X2283748Y1051155D01*
X2283748Y1046790D01*
X2282077Y1042756D01*
X2278990Y1039669D01*
X2274957Y1037998D01*
X2270591Y1037998D01*
G37*
G36*
X2245191Y1037998D02*
X2241158Y1039669D01*
X2238071Y1042756D01*
X2236400Y1046790D01*
X2236400Y1051155D01*
X2238071Y1055189D01*
X2241158Y1058276D01*
X2245191Y1059946D01*
X2249557Y1059946D01*
X2253590Y1058276D01*
X2256677Y1055189D01*
X2258348Y1051155D01*
X2258348Y1046790D01*
X2256677Y1042756D01*
X2253590Y1039669D01*
X2249557Y1037998D01*
X2245191Y1037998D01*
G37*
G36*
X1953091Y1006248D02*
X1949058Y1007919D01*
X1945971Y1011006D01*
X1944300Y1015040D01*
X1944300Y1019405D01*
X1945971Y1023439D01*
X1949058Y1026526D01*
X1953091Y1028196D01*
X1954921Y1028196D01*
X1955219Y1028257D01*
X1955469Y1028428D01*
X1955632Y1028684D01*
X1955683Y1028958D01*
X1955683Y1035892D01*
X1955623Y1036190D01*
X1955460Y1036431D01*
X1955295Y1036597D01*
X1955042Y1036764D01*
X1954756Y1036820D01*
X1951369Y1036820D01*
X1948362Y1038065D01*
X1946061Y1040366D01*
X1944816Y1043373D01*
X1944816Y1046627D01*
X1946061Y1049634D01*
X1948362Y1051935D01*
X1951369Y1053180D01*
X1954623Y1053180D01*
X1957630Y1051935D01*
X1959931Y1049634D01*
X1961176Y1046627D01*
X1961176Y1043240D01*
X1961236Y1042943D01*
X1961399Y1042702D01*
X1964317Y1039784D01*
X1964317Y1024015D01*
X1964377Y1023718D01*
X1964540Y1023476D01*
X1964577Y1023439D01*
X1966248Y1019405D01*
X1966248Y1015040D01*
X1964577Y1011006D01*
X1961490Y1007919D01*
X1957457Y1006248D01*
X1953091Y1006248D01*
G37*
G36*
X413373Y856820D02*
X410366Y858065D01*
X408065Y860366D01*
X406820Y863373D01*
X406820Y866627D01*
X408065Y869634D01*
X410366Y871935D01*
X413373Y873180D01*
X416760Y873180D01*
X417057Y873240D01*
X417299Y873403D01*
X445460Y901565D01*
X445628Y901818D01*
X445683Y902104D01*
X445683Y992196D01*
X445623Y992494D01*
X445460Y992735D01*
X412334Y1025862D01*
X412081Y1026029D01*
X411783Y1026085D01*
X411503Y1026027D01*
X410599Y1025652D01*
X406601Y1025652D01*
X402908Y1027182D01*
X400082Y1030008D01*
X398552Y1033701D01*
X398552Y1037699D01*
X400082Y1041392D01*
X402908Y1044218D01*
X406601Y1045748D01*
X410599Y1045748D01*
X414292Y1044218D01*
X417118Y1041392D01*
X418648Y1037699D01*
X418648Y1033701D01*
X418273Y1032797D01*
X418215Y1032499D01*
X418278Y1032202D01*
X418438Y1031966D01*
X454317Y996088D01*
X454317Y898212D01*
X423403Y867299D01*
X423236Y867046D01*
X423180Y866760D01*
X423180Y863373D01*
X421935Y860366D01*
X419634Y858065D01*
X416627Y856820D01*
X413373Y856820D01*
G37*
G36*
X486001Y1025652D02*
X482308Y1027182D01*
X479482Y1030008D01*
X477952Y1033701D01*
X477952Y1037699D01*
X479482Y1041392D01*
X482308Y1044218D01*
X486001Y1045748D01*
X489999Y1045748D01*
X493692Y1044218D01*
X496518Y1041392D01*
X498048Y1037699D01*
X498048Y1033701D01*
X496518Y1030008D01*
X493692Y1027182D01*
X489999Y1025652D01*
X486001Y1025652D01*
G37*
G36*
X2334091Y1006248D02*
X2330058Y1007919D01*
X2326971Y1011006D01*
X2325300Y1015040D01*
X2325300Y1019405D01*
X2326971Y1023439D01*
X2330058Y1026526D01*
X2334091Y1028196D01*
X2338457Y1028196D01*
X2342490Y1026526D01*
X2345577Y1023439D01*
X2347248Y1019405D01*
X2347248Y1015040D01*
X2345577Y1011006D01*
X2342490Y1007919D01*
X2338457Y1006248D01*
X2334091Y1006248D01*
G37*
G36*
X1826091Y1006248D02*
X1822058Y1007919D01*
X1818971Y1011006D01*
X1817300Y1015040D01*
X1817300Y1019405D01*
X1818971Y1023439D01*
X1822058Y1026526D01*
X1826091Y1028196D01*
X1830457Y1028196D01*
X1834490Y1026526D01*
X1837577Y1023439D01*
X1839248Y1019405D01*
X1839248Y1015040D01*
X1837577Y1011006D01*
X1834490Y1007919D01*
X1830457Y1006248D01*
X1826091Y1006248D01*
G37*
G36*
X1902291Y1006248D02*
X1898258Y1007919D01*
X1895171Y1011006D01*
X1893500Y1015040D01*
X1893500Y1019405D01*
X1895171Y1023439D01*
X1898258Y1026526D01*
X1902291Y1028196D01*
X1906657Y1028196D01*
X1910690Y1026526D01*
X1913777Y1023439D01*
X1915448Y1019405D01*
X1915448Y1015040D01*
X1913777Y1011006D01*
X1910690Y1007919D01*
X1906657Y1006248D01*
X1902291Y1006248D01*
G37*
G36*
X2029291Y1006248D02*
X2025258Y1007919D01*
X2022171Y1011006D01*
X2020500Y1015040D01*
X2020500Y1019405D01*
X2022171Y1023439D01*
X2025258Y1026526D01*
X2029291Y1028196D01*
X2033657Y1028196D01*
X2037690Y1026526D01*
X2040777Y1023439D01*
X2042448Y1019405D01*
X2042448Y1015040D01*
X2040777Y1011006D01*
X2037690Y1007919D01*
X2033657Y1006248D01*
X2029291Y1006248D01*
G37*
G36*
X1851491Y1006248D02*
X1847458Y1007919D01*
X1844371Y1011006D01*
X1842700Y1015040D01*
X1842700Y1019405D01*
X1844371Y1023439D01*
X1847458Y1026526D01*
X1851491Y1028196D01*
X1855857Y1028196D01*
X1859890Y1026526D01*
X1862977Y1023439D01*
X1864648Y1019405D01*
X1864648Y1015040D01*
X1862977Y1011006D01*
X1859890Y1007919D01*
X1855857Y1006248D01*
X1851491Y1006248D01*
G37*
G36*
X1876891Y1006248D02*
X1872858Y1007919D01*
X1869771Y1011006D01*
X1868100Y1015040D01*
X1868100Y1019405D01*
X1869771Y1023439D01*
X1872858Y1026526D01*
X1876891Y1028196D01*
X1881257Y1028196D01*
X1885290Y1026526D01*
X1888377Y1023439D01*
X1890048Y1019405D01*
X1890048Y1015040D01*
X1888377Y1011006D01*
X1885290Y1007919D01*
X1881257Y1006248D01*
X1876891Y1006248D01*
G37*
G36*
X2080091Y1006248D02*
X2076058Y1007919D01*
X2072971Y1011006D01*
X2071300Y1015040D01*
X2071300Y1019405D01*
X2072971Y1023439D01*
X2076058Y1026526D01*
X2080091Y1028196D01*
X2084457Y1028196D01*
X2088490Y1026526D01*
X2091577Y1023439D01*
X2093248Y1019405D01*
X2093248Y1015040D01*
X2091577Y1011006D01*
X2088490Y1007919D01*
X2084457Y1006248D01*
X2080091Y1006248D01*
G37*
G36*
X2359491Y1006248D02*
X2355458Y1007919D01*
X2352371Y1011006D01*
X2350700Y1015040D01*
X2350700Y1019405D01*
X2352371Y1023439D01*
X2355458Y1026526D01*
X2359491Y1028196D01*
X2363857Y1028196D01*
X2367890Y1026526D01*
X2370977Y1023439D01*
X2372648Y1019405D01*
X2372648Y1015040D01*
X2370977Y1011006D01*
X2367890Y1007919D01*
X2363857Y1006248D01*
X2359491Y1006248D01*
G37*
G36*
X2283291Y1006248D02*
X2279258Y1007919D01*
X2276171Y1011006D01*
X2274500Y1015040D01*
X2274500Y1019405D01*
X2276171Y1023439D01*
X2279258Y1026526D01*
X2283291Y1028196D01*
X2287657Y1028196D01*
X2291690Y1026526D01*
X2294777Y1023439D01*
X2296448Y1019405D01*
X2296448Y1015040D01*
X2294777Y1011006D01*
X2291690Y1007919D01*
X2287657Y1006248D01*
X2283291Y1006248D01*
G37*
G36*
X2257891Y1006248D02*
X2253858Y1007919D01*
X2250771Y1011006D01*
X2249100Y1015040D01*
X2249100Y1019405D01*
X2250771Y1023439D01*
X2253858Y1026526D01*
X2257891Y1028196D01*
X2262257Y1028196D01*
X2266290Y1026526D01*
X2269377Y1023439D01*
X2271048Y1019405D01*
X2271048Y1015040D01*
X2269377Y1011006D01*
X2266290Y1007919D01*
X2262257Y1006248D01*
X2257891Y1006248D01*
G37*
G36*
X2207091Y1006248D02*
X2203058Y1007919D01*
X2199971Y1011006D01*
X2198300Y1015040D01*
X2198300Y1019405D01*
X2199971Y1023439D01*
X2203058Y1026526D01*
X2207091Y1028196D01*
X2211457Y1028196D01*
X2215490Y1026526D01*
X2218577Y1023439D01*
X2220248Y1019405D01*
X2220248Y1015040D01*
X2218577Y1011006D01*
X2215490Y1007919D01*
X2211457Y1006248D01*
X2207091Y1006248D01*
G37*
G36*
X1927691Y1006248D02*
X1923658Y1007919D01*
X1920571Y1011006D01*
X1918900Y1015040D01*
X1918900Y1019405D01*
X1920571Y1023439D01*
X1923658Y1026526D01*
X1927691Y1028196D01*
X1932057Y1028196D01*
X1936090Y1026526D01*
X1939177Y1023439D01*
X1940848Y1019405D01*
X1940848Y1015040D01*
X1939177Y1011006D01*
X1936090Y1007919D01*
X1932057Y1006248D01*
X1927691Y1006248D01*
G37*
G36*
X2181691Y1006248D02*
X2177658Y1007919D01*
X2174571Y1011006D01*
X2172900Y1015040D01*
X2172900Y1019405D01*
X2174571Y1023439D01*
X2177658Y1026526D01*
X2181691Y1028196D01*
X2186057Y1028196D01*
X2190090Y1026526D01*
X2193177Y1023439D01*
X2194848Y1019405D01*
X2194848Y1015040D01*
X2193177Y1011006D01*
X2190090Y1007919D01*
X2186057Y1006248D01*
X2181691Y1006248D01*
G37*
G36*
X2156291Y1006248D02*
X2152258Y1007919D01*
X2149171Y1011006D01*
X2147500Y1015040D01*
X2147500Y1019405D01*
X2149171Y1023439D01*
X2152258Y1026526D01*
X2156291Y1028196D01*
X2160657Y1028196D01*
X2164690Y1026526D01*
X2167777Y1023439D01*
X2169448Y1019405D01*
X2169448Y1015040D01*
X2167777Y1011006D01*
X2164690Y1007919D01*
X2160657Y1006248D01*
X2156291Y1006248D01*
G37*
G36*
X2130891Y1006248D02*
X2126858Y1007919D01*
X2123771Y1011006D01*
X2122100Y1015040D01*
X2122100Y1019405D01*
X2123771Y1023439D01*
X2126858Y1026526D01*
X2130891Y1028196D01*
X2135257Y1028196D01*
X2139290Y1026526D01*
X2142377Y1023439D01*
X2144048Y1019405D01*
X2144048Y1015040D01*
X2142377Y1011006D01*
X2139290Y1007919D01*
X2135257Y1006248D01*
X2130891Y1006248D01*
G37*
G36*
X2105491Y1006248D02*
X2101458Y1007919D01*
X2098371Y1011006D01*
X2096700Y1015040D01*
X2096700Y1019405D01*
X2098371Y1023439D01*
X2101458Y1026526D01*
X2105491Y1028196D01*
X2109857Y1028196D01*
X2113890Y1026526D01*
X2116977Y1023439D01*
X2118648Y1019405D01*
X2118648Y1015040D01*
X2116977Y1011006D01*
X2113890Y1007919D01*
X2109857Y1006248D01*
X2105491Y1006248D01*
G37*
G36*
X2376660Y1017984D02*
X2376660Y1019294D01*
X2378245Y1023121D01*
X2381175Y1026051D01*
X2385003Y1027636D01*
X2386312Y1027636D01*
X2386312Y1017984D01*
X2376660Y1017984D01*
G37*
G36*
X406601Y1000252D02*
X402908Y1001782D01*
X400082Y1004608D01*
X398552Y1008301D01*
X398552Y1012299D01*
X400082Y1015992D01*
X402908Y1018818D01*
X406601Y1020348D01*
X410599Y1020348D01*
X414292Y1018818D01*
X417118Y1015992D01*
X418648Y1012299D01*
X418648Y1008301D01*
X417118Y1004608D01*
X414292Y1001782D01*
X410599Y1000252D01*
X406601Y1000252D01*
G37*
G36*
X488762Y1011062D02*
X488762Y1019788D01*
X489887Y1019788D01*
X493375Y1018344D01*
X496044Y1015675D01*
X497488Y1012187D01*
X497488Y1011062D01*
X488762Y1011062D01*
G37*
G36*
X478512Y1011062D02*
X478512Y1012187D01*
X479956Y1015675D01*
X482625Y1018344D01*
X486113Y1019788D01*
X487238Y1019788D01*
X487238Y1011062D01*
X478512Y1011062D01*
G37*
G36*
X2385003Y1006808D02*
X2381175Y1008394D01*
X2378245Y1011323D01*
X2376660Y1015151D01*
X2376660Y1016460D01*
X2386312Y1016460D01*
X2386312Y1006808D01*
X2385003Y1006808D01*
G37*
G36*
X486113Y1000812D02*
X482625Y1002256D01*
X479956Y1004925D01*
X478512Y1008413D01*
X478512Y1009538D01*
X487238Y1009538D01*
X487238Y1000812D01*
X486113Y1000812D01*
G37*
G36*
X488762Y1000812D02*
X488762Y1009538D01*
X497488Y1009538D01*
X497488Y1008413D01*
X496044Y1004925D01*
X493375Y1002256D01*
X489887Y1000812D01*
X488762Y1000812D01*
G37*
G36*
X1213373Y781820D02*
X1210366Y783065D01*
X1208065Y785366D01*
X1206820Y788373D01*
X1206820Y791627D01*
X1208065Y794634D01*
X1210366Y796935D01*
X1213373Y798180D01*
X1216760Y798180D01*
X1217057Y798240D01*
X1217299Y798403D01*
X1220995Y802100D01*
X1221162Y802352D01*
X1221218Y802638D01*
X1221218Y816232D01*
X1359303Y954317D01*
X1542896Y954317D01*
X1543194Y954377D01*
X1543435Y954540D01*
X1556597Y967702D01*
X1556764Y967954D01*
X1556820Y968240D01*
X1556820Y971627D01*
X1558065Y974634D01*
X1560366Y976935D01*
X1563373Y978180D01*
X1566627Y978180D01*
X1569634Y976935D01*
X1571935Y974634D01*
X1573180Y971627D01*
X1573180Y968373D01*
X1571935Y965366D01*
X1569634Y963065D01*
X1566627Y961820D01*
X1563240Y961820D01*
X1562943Y961760D01*
X1562702Y961597D01*
X1551722Y950617D01*
X1551555Y950365D01*
X1551499Y950067D01*
X1551564Y949770D01*
X1551740Y949523D01*
X1551998Y949364D01*
X1552261Y949317D01*
X1562896Y949317D01*
X1563194Y949377D01*
X1563435Y949540D01*
X1581597Y967702D01*
X1581764Y967954D01*
X1581820Y968240D01*
X1581820Y971627D01*
X1583065Y974634D01*
X1585366Y976935D01*
X1588373Y978180D01*
X1591627Y978180D01*
X1594634Y976935D01*
X1596935Y974634D01*
X1598180Y971627D01*
X1598180Y968373D01*
X1596935Y965366D01*
X1594634Y963065D01*
X1591627Y961820D01*
X1588240Y961820D01*
X1587943Y961760D01*
X1587702Y961597D01*
X1566788Y940683D01*
X1364509Y940683D01*
X1364212Y940623D01*
X1363971Y940460D01*
X1281911Y858401D01*
X1281744Y858148D01*
X1281688Y857850D01*
X1281753Y857554D01*
X1281929Y857306D01*
X1282187Y857147D01*
X1282450Y857100D01*
X1305284Y857100D01*
X1307100Y855284D01*
X1307100Y824716D01*
X1305284Y822900D01*
X1274716Y822900D01*
X1272900Y824716D01*
X1272900Y847550D01*
X1272840Y847847D01*
X1272668Y848097D01*
X1272413Y848261D01*
X1272114Y848312D01*
X1271819Y848242D01*
X1271599Y848089D01*
X1234540Y811029D01*
X1234372Y810777D01*
X1234317Y810491D01*
X1234317Y797567D01*
X1234377Y797270D01*
X1234540Y797028D01*
X1236935Y794634D01*
X1238180Y791627D01*
X1238180Y788373D01*
X1236935Y785366D01*
X1234634Y783065D01*
X1231627Y781820D01*
X1228373Y781820D01*
X1225366Y783065D01*
X1223039Y785393D01*
X1222786Y785560D01*
X1222488Y785616D01*
X1222192Y785551D01*
X1221961Y785393D01*
X1219634Y783065D01*
X1216627Y781820D01*
X1213373Y781820D01*
G37*
G36*
X315933Y909852D02*
X312204Y911397D01*
X309349Y914252D01*
X307804Y917981D01*
X307804Y922019D01*
X309349Y925748D01*
X312204Y928603D01*
X315933Y930148D01*
X334067Y930148D01*
X337796Y928603D01*
X340651Y925748D01*
X342196Y922019D01*
X342196Y917981D01*
X340651Y914252D01*
X337796Y911397D01*
X334067Y909852D01*
X315933Y909852D01*
G37*
G36*
X273190Y910900D02*
X269845Y912285D01*
X267285Y914845D01*
X265900Y918190D01*
X265900Y921810D01*
X267285Y925155D01*
X269845Y927715D01*
X273190Y929100D01*
X276810Y929100D01*
X280155Y927715D01*
X282715Y925155D01*
X284100Y921810D01*
X284100Y918190D01*
X282715Y914845D01*
X280155Y912285D01*
X276810Y910900D01*
X273190Y910900D01*
G37*
G36*
X315933Y884852D02*
X312204Y886397D01*
X309349Y889252D01*
X307804Y892981D01*
X307804Y897019D01*
X309349Y900748D01*
X312204Y903603D01*
X315933Y905148D01*
X334067Y905148D01*
X337796Y903603D01*
X340651Y900748D01*
X342196Y897019D01*
X342196Y892981D01*
X340651Y889252D01*
X337796Y886397D01*
X334067Y884852D01*
X315933Y884852D01*
G37*
G36*
X272981Y852804D02*
X269252Y854349D01*
X266397Y857204D01*
X264852Y860933D01*
X264852Y879067D01*
X266397Y882796D01*
X269252Y885651D01*
X272981Y887196D01*
X277019Y887196D01*
X280748Y885651D01*
X283603Y882796D01*
X285148Y879067D01*
X285148Y860933D01*
X283603Y857204D01*
X280748Y854349D01*
X277019Y852804D01*
X272981Y852804D01*
G37*
G36*
X323190Y860900D02*
X319845Y862285D01*
X317285Y864845D01*
X315900Y868190D01*
X315900Y871810D01*
X317285Y875155D01*
X319845Y877715D01*
X323190Y879100D01*
X326810Y879100D01*
X330155Y877715D01*
X332715Y875155D01*
X334100Y871810D01*
X334100Y868190D01*
X332715Y864845D01*
X330155Y862285D01*
X326810Y860900D01*
X323190Y860900D01*
G37*
G36*
X509716Y822900D02*
X507900Y824716D01*
X507900Y855284D01*
X509716Y857100D01*
X540284Y857100D01*
X542100Y855284D01*
X542100Y824716D01*
X540284Y822900D01*
X509716Y822900D01*
G37*
G36*
X1794716Y822900D02*
X1792900Y824716D01*
X1792900Y855284D01*
X1794716Y857100D01*
X1825284Y857100D01*
X1827100Y855284D01*
X1827100Y824716D01*
X1825284Y822900D01*
X1794716Y822900D01*
G37*
G36*
X909716Y822900D02*
X907900Y824716D01*
X907900Y855284D01*
X909716Y857100D01*
X940284Y857100D01*
X942100Y855284D01*
X942100Y824716D01*
X940284Y822900D01*
X909716Y822900D01*
G37*
G36*
X2134716Y822900D02*
X2132900Y824716D01*
X2132900Y855284D01*
X2134716Y857100D01*
X2165284Y857100D01*
X2167100Y855284D01*
X2167100Y824716D01*
X2165284Y822900D01*
X2134716Y822900D01*
G37*
G36*
X709716Y822900D02*
X707900Y824716D01*
X707900Y855284D01*
X709716Y857100D01*
X740284Y857100D01*
X742100Y855284D01*
X742100Y824716D01*
X740284Y822900D01*
X709716Y822900D01*
G37*
G36*
X1704716Y822900D02*
X1702900Y824716D01*
X1702900Y855284D01*
X1704716Y857100D01*
X1735284Y857100D01*
X1737100Y855284D01*
X1737100Y824716D01*
X1735284Y822900D01*
X1704716Y822900D01*
G37*
G36*
X599716Y822900D02*
X597900Y824716D01*
X597900Y855284D01*
X599716Y857100D01*
X630284Y857100D01*
X632100Y855284D01*
X632100Y824716D01*
X630284Y822900D01*
X599716Y822900D01*
G37*
G36*
X1364716Y822900D02*
X1362900Y824716D01*
X1362900Y855284D01*
X1364716Y857100D01*
X1395284Y857100D01*
X1397100Y855284D01*
X1397100Y824716D01*
X1395284Y822900D01*
X1364716Y822900D01*
G37*
G36*
X2224716Y822900D02*
X2222900Y824716D01*
X2222900Y855284D01*
X2224716Y857100D01*
X2255284Y857100D01*
X2257100Y855284D01*
X2257100Y824716D01*
X2255284Y822900D01*
X2224716Y822900D01*
G37*
G36*
X315933Y834852D02*
X312204Y836397D01*
X309349Y839252D01*
X307804Y842981D01*
X307804Y847019D01*
X309349Y850748D01*
X312204Y853603D01*
X315933Y855148D01*
X334067Y855148D01*
X337796Y853603D01*
X340651Y850748D01*
X342196Y847019D01*
X342196Y842981D01*
X340651Y839252D01*
X337796Y836397D01*
X334067Y834852D01*
X315933Y834852D01*
G37*
G36*
X315933Y809852D02*
X312204Y811397D01*
X309349Y814252D01*
X307804Y817981D01*
X307804Y822019D01*
X309349Y825748D01*
X312204Y828603D01*
X315933Y830148D01*
X334067Y830148D01*
X337796Y828603D01*
X340651Y825748D01*
X342196Y822019D01*
X342196Y817981D01*
X340651Y814252D01*
X337796Y811397D01*
X334067Y809852D01*
X315933Y809852D01*
G37*
G36*
X273190Y810900D02*
X269845Y812285D01*
X267285Y814845D01*
X265900Y818190D01*
X265900Y821810D01*
X267285Y825155D01*
X269845Y827715D01*
X273190Y829100D01*
X276810Y829100D01*
X280155Y827715D01*
X282715Y825155D01*
X284100Y821810D01*
X284100Y818190D01*
X282715Y814845D01*
X280155Y812285D01*
X276810Y810900D01*
X273190Y810900D01*
G37*
G36*
X295161Y528132D02*
X291034Y529841D01*
X287875Y533000D01*
X286166Y537127D01*
X286166Y539921D01*
X286106Y540219D01*
X285934Y540469D01*
X285679Y540632D01*
X285404Y540683D01*
X263212Y540683D01*
X235683Y568212D01*
X235683Y596788D01*
X310460Y671565D01*
X310628Y671818D01*
X310683Y672104D01*
X310683Y756788D01*
X378212Y824317D01*
X442433Y824317D01*
X442730Y824377D01*
X442972Y824540D01*
X445366Y826935D01*
X448373Y828180D01*
X451627Y828180D01*
X454634Y826935D01*
X456935Y824634D01*
X458180Y821627D01*
X458180Y818373D01*
X456935Y815366D01*
X454634Y813065D01*
X451627Y811820D01*
X448373Y811820D01*
X445366Y813065D01*
X442972Y815460D01*
X442719Y815628D01*
X442433Y815683D01*
X382104Y815683D01*
X381806Y815623D01*
X381565Y815460D01*
X319540Y753435D01*
X319372Y753182D01*
X319317Y752896D01*
X319317Y668212D01*
X244540Y593435D01*
X244372Y593182D01*
X244317Y592896D01*
X244317Y572104D01*
X244377Y571806D01*
X244540Y571565D01*
X266565Y549540D01*
X266818Y549372D01*
X267104Y549317D01*
X285404Y549317D01*
X285701Y549377D01*
X285951Y549549D01*
X286115Y549804D01*
X286166Y550079D01*
X286166Y557849D01*
X287875Y561976D01*
X291034Y565135D01*
X295161Y566844D01*
X299627Y566844D01*
X303754Y565135D01*
X306913Y561976D01*
X308622Y557849D01*
X308622Y537127D01*
X306913Y533000D01*
X303754Y529841D01*
X299627Y528132D01*
X295161Y528132D01*
G37*
G36*
X495161Y528132D02*
X491034Y529841D01*
X487875Y533000D01*
X486166Y537127D01*
X486166Y542610D01*
X486106Y542907D01*
X485934Y543157D01*
X485679Y543321D01*
X485404Y543372D01*
X469816Y543372D01*
X469519Y543312D01*
X469311Y543171D01*
X465724Y543171D01*
X440683Y568212D01*
X440683Y606788D01*
X518212Y684317D01*
X572896Y684317D01*
X573194Y684377D01*
X573435Y684540D01*
X696597Y807702D01*
X696764Y807954D01*
X696820Y808240D01*
X696820Y809596D01*
X698065Y812603D01*
X700366Y814904D01*
X703373Y816149D01*
X706627Y816149D01*
X709634Y814904D01*
X711935Y812603D01*
X713180Y809596D01*
X713180Y806342D01*
X711935Y803336D01*
X709634Y801035D01*
X706627Y799789D01*
X703373Y799789D01*
X702090Y800321D01*
X701793Y800379D01*
X701496Y800316D01*
X701260Y800155D01*
X576788Y675683D01*
X522104Y675683D01*
X521806Y675623D01*
X521565Y675460D01*
X449540Y603435D01*
X449372Y603182D01*
X449317Y602896D01*
X449317Y572104D01*
X449377Y571806D01*
X449540Y571565D01*
X469278Y551827D01*
X469530Y551660D01*
X469816Y551604D01*
X485404Y551604D01*
X485701Y551664D01*
X485951Y551836D01*
X486115Y552091D01*
X486166Y552366D01*
X486166Y557849D01*
X487875Y561976D01*
X491034Y565135D01*
X495161Y566844D01*
X499627Y566844D01*
X503754Y565135D01*
X506913Y561976D01*
X508622Y557849D01*
X508622Y537127D01*
X506913Y533000D01*
X503754Y529841D01*
X499627Y528132D01*
X495161Y528132D01*
G37*
G36*
X275402Y761599D02*
X268899Y768102D01*
X268899Y777298D01*
X275402Y783801D01*
X284598Y783801D01*
X291101Y777298D01*
X291101Y768102D01*
X284598Y761599D01*
X275402Y761599D01*
G37*
G36*
X742683Y758352D02*
X738402Y760125D01*
X735125Y763402D01*
X733352Y767683D01*
X733352Y772317D01*
X735125Y776598D01*
X738402Y779875D01*
X742683Y781648D01*
X747317Y781648D01*
X751598Y779875D01*
X754875Y776598D01*
X756648Y772317D01*
X756648Y767683D01*
X754875Y763402D01*
X751598Y760125D01*
X747317Y758352D01*
X742683Y758352D01*
G37*
G36*
X2167683Y758352D02*
X2163402Y760125D01*
X2160125Y763402D01*
X2158352Y767683D01*
X2158352Y772317D01*
X2160125Y776598D01*
X2163402Y779875D01*
X2167683Y781648D01*
X2172317Y781648D01*
X2176598Y779875D01*
X2179875Y776598D01*
X2181648Y772317D01*
X2181648Y767683D01*
X2179875Y763402D01*
X2176598Y760125D01*
X2172317Y758352D01*
X2167683Y758352D01*
G37*
G36*
X2192683Y758352D02*
X2188402Y760125D01*
X2185125Y763402D01*
X2183352Y767683D01*
X2183352Y772317D01*
X2185125Y776598D01*
X2188402Y779875D01*
X2192683Y781648D01*
X2197317Y781648D01*
X2201598Y779875D01*
X2204875Y776598D01*
X2206648Y772317D01*
X2206648Y767683D01*
X2204875Y763402D01*
X2201598Y760125D01*
X2197317Y758352D01*
X2192683Y758352D01*
G37*
G36*
X1762683Y758352D02*
X1758402Y760125D01*
X1755125Y763402D01*
X1753352Y767683D01*
X1753352Y772317D01*
X1755125Y776598D01*
X1758402Y779875D01*
X1762683Y781648D01*
X1767317Y781648D01*
X1771598Y779875D01*
X1774875Y776598D01*
X1776648Y772317D01*
X1776648Y767683D01*
X1774875Y763402D01*
X1771598Y760125D01*
X1767317Y758352D01*
X1762683Y758352D01*
G37*
G36*
X1737683Y758352D02*
X1733402Y760125D01*
X1730125Y763402D01*
X1728352Y767683D01*
X1728352Y772317D01*
X1730125Y776598D01*
X1733402Y779875D01*
X1737683Y781648D01*
X1742317Y781648D01*
X1746598Y779875D01*
X1749875Y776598D01*
X1751648Y772317D01*
X1751648Y767683D01*
X1749875Y763402D01*
X1746598Y760125D01*
X1742317Y758352D01*
X1737683Y758352D01*
G37*
G36*
X942683Y758352D02*
X938402Y760125D01*
X935125Y763402D01*
X933352Y767683D01*
X933352Y772317D01*
X935125Y776598D01*
X938402Y779875D01*
X942683Y781648D01*
X947317Y781648D01*
X951598Y779875D01*
X954875Y776598D01*
X956648Y772317D01*
X956648Y767683D01*
X954875Y763402D01*
X951598Y760125D01*
X947317Y758352D01*
X942683Y758352D01*
G37*
G36*
X542683Y758352D02*
X538402Y760125D01*
X535125Y763402D01*
X533352Y767683D01*
X533352Y772317D01*
X535125Y776598D01*
X538402Y779875D01*
X542683Y781648D01*
X547317Y781648D01*
X551598Y779875D01*
X554875Y776598D01*
X556648Y772317D01*
X556648Y767683D01*
X554875Y763402D01*
X551598Y760125D01*
X547317Y758352D01*
X542683Y758352D01*
G37*
G36*
X983912Y770762D02*
X983912Y772206D01*
X985600Y776281D01*
X988719Y779400D01*
X992794Y781088D01*
X994238Y781088D01*
X994238Y770762D01*
X983912Y770762D01*
G37*
G36*
X783912Y770762D02*
X783912Y772206D01*
X785600Y776281D01*
X788719Y779400D01*
X792794Y781088D01*
X794238Y781088D01*
X794238Y770762D01*
X783912Y770762D01*
G37*
G36*
X583912Y770762D02*
X583912Y772206D01*
X585600Y776281D01*
X588719Y779400D01*
X592794Y781088D01*
X594238Y781088D01*
X594238Y770762D01*
X583912Y770762D01*
G37*
G36*
X1348912Y770762D02*
X1348912Y772206D01*
X1350600Y776281D01*
X1353719Y779400D01*
X1357794Y781088D01*
X1359238Y781088D01*
X1359238Y770762D01*
X1348912Y770762D01*
G37*
G36*
X2208912Y770762D02*
X2208912Y772206D01*
X2210600Y776281D01*
X2213719Y779400D01*
X2217794Y781088D01*
X2219238Y781088D01*
X2219238Y770762D01*
X2208912Y770762D01*
G37*
G36*
X2220762Y770762D02*
X2220762Y781088D01*
X2222206Y781088D01*
X2226281Y779400D01*
X2229400Y776281D01*
X2231088Y772206D01*
X2231088Y770762D01*
X2220762Y770762D01*
G37*
G36*
X1790762Y770762D02*
X1790762Y781088D01*
X1792206Y781088D01*
X1796281Y779400D01*
X1799400Y776281D01*
X1801088Y772206D01*
X1801088Y770762D01*
X1790762Y770762D01*
G37*
G36*
X1360762Y770762D02*
X1360762Y781088D01*
X1362206Y781088D01*
X1366281Y779400D01*
X1369400Y776281D01*
X1371088Y772206D01*
X1371088Y770762D01*
X1360762Y770762D01*
G37*
G36*
X595762Y770762D02*
X595762Y781088D01*
X597206Y781088D01*
X601281Y779400D01*
X604400Y776281D01*
X606088Y772206D01*
X606088Y770762D01*
X595762Y770762D01*
G37*
G36*
X795762Y770762D02*
X795762Y781088D01*
X797206Y781088D01*
X801281Y779400D01*
X804400Y776281D01*
X806088Y772206D01*
X806088Y770762D01*
X795762Y770762D01*
G37*
G36*
X995762Y770762D02*
X995762Y781088D01*
X997206Y781088D01*
X1001281Y779400D01*
X1004400Y776281D01*
X1006088Y772206D01*
X1006088Y770762D01*
X995762Y770762D01*
G37*
G36*
X1778912Y770762D02*
X1778912Y772206D01*
X1780600Y776281D01*
X1783719Y779400D01*
X1787794Y781088D01*
X1789238Y781088D01*
X1789238Y770762D01*
X1778912Y770762D01*
G37*
G36*
X1787794Y758912D02*
X1783719Y760600D01*
X1780600Y763719D01*
X1778912Y767794D01*
X1778912Y769238D01*
X1789238Y769238D01*
X1789238Y758912D01*
X1787794Y758912D01*
G37*
G36*
X592794Y758912D02*
X588719Y760600D01*
X585600Y763719D01*
X583912Y767794D01*
X583912Y769238D01*
X594238Y769238D01*
X594238Y758912D01*
X592794Y758912D01*
G37*
G36*
X595762Y758912D02*
X595762Y769238D01*
X606088Y769238D01*
X606088Y767794D01*
X604400Y763719D01*
X601281Y760600D01*
X597206Y758912D01*
X595762Y758912D01*
G37*
G36*
X792794Y758912D02*
X788719Y760600D01*
X785600Y763719D01*
X783912Y767794D01*
X783912Y769238D01*
X794238Y769238D01*
X794238Y758912D01*
X792794Y758912D01*
G37*
G36*
X795762Y758912D02*
X795762Y769238D01*
X806088Y769238D01*
X806088Y767794D01*
X804400Y763719D01*
X801281Y760600D01*
X797206Y758912D01*
X795762Y758912D01*
G37*
G36*
X992794Y758912D02*
X988719Y760600D01*
X985600Y763719D01*
X983912Y767794D01*
X983912Y769238D01*
X994238Y769238D01*
X994238Y758912D01*
X992794Y758912D01*
G37*
G36*
X995762Y758912D02*
X995762Y769238D01*
X1006088Y769238D01*
X1006088Y767794D01*
X1004400Y763719D01*
X1001281Y760600D01*
X997206Y758912D01*
X995762Y758912D01*
G37*
G36*
X2220762Y758912D02*
X2220762Y769238D01*
X2231088Y769238D01*
X2231088Y767794D01*
X2229400Y763719D01*
X2226281Y760600D01*
X2222206Y758912D01*
X2220762Y758912D01*
G37*
G36*
X2217794Y758912D02*
X2213719Y760600D01*
X2210600Y763719D01*
X2208912Y767794D01*
X2208912Y769238D01*
X2219238Y769238D01*
X2219238Y758912D01*
X2217794Y758912D01*
G37*
G36*
X1790762Y758912D02*
X1790762Y769238D01*
X1801088Y769238D01*
X1801088Y767794D01*
X1799400Y763719D01*
X1796281Y760600D01*
X1792206Y758912D01*
X1790762Y758912D01*
G37*
G36*
X1357794Y758912D02*
X1353719Y760600D01*
X1350600Y763719D01*
X1348912Y767794D01*
X1348912Y769238D01*
X1359238Y769238D01*
X1359238Y758912D01*
X1357794Y758912D01*
G37*
G36*
X1360762Y758912D02*
X1360762Y769238D01*
X1371088Y769238D01*
X1371088Y767794D01*
X1369400Y763719D01*
X1366281Y760600D01*
X1362206Y758912D01*
X1360762Y758912D01*
G37*
G36*
X375718Y746502D02*
X373902Y748318D01*
X373902Y765482D01*
X375718Y767298D01*
X392882Y767298D01*
X394698Y765482D01*
X394698Y748318D01*
X392882Y746502D01*
X375718Y746502D01*
G37*
G36*
X445402Y741599D02*
X438899Y748102D01*
X438899Y757298D01*
X445402Y763801D01*
X454598Y763801D01*
X461101Y757298D01*
X461101Y748102D01*
X454598Y741599D01*
X445402Y741599D01*
G37*
G36*
X280762Y748062D02*
X280762Y757841D01*
X284366Y757841D01*
X290541Y751666D01*
X290541Y748062D01*
X280762Y748062D01*
G37*
G36*
X269459Y748062D02*
X269459Y751666D01*
X275634Y757841D01*
X279238Y757841D01*
X279238Y748062D01*
X269459Y748062D01*
G37*
G36*
X275634Y736759D02*
X269459Y742934D01*
X269459Y746538D01*
X279238Y746538D01*
X279238Y736759D01*
X275634Y736759D01*
G37*
G36*
X280762Y736759D02*
X280762Y746538D01*
X290541Y746538D01*
X290541Y742934D01*
X284366Y736759D01*
X280762Y736759D01*
G37*
G36*
X385062Y732262D02*
X385062Y741338D01*
X386257Y741338D01*
X389873Y739840D01*
X392640Y737073D01*
X394138Y733457D01*
X394138Y732262D01*
X385062Y732262D01*
G37*
G36*
X374462Y732262D02*
X374462Y733457D01*
X375960Y737073D01*
X378727Y739840D01*
X382343Y741338D01*
X383538Y741338D01*
X383538Y732262D01*
X374462Y732262D01*
G37*
G36*
X439459Y728062D02*
X439459Y731666D01*
X445634Y737841D01*
X449238Y737841D01*
X449238Y728062D01*
X439459Y728062D01*
G37*
G36*
X450762Y728062D02*
X450762Y737841D01*
X454366Y737841D01*
X460541Y731666D01*
X460541Y728062D01*
X450762Y728062D01*
G37*
G36*
X382343Y721662D02*
X378727Y723160D01*
X375960Y725927D01*
X374462Y729543D01*
X374462Y730738D01*
X383538Y730738D01*
X383538Y721662D01*
X382343Y721662D01*
G37*
G36*
X385062Y721662D02*
X385062Y730738D01*
X394138Y730738D01*
X394138Y729543D01*
X392640Y725927D01*
X389873Y723160D01*
X386257Y721662D01*
X385062Y721662D01*
G37*
G36*
X450762Y716759D02*
X450762Y726538D01*
X460541Y726538D01*
X460541Y722934D01*
X454366Y716759D01*
X450762Y716759D01*
G37*
G36*
X445634Y716759D02*
X439459Y722934D01*
X439459Y726538D01*
X449238Y726538D01*
X449238Y716759D01*
X445634Y716759D01*
G37*
G36*
X2093373Y701820D02*
X2090366Y703065D01*
X2088065Y705366D01*
X2086820Y708373D01*
X2086820Y711627D01*
X2088065Y714634D01*
X2090366Y716935D01*
X2093373Y718180D01*
X2096627Y718180D01*
X2099634Y716935D01*
X2102028Y714540D01*
X2102281Y714372D01*
X2102567Y714317D01*
X2122433Y714317D01*
X2122730Y714377D01*
X2122972Y714540D01*
X2125366Y716935D01*
X2128373Y718180D01*
X2131627Y718180D01*
X2134634Y716935D01*
X2136935Y714634D01*
X2138180Y711627D01*
X2138180Y708373D01*
X2136935Y705366D01*
X2134634Y703065D01*
X2131627Y701820D01*
X2128373Y701820D01*
X2125366Y703065D01*
X2122972Y705460D01*
X2122719Y705628D01*
X2122433Y705683D01*
X2102567Y705683D01*
X2102270Y705623D01*
X2102028Y705460D01*
X2099634Y703065D01*
X2096627Y701820D01*
X2093373Y701820D01*
G37*
G36*
X740373Y593156D02*
X736246Y594865D01*
X733087Y598024D01*
X731378Y602151D01*
X731378Y622873D01*
X733087Y627000D01*
X736246Y630159D01*
X740373Y631868D01*
X744839Y631868D01*
X748966Y630159D01*
X752125Y627000D01*
X753834Y622873D01*
X753834Y602151D01*
X752125Y598024D01*
X748966Y594865D01*
X744839Y593156D01*
X740373Y593156D01*
G37*
G36*
X540373Y593156D02*
X536246Y594865D01*
X533087Y598024D01*
X531378Y602151D01*
X531378Y622873D01*
X533087Y627000D01*
X536246Y630159D01*
X540373Y631868D01*
X544839Y631868D01*
X548966Y630159D01*
X552125Y627000D01*
X553834Y622873D01*
X553834Y602151D01*
X552125Y598024D01*
X548966Y594865D01*
X544839Y593156D01*
X540373Y593156D01*
G37*
G36*
X695161Y593156D02*
X691034Y594865D01*
X687875Y598024D01*
X686166Y602151D01*
X686166Y622873D01*
X687875Y627000D01*
X691034Y630159D01*
X695161Y631868D01*
X699627Y631868D01*
X703754Y630159D01*
X706913Y627000D01*
X708622Y622873D01*
X708622Y602151D01*
X706913Y598024D01*
X703754Y594865D01*
X699627Y593156D01*
X695161Y593156D01*
G37*
G36*
X340373Y593156D02*
X336246Y594865D01*
X333087Y598024D01*
X331378Y602151D01*
X331378Y622873D01*
X333087Y627000D01*
X336246Y630159D01*
X340373Y631868D01*
X344839Y631868D01*
X348966Y630159D01*
X352125Y627000D01*
X353834Y622873D01*
X353834Y602151D01*
X352125Y598024D01*
X348966Y594865D01*
X344839Y593156D01*
X340373Y593156D01*
G37*
G36*
X295161Y593156D02*
X291034Y594865D01*
X287875Y598024D01*
X286166Y602151D01*
X286166Y622873D01*
X287875Y627000D01*
X291034Y630159D01*
X295161Y631868D01*
X299627Y631868D01*
X303754Y630159D01*
X306913Y627000D01*
X308622Y622873D01*
X308622Y602151D01*
X306913Y598024D01*
X303754Y594865D01*
X299627Y593156D01*
X295161Y593156D01*
G37*
G36*
X495161Y593156D02*
X491034Y594865D01*
X487875Y598024D01*
X486166Y602151D01*
X486166Y622873D01*
X487875Y627000D01*
X491034Y630159D01*
X495161Y631868D01*
X499627Y631868D01*
X503754Y630159D01*
X506913Y627000D01*
X508622Y622873D01*
X508622Y602151D01*
X506913Y598024D01*
X503754Y594865D01*
X499627Y593156D01*
X495161Y593156D01*
G37*
G36*
X2165373Y593156D02*
X2161246Y594865D01*
X2158087Y598024D01*
X2156378Y602151D01*
X2156378Y622873D01*
X2158087Y627000D01*
X2161246Y630159D01*
X2165373Y631868D01*
X2169839Y631868D01*
X2173966Y630159D01*
X2177125Y627000D01*
X2178834Y622873D01*
X2178834Y602151D01*
X2177125Y598024D01*
X2173966Y594865D01*
X2169839Y593156D01*
X2165373Y593156D01*
G37*
G36*
X2120161Y593156D02*
X2116034Y594865D01*
X2112875Y598024D01*
X2111166Y602151D01*
X2111166Y622873D01*
X2112875Y627000D01*
X2116034Y630159D01*
X2120161Y631868D01*
X2124627Y631868D01*
X2128754Y630159D01*
X2131913Y627000D01*
X2133622Y622873D01*
X2133622Y602151D01*
X2131913Y598024D01*
X2128754Y594865D01*
X2124627Y593156D01*
X2120161Y593156D01*
G37*
G36*
X1735373Y593156D02*
X1731246Y594865D01*
X1728087Y598024D01*
X1726378Y602151D01*
X1726378Y622873D01*
X1728087Y627000D01*
X1731246Y630159D01*
X1735373Y631868D01*
X1739839Y631868D01*
X1743966Y630159D01*
X1747125Y627000D01*
X1748834Y622873D01*
X1748834Y602151D01*
X1747125Y598024D01*
X1743966Y594865D01*
X1739839Y593156D01*
X1735373Y593156D01*
G37*
G36*
X1690161Y593156D02*
X1686034Y594865D01*
X1682875Y598024D01*
X1681166Y602151D01*
X1681166Y622873D01*
X1682875Y627000D01*
X1686034Y630159D01*
X1690161Y631868D01*
X1694627Y631868D01*
X1698754Y630159D01*
X1701913Y627000D01*
X1703622Y622873D01*
X1703622Y602151D01*
X1701913Y598024D01*
X1698754Y594865D01*
X1694627Y593156D01*
X1690161Y593156D01*
G37*
G36*
X1305373Y593156D02*
X1301246Y594865D01*
X1298087Y598024D01*
X1296378Y602151D01*
X1296378Y622873D01*
X1298087Y627000D01*
X1301246Y630159D01*
X1305373Y631868D01*
X1309839Y631868D01*
X1313966Y630159D01*
X1317125Y627000D01*
X1318834Y622873D01*
X1318834Y602151D01*
X1317125Y598024D01*
X1313966Y594865D01*
X1309839Y593156D01*
X1305373Y593156D01*
G37*
G36*
X1260161Y593156D02*
X1256034Y594865D01*
X1252875Y598024D01*
X1251166Y602151D01*
X1251166Y622873D01*
X1252875Y627000D01*
X1256034Y630159D01*
X1260161Y631868D01*
X1264627Y631868D01*
X1268754Y630159D01*
X1271913Y627000D01*
X1273622Y622873D01*
X1273622Y602151D01*
X1271913Y598024D01*
X1268754Y594865D01*
X1264627Y593156D01*
X1260161Y593156D01*
G37*
G36*
X940373Y593156D02*
X936246Y594865D01*
X933087Y598024D01*
X931378Y602151D01*
X931378Y622873D01*
X933087Y627000D01*
X936246Y630159D01*
X940373Y631868D01*
X944839Y631868D01*
X948966Y630159D01*
X952125Y627000D01*
X953834Y622873D01*
X953834Y602151D01*
X952125Y598024D01*
X948966Y594865D01*
X944839Y593156D01*
X940373Y593156D01*
G37*
G36*
X895161Y593156D02*
X891034Y594865D01*
X887875Y598024D01*
X886166Y602151D01*
X886166Y622873D01*
X887875Y627000D01*
X891034Y630159D01*
X895161Y631868D01*
X899627Y631868D01*
X903754Y630159D01*
X906913Y627000D01*
X908622Y622873D01*
X908622Y602151D01*
X906913Y598024D01*
X903754Y594865D01*
X899627Y593156D01*
X895161Y593156D01*
G37*
G36*
X2120161Y528132D02*
X2116034Y529841D01*
X2112875Y533000D01*
X2111166Y537127D01*
X2111166Y557849D01*
X2112875Y561976D01*
X2116034Y565135D01*
X2120161Y566844D01*
X2124627Y566844D01*
X2128754Y565135D01*
X2131913Y561976D01*
X2133622Y557849D01*
X2133622Y537127D01*
X2131913Y533000D01*
X2128754Y529841D01*
X2124627Y528132D01*
X2120161Y528132D01*
G37*
G36*
X895161Y528132D02*
X891034Y529841D01*
X887875Y533000D01*
X886166Y537127D01*
X886166Y557849D01*
X887875Y561976D01*
X891034Y565135D01*
X895161Y566844D01*
X899627Y566844D01*
X903754Y565135D01*
X906913Y561976D01*
X908622Y557849D01*
X908622Y537127D01*
X906913Y533000D01*
X903754Y529841D01*
X899627Y528132D01*
X895161Y528132D01*
G37*
G36*
X1260161Y528132D02*
X1256034Y529841D01*
X1252875Y533000D01*
X1251166Y537127D01*
X1251166Y557849D01*
X1252875Y561976D01*
X1256034Y565135D01*
X1260161Y566844D01*
X1264627Y566844D01*
X1268754Y565135D01*
X1271913Y561976D01*
X1273622Y557849D01*
X1273622Y537127D01*
X1271913Y533000D01*
X1268754Y529841D01*
X1264627Y528132D01*
X1260161Y528132D01*
G37*
G36*
X1690161Y528132D02*
X1686034Y529841D01*
X1682875Y533000D01*
X1681166Y537127D01*
X1681166Y557849D01*
X1682875Y561976D01*
X1686034Y565135D01*
X1690161Y566844D01*
X1694627Y566844D01*
X1698754Y565135D01*
X1701913Y561976D01*
X1703622Y557849D01*
X1703622Y537127D01*
X1701913Y533000D01*
X1698754Y529841D01*
X1694627Y528132D01*
X1690161Y528132D01*
G37*
G36*
X743368Y548250D02*
X743368Y566284D01*
X744728Y566284D01*
X748649Y564660D01*
X751650Y561659D01*
X753274Y557738D01*
X753274Y548250D01*
X743368Y548250D01*
G37*
G36*
X543368Y548250D02*
X543368Y566284D01*
X544728Y566284D01*
X548649Y564660D01*
X551650Y561659D01*
X553274Y557738D01*
X553274Y548250D01*
X543368Y548250D01*
G37*
G36*
X343368Y548250D02*
X343368Y566284D01*
X344728Y566284D01*
X348649Y564660D01*
X351650Y561659D01*
X353274Y557738D01*
X353274Y548250D01*
X343368Y548250D01*
G37*
G36*
X2168368Y548250D02*
X2168368Y566284D01*
X2169728Y566284D01*
X2173649Y564660D01*
X2176650Y561659D01*
X2178274Y557738D01*
X2178274Y548250D01*
X2168368Y548250D01*
G37*
G36*
X1738368Y548250D02*
X1738368Y566284D01*
X1739728Y566284D01*
X1743649Y564660D01*
X1746650Y561659D01*
X1748274Y557738D01*
X1748274Y548250D01*
X1738368Y548250D01*
G37*
G36*
X1308368Y548250D02*
X1308368Y566284D01*
X1309728Y566284D01*
X1313649Y564660D01*
X1316650Y561659D01*
X1318274Y557738D01*
X1318274Y548250D01*
X1308368Y548250D01*
G37*
G36*
X943368Y548250D02*
X943368Y566284D01*
X944728Y566284D01*
X948649Y564660D01*
X951650Y561659D01*
X953274Y557738D01*
X953274Y548250D01*
X943368Y548250D01*
G37*
G36*
X331938Y548250D02*
X331938Y557738D01*
X333562Y561659D01*
X336563Y564660D01*
X340484Y566284D01*
X341844Y566284D01*
X341844Y548250D01*
X331938Y548250D01*
G37*
G36*
X2156938Y548250D02*
X2156938Y557738D01*
X2158562Y561659D01*
X2161563Y564660D01*
X2165484Y566284D01*
X2166844Y566284D01*
X2166844Y548250D01*
X2156938Y548250D01*
G37*
G36*
X1726938Y548250D02*
X1726938Y557738D01*
X1728562Y561659D01*
X1731563Y564660D01*
X1735484Y566284D01*
X1736844Y566284D01*
X1736844Y548250D01*
X1726938Y548250D01*
G37*
G36*
X1296938Y548250D02*
X1296938Y557738D01*
X1298562Y561659D01*
X1301563Y564660D01*
X1305484Y566284D01*
X1306844Y566284D01*
X1306844Y548250D01*
X1296938Y548250D01*
G37*
G36*
X931938Y548250D02*
X931938Y557738D01*
X933562Y561659D01*
X936563Y564660D01*
X940484Y566284D01*
X941844Y566284D01*
X941844Y548250D01*
X931938Y548250D01*
G37*
G36*
X731938Y548250D02*
X731938Y557738D01*
X733562Y561659D01*
X736563Y564660D01*
X740484Y566284D01*
X741844Y566284D01*
X741844Y548250D01*
X731938Y548250D01*
G37*
G36*
X531938Y548250D02*
X531938Y557738D01*
X533562Y561659D01*
X536563Y564660D01*
X540484Y566284D01*
X541844Y566284D01*
X541844Y548250D01*
X531938Y548250D01*
G37*
G36*
X340484Y528692D02*
X336563Y530316D01*
X333562Y533317D01*
X331938Y537238D01*
X331938Y546726D01*
X341844Y546726D01*
X341844Y528692D01*
X340484Y528692D01*
G37*
G36*
X2168368Y528692D02*
X2168368Y546726D01*
X2178274Y546726D01*
X2178274Y537238D01*
X2176650Y533317D01*
X2173649Y530316D01*
X2169728Y528692D01*
X2168368Y528692D01*
G37*
G36*
X2165484Y528692D02*
X2161563Y530316D01*
X2158562Y533317D01*
X2156938Y537238D01*
X2156938Y546726D01*
X2166844Y546726D01*
X2166844Y528692D01*
X2165484Y528692D01*
G37*
G36*
X1738368Y528692D02*
X1738368Y546726D01*
X1748274Y546726D01*
X1748274Y537238D01*
X1746650Y533317D01*
X1743649Y530316D01*
X1739728Y528692D01*
X1738368Y528692D01*
G37*
G36*
X1735484Y528692D02*
X1731563Y530316D01*
X1728562Y533317D01*
X1726938Y537238D01*
X1726938Y546726D01*
X1736844Y546726D01*
X1736844Y528692D01*
X1735484Y528692D01*
G37*
G36*
X1308368Y528692D02*
X1308368Y546726D01*
X1318274Y546726D01*
X1318274Y537238D01*
X1316650Y533317D01*
X1313649Y530316D01*
X1309728Y528692D01*
X1308368Y528692D01*
G37*
G36*
X1305484Y528692D02*
X1301563Y530316D01*
X1298562Y533317D01*
X1296938Y537238D01*
X1296938Y546726D01*
X1306844Y546726D01*
X1306844Y528692D01*
X1305484Y528692D01*
G37*
G36*
X943368Y528692D02*
X943368Y546726D01*
X953274Y546726D01*
X953274Y537238D01*
X951650Y533317D01*
X948649Y530316D01*
X944728Y528692D01*
X943368Y528692D01*
G37*
G36*
X940484Y528692D02*
X936563Y530316D01*
X933562Y533317D01*
X931938Y537238D01*
X931938Y546726D01*
X941844Y546726D01*
X941844Y528692D01*
X940484Y528692D01*
G37*
G36*
X743368Y528692D02*
X743368Y546726D01*
X753274Y546726D01*
X753274Y537238D01*
X751650Y533317D01*
X748649Y530316D01*
X744728Y528692D01*
X743368Y528692D01*
G37*
G36*
X740484Y528692D02*
X736563Y530316D01*
X733562Y533317D01*
X731938Y537238D01*
X731938Y546726D01*
X741844Y546726D01*
X741844Y528692D01*
X740484Y528692D01*
G37*
G36*
X543368Y528692D02*
X543368Y546726D01*
X553274Y546726D01*
X553274Y537238D01*
X551650Y533317D01*
X548649Y530316D01*
X544728Y528692D01*
X543368Y528692D01*
G37*
G36*
X540484Y528692D02*
X536563Y530316D01*
X533562Y533317D01*
X531938Y537238D01*
X531938Y546726D01*
X541844Y546726D01*
X541844Y528692D01*
X540484Y528692D01*
G37*
G36*
X343368Y528692D02*
X343368Y546726D01*
X353274Y546726D01*
X353274Y537238D01*
X351650Y533317D01*
X348649Y530316D01*
X344728Y528692D01*
X343368Y528692D01*
G37*
%LPD*%
D10*
X280000Y747300D03*
X280000Y772700D03*
X450000Y727300D03*
X450000Y752700D03*
D11*
X384300Y756900D03*
D12*
X384300Y731500D03*
D13*
X275000Y862952D02*
X275000Y877048D01*
X317952Y820000D02*
X332048Y820000D01*
X332048Y845000D02*
X317952Y845000D01*
X317952Y895000D02*
X332048Y895000D01*
X332048Y920000D02*
X317952Y920000D01*
D14*
X1247300Y439596D02*
X1247300Y425000D01*
X1272700Y425000D02*
X1272700Y439596D01*
X2147300Y439596D02*
X2147300Y425000D01*
X2172700Y425000D02*
X2172700Y439596D01*
X2247300Y439596D02*
X2247300Y425000D01*
X2272700Y425000D02*
X2272700Y439596D01*
X2347300Y439596D02*
X2347300Y425000D01*
X2372700Y425000D02*
X2372700Y439596D01*
X1347300Y439596D02*
X1347300Y425000D01*
X1372700Y425000D02*
X1372700Y439596D01*
X1447300Y439596D02*
X1447300Y425000D01*
X1472700Y425000D02*
X1472700Y439596D01*
X1547300Y439596D02*
X1547300Y425000D01*
X1572700Y425000D02*
X1572700Y439596D01*
X1647300Y439596D02*
X1647300Y425000D01*
X1672700Y425000D02*
X1672700Y439596D01*
X1747300Y439596D02*
X1747300Y425000D01*
X1772700Y425000D02*
X1772700Y439596D01*
X1847300Y439596D02*
X1847300Y425000D01*
X1872700Y425000D02*
X1872700Y439596D01*
X1947300Y439596D02*
X1947300Y425000D01*
X1972700Y425000D02*
X1972700Y439596D01*
X2047300Y439596D02*
X2047300Y425000D01*
X2072700Y425000D02*
X2072700Y439596D01*
D12*
X854550Y390000D03*
X879950Y390000D03*
D11*
X905450Y390000D03*
D12*
X994550Y390000D03*
X1019950Y390000D03*
D11*
X1045450Y390000D03*
D15*
X545000Y770000D03*
X570000Y770000D03*
X595000Y770000D03*
D16*
X615000Y840000D03*
X525000Y840000D03*
D15*
X745000Y770000D03*
X770000Y770000D03*
X795000Y770000D03*
D16*
X815000Y840000D03*
X725000Y840000D03*
D15*
X945000Y770000D03*
X970000Y770000D03*
X995000Y770000D03*
D16*
X1015000Y840000D03*
X925000Y840000D03*
D15*
X1310000Y770000D03*
X1335000Y770000D03*
X1360000Y770000D03*
D16*
X1380000Y840000D03*
X1290000Y840000D03*
D15*
X1740000Y770000D03*
X1765000Y770000D03*
X1790000Y770000D03*
D16*
X1810000Y840000D03*
X1720000Y840000D03*
D15*
X2170000Y770000D03*
X2195000Y770000D03*
X2220000Y770000D03*
D16*
X2240000Y840000D03*
X2150000Y840000D03*
D17*
X297394Y555616D02*
X297394Y539360D01*
X342606Y539360D02*
X342606Y555616D01*
X297394Y604384D02*
X297394Y620640D01*
X342606Y620640D02*
X342606Y604384D01*
X497394Y555616D02*
X497394Y539360D01*
X542606Y539360D02*
X542606Y555616D01*
X497394Y604384D02*
X497394Y620640D01*
X542606Y620640D02*
X542606Y604384D01*
X697394Y555616D02*
X697394Y539360D01*
X742606Y539360D02*
X742606Y555616D01*
X697394Y604384D02*
X697394Y620640D01*
X742606Y620640D02*
X742606Y604384D01*
X897394Y555616D02*
X897394Y539360D01*
X942606Y539360D02*
X942606Y555616D01*
X897394Y604384D02*
X897394Y620640D01*
X942606Y620640D02*
X942606Y604384D01*
X1262394Y555616D02*
X1262394Y539360D01*
X1307606Y539360D02*
X1307606Y555616D01*
X1262394Y604384D02*
X1262394Y620640D01*
X1307606Y620640D02*
X1307606Y604384D01*
X1692394Y555616D02*
X1692394Y539360D01*
X1737606Y539360D02*
X1737606Y555616D01*
X1692394Y604384D02*
X1692394Y620640D01*
X1737606Y620640D02*
X1737606Y604384D01*
X2122394Y555616D02*
X2122394Y539360D01*
X2167606Y539360D02*
X2167606Y555616D01*
X2122394Y604384D02*
X2122394Y620640D01*
X2167606Y620640D02*
X2167606Y604384D01*
D18*
X2336274Y1017222D03*
X2310874Y1017222D03*
X2285474Y1017222D03*
X2260074Y1017222D03*
X2234674Y1017222D03*
X2209274Y1017222D03*
X2183874Y1017222D03*
X2158474Y1017222D03*
X2133074Y1017222D03*
X2107674Y1017222D03*
X2082274Y1017222D03*
X2056874Y1017222D03*
X2056874Y1169622D03*
X2082274Y1169622D03*
X2107674Y1169622D03*
X2133074Y1169622D03*
X2158474Y1169622D03*
X2183874Y1169622D03*
X2209274Y1169622D03*
X2234674Y1169622D03*
X2260074Y1169622D03*
X2285474Y1169622D03*
X2310874Y1169622D03*
X2361674Y1017222D03*
X2336274Y1169622D03*
X2361674Y1169622D03*
X2387074Y1017222D03*
X2387074Y1169622D03*
X2031474Y1017222D03*
X2031474Y1169622D03*
X2006074Y1017222D03*
X1980674Y1017222D03*
X1955274Y1017222D03*
X1929874Y1017222D03*
X1904474Y1017222D03*
X1879074Y1017222D03*
X1853674Y1017222D03*
X1828274Y1017222D03*
X1802874Y1017222D03*
X1802874Y1169622D03*
X1828274Y1169622D03*
X1853674Y1169622D03*
X1879074Y1169622D03*
X1904474Y1169622D03*
X1929874Y1169622D03*
X1955274Y1169622D03*
X1980674Y1169622D03*
X2006074Y1169622D03*
X1929874Y1042622D03*
X1929874Y1093422D03*
X1929874Y1118822D03*
X1929874Y1068022D03*
X1929874Y1144222D03*
X2361674Y1144222D03*
X2310874Y1144222D03*
X2285474Y1144222D03*
X2260074Y1144222D03*
X2323574Y1048972D03*
X2298174Y1048972D03*
X2272774Y1048972D03*
X2247374Y1048972D03*
X2221974Y1048972D03*
D19*
X488000Y1010300D03*
X488000Y1035700D03*
X488000Y1061100D03*
X488000Y1086500D03*
X408600Y1086500D03*
X408600Y1061100D03*
X408600Y1035700D03*
X408600Y1010300D03*
D20*
X1200000Y400000D03*
X1240000Y400000D03*
X1750000Y400000D03*
X2410000Y400000D03*
X1880000Y400000D03*
D21*
X975000Y470000D03*
D22*
X975000Y520000D01*
D21*
X860000Y470000D03*
D22*
X950000Y470000D01*
X960000Y480000D01*
X960000Y520000D01*
D21*
X2090000Y550000D03*
D23*
X2080000Y540000D01*
X1200000Y508872D02*
X1200000Y400000D01*
X1200000Y508872D02*
X1199200Y509672D01*
X1209980Y430020D02*
X1240000Y400000D01*
X1209980Y430020D02*
X1209980Y507471D01*
X1684087Y465913D02*
X1750000Y400000D01*
X1684087Y465913D02*
X1684087Y476183D01*
D21*
X1684087Y476183D03*
D23*
X1880000Y415470D02*
X1880000Y400000D01*
X1880000Y415470D02*
X1905323Y440793D01*
X1905323Y467469D01*
X1902155Y470637D01*
D21*
X1902155Y470637D03*
D22*
X582245Y1155345D02*
X488000Y1061100D01*
X582245Y1155345D02*
X2096551Y1155345D01*
X2234674Y1017222D01*
X450000Y994300D02*
X408600Y1035700D01*
X450000Y994300D02*
X450000Y900000D01*
X415000Y865000D01*
D21*
X415000Y865000D03*
X2315000Y440000D03*
D22*
X2335000Y460000D01*
X2401058Y460000D01*
D21*
X2416058Y475000D03*
D22*
X2401058Y460000D01*
D21*
X2390000Y790000D03*
D22*
X2390000Y845000D01*
D21*
X2390000Y845000D03*
X2416058Y455000D03*
D22*
X2090378Y1169622D02*
X2082274Y1169622D01*
D21*
X2200359Y1130359D03*
D22*
X2129641Y1130359D01*
X2090378Y1169622D01*
X2373189Y455000D02*
X2416058Y455000D01*
X2373189Y455000D02*
X2347300Y429111D01*
D23*
X2347300Y425000D01*
D22*
X1235000Y425000D02*
X1225000Y435000D01*
X1225000Y490000D01*
X1225000Y500000D01*
X1230000Y505000D01*
X1480000Y505000D01*
D21*
X1480000Y505000D03*
X2115000Y790000D03*
D22*
X2115000Y840000D01*
D21*
X2115000Y840000D03*
D22*
X1250000Y490000D02*
X1225000Y490000D01*
D21*
X1250000Y490000D03*
D23*
X1247300Y425000D02*
X1235000Y425000D01*
D22*
X1315000Y457300D02*
X1315000Y480000D01*
X1330000Y495000D01*
X1385000Y495000D01*
D21*
X1490000Y495000D03*
D22*
X1385000Y495000D01*
D21*
X2340000Y790000D03*
D22*
X2340000Y850000D01*
D21*
X2340000Y850000D03*
D22*
X1385000Y495000D02*
X1385000Y470000D01*
D21*
X1385000Y470000D03*
D23*
X1347300Y425000D02*
X1325541Y425000D01*
X1315000Y435541D01*
X1315000Y457300D01*
D22*
X1447300Y437300D02*
X1505000Y495000D01*
D21*
X1505000Y495000D03*
X2355000Y790000D03*
D22*
X2375000Y810000D01*
X2375000Y845000D01*
D21*
X2375000Y845000D03*
D23*
X1447300Y437300D02*
X1447300Y425000D01*
D22*
X1520000Y445000D02*
X1520000Y495000D01*
D21*
X1520000Y495000D03*
D22*
X1520000Y445000D02*
X1539795Y425205D01*
X1540000Y425000D01*
X2262535Y1090961D02*
X2335000Y1090961D01*
X2262535Y1090961D02*
X2183874Y1169622D01*
D21*
X2335359Y1090602D03*
D22*
X2335000Y1090961D01*
D23*
X1547300Y425000D02*
X1540000Y425000D01*
D22*
X2263896Y1115000D02*
X2209274Y1169622D01*
X2263896Y1115000D02*
X2395000Y1115000D01*
X2400000Y1110000D01*
X1610000Y470000D02*
X1610000Y440000D01*
X1625000Y425000D01*
D21*
X1660010Y457539D03*
D22*
X1660010Y430010D01*
X1655000Y425000D01*
X1610000Y470000D02*
X1639892Y499892D01*
X2400000Y708221D02*
X2400000Y1110000D01*
X2400000Y708221D02*
X2191671Y499892D01*
X1639892Y499892D01*
D23*
X1647300Y425000D02*
X1625000Y425000D01*
X1647300Y425000D02*
X1655000Y425000D01*
D22*
X2239459Y1164837D02*
X2234674Y1169622D01*
X1715000Y470000D02*
X1715000Y445000D01*
X1735000Y425000D01*
X2404465Y1111850D02*
X2396850Y1119465D01*
D21*
X1760010Y457539D03*
D22*
X1760010Y437710D01*
X2239459Y1149107D02*
X2239459Y1164837D01*
X2239459Y1149107D02*
X2269101Y1119465D01*
X2396850Y1119465D01*
X1740427Y495427D02*
X1715000Y470000D01*
X2404465Y706372D02*
X2404465Y1111850D01*
X2404465Y706372D02*
X2193520Y495427D01*
X1740427Y495427D01*
D23*
X1735000Y425000D02*
X1747300Y425000D01*
X1760010Y437710D01*
D22*
X2305766Y1123931D02*
X2398699Y1123931D01*
X2408931Y1113699D01*
D21*
X1860010Y457539D03*
D22*
X1860010Y437710D01*
X2280867Y1133100D02*
X2274351Y1139615D01*
X2274351Y1155345D02*
X2260074Y1169622D01*
X2296597Y1133100D02*
X2305766Y1123931D01*
X2274351Y1139615D02*
X2274351Y1155345D01*
X2280867Y1133100D02*
X2296597Y1133100D01*
X1828661Y490961D02*
X1805000Y467300D01*
X2408931Y704522D02*
X2408931Y1113699D01*
X2408931Y704522D02*
X2195370Y490961D01*
X1828661Y490961D01*
D23*
X1860010Y437710D02*
X1847300Y425000D01*
X1805000Y467300D01*
D22*
X2413396Y1115549D02*
X2400549Y1128396D01*
D21*
X1960010Y457539D03*
D22*
X1960010Y437710D01*
X2285474Y1159952D02*
X2285474Y1169622D01*
X2285474Y1159952D02*
X2299751Y1145675D01*
X2299751Y1139615D01*
X2310971Y1128396D01*
X2400549Y1128396D01*
X1972804Y486496D02*
X1947300Y460992D01*
X2413396Y702673D02*
X2413396Y1115549D01*
X2413396Y702673D02*
X2197219Y486496D01*
X1972804Y486496D01*
D23*
X1960010Y437710D02*
X1947300Y425000D01*
X1930375Y441925D01*
X1930375Y454892D01*
X1936475Y460992D01*
X1947300Y460992D01*
D22*
X2347635Y1132861D02*
X2310874Y1169622D01*
X2347635Y1132861D02*
X2402399Y1132861D01*
X2417861Y1117399D01*
X2417861Y492602D01*
X2060000Y450000D02*
X2060000Y437700D01*
X2407290Y482031D02*
X2417861Y492602D01*
X2407290Y482031D02*
X2039731Y482031D01*
X2015008Y457308D01*
D21*
X2062869Y452869D03*
D22*
X2060000Y450000D01*
D23*
X2060000Y437700D02*
X2047300Y425000D01*
X2027943Y425000D01*
X2005530Y447413D01*
X2015008Y456890D01*
X2015008Y457308D01*
D22*
X2160000Y450000D02*
X2160000Y437700D01*
X2115000Y457300D02*
X2115000Y460000D01*
D21*
X2115000Y460000D03*
X1960000Y650000D03*
D22*
X1960000Y705000D01*
D21*
X1960000Y705000D03*
X1895000Y785000D03*
D22*
X1895000Y815000D01*
D21*
X1895000Y815000D03*
X2161795Y451795D03*
D22*
X2160000Y450000D01*
D23*
X2160000Y437700D02*
X2147300Y425000D01*
X2115000Y457300D01*
D22*
X2215000Y457300D02*
X2215000Y470000D01*
D21*
X2215000Y470000D03*
X2190000Y510000D03*
D22*
X2085000Y510000D01*
D21*
X2085000Y510000D03*
X1975000Y650000D03*
D22*
X1975000Y705000D01*
D21*
X1975000Y705000D03*
X1910000Y785000D03*
D22*
X1910000Y815000D01*
D21*
X1910000Y815000D03*
X1910000Y915000D03*
D22*
X1895000Y930000D01*
D21*
X1872969Y930000D03*
D22*
X1895000Y930000D01*
D21*
X2260010Y457539D03*
D22*
X2260010Y437710D01*
D23*
X2247472Y425172D02*
X2247300Y425000D01*
X2247472Y425172D02*
X2260010Y437710D01*
X2247128Y425172D02*
X2215000Y457300D01*
X2247128Y425172D02*
X2247472Y425172D01*
D21*
X1380000Y1140000D03*
D22*
X1380000Y1060000D01*
X1195000Y790000D02*
X1230000Y755000D01*
X1330000Y755000D01*
X1335000Y760000D01*
X1335000Y770000D01*
D21*
X1409492Y1029492D03*
D22*
X1409492Y1030508D02*
X1380000Y1060000D01*
X1409492Y1030508D02*
X1409492Y1029492D01*
D21*
X1195000Y832004D03*
D22*
X1195000Y790000D01*
D21*
X1880000Y785000D03*
D22*
X1880000Y815000D01*
D21*
X1880000Y815000D03*
D22*
X2105000Y780000D02*
X2115000Y770000D01*
D21*
X1970000Y975000D03*
X2137031Y770000D03*
D22*
X2115000Y770000D01*
X2081604Y881550D02*
X2081604Y888450D01*
X1970000Y950127D02*
X1970000Y975000D01*
X2105000Y858154D02*
X2105000Y780000D01*
X2070000Y935000D02*
X1985127Y935000D01*
X2081604Y881550D02*
X2105000Y858154D01*
X1985127Y935000D02*
X1970000Y950127D01*
X2081604Y888450D02*
X2082794Y889640D01*
X2082794Y922206D01*
X2070000Y935000D01*
X615000Y815000D02*
X570000Y770000D01*
X615000Y815000D02*
X690000Y815000D01*
X690000Y960000D01*
X745000Y1015000D01*
X1765000Y1015000D01*
X1850000Y1100000D01*
X1850000Y1105000D01*
D21*
X1970000Y1140000D03*
D22*
X1941382Y1140000D01*
X1934481Y1133100D01*
X1878100Y1133100D02*
X1850000Y1105000D01*
X1878100Y1133100D02*
X1934481Y1133100D01*
X822751Y822751D02*
X770000Y770000D01*
X822751Y822751D02*
X830346Y822751D01*
X1975000Y1095000D02*
X1990000Y1110000D01*
X1990000Y1140000D01*
D21*
X1990000Y1140000D03*
D22*
X1851315Y1095000D02*
X1766850Y1010535D01*
X1018129Y1010535D01*
X830346Y822751D01*
X1925267Y1104545D02*
X1934481Y1104545D01*
X1915722Y1095000D02*
X1851315Y1095000D01*
X1944026Y1095000D02*
X1975000Y1095000D01*
X1925267Y1104545D02*
X1915722Y1095000D01*
X1934481Y1104545D02*
X1944026Y1095000D01*
X1000000Y800000D02*
X970000Y770000D01*
X1000000Y800000D02*
X1120000Y800000D01*
X1120000Y825000D01*
X1300000Y1005000D01*
X1770000Y1005000D01*
X2005000Y1100000D02*
X2005000Y1140000D01*
D21*
X2005000Y1140000D03*
D22*
X1847300Y1082300D02*
X1770000Y1005000D01*
X1987300Y1082300D02*
X2005000Y1100000D01*
X1987300Y1082300D02*
X1847300Y1082300D01*
D21*
X2125000Y810000D03*
D22*
X2125000Y790000D01*
X2130000Y785000D01*
D21*
X2130000Y785000D03*
X2130000Y710000D03*
D22*
X2095000Y710000D01*
D21*
X2095000Y710000D03*
X1920000Y775000D03*
D22*
X1875000Y775000D01*
X1845000Y805000D01*
X1435000Y805000D01*
X1345000Y715000D01*
X655000Y715000D01*
X640000Y700000D01*
X640000Y550000D01*
X665000Y525000D01*
X675000Y525000D01*
X697394Y547394D01*
D23*
X697394Y547488D01*
D21*
X1935000Y830000D03*
D22*
X1865000Y830000D01*
D21*
X1865000Y830000D03*
D22*
X575000Y680000D02*
X520000Y680000D01*
X445000Y605000D01*
X445000Y570000D01*
X467512Y547488D01*
D21*
X705000Y807969D03*
D22*
X702969Y807969D01*
X575000Y680000D01*
D21*
X2089933Y885000D03*
D22*
X2150000Y945067D01*
D21*
X2150000Y979282D03*
D22*
X2150000Y945067D01*
D23*
X497394Y547488D02*
X467512Y547488D01*
D21*
X2120000Y980000D03*
D22*
X2100000Y960000D01*
X2070000Y960000D01*
D21*
X2070000Y960000D03*
D22*
X1925000Y880000D02*
X1865000Y880000D01*
D21*
X1865000Y880000D03*
X450000Y820000D03*
D22*
X380000Y820000D01*
X315000Y755000D01*
X315000Y670000D01*
X240000Y595000D01*
X240000Y570000D01*
X265000Y545000D01*
X294906Y545000D01*
D21*
X1974626Y920374D03*
D22*
X1965374Y920374D01*
X1925000Y880000D01*
D23*
X297394Y547488D02*
X294906Y545000D01*
D22*
X1855000Y940000D02*
X1955000Y940000D01*
D21*
X1855000Y940000D03*
X1050000Y835000D03*
D22*
X1025000Y810000D01*
X930000Y810000D01*
X850000Y730000D01*
D21*
X850000Y730000D03*
X1955359Y940359D03*
D22*
X1955000Y940000D01*
D21*
X1860000Y650000D03*
X2070000Y790000D03*
D22*
X2070000Y900000D01*
D21*
X2070000Y900000D03*
X1927969Y785000D03*
D22*
X1927969Y778809D02*
X1928329Y778450D01*
X1927969Y778809D02*
X1927969Y785000D01*
X1928329Y718329D02*
X1860000Y650000D01*
X1928329Y718329D02*
X1928329Y778450D01*
D21*
X2080000Y650000D03*
X2060000Y925000D03*
D22*
X2080000Y876839D02*
X2080000Y650000D01*
X2080000Y876839D02*
X2077139Y879701D01*
X2077139Y895360D01*
X2078329Y896550D01*
X2078329Y906671D01*
X2060000Y925000D01*
D21*
X1935000Y705000D03*
D22*
X1940000Y710000D02*
X1940000Y800000D01*
X1940000Y710000D02*
X1935000Y705000D01*
X1940000Y800000D02*
X1925000Y815000D01*
D21*
X1925000Y815000D03*
D22*
X2035000Y950000D02*
X2056874Y971874D01*
X2056874Y1017222D01*
D21*
X2035000Y949492D03*
D22*
X2035000Y950000D01*
D21*
X1180000Y790000D03*
X1815000Y985000D03*
D22*
X1820000Y990000D01*
X2045000Y990000D01*
D21*
X2045000Y990000D03*
X2070000Y995000D03*
D22*
X2075000Y1000000D02*
X2293652Y1000000D01*
X2075000Y1000000D02*
X2070000Y995000D01*
X2293652Y1000000D02*
X2310874Y1017222D01*
D21*
X1180000Y832004D03*
D22*
X1180000Y790000D01*
D21*
X1130000Y755000D03*
D22*
X1130000Y825000D01*
X1305000Y1000000D01*
X2005000Y1000000D01*
X2006074Y1001074D02*
X2006074Y1017222D01*
X2006074Y1001074D02*
X2005000Y1000000D01*
D21*
X1150000Y790000D03*
D22*
X1980000Y1065000D02*
X1990000Y1055000D01*
X1990000Y1026548D01*
X1980674Y1017222D01*
D21*
X1885000Y1065776D03*
X1150000Y832004D03*
D22*
X1150000Y790000D01*
X1942582Y1065000D02*
X1980000Y1065000D01*
X1942582Y1065000D02*
X1934481Y1056900D01*
X1893876Y1056900D01*
X1885000Y1065776D01*
D21*
X1165000Y790000D03*
D22*
X1955274Y1017222D02*
X1960000Y1021948D01*
D21*
X1165000Y832004D03*
D22*
X1165000Y790000D01*
D21*
X1952996Y1045000D03*
D22*
X1960000Y1037996D01*
X1960000Y1021948D01*
D21*
X1995000Y695000D03*
D22*
X1995000Y705000D01*
X1955000Y745000D01*
D21*
X1955302Y960302D03*
D22*
X1955000Y882654D02*
X1955000Y745000D01*
X1955302Y958510D02*
X1955302Y960302D01*
X1987420Y915074D02*
X1955000Y882654D01*
X1987420Y915074D02*
X1987420Y926392D01*
X1955302Y958510D01*
D21*
X1945000Y650000D03*
D22*
X1945000Y965000D02*
X1930000Y980000D01*
D21*
X1930000Y980000D03*
D22*
X1945000Y878969D02*
X1945000Y650000D01*
X1945000Y878969D02*
X1982955Y916924D01*
X1982955Y924542D01*
X1955524Y951974D01*
X1951852Y951974D01*
X1945000Y958826D01*
X1945000Y965000D01*
D21*
X2220000Y650000D03*
D22*
X2095000Y775000D01*
X2095000Y815000D01*
D21*
X2095000Y815000D03*
X2097472Y917529D03*
D22*
X2067969Y947031D01*
D21*
X2054569Y947031D03*
D22*
X2067969Y947031D01*
D21*
X2090000Y940000D03*
X2285000Y987969D03*
D22*
X2282969Y987969D01*
X2235000Y940000D01*
X2153450Y987610D02*
X2146550Y987610D01*
X2201060Y940000D02*
X2235000Y940000D01*
X2098940Y940000D02*
X2090000Y940000D01*
X2153450Y987610D02*
X2201060Y940000D01*
X2146550Y987610D02*
X2098940Y940000D01*
D21*
X1715000Y1100000D03*
D22*
X1640000Y1025000D01*
X1630000Y1025000D01*
D21*
X1630000Y1025000D03*
X1565000Y970000D03*
D22*
X1545000Y950000D01*
D21*
X1215000Y790000D03*
D22*
X1225535Y800535D01*
X1361091Y950000D02*
X1545000Y950000D01*
X1361091Y950000D02*
X1225535Y814444D01*
X1225535Y800535D01*
D21*
X1770000Y1120000D03*
D22*
X1675000Y1025000D01*
X1660000Y1025000D01*
D21*
X1660000Y1025000D03*
X1590000Y970000D03*
D22*
X1565000Y945000D01*
X1362406Y945000D01*
D21*
X1230000Y790000D03*
D22*
X1230000Y812594D02*
X1362406Y945000D01*
X1230000Y812594D02*
X1230000Y790000D01*
M02*
