G04 EAGLE Gerber RS-274X export*
G75*
%MOMM*%
%FSLAX34Y34*%
%LPD*%
%INTop Copper*%
%IPPOS*%
%AMOC8*
5,1,8,0,0,1.08239X$1,22.5*%
G01*
G04 Define Apertures*
%ADD10P,1.73204X8X112.5*%
%ADD11R,1.459600X1.459600*%
%ADD12C,1.459600*%
%ADD13C,1.409600*%
%ADD14C,1.459600*%
%ADD15R,1.000000X1.100000*%
%ADD16R,1.100000X1.000000*%
%ADD17C,1.709600*%
%ADD18R,2.800000X2.800000*%
%ADD19C,1.625600*%
%ADD20C,1.574800*%
%ADD21C,1.389600*%
%ADD22C,0.300000*%
%ADD23C,3.000000*%
%ADD24C,0.243331*%
%ADD25C,1.016000*%
%ADD26C,0.203200*%
G36*
X2426435Y420060D02*
X2426685Y420232D01*
X2426849Y420487D01*
X2426900Y420762D01*
X2426900Y1185060D01*
X2426840Y1185358D01*
X2426668Y1185608D01*
X2426413Y1185771D01*
X2426114Y1185822D01*
X2425819Y1185752D01*
X2425599Y1185599D01*
X2420044Y1180044D01*
X2420017Y1180025D01*
X2419912Y1180000D01*
X2394056Y1180000D01*
X2393758Y1179940D01*
X2393508Y1179768D01*
X2393345Y1179513D01*
X2393294Y1179214D01*
X2393364Y1178919D01*
X2393517Y1178699D01*
X2396377Y1175839D01*
X2398048Y1171805D01*
X2398048Y1167440D01*
X2397456Y1166010D01*
X2397398Y1165713D01*
X2397461Y1165416D01*
X2397621Y1165180D01*
X2406471Y1156330D01*
X2406471Y1123949D01*
X2377135Y1094614D01*
X2343692Y1094614D01*
X2343395Y1094554D01*
X2343144Y1094382D01*
X2342981Y1094127D01*
X2342930Y1093828D01*
X2342988Y1093561D01*
X2343144Y1093183D01*
X2343314Y1092932D01*
X2343568Y1092766D01*
X2343848Y1092713D01*
X2372337Y1092713D01*
X2387713Y1077337D01*
X2387713Y1060645D01*
X2387773Y1060348D01*
X2387936Y1060107D01*
X2414317Y1033726D01*
X2414317Y821897D01*
X2391707Y799287D01*
X2391539Y799035D01*
X2391484Y798736D01*
X2391549Y798440D01*
X2391724Y798193D01*
X2391954Y798045D01*
X2394634Y796935D01*
X2396935Y794634D01*
X2398180Y791627D01*
X2398180Y788373D01*
X2396935Y785366D01*
X2394540Y782972D01*
X2394372Y782719D01*
X2394317Y782433D01*
X2394317Y503162D01*
X2394377Y502864D01*
X2394540Y502623D01*
X2413760Y483403D01*
X2414012Y483236D01*
X2414298Y483180D01*
X2417685Y483180D01*
X2420692Y481935D01*
X2422993Y479634D01*
X2424238Y476627D01*
X2424238Y473373D01*
X2422993Y470366D01*
X2420692Y468065D01*
X2417685Y466820D01*
X2414431Y466820D01*
X2411424Y468065D01*
X2409123Y470366D01*
X2407878Y473373D01*
X2407878Y476760D01*
X2407818Y477057D01*
X2407655Y477299D01*
X2385683Y499270D01*
X2385683Y782433D01*
X2385623Y782730D01*
X2385460Y782972D01*
X2383065Y785366D01*
X2381955Y788046D01*
X2381786Y788297D01*
X2381532Y788463D01*
X2381233Y788516D01*
X2380938Y788449D01*
X2380713Y788293D01*
X2248638Y656218D01*
X2227190Y656218D01*
X2226893Y656158D01*
X2226643Y655986D01*
X2226479Y655731D01*
X2226428Y655432D01*
X2226498Y655137D01*
X2226651Y654917D01*
X2226935Y654634D01*
X2228180Y651627D01*
X2228180Y648373D01*
X2226935Y645366D01*
X2224540Y642972D01*
X2224372Y642719D01*
X2224317Y642433D01*
X2224317Y578862D01*
X2224377Y578565D01*
X2224549Y578315D01*
X2224804Y578151D01*
X2225079Y578100D01*
X2230405Y578100D01*
X2233100Y575405D01*
X2233100Y564595D01*
X2230405Y561900D01*
X2219595Y561900D01*
X2216900Y564595D01*
X2216900Y571680D01*
X2216840Y571977D01*
X2216677Y572219D01*
X2215683Y573212D01*
X2215683Y642433D01*
X2215623Y642730D01*
X2215460Y642972D01*
X2213065Y645366D01*
X2211820Y648373D01*
X2211820Y651627D01*
X2213065Y654634D01*
X2213349Y654917D01*
X2213516Y655170D01*
X2213572Y655468D01*
X2213507Y655764D01*
X2213332Y656012D01*
X2213073Y656171D01*
X2212810Y656218D01*
X2087190Y656218D01*
X2086893Y656158D01*
X2086643Y655986D01*
X2086479Y655731D01*
X2086428Y655432D01*
X2086498Y655137D01*
X2086651Y654917D01*
X2086935Y654634D01*
X2088180Y651627D01*
X2088180Y648373D01*
X2086935Y645366D01*
X2084540Y642972D01*
X2084372Y642719D01*
X2084317Y642433D01*
X2084317Y591702D01*
X2084377Y591405D01*
X2084540Y591163D01*
X2112762Y562941D01*
X2113015Y562773D01*
X2113313Y562718D01*
X2113609Y562783D01*
X2113840Y562941D01*
X2116034Y565135D01*
X2120161Y566844D01*
X2124627Y566844D01*
X2128754Y565135D01*
X2131913Y561976D01*
X2133622Y557849D01*
X2133622Y542397D01*
X2133682Y542099D01*
X2133845Y541858D01*
X2137781Y537922D01*
X2138034Y537754D01*
X2138280Y537706D01*
X2140817Y535170D01*
X2140817Y509362D01*
X2140877Y509065D01*
X2141049Y508815D01*
X2141304Y508651D01*
X2141579Y508600D01*
X2142784Y508600D01*
X2144461Y506923D01*
X2144714Y506755D01*
X2145012Y506700D01*
X2145308Y506765D01*
X2145539Y506923D01*
X2147216Y508600D01*
X2159784Y508600D01*
X2161600Y506784D01*
X2161600Y498320D01*
X2161660Y498023D01*
X2161823Y497782D01*
X2184317Y475288D01*
X2184317Y455079D01*
X2184377Y454781D01*
X2184549Y454531D01*
X2184804Y454368D01*
X2185079Y454317D01*
X2240685Y454317D01*
X2240982Y454377D01*
X2241104Y454459D01*
X2251291Y454459D01*
X2251588Y454520D01*
X2251838Y454691D01*
X2252002Y454947D01*
X2252053Y455246D01*
X2251995Y455513D01*
X2251830Y455912D01*
X2251830Y459298D01*
X2251770Y459596D01*
X2251607Y459837D01*
X2250267Y461177D01*
X2250014Y461344D01*
X2249728Y461400D01*
X2247216Y461400D01*
X2245316Y463300D01*
X2245168Y463516D01*
X2244913Y463679D01*
X2244614Y463730D01*
X2244319Y463660D01*
X2244099Y463507D01*
X2242552Y461960D01*
X2237262Y461960D01*
X2237262Y478040D01*
X2242552Y478040D01*
X2244099Y476493D01*
X2244352Y476325D01*
X2244650Y476270D01*
X2244946Y476335D01*
X2245194Y476510D01*
X2245303Y476687D01*
X2247216Y478600D01*
X2259784Y478600D01*
X2261600Y476784D01*
X2261600Y466243D01*
X2261660Y465946D01*
X2261832Y465696D01*
X2262070Y465539D01*
X2264644Y464473D01*
X2266945Y462172D01*
X2268190Y459166D01*
X2268190Y455912D01*
X2267966Y455370D01*
X2267908Y455073D01*
X2267970Y454776D01*
X2268144Y454527D01*
X2268401Y454366D01*
X2268670Y454317D01*
X2284921Y454317D01*
X2285219Y454377D01*
X2285469Y454549D01*
X2285632Y454804D01*
X2285683Y455079D01*
X2285683Y456788D01*
X2288212Y459317D01*
X2391788Y459317D01*
X2394317Y456788D01*
X2394317Y433212D01*
X2382542Y421437D01*
X2382377Y421190D01*
X2382320Y421054D01*
X2382262Y420756D01*
X2382325Y420459D01*
X2382498Y420210D01*
X2382755Y420049D01*
X2383024Y420000D01*
X2426138Y420000D01*
X2426435Y420060D01*
G37*
%LPC*%
G36*
X2165373Y593156D02*
X2161246Y594865D01*
X2158087Y598024D01*
X2156378Y602151D01*
X2156378Y622873D01*
X2158087Y627000D01*
X2161246Y630159D01*
X2165373Y631868D01*
X2169839Y631868D01*
X2173966Y630159D01*
X2177125Y627000D01*
X2178834Y622873D01*
X2178834Y602151D01*
X2177125Y598024D01*
X2173966Y594865D01*
X2169839Y593156D01*
X2165373Y593156D01*
G37*
G36*
X2120161Y593156D02*
X2116034Y594865D01*
X2112875Y598024D01*
X2111166Y602151D01*
X2111166Y622873D01*
X2112875Y627000D01*
X2116034Y630159D01*
X2120161Y631868D01*
X2124627Y631868D01*
X2128754Y630159D01*
X2131913Y627000D01*
X2133622Y622873D01*
X2133622Y602151D01*
X2131913Y598024D01*
X2128754Y594865D01*
X2124627Y593156D01*
X2120161Y593156D01*
G37*
G36*
X2237216Y541400D02*
X2235316Y543300D01*
X2235168Y543516D01*
X2234913Y543679D01*
X2234614Y543730D01*
X2234319Y543660D01*
X2234099Y543507D01*
X2232552Y541960D01*
X2227262Y541960D01*
X2227262Y558040D01*
X2232552Y558040D01*
X2234099Y556493D01*
X2234352Y556325D01*
X2234650Y556270D01*
X2234946Y556335D01*
X2235194Y556510D01*
X2235303Y556687D01*
X2237216Y558600D01*
X2244921Y558600D01*
X2245219Y558660D01*
X2245469Y558832D01*
X2245632Y559087D01*
X2245683Y559362D01*
X2245683Y561138D01*
X2245623Y561435D01*
X2245452Y561685D01*
X2245196Y561849D01*
X2244921Y561900D01*
X2244595Y561900D01*
X2241900Y564595D01*
X2241900Y575405D01*
X2244595Y578100D01*
X2255405Y578100D01*
X2258100Y575405D01*
X2258100Y564595D01*
X2255405Y561900D01*
X2255079Y561900D01*
X2254781Y561840D01*
X2254531Y561668D01*
X2254368Y561413D01*
X2254317Y561138D01*
X2254317Y554712D01*
X2251823Y552219D01*
X2251656Y551966D01*
X2251600Y551680D01*
X2251600Y543216D01*
X2249784Y541400D01*
X2237216Y541400D01*
G37*
G36*
X2168368Y548250D02*
X2168368Y566284D01*
X2169728Y566284D01*
X2173649Y564660D01*
X2176650Y561659D01*
X2178274Y557738D01*
X2178274Y548250D01*
X2168368Y548250D01*
G37*
G36*
X2156938Y548250D02*
X2156938Y557738D01*
X2158562Y561659D01*
X2161563Y564660D01*
X2165484Y566284D01*
X2166844Y566284D01*
X2166844Y548250D01*
X2156938Y548250D01*
G37*
G36*
X2218960Y550762D02*
X2218960Y556552D01*
X2220448Y558040D01*
X2225738Y558040D01*
X2225738Y550762D01*
X2218960Y550762D01*
G37*
G36*
X2220448Y541960D02*
X2218960Y543448D01*
X2218960Y549238D01*
X2225738Y549238D01*
X2225738Y541960D01*
X2220448Y541960D01*
G37*
G36*
X2165484Y528692D02*
X2161563Y530316D01*
X2158562Y533317D01*
X2156938Y537238D01*
X2156938Y546726D01*
X2166844Y546726D01*
X2166844Y528692D01*
X2165484Y528692D01*
G37*
G36*
X2168368Y528692D02*
X2168368Y546726D01*
X2178274Y546726D01*
X2178274Y537238D01*
X2176650Y533317D01*
X2173649Y530316D01*
X2169728Y528692D01*
X2168368Y528692D01*
G37*
G36*
X2213373Y461820D02*
X2210366Y463065D01*
X2208065Y465366D01*
X2206820Y468373D01*
X2206820Y471760D01*
X2206760Y472057D01*
X2206597Y472299D01*
X2185683Y493212D01*
X2185683Y502433D01*
X2185623Y502730D01*
X2185460Y502972D01*
X2183065Y505366D01*
X2181820Y508373D01*
X2181820Y511627D01*
X2183065Y514634D01*
X2185366Y516935D01*
X2188373Y518180D01*
X2191627Y518180D01*
X2194634Y516935D01*
X2196935Y514634D01*
X2198180Y511627D01*
X2198180Y508373D01*
X2196935Y505366D01*
X2194540Y502972D01*
X2194372Y502719D01*
X2194317Y502433D01*
X2194317Y497104D01*
X2194377Y496806D01*
X2194540Y496565D01*
X2212702Y478403D01*
X2212954Y478236D01*
X2213240Y478180D01*
X2216627Y478180D01*
X2219634Y476935D01*
X2221935Y474634D01*
X2223180Y471627D01*
X2223180Y468373D01*
X2221935Y465366D01*
X2219634Y463065D01*
X2216627Y461820D01*
X2213373Y461820D01*
G37*
G36*
X2414431Y446820D02*
X2411424Y448065D01*
X2409123Y450366D01*
X2407878Y453373D01*
X2407878Y456760D01*
X2407818Y457057D01*
X2407655Y457299D01*
X2399493Y465460D01*
X2399240Y465628D01*
X2398954Y465683D01*
X2362362Y465683D01*
X2362065Y465623D01*
X2361815Y465452D01*
X2361651Y465196D01*
X2361600Y464921D01*
X2361600Y463216D01*
X2359784Y461400D01*
X2347216Y461400D01*
X2345316Y463300D01*
X2345168Y463516D01*
X2344913Y463679D01*
X2344614Y463730D01*
X2344319Y463660D01*
X2344099Y463507D01*
X2342552Y461960D01*
X2337262Y461960D01*
X2337262Y478040D01*
X2342552Y478040D01*
X2344099Y476493D01*
X2344352Y476325D01*
X2344650Y476270D01*
X2344946Y476335D01*
X2345194Y476510D01*
X2345303Y476687D01*
X2347216Y478600D01*
X2359784Y478600D01*
X2361600Y476784D01*
X2361600Y475079D01*
X2361660Y474781D01*
X2361832Y474531D01*
X2362087Y474368D01*
X2362362Y474317D01*
X2402846Y474317D01*
X2413760Y463403D01*
X2414012Y463236D01*
X2414298Y463180D01*
X2417685Y463180D01*
X2420692Y461935D01*
X2422993Y459634D01*
X2424238Y456627D01*
X2424238Y453373D01*
X2422993Y450366D01*
X2420692Y448065D01*
X2417685Y446820D01*
X2414431Y446820D01*
G37*
G36*
X2328960Y470762D02*
X2328960Y476552D01*
X2330448Y478040D01*
X2335738Y478040D01*
X2335738Y470762D01*
X2328960Y470762D01*
G37*
G36*
X2228960Y470762D02*
X2228960Y476552D01*
X2230448Y478040D01*
X2235738Y478040D01*
X2235738Y470762D01*
X2228960Y470762D01*
G37*
G36*
X2330448Y461960D02*
X2328960Y463448D01*
X2328960Y469238D01*
X2335738Y469238D01*
X2335738Y461960D01*
X2330448Y461960D01*
G37*
G36*
X2230448Y461960D02*
X2228960Y463448D01*
X2228960Y469238D01*
X2235738Y469238D01*
X2235738Y461960D01*
X2230448Y461960D01*
G37*
%LPD*%
G36*
X755219Y420060D02*
X755469Y420232D01*
X755632Y420487D01*
X755683Y420762D01*
X755683Y456788D01*
X778278Y479383D01*
X778445Y479635D01*
X778501Y479934D01*
X778436Y480230D01*
X778260Y480477D01*
X778002Y480636D01*
X777739Y480683D01*
X503212Y480683D01*
X488435Y495460D01*
X488182Y495628D01*
X487896Y495683D01*
X337362Y495683D01*
X337065Y495623D01*
X336815Y495452D01*
X336651Y495196D01*
X336600Y494921D01*
X336600Y493216D01*
X334784Y491400D01*
X322216Y491400D01*
X320539Y493077D01*
X320286Y493245D01*
X319988Y493300D01*
X319692Y493235D01*
X319461Y493077D01*
X317784Y491400D01*
X305216Y491400D01*
X303400Y493216D01*
X303400Y501680D01*
X303340Y501977D01*
X303177Y502219D01*
X293077Y512318D01*
X293077Y515906D01*
X293222Y516124D01*
X293278Y516410D01*
X293278Y528403D01*
X293218Y528700D01*
X293046Y528950D01*
X292808Y529107D01*
X291034Y529841D01*
X287875Y533000D01*
X286166Y537127D01*
X286166Y557849D01*
X287875Y561976D01*
X291034Y565135D01*
X295161Y566844D01*
X299627Y566844D01*
X303754Y565135D01*
X306913Y561976D01*
X308622Y557849D01*
X308622Y537127D01*
X306913Y533000D01*
X303754Y529841D01*
X301980Y529107D01*
X301729Y528937D01*
X301563Y528683D01*
X301510Y528403D01*
X301510Y516410D01*
X301570Y516113D01*
X301733Y515872D01*
X308782Y508823D01*
X309034Y508656D01*
X309320Y508600D01*
X317784Y508600D01*
X319461Y506923D01*
X319714Y506755D01*
X320012Y506700D01*
X320308Y506765D01*
X320539Y506923D01*
X322216Y508600D01*
X324921Y508600D01*
X325219Y508660D01*
X325469Y508832D01*
X325632Y509087D01*
X325683Y509362D01*
X325683Y516788D01*
X328212Y519317D01*
X347896Y519317D01*
X348194Y519377D01*
X348435Y519540D01*
X360460Y531565D01*
X360628Y531818D01*
X360683Y532104D01*
X360683Y632896D01*
X360623Y633194D01*
X360460Y633435D01*
X340683Y653212D01*
X340683Y751788D01*
X350112Y761217D01*
X373140Y761217D01*
X373437Y761277D01*
X373687Y761449D01*
X373851Y761704D01*
X373902Y761979D01*
X373902Y765482D01*
X375718Y767298D01*
X392882Y767298D01*
X394698Y765482D01*
X394698Y757779D01*
X394758Y757481D01*
X394930Y757231D01*
X395185Y757068D01*
X395460Y757017D01*
X437739Y757017D01*
X438036Y757077D01*
X438286Y757249D01*
X438450Y757504D01*
X438501Y757803D01*
X438431Y758098D01*
X438278Y758317D01*
X435683Y760912D01*
X435683Y804396D01*
X435623Y804694D01*
X435460Y804935D01*
X417219Y823177D01*
X416966Y823344D01*
X416680Y823400D01*
X408216Y823400D01*
X406400Y825216D01*
X406400Y831956D01*
X406340Y832253D01*
X406168Y832503D01*
X405913Y832666D01*
X405614Y832717D01*
X405319Y832648D01*
X405099Y832495D01*
X368288Y795683D01*
X328212Y795683D01*
X320683Y803212D01*
X320683Y809090D01*
X320623Y809387D01*
X320452Y809637D01*
X320196Y809801D01*
X319921Y809852D01*
X315933Y809852D01*
X312204Y811397D01*
X309349Y814252D01*
X307804Y817981D01*
X307804Y822019D01*
X309349Y825748D01*
X312204Y828603D01*
X315933Y830148D01*
X334067Y830148D01*
X337796Y828603D01*
X340651Y825748D01*
X342196Y822019D01*
X342196Y817981D01*
X340651Y814252D01*
X337796Y811397D01*
X334067Y809852D01*
X330079Y809852D01*
X329781Y809792D01*
X329531Y809620D01*
X329368Y809365D01*
X329317Y809090D01*
X329317Y807104D01*
X329377Y806806D01*
X329540Y806565D01*
X331565Y804540D01*
X331818Y804372D01*
X332104Y804317D01*
X364396Y804317D01*
X364694Y804377D01*
X364935Y804540D01*
X406177Y845782D01*
X406344Y846034D01*
X406400Y846320D01*
X406400Y854784D01*
X408216Y856600D01*
X409921Y856600D01*
X410219Y856660D01*
X410469Y856832D01*
X410632Y857087D01*
X410683Y857362D01*
X410683Y857433D01*
X410623Y857730D01*
X410460Y857972D01*
X408065Y860366D01*
X406820Y863373D01*
X406820Y866627D01*
X408065Y869634D01*
X410366Y871935D01*
X413373Y873180D01*
X416627Y873180D01*
X419634Y871935D01*
X421935Y869634D01*
X423180Y866627D01*
X423180Y863373D01*
X421935Y860366D01*
X419540Y857972D01*
X419372Y857719D01*
X419317Y857433D01*
X419317Y857362D01*
X419377Y857065D01*
X419549Y856815D01*
X419804Y856651D01*
X420079Y856600D01*
X421784Y856600D01*
X423600Y854784D01*
X423600Y842216D01*
X421923Y840539D01*
X421755Y840286D01*
X421700Y839988D01*
X421765Y839692D01*
X421923Y839461D01*
X422101Y839283D01*
X422354Y839116D01*
X422652Y839060D01*
X422948Y839125D01*
X423179Y839283D01*
X425460Y841565D01*
X425628Y841818D01*
X425683Y842104D01*
X425683Y986796D01*
X425623Y987094D01*
X425460Y987335D01*
X412334Y1000462D01*
X412081Y1000629D01*
X411783Y1000685D01*
X411503Y1000627D01*
X410599Y1000252D01*
X406601Y1000252D01*
X402908Y1001782D01*
X400082Y1004608D01*
X398552Y1008301D01*
X398552Y1012299D01*
X400082Y1015992D01*
X402908Y1018818D01*
X406601Y1020348D01*
X410599Y1020348D01*
X414292Y1018818D01*
X417118Y1015992D01*
X417493Y1015087D01*
X417663Y1014836D01*
X417917Y1014670D01*
X418197Y1014617D01*
X438196Y1014617D01*
X438494Y1014677D01*
X438735Y1014840D01*
X445460Y1021565D01*
X445628Y1021818D01*
X445683Y1022104D01*
X445683Y1061788D01*
X474712Y1090817D01*
X478403Y1090817D01*
X478700Y1090877D01*
X478950Y1091049D01*
X479107Y1091287D01*
X479482Y1092192D01*
X482308Y1095018D01*
X486001Y1096548D01*
X489999Y1096548D01*
X493692Y1095018D01*
X496518Y1092192D01*
X498048Y1088499D01*
X498048Y1084501D01*
X496518Y1080808D01*
X493692Y1077982D01*
X489999Y1076452D01*
X486001Y1076452D01*
X482308Y1077982D01*
X479482Y1080808D01*
X479166Y1081571D01*
X478996Y1081823D01*
X478742Y1081988D01*
X478444Y1082041D01*
X478148Y1081974D01*
X477923Y1081818D01*
X454540Y1058435D01*
X454372Y1058182D01*
X454317Y1057896D01*
X454317Y1018212D01*
X442088Y1005983D01*
X420861Y1005983D01*
X420564Y1005923D01*
X420314Y1005752D01*
X420150Y1005496D01*
X420099Y1005197D01*
X420169Y1004902D01*
X420322Y1004683D01*
X434317Y990688D01*
X434317Y838212D01*
X424894Y828789D01*
X424726Y828536D01*
X424670Y828238D01*
X424736Y827942D01*
X424894Y827711D01*
X478065Y774540D01*
X478318Y774372D01*
X478604Y774317D01*
X533671Y774317D01*
X533968Y774377D01*
X534219Y774549D01*
X534375Y774787D01*
X535125Y776598D01*
X538402Y779875D01*
X542683Y781648D01*
X547317Y781648D01*
X549128Y780898D01*
X549426Y780840D01*
X549722Y780903D01*
X549958Y781063D01*
X572853Y803957D01*
X696667Y803957D01*
X696965Y804018D01*
X697215Y804189D01*
X697378Y804445D01*
X697429Y804744D01*
X697371Y805011D01*
X696820Y806342D01*
X696820Y809596D01*
X698065Y812603D01*
X699845Y814383D01*
X700012Y814635D01*
X700068Y814934D01*
X700003Y815230D01*
X699828Y815477D01*
X699569Y815636D01*
X699306Y815683D01*
X457567Y815683D01*
X457270Y815623D01*
X457028Y815460D01*
X454634Y813065D01*
X451627Y811820D01*
X448373Y811820D01*
X445366Y813065D01*
X443065Y815366D01*
X441820Y818373D01*
X441820Y821627D01*
X443065Y824634D01*
X445366Y826935D01*
X448373Y828180D01*
X451627Y828180D01*
X454634Y826935D01*
X457028Y824540D01*
X457281Y824372D01*
X457567Y824317D01*
X507138Y824317D01*
X507435Y824377D01*
X507685Y824549D01*
X507849Y824804D01*
X507900Y825079D01*
X507900Y855284D01*
X509716Y857100D01*
X540284Y857100D01*
X542100Y855284D01*
X542100Y825079D01*
X542160Y824781D01*
X542332Y824531D01*
X542587Y824368D01*
X542862Y824317D01*
X597138Y824317D01*
X597435Y824377D01*
X597685Y824549D01*
X597849Y824804D01*
X597900Y825079D01*
X597900Y855284D01*
X599716Y857100D01*
X630284Y857100D01*
X632100Y855284D01*
X632100Y825079D01*
X632160Y824781D01*
X632332Y824531D01*
X632587Y824368D01*
X632862Y824317D01*
X707138Y824317D01*
X707435Y824377D01*
X707685Y824549D01*
X707849Y824804D01*
X707900Y825079D01*
X707900Y855284D01*
X709716Y857100D01*
X740284Y857100D01*
X742100Y855284D01*
X742100Y825079D01*
X742160Y824781D01*
X742332Y824531D01*
X742587Y824368D01*
X742862Y824317D01*
X797138Y824317D01*
X797435Y824377D01*
X797685Y824549D01*
X797849Y824804D01*
X797900Y825079D01*
X797900Y855284D01*
X799716Y857100D01*
X830284Y857100D01*
X832100Y855284D01*
X832100Y825079D01*
X832160Y824781D01*
X832332Y824531D01*
X832587Y824368D01*
X832862Y824317D01*
X907138Y824317D01*
X907435Y824377D01*
X907685Y824549D01*
X907849Y824804D01*
X907900Y825079D01*
X907900Y855284D01*
X909716Y857100D01*
X940284Y857100D01*
X942100Y855284D01*
X942100Y825079D01*
X942160Y824781D01*
X942332Y824531D01*
X942587Y824368D01*
X942862Y824317D01*
X997138Y824317D01*
X997435Y824377D01*
X997685Y824549D01*
X997849Y824804D01*
X997900Y825079D01*
X997900Y855284D01*
X999716Y857100D01*
X1030284Y857100D01*
X1032100Y855284D01*
X1032100Y825079D01*
X1032160Y824781D01*
X1032332Y824531D01*
X1032587Y824368D01*
X1032862Y824317D01*
X1052739Y824317D01*
X1053036Y824377D01*
X1053286Y824549D01*
X1053450Y824804D01*
X1053501Y825103D01*
X1053431Y825398D01*
X1053278Y825617D01*
X1052299Y826597D01*
X1052046Y826764D01*
X1051760Y826820D01*
X1048373Y826820D01*
X1045366Y828065D01*
X1043065Y830366D01*
X1041820Y833373D01*
X1041820Y836627D01*
X1043065Y839634D01*
X1045366Y841935D01*
X1048373Y843180D01*
X1051627Y843180D01*
X1054634Y841935D01*
X1056935Y839634D01*
X1058180Y836627D01*
X1058180Y833240D01*
X1058240Y832943D01*
X1058403Y832702D01*
X1062100Y829005D01*
X1062352Y828838D01*
X1062638Y828782D01*
X1141340Y828782D01*
X1141637Y828842D01*
X1141888Y829014D01*
X1142051Y829269D01*
X1142102Y829568D01*
X1142044Y829836D01*
X1141820Y830377D01*
X1141820Y833631D01*
X1143065Y836638D01*
X1145366Y838939D01*
X1148373Y840184D01*
X1151627Y840184D01*
X1153752Y839304D01*
X1154049Y839246D01*
X1154346Y839309D01*
X1154582Y839469D01*
X1384429Y1069317D01*
X1877104Y1069317D01*
X1877401Y1069377D01*
X1877651Y1069549D01*
X1877808Y1069787D01*
X1878065Y1070409D01*
X1880366Y1072710D01*
X1883373Y1073956D01*
X1886627Y1073956D01*
X1889634Y1072710D01*
X1891935Y1070409D01*
X1893180Y1067403D01*
X1893180Y1064149D01*
X1891935Y1061142D01*
X1890155Y1059363D01*
X1889988Y1059110D01*
X1889932Y1058812D01*
X1889997Y1058515D01*
X1890173Y1058268D01*
X1890431Y1058109D01*
X1890694Y1058062D01*
X1922475Y1058062D01*
X1922773Y1058122D01*
X1923023Y1058294D01*
X1923186Y1058549D01*
X1923237Y1058848D01*
X1923167Y1059143D01*
X1923014Y1059363D01*
X1920571Y1061806D01*
X1918900Y1065840D01*
X1918900Y1070205D01*
X1920571Y1074239D01*
X1923658Y1077326D01*
X1927691Y1078996D01*
X1932057Y1078996D01*
X1936090Y1077326D01*
X1939177Y1074239D01*
X1940848Y1070205D01*
X1940848Y1065840D01*
X1939177Y1061806D01*
X1936734Y1059363D01*
X1936566Y1059110D01*
X1936511Y1058812D01*
X1936576Y1058515D01*
X1936751Y1058268D01*
X1937009Y1058109D01*
X1937273Y1058062D01*
X1946269Y1058062D01*
X1950928Y1053403D01*
X1951181Y1053236D01*
X1951467Y1053180D01*
X1954623Y1053180D01*
X1955954Y1052629D01*
X1956252Y1052571D01*
X1956549Y1052633D01*
X1956798Y1052807D01*
X1956959Y1053064D01*
X1957008Y1053333D01*
X1957008Y1100998D01*
X1956948Y1101295D01*
X1956785Y1101537D01*
X1941899Y1116423D01*
X1941646Y1116590D01*
X1941348Y1116646D01*
X1941052Y1116581D01*
X1940804Y1116405D01*
X1940656Y1116176D01*
X1939177Y1112606D01*
X1936090Y1109519D01*
X1932057Y1107848D01*
X1927691Y1107848D01*
X1923658Y1109519D01*
X1920571Y1112606D01*
X1918900Y1116640D01*
X1918900Y1121005D01*
X1920401Y1124630D01*
X1920459Y1124927D01*
X1920397Y1125224D01*
X1920223Y1125473D01*
X1919966Y1125634D01*
X1919697Y1125683D01*
X1916908Y1125683D01*
X1883517Y1159075D01*
X1883264Y1159243D01*
X1882966Y1159298D01*
X1882686Y1159240D01*
X1881257Y1158648D01*
X1876891Y1158648D01*
X1872858Y1160319D01*
X1869771Y1163406D01*
X1868100Y1167440D01*
X1868100Y1171805D01*
X1869771Y1175839D01*
X1872631Y1178699D01*
X1872799Y1178952D01*
X1872854Y1179250D01*
X1872789Y1179546D01*
X1872614Y1179794D01*
X1872356Y1179953D01*
X1872092Y1180000D01*
X1860656Y1180000D01*
X1860358Y1179940D01*
X1860108Y1179768D01*
X1859945Y1179513D01*
X1859894Y1179214D01*
X1859964Y1178919D01*
X1860117Y1178699D01*
X1862977Y1175839D01*
X1864648Y1171805D01*
X1864648Y1167440D01*
X1862977Y1163406D01*
X1859890Y1160319D01*
X1855857Y1158648D01*
X1851491Y1158648D01*
X1850062Y1159240D01*
X1849764Y1159298D01*
X1849468Y1159236D01*
X1849232Y1159075D01*
X1825840Y1135683D01*
X1387567Y1135683D01*
X1387270Y1135623D01*
X1387028Y1135460D01*
X1384634Y1133065D01*
X1381627Y1131820D01*
X1378373Y1131820D01*
X1375366Y1133065D01*
X1373065Y1135366D01*
X1371820Y1138373D01*
X1371820Y1141627D01*
X1373064Y1144630D01*
X1373122Y1144927D01*
X1373059Y1145224D01*
X1372886Y1145473D01*
X1372629Y1145634D01*
X1372360Y1145683D01*
X1372104Y1145683D01*
X1371806Y1145623D01*
X1371565Y1145460D01*
X1359540Y1133435D01*
X1359372Y1133182D01*
X1359317Y1132896D01*
X1359317Y1125079D01*
X1359377Y1124781D01*
X1359549Y1124531D01*
X1359804Y1124368D01*
X1360079Y1124317D01*
X1762433Y1124317D01*
X1762730Y1124377D01*
X1762972Y1124540D01*
X1765366Y1126935D01*
X1768373Y1128180D01*
X1771627Y1128180D01*
X1774634Y1126935D01*
X1776935Y1124634D01*
X1778180Y1121627D01*
X1778180Y1118373D01*
X1776935Y1115366D01*
X1774634Y1113065D01*
X1771627Y1111820D01*
X1768373Y1111820D01*
X1765366Y1113065D01*
X1762972Y1115460D01*
X1762719Y1115628D01*
X1762433Y1115683D01*
X1353212Y1115683D01*
X1350617Y1118278D01*
X1350365Y1118445D01*
X1350067Y1118501D01*
X1349770Y1118436D01*
X1349523Y1118260D01*
X1349364Y1118002D01*
X1349317Y1117739D01*
X1349317Y1112104D01*
X1349377Y1111806D01*
X1349540Y1111565D01*
X1356565Y1104540D01*
X1356818Y1104372D01*
X1357104Y1104317D01*
X1707433Y1104317D01*
X1707730Y1104377D01*
X1707972Y1104540D01*
X1710366Y1106935D01*
X1713373Y1108180D01*
X1716627Y1108180D01*
X1719634Y1106935D01*
X1721935Y1104634D01*
X1723180Y1101627D01*
X1723180Y1098373D01*
X1721935Y1095366D01*
X1719634Y1093065D01*
X1716627Y1091820D01*
X1713373Y1091820D01*
X1710366Y1093065D01*
X1707972Y1095460D01*
X1707719Y1095628D01*
X1707433Y1095683D01*
X1353212Y1095683D01*
X1340683Y1108212D01*
X1340683Y1136788D01*
X1363212Y1159317D01*
X1786148Y1159317D01*
X1786445Y1159377D01*
X1786687Y1159540D01*
X1792327Y1165180D01*
X1792494Y1165433D01*
X1792550Y1165731D01*
X1792492Y1166010D01*
X1791900Y1167440D01*
X1791900Y1171805D01*
X1793571Y1175839D01*
X1796431Y1178699D01*
X1796599Y1178952D01*
X1796654Y1179250D01*
X1796589Y1179546D01*
X1796414Y1179794D01*
X1796156Y1179953D01*
X1795892Y1180000D01*
X905103Y1180000D01*
X223859Y1176917D01*
X223562Y1176856D01*
X223312Y1176683D01*
X223150Y1176427D01*
X223100Y1176155D01*
X223100Y420762D01*
X223160Y420465D01*
X223332Y420215D01*
X223587Y420051D01*
X223862Y420000D01*
X754921Y420000D01*
X755219Y420060D01*
G37*
%LPC*%
G36*
X275402Y761599D02*
X268899Y768102D01*
X268899Y777298D01*
X275460Y783859D01*
X275628Y784112D01*
X275683Y784398D01*
X275683Y802214D01*
X287837Y814367D01*
X288004Y814620D01*
X288060Y814906D01*
X288060Y825094D01*
X288000Y825391D01*
X287837Y825633D01*
X275683Y837786D01*
X275683Y852042D01*
X275623Y852339D01*
X275452Y852589D01*
X275196Y852753D01*
X274921Y852804D01*
X272981Y852804D01*
X269252Y854349D01*
X266397Y857204D01*
X264852Y860933D01*
X264852Y879067D01*
X266397Y882796D01*
X269252Y885651D01*
X270213Y886049D01*
X270464Y886219D01*
X270630Y886473D01*
X270683Y886753D01*
X270683Y897214D01*
X287837Y914367D01*
X288004Y914620D01*
X288060Y914906D01*
X288060Y946665D01*
X397107Y1055711D01*
X397274Y1055964D01*
X397330Y1056262D01*
X397265Y1056558D01*
X397107Y1056789D01*
X385683Y1068212D01*
X385683Y1111788D01*
X388212Y1114317D01*
X506788Y1114317D01*
X509317Y1111788D01*
X509317Y1050912D01*
X497838Y1039434D01*
X497671Y1039181D01*
X497615Y1038883D01*
X497673Y1038603D01*
X498048Y1037699D01*
X498048Y1033701D01*
X496518Y1030008D01*
X493692Y1027182D01*
X489999Y1025652D01*
X486001Y1025652D01*
X482308Y1027182D01*
X479482Y1030008D01*
X477952Y1033701D01*
X477952Y1037699D01*
X479482Y1041392D01*
X482308Y1044218D01*
X486001Y1045748D01*
X489999Y1045748D01*
X490903Y1045373D01*
X491201Y1045315D01*
X491498Y1045378D01*
X491734Y1045538D01*
X500460Y1054265D01*
X500628Y1054518D01*
X500683Y1054804D01*
X500683Y1104921D01*
X500623Y1105219D01*
X500452Y1105469D01*
X500196Y1105632D01*
X499921Y1105683D01*
X395079Y1105683D01*
X394781Y1105623D01*
X394531Y1105452D01*
X394368Y1105196D01*
X394317Y1104921D01*
X394317Y1072104D01*
X394377Y1071806D01*
X394540Y1071565D01*
X399159Y1066946D01*
X399411Y1066779D01*
X399710Y1066723D01*
X400006Y1066788D01*
X400236Y1066946D01*
X402908Y1069618D01*
X406601Y1071148D01*
X410599Y1071148D01*
X414292Y1069618D01*
X417118Y1066792D01*
X418648Y1063099D01*
X418648Y1059101D01*
X417118Y1055408D01*
X414292Y1052582D01*
X410599Y1051052D01*
X406601Y1051052D01*
X405697Y1051427D01*
X405399Y1051485D01*
X405102Y1051422D01*
X404866Y1051262D01*
X296917Y943312D01*
X296749Y943059D01*
X296693Y942773D01*
X296693Y911014D01*
X279540Y893861D01*
X279372Y893608D01*
X279317Y893322D01*
X279317Y886753D01*
X279377Y886456D01*
X279549Y886206D01*
X279787Y886049D01*
X280748Y885651D01*
X283603Y882796D01*
X285148Y879067D01*
X285148Y860933D01*
X284375Y859066D01*
X284317Y858775D01*
X284317Y841678D01*
X284377Y841381D01*
X284540Y841139D01*
X296693Y828986D01*
X296693Y811014D01*
X284540Y798861D01*
X284372Y798608D01*
X284317Y798322D01*
X284317Y784398D01*
X284377Y784101D01*
X284540Y783859D01*
X291101Y777298D01*
X291101Y768102D01*
X284598Y761599D01*
X275402Y761599D01*
G37*
G36*
X1927691Y1082448D02*
X1923658Y1084119D01*
X1920571Y1087206D01*
X1918900Y1091240D01*
X1918900Y1095605D01*
X1920571Y1099639D01*
X1923658Y1102726D01*
X1927691Y1104396D01*
X1932057Y1104396D01*
X1936090Y1102726D01*
X1939177Y1099639D01*
X1940848Y1095605D01*
X1940848Y1091240D01*
X1939177Y1087206D01*
X1936090Y1084119D01*
X1932057Y1082448D01*
X1927691Y1082448D01*
G37*
G36*
X406601Y1076452D02*
X402908Y1077982D01*
X400082Y1080808D01*
X398552Y1084501D01*
X398552Y1088499D01*
X400082Y1092192D01*
X402908Y1095018D01*
X406601Y1096548D01*
X410599Y1096548D01*
X414292Y1095018D01*
X417118Y1092192D01*
X418648Y1088499D01*
X418648Y1084501D01*
X417118Y1080808D01*
X414292Y1077982D01*
X410599Y1076452D01*
X406601Y1076452D01*
G37*
G36*
X486001Y1051052D02*
X482308Y1052582D01*
X479482Y1055408D01*
X477952Y1059101D01*
X477952Y1063099D01*
X479482Y1066792D01*
X482308Y1069618D01*
X486001Y1071148D01*
X489999Y1071148D01*
X493692Y1069618D01*
X496518Y1066792D01*
X498048Y1063099D01*
X498048Y1059101D01*
X496518Y1055408D01*
X493692Y1052582D01*
X489999Y1051052D01*
X486001Y1051052D01*
G37*
G36*
X406601Y1025652D02*
X402908Y1027182D01*
X400082Y1030008D01*
X398552Y1033701D01*
X398552Y1037699D01*
X400082Y1041392D01*
X402908Y1044218D01*
X406601Y1045748D01*
X410599Y1045748D01*
X414292Y1044218D01*
X417118Y1041392D01*
X418648Y1037699D01*
X418648Y1033701D01*
X417118Y1030008D01*
X414292Y1027182D01*
X410599Y1025652D01*
X406601Y1025652D01*
G37*
G36*
X488762Y1011062D02*
X488762Y1019788D01*
X489887Y1019788D01*
X493375Y1018344D01*
X496044Y1015675D01*
X497488Y1012187D01*
X497488Y1011062D01*
X488762Y1011062D01*
G37*
G36*
X478512Y1011062D02*
X478512Y1012187D01*
X479956Y1015675D01*
X482625Y1018344D01*
X486113Y1019788D01*
X487238Y1019788D01*
X487238Y1011062D01*
X478512Y1011062D01*
G37*
G36*
X488762Y1000812D02*
X488762Y1009538D01*
X497488Y1009538D01*
X497488Y1008413D01*
X496044Y1004925D01*
X493375Y1002256D01*
X489887Y1000812D01*
X488762Y1000812D01*
G37*
G36*
X486113Y1000812D02*
X482625Y1002256D01*
X479956Y1004925D01*
X478512Y1008413D01*
X478512Y1009538D01*
X487238Y1009538D01*
X487238Y1000812D01*
X486113Y1000812D01*
G37*
G36*
X315933Y909852D02*
X312204Y911397D01*
X309349Y914252D01*
X307804Y917981D01*
X307804Y922019D01*
X309349Y925748D01*
X312204Y928603D01*
X315933Y930148D01*
X334067Y930148D01*
X337796Y928603D01*
X340651Y925748D01*
X342196Y922019D01*
X342196Y917981D01*
X340651Y914252D01*
X337796Y911397D01*
X334067Y909852D01*
X315933Y909852D01*
G37*
G36*
X273190Y910900D02*
X269845Y912285D01*
X267285Y914845D01*
X265900Y918190D01*
X265900Y921810D01*
X267285Y925155D01*
X269845Y927715D01*
X273190Y929100D01*
X276810Y929100D01*
X280155Y927715D01*
X282715Y925155D01*
X284100Y921810D01*
X284100Y918190D01*
X282715Y914845D01*
X280155Y912285D01*
X276810Y910900D01*
X273190Y910900D01*
G37*
G36*
X315933Y884852D02*
X312204Y886397D01*
X309349Y889252D01*
X307804Y892981D01*
X307804Y897019D01*
X309349Y900748D01*
X312204Y903603D01*
X315933Y905148D01*
X334067Y905148D01*
X337796Y903603D01*
X340651Y900748D01*
X342196Y897019D01*
X342196Y892981D01*
X340651Y889252D01*
X337796Y886397D01*
X334067Y884852D01*
X315933Y884852D01*
G37*
G36*
X323190Y860900D02*
X319845Y862285D01*
X317285Y864845D01*
X315900Y868190D01*
X315900Y871810D01*
X317285Y875155D01*
X319845Y877715D01*
X323190Y879100D01*
X326810Y879100D01*
X330155Y877715D01*
X332715Y875155D01*
X334100Y871810D01*
X334100Y868190D01*
X332715Y864845D01*
X330155Y862285D01*
X326810Y860900D01*
X323190Y860900D01*
G37*
G36*
X315933Y834852D02*
X312204Y836397D01*
X309349Y839252D01*
X307804Y842981D01*
X307804Y847019D01*
X309349Y850748D01*
X312204Y853603D01*
X315933Y855148D01*
X334067Y855148D01*
X337796Y853603D01*
X340651Y850748D01*
X342196Y847019D01*
X342196Y842981D01*
X340651Y839252D01*
X337796Y836397D01*
X334067Y834852D01*
X315933Y834852D01*
G37*
G36*
X273190Y810900D02*
X269845Y812285D01*
X267285Y814845D01*
X265900Y818190D01*
X265900Y821810D01*
X267285Y825155D01*
X269845Y827715D01*
X273190Y829100D01*
X276810Y829100D01*
X280155Y827715D01*
X282715Y825155D01*
X284100Y821810D01*
X284100Y818190D01*
X282715Y814845D01*
X280155Y812285D01*
X276810Y810900D01*
X273190Y810900D01*
G37*
G36*
X280762Y748062D02*
X280762Y757841D01*
X284366Y757841D01*
X290541Y751666D01*
X290541Y748062D01*
X280762Y748062D01*
G37*
G36*
X269459Y748062D02*
X269459Y751666D01*
X275634Y757841D01*
X279238Y757841D01*
X279238Y748062D01*
X269459Y748062D01*
G37*
G36*
X275634Y736759D02*
X269459Y742934D01*
X269459Y746538D01*
X279238Y746538D01*
X279238Y736759D01*
X275634Y736759D01*
G37*
G36*
X280762Y736759D02*
X280762Y746538D01*
X290541Y746538D01*
X290541Y742934D01*
X284366Y736759D01*
X280762Y736759D01*
G37*
G36*
X340373Y593156D02*
X336246Y594865D01*
X333087Y598024D01*
X331378Y602151D01*
X331378Y622873D01*
X333087Y627000D01*
X336246Y630159D01*
X340373Y631868D01*
X344839Y631868D01*
X348966Y630159D01*
X352125Y627000D01*
X353834Y622873D01*
X353834Y602151D01*
X352125Y598024D01*
X348966Y594865D01*
X344839Y593156D01*
X340373Y593156D01*
G37*
G36*
X295161Y593156D02*
X291034Y594865D01*
X287875Y598024D01*
X286166Y602151D01*
X286166Y622873D01*
X287875Y627000D01*
X291034Y630159D01*
X295161Y631868D01*
X299627Y631868D01*
X303754Y630159D01*
X306913Y627000D01*
X308622Y622873D01*
X308622Y602151D01*
X306913Y598024D01*
X303754Y594865D01*
X299627Y593156D01*
X295161Y593156D01*
G37*
G36*
X343368Y548250D02*
X343368Y566284D01*
X344728Y566284D01*
X348649Y564660D01*
X351650Y561659D01*
X353274Y557738D01*
X353274Y548250D01*
X343368Y548250D01*
G37*
G36*
X331938Y548250D02*
X331938Y557738D01*
X333562Y561659D01*
X336563Y564660D01*
X340484Y566284D01*
X341844Y566284D01*
X341844Y548250D01*
X331938Y548250D01*
G37*
G36*
X343368Y528692D02*
X343368Y546726D01*
X353274Y546726D01*
X353274Y537238D01*
X351650Y533317D01*
X348649Y530316D01*
X344728Y528692D01*
X343368Y528692D01*
G37*
G36*
X340484Y528692D02*
X336563Y530316D01*
X333562Y533317D01*
X331938Y537238D01*
X331938Y546726D01*
X341844Y546726D01*
X341844Y528692D01*
X340484Y528692D01*
G37*
%LPD*%
G36*
X2382808Y849449D02*
X2383039Y849607D01*
X2385460Y852028D01*
X2385628Y852281D01*
X2385683Y852567D01*
X2385683Y980638D01*
X2385623Y980935D01*
X2385452Y981185D01*
X2385196Y981349D01*
X2384921Y981400D01*
X2379415Y981400D01*
X2379117Y981340D01*
X2378876Y981177D01*
X2374634Y976935D01*
X2358366Y976935D01*
X2349841Y985460D01*
X2349588Y985628D01*
X2349302Y985683D01*
X2338862Y985683D01*
X2338565Y985623D01*
X2338315Y985452D01*
X2338151Y985196D01*
X2338100Y984921D01*
X2338100Y984595D01*
X2335405Y981900D01*
X2324595Y981900D01*
X2321900Y984595D01*
X2321900Y995405D01*
X2324595Y998100D01*
X2335405Y998100D01*
X2338100Y995405D01*
X2338100Y995079D01*
X2338160Y994781D01*
X2338332Y994531D01*
X2338587Y994368D01*
X2338862Y994317D01*
X2353194Y994317D01*
X2357659Y989851D01*
X2357912Y989684D01*
X2358210Y989628D01*
X2358506Y989693D01*
X2358579Y989745D01*
X2358579Y989238D01*
X2367262Y989238D01*
X2367262Y998040D01*
X2372552Y998040D01*
X2374099Y996493D01*
X2374352Y996325D01*
X2374650Y996270D01*
X2374946Y996335D01*
X2375194Y996510D01*
X2375303Y996687D01*
X2377216Y998600D01*
X2389784Y998600D01*
X2391600Y996784D01*
X2391600Y990950D01*
X2391660Y990653D01*
X2391832Y990403D01*
X2392087Y990239D01*
X2392386Y990188D01*
X2392681Y990258D01*
X2392901Y990411D01*
X2393657Y991167D01*
X2393824Y991420D01*
X2393880Y991706D01*
X2393880Y1007629D01*
X2393820Y1007926D01*
X2393648Y1008176D01*
X2393393Y1008340D01*
X2393094Y1008391D01*
X2392826Y1008333D01*
X2389145Y1006808D01*
X2387836Y1006808D01*
X2387836Y1027636D01*
X2389145Y1027636D01*
X2392826Y1026112D01*
X2393124Y1026054D01*
X2393421Y1026116D01*
X2393670Y1026290D01*
X2393831Y1026547D01*
X2393880Y1026816D01*
X2393880Y1029007D01*
X2393820Y1029305D01*
X2393657Y1029546D01*
X2375617Y1047586D01*
X2375365Y1047753D01*
X2375067Y1047809D01*
X2374770Y1047744D01*
X2374523Y1047568D01*
X2374364Y1047310D01*
X2374317Y1047047D01*
X2374317Y1028212D01*
X2371788Y1025683D01*
X2370572Y1025683D01*
X2370275Y1025623D01*
X2370025Y1025452D01*
X2369861Y1025196D01*
X2369811Y1024897D01*
X2369880Y1024602D01*
X2370033Y1024383D01*
X2370977Y1023439D01*
X2372648Y1019405D01*
X2372648Y1015040D01*
X2370977Y1011006D01*
X2367890Y1007919D01*
X2363857Y1006248D01*
X2359491Y1006248D01*
X2355458Y1007919D01*
X2352371Y1011006D01*
X2350700Y1015040D01*
X2350700Y1019405D01*
X2352371Y1023439D01*
X2353315Y1024383D01*
X2353482Y1024635D01*
X2353538Y1024934D01*
X2353473Y1025230D01*
X2353297Y1025477D01*
X2353039Y1025636D01*
X2352776Y1025683D01*
X2345172Y1025683D01*
X2344875Y1025623D01*
X2344625Y1025452D01*
X2344461Y1025196D01*
X2344411Y1024897D01*
X2344480Y1024602D01*
X2344633Y1024383D01*
X2345577Y1023439D01*
X2347248Y1019405D01*
X2347248Y1015040D01*
X2345577Y1011006D01*
X2342490Y1007919D01*
X2338457Y1006248D01*
X2334091Y1006248D01*
X2330058Y1007919D01*
X2326971Y1011006D01*
X2325300Y1015040D01*
X2325300Y1019405D01*
X2326971Y1023439D01*
X2327915Y1024383D01*
X2328082Y1024635D01*
X2328138Y1024934D01*
X2328073Y1025230D01*
X2327897Y1025477D01*
X2327639Y1025636D01*
X2327376Y1025683D01*
X2319772Y1025683D01*
X2319475Y1025623D01*
X2319225Y1025452D01*
X2319061Y1025196D01*
X2319011Y1024897D01*
X2319080Y1024602D01*
X2319233Y1024383D01*
X2320177Y1023439D01*
X2321848Y1019405D01*
X2321848Y1015040D01*
X2320177Y1011006D01*
X2317090Y1007919D01*
X2313057Y1006248D01*
X2308691Y1006248D01*
X2304658Y1007919D01*
X2301571Y1011006D01*
X2299900Y1015040D01*
X2299900Y1019405D01*
X2301571Y1023439D01*
X2302515Y1024383D01*
X2302682Y1024635D01*
X2302738Y1024934D01*
X2302673Y1025230D01*
X2302497Y1025477D01*
X2302239Y1025636D01*
X2301976Y1025683D01*
X2294372Y1025683D01*
X2294075Y1025623D01*
X2293825Y1025452D01*
X2293661Y1025196D01*
X2293611Y1024897D01*
X2293680Y1024602D01*
X2293833Y1024383D01*
X2294777Y1023439D01*
X2296448Y1019405D01*
X2296448Y1015040D01*
X2294777Y1011006D01*
X2291690Y1007919D01*
X2287657Y1006248D01*
X2283291Y1006248D01*
X2279722Y1007727D01*
X2279424Y1007785D01*
X2279127Y1007722D01*
X2278878Y1007549D01*
X2278717Y1007292D01*
X2278668Y1007023D01*
X2278668Y995045D01*
X2278728Y994748D01*
X2278900Y994498D01*
X2279155Y994334D01*
X2279454Y994284D01*
X2279749Y994353D01*
X2279969Y994506D01*
X2280366Y994904D01*
X2283373Y996149D01*
X2286627Y996149D01*
X2289634Y994904D01*
X2289998Y994540D01*
X2290251Y994372D01*
X2290537Y994317D01*
X2296138Y994317D01*
X2296435Y994377D01*
X2296685Y994549D01*
X2296849Y994804D01*
X2296900Y995079D01*
X2296900Y995405D01*
X2299595Y998100D01*
X2310405Y998100D01*
X2313100Y995405D01*
X2313100Y984595D01*
X2310405Y981900D01*
X2299595Y981900D01*
X2296900Y984595D01*
X2296900Y984921D01*
X2296840Y985219D01*
X2296668Y985469D01*
X2296413Y985632D01*
X2296138Y985683D01*
X2293416Y985683D01*
X2293119Y985623D01*
X2292869Y985452D01*
X2292712Y985213D01*
X2291935Y983336D01*
X2289634Y981035D01*
X2286627Y979789D01*
X2283373Y979789D01*
X2280366Y981035D01*
X2279969Y981432D01*
X2279716Y981600D01*
X2279418Y981655D01*
X2279122Y981590D01*
X2278874Y981415D01*
X2278715Y981157D01*
X2278668Y980893D01*
X2278668Y947752D01*
X2278728Y947455D01*
X2278891Y947214D01*
X2372702Y853403D01*
X2372954Y853236D01*
X2373240Y853180D01*
X2376627Y853180D01*
X2379634Y851935D01*
X2381961Y849607D01*
X2382214Y849440D01*
X2382512Y849384D01*
X2382808Y849449D01*
G37*
%LPC*%
G36*
X2376660Y1017984D02*
X2376660Y1019294D01*
X2378245Y1023121D01*
X2381175Y1026051D01*
X2385003Y1027636D01*
X2386312Y1027636D01*
X2386312Y1017984D01*
X2376660Y1017984D01*
G37*
G36*
X2385003Y1006808D02*
X2381175Y1008394D01*
X2378245Y1011323D01*
X2376660Y1015151D01*
X2376660Y1016460D01*
X2386312Y1016460D01*
X2386312Y1006808D01*
X2385003Y1006808D01*
G37*
G36*
X2358960Y990762D02*
X2358960Y996552D01*
X2360448Y998040D01*
X2365738Y998040D01*
X2365738Y990762D01*
X2358960Y990762D01*
G37*
%LPD*%
G36*
X903827Y420060D02*
X904069Y420223D01*
X1023945Y540099D01*
X1024112Y540352D01*
X1024168Y540650D01*
X1024103Y540946D01*
X1023927Y541194D01*
X1023669Y541353D01*
X1023406Y541400D01*
X1012216Y541400D01*
X1010316Y543300D01*
X1010168Y543516D01*
X1009913Y543679D01*
X1009614Y543730D01*
X1009319Y543660D01*
X1009099Y543507D01*
X1007552Y541960D01*
X1002262Y541960D01*
X1002262Y558040D01*
X1007552Y558040D01*
X1009099Y556493D01*
X1009352Y556325D01*
X1009650Y556270D01*
X1009946Y556335D01*
X1010194Y556510D01*
X1010303Y556687D01*
X1012216Y558600D01*
X1019921Y558600D01*
X1020219Y558660D01*
X1020469Y558832D01*
X1020632Y559087D01*
X1020683Y559362D01*
X1020683Y561138D01*
X1020623Y561435D01*
X1020452Y561685D01*
X1020196Y561849D01*
X1019921Y561900D01*
X1019595Y561900D01*
X1016900Y564595D01*
X1016900Y575405D01*
X1019595Y578100D01*
X1030405Y578100D01*
X1033100Y575405D01*
X1033100Y564595D01*
X1030405Y561900D01*
X1030079Y561900D01*
X1029781Y561840D01*
X1029531Y561668D01*
X1029368Y561413D01*
X1029317Y561138D01*
X1029317Y554712D01*
X1026823Y552219D01*
X1026656Y551966D01*
X1026600Y551680D01*
X1026600Y544594D01*
X1026660Y544297D01*
X1026832Y544047D01*
X1027087Y543884D01*
X1027386Y543833D01*
X1027681Y543903D01*
X1027901Y544056D01*
X1210460Y726615D01*
X1210628Y726868D01*
X1210683Y727154D01*
X1210683Y782433D01*
X1210623Y782730D01*
X1210460Y782972D01*
X1208065Y785366D01*
X1206820Y788373D01*
X1206820Y791627D01*
X1208064Y794630D01*
X1208122Y794927D01*
X1208059Y795224D01*
X1207886Y795473D01*
X1207629Y795634D01*
X1207360Y795683D01*
X1187640Y795683D01*
X1187343Y795623D01*
X1187093Y795452D01*
X1186929Y795196D01*
X1186879Y794897D01*
X1186936Y794630D01*
X1188180Y791627D01*
X1188180Y788373D01*
X1186935Y785366D01*
X1184540Y782972D01*
X1184372Y782719D01*
X1184317Y782433D01*
X1184317Y748212D01*
X1008323Y572219D01*
X1008156Y571966D01*
X1008100Y571680D01*
X1008100Y564595D01*
X1005405Y561900D01*
X994595Y561900D01*
X991900Y564595D01*
X991900Y575405D01*
X994595Y578100D01*
X1001680Y578100D01*
X1001977Y578160D01*
X1002219Y578323D01*
X1175460Y751565D01*
X1175628Y751818D01*
X1175683Y752104D01*
X1175683Y782433D01*
X1175623Y782730D01*
X1175460Y782972D01*
X1173039Y785393D01*
X1172786Y785560D01*
X1172488Y785616D01*
X1172192Y785551D01*
X1171961Y785393D01*
X1169540Y782972D01*
X1169372Y782719D01*
X1169317Y782433D01*
X1169317Y753212D01*
X1151788Y735683D01*
X972104Y735683D01*
X971806Y735623D01*
X971565Y735460D01*
X808323Y572219D01*
X808156Y571966D01*
X808100Y571680D01*
X808100Y564595D01*
X805405Y561900D01*
X794595Y561900D01*
X791900Y564595D01*
X791900Y575405D01*
X794595Y578100D01*
X801680Y578100D01*
X801977Y578160D01*
X802219Y578323D01*
X963278Y739383D01*
X963445Y739635D01*
X963501Y739934D01*
X963436Y740230D01*
X963260Y740477D01*
X963002Y740636D01*
X962739Y740683D01*
X777104Y740683D01*
X776806Y740623D01*
X776565Y740460D01*
X608323Y572219D01*
X608156Y571966D01*
X608100Y571680D01*
X608100Y564595D01*
X605405Y561900D01*
X594595Y561900D01*
X591900Y564595D01*
X591900Y575405D01*
X594595Y578100D01*
X601680Y578100D01*
X601977Y578160D01*
X602219Y578323D01*
X773278Y749383D01*
X773445Y749635D01*
X773501Y749934D01*
X773436Y750230D01*
X773260Y750477D01*
X773002Y750636D01*
X772739Y750683D01*
X587104Y750683D01*
X586806Y750623D01*
X586565Y750460D01*
X408323Y572219D01*
X408156Y571966D01*
X408100Y571680D01*
X408100Y564595D01*
X405405Y561900D01*
X394595Y561900D01*
X391900Y564595D01*
X391900Y575405D01*
X394595Y578100D01*
X401680Y578100D01*
X401977Y578160D01*
X402219Y578323D01*
X583212Y759317D01*
X588163Y759317D01*
X588460Y759377D01*
X588710Y759549D01*
X588874Y759804D01*
X588925Y760103D01*
X588855Y760398D01*
X588702Y760617D01*
X585600Y763719D01*
X583912Y767794D01*
X583912Y769238D01*
X606088Y769238D01*
X606088Y767794D01*
X604400Y763719D01*
X601298Y760617D01*
X601131Y760365D01*
X601075Y760067D01*
X601140Y759770D01*
X601316Y759523D01*
X601574Y759364D01*
X601837Y759317D01*
X737371Y759317D01*
X737668Y759377D01*
X737918Y759549D01*
X738082Y759804D01*
X738133Y760103D01*
X738063Y760398D01*
X737910Y760617D01*
X735125Y763402D01*
X733352Y767683D01*
X733352Y772317D01*
X735125Y776598D01*
X738402Y779875D01*
X740213Y780625D01*
X740464Y780794D01*
X740630Y781049D01*
X740683Y781329D01*
X740683Y794921D01*
X740623Y795219D01*
X740452Y795469D01*
X740196Y795632D01*
X739921Y795683D01*
X710913Y795683D01*
X710616Y795623D01*
X710374Y795460D01*
X710238Y795324D01*
X576744Y795324D01*
X576447Y795264D01*
X576205Y795101D01*
X556063Y774958D01*
X555896Y774706D01*
X555840Y774407D01*
X555898Y774128D01*
X556648Y772317D01*
X556648Y767683D01*
X554875Y763402D01*
X551598Y760125D01*
X547317Y758352D01*
X542683Y758352D01*
X538402Y760125D01*
X535125Y763402D01*
X534375Y765213D01*
X534206Y765464D01*
X533952Y765630D01*
X533671Y765683D01*
X474712Y765683D01*
X445617Y794778D01*
X445365Y794945D01*
X445067Y795001D01*
X444770Y794936D01*
X444523Y794760D01*
X444364Y794502D01*
X444317Y794239D01*
X444317Y764804D01*
X444377Y764506D01*
X444540Y764265D01*
X444781Y764024D01*
X445033Y763857D01*
X445319Y763801D01*
X454598Y763801D01*
X461101Y757298D01*
X461101Y748102D01*
X454598Y741599D01*
X445402Y741599D01*
X438841Y748160D01*
X438588Y748328D01*
X438302Y748383D01*
X395079Y748383D01*
X394782Y748323D01*
X394540Y748160D01*
X392882Y746502D01*
X375718Y746502D01*
X373902Y748318D01*
X373902Y751821D01*
X373842Y752119D01*
X373670Y752369D01*
X373415Y752532D01*
X373140Y752583D01*
X354004Y752583D01*
X353706Y752523D01*
X353465Y752360D01*
X349540Y748435D01*
X349372Y748182D01*
X349317Y747896D01*
X349317Y657104D01*
X349377Y656806D01*
X349540Y656565D01*
X369317Y636788D01*
X369317Y528212D01*
X351788Y510683D01*
X335079Y510683D01*
X334781Y510623D01*
X334531Y510452D01*
X334368Y510196D01*
X334317Y509921D01*
X334317Y509362D01*
X334377Y509065D01*
X334549Y508815D01*
X334607Y508778D01*
X336600Y506784D01*
X336600Y505079D01*
X336660Y504781D01*
X336832Y504531D01*
X337087Y504368D01*
X337362Y504317D01*
X491788Y504317D01*
X502099Y494006D01*
X502352Y493838D01*
X502650Y493782D01*
X502946Y493848D01*
X503194Y494023D01*
X503353Y494281D01*
X503400Y494544D01*
X503400Y501680D01*
X503340Y501977D01*
X503177Y502219D01*
X493077Y512318D01*
X493077Y515906D01*
X493222Y516124D01*
X493278Y516410D01*
X493278Y528403D01*
X493218Y528700D01*
X493046Y528950D01*
X492808Y529107D01*
X491034Y529841D01*
X487875Y533000D01*
X486166Y537127D01*
X486166Y557849D01*
X487875Y561976D01*
X491034Y565135D01*
X495161Y566844D01*
X499627Y566844D01*
X503754Y565135D01*
X506913Y561976D01*
X508622Y557849D01*
X508622Y537127D01*
X506913Y533000D01*
X503754Y529841D01*
X501980Y529107D01*
X501729Y528937D01*
X501563Y528683D01*
X501510Y528403D01*
X501510Y516410D01*
X501570Y516113D01*
X501733Y515872D01*
X508782Y508823D01*
X509034Y508656D01*
X509320Y508600D01*
X517784Y508600D01*
X519461Y506923D01*
X519714Y506755D01*
X520012Y506700D01*
X520308Y506765D01*
X520539Y506923D01*
X522216Y508600D01*
X534784Y508600D01*
X536600Y506784D01*
X536600Y498320D01*
X536660Y498023D01*
X536823Y497782D01*
X544317Y490288D01*
X544317Y490079D01*
X544377Y489781D01*
X544549Y489531D01*
X544804Y489368D01*
X545079Y489317D01*
X737739Y489317D01*
X738036Y489377D01*
X738286Y489549D01*
X738450Y489804D01*
X738501Y490103D01*
X738431Y490398D01*
X738278Y490617D01*
X736679Y492217D01*
X736426Y492384D01*
X736128Y492440D01*
X735831Y492375D01*
X735601Y492217D01*
X734784Y491400D01*
X722216Y491400D01*
X720539Y493077D01*
X720286Y493245D01*
X719988Y493300D01*
X719692Y493235D01*
X719461Y493077D01*
X717784Y491400D01*
X705216Y491400D01*
X703400Y493216D01*
X703400Y501680D01*
X703340Y501977D01*
X703177Y502219D01*
X693077Y512318D01*
X693077Y515906D01*
X693222Y516124D01*
X693278Y516410D01*
X693278Y528403D01*
X693218Y528700D01*
X693046Y528950D01*
X692808Y529107D01*
X691034Y529841D01*
X687875Y533000D01*
X686166Y537127D01*
X686166Y557849D01*
X687875Y561976D01*
X691034Y565135D01*
X695161Y566844D01*
X699627Y566844D01*
X703754Y565135D01*
X706913Y561976D01*
X708622Y557849D01*
X708622Y537127D01*
X706913Y533000D01*
X703754Y529841D01*
X701980Y529107D01*
X701729Y528937D01*
X701563Y528683D01*
X701510Y528403D01*
X701510Y516410D01*
X701570Y516113D01*
X701733Y515872D01*
X708782Y508823D01*
X709034Y508656D01*
X709320Y508600D01*
X717784Y508600D01*
X719461Y506923D01*
X719714Y506755D01*
X720012Y506700D01*
X720308Y506765D01*
X720539Y506923D01*
X722216Y508600D01*
X734784Y508600D01*
X736600Y506784D01*
X736600Y504820D01*
X736660Y504523D01*
X736823Y504282D01*
X751565Y489540D01*
X751818Y489372D01*
X752104Y489317D01*
X911396Y489317D01*
X911694Y489377D01*
X911935Y489540D01*
X912495Y490099D01*
X912662Y490352D01*
X912718Y490650D01*
X912653Y490946D01*
X912477Y491194D01*
X912219Y491353D01*
X911956Y491400D01*
X905216Y491400D01*
X903400Y493216D01*
X903400Y501680D01*
X903340Y501977D01*
X903177Y502219D01*
X893077Y512318D01*
X893077Y528486D01*
X893017Y528783D01*
X892846Y529033D01*
X892607Y529190D01*
X891034Y529841D01*
X890226Y530649D01*
X889973Y530817D01*
X889675Y530873D01*
X889379Y530807D01*
X889148Y530649D01*
X869182Y510683D01*
X783212Y510683D01*
X775683Y518212D01*
X775683Y576788D01*
X845460Y646565D01*
X845628Y646818D01*
X845683Y647104D01*
X845683Y722433D01*
X845623Y722730D01*
X845460Y722972D01*
X843065Y725366D01*
X841820Y728373D01*
X841820Y731627D01*
X843065Y734634D01*
X845366Y736935D01*
X848373Y738180D01*
X851627Y738180D01*
X854634Y736935D01*
X856935Y734634D01*
X858180Y731627D01*
X858180Y728373D01*
X856935Y725366D01*
X854540Y722972D01*
X854372Y722719D01*
X854317Y722433D01*
X854317Y643212D01*
X784540Y573435D01*
X784372Y573182D01*
X784317Y572896D01*
X784317Y522104D01*
X784377Y521806D01*
X784540Y521565D01*
X786565Y519540D01*
X786818Y519372D01*
X787104Y519317D01*
X865290Y519317D01*
X865588Y519377D01*
X865829Y519540D01*
X885943Y539654D01*
X886110Y539906D01*
X886166Y540192D01*
X886166Y557849D01*
X887875Y561976D01*
X891034Y565135D01*
X895161Y566844D01*
X899627Y566844D01*
X903754Y565135D01*
X906913Y561976D01*
X908622Y557849D01*
X908622Y537127D01*
X906913Y533000D01*
X903754Y529841D01*
X902181Y529190D01*
X901930Y529020D01*
X901764Y528766D01*
X901711Y528486D01*
X901711Y516210D01*
X901771Y515912D01*
X901934Y515671D01*
X908782Y508823D01*
X909034Y508656D01*
X909320Y508600D01*
X917784Y508600D01*
X919461Y506923D01*
X919714Y506755D01*
X920012Y506700D01*
X920308Y506765D01*
X920539Y506923D01*
X922216Y508600D01*
X934784Y508600D01*
X936600Y506784D01*
X936600Y493216D01*
X934784Y491400D01*
X926320Y491400D01*
X926023Y491340D01*
X925782Y491177D01*
X912319Y477714D01*
X789134Y477714D01*
X788837Y477654D01*
X788596Y477491D01*
X764540Y453435D01*
X764372Y453182D01*
X764317Y452896D01*
X764317Y420762D01*
X764377Y420465D01*
X764549Y420215D01*
X764804Y420051D01*
X765079Y420000D01*
X903530Y420000D01*
X903827Y420060D01*
G37*
%LPC*%
G36*
X567683Y758352D02*
X563402Y760125D01*
X560125Y763402D01*
X558352Y767683D01*
X558352Y772317D01*
X560125Y776598D01*
X563402Y779875D01*
X567683Y781648D01*
X572317Y781648D01*
X576598Y779875D01*
X579875Y776598D01*
X581648Y772317D01*
X581648Y767683D01*
X579875Y763402D01*
X576598Y760125D01*
X572317Y758352D01*
X567683Y758352D01*
G37*
G36*
X583912Y770762D02*
X583912Y772206D01*
X585600Y776281D01*
X588719Y779400D01*
X592794Y781088D01*
X594238Y781088D01*
X594238Y770762D01*
X583912Y770762D01*
G37*
G36*
X595762Y770762D02*
X595762Y781088D01*
X597206Y781088D01*
X601281Y779400D01*
X604400Y776281D01*
X606088Y772206D01*
X606088Y770762D01*
X595762Y770762D01*
G37*
G36*
X374462Y732262D02*
X374462Y733457D01*
X375960Y737073D01*
X378727Y739840D01*
X382343Y741338D01*
X383538Y741338D01*
X383538Y732262D01*
X374462Y732262D01*
G37*
G36*
X385062Y732262D02*
X385062Y741338D01*
X386257Y741338D01*
X389873Y739840D01*
X392640Y737073D01*
X394138Y733457D01*
X394138Y732262D01*
X385062Y732262D01*
G37*
G36*
X439459Y728062D02*
X439459Y731666D01*
X445634Y737841D01*
X449238Y737841D01*
X449238Y728062D01*
X439459Y728062D01*
G37*
G36*
X450762Y728062D02*
X450762Y737841D01*
X454366Y737841D01*
X460541Y731666D01*
X460541Y728062D01*
X450762Y728062D01*
G37*
G36*
X382343Y721662D02*
X378727Y723160D01*
X375960Y725927D01*
X374462Y729543D01*
X374462Y730738D01*
X383538Y730738D01*
X383538Y721662D01*
X382343Y721662D01*
G37*
G36*
X385062Y721662D02*
X385062Y730738D01*
X394138Y730738D01*
X394138Y729543D01*
X392640Y725927D01*
X389873Y723160D01*
X386257Y721662D01*
X385062Y721662D01*
G37*
G36*
X445634Y716759D02*
X439459Y722934D01*
X439459Y726538D01*
X449238Y726538D01*
X449238Y716759D01*
X445634Y716759D01*
G37*
G36*
X450762Y716759D02*
X450762Y726538D01*
X460541Y726538D01*
X460541Y722934D01*
X454366Y716759D01*
X450762Y716759D01*
G37*
G36*
X495161Y593156D02*
X491034Y594865D01*
X487875Y598024D01*
X486166Y602151D01*
X486166Y622873D01*
X487875Y627000D01*
X491034Y630159D01*
X495161Y631868D01*
X499627Y631868D01*
X503754Y630159D01*
X506913Y627000D01*
X508622Y622873D01*
X508622Y602151D01*
X506913Y598024D01*
X503754Y594865D01*
X499627Y593156D01*
X495161Y593156D01*
G37*
G36*
X895161Y593156D02*
X891034Y594865D01*
X887875Y598024D01*
X886166Y602151D01*
X886166Y622873D01*
X887875Y627000D01*
X891034Y630159D01*
X895161Y631868D01*
X899627Y631868D01*
X903754Y630159D01*
X906913Y627000D01*
X908622Y622873D01*
X908622Y602151D01*
X906913Y598024D01*
X903754Y594865D01*
X899627Y593156D01*
X895161Y593156D01*
G37*
G36*
X540373Y593156D02*
X536246Y594865D01*
X533087Y598024D01*
X531378Y602151D01*
X531378Y622873D01*
X533087Y627000D01*
X536246Y630159D01*
X540373Y631868D01*
X544839Y631868D01*
X548966Y630159D01*
X552125Y627000D01*
X553834Y622873D01*
X553834Y602151D01*
X552125Y598024D01*
X548966Y594865D01*
X544839Y593156D01*
X540373Y593156D01*
G37*
G36*
X940373Y593156D02*
X936246Y594865D01*
X933087Y598024D01*
X931378Y602151D01*
X931378Y622873D01*
X933087Y627000D01*
X936246Y630159D01*
X940373Y631868D01*
X944839Y631868D01*
X948966Y630159D01*
X952125Y627000D01*
X953834Y622873D01*
X953834Y602151D01*
X952125Y598024D01*
X948966Y594865D01*
X944839Y593156D01*
X940373Y593156D01*
G37*
G36*
X695161Y593156D02*
X691034Y594865D01*
X687875Y598024D01*
X686166Y602151D01*
X686166Y622873D01*
X687875Y627000D01*
X691034Y630159D01*
X695161Y631868D01*
X699627Y631868D01*
X703754Y630159D01*
X706913Y627000D01*
X708622Y622873D01*
X708622Y602151D01*
X706913Y598024D01*
X703754Y594865D01*
X699627Y593156D01*
X695161Y593156D01*
G37*
G36*
X740373Y593156D02*
X736246Y594865D01*
X733087Y598024D01*
X731378Y602151D01*
X731378Y622873D01*
X733087Y627000D01*
X736246Y630159D01*
X740373Y631868D01*
X744839Y631868D01*
X748966Y630159D01*
X752125Y627000D01*
X753834Y622873D01*
X753834Y602151D01*
X752125Y598024D01*
X748966Y594865D01*
X744839Y593156D01*
X740373Y593156D01*
G37*
G36*
X812216Y541400D02*
X810316Y543300D01*
X810168Y543516D01*
X809913Y543679D01*
X809614Y543730D01*
X809319Y543660D01*
X809099Y543507D01*
X807552Y541960D01*
X802262Y541960D01*
X802262Y558040D01*
X807552Y558040D01*
X809099Y556493D01*
X809352Y556325D01*
X809650Y556270D01*
X809946Y556335D01*
X810194Y556510D01*
X810303Y556687D01*
X812216Y558600D01*
X819921Y558600D01*
X820219Y558660D01*
X820469Y558832D01*
X820632Y559087D01*
X820683Y559362D01*
X820683Y561138D01*
X820623Y561435D01*
X820452Y561685D01*
X820196Y561849D01*
X819921Y561900D01*
X819595Y561900D01*
X816900Y564595D01*
X816900Y575405D01*
X819595Y578100D01*
X830405Y578100D01*
X833100Y575405D01*
X833100Y564595D01*
X830405Y561900D01*
X830079Y561900D01*
X829781Y561840D01*
X829531Y561668D01*
X829368Y561413D01*
X829317Y561138D01*
X829317Y554712D01*
X826823Y552219D01*
X826656Y551966D01*
X826600Y551680D01*
X826600Y543216D01*
X824784Y541400D01*
X812216Y541400D01*
G37*
G36*
X412216Y541400D02*
X410316Y543300D01*
X410168Y543516D01*
X409913Y543679D01*
X409614Y543730D01*
X409319Y543660D01*
X409099Y543507D01*
X407552Y541960D01*
X402262Y541960D01*
X402262Y558040D01*
X407552Y558040D01*
X409099Y556493D01*
X409352Y556325D01*
X409650Y556270D01*
X409946Y556335D01*
X410194Y556510D01*
X410303Y556687D01*
X412216Y558600D01*
X419921Y558600D01*
X420219Y558660D01*
X420469Y558832D01*
X420632Y559087D01*
X420683Y559362D01*
X420683Y561138D01*
X420623Y561435D01*
X420452Y561685D01*
X420196Y561849D01*
X419921Y561900D01*
X419595Y561900D01*
X416900Y564595D01*
X416900Y575405D01*
X419595Y578100D01*
X430405Y578100D01*
X433100Y575405D01*
X433100Y564595D01*
X430405Y561900D01*
X430079Y561900D01*
X429781Y561840D01*
X429531Y561668D01*
X429368Y561413D01*
X429317Y561138D01*
X429317Y554712D01*
X426823Y552219D01*
X426656Y551966D01*
X426600Y551680D01*
X426600Y543216D01*
X424784Y541400D01*
X412216Y541400D01*
G37*
G36*
X612216Y541400D02*
X610316Y543300D01*
X610168Y543516D01*
X609913Y543679D01*
X609614Y543730D01*
X609319Y543660D01*
X609099Y543507D01*
X607552Y541960D01*
X602262Y541960D01*
X602262Y558040D01*
X607552Y558040D01*
X609099Y556493D01*
X609352Y556325D01*
X609650Y556270D01*
X609946Y556335D01*
X610194Y556510D01*
X610303Y556687D01*
X612216Y558600D01*
X619921Y558600D01*
X620219Y558660D01*
X620469Y558832D01*
X620632Y559087D01*
X620683Y559362D01*
X620683Y561138D01*
X620623Y561435D01*
X620452Y561685D01*
X620196Y561849D01*
X619921Y561900D01*
X619595Y561900D01*
X616900Y564595D01*
X616900Y575405D01*
X619595Y578100D01*
X630405Y578100D01*
X633100Y575405D01*
X633100Y564595D01*
X630405Y561900D01*
X630079Y561900D01*
X629781Y561840D01*
X629531Y561668D01*
X629368Y561413D01*
X629317Y561138D01*
X629317Y554712D01*
X626823Y552219D01*
X626656Y551966D01*
X626600Y551680D01*
X626600Y543216D01*
X624784Y541400D01*
X612216Y541400D01*
G37*
G36*
X931938Y548250D02*
X931938Y557738D01*
X933562Y561659D01*
X936563Y564660D01*
X940484Y566284D01*
X941844Y566284D01*
X941844Y548250D01*
X931938Y548250D01*
G37*
G36*
X731938Y548250D02*
X731938Y557738D01*
X733562Y561659D01*
X736563Y564660D01*
X740484Y566284D01*
X741844Y566284D01*
X741844Y548250D01*
X731938Y548250D01*
G37*
G36*
X943368Y548250D02*
X943368Y566284D01*
X944728Y566284D01*
X948649Y564660D01*
X951650Y561659D01*
X953274Y557738D01*
X953274Y548250D01*
X943368Y548250D01*
G37*
G36*
X543368Y548250D02*
X543368Y566284D01*
X544728Y566284D01*
X548649Y564660D01*
X551650Y561659D01*
X553274Y557738D01*
X553274Y548250D01*
X543368Y548250D01*
G37*
G36*
X531938Y548250D02*
X531938Y557738D01*
X533562Y561659D01*
X536563Y564660D01*
X540484Y566284D01*
X541844Y566284D01*
X541844Y548250D01*
X531938Y548250D01*
G37*
G36*
X743368Y548250D02*
X743368Y566284D01*
X744728Y566284D01*
X748649Y564660D01*
X751650Y561659D01*
X753274Y557738D01*
X753274Y548250D01*
X743368Y548250D01*
G37*
G36*
X993960Y550762D02*
X993960Y556552D01*
X995448Y558040D01*
X1000738Y558040D01*
X1000738Y550762D01*
X993960Y550762D01*
G37*
G36*
X593960Y550762D02*
X593960Y556552D01*
X595448Y558040D01*
X600738Y558040D01*
X600738Y550762D01*
X593960Y550762D01*
G37*
G36*
X393960Y550762D02*
X393960Y556552D01*
X395448Y558040D01*
X400738Y558040D01*
X400738Y550762D01*
X393960Y550762D01*
G37*
G36*
X793960Y550762D02*
X793960Y556552D01*
X795448Y558040D01*
X800738Y558040D01*
X800738Y550762D01*
X793960Y550762D01*
G37*
G36*
X395448Y541960D02*
X393960Y543448D01*
X393960Y549238D01*
X400738Y549238D01*
X400738Y541960D01*
X395448Y541960D01*
G37*
G36*
X595448Y541960D02*
X593960Y543448D01*
X593960Y549238D01*
X600738Y549238D01*
X600738Y541960D01*
X595448Y541960D01*
G37*
G36*
X795448Y541960D02*
X793960Y543448D01*
X793960Y549238D01*
X800738Y549238D01*
X800738Y541960D01*
X795448Y541960D01*
G37*
G36*
X995448Y541960D02*
X993960Y543448D01*
X993960Y549238D01*
X1000738Y549238D01*
X1000738Y541960D01*
X995448Y541960D01*
G37*
G36*
X943368Y528692D02*
X943368Y546726D01*
X953274Y546726D01*
X953274Y537238D01*
X951650Y533317D01*
X948649Y530316D01*
X944728Y528692D01*
X943368Y528692D01*
G37*
G36*
X940484Y528692D02*
X936563Y530316D01*
X933562Y533317D01*
X931938Y537238D01*
X931938Y546726D01*
X941844Y546726D01*
X941844Y528692D01*
X940484Y528692D01*
G37*
G36*
X743368Y528692D02*
X743368Y546726D01*
X753274Y546726D01*
X753274Y537238D01*
X751650Y533317D01*
X748649Y530316D01*
X744728Y528692D01*
X743368Y528692D01*
G37*
G36*
X740484Y528692D02*
X736563Y530316D01*
X733562Y533317D01*
X731938Y537238D01*
X731938Y546726D01*
X741844Y546726D01*
X741844Y528692D01*
X740484Y528692D01*
G37*
G36*
X543368Y528692D02*
X543368Y546726D01*
X553274Y546726D01*
X553274Y537238D01*
X551650Y533317D01*
X548649Y530316D01*
X544728Y528692D01*
X543368Y528692D01*
G37*
G36*
X540484Y528692D02*
X536563Y530316D01*
X533562Y533317D01*
X531938Y537238D01*
X531938Y546726D01*
X541844Y546726D01*
X541844Y528692D01*
X540484Y528692D01*
G37*
%LPD*%
G36*
X2238194Y679377D02*
X2238435Y679540D01*
X2335460Y776565D01*
X2335628Y776818D01*
X2335683Y777104D01*
X2335683Y782433D01*
X2335623Y782730D01*
X2335460Y782972D01*
X2333065Y785366D01*
X2331820Y788373D01*
X2331820Y791627D01*
X2333064Y794630D01*
X2333122Y794927D01*
X2333059Y795224D01*
X2332886Y795473D01*
X2332629Y795634D01*
X2332360Y795683D01*
X2182104Y795683D01*
X2181806Y795623D01*
X2181565Y795460D01*
X2174540Y788435D01*
X2174372Y788182D01*
X2174317Y787896D01*
X2174317Y781329D01*
X2174377Y781032D01*
X2174549Y780782D01*
X2174787Y780625D01*
X2176598Y779875D01*
X2179875Y776598D01*
X2181648Y772317D01*
X2181648Y767683D01*
X2179875Y763402D01*
X2177090Y760617D01*
X2176923Y760365D01*
X2176867Y760067D01*
X2176932Y759770D01*
X2177108Y759523D01*
X2177366Y759364D01*
X2177629Y759317D01*
X2177896Y759317D01*
X2178194Y759377D01*
X2178435Y759540D01*
X2183937Y765042D01*
X2184104Y765295D01*
X2184160Y765593D01*
X2184102Y765872D01*
X2183352Y767683D01*
X2183352Y772317D01*
X2185125Y776598D01*
X2188402Y779875D01*
X2192683Y781648D01*
X2197317Y781648D01*
X2201598Y779875D01*
X2204875Y776598D01*
X2206648Y772317D01*
X2206648Y767683D01*
X2204875Y763402D01*
X2201598Y760125D01*
X2197317Y758352D01*
X2192683Y758352D01*
X2190872Y759102D01*
X2190574Y759160D01*
X2190278Y759097D01*
X2190042Y758937D01*
X2181788Y750683D01*
X2150243Y750683D01*
X2139329Y761597D01*
X2139076Y761764D01*
X2138790Y761820D01*
X2135404Y761820D01*
X2132397Y763065D01*
X2130617Y764845D01*
X2130365Y765012D01*
X2130067Y765068D01*
X2129770Y765003D01*
X2129523Y764828D01*
X2129364Y764569D01*
X2129317Y764306D01*
X2129317Y718942D01*
X2129377Y718645D01*
X2129549Y718395D01*
X2129804Y718231D01*
X2130079Y718180D01*
X2131627Y718180D01*
X2134634Y716935D01*
X2136935Y714634D01*
X2138180Y711627D01*
X2138180Y708373D01*
X2136935Y705366D01*
X2134634Y703065D01*
X2131627Y701820D01*
X2128373Y701820D01*
X2125366Y703065D01*
X2123065Y705366D01*
X2121820Y708373D01*
X2121820Y711760D01*
X2121760Y712057D01*
X2121597Y712299D01*
X2120617Y713278D01*
X2120365Y713445D01*
X2120067Y713501D01*
X2119770Y713436D01*
X2119523Y713260D01*
X2119364Y713002D01*
X2119317Y712739D01*
X2119317Y703212D01*
X2096722Y680617D01*
X2096555Y680365D01*
X2096499Y680067D01*
X2096564Y679770D01*
X2096740Y679523D01*
X2096998Y679364D01*
X2097261Y679317D01*
X2237896Y679317D01*
X2238194Y679377D01*
G37*
%LPC*%
G36*
X2220762Y770762D02*
X2220762Y781088D01*
X2222206Y781088D01*
X2226281Y779400D01*
X2229400Y776281D01*
X2231088Y772206D01*
X2231088Y770762D01*
X2220762Y770762D01*
G37*
G36*
X2208912Y770762D02*
X2208912Y772206D01*
X2210600Y776281D01*
X2213719Y779400D01*
X2217794Y781088D01*
X2219238Y781088D01*
X2219238Y770762D01*
X2208912Y770762D01*
G37*
G36*
X2220762Y758912D02*
X2220762Y769238D01*
X2231088Y769238D01*
X2231088Y767794D01*
X2229400Y763719D01*
X2226281Y760600D01*
X2222206Y758912D01*
X2220762Y758912D01*
G37*
G36*
X2217794Y758912D02*
X2213719Y760600D01*
X2210600Y763719D01*
X2208912Y767794D01*
X2208912Y769238D01*
X2219238Y769238D01*
X2219238Y758912D01*
X2217794Y758912D01*
G37*
%LPD*%
G36*
X762668Y759377D02*
X762918Y759549D01*
X763082Y759804D01*
X763133Y760103D01*
X763063Y760398D01*
X762910Y760617D01*
X760125Y763402D01*
X758352Y767683D01*
X758352Y772317D01*
X760125Y776598D01*
X763402Y779875D01*
X767683Y781648D01*
X772317Y781648D01*
X776598Y779875D01*
X779875Y776598D01*
X781648Y772317D01*
X781648Y767683D01*
X779875Y763402D01*
X777090Y760617D01*
X776923Y760365D01*
X776867Y760067D01*
X776932Y759770D01*
X777108Y759523D01*
X777366Y759364D01*
X777629Y759317D01*
X788163Y759317D01*
X788460Y759377D01*
X788710Y759549D01*
X788874Y759804D01*
X788925Y760103D01*
X788855Y760398D01*
X788702Y760617D01*
X785600Y763719D01*
X783912Y767794D01*
X783912Y769238D01*
X806088Y769238D01*
X806088Y767794D01*
X804400Y763719D01*
X801298Y760617D01*
X801131Y760365D01*
X801075Y760067D01*
X801140Y759770D01*
X801316Y759523D01*
X801574Y759364D01*
X801837Y759317D01*
X937371Y759317D01*
X937668Y759377D01*
X937918Y759549D01*
X938082Y759804D01*
X938133Y760103D01*
X938063Y760398D01*
X937910Y760617D01*
X935125Y763402D01*
X933352Y767683D01*
X933352Y772317D01*
X935125Y776598D01*
X938402Y779875D01*
X940213Y780625D01*
X940464Y780794D01*
X940630Y781049D01*
X940683Y781329D01*
X940683Y786788D01*
X948278Y794383D01*
X948445Y794635D01*
X948501Y794934D01*
X948436Y795230D01*
X948260Y795477D01*
X948002Y795636D01*
X947739Y795683D01*
X752104Y795683D01*
X751806Y795623D01*
X751565Y795460D01*
X749540Y793435D01*
X749372Y793182D01*
X749317Y792896D01*
X749317Y781329D01*
X749377Y781032D01*
X749549Y780782D01*
X749787Y780625D01*
X751598Y779875D01*
X754875Y776598D01*
X756648Y772317D01*
X756648Y767683D01*
X754875Y763402D01*
X752090Y760617D01*
X751923Y760365D01*
X751867Y760067D01*
X751932Y759770D01*
X752108Y759523D01*
X752366Y759364D01*
X752629Y759317D01*
X762371Y759317D01*
X762668Y759377D01*
G37*
%LPC*%
G36*
X795762Y770762D02*
X795762Y781088D01*
X797206Y781088D01*
X801281Y779400D01*
X804400Y776281D01*
X806088Y772206D01*
X806088Y770762D01*
X795762Y770762D01*
G37*
G36*
X783912Y770762D02*
X783912Y772206D01*
X785600Y776281D01*
X788719Y779400D01*
X792794Y781088D01*
X794238Y781088D01*
X794238Y770762D01*
X783912Y770762D01*
G37*
%LPD*%
G36*
X1143194Y749377D02*
X1143435Y749540D01*
X1150460Y756565D01*
X1150628Y756818D01*
X1150683Y757104D01*
X1150683Y781058D01*
X1150623Y781355D01*
X1150452Y781605D01*
X1150196Y781769D01*
X1149921Y781820D01*
X1148373Y781820D01*
X1145366Y783065D01*
X1143065Y785366D01*
X1141820Y788373D01*
X1141820Y791627D01*
X1143064Y794630D01*
X1143122Y794927D01*
X1143059Y795224D01*
X1142886Y795473D01*
X1142629Y795634D01*
X1142360Y795683D01*
X962104Y795683D01*
X961806Y795623D01*
X961565Y795460D01*
X949540Y783435D01*
X949372Y783182D01*
X949317Y782896D01*
X949317Y781329D01*
X949377Y781032D01*
X949549Y780782D01*
X949787Y780625D01*
X951598Y779875D01*
X954875Y776598D01*
X956648Y772317D01*
X956648Y767683D01*
X954875Y763402D01*
X952090Y760617D01*
X951923Y760365D01*
X951867Y760067D01*
X951932Y759770D01*
X952108Y759523D01*
X952366Y759364D01*
X952629Y759317D01*
X962371Y759317D01*
X962668Y759377D01*
X962918Y759549D01*
X963082Y759804D01*
X963133Y760103D01*
X963063Y760398D01*
X962910Y760617D01*
X960125Y763402D01*
X958352Y767683D01*
X958352Y772317D01*
X960125Y776598D01*
X963402Y779875D01*
X967683Y781648D01*
X972317Y781648D01*
X976598Y779875D01*
X979875Y776598D01*
X981648Y772317D01*
X981648Y767683D01*
X979875Y763402D01*
X977090Y760617D01*
X976923Y760365D01*
X976867Y760067D01*
X976932Y759770D01*
X977108Y759523D01*
X977366Y759364D01*
X977629Y759317D01*
X988163Y759317D01*
X988460Y759377D01*
X988710Y759549D01*
X988874Y759804D01*
X988925Y760103D01*
X988855Y760398D01*
X988702Y760617D01*
X985600Y763719D01*
X983912Y767794D01*
X983912Y769238D01*
X1006088Y769238D01*
X1006088Y767794D01*
X1004400Y763719D01*
X1001298Y760617D01*
X1001131Y760365D01*
X1001075Y760067D01*
X1001140Y759770D01*
X1001316Y759523D01*
X1001574Y759364D01*
X1001837Y759317D01*
X1122433Y759317D01*
X1122730Y759377D01*
X1122972Y759540D01*
X1125366Y761935D01*
X1128373Y763180D01*
X1131627Y763180D01*
X1134634Y761935D01*
X1136935Y759634D01*
X1138180Y756627D01*
X1138180Y753373D01*
X1136936Y750370D01*
X1136878Y750073D01*
X1136941Y749776D01*
X1137114Y749527D01*
X1137371Y749366D01*
X1137640Y749317D01*
X1142896Y749317D01*
X1143194Y749377D01*
G37*
%LPC*%
G36*
X995762Y770762D02*
X995762Y781088D01*
X997206Y781088D01*
X1001281Y779400D01*
X1004400Y776281D01*
X1006088Y772206D01*
X1006088Y770762D01*
X995762Y770762D01*
G37*
G36*
X983912Y770762D02*
X983912Y772206D01*
X985600Y776281D01*
X988719Y779400D01*
X992794Y781088D01*
X994238Y781088D01*
X994238Y770762D01*
X983912Y770762D01*
G37*
%LPD*%
G36*
X1184216Y420060D02*
X1184458Y420223D01*
X1223551Y459317D01*
X1274921Y459317D01*
X1275219Y459377D01*
X1275469Y459549D01*
X1275632Y459804D01*
X1275683Y460079D01*
X1275683Y488288D01*
X1277495Y490099D01*
X1277662Y490352D01*
X1277718Y490650D01*
X1277653Y490946D01*
X1277477Y491194D01*
X1277219Y491353D01*
X1276956Y491400D01*
X1270216Y491400D01*
X1268400Y493216D01*
X1268400Y506784D01*
X1270216Y508600D01*
X1271421Y508600D01*
X1271719Y508660D01*
X1271969Y508832D01*
X1272132Y509087D01*
X1272183Y509362D01*
X1272183Y531431D01*
X1272123Y531728D01*
X1271952Y531978D01*
X1271696Y532142D01*
X1271397Y532193D01*
X1271102Y532123D01*
X1270883Y531970D01*
X1268754Y529841D01*
X1264627Y528132D01*
X1260161Y528132D01*
X1256034Y529841D01*
X1252875Y533000D01*
X1251166Y537127D01*
X1251166Y557849D01*
X1252875Y561976D01*
X1256034Y565135D01*
X1260161Y566844D01*
X1264627Y566844D01*
X1268754Y565135D01*
X1270948Y562941D01*
X1271201Y562773D01*
X1271499Y562718D01*
X1271795Y562783D01*
X1272026Y562941D01*
X1285366Y576281D01*
X1285534Y576534D01*
X1285582Y576780D01*
X1288118Y579317D01*
X1347896Y579317D01*
X1348194Y579377D01*
X1348435Y579540D01*
X1378212Y609317D01*
X1547896Y609317D01*
X1548194Y609377D01*
X1548435Y609540D01*
X1648212Y709317D01*
X1927433Y709317D01*
X1927730Y709377D01*
X1927972Y709540D01*
X1930366Y711935D01*
X1933373Y713180D01*
X1936627Y713180D01*
X1939634Y711935D01*
X1941935Y709634D01*
X1943180Y706627D01*
X1943180Y703373D01*
X1941936Y700370D01*
X1941878Y700073D01*
X1941941Y699776D01*
X1942114Y699527D01*
X1942371Y699366D01*
X1942640Y699317D01*
X1952360Y699317D01*
X1952657Y699377D01*
X1952907Y699549D01*
X1953071Y699804D01*
X1953121Y700103D01*
X1953064Y700370D01*
X1951820Y703373D01*
X1951820Y706760D01*
X1951760Y707057D01*
X1951597Y707299D01*
X1890683Y768212D01*
X1890683Y777433D01*
X1890623Y777730D01*
X1890460Y777972D01*
X1888039Y780393D01*
X1887786Y780560D01*
X1887488Y780616D01*
X1887192Y780551D01*
X1886961Y780393D01*
X1884634Y778065D01*
X1881627Y776820D01*
X1878240Y776820D01*
X1877943Y776760D01*
X1877702Y776597D01*
X1866788Y765683D01*
X1823552Y765683D01*
X1823255Y765623D01*
X1823013Y765460D01*
X1816337Y758784D01*
X1816169Y758531D01*
X1816133Y758345D01*
X1806674Y748887D01*
X1788326Y748887D01*
X1774881Y762331D01*
X1774628Y762498D01*
X1774330Y762554D01*
X1774034Y762489D01*
X1773804Y762331D01*
X1771598Y760125D01*
X1767317Y758352D01*
X1762683Y758352D01*
X1758402Y760125D01*
X1755125Y763402D01*
X1753352Y767683D01*
X1753352Y772317D01*
X1755125Y776598D01*
X1758402Y779875D01*
X1762683Y781648D01*
X1767317Y781648D01*
X1771598Y779875D01*
X1774875Y776598D01*
X1776267Y773237D01*
X1776432Y772989D01*
X1777611Y771810D01*
X1777864Y771643D01*
X1778162Y771587D01*
X1778458Y771652D01*
X1778706Y771828D01*
X1778853Y772066D01*
X1778854Y772066D01*
X1778857Y772073D01*
X1778865Y772086D01*
X1778867Y772097D01*
X1780600Y776281D01*
X1783719Y779400D01*
X1787794Y781088D01*
X1789238Y781088D01*
X1789238Y769238D01*
X1801088Y769238D01*
X1801088Y767794D01*
X1799400Y763719D01*
X1796281Y760600D01*
X1792384Y758986D01*
X1792133Y758816D01*
X1791967Y758562D01*
X1791914Y758264D01*
X1791981Y757968D01*
X1792159Y757722D01*
X1792418Y757565D01*
X1792676Y757520D01*
X1802783Y757520D01*
X1803080Y757580D01*
X1803322Y757743D01*
X1807257Y761678D01*
X1807424Y761931D01*
X1807460Y762117D01*
X1819660Y774317D01*
X1862896Y774317D01*
X1863194Y774377D01*
X1863435Y774540D01*
X1871597Y782702D01*
X1871764Y782954D01*
X1871820Y783240D01*
X1871820Y786627D01*
X1873065Y789634D01*
X1875366Y791935D01*
X1878373Y793180D01*
X1881627Y793180D01*
X1884634Y791935D01*
X1886961Y789607D01*
X1887214Y789440D01*
X1887512Y789384D01*
X1887808Y789449D01*
X1888039Y789607D01*
X1890366Y791935D01*
X1893373Y793180D01*
X1896627Y793180D01*
X1899634Y791935D01*
X1901961Y789607D01*
X1902214Y789440D01*
X1902512Y789384D01*
X1902808Y789449D01*
X1903039Y789607D01*
X1905366Y791935D01*
X1908373Y793180D01*
X1911627Y793180D01*
X1914634Y791935D01*
X1916935Y789634D01*
X1918180Y786627D01*
X1918180Y783942D01*
X1918240Y783645D01*
X1918412Y783395D01*
X1918667Y783231D01*
X1918942Y783180D01*
X1919027Y783180D01*
X1919325Y783240D01*
X1919575Y783412D01*
X1919738Y783667D01*
X1919789Y783942D01*
X1919789Y786627D01*
X1921035Y789634D01*
X1923336Y791935D01*
X1926342Y793180D01*
X1929596Y793180D01*
X1932603Y791935D01*
X1934998Y789540D01*
X1935251Y789372D01*
X1935537Y789317D01*
X2061058Y789317D01*
X2061355Y789377D01*
X2061605Y789549D01*
X2061769Y789804D01*
X2061820Y790079D01*
X2061820Y791627D01*
X2063064Y794630D01*
X2063122Y794927D01*
X2063059Y795224D01*
X2062886Y795473D01*
X2062629Y795634D01*
X2062360Y795683D01*
X1752104Y795683D01*
X1751806Y795623D01*
X1751565Y795460D01*
X1744540Y788435D01*
X1744372Y788182D01*
X1744317Y787896D01*
X1744317Y781329D01*
X1744377Y781032D01*
X1744549Y780782D01*
X1744787Y780625D01*
X1746598Y779875D01*
X1749875Y776598D01*
X1751648Y772317D01*
X1751648Y767683D01*
X1749875Y763402D01*
X1746598Y760125D01*
X1742317Y758352D01*
X1737683Y758352D01*
X1733402Y760125D01*
X1730125Y763402D01*
X1728352Y767683D01*
X1728352Y772317D01*
X1730125Y776598D01*
X1733402Y779875D01*
X1735213Y780625D01*
X1735464Y780794D01*
X1735630Y781049D01*
X1735683Y781329D01*
X1735683Y791788D01*
X1738278Y794383D01*
X1738445Y794635D01*
X1738501Y794934D01*
X1738436Y795230D01*
X1738260Y795477D01*
X1738002Y795636D01*
X1737739Y795683D01*
X1322104Y795683D01*
X1321806Y795623D01*
X1321565Y795460D01*
X1314540Y788435D01*
X1314372Y788182D01*
X1314317Y787896D01*
X1314317Y781329D01*
X1314377Y781032D01*
X1314549Y780782D01*
X1314787Y780625D01*
X1316598Y779875D01*
X1319875Y776598D01*
X1321648Y772317D01*
X1321648Y767683D01*
X1319875Y763402D01*
X1316598Y760125D01*
X1312317Y758352D01*
X1307683Y758352D01*
X1303402Y760125D01*
X1300125Y763402D01*
X1298352Y767683D01*
X1298352Y772317D01*
X1300125Y776598D01*
X1303402Y779875D01*
X1305213Y780625D01*
X1305464Y780794D01*
X1305630Y781049D01*
X1305683Y781329D01*
X1305683Y791788D01*
X1308278Y794383D01*
X1308445Y794635D01*
X1308501Y794934D01*
X1308436Y795230D01*
X1308260Y795477D01*
X1308002Y795636D01*
X1307739Y795683D01*
X1237640Y795683D01*
X1237343Y795623D01*
X1237093Y795452D01*
X1236929Y795196D01*
X1236879Y794897D01*
X1236936Y794630D01*
X1238180Y791627D01*
X1238180Y788373D01*
X1236935Y785366D01*
X1234540Y782972D01*
X1234372Y782719D01*
X1234317Y782433D01*
X1234317Y598262D01*
X1057356Y421301D01*
X1057188Y421048D01*
X1057132Y420750D01*
X1057198Y420454D01*
X1057373Y420206D01*
X1057631Y420047D01*
X1057894Y420000D01*
X1183919Y420000D01*
X1184216Y420060D01*
G37*
%LPC*%
G36*
X1332683Y758352D02*
X1328402Y760125D01*
X1325125Y763402D01*
X1323352Y767683D01*
X1323352Y772317D01*
X1325125Y776598D01*
X1328402Y779875D01*
X1332683Y781648D01*
X1337317Y781648D01*
X1341598Y779875D01*
X1344875Y776598D01*
X1346648Y772317D01*
X1346648Y767683D01*
X1344875Y763402D01*
X1341598Y760125D01*
X1337317Y758352D01*
X1332683Y758352D01*
G37*
G36*
X1348912Y770762D02*
X1348912Y772206D01*
X1350600Y776281D01*
X1353719Y779400D01*
X1357794Y781088D01*
X1359238Y781088D01*
X1359238Y770762D01*
X1348912Y770762D01*
G37*
G36*
X1360762Y770762D02*
X1360762Y781088D01*
X1362206Y781088D01*
X1366281Y779400D01*
X1369400Y776281D01*
X1371088Y772206D01*
X1371088Y770762D01*
X1360762Y770762D01*
G37*
G36*
X1790762Y770762D02*
X1790762Y781088D01*
X1792206Y781088D01*
X1796281Y779400D01*
X1799400Y776281D01*
X1801088Y772206D01*
X1801088Y770762D01*
X1790762Y770762D01*
G37*
G36*
X1360762Y758912D02*
X1360762Y769238D01*
X1371088Y769238D01*
X1371088Y767794D01*
X1369400Y763719D01*
X1366281Y760600D01*
X1362206Y758912D01*
X1360762Y758912D01*
G37*
G36*
X1357794Y758912D02*
X1353719Y760600D01*
X1350600Y763719D01*
X1348912Y767794D01*
X1348912Y769238D01*
X1359238Y769238D01*
X1359238Y758912D01*
X1357794Y758912D01*
G37*
G36*
X1260161Y593156D02*
X1256034Y594865D01*
X1252875Y598024D01*
X1251166Y602151D01*
X1251166Y622873D01*
X1252875Y627000D01*
X1256034Y630159D01*
X1260161Y631868D01*
X1264627Y631868D01*
X1268754Y630159D01*
X1271913Y627000D01*
X1273622Y622873D01*
X1273622Y602151D01*
X1271913Y598024D01*
X1268754Y594865D01*
X1264627Y593156D01*
X1260161Y593156D01*
G37*
G36*
X1305373Y593156D02*
X1301246Y594865D01*
X1298087Y598024D01*
X1296378Y602151D01*
X1296378Y622873D01*
X1298087Y627000D01*
X1301246Y630159D01*
X1305373Y631868D01*
X1309839Y631868D01*
X1313966Y630159D01*
X1317125Y627000D01*
X1318834Y622873D01*
X1318834Y602151D01*
X1317125Y598024D01*
X1313966Y594865D01*
X1309839Y593156D01*
X1305373Y593156D01*
G37*
G36*
X1247216Y461400D02*
X1245316Y463300D01*
X1245168Y463516D01*
X1244913Y463679D01*
X1244614Y463730D01*
X1244319Y463660D01*
X1244099Y463507D01*
X1242552Y461960D01*
X1237262Y461960D01*
X1237262Y478040D01*
X1242552Y478040D01*
X1244099Y476493D01*
X1244352Y476325D01*
X1244650Y476270D01*
X1244946Y476335D01*
X1245194Y476510D01*
X1245303Y476687D01*
X1247216Y478600D01*
X1248421Y478600D01*
X1248719Y478660D01*
X1248969Y478832D01*
X1249132Y479087D01*
X1249183Y479362D01*
X1249183Y481058D01*
X1249123Y481355D01*
X1248952Y481605D01*
X1248696Y481769D01*
X1248421Y481820D01*
X1248373Y481820D01*
X1245366Y483065D01*
X1243065Y485366D01*
X1241820Y488373D01*
X1241820Y491627D01*
X1243065Y494634D01*
X1245366Y496935D01*
X1248373Y498180D01*
X1251627Y498180D01*
X1254634Y496935D01*
X1256935Y494634D01*
X1258180Y491627D01*
X1258180Y488373D01*
X1257875Y487636D01*
X1257817Y487344D01*
X1257817Y479362D01*
X1257877Y479065D01*
X1258049Y478815D01*
X1258304Y478651D01*
X1258579Y478600D01*
X1259784Y478600D01*
X1261600Y476784D01*
X1261600Y463216D01*
X1259784Y461400D01*
X1247216Y461400D01*
G37*
G36*
X1228960Y470762D02*
X1228960Y476552D01*
X1230448Y478040D01*
X1235738Y478040D01*
X1235738Y470762D01*
X1228960Y470762D01*
G37*
G36*
X1230448Y461960D02*
X1228960Y463448D01*
X1228960Y469238D01*
X1235738Y469238D01*
X1235738Y461960D01*
X1230448Y461960D01*
G37*
%LPD*%
G36*
X1043827Y420060D02*
X1044069Y420223D01*
X1225460Y601615D01*
X1225628Y601868D01*
X1225683Y602154D01*
X1225683Y782433D01*
X1225623Y782730D01*
X1225460Y782972D01*
X1223039Y785393D01*
X1222786Y785560D01*
X1222488Y785616D01*
X1222192Y785551D01*
X1221961Y785393D01*
X1219540Y782972D01*
X1219372Y782719D01*
X1219317Y782433D01*
X1219317Y723262D01*
X917356Y421301D01*
X917188Y421048D01*
X917132Y420750D01*
X917198Y420454D01*
X917373Y420206D01*
X917631Y420047D01*
X917894Y420000D01*
X1043530Y420000D01*
X1043827Y420060D01*
G37*
G36*
X1640982Y454377D02*
X1641104Y454459D01*
X1651291Y454459D01*
X1651588Y454520D01*
X1651838Y454691D01*
X1652002Y454947D01*
X1652053Y455246D01*
X1651995Y455513D01*
X1651830Y455912D01*
X1651830Y459298D01*
X1651770Y459596D01*
X1651607Y459837D01*
X1650267Y461177D01*
X1650014Y461344D01*
X1649728Y461400D01*
X1647216Y461400D01*
X1645316Y463300D01*
X1645168Y463516D01*
X1644913Y463679D01*
X1644614Y463730D01*
X1644319Y463660D01*
X1644099Y463507D01*
X1642552Y461960D01*
X1637262Y461960D01*
X1637262Y478040D01*
X1642552Y478040D01*
X1644099Y476493D01*
X1644352Y476325D01*
X1644650Y476270D01*
X1644946Y476335D01*
X1645194Y476510D01*
X1645303Y476687D01*
X1647216Y478600D01*
X1659784Y478600D01*
X1661600Y476784D01*
X1661600Y466243D01*
X1661660Y465946D01*
X1661832Y465696D01*
X1662070Y465539D01*
X1664644Y464473D01*
X1666945Y462172D01*
X1668190Y459166D01*
X1668190Y455912D01*
X1667966Y455370D01*
X1667908Y455073D01*
X1667970Y454776D01*
X1668144Y454527D01*
X1668401Y454366D01*
X1668670Y454317D01*
X1704921Y454317D01*
X1705219Y454377D01*
X1705469Y454549D01*
X1705632Y454804D01*
X1705683Y455079D01*
X1705683Y488288D01*
X1707495Y490099D01*
X1707662Y490352D01*
X1707718Y490650D01*
X1707653Y490946D01*
X1707477Y491194D01*
X1707219Y491353D01*
X1706956Y491400D01*
X1700216Y491400D01*
X1698400Y493216D01*
X1698400Y506784D01*
X1700216Y508600D01*
X1701421Y508600D01*
X1701719Y508660D01*
X1701969Y508832D01*
X1702132Y509087D01*
X1702183Y509362D01*
X1702183Y531431D01*
X1702123Y531728D01*
X1701952Y531978D01*
X1701696Y532142D01*
X1701397Y532193D01*
X1701102Y532123D01*
X1700883Y531970D01*
X1698754Y529841D01*
X1694627Y528132D01*
X1690161Y528132D01*
X1686034Y529841D01*
X1682875Y533000D01*
X1681166Y537127D01*
X1681166Y557849D01*
X1682875Y561976D01*
X1686034Y565135D01*
X1690161Y566844D01*
X1694627Y566844D01*
X1698754Y565135D01*
X1700948Y562941D01*
X1701201Y562773D01*
X1701499Y562718D01*
X1701795Y562783D01*
X1702026Y562941D01*
X1725366Y586281D01*
X1725534Y586534D01*
X1725582Y586780D01*
X1728118Y589317D01*
X1792896Y589317D01*
X1793194Y589377D01*
X1793435Y589540D01*
X1851597Y647702D01*
X1851764Y647954D01*
X1851820Y648240D01*
X1851820Y651627D01*
X1853065Y654634D01*
X1853349Y654917D01*
X1853516Y655170D01*
X1853572Y655468D01*
X1853507Y655764D01*
X1853332Y656012D01*
X1853073Y656171D01*
X1852810Y656218D01*
X1687638Y656218D01*
X1687341Y656158D01*
X1687100Y655995D01*
X1554540Y523435D01*
X1554372Y523182D01*
X1554317Y522896D01*
X1554317Y479362D01*
X1554377Y479065D01*
X1554549Y478815D01*
X1554804Y478651D01*
X1555079Y478600D01*
X1559784Y478600D01*
X1561600Y476784D01*
X1561600Y463216D01*
X1559784Y461400D01*
X1547216Y461400D01*
X1545316Y463300D01*
X1545168Y463516D01*
X1544913Y463679D01*
X1544614Y463730D01*
X1544319Y463660D01*
X1544099Y463507D01*
X1542552Y461960D01*
X1537262Y461960D01*
X1537262Y478040D01*
X1542552Y478040D01*
X1544099Y476493D01*
X1544352Y476325D01*
X1544650Y476270D01*
X1544946Y476335D01*
X1545194Y476510D01*
X1545303Y476687D01*
X1545460Y476844D01*
X1545628Y477097D01*
X1545683Y477383D01*
X1545683Y512739D01*
X1545623Y513036D01*
X1545452Y513286D01*
X1545196Y513450D01*
X1544897Y513501D01*
X1544602Y513431D01*
X1544383Y513278D01*
X1528403Y497299D01*
X1528236Y497046D01*
X1528180Y496760D01*
X1528180Y493373D01*
X1526935Y490366D01*
X1524634Y488065D01*
X1521627Y486820D01*
X1518373Y486820D01*
X1515366Y488065D01*
X1513039Y490393D01*
X1512786Y490560D01*
X1512488Y490616D01*
X1512192Y490551D01*
X1511961Y490393D01*
X1509634Y488065D01*
X1506627Y486820D01*
X1503240Y486820D01*
X1502943Y486760D01*
X1502702Y486597D01*
X1496788Y480683D01*
X1458579Y480683D01*
X1458281Y480623D01*
X1458031Y480452D01*
X1457868Y480196D01*
X1457817Y479921D01*
X1457817Y479362D01*
X1457877Y479065D01*
X1458049Y478815D01*
X1458304Y478651D01*
X1458579Y478600D01*
X1459784Y478600D01*
X1461600Y476784D01*
X1461600Y463216D01*
X1459784Y461400D01*
X1447216Y461400D01*
X1445316Y463300D01*
X1445168Y463516D01*
X1444913Y463679D01*
X1444614Y463730D01*
X1444319Y463660D01*
X1444099Y463507D01*
X1442552Y461960D01*
X1437262Y461960D01*
X1437262Y478040D01*
X1442552Y478040D01*
X1444099Y476493D01*
X1444352Y476325D01*
X1444650Y476270D01*
X1444946Y476335D01*
X1445194Y476510D01*
X1445303Y476687D01*
X1447216Y478600D01*
X1448421Y478600D01*
X1448719Y478660D01*
X1448969Y478832D01*
X1449132Y479087D01*
X1449183Y479362D01*
X1449183Y485288D01*
X1453212Y489317D01*
X1482360Y489317D01*
X1482657Y489377D01*
X1482907Y489549D01*
X1483071Y489804D01*
X1483121Y490103D01*
X1483064Y490370D01*
X1481820Y493373D01*
X1481820Y496058D01*
X1481760Y496355D01*
X1481588Y496605D01*
X1481333Y496769D01*
X1481058Y496820D01*
X1478373Y496820D01*
X1475366Y498065D01*
X1473065Y500366D01*
X1471820Y503373D01*
X1471820Y506627D01*
X1473065Y509634D01*
X1475366Y511935D01*
X1478373Y513180D01*
X1481760Y513180D01*
X1482057Y513240D01*
X1482299Y513403D01*
X1658278Y689383D01*
X1658445Y689635D01*
X1658501Y689934D01*
X1658436Y690230D01*
X1658260Y690477D01*
X1658002Y690636D01*
X1657739Y690683D01*
X1657104Y690683D01*
X1656806Y690623D01*
X1656565Y690460D01*
X1556788Y590683D01*
X1392104Y590683D01*
X1391806Y590623D01*
X1391565Y590460D01*
X1373323Y572219D01*
X1373156Y571966D01*
X1373100Y571680D01*
X1373100Y564595D01*
X1370405Y561900D01*
X1359595Y561900D01*
X1356900Y564595D01*
X1356900Y573956D01*
X1356840Y574253D01*
X1356668Y574503D01*
X1356413Y574666D01*
X1356114Y574717D01*
X1355819Y574648D01*
X1355599Y574495D01*
X1351788Y570683D01*
X1291726Y570683D01*
X1291429Y570623D01*
X1291187Y570460D01*
X1273845Y553118D01*
X1273678Y552865D01*
X1273622Y552579D01*
X1273622Y542397D01*
X1273682Y542099D01*
X1273845Y541858D01*
X1277781Y537922D01*
X1278034Y537754D01*
X1278280Y537706D01*
X1280817Y535170D01*
X1280817Y509362D01*
X1280877Y509065D01*
X1281049Y508815D01*
X1281304Y508651D01*
X1281579Y508600D01*
X1282784Y508600D01*
X1284461Y506923D01*
X1284714Y506755D01*
X1285012Y506700D01*
X1285308Y506765D01*
X1285539Y506923D01*
X1287216Y508600D01*
X1299784Y508600D01*
X1301600Y506784D01*
X1301600Y493216D01*
X1299784Y491400D01*
X1291320Y491400D01*
X1291023Y491340D01*
X1290782Y491177D01*
X1284540Y484935D01*
X1284372Y484682D01*
X1284317Y484396D01*
X1284317Y457261D01*
X1284377Y456964D01*
X1284549Y456714D01*
X1284804Y456550D01*
X1285103Y456499D01*
X1285398Y456569D01*
X1285617Y456722D01*
X1288212Y459317D01*
X1591788Y459317D01*
X1594317Y456788D01*
X1594317Y455079D01*
X1594377Y454781D01*
X1594549Y454531D01*
X1594804Y454368D01*
X1595079Y454317D01*
X1640685Y454317D01*
X1640982Y454377D01*
G37*
%LPC*%
G36*
X1690161Y593156D02*
X1686034Y594865D01*
X1682875Y598024D01*
X1681166Y602151D01*
X1681166Y622873D01*
X1682875Y627000D01*
X1686034Y630159D01*
X1690161Y631868D01*
X1694627Y631868D01*
X1698754Y630159D01*
X1701913Y627000D01*
X1703622Y622873D01*
X1703622Y602151D01*
X1701913Y598024D01*
X1698754Y594865D01*
X1694627Y593156D01*
X1690161Y593156D01*
G37*
G36*
X1735373Y593156D02*
X1731246Y594865D01*
X1728087Y598024D01*
X1726378Y602151D01*
X1726378Y622873D01*
X1728087Y627000D01*
X1731246Y630159D01*
X1735373Y631868D01*
X1739839Y631868D01*
X1743966Y630159D01*
X1747125Y627000D01*
X1748834Y622873D01*
X1748834Y602151D01*
X1747125Y598024D01*
X1743966Y594865D01*
X1739839Y593156D01*
X1735373Y593156D01*
G37*
G36*
X1377216Y541400D02*
X1375316Y543300D01*
X1375168Y543516D01*
X1374913Y543679D01*
X1374614Y543730D01*
X1374319Y543660D01*
X1374099Y543507D01*
X1372552Y541960D01*
X1367262Y541960D01*
X1367262Y558040D01*
X1372552Y558040D01*
X1374099Y556493D01*
X1374352Y556325D01*
X1374650Y556270D01*
X1374946Y556335D01*
X1375194Y556510D01*
X1375303Y556687D01*
X1377216Y558600D01*
X1384921Y558600D01*
X1385219Y558660D01*
X1385469Y558832D01*
X1385632Y559087D01*
X1385683Y559362D01*
X1385683Y561138D01*
X1385623Y561435D01*
X1385452Y561685D01*
X1385196Y561849D01*
X1384921Y561900D01*
X1384595Y561900D01*
X1381900Y564595D01*
X1381900Y575405D01*
X1384595Y578100D01*
X1395405Y578100D01*
X1398100Y575405D01*
X1398100Y564595D01*
X1395405Y561900D01*
X1395079Y561900D01*
X1394781Y561840D01*
X1394531Y561668D01*
X1394368Y561413D01*
X1394317Y561138D01*
X1394317Y554712D01*
X1391823Y552219D01*
X1391656Y551966D01*
X1391600Y551680D01*
X1391600Y543216D01*
X1389784Y541400D01*
X1377216Y541400D01*
G37*
G36*
X1296938Y548250D02*
X1296938Y557738D01*
X1298562Y561659D01*
X1301563Y564660D01*
X1305484Y566284D01*
X1306844Y566284D01*
X1306844Y548250D01*
X1296938Y548250D01*
G37*
G36*
X1308368Y548250D02*
X1308368Y566284D01*
X1309728Y566284D01*
X1313649Y564660D01*
X1316650Y561659D01*
X1318274Y557738D01*
X1318274Y548250D01*
X1308368Y548250D01*
G37*
G36*
X1358960Y550762D02*
X1358960Y556552D01*
X1360448Y558040D01*
X1365738Y558040D01*
X1365738Y550762D01*
X1358960Y550762D01*
G37*
G36*
X1360448Y541960D02*
X1358960Y543448D01*
X1358960Y549238D01*
X1365738Y549238D01*
X1365738Y541960D01*
X1360448Y541960D01*
G37*
G36*
X1305484Y528692D02*
X1301563Y530316D01*
X1298562Y533317D01*
X1296938Y537238D01*
X1296938Y546726D01*
X1306844Y546726D01*
X1306844Y528692D01*
X1305484Y528692D01*
G37*
G36*
X1308368Y528692D02*
X1308368Y546726D01*
X1318274Y546726D01*
X1318274Y537238D01*
X1316650Y533317D01*
X1313649Y530316D01*
X1309728Y528692D01*
X1308368Y528692D01*
G37*
G36*
X1347216Y461400D02*
X1345316Y463300D01*
X1345168Y463516D01*
X1344913Y463679D01*
X1344614Y463730D01*
X1344319Y463660D01*
X1344099Y463507D01*
X1342552Y461960D01*
X1337262Y461960D01*
X1337262Y478040D01*
X1342552Y478040D01*
X1344099Y476493D01*
X1344352Y476325D01*
X1344650Y476270D01*
X1344946Y476335D01*
X1345194Y476510D01*
X1345303Y476687D01*
X1347216Y478600D01*
X1359784Y478600D01*
X1361600Y476784D01*
X1361600Y475079D01*
X1361660Y474781D01*
X1361832Y474531D01*
X1362087Y474368D01*
X1362362Y474317D01*
X1377433Y474317D01*
X1377730Y474377D01*
X1377972Y474540D01*
X1380366Y476935D01*
X1383373Y478180D01*
X1386627Y478180D01*
X1389634Y476935D01*
X1391935Y474634D01*
X1393180Y471627D01*
X1393180Y468373D01*
X1391935Y465366D01*
X1389634Y463065D01*
X1386627Y461820D01*
X1383373Y461820D01*
X1380366Y463065D01*
X1377972Y465460D01*
X1377719Y465628D01*
X1377433Y465683D01*
X1362362Y465683D01*
X1362065Y465623D01*
X1361815Y465452D01*
X1361651Y465196D01*
X1361600Y464921D01*
X1361600Y463216D01*
X1359784Y461400D01*
X1347216Y461400D01*
G37*
G36*
X1328960Y470762D02*
X1328960Y476552D01*
X1330448Y478040D01*
X1335738Y478040D01*
X1335738Y470762D01*
X1328960Y470762D01*
G37*
G36*
X1528960Y470762D02*
X1528960Y476552D01*
X1530448Y478040D01*
X1535738Y478040D01*
X1535738Y470762D01*
X1528960Y470762D01*
G37*
G36*
X1628960Y470762D02*
X1628960Y476552D01*
X1630448Y478040D01*
X1635738Y478040D01*
X1635738Y470762D01*
X1628960Y470762D01*
G37*
G36*
X1428960Y470762D02*
X1428960Y476552D01*
X1430448Y478040D01*
X1435738Y478040D01*
X1435738Y470762D01*
X1428960Y470762D01*
G37*
G36*
X1330448Y461960D02*
X1328960Y463448D01*
X1328960Y469238D01*
X1335738Y469238D01*
X1335738Y461960D01*
X1330448Y461960D01*
G37*
G36*
X1430448Y461960D02*
X1428960Y463448D01*
X1428960Y469238D01*
X1435738Y469238D01*
X1435738Y461960D01*
X1430448Y461960D01*
G37*
G36*
X1630448Y461960D02*
X1628960Y463448D01*
X1628960Y469238D01*
X1635738Y469238D01*
X1635738Y461960D01*
X1630448Y461960D01*
G37*
G36*
X1530448Y461960D02*
X1528960Y463448D01*
X1528960Y469238D01*
X1535738Y469238D01*
X1535738Y461960D01*
X1530448Y461960D01*
G37*
%LPD*%
G36*
X2175219Y454377D02*
X2175469Y454549D01*
X2175632Y454804D01*
X2175683Y455079D01*
X2175683Y471396D01*
X2175623Y471694D01*
X2175460Y471935D01*
X2156219Y491177D01*
X2155966Y491344D01*
X2155680Y491400D01*
X2147216Y491400D01*
X2145539Y493077D01*
X2145286Y493245D01*
X2144988Y493300D01*
X2144692Y493235D01*
X2144461Y493077D01*
X2142784Y491400D01*
X2130216Y491400D01*
X2128400Y493216D01*
X2128400Y506784D01*
X2130216Y508600D01*
X2131421Y508600D01*
X2131719Y508660D01*
X2131969Y508832D01*
X2132132Y509087D01*
X2132183Y509362D01*
X2132183Y531431D01*
X2132123Y531728D01*
X2131952Y531978D01*
X2131696Y532142D01*
X2131397Y532193D01*
X2131102Y532123D01*
X2130883Y531970D01*
X2128754Y529841D01*
X2124627Y528132D01*
X2120161Y528132D01*
X2116034Y529841D01*
X2112875Y533000D01*
X2111166Y537127D01*
X2111166Y552579D01*
X2111106Y552877D01*
X2110943Y553118D01*
X2078719Y585342D01*
X2078466Y585510D01*
X2078220Y585558D01*
X2075683Y588094D01*
X2075683Y642433D01*
X2075623Y642730D01*
X2075460Y642972D01*
X2073065Y645366D01*
X2071820Y648373D01*
X2071820Y651627D01*
X2073065Y654634D01*
X2073349Y654917D01*
X2073516Y655170D01*
X2073572Y655468D01*
X2073507Y655764D01*
X2073332Y656012D01*
X2073073Y656171D01*
X2072810Y656218D01*
X1982190Y656218D01*
X1981893Y656158D01*
X1981643Y655986D01*
X1981479Y655731D01*
X1981428Y655432D01*
X1981498Y655137D01*
X1981651Y654917D01*
X1981935Y654634D01*
X1983180Y651627D01*
X1983180Y648373D01*
X1981935Y645366D01*
X1979540Y642972D01*
X1979372Y642719D01*
X1979317Y642433D01*
X1979317Y622104D01*
X1979377Y621806D01*
X1979540Y621565D01*
X2082702Y518403D01*
X2082954Y518236D01*
X2083240Y518180D01*
X2086627Y518180D01*
X2089634Y516935D01*
X2091935Y514634D01*
X2093180Y511627D01*
X2093180Y508373D01*
X2091935Y505366D01*
X2089634Y503065D01*
X2086627Y501820D01*
X2083373Y501820D01*
X2080366Y503065D01*
X2078065Y505366D01*
X2076820Y508373D01*
X2076820Y511760D01*
X2076760Y512057D01*
X2076597Y512299D01*
X1970683Y618212D01*
X1970683Y642433D01*
X1970623Y642730D01*
X1970460Y642972D01*
X1968039Y645393D01*
X1967786Y645560D01*
X1967488Y645616D01*
X1967192Y645551D01*
X1966961Y645393D01*
X1964540Y642972D01*
X1964372Y642719D01*
X1964317Y642433D01*
X1964317Y617104D01*
X1964377Y616806D01*
X1964540Y616565D01*
X2099461Y481644D01*
X2099714Y481476D01*
X2100012Y481420D01*
X2100308Y481486D01*
X2100539Y481644D01*
X2108212Y489317D01*
X2111788Y489317D01*
X2119851Y481253D01*
X2119851Y470254D01*
X2119912Y469957D01*
X2120075Y469715D01*
X2123999Y465791D01*
X2124251Y465624D01*
X2124537Y465568D01*
X2128198Y465568D01*
X2128495Y465628D01*
X2128745Y465800D01*
X2128909Y466055D01*
X2128960Y466330D01*
X2128960Y469238D01*
X2137262Y469238D01*
X2137262Y478040D01*
X2142552Y478040D01*
X2144099Y476493D01*
X2144352Y476325D01*
X2144650Y476270D01*
X2144946Y476335D01*
X2145194Y476510D01*
X2145303Y476687D01*
X2147216Y478600D01*
X2159784Y478600D01*
X2161600Y476784D01*
X2161600Y463216D01*
X2159660Y461276D01*
X2159492Y461023D01*
X2159437Y460725D01*
X2159502Y460429D01*
X2159677Y460181D01*
X2159935Y460022D01*
X2160199Y459975D01*
X2163422Y459975D01*
X2166429Y458730D01*
X2168730Y456429D01*
X2169410Y454787D01*
X2169579Y454536D01*
X2169833Y454370D01*
X2170114Y454317D01*
X2174921Y454317D01*
X2175219Y454377D01*
G37*
%LPC*%
G36*
X2128960Y470762D02*
X2128960Y476552D01*
X2130448Y478040D01*
X2135738Y478040D01*
X2135738Y470762D01*
X2128960Y470762D01*
G37*
%LPD*%
G36*
X2136059Y449454D02*
X2136301Y449617D01*
X2141143Y454459D01*
X2151186Y454459D01*
X2151484Y454520D01*
X2151734Y454691D01*
X2151897Y454947D01*
X2151948Y455246D01*
X2151878Y455541D01*
X2151725Y455760D01*
X2149183Y458302D01*
X2149183Y459645D01*
X2149123Y459942D01*
X2148952Y460192D01*
X2148696Y460356D01*
X2148397Y460406D01*
X2148102Y460337D01*
X2147883Y460184D01*
X2144634Y456935D01*
X2123093Y456935D01*
X2122796Y456874D01*
X2122546Y456703D01*
X2122389Y456464D01*
X2121935Y455366D01*
X2119634Y453065D01*
X2116627Y451820D01*
X2113373Y451820D01*
X2110366Y453065D01*
X2108065Y455366D01*
X2106820Y458373D01*
X2106820Y461760D01*
X2106760Y462057D01*
X2106597Y462299D01*
X1955683Y613212D01*
X1955683Y642433D01*
X1955623Y642730D01*
X1955460Y642972D01*
X1953039Y645393D01*
X1952786Y645560D01*
X1952488Y645616D01*
X1952192Y645551D01*
X1951961Y645393D01*
X1949634Y643065D01*
X1946627Y641820D01*
X1943373Y641820D01*
X1940366Y643065D01*
X1937972Y645460D01*
X1937719Y645628D01*
X1937433Y645683D01*
X1877104Y645683D01*
X1876806Y645623D01*
X1876565Y645460D01*
X1803323Y572219D01*
X1803156Y571966D01*
X1803100Y571680D01*
X1803100Y564595D01*
X1800405Y561900D01*
X1789595Y561900D01*
X1786900Y564595D01*
X1786900Y575405D01*
X1789595Y578100D01*
X1796680Y578100D01*
X1796977Y578160D01*
X1797219Y578323D01*
X1859415Y640519D01*
X1859582Y640772D01*
X1859638Y641070D01*
X1859573Y641366D01*
X1859397Y641614D01*
X1859139Y641773D01*
X1858876Y641820D01*
X1858240Y641820D01*
X1857943Y641760D01*
X1857702Y641597D01*
X1796788Y580683D01*
X1731726Y580683D01*
X1731429Y580623D01*
X1731187Y580460D01*
X1703845Y553118D01*
X1703678Y552865D01*
X1703622Y552579D01*
X1703622Y542397D01*
X1703682Y542099D01*
X1703845Y541858D01*
X1707781Y537922D01*
X1708034Y537754D01*
X1708280Y537706D01*
X1710817Y535170D01*
X1710817Y509362D01*
X1710877Y509065D01*
X1711049Y508815D01*
X1711304Y508651D01*
X1711579Y508600D01*
X1712784Y508600D01*
X1714461Y506923D01*
X1714714Y506755D01*
X1715012Y506700D01*
X1715308Y506765D01*
X1715539Y506923D01*
X1717216Y508600D01*
X1729784Y508600D01*
X1731600Y506784D01*
X1731600Y493216D01*
X1729784Y491400D01*
X1721320Y491400D01*
X1721023Y491340D01*
X1720782Y491177D01*
X1714540Y484935D01*
X1714372Y484682D01*
X1714317Y484396D01*
X1714317Y455079D01*
X1714377Y454781D01*
X1714549Y454531D01*
X1714804Y454368D01*
X1715079Y454317D01*
X1740685Y454317D01*
X1740982Y454377D01*
X1741104Y454459D01*
X1751291Y454459D01*
X1751588Y454520D01*
X1751838Y454691D01*
X1752002Y454947D01*
X1752053Y455246D01*
X1751995Y455513D01*
X1751830Y455912D01*
X1751830Y459298D01*
X1751770Y459596D01*
X1751607Y459837D01*
X1750267Y461177D01*
X1750014Y461344D01*
X1749728Y461400D01*
X1747216Y461400D01*
X1745316Y463300D01*
X1745168Y463516D01*
X1744913Y463679D01*
X1744614Y463730D01*
X1744319Y463660D01*
X1744099Y463507D01*
X1742552Y461960D01*
X1737262Y461960D01*
X1737262Y478040D01*
X1742552Y478040D01*
X1744099Y476493D01*
X1744352Y476325D01*
X1744650Y476270D01*
X1744946Y476335D01*
X1745194Y476510D01*
X1745303Y476687D01*
X1747216Y478600D01*
X1759784Y478600D01*
X1761600Y476784D01*
X1761600Y466243D01*
X1761660Y465946D01*
X1761832Y465696D01*
X1762070Y465539D01*
X1764644Y464473D01*
X1766945Y462172D01*
X1768190Y459166D01*
X1768190Y455912D01*
X1767966Y455370D01*
X1767908Y455073D01*
X1767970Y454776D01*
X1768144Y454527D01*
X1768401Y454366D01*
X1768670Y454317D01*
X1840685Y454317D01*
X1840982Y454377D01*
X1841104Y454459D01*
X1851291Y454459D01*
X1851588Y454520D01*
X1851838Y454691D01*
X1852002Y454947D01*
X1852053Y455246D01*
X1851995Y455513D01*
X1851830Y455912D01*
X1851830Y459298D01*
X1851770Y459596D01*
X1851607Y459837D01*
X1850267Y461177D01*
X1850014Y461344D01*
X1849728Y461400D01*
X1847216Y461400D01*
X1845316Y463300D01*
X1845168Y463516D01*
X1844913Y463679D01*
X1844614Y463730D01*
X1844319Y463660D01*
X1844099Y463507D01*
X1842552Y461960D01*
X1837262Y461960D01*
X1837262Y478040D01*
X1842552Y478040D01*
X1844099Y476493D01*
X1844352Y476325D01*
X1844650Y476270D01*
X1844946Y476335D01*
X1845194Y476510D01*
X1845303Y476687D01*
X1847216Y478600D01*
X1859784Y478600D01*
X1861600Y476784D01*
X1861600Y466243D01*
X1861660Y465946D01*
X1861832Y465696D01*
X1862070Y465539D01*
X1864644Y464473D01*
X1866945Y462172D01*
X1868190Y459166D01*
X1868190Y455912D01*
X1867966Y455370D01*
X1867908Y455073D01*
X1867970Y454776D01*
X1868144Y454527D01*
X1868401Y454366D01*
X1868670Y454317D01*
X1940685Y454317D01*
X1940982Y454377D01*
X1941104Y454459D01*
X1951291Y454459D01*
X1951588Y454520D01*
X1951838Y454691D01*
X1952002Y454947D01*
X1952053Y455246D01*
X1951995Y455513D01*
X1951830Y455912D01*
X1951830Y459298D01*
X1951770Y459596D01*
X1951607Y459837D01*
X1950267Y461177D01*
X1950014Y461344D01*
X1949728Y461400D01*
X1947216Y461400D01*
X1945316Y463300D01*
X1945168Y463516D01*
X1944913Y463679D01*
X1944614Y463730D01*
X1944319Y463660D01*
X1944099Y463507D01*
X1942552Y461960D01*
X1937262Y461960D01*
X1937262Y478040D01*
X1942552Y478040D01*
X1944099Y476493D01*
X1944352Y476325D01*
X1944650Y476270D01*
X1944946Y476335D01*
X1945194Y476510D01*
X1945303Y476687D01*
X1947216Y478600D01*
X1959784Y478600D01*
X1961600Y476784D01*
X1961600Y466243D01*
X1961660Y465946D01*
X1961832Y465696D01*
X1962070Y465539D01*
X1964644Y464473D01*
X1966945Y462172D01*
X1968190Y459166D01*
X1968190Y455912D01*
X1967966Y455370D01*
X1967908Y455073D01*
X1967970Y454776D01*
X1968144Y454527D01*
X1968401Y454366D01*
X1968670Y454317D01*
X2040685Y454317D01*
X2040982Y454377D01*
X2041104Y454459D01*
X2053335Y454459D01*
X2053632Y454520D01*
X2053882Y454691D01*
X2054045Y454947D01*
X2054096Y455246D01*
X2054026Y455541D01*
X2053873Y455760D01*
X2049183Y460450D01*
X2049183Y460638D01*
X2049123Y460935D01*
X2048952Y461185D01*
X2048696Y461349D01*
X2048421Y461400D01*
X2047216Y461400D01*
X2045316Y463300D01*
X2045168Y463516D01*
X2044913Y463679D01*
X2044614Y463730D01*
X2044319Y463660D01*
X2044099Y463507D01*
X2042552Y461960D01*
X2037262Y461960D01*
X2037262Y478040D01*
X2042552Y478040D01*
X2044099Y476493D01*
X2044352Y476325D01*
X2044650Y476270D01*
X2044946Y476335D01*
X2045194Y476510D01*
X2045303Y476687D01*
X2047216Y478600D01*
X2059784Y478600D01*
X2061600Y476784D01*
X2061600Y463216D01*
X2060734Y462350D01*
X2060567Y462097D01*
X2060511Y461799D01*
X2060576Y461503D01*
X2060751Y461255D01*
X2061010Y461096D01*
X2061273Y461049D01*
X2064496Y461049D01*
X2067503Y459804D01*
X2069804Y457503D01*
X2071049Y454496D01*
X2071049Y451242D01*
X2070969Y451048D01*
X2070911Y450750D01*
X2070973Y450453D01*
X2071147Y450204D01*
X2071404Y450043D01*
X2071673Y449994D01*
X2074768Y449994D01*
X2076078Y449452D01*
X2076370Y449394D01*
X2135762Y449394D01*
X2136059Y449454D01*
G37*
%LPC*%
G36*
X1807216Y541400D02*
X1805316Y543300D01*
X1805168Y543516D01*
X1804913Y543679D01*
X1804614Y543730D01*
X1804319Y543660D01*
X1804099Y543507D01*
X1802552Y541960D01*
X1797262Y541960D01*
X1797262Y558040D01*
X1802552Y558040D01*
X1804099Y556493D01*
X1804352Y556325D01*
X1804650Y556270D01*
X1804946Y556335D01*
X1805194Y556510D01*
X1805303Y556687D01*
X1807216Y558600D01*
X1814921Y558600D01*
X1815219Y558660D01*
X1815469Y558832D01*
X1815632Y559087D01*
X1815683Y559362D01*
X1815683Y561138D01*
X1815623Y561435D01*
X1815452Y561685D01*
X1815196Y561849D01*
X1814921Y561900D01*
X1814595Y561900D01*
X1811900Y564595D01*
X1811900Y575405D01*
X1814595Y578100D01*
X1825405Y578100D01*
X1828100Y575405D01*
X1828100Y564595D01*
X1825405Y561900D01*
X1825079Y561900D01*
X1824781Y561840D01*
X1824531Y561668D01*
X1824368Y561413D01*
X1824317Y561138D01*
X1824317Y554712D01*
X1821823Y552219D01*
X1821656Y551966D01*
X1821600Y551680D01*
X1821600Y543216D01*
X1819784Y541400D01*
X1807216Y541400D01*
G37*
G36*
X1738368Y548250D02*
X1738368Y566284D01*
X1739728Y566284D01*
X1743649Y564660D01*
X1746650Y561659D01*
X1748274Y557738D01*
X1748274Y548250D01*
X1738368Y548250D01*
G37*
G36*
X1726938Y548250D02*
X1726938Y557738D01*
X1728562Y561659D01*
X1731563Y564660D01*
X1735484Y566284D01*
X1736844Y566284D01*
X1736844Y548250D01*
X1726938Y548250D01*
G37*
G36*
X1788960Y550762D02*
X1788960Y556552D01*
X1790448Y558040D01*
X1795738Y558040D01*
X1795738Y550762D01*
X1788960Y550762D01*
G37*
G36*
X1790448Y541960D02*
X1788960Y543448D01*
X1788960Y549238D01*
X1795738Y549238D01*
X1795738Y541960D01*
X1790448Y541960D01*
G37*
G36*
X1735484Y528692D02*
X1731563Y530316D01*
X1728562Y533317D01*
X1726938Y537238D01*
X1726938Y546726D01*
X1736844Y546726D01*
X1736844Y528692D01*
X1735484Y528692D01*
G37*
G36*
X1738368Y528692D02*
X1738368Y546726D01*
X1748274Y546726D01*
X1748274Y537238D01*
X1746650Y533317D01*
X1743649Y530316D01*
X1739728Y528692D01*
X1738368Y528692D01*
G37*
G36*
X1828960Y470762D02*
X1828960Y476552D01*
X1830448Y478040D01*
X1835738Y478040D01*
X1835738Y470762D01*
X1828960Y470762D01*
G37*
G36*
X1728960Y470762D02*
X1728960Y476552D01*
X1730448Y478040D01*
X1735738Y478040D01*
X1735738Y470762D01*
X1728960Y470762D01*
G37*
G36*
X1928960Y470762D02*
X1928960Y476552D01*
X1930448Y478040D01*
X1935738Y478040D01*
X1935738Y470762D01*
X1928960Y470762D01*
G37*
G36*
X2028960Y470762D02*
X2028960Y476552D01*
X2030448Y478040D01*
X2035738Y478040D01*
X2035738Y470762D01*
X2028960Y470762D01*
G37*
G36*
X1830448Y461960D02*
X1828960Y463448D01*
X1828960Y469238D01*
X1835738Y469238D01*
X1835738Y461960D01*
X1830448Y461960D01*
G37*
G36*
X2030448Y461960D02*
X2028960Y463448D01*
X2028960Y469238D01*
X2035738Y469238D01*
X2035738Y461960D01*
X2030448Y461960D01*
G37*
G36*
X1930448Y461960D02*
X1928960Y463448D01*
X1928960Y469238D01*
X1935738Y469238D01*
X1935738Y461960D01*
X1930448Y461960D01*
G37*
G36*
X1730448Y461960D02*
X1728960Y463448D01*
X1728960Y469238D01*
X1735738Y469238D01*
X1735738Y461960D01*
X1730448Y461960D01*
G37*
%LPD*%
D10*
X280000Y747300D03*
X280000Y772700D03*
X450000Y727300D03*
X450000Y752700D03*
D11*
X384300Y756900D03*
D12*
X384300Y731500D03*
D13*
X275000Y862952D02*
X275000Y877048D01*
X317952Y820000D02*
X332048Y820000D01*
X332048Y845000D02*
X317952Y845000D01*
X317952Y895000D02*
X332048Y895000D01*
X332048Y920000D02*
X317952Y920000D01*
D14*
X1247300Y439596D02*
X1247300Y425000D01*
X1272700Y425000D02*
X1272700Y439596D01*
X2147300Y439596D02*
X2147300Y425000D01*
X2172700Y425000D02*
X2172700Y439596D01*
X2247300Y439596D02*
X2247300Y425000D01*
X2272700Y425000D02*
X2272700Y439596D01*
X2347300Y439596D02*
X2347300Y425000D01*
X2372700Y425000D02*
X2372700Y439596D01*
X1347300Y439596D02*
X1347300Y425000D01*
X1372700Y425000D02*
X1372700Y439596D01*
X1447300Y439596D02*
X1447300Y425000D01*
X1472700Y425000D02*
X1472700Y439596D01*
X1547300Y439596D02*
X1547300Y425000D01*
X1572700Y425000D02*
X1572700Y439596D01*
X1647300Y439596D02*
X1647300Y425000D01*
X1672700Y425000D02*
X1672700Y439596D01*
X1747300Y439596D02*
X1747300Y425000D01*
X1772700Y425000D02*
X1772700Y439596D01*
X1847300Y439596D02*
X1847300Y425000D01*
X1872700Y425000D02*
X1872700Y439596D01*
X1947300Y439596D02*
X1947300Y425000D01*
X1972700Y425000D02*
X1972700Y439596D01*
X2047300Y439596D02*
X2047300Y425000D01*
X2072700Y425000D02*
X2072700Y439596D01*
D15*
X311500Y500000D03*
X328500Y500000D03*
X1276500Y500000D03*
X1293500Y500000D03*
X1706500Y500000D03*
X1723500Y500000D03*
X2136500Y500000D03*
X2153500Y500000D03*
D12*
X854550Y390000D03*
X879950Y390000D03*
D11*
X905450Y390000D03*
D12*
X994550Y390000D03*
X1019950Y390000D03*
D11*
X1045450Y390000D03*
D15*
X1236500Y470000D03*
X1253500Y470000D03*
X1336500Y470000D03*
X1353500Y470000D03*
X1436500Y470000D03*
X1453500Y470000D03*
X1536500Y470000D03*
X1553500Y470000D03*
X1636500Y470000D03*
X1653500Y470000D03*
X511500Y500000D03*
X528500Y500000D03*
X1736500Y470000D03*
X1753500Y470000D03*
X1836500Y470000D03*
X1853500Y470000D03*
X1936500Y470000D03*
X1953500Y470000D03*
X2036500Y470000D03*
X2053500Y470000D03*
X2136500Y470000D03*
X2153500Y470000D03*
X2236500Y470000D03*
X2253500Y470000D03*
X2336500Y470000D03*
X2353500Y470000D03*
X711500Y500000D03*
X728500Y500000D03*
D16*
X415000Y848500D03*
X415000Y831500D03*
D17*
X545000Y770000D03*
X570000Y770000D03*
X595000Y770000D03*
D18*
X615000Y840000D03*
X525000Y840000D03*
D15*
X911500Y500000D03*
X928500Y500000D03*
D17*
X745000Y770000D03*
X770000Y770000D03*
X795000Y770000D03*
D18*
X815000Y840000D03*
X725000Y840000D03*
D17*
X945000Y770000D03*
X970000Y770000D03*
X995000Y770000D03*
D18*
X1015000Y840000D03*
X925000Y840000D03*
D17*
X1310000Y770000D03*
X1335000Y770000D03*
X1360000Y770000D03*
D18*
X1380000Y840000D03*
X1290000Y840000D03*
D17*
X1740000Y770000D03*
X1765000Y770000D03*
X1790000Y770000D03*
D18*
X1810000Y840000D03*
X1720000Y840000D03*
D17*
X2170000Y770000D03*
X2195000Y770000D03*
X2220000Y770000D03*
D18*
X2240000Y840000D03*
X2150000Y840000D03*
D19*
X297394Y555616D02*
X297394Y539360D01*
X342606Y539360D02*
X342606Y555616D01*
X297394Y604384D02*
X297394Y620640D01*
X342606Y620640D02*
X342606Y604384D01*
X497394Y555616D02*
X497394Y539360D01*
X542606Y539360D02*
X542606Y555616D01*
X497394Y604384D02*
X497394Y620640D01*
X542606Y620640D02*
X542606Y604384D01*
X697394Y555616D02*
X697394Y539360D01*
X742606Y539360D02*
X742606Y555616D01*
X697394Y604384D02*
X697394Y620640D01*
X742606Y620640D02*
X742606Y604384D01*
X897394Y555616D02*
X897394Y539360D01*
X942606Y539360D02*
X942606Y555616D01*
X897394Y604384D02*
X897394Y620640D01*
X942606Y620640D02*
X942606Y604384D01*
X1262394Y555616D02*
X1262394Y539360D01*
X1307606Y539360D02*
X1307606Y555616D01*
X1262394Y604384D02*
X1262394Y620640D01*
X1307606Y620640D02*
X1307606Y604384D01*
X1692394Y555616D02*
X1692394Y539360D01*
X1737606Y539360D02*
X1737606Y555616D01*
X1692394Y604384D02*
X1692394Y620640D01*
X1737606Y620640D02*
X1737606Y604384D01*
X2122394Y555616D02*
X2122394Y539360D01*
X2167606Y539360D02*
X2167606Y555616D01*
X2122394Y604384D02*
X2122394Y620640D01*
X2167606Y620640D02*
X2167606Y604384D01*
D20*
X2336274Y1017222D03*
X2310874Y1017222D03*
X2285474Y1017222D03*
X2260074Y1017222D03*
X2234674Y1017222D03*
X2209274Y1017222D03*
X2183874Y1017222D03*
X2158474Y1017222D03*
X2133074Y1017222D03*
X2107674Y1017222D03*
X2082274Y1017222D03*
X2056874Y1017222D03*
X2056874Y1169622D03*
X2082274Y1169622D03*
X2107674Y1169622D03*
X2133074Y1169622D03*
X2158474Y1169622D03*
X2183874Y1169622D03*
X2209274Y1169622D03*
X2234674Y1169622D03*
X2260074Y1169622D03*
X2285474Y1169622D03*
X2310874Y1169622D03*
X2361674Y1017222D03*
X2336274Y1169622D03*
X2361674Y1169622D03*
X2387074Y1017222D03*
X2387074Y1169622D03*
X2031474Y1017222D03*
X2031474Y1169622D03*
X2006074Y1017222D03*
X1980674Y1017222D03*
X1955274Y1017222D03*
X1929874Y1017222D03*
X1904474Y1017222D03*
X1879074Y1017222D03*
X1853674Y1017222D03*
X1828274Y1017222D03*
X1802874Y1017222D03*
X1802874Y1169622D03*
X1828274Y1169622D03*
X1853674Y1169622D03*
X1879074Y1169622D03*
X1904474Y1169622D03*
X1929874Y1169622D03*
X1955274Y1169622D03*
X1980674Y1169622D03*
X2006074Y1169622D03*
X1929874Y1042622D03*
X1929874Y1093422D03*
X1929874Y1118822D03*
X1929874Y1068022D03*
X1929874Y1144222D03*
X2361674Y1144222D03*
X2310874Y1144222D03*
X2285474Y1144222D03*
X2260074Y1144222D03*
X2323574Y1048972D03*
X2298174Y1048972D03*
X2272774Y1048972D03*
X2247374Y1048972D03*
X2221974Y1048972D03*
D21*
X488000Y1010300D03*
X488000Y1035700D03*
X488000Y1061100D03*
X488000Y1086500D03*
X408600Y1086500D03*
X408600Y1061100D03*
X408600Y1035700D03*
X408600Y1010300D03*
D22*
X621500Y573500D02*
X621500Y566500D01*
X621500Y573500D02*
X628500Y573500D01*
X628500Y566500D01*
X621500Y566500D01*
X621500Y569350D02*
X628500Y569350D01*
X628500Y572200D02*
X621500Y572200D01*
X596500Y573500D02*
X596500Y566500D01*
X596500Y573500D02*
X603500Y573500D01*
X603500Y566500D01*
X596500Y566500D01*
X596500Y569350D02*
X603500Y569350D01*
X603500Y572200D02*
X596500Y572200D01*
D15*
X601500Y550000D03*
X618500Y550000D03*
D22*
X421500Y566500D02*
X421500Y573500D01*
X428500Y573500D01*
X428500Y566500D01*
X421500Y566500D01*
X421500Y569350D02*
X428500Y569350D01*
X428500Y572200D02*
X421500Y572200D01*
X396500Y573500D02*
X396500Y566500D01*
X396500Y573500D02*
X403500Y573500D01*
X403500Y566500D01*
X396500Y566500D01*
X396500Y569350D02*
X403500Y569350D01*
X403500Y572200D02*
X396500Y572200D01*
D15*
X401500Y550000D03*
X418500Y550000D03*
D22*
X821500Y566500D02*
X821500Y573500D01*
X828500Y573500D01*
X828500Y566500D01*
X821500Y566500D01*
X821500Y569350D02*
X828500Y569350D01*
X828500Y572200D02*
X821500Y572200D01*
X796500Y573500D02*
X796500Y566500D01*
X796500Y573500D02*
X803500Y573500D01*
X803500Y566500D01*
X796500Y566500D01*
X796500Y569350D02*
X803500Y569350D01*
X803500Y572200D02*
X796500Y572200D01*
D15*
X801500Y550000D03*
X818500Y550000D03*
D22*
X1021500Y566500D02*
X1021500Y573500D01*
X1028500Y573500D01*
X1028500Y566500D01*
X1021500Y566500D01*
X1021500Y569350D02*
X1028500Y569350D01*
X1028500Y572200D02*
X1021500Y572200D01*
X996500Y573500D02*
X996500Y566500D01*
X996500Y573500D02*
X1003500Y573500D01*
X1003500Y566500D01*
X996500Y566500D01*
X996500Y569350D02*
X1003500Y569350D01*
X1003500Y572200D02*
X996500Y572200D01*
D15*
X1001500Y550000D03*
X1018500Y550000D03*
D22*
X1386500Y566500D02*
X1386500Y573500D01*
X1393500Y573500D01*
X1393500Y566500D01*
X1386500Y566500D01*
X1386500Y569350D02*
X1393500Y569350D01*
X1393500Y572200D02*
X1386500Y572200D01*
X1361500Y573500D02*
X1361500Y566500D01*
X1361500Y573500D02*
X1368500Y573500D01*
X1368500Y566500D01*
X1361500Y566500D01*
X1361500Y569350D02*
X1368500Y569350D01*
X1368500Y572200D02*
X1361500Y572200D01*
D15*
X1366500Y550000D03*
X1383500Y550000D03*
D22*
X1816500Y566500D02*
X1816500Y573500D01*
X1823500Y573500D01*
X1823500Y566500D01*
X1816500Y566500D01*
X1816500Y569350D02*
X1823500Y569350D01*
X1823500Y572200D02*
X1816500Y572200D01*
X1791500Y573500D02*
X1791500Y566500D01*
X1791500Y573500D02*
X1798500Y573500D01*
X1798500Y566500D01*
X1791500Y566500D01*
X1791500Y569350D02*
X1798500Y569350D01*
X1798500Y572200D02*
X1791500Y572200D01*
D15*
X1796500Y550000D03*
X1813500Y550000D03*
D22*
X2246500Y566500D02*
X2246500Y573500D01*
X2253500Y573500D01*
X2253500Y566500D01*
X2246500Y566500D01*
X2246500Y569350D02*
X2253500Y569350D01*
X2253500Y572200D02*
X2246500Y572200D01*
X2221500Y573500D02*
X2221500Y566500D01*
X2221500Y573500D02*
X2228500Y573500D01*
X2228500Y566500D01*
X2221500Y566500D01*
X2221500Y569350D02*
X2228500Y569350D01*
X2228500Y572200D02*
X2221500Y572200D01*
D15*
X2226500Y550000D03*
X2243500Y550000D03*
D22*
X2326500Y986500D02*
X2326500Y993500D01*
X2333500Y993500D01*
X2333500Y986500D01*
X2326500Y986500D01*
X2326500Y989350D02*
X2333500Y989350D01*
X2333500Y992200D02*
X2326500Y992200D01*
X2301500Y993500D02*
X2301500Y986500D01*
X2301500Y993500D02*
X2308500Y993500D01*
X2308500Y986500D01*
X2301500Y986500D01*
X2301500Y989350D02*
X2308500Y989350D01*
X2308500Y992200D02*
X2301500Y992200D01*
D15*
X2366500Y990000D03*
X2383500Y990000D03*
D23*
X1200000Y400000D03*
X1240000Y400000D03*
X1750000Y400000D03*
X2410000Y400000D03*
X1880000Y400000D03*
D24*
X854550Y390000D02*
X854550Y444550D01*
X855000Y445000D01*
X994550Y444550D02*
X994550Y390000D01*
X994550Y444550D02*
X995000Y445000D01*
X2120000Y470000D02*
X2136500Y470000D01*
X994550Y450450D02*
X994550Y444550D01*
X994550Y450450D02*
X975000Y470000D01*
D25*
X975000Y470000D03*
D24*
X854550Y464550D02*
X854550Y444550D01*
X854550Y464550D02*
X860000Y470000D01*
D25*
X860000Y470000D03*
D26*
X2090000Y516500D02*
X2136500Y470000D01*
X2090000Y516500D02*
X2090000Y550000D01*
D25*
X2090000Y550000D03*
X1684087Y476183D03*
D26*
X1684087Y515282D01*
X1655838Y543530D01*
D25*
X1902155Y470637D03*
D26*
X1902155Y535607D01*
X1902419Y535871D01*
X2410000Y433973D02*
X2410000Y400000D01*
X2410000Y433973D02*
X2411572Y435545D01*
D24*
X505000Y1052700D02*
X488000Y1035700D01*
X505000Y1052700D02*
X505000Y1110000D01*
X390000Y1110000D01*
X390000Y1070000D01*
X398900Y1061100D01*
X408600Y1061100D01*
X292377Y944877D01*
X275000Y895426D02*
X275000Y870000D01*
X292377Y912802D02*
X292377Y944877D01*
X292377Y912802D02*
X275000Y895426D01*
X275000Y870000D02*
X280000Y865000D01*
X292377Y827198D02*
X292377Y812802D01*
X280000Y839574D02*
X280000Y865000D01*
X280000Y800426D02*
X280000Y772700D01*
X292377Y827198D02*
X280000Y839574D01*
X292377Y812802D02*
X280000Y800426D01*
D25*
X415000Y865000D03*
D24*
X415000Y848500D01*
X366500Y800000D01*
X330000Y800000D01*
X325000Y805000D01*
X325000Y820000D01*
X1750000Y800000D02*
X2180000Y800000D01*
X1750000Y800000D02*
X1320000Y800000D01*
X960000Y800000D01*
X750000Y800000D01*
X2170000Y790000D02*
X2170000Y770000D01*
X2170000Y790000D02*
X2180000Y800000D01*
X1740000Y790000D02*
X1740000Y770000D01*
X1740000Y790000D02*
X1750000Y800000D01*
X1310000Y790000D02*
X1310000Y770000D01*
X1310000Y790000D02*
X1320000Y800000D01*
X945000Y785000D02*
X945000Y770000D01*
X945000Y785000D02*
X960000Y800000D01*
X745000Y795000D02*
X745000Y770000D01*
X745000Y795000D02*
X750000Y800000D01*
X545000Y770000D02*
X476500Y770000D01*
X415000Y831500D01*
X440000Y806500D01*
X440000Y762700D01*
X450000Y752700D01*
X388500Y752700D01*
X384300Y756900D01*
X476500Y1086500D02*
X488000Y1086500D01*
X476500Y1086500D02*
X450000Y1060000D01*
X450000Y1020000D01*
X440300Y1010300D01*
X408600Y1010300D01*
X330000Y500000D02*
X328500Y500000D01*
X330000Y500000D02*
X490000Y500000D01*
X505000Y485000D01*
X540000Y485000D01*
X750000Y485000D01*
X913500Y485000D01*
X928500Y500000D01*
X540000Y488500D02*
X528500Y500000D01*
X540000Y488500D02*
X540000Y485000D01*
X728500Y500000D02*
X735000Y500000D01*
X750000Y485000D01*
X760000Y455000D02*
X760000Y370000D01*
X885450Y370000D01*
X905450Y390000D01*
X885450Y370000D02*
X927450Y370000D01*
X1026551Y371101D01*
X1045450Y390000D01*
X1280000Y450000D02*
X1290000Y450000D01*
X1290000Y455000D02*
X1385000Y455000D01*
X1490000Y455000D01*
X1590000Y455000D01*
X1695000Y450000D02*
X1710000Y450000D01*
X2180000Y450000D02*
X2195000Y450000D01*
X2290000Y455000D02*
X2390000Y455000D01*
X2390000Y435000D01*
X2380000Y425000D01*
X2290000Y450000D02*
X2290000Y455000D01*
X2290000Y450000D02*
X2290000Y442300D01*
X2195000Y447300D02*
X2195000Y450000D01*
X2090000Y445077D02*
X2090000Y440000D01*
X2075000Y425000D01*
X1990000Y435000D02*
X1990000Y450000D01*
X1990000Y435000D02*
X1980000Y425000D01*
X1890000Y442300D02*
X1890000Y450000D01*
X1790000Y450000D02*
X1790000Y442300D01*
X1695000Y447300D02*
X1695000Y450000D01*
X1590000Y450000D02*
X1590000Y455000D01*
X1590000Y450000D02*
X1590000Y442300D01*
X1490000Y442300D02*
X1490000Y455000D01*
X1385000Y455000D02*
X1385000Y437300D01*
X1290000Y450000D02*
X1290000Y455000D01*
X1290000Y450000D02*
X1290000Y442300D01*
X1280000Y486500D02*
X1293500Y500000D01*
X1280000Y486500D02*
X1280000Y455000D01*
X1280000Y450000D01*
X1710000Y486500D02*
X1723500Y500000D01*
X1710000Y486500D02*
X1710000Y450000D01*
X2153500Y500000D02*
X2180000Y473500D01*
X2180000Y450000D01*
X430000Y988900D02*
X408600Y1010300D01*
X430000Y988900D02*
X430000Y840000D01*
X421500Y831500D01*
X415000Y831500D01*
X1769943Y450000D02*
X1790000Y450000D01*
X1969943Y450000D02*
X1990000Y450000D01*
X2402154Y1154542D02*
X2387074Y1169622D01*
X2378685Y800000D02*
X2180000Y800000D01*
X2402154Y1125737D02*
X2402154Y1154542D01*
X384300Y756900D02*
X351900Y756900D01*
X345000Y750000D01*
X345000Y655000D01*
X365000Y635000D01*
X365000Y530000D01*
X350000Y515000D01*
X330000Y515000D01*
X330000Y500000D01*
X910531Y482031D02*
X928500Y500000D01*
X910531Y482031D02*
X787031Y482031D01*
X760000Y455000D01*
X2142931Y450143D02*
X2151669Y450143D01*
X2137866Y445077D02*
X2090000Y445077D01*
X2137866Y445077D02*
X2142931Y450143D01*
X2042789Y450000D02*
X1990000Y450000D01*
X2042789Y450000D02*
X2042931Y450143D01*
X1742789Y450000D02*
X1710000Y450000D01*
X1742789Y450000D02*
X1742931Y450143D01*
X1790000Y450000D02*
X1842789Y450000D01*
X1842931Y450143D01*
X1890000Y450000D02*
X1942789Y450000D01*
X1942931Y450143D01*
X2378931Y1056692D02*
X2378931Y1073699D01*
X2378931Y1056692D02*
X2402662Y1032961D01*
X2402662Y823977D01*
X2378685Y800000D01*
X1642789Y450000D02*
X1590000Y450000D01*
X1642789Y450000D02*
X1642931Y450143D01*
X2195000Y450000D02*
X2242789Y450000D01*
X2242931Y450143D01*
X750000Y800000D02*
X708809Y800000D01*
X708450Y799641D01*
X574641Y799641D02*
X545000Y770000D01*
X574641Y799641D02*
X708450Y799641D01*
X2256560Y449210D02*
X2263460Y449210D01*
X2264250Y450000D01*
X2290000Y450000D01*
X2327031Y1094052D02*
X2331909Y1098931D01*
X2327031Y1094052D02*
X2327031Y1087152D01*
X2331909Y1082273D01*
X1663460Y449210D02*
X1656560Y449210D01*
X1663460Y449210D02*
X1664250Y450000D01*
X1695000Y450000D01*
X1856560Y449210D02*
X1863460Y449210D01*
X1864250Y450000D01*
X1890000Y450000D01*
X2059419Y444540D02*
X2066319Y444540D01*
X1969943Y450000D02*
X1969153Y449210D01*
X1956560Y449210D01*
X1955627Y450143D01*
X1769943Y450000D02*
X1769153Y449210D01*
X1756560Y449210D01*
X1755627Y450143D01*
X2066319Y444540D02*
X2066855Y445077D01*
X2090000Y445077D01*
X2059419Y444540D02*
X2053817Y450143D01*
X2151669Y450143D02*
X2158345Y443466D01*
X2165245Y443466D01*
X2171779Y450000D02*
X2180000Y450000D01*
X2171779Y450000D02*
X2165245Y443466D01*
X1856560Y449210D02*
X1855627Y450143D01*
X1656560Y449210D02*
X1655627Y450143D01*
X2331909Y1098931D02*
X2375347Y1098931D01*
X2370357Y1082273D02*
X2378931Y1073699D01*
X2370357Y1082273D02*
X2331909Y1082273D01*
X2255627Y450143D02*
X2256560Y449210D01*
X2255627Y450143D02*
X2242931Y450143D01*
X2375347Y1098931D02*
X2402154Y1125737D01*
X1655627Y450143D02*
X1642931Y450143D01*
X1942931Y450143D02*
X1955627Y450143D01*
X1855627Y450143D02*
X1842931Y450143D01*
X1755627Y450143D02*
X1742931Y450143D01*
X2042931Y450143D02*
X2053817Y450143D01*
X1160339Y390000D02*
X1045450Y390000D01*
X1160339Y390000D02*
X1225339Y455000D01*
X1280000Y455000D01*
D26*
X1290000Y442300D02*
X1272700Y425000D01*
X1372700Y425000D02*
X1385000Y437300D01*
X1472700Y425000D02*
X1490000Y442300D01*
X1572700Y425000D02*
X1590000Y442300D01*
X1672700Y425000D02*
X1695000Y447300D01*
X1772700Y425000D02*
X1790000Y442300D01*
X1872700Y425000D02*
X1890000Y442300D01*
X1972700Y425000D02*
X1980000Y425000D01*
X2072700Y425000D02*
X2075000Y425000D01*
X2172700Y425000D02*
X2195000Y447300D01*
X2272700Y425000D02*
X2290000Y442300D01*
X2372700Y425000D02*
X2380000Y425000D01*
D24*
X2330000Y425000D02*
X2315000Y440000D01*
D25*
X2315000Y440000D03*
X2416058Y475000D03*
D24*
X2390000Y501058D01*
X2390000Y790000D01*
D25*
X2390000Y790000D03*
X2390000Y845000D03*
D24*
X2390000Y981406D01*
D25*
X2416058Y455000D03*
D24*
X2401058Y470000D01*
X2353500Y470000D01*
X2374465Y1054843D02*
X2374465Y1071850D01*
X2398197Y989602D02*
X2390000Y981406D01*
X2398197Y989602D02*
X2398197Y1031111D01*
X2374465Y1054843D01*
D25*
X2200359Y1130359D03*
D24*
X2200719Y1130000D02*
X2300000Y1130000D01*
X2200719Y1130000D02*
X2200359Y1130359D01*
X2322565Y1085303D02*
X2330060Y1077808D01*
X2368507Y1077808D02*
X2374465Y1071850D01*
X2322565Y1107435D02*
X2300000Y1130000D01*
X2330060Y1077808D02*
X2368507Y1077808D01*
X2322565Y1085303D02*
X2322565Y1107435D01*
D26*
X2330000Y425000D02*
X2347300Y425000D01*
D25*
X1480000Y505000D03*
D24*
X1660000Y685000D01*
X2095000Y685000D01*
X2115000Y705000D01*
X2115000Y790000D01*
D25*
X2115000Y790000D03*
X2115000Y840000D03*
D24*
X2115000Y930000D01*
X2120000Y1155000D02*
X2107674Y1167326D01*
X2107674Y1169622D01*
D25*
X1250000Y490000D03*
D24*
X1253500Y486500D01*
X1253500Y470000D01*
X2198151Y1021830D02*
X2204667Y1028345D01*
X2198151Y1021830D02*
X2198151Y1013151D01*
X2115000Y930000D01*
X2120000Y1155000D02*
X2131676Y1155000D01*
X2204667Y1028345D02*
X2217077Y1028345D01*
X2233097Y1053580D02*
X2131676Y1155000D01*
X2233097Y1053580D02*
X2233097Y1044365D01*
X2217077Y1028345D01*
D25*
X1490000Y495000D03*
D24*
X1670000Y675000D01*
X2240000Y675000D01*
X2340000Y775000D01*
X2340000Y790000D01*
D25*
X2340000Y790000D03*
X2340000Y850000D03*
D24*
X2360000Y1035000D02*
X2365000Y1040000D01*
X2365000Y1065000D01*
D25*
X1385000Y470000D03*
D24*
X1353500Y470000D01*
X2262122Y1035000D02*
X2360000Y1035000D01*
X2262122Y1035000D02*
X2248951Y1021830D01*
X2248951Y941049D02*
X2340000Y850000D01*
X2248951Y941049D02*
X2248951Y1021830D01*
X2266496Y1113504D02*
X2189192Y1113504D01*
X2133074Y1169622D01*
X2361123Y1068877D02*
X2365000Y1065000D01*
X2361123Y1068877D02*
X2311123Y1068877D01*
X2266496Y1113504D01*
D25*
X1505000Y495000D03*
D24*
X1675000Y665000D01*
X2245000Y665000D01*
X2355000Y775000D01*
X2355000Y790000D01*
D25*
X2355000Y790000D03*
X2375000Y845000D03*
D24*
X2370000Y1030000D02*
X2370000Y1070000D01*
X2175000Y1160000D02*
X2165378Y1169622D01*
X2158474Y1169622D01*
X1505000Y495000D02*
X1495000Y485000D01*
X1455000Y485000D01*
X1453500Y483500D01*
X1453500Y470000D01*
X2282522Y1030000D02*
X2370000Y1030000D01*
X2282522Y1030000D02*
X2274351Y1021830D01*
X2274351Y945649D02*
X2375000Y845000D01*
X2274351Y945649D02*
X2274351Y1021830D01*
X2366657Y1073343D02*
X2370000Y1070000D01*
X2366657Y1073343D02*
X2316657Y1073343D01*
X2267969Y1122031D01*
X2196909Y1122031D01*
X2175000Y1143940D01*
X2175000Y1160000D01*
D25*
X1520000Y495000D03*
D24*
X1550000Y525000D01*
X1550000Y473500D01*
X1553500Y470000D01*
X1685535Y660535D02*
X2246850Y660535D01*
X2410000Y823685D01*
X1685535Y660535D02*
X1550000Y525000D01*
X2370549Y1088396D02*
X2383396Y1075549D01*
X2370549Y1088396D02*
X2337565Y1088396D01*
X2383396Y1075549D02*
X2383396Y1058542D01*
X2410000Y1031938D02*
X2410000Y823685D01*
X2410000Y1031938D02*
X2383396Y1058542D01*
D25*
X2335359Y1090602D03*
D24*
X2337565Y1088396D01*
D25*
X1660010Y457539D03*
D24*
X1653500Y464049D02*
X1653500Y470000D01*
X1653500Y464049D02*
X1660010Y457539D01*
D25*
X1760010Y457539D03*
D24*
X1753500Y464049D02*
X1753500Y470000D01*
X1753500Y464049D02*
X1760010Y457539D01*
D25*
X1860010Y457539D03*
D24*
X1853500Y464049D02*
X1853500Y470000D01*
X1853500Y464049D02*
X1860010Y457539D01*
D25*
X1960010Y457539D03*
D24*
X1953500Y464049D02*
X1953500Y470000D01*
X1953500Y464049D02*
X1960010Y457539D01*
D25*
X2062869Y452869D03*
D24*
X2053500Y462238D02*
X2053500Y470000D01*
X2053500Y462238D02*
X2062869Y452869D01*
D25*
X2115000Y460000D03*
D24*
X2100000Y475000D01*
X1960000Y615000D01*
X1960000Y650000D01*
D25*
X1960000Y650000D03*
X1960000Y705000D03*
D24*
X1895000Y770000D01*
X1895000Y785000D01*
D25*
X1895000Y785000D03*
X1895000Y815000D03*
D24*
X1895000Y950496D01*
X1828274Y1017222D01*
X2110000Y485000D02*
X2100000Y475000D01*
X2110000Y485000D02*
X2115535Y479465D01*
X2151594Y470000D02*
X2153500Y470000D01*
X2115535Y468150D02*
X2115535Y479465D01*
X2142846Y461251D02*
X2151594Y470000D01*
X2122434Y461251D02*
X2115535Y468150D01*
X2122434Y461251D02*
X2142846Y461251D01*
D25*
X2161795Y451795D03*
D24*
X2153500Y460090D01*
X2153500Y470000D01*
D25*
X2215000Y470000D03*
D24*
X2190000Y495000D01*
X2190000Y510000D01*
D25*
X2190000Y510000D03*
X2085000Y510000D03*
D24*
X1975000Y620000D01*
X1975000Y650000D01*
D25*
X1975000Y650000D03*
X1975000Y705000D03*
D24*
X1910000Y770000D01*
X1910000Y785000D01*
D25*
X1910000Y785000D03*
X1910000Y815000D03*
D24*
X1910000Y915000D01*
D25*
X1910000Y915000D03*
X1872969Y930000D03*
D24*
X1872969Y947127D02*
X1802874Y1017222D01*
X1872969Y947127D02*
X1872969Y930000D01*
D25*
X2260010Y457539D03*
D24*
X2253500Y464049D02*
X2253500Y470000D01*
X2253500Y464049D02*
X2260010Y457539D01*
X1824052Y1140000D02*
X1853674Y1169622D01*
X1824052Y1140000D02*
X1380000Y1140000D01*
D25*
X1380000Y1140000D03*
X1409492Y1029492D03*
X1195000Y832004D03*
D24*
X1212004Y832004D02*
X1409492Y1029492D01*
X1212004Y832004D02*
X1195000Y832004D01*
X1865000Y770000D02*
X1880000Y785000D01*
D25*
X1880000Y785000D03*
D24*
X1865000Y770000D02*
X1821448Y770000D01*
D25*
X1880000Y815000D03*
D24*
X1885000Y820000D01*
X1815000Y1025000D02*
X1820000Y1030000D01*
X1918696Y1130000D02*
X1879074Y1169622D01*
X1811797Y760114D02*
X1804886Y753203D01*
X1811797Y760114D02*
X1811797Y760348D01*
X1821448Y770000D01*
X1773317Y770000D02*
X1765000Y770000D01*
X1773317Y770000D02*
X1790114Y753203D01*
X1804886Y753203D01*
X1918696Y1130000D02*
X1934426Y1130000D01*
X1885000Y944767D02*
X1885000Y820000D01*
X1815000Y1014767D02*
X1815000Y1025000D01*
X1815000Y1014767D02*
X1885000Y944767D01*
X1961325Y1103102D02*
X1934426Y1130000D01*
X1961325Y1103102D02*
X1961325Y1041550D01*
X1949775Y1030000D01*
X1820000Y1030000D01*
X2180000Y755000D02*
X2195000Y770000D01*
D25*
X1970000Y975000D03*
X2137031Y770000D03*
D24*
X2152031Y755000D02*
X2180000Y755000D01*
X2152031Y755000D02*
X2137031Y770000D01*
X1970000Y975000D02*
X1966397Y978603D01*
X1940997Y1148830D02*
X1934481Y1155345D01*
X1940997Y1148830D02*
X1940997Y1147688D01*
X1966397Y1122288D02*
X1966397Y978603D01*
X1966397Y1122288D02*
X1940997Y1147688D01*
X1918751Y1155345D02*
X1904474Y1169622D01*
X1918751Y1155345D02*
X1934481Y1155345D01*
D25*
X1970000Y1140000D03*
D24*
X1965000Y1145000D01*
X1955000Y1145000D01*
X1945462Y1154538D02*
X1945462Y1159034D01*
X1934874Y1169622D01*
X1929874Y1169622D01*
X1945462Y1154538D02*
X1955000Y1145000D01*
D25*
X1990000Y1140000D03*
D24*
X1960378Y1169622D01*
X1955274Y1169622D01*
D25*
X2005000Y1140000D03*
D24*
X1980674Y1164326D01*
X1980674Y1169622D01*
X711500Y500000D02*
X697394Y514106D01*
X2209274Y1014274D02*
X2209274Y1017222D01*
X2209274Y1014274D02*
X2125000Y930000D01*
X2125000Y810000D01*
D25*
X2125000Y810000D03*
X2130000Y785000D03*
D24*
X2125000Y780000D01*
X2125000Y715000D01*
X2130000Y710000D01*
D25*
X2130000Y710000D03*
X2095000Y710000D03*
D24*
X1985000Y710000D01*
X1920000Y775000D01*
D25*
X1920000Y775000D03*
D26*
X697394Y547488D02*
X697394Y514106D01*
D24*
X511500Y500000D02*
X497394Y514106D01*
X2150000Y983348D02*
X2183874Y1017222D01*
D25*
X1935000Y830000D03*
X1865000Y830000D03*
D24*
X1855000Y830000D01*
X1835000Y810000D01*
D25*
X705000Y807969D03*
D24*
X707031Y810000D02*
X1835000Y810000D01*
X707031Y810000D02*
X705000Y807969D01*
D25*
X2089933Y885000D03*
D24*
X2034933Y830000D02*
X1935000Y830000D01*
X2034933Y830000D02*
X2089933Y885000D01*
D25*
X2150000Y979282D03*
D24*
X2150000Y983348D01*
D26*
X497394Y547488D02*
X497394Y514106D01*
D24*
X311500Y500000D02*
X297394Y514106D01*
X2121252Y980000D02*
X2158474Y1017222D01*
X2121252Y980000D02*
X2120000Y980000D01*
D25*
X2120000Y980000D03*
X2070000Y960000D03*
X1865000Y880000D03*
D24*
X1280000Y880000D01*
D25*
X450000Y820000D03*
D24*
X2056691Y960000D02*
X2070000Y960000D01*
X2056691Y960000D02*
X2046691Y970000D01*
D25*
X1974626Y920374D03*
D24*
X2024253Y970000D01*
X2046691Y970000D01*
X1144701Y819210D02*
X1143911Y820000D01*
X450000Y820000D01*
X1219210Y819210D02*
X1280000Y880000D01*
X1219210Y819210D02*
X1144701Y819210D01*
D26*
X297394Y547488D02*
X297394Y514106D01*
D24*
X897394Y514106D02*
X897394Y545000D01*
X897394Y514106D02*
X911500Y500000D01*
X2021608Y1001608D02*
X2035871Y1001608D01*
D25*
X1855000Y940000D03*
D24*
X1330000Y940000D01*
D25*
X1050000Y835000D03*
X850000Y730000D03*
D24*
X850000Y645000D01*
X780000Y575000D01*
X780000Y520000D01*
X785000Y515000D01*
X867394Y515000D01*
X897394Y545000D01*
D25*
X1955359Y940359D03*
D24*
X1960359Y940359D02*
X2021608Y1001608D01*
X1960359Y940359D02*
X1955359Y940359D01*
X2123404Y1017222D02*
X2133074Y1017222D01*
X2123404Y1017222D02*
X2112281Y1028345D01*
X2052267Y1028345D01*
X2042597Y1018675D01*
X2042597Y1008334D01*
X2035871Y1001608D01*
X1060535Y824465D02*
X1050000Y835000D01*
X1145760Y824465D02*
X1146550Y823675D01*
X1145760Y824465D02*
X1060535Y824465D01*
X1213675Y823675D02*
X1330000Y940000D01*
X1213675Y823675D02*
X1146550Y823675D01*
D26*
X897394Y547488D02*
X897394Y545000D01*
D24*
X1706500Y533382D02*
X1706500Y500000D01*
X1729906Y585000D02*
X1795000Y585000D01*
X1860000Y650000D01*
D25*
X1860000Y650000D03*
D24*
X2065000Y785000D02*
X2070000Y790000D01*
D25*
X2070000Y790000D03*
X2070000Y900000D03*
X1927969Y785000D03*
D24*
X2065000Y785000D01*
X2070000Y900000D02*
X2089143Y919143D01*
X2089143Y920978D01*
X2107674Y939510D02*
X2107674Y1017222D01*
X2107674Y939510D02*
X2089143Y920978D01*
D26*
X1706500Y533382D02*
X1692394Y547488D01*
X1729906Y585000D01*
D24*
X2136500Y533382D02*
X2136500Y500000D01*
X2080000Y589882D02*
X2080000Y650000D01*
D25*
X2080000Y650000D03*
X2060000Y925000D03*
D24*
X2085000Y1014496D02*
X2082274Y1017222D01*
X2085000Y1014496D02*
X2085000Y950000D01*
X2060000Y925000D01*
D26*
X2122394Y547488D02*
X2136500Y533382D01*
X2122394Y547488D02*
X2080000Y589882D01*
D24*
X1276500Y533382D02*
X1276500Y500000D01*
X1289906Y575000D02*
X1350000Y575000D01*
X1380000Y605000D01*
X1550000Y605000D01*
X1650000Y705000D01*
X1935000Y705000D01*
D25*
X1935000Y705000D03*
X1925000Y815000D03*
X2035000Y949492D03*
D24*
X1925000Y839492D02*
X1925000Y815000D01*
X1925000Y839492D02*
X2035000Y949492D01*
D26*
X1276500Y533382D02*
X1262394Y547488D01*
X1289906Y575000D01*
D24*
X625000Y570000D02*
X625000Y556500D01*
X618500Y550000D01*
X1000000Y570000D02*
X1180000Y750000D01*
X1180000Y790000D01*
D25*
X1180000Y790000D03*
X1815000Y985000D03*
X2045000Y990000D03*
D24*
X2065000Y990000D02*
X2070000Y995000D01*
X2065000Y990000D02*
X2045000Y990000D01*
D25*
X2070000Y995000D03*
D24*
X1815000Y985000D02*
X1790000Y960000D01*
X1468626Y960000D01*
D25*
X1180000Y832004D03*
D24*
X1183221Y832004D01*
X1336217Y985000D01*
X1406042Y1037821D02*
X1412942Y1037821D01*
X1417821Y1032942D01*
X1353221Y985000D02*
X1336217Y985000D01*
X1417821Y1010805D02*
X1468626Y960000D01*
X1406042Y1037821D02*
X1353221Y985000D01*
X1417821Y1010805D02*
X1417821Y1032942D01*
X585000Y755000D02*
X400000Y570000D01*
X585000Y755000D02*
X1130000Y755000D01*
D25*
X1130000Y755000D03*
D24*
X775000Y745000D02*
X600000Y570000D01*
X775000Y745000D02*
X1145000Y745000D01*
X1155000Y755000D01*
X1155000Y785000D01*
X1150000Y790000D01*
D25*
X1150000Y790000D03*
X1885000Y1065776D03*
D24*
X1884224Y1065000D01*
D25*
X1150000Y832004D03*
D24*
X1153221Y832004D01*
X1386217Y1065000D01*
X1884224Y1065000D01*
X970000Y740000D02*
X800000Y570000D01*
X970000Y740000D02*
X1150000Y740000D01*
X1165000Y755000D01*
X1165000Y790000D01*
D25*
X1165000Y790000D03*
D24*
X1952996Y1045000D02*
X1952996Y1045230D01*
X1944481Y1053745D01*
D25*
X1165000Y832004D03*
X1952996Y1045000D03*
D24*
X1168221Y832004D02*
X1165000Y832004D01*
X1389963Y1053745D02*
X1944481Y1053745D01*
X1389963Y1053745D02*
X1168221Y832004D01*
X1390000Y595000D02*
X1365000Y570000D01*
X1390000Y595000D02*
X1555000Y595000D01*
X1655000Y695000D01*
X1995000Y695000D01*
D25*
X1995000Y695000D03*
D24*
X1955000Y992096D02*
X1929874Y1017222D01*
D25*
X1955302Y960302D03*
D24*
X1955000Y960604D01*
X1955000Y992096D01*
X1875000Y650000D02*
X1795000Y570000D01*
X1875000Y650000D02*
X1945000Y650000D01*
D25*
X1945000Y650000D03*
X1930000Y980000D03*
D24*
X1904474Y1005526D01*
X1904474Y1017222D01*
X2220000Y575000D02*
X2225000Y570000D01*
X2220000Y575000D02*
X2220000Y650000D01*
D25*
X2220000Y650000D03*
X2095000Y815000D03*
X2097472Y917529D03*
D24*
X1922969Y973327D02*
X1879074Y1017222D01*
D25*
X2054569Y947031D03*
D24*
X2051496Y950104D02*
X2051496Y958880D01*
X2051496Y950104D02*
X2054569Y947031D01*
X2097472Y889240D02*
X2098262Y888450D01*
X2097472Y889240D02*
X2097472Y917529D01*
X1978076Y912045D02*
X1971177Y912045D01*
X2095000Y815000D02*
X2098262Y818262D01*
X2098262Y888450D01*
X2051496Y958880D02*
X2048090Y962286D01*
X1922969Y960252D02*
X1922969Y973327D01*
X1922969Y960252D02*
X1971177Y912045D01*
X2028317Y962286D02*
X2048090Y962286D01*
X2028317Y962286D02*
X1978076Y912045D01*
D25*
X2090000Y940000D03*
D24*
X2090000Y935057D01*
X2060000Y905057D01*
D25*
X2285000Y987969D03*
D24*
X2287031Y990000D02*
X2305000Y990000D01*
X2287031Y990000D02*
X2285000Y987969D01*
X2038450Y957821D02*
X2031550Y957821D01*
X2038450Y957821D02*
X2046241Y950030D01*
X1963317Y907580D02*
X1853674Y1017222D01*
X1963317Y907580D02*
X1981309Y907580D01*
X2031550Y957821D01*
X2046241Y950030D02*
X2046241Y918816D01*
X2060000Y905057D01*
X425000Y570000D02*
X425000Y556500D01*
X418500Y550000D01*
X825000Y556500D02*
X825000Y570000D01*
X825000Y556500D02*
X818500Y550000D01*
X1025000Y556500D02*
X1025000Y570000D01*
X1025000Y556500D02*
X1018500Y550000D01*
X1390000Y556500D02*
X1390000Y570000D01*
X1390000Y556500D02*
X1383500Y550000D01*
X1820000Y556500D02*
X1820000Y570000D01*
X1820000Y556500D02*
X1813500Y550000D01*
X2250000Y556500D02*
X2250000Y570000D01*
X2250000Y556500D02*
X2243500Y550000D01*
X2360154Y981251D02*
X2372846Y981251D01*
X2351406Y990000D02*
X2330000Y990000D01*
X2381594Y990000D02*
X2383500Y990000D01*
X2360154Y981251D02*
X2351406Y990000D01*
X2372846Y981251D02*
X2381594Y990000D01*
X1802874Y1169622D02*
X1788252Y1155000D01*
X1365000Y1155000D01*
X1345000Y1135000D01*
X1345000Y1110000D01*
X1355000Y1100000D01*
X1715000Y1100000D01*
D25*
X1715000Y1100000D03*
X1630000Y1025000D03*
D24*
X1575000Y970000D01*
X1565000Y970000D01*
D25*
X1565000Y970000D03*
X1215000Y790000D03*
D24*
X1215000Y725050D01*
X879950Y390000D01*
X1808652Y1150000D02*
X1828274Y1169622D01*
X1808652Y1150000D02*
X1370000Y1150000D01*
X1355000Y1135000D01*
X1355000Y1120000D01*
X1770000Y1120000D01*
D25*
X1770000Y1120000D03*
X1660000Y1025000D03*
D24*
X1605000Y970000D01*
X1590000Y970000D01*
D25*
X1590000Y970000D03*
X1230000Y790000D03*
D24*
X1230000Y600050D01*
X1019950Y390000D01*
M02*
