G04 EAGLE Gerber RS-274X export*
G75*
%MOMM*%
%FSLAX34Y34*%
%LPD*%
%INSoldermask Top*%
%IPPOS*%
%AMOC8*
5,1,8,0,0,1.08239X$1,22.5*%
G01*
G04 Define Apertures*
%ADD10P,1.95198X8X112.5*%
%ADD11R,1.662800X1.662800*%
%ADD12C,1.662800*%
%ADD13C,1.612800*%
%ADD14C,1.403200*%
%ADD15C,1.662800*%
%ADD16R,1.203200X1.303200*%
%ADD17R,1.303200X1.203200*%
%ADD18C,1.912800*%
%ADD19R,3.003200X3.003200*%
%ADD20C,1.828800*%
%ADD21C,1.778000*%
%ADD22C,1.592800*%
%ADD23C,0.505344*%
%ADD24C,3.203200*%
D10*
X280000Y747300D03*
X280000Y772700D03*
X450000Y727300D03*
X450000Y752700D03*
D11*
X384300Y756900D03*
D12*
X384300Y731500D03*
D13*
X275000Y862952D02*
X275000Y877048D01*
X317952Y820000D02*
X332048Y820000D01*
X332048Y845000D02*
X317952Y845000D01*
X317952Y895000D02*
X332048Y895000D01*
X332048Y920000D02*
X317952Y920000D01*
D14*
X275000Y920000D03*
X325000Y870000D03*
X275000Y820000D03*
D15*
X1247300Y439596D02*
X1247300Y425000D01*
X1272700Y425000D02*
X1272700Y439596D01*
X2147300Y439596D02*
X2147300Y425000D01*
X2172700Y425000D02*
X2172700Y439596D01*
X2247300Y439596D02*
X2247300Y425000D01*
X2272700Y425000D02*
X2272700Y439596D01*
X2347300Y439596D02*
X2347300Y425000D01*
X2372700Y425000D02*
X2372700Y439596D01*
X1347300Y439596D02*
X1347300Y425000D01*
X1372700Y425000D02*
X1372700Y439596D01*
X1447300Y439596D02*
X1447300Y425000D01*
X1472700Y425000D02*
X1472700Y439596D01*
X1547300Y439596D02*
X1547300Y425000D01*
X1572700Y425000D02*
X1572700Y439596D01*
X1647300Y439596D02*
X1647300Y425000D01*
X1672700Y425000D02*
X1672700Y439596D01*
X1747300Y439596D02*
X1747300Y425000D01*
X1772700Y425000D02*
X1772700Y439596D01*
X1847300Y439596D02*
X1847300Y425000D01*
X1872700Y425000D02*
X1872700Y439596D01*
X1947300Y439596D02*
X1947300Y425000D01*
X1972700Y425000D02*
X1972700Y439596D01*
X2047300Y439596D02*
X2047300Y425000D01*
X2072700Y425000D02*
X2072700Y439596D01*
D16*
X311500Y500000D03*
X328500Y500000D03*
X1276500Y500000D03*
X1293500Y500000D03*
X1706500Y500000D03*
X1723500Y500000D03*
X2136500Y500000D03*
X2153500Y500000D03*
D12*
X854550Y390000D03*
X879950Y390000D03*
D11*
X905450Y390000D03*
D12*
X994550Y390000D03*
X1019950Y390000D03*
D11*
X1045450Y390000D03*
D16*
X1236500Y470000D03*
X1253500Y470000D03*
X1336500Y470000D03*
X1353500Y470000D03*
X1436500Y470000D03*
X1453500Y470000D03*
X1536500Y470000D03*
X1553500Y470000D03*
X1636500Y470000D03*
X1653500Y470000D03*
X511500Y500000D03*
X528500Y500000D03*
X1736500Y470000D03*
X1753500Y470000D03*
X1836500Y470000D03*
X1853500Y470000D03*
X1936500Y470000D03*
X1953500Y470000D03*
X2036500Y470000D03*
X2053500Y470000D03*
X2136500Y470000D03*
X2153500Y470000D03*
X2236500Y470000D03*
X2253500Y470000D03*
X2336500Y470000D03*
X2353500Y470000D03*
X711500Y500000D03*
X728500Y500000D03*
D17*
X415000Y848500D03*
X415000Y831500D03*
D18*
X545000Y770000D03*
X570000Y770000D03*
X595000Y770000D03*
D19*
X615000Y840000D03*
X525000Y840000D03*
D16*
X911500Y500000D03*
X928500Y500000D03*
D18*
X745000Y770000D03*
X770000Y770000D03*
X795000Y770000D03*
D19*
X815000Y840000D03*
X725000Y840000D03*
D18*
X945000Y770000D03*
X970000Y770000D03*
X995000Y770000D03*
D19*
X1015000Y840000D03*
X925000Y840000D03*
D18*
X1310000Y770000D03*
X1335000Y770000D03*
X1360000Y770000D03*
D19*
X1380000Y840000D03*
X1290000Y840000D03*
D18*
X1740000Y770000D03*
X1765000Y770000D03*
X1790000Y770000D03*
D19*
X1810000Y840000D03*
X1720000Y840000D03*
D18*
X2170000Y770000D03*
X2195000Y770000D03*
X2220000Y770000D03*
D19*
X2240000Y840000D03*
X2150000Y840000D03*
D20*
X297394Y555616D02*
X297394Y539360D01*
X342606Y539360D02*
X342606Y555616D01*
X297394Y604384D02*
X297394Y620640D01*
X342606Y620640D02*
X342606Y604384D01*
X497394Y555616D02*
X497394Y539360D01*
X542606Y539360D02*
X542606Y555616D01*
X497394Y604384D02*
X497394Y620640D01*
X542606Y620640D02*
X542606Y604384D01*
X697394Y555616D02*
X697394Y539360D01*
X742606Y539360D02*
X742606Y555616D01*
X697394Y604384D02*
X697394Y620640D01*
X742606Y620640D02*
X742606Y604384D01*
X897394Y555616D02*
X897394Y539360D01*
X942606Y539360D02*
X942606Y555616D01*
X897394Y604384D02*
X897394Y620640D01*
X942606Y620640D02*
X942606Y604384D01*
X1262394Y555616D02*
X1262394Y539360D01*
X1307606Y539360D02*
X1307606Y555616D01*
X1262394Y604384D02*
X1262394Y620640D01*
X1307606Y620640D02*
X1307606Y604384D01*
X1692394Y555616D02*
X1692394Y539360D01*
X1737606Y539360D02*
X1737606Y555616D01*
X1692394Y604384D02*
X1692394Y620640D01*
X1737606Y620640D02*
X1737606Y604384D01*
X2122394Y555616D02*
X2122394Y539360D01*
X2167606Y539360D02*
X2167606Y555616D01*
X2122394Y604384D02*
X2122394Y620640D01*
X2167606Y620640D02*
X2167606Y604384D01*
D21*
X2336274Y1017222D03*
X2310874Y1017222D03*
X2285474Y1017222D03*
X2260074Y1017222D03*
X2234674Y1017222D03*
X2209274Y1017222D03*
X2183874Y1017222D03*
X2158474Y1017222D03*
X2133074Y1017222D03*
X2107674Y1017222D03*
X2082274Y1017222D03*
X2056874Y1017222D03*
X2056874Y1169622D03*
X2082274Y1169622D03*
X2107674Y1169622D03*
X2133074Y1169622D03*
X2158474Y1169622D03*
X2183874Y1169622D03*
X2209274Y1169622D03*
X2234674Y1169622D03*
X2260074Y1169622D03*
X2285474Y1169622D03*
X2310874Y1169622D03*
X2361674Y1017222D03*
X2336274Y1169622D03*
X2361674Y1169622D03*
X2387074Y1017222D03*
X2387074Y1169622D03*
X2031474Y1017222D03*
X2031474Y1169622D03*
X2006074Y1017222D03*
X1980674Y1017222D03*
X1955274Y1017222D03*
X1929874Y1017222D03*
X1904474Y1017222D03*
X1879074Y1017222D03*
X1853674Y1017222D03*
X1828274Y1017222D03*
X1802874Y1017222D03*
X1802874Y1169622D03*
X1828274Y1169622D03*
X1853674Y1169622D03*
X1879074Y1169622D03*
X1904474Y1169622D03*
X1929874Y1169622D03*
X1955274Y1169622D03*
X1980674Y1169622D03*
X2006074Y1169622D03*
X1929874Y1042622D03*
X1929874Y1093422D03*
X1929874Y1118822D03*
X1929874Y1068022D03*
X1929874Y1144222D03*
X2361674Y1144222D03*
X2310874Y1144222D03*
X2285474Y1144222D03*
X2260074Y1144222D03*
X2323574Y1048972D03*
X2298174Y1048972D03*
X2272774Y1048972D03*
X2247374Y1048972D03*
X2221974Y1048972D03*
D22*
X488000Y1010300D03*
X488000Y1035700D03*
X488000Y1061100D03*
X488000Y1086500D03*
X408600Y1086500D03*
X408600Y1061100D03*
X408600Y1035700D03*
X408600Y1010300D03*
D23*
X621510Y573490D02*
X621510Y566510D01*
X621510Y573490D02*
X628490Y573490D01*
X628490Y566510D01*
X621510Y566510D01*
X621510Y571310D02*
X628490Y571310D01*
X596510Y573490D02*
X596510Y566510D01*
X596510Y573490D02*
X603490Y573490D01*
X603490Y566510D01*
X596510Y566510D01*
X596510Y571310D02*
X603490Y571310D01*
D16*
X601500Y550000D03*
X618500Y550000D03*
D23*
X421510Y566510D02*
X421510Y573490D01*
X428490Y573490D01*
X428490Y566510D01*
X421510Y566510D01*
X421510Y571310D02*
X428490Y571310D01*
X396510Y573490D02*
X396510Y566510D01*
X396510Y573490D02*
X403490Y573490D01*
X403490Y566510D01*
X396510Y566510D01*
X396510Y571310D02*
X403490Y571310D01*
D16*
X401500Y550000D03*
X418500Y550000D03*
D23*
X821510Y566510D02*
X821510Y573490D01*
X828490Y573490D01*
X828490Y566510D01*
X821510Y566510D01*
X821510Y571310D02*
X828490Y571310D01*
X796510Y573490D02*
X796510Y566510D01*
X796510Y573490D02*
X803490Y573490D01*
X803490Y566510D01*
X796510Y566510D01*
X796510Y571310D02*
X803490Y571310D01*
D16*
X801500Y550000D03*
X818500Y550000D03*
D23*
X1021510Y566510D02*
X1021510Y573490D01*
X1028490Y573490D01*
X1028490Y566510D01*
X1021510Y566510D01*
X1021510Y571310D02*
X1028490Y571310D01*
X996510Y573490D02*
X996510Y566510D01*
X996510Y573490D02*
X1003490Y573490D01*
X1003490Y566510D01*
X996510Y566510D01*
X996510Y571310D02*
X1003490Y571310D01*
D16*
X1001500Y550000D03*
X1018500Y550000D03*
D23*
X1386510Y566510D02*
X1386510Y573490D01*
X1393490Y573490D01*
X1393490Y566510D01*
X1386510Y566510D01*
X1386510Y571310D02*
X1393490Y571310D01*
X1361510Y573490D02*
X1361510Y566510D01*
X1361510Y573490D02*
X1368490Y573490D01*
X1368490Y566510D01*
X1361510Y566510D01*
X1361510Y571310D02*
X1368490Y571310D01*
D16*
X1366500Y550000D03*
X1383500Y550000D03*
D23*
X1816510Y566510D02*
X1816510Y573490D01*
X1823490Y573490D01*
X1823490Y566510D01*
X1816510Y566510D01*
X1816510Y571310D02*
X1823490Y571310D01*
X1791510Y573490D02*
X1791510Y566510D01*
X1791510Y573490D02*
X1798490Y573490D01*
X1798490Y566510D01*
X1791510Y566510D01*
X1791510Y571310D02*
X1798490Y571310D01*
D16*
X1796500Y550000D03*
X1813500Y550000D03*
D23*
X2246510Y566510D02*
X2246510Y573490D01*
X2253490Y573490D01*
X2253490Y566510D01*
X2246510Y566510D01*
X2246510Y571310D02*
X2253490Y571310D01*
X2221510Y573490D02*
X2221510Y566510D01*
X2221510Y573490D02*
X2228490Y573490D01*
X2228490Y566510D01*
X2221510Y566510D01*
X2221510Y571310D02*
X2228490Y571310D01*
D16*
X2226500Y550000D03*
X2243500Y550000D03*
D23*
X2326510Y986510D02*
X2326510Y993490D01*
X2333490Y993490D01*
X2333490Y986510D01*
X2326510Y986510D01*
X2326510Y991310D02*
X2333490Y991310D01*
X2301510Y993490D02*
X2301510Y986510D01*
X2301510Y993490D02*
X2308490Y993490D01*
X2308490Y986510D01*
X2301510Y986510D01*
X2301510Y991310D02*
X2308490Y991310D01*
D16*
X2366500Y990000D03*
X2383500Y990000D03*
D24*
X1200000Y400000D03*
X1240000Y400000D03*
X1750000Y400000D03*
X2410000Y400000D03*
X1880000Y400000D03*
M02*
