0
SECTION
2
HEADER
9
$INSUNITS
70
4
9
$ACADVER
1
AC1014
9
$HANDSEED
5
FFFF
0
ENDSEC
0
SECTION
2
TABLES
0
TABLE
2
VPORT
5
8
100
AcDbSymbolTable
0
ENDTAB
0
TABLE
2
LTYPE
5
5
100
AcDbSymbolTable
0
LTYPE
5
14
100
AcDbSymbolTableRecord
100
AcDbLinetypeTableRecord
2
BYBLOCK
70
0
0
LTYPE
5
15
100
AcDbSymbolTableRecord
100
AcDbLinetypeTableRecord
2
BYLAYER
70
0
0
ENDTAB
0
TABLE
2
LAYER
5
2
100
AcDbSymbolTable
70
2
0
LAYER
5
50
100
AcDbSymbolTableRecord
100
AcDbLayerTableRecord
2
0
70
0
6
CONTINUOUS
0
ENDTAB
0
TABLE
2
STYLE
5
3
100
AcDbSymbolTable
70
1
0
STYLE
5
11
100
AcDbSymbolTableRecord
100
AcDbTextStyleTableRecord
2
STANDARD
70
0
0
ENDTAB
0
TABLE
2
VIEW
5
6
100
AcDbSymbolTable
70
0
0
ENDTAB
0
TABLE
2
UCS
5
7
100
AcDbSymbolTable
70
0
0
ENDTAB
0
TABLE
2
APPID
5
9
100
AcDbSymbolTable
70
2
0
APPID
5
12
100
AcDbSymbolTableRecord
100
AcDbRegAppTableRecord
2
ACAD
70
0
0
ENDTAB
0
TABLE
2
DIMSTYLE
5
A
100
AcDbSymbolTable
70
1
0
ENDTAB
0
TABLE
2
BLOCK_RECORD
5
1
100
AcDbSymbolTable
70
1
0
BLOCK_RECORD
5
1F
100
AcDbSymbolTableRecord
100
AcDbBlockTableRecord
2
*MODEL_SPACE
0
BLOCK_RECORD
5
1B
100
AcDbSymbolTableRecord
100
AcDbBlockTableRecord
2
*PAPER_SPACE
0
ENDTAB
0
ENDSEC
0
SECTION
2
BLOCKS
0
BLOCK
5
20
100
AcDbEntity
100
AcDbBlockBegin
2
*MODEL_SPACE
0
ENDBLK
5
21
100
AcDbEntity
100
AcDbBlockEnd
0
BLOCK
5
1C
100
AcDbEntity
100
AcDbBlockBegin
2
*PAPER_SPACE
0
ENDBLK
5
1D
100
AcDbEntity
100
AcDbBlockEnd
0
ENDSEC
0
SECTION
2
ENTITIES
0
LWPOLYLINE
5
100
100
AcDbEntity
8
0
100
AcDbPolyline
90
6
70
1
43
0.0
10
112
20
36
10
22
20
35
10
21.999999999999993
20
118
10
243
20
119
10
243
20
1
10
112.00000000000001
20
1.0000000000000009
0
LWPOLYLINE
5
101
100
AcDbEntity
8
0
100
AcDbPolyline
90
4
70
1
43
0.0
10
215.80000000000001
20
82.950000000000003
10
214.20000000000002
20
82.950000000000003
10
214.20000000000002
20
85.050000000000011
10
215.80000000000001
20
85.050000000000011
0
LWPOLYLINE
5
102
100
AcDbEntity
8
0
100
AcDbPolyline
90
4
70
1
43
0.0
10
224.80000000000004
20
82.950000000000003
10
223.19999999999999
20
82.950000000000003
10
223.19999999999999
20
85.050000000000011
10
224.80000000000004
20
85.050000000000011
0
LWPOLYLINE
5
103
100
AcDbEntity
8
0
100
AcDbPolyline
90
4
70
1
43
0.0
10
172.80000000000001
20
82.950000000000003
10
171.20000000000002
20
82.950000000000003
10
171.20000000000002
20
85.050000000000011
10
172.80000000000001
20
85.050000000000011
0
LWPOLYLINE
5
104
100
AcDbEntity
8
0
100
AcDbPolyline
90
4
70
1
43
0.0
10
181.80000000000004
20
82.950000000000003
10
180.19999999999999
20
82.950000000000003
10
180.19999999999999
20
85.050000000000011
10
181.80000000000004
20
85.050000000000011
0
LWPOLYLINE
5
105
100
AcDbEntity
8
0
100
AcDbPolyline
90
4
70
1
43
0.0
10
129.80000000000001
20
82.950000000000003
10
128.19999999999999
20
82.950000000000003
10
128.19999999999999
20
85.050000000000011
10
129.80000000000001
20
85.050000000000011
0
LWPOLYLINE
5
106
100
AcDbEntity
8
0
100
AcDbPolyline
90
4
70
1
43
0.0
10
138.80000000000001
20
82.950000000000003
10
137.19999999999999
20
82.950000000000003
10
137.19999999999999
20
85.050000000000011
10
138.80000000000001
20
85.050000000000011
0
LWPOLYLINE
5
107
100
AcDbEntity
8
0
100
AcDbPolyline
90
4
70
1
43
0.0
10
93.299999999999997
20
82.950000000000003
10
91.700000000000003
20
82.950000000000003
10
91.700000000000003
20
85.050000000000011
10
93.299999999999997
20
85.050000000000011
0
LWPOLYLINE
5
108
100
AcDbEntity
8
0
100
AcDbPolyline
90
4
70
1
43
0.0
10
102.30000000000001
20
82.950000000000003
10
100.7
20
82.950000000000003
10
100.7
20
85.050000000000011
10
102.30000000000001
20
85.050000000000011
0
LWPOLYLINE
5
109
100
AcDbEntity
8
0
100
AcDbPolyline
90
4
70
1
43
0.0
10
27.400000000000002
20
86.25
10
26.600000000000001
20
86.25
10
26.600000000000001
20
87.75
10
27.400000000000002
20
87.75
0
LWPOLYLINE
5
110
100
AcDbEntity
8
0
100
AcDbPolyline
90
4
70
1
43
0.0
10
73.299999999999997
20
82.950000000000003
10
71.700000000000003
20
82.950000000000003
10
71.700000000000003
20
85.050000000000011
10
73.299999999999997
20
85.050000000000011
0
LWPOLYLINE
5
111
100
AcDbEntity
8
0
100
AcDbPolyline
90
4
70
1
43
0.0
10
82.300000000000011
20
82.950000000000003
10
80.700000000000003
20
82.950000000000003
10
80.700000000000003
20
85.050000000000011
10
82.300000000000011
20
85.050000000000011
0
LWPOLYLINE
5
112
100
AcDbEntity
8
0
100
AcDbPolyline
90
4
70
1
43
0.0
10
53.299999999999997
20
82.950000000000003
10
51.70000000000001
20
82.950000000000003
10
51.70000000000001
20
85.050000000000011
10
53.299999999999997
20
85.050000000000011
0
LWPOLYLINE
5
113
100
AcDbEntity
8
0
100
AcDbPolyline
90
4
70
1
43
0.0
10
62.300000000000004
20
82.950000000000003
10
60.700000000000003
20
82.950000000000003
10
60.700000000000003
20
85.050000000000011
10
62.300000000000004
20
85.050000000000011
0
LWPOLYLINE
5
114
100
AcDbEntity
8
0
100
AcDbPolyline
90
4
70
1
43
0.0
10
32.75
20
81.599999999999994
10
31.25
20
81.599999999999994
10
31.25
20
82.400000000000006
10
32.75
20
82.400000000000006
0
LWPOLYLINE
5
115
100
AcDbEntity
8
0
100
AcDbPolyline
90
4
70
1
43
0.0
10
32.75
20
84.099999999999994
10
31.25
20
84.099999999999994
10
31.25
20
84.900000000000006
10
32.75
20
84.900000000000006
0
LWPOLYLINE
5
116
100
AcDbEntity
8
0
100
AcDbPolyline
90
4
70
1
43
0.0
10
32.75
20
91.599999999999994
10
31.25
20
91.599999999999994
10
31.25
20
92.400000000000006
10
32.75
20
92.400000000000006
0
LWPOLYLINE
5
117
100
AcDbEntity
8
0
100
AcDbPolyline
90
4
70
1
43
0.0
10
32.75
20
89.099999999999994
10
31.25
20
89.099999999999994
10
31.25
20
89.900000000000006
10
32.75
20
89.900000000000006
0
ENDSEC
0
SECTION
2
OBJECTS
0
DICTIONARY
5
C
100
AcDbDictionary
3
ACAD_GROUP
350
D
3
ACAD_MLINESTYLE
350
17
0
DICTIONARY
5
D
100
AcDbDictionary
0
DICTIONARY
5
1A
330
C
100
AcDbDictionary
0
DICTIONARY
5
17
100
AcDbDictionary
0
ENDSEC
0
EOF
