G04 EAGLE Gerber RS-274X export*
G75*
%MOMM*%
%FSLAX34Y34*%
%LPD*%
%INTop Copper*%
%IPPOS*%
%AMOC8*
5,1,8,0,0,1.08239X$1,22.5*%
G01*
G04 Define Apertures*
%ADD10P,1.73204X8X112.5*%
%ADD11R,1.459600X1.459600*%
%ADD12C,1.459600*%
%ADD13C,1.409600*%
%ADD14C,1.459600*%
%ADD15C,1.509600*%
%ADD16C,1.709600*%
%ADD17R,2.800000X2.800000*%
%ADD18C,1.625600*%
%ADD19C,1.574800*%
%ADD20C,1.389600*%
%ADD21C,3.000000*%
%ADD22C,0.243331*%
%ADD23C,1.016000*%
%ADD24C,0.203200*%
G36*
X2426435Y430060D02*
X2426685Y430232D01*
X2426849Y430487D01*
X2426900Y430762D01*
X2426900Y1185060D01*
X2426840Y1185358D01*
X2426668Y1185608D01*
X2426413Y1185771D01*
X2426114Y1185822D01*
X2425819Y1185752D01*
X2425599Y1185599D01*
X2420044Y1180044D01*
X2420017Y1180025D01*
X2419912Y1180000D01*
X2394056Y1180000D01*
X2393758Y1179940D01*
X2393508Y1179768D01*
X2393345Y1179513D01*
X2393294Y1179214D01*
X2393364Y1178919D01*
X2393517Y1178699D01*
X2396377Y1175839D01*
X2398048Y1171805D01*
X2398048Y1167440D01*
X2397456Y1166010D01*
X2397398Y1165713D01*
X2397461Y1165416D01*
X2397621Y1165180D01*
X2406471Y1156330D01*
X2406471Y1123949D01*
X2377135Y1094614D01*
X2343692Y1094614D01*
X2343395Y1094554D01*
X2343144Y1094382D01*
X2342981Y1094127D01*
X2342930Y1093828D01*
X2342988Y1093561D01*
X2343144Y1093183D01*
X2343314Y1092932D01*
X2343568Y1092766D01*
X2343848Y1092713D01*
X2372337Y1092713D01*
X2387713Y1077337D01*
X2387713Y1060645D01*
X2387773Y1060348D01*
X2387936Y1060107D01*
X2414317Y1033726D01*
X2414317Y821897D01*
X2391707Y799287D01*
X2391539Y799035D01*
X2391484Y798736D01*
X2391549Y798440D01*
X2391724Y798193D01*
X2391954Y798045D01*
X2394634Y796935D01*
X2396935Y794634D01*
X2398180Y791627D01*
X2398180Y788373D01*
X2396935Y785366D01*
X2394540Y782972D01*
X2394372Y782719D01*
X2394317Y782433D01*
X2394317Y513162D01*
X2394377Y512864D01*
X2394540Y512623D01*
X2413760Y493403D01*
X2414012Y493236D01*
X2414298Y493180D01*
X2417685Y493180D01*
X2420692Y491935D01*
X2422993Y489634D01*
X2424238Y486627D01*
X2424238Y483373D01*
X2422993Y480366D01*
X2420692Y478065D01*
X2417685Y476820D01*
X2414431Y476820D01*
X2411424Y478065D01*
X2409123Y480366D01*
X2407878Y483373D01*
X2407878Y486760D01*
X2407818Y487057D01*
X2407655Y487299D01*
X2385683Y509270D01*
X2385683Y782433D01*
X2385623Y782730D01*
X2385460Y782972D01*
X2383065Y785366D01*
X2381955Y788046D01*
X2381786Y788297D01*
X2381532Y788463D01*
X2381233Y788516D01*
X2380938Y788449D01*
X2380713Y788293D01*
X2248638Y656218D01*
X2227190Y656218D01*
X2226893Y656158D01*
X2226643Y655986D01*
X2226479Y655731D01*
X2226428Y655432D01*
X2226498Y655137D01*
X2226651Y654917D01*
X2226935Y654634D01*
X2228180Y651627D01*
X2228180Y648373D01*
X2226935Y645366D01*
X2224540Y642972D01*
X2224372Y642719D01*
X2224317Y642433D01*
X2224317Y581410D01*
X2224377Y581113D01*
X2224549Y580863D01*
X2224804Y580699D01*
X2225079Y580648D01*
X2227118Y580648D01*
X2231032Y579027D01*
X2234027Y576032D01*
X2235648Y572118D01*
X2235648Y567882D01*
X2234027Y563968D01*
X2231032Y560973D01*
X2227118Y559352D01*
X2222882Y559352D01*
X2218968Y560973D01*
X2215973Y563968D01*
X2214352Y567882D01*
X2214352Y572118D01*
X2215625Y575192D01*
X2215683Y575484D01*
X2215683Y642433D01*
X2215623Y642730D01*
X2215460Y642972D01*
X2213065Y645366D01*
X2211820Y648373D01*
X2211820Y651627D01*
X2213065Y654634D01*
X2213349Y654917D01*
X2213516Y655170D01*
X2213572Y655468D01*
X2213507Y655764D01*
X2213332Y656012D01*
X2213073Y656171D01*
X2212810Y656218D01*
X2087190Y656218D01*
X2086893Y656158D01*
X2086643Y655986D01*
X2086479Y655731D01*
X2086428Y655432D01*
X2086498Y655137D01*
X2086651Y654917D01*
X2086935Y654634D01*
X2088180Y651627D01*
X2088180Y648373D01*
X2086935Y645366D01*
X2084540Y642972D01*
X2084372Y642719D01*
X2084317Y642433D01*
X2084317Y591702D01*
X2084377Y591405D01*
X2084540Y591163D01*
X2112762Y562941D01*
X2113015Y562773D01*
X2113313Y562718D01*
X2113609Y562783D01*
X2113840Y562941D01*
X2116034Y565135D01*
X2120161Y566844D01*
X2124627Y566844D01*
X2128754Y565135D01*
X2131913Y561976D01*
X2133622Y557849D01*
X2133622Y551283D01*
X2133682Y550985D01*
X2133854Y550735D01*
X2134109Y550572D01*
X2134408Y550521D01*
X2134703Y550591D01*
X2134923Y550744D01*
X2158295Y574116D01*
X2186705Y574116D01*
X2261482Y499339D01*
X2261735Y499172D01*
X2262021Y499116D01*
X2322979Y499116D01*
X2323277Y499176D01*
X2323518Y499339D01*
X2331321Y507142D01*
X2331489Y507395D01*
X2331545Y507693D01*
X2331479Y507990D01*
X2331321Y508220D01*
X2330973Y508568D01*
X2329352Y512482D01*
X2329352Y516718D01*
X2330973Y520632D01*
X2333968Y523627D01*
X2337882Y525248D01*
X2342118Y525248D01*
X2346032Y523627D01*
X2349027Y520632D01*
X2350648Y516718D01*
X2350648Y512482D01*
X2349027Y508568D01*
X2346032Y505573D01*
X2342118Y503952D01*
X2340089Y503952D01*
X2339791Y503892D01*
X2339550Y503729D01*
X2326705Y490884D01*
X2318516Y490884D01*
X2318219Y490824D01*
X2317968Y490652D01*
X2317805Y490397D01*
X2317754Y490098D01*
X2317824Y489803D01*
X2318003Y489558D01*
X2318224Y489418D01*
X2320314Y488552D01*
X2323152Y485714D01*
X2324688Y482007D01*
X2324688Y480762D01*
X2304512Y480762D01*
X2304512Y482007D01*
X2306048Y485714D01*
X2308886Y488552D01*
X2310976Y489418D01*
X2311227Y489588D01*
X2311393Y489842D01*
X2311446Y490140D01*
X2311379Y490436D01*
X2311201Y490682D01*
X2310942Y490839D01*
X2310684Y490884D01*
X2258295Y490884D01*
X2183518Y565661D01*
X2183265Y565828D01*
X2182979Y565884D01*
X2174264Y565884D01*
X2173967Y565824D01*
X2173717Y565652D01*
X2173554Y565397D01*
X2173503Y565098D01*
X2173573Y564803D01*
X2173726Y564583D01*
X2176650Y561659D01*
X2178274Y557738D01*
X2178274Y548250D01*
X2156938Y548250D01*
X2156938Y557738D01*
X2157861Y559967D01*
X2157919Y560265D01*
X2157857Y560562D01*
X2157683Y560810D01*
X2157426Y560972D01*
X2157127Y561020D01*
X2156832Y560948D01*
X2156619Y560798D01*
X2139280Y543459D01*
X2139113Y543206D01*
X2139057Y542920D01*
X2139057Y533236D01*
X2136646Y530825D01*
X2133236Y530825D01*
X2132026Y532035D01*
X2131773Y532203D01*
X2131475Y532258D01*
X2131179Y532193D01*
X2130948Y532035D01*
X2128754Y529841D01*
X2124627Y528132D01*
X2120161Y528132D01*
X2116034Y529841D01*
X2112875Y533000D01*
X2111166Y537127D01*
X2111166Y552579D01*
X2111106Y552877D01*
X2110943Y553118D01*
X2078719Y585342D01*
X2078466Y585510D01*
X2078220Y585558D01*
X2075683Y588094D01*
X2075683Y642433D01*
X2075623Y642730D01*
X2075460Y642972D01*
X2073065Y645366D01*
X2071820Y648373D01*
X2071820Y651627D01*
X2073065Y654634D01*
X2073349Y654917D01*
X2073516Y655170D01*
X2073572Y655468D01*
X2073507Y655764D01*
X2073332Y656012D01*
X2073073Y656171D01*
X2072810Y656218D01*
X1982190Y656218D01*
X1981893Y656158D01*
X1981643Y655986D01*
X1981479Y655731D01*
X1981428Y655432D01*
X1981498Y655137D01*
X1981651Y654917D01*
X1981935Y654634D01*
X1983180Y651627D01*
X1983180Y648373D01*
X1981935Y645366D01*
X1981875Y645307D01*
X1981708Y645054D01*
X1981652Y644756D01*
X1981717Y644460D01*
X1981875Y644229D01*
X2082702Y543403D01*
X2082954Y543236D01*
X2083240Y543180D01*
X2086627Y543180D01*
X2089634Y541935D01*
X2091935Y539634D01*
X2093180Y536627D01*
X2093180Y533373D01*
X2091935Y530366D01*
X2089634Y528065D01*
X2086627Y526820D01*
X2083373Y526820D01*
X2080366Y528065D01*
X2078065Y530366D01*
X2076820Y533373D01*
X2076820Y536760D01*
X2076760Y537057D01*
X2076597Y537299D01*
X1971265Y642630D01*
X1971018Y642796D01*
X1970366Y643065D01*
X1968039Y645393D01*
X1967786Y645560D01*
X1967488Y645616D01*
X1967192Y645551D01*
X1966961Y645393D01*
X1964540Y642972D01*
X1964372Y642719D01*
X1964317Y642433D01*
X1964317Y617104D01*
X1964377Y616806D01*
X1964540Y616565D01*
X2112702Y468403D01*
X2112954Y468236D01*
X2113240Y468180D01*
X2116627Y468180D01*
X2119634Y466935D01*
X2121935Y464634D01*
X2123180Y461627D01*
X2123180Y458373D01*
X2121935Y455366D01*
X2119634Y453065D01*
X2116627Y451820D01*
X2113373Y451820D01*
X2110366Y453065D01*
X2108065Y455366D01*
X2106820Y458373D01*
X2106820Y461760D01*
X2106760Y462057D01*
X2106597Y462299D01*
X1955683Y613212D01*
X1955683Y642433D01*
X1955623Y642730D01*
X1955460Y642972D01*
X1953039Y645393D01*
X1952786Y645560D01*
X1952488Y645616D01*
X1952192Y645551D01*
X1951961Y645393D01*
X1949634Y643065D01*
X1946627Y641820D01*
X1943373Y641820D01*
X1940366Y643065D01*
X1937972Y645460D01*
X1937719Y645628D01*
X1937433Y645683D01*
X1876820Y645683D01*
X1876523Y645623D01*
X1876281Y645460D01*
X1819935Y589114D01*
X1819768Y588861D01*
X1819712Y588575D01*
X1819712Y581410D01*
X1819772Y581113D01*
X1819944Y580863D01*
X1820199Y580699D01*
X1820474Y580648D01*
X1822118Y580648D01*
X1826032Y579027D01*
X1826380Y578679D01*
X1826633Y578511D01*
X1826931Y578455D01*
X1827227Y578521D01*
X1827458Y578679D01*
X1859785Y611006D01*
X1859953Y611259D01*
X1860009Y611557D01*
X1859951Y611837D01*
X1859352Y613282D01*
X1859352Y617518D01*
X1860973Y621432D01*
X1863968Y624427D01*
X1867882Y626048D01*
X1872118Y626048D01*
X1876032Y624427D01*
X1879027Y621432D01*
X1880648Y617518D01*
X1880648Y613282D01*
X1879027Y609368D01*
X1876032Y606373D01*
X1872118Y604752D01*
X1867882Y604752D01*
X1866437Y605351D01*
X1866139Y605409D01*
X1865842Y605346D01*
X1865606Y605185D01*
X1830871Y570450D01*
X1830704Y570197D01*
X1830648Y569911D01*
X1830648Y567882D01*
X1829027Y563968D01*
X1826032Y560973D01*
X1822118Y559352D01*
X1817882Y559352D01*
X1813968Y560973D01*
X1810973Y563968D01*
X1809352Y567882D01*
X1809352Y569926D01*
X1809292Y570223D01*
X1809120Y570473D01*
X1808865Y570637D01*
X1808590Y570688D01*
X1806410Y570688D01*
X1806113Y570628D01*
X1805863Y570456D01*
X1805699Y570201D01*
X1805648Y569926D01*
X1805648Y567882D01*
X1804027Y563968D01*
X1801032Y560973D01*
X1797118Y559352D01*
X1792882Y559352D01*
X1788968Y560973D01*
X1785973Y563968D01*
X1784352Y567882D01*
X1784352Y572118D01*
X1785973Y576032D01*
X1788968Y579027D01*
X1789428Y579217D01*
X1789680Y579387D01*
X1789845Y579641D01*
X1789898Y579940D01*
X1789831Y580235D01*
X1789653Y580481D01*
X1789394Y580638D01*
X1789136Y580683D01*
X1731726Y580683D01*
X1731429Y580623D01*
X1731187Y580460D01*
X1703845Y553118D01*
X1703678Y552865D01*
X1703622Y552579D01*
X1703622Y542397D01*
X1703682Y542099D01*
X1703845Y541858D01*
X1717360Y528343D01*
X1717613Y528176D01*
X1717899Y528120D01*
X1733034Y528120D01*
X1733331Y528180D01*
X1733581Y528352D01*
X1733745Y528607D01*
X1733796Y528906D01*
X1733726Y529201D01*
X1733547Y529446D01*
X1733326Y529586D01*
X1731563Y530316D01*
X1728562Y533317D01*
X1726938Y537238D01*
X1726938Y546726D01*
X1748274Y546726D01*
X1748274Y537238D01*
X1746650Y533317D01*
X1743649Y530316D01*
X1741886Y529586D01*
X1741635Y529417D01*
X1741469Y529162D01*
X1741416Y528864D01*
X1741484Y528568D01*
X1741661Y528322D01*
X1741920Y528165D01*
X1742178Y528120D01*
X1872369Y528120D01*
X1872666Y528180D01*
X1872907Y528343D01*
X1890988Y546423D01*
X1903997Y546423D01*
X1905606Y544815D01*
X1905859Y544647D01*
X1906157Y544591D01*
X1906437Y544649D01*
X1907882Y545248D01*
X1912118Y545248D01*
X1916032Y543627D01*
X1919027Y540632D01*
X1919418Y539688D01*
X1919588Y539436D01*
X1919842Y539271D01*
X1920140Y539217D01*
X1920436Y539285D01*
X1920682Y539462D01*
X1920839Y539722D01*
X1920884Y539979D01*
X1920884Y588379D01*
X1920824Y588677D01*
X1920661Y588918D01*
X1914394Y595185D01*
X1914141Y595353D01*
X1913843Y595409D01*
X1913563Y595351D01*
X1912118Y594752D01*
X1907882Y594752D01*
X1903968Y596373D01*
X1900973Y599368D01*
X1899352Y603282D01*
X1899352Y607518D01*
X1900973Y611432D01*
X1903968Y614427D01*
X1907882Y616048D01*
X1912118Y616048D01*
X1916032Y614427D01*
X1919027Y611432D01*
X1920648Y607518D01*
X1920648Y603282D01*
X1920049Y601837D01*
X1919991Y601539D01*
X1920054Y601242D01*
X1920215Y601006D01*
X1929116Y592105D01*
X1929116Y524881D01*
X1929176Y524584D01*
X1929348Y524334D01*
X1929603Y524171D01*
X1929902Y524120D01*
X1930197Y524190D01*
X1930442Y524369D01*
X1930582Y524590D01*
X1931048Y525714D01*
X1933886Y528552D01*
X1937593Y530088D01*
X1938838Y530088D01*
X1938838Y509912D01*
X1937593Y509912D01*
X1933886Y511448D01*
X1931048Y514286D01*
X1930582Y515410D01*
X1930413Y515662D01*
X1930158Y515827D01*
X1929860Y515880D01*
X1929564Y515813D01*
X1929318Y515635D01*
X1929161Y515376D01*
X1929116Y515119D01*
X1929116Y502021D01*
X1929176Y501723D01*
X1929339Y501482D01*
X1944116Y486705D01*
X1944116Y482021D01*
X1944176Y481723D01*
X1944339Y481482D01*
X1947047Y478774D01*
X1947047Y455221D01*
X1947108Y454924D01*
X1947279Y454674D01*
X1947535Y454511D01*
X1947809Y454459D01*
X1957415Y454459D01*
X1958125Y453750D01*
X1958378Y453582D01*
X1958664Y453527D01*
X1967049Y453527D01*
X1967347Y453587D01*
X1967588Y453750D01*
X1968155Y454317D01*
X2040685Y454317D01*
X2040982Y454377D01*
X2041104Y454459D01*
X2053457Y454459D01*
X2058836Y449080D01*
X2059089Y448913D01*
X2059375Y448857D01*
X2064215Y448857D01*
X2064513Y448917D01*
X2064754Y449080D01*
X2065067Y449394D01*
X2069030Y449394D01*
X2069322Y449452D01*
X2070632Y449994D01*
X2074768Y449994D01*
X2076078Y449452D01*
X2076370Y449394D01*
X2135762Y449394D01*
X2136059Y449454D01*
X2136301Y449617D01*
X2141143Y454459D01*
X2151186Y454459D01*
X2151484Y454520D01*
X2151734Y454691D01*
X2151897Y454947D01*
X2151948Y455246D01*
X2151878Y455541D01*
X2151725Y455760D01*
X2149183Y458302D01*
X2149183Y461890D01*
X2149328Y462108D01*
X2149384Y462394D01*
X2149384Y484805D01*
X2170185Y505606D01*
X2170353Y505859D01*
X2170409Y506157D01*
X2170351Y506437D01*
X2169752Y507882D01*
X2169752Y512118D01*
X2171373Y516032D01*
X2174368Y519027D01*
X2178282Y520648D01*
X2182518Y520648D01*
X2186432Y519027D01*
X2189427Y516032D01*
X2191048Y512118D01*
X2191048Y508324D01*
X2191108Y508026D01*
X2191280Y507776D01*
X2191535Y507613D01*
X2191834Y507562D01*
X2192129Y507632D01*
X2192349Y507785D01*
X2193629Y509065D01*
X2193796Y509318D01*
X2193852Y509604D01*
X2193852Y526853D01*
X2193792Y527150D01*
X2193620Y527400D01*
X2193382Y527557D01*
X2191035Y528529D01*
X2188734Y530830D01*
X2187489Y533837D01*
X2187489Y537091D01*
X2188734Y540097D01*
X2191035Y542398D01*
X2194042Y543644D01*
X2197296Y543644D01*
X2200302Y542398D01*
X2202603Y540097D01*
X2203849Y537091D01*
X2203849Y533837D01*
X2202545Y530690D01*
X2202546Y530690D01*
X2202541Y530682D01*
X2202485Y530397D01*
X2202485Y505712D01*
X2194540Y497766D01*
X2194372Y497514D01*
X2194317Y497228D01*
X2194317Y497104D01*
X2194377Y496806D01*
X2194540Y496565D01*
X2212702Y478403D01*
X2212954Y478236D01*
X2213240Y478180D01*
X2216627Y478180D01*
X2219634Y476935D01*
X2221935Y474634D01*
X2223180Y471627D01*
X2223180Y468373D01*
X2221935Y465366D01*
X2219634Y463065D01*
X2216627Y461820D01*
X2213373Y461820D01*
X2210366Y463065D01*
X2208065Y465366D01*
X2206820Y468373D01*
X2206820Y471760D01*
X2206760Y472057D01*
X2206597Y472299D01*
X2185683Y493212D01*
X2185683Y499523D01*
X2185623Y499820D01*
X2185452Y500070D01*
X2185196Y500233D01*
X2184897Y500284D01*
X2184630Y500227D01*
X2182518Y499352D01*
X2178282Y499352D01*
X2176837Y499951D01*
X2176539Y500009D01*
X2176242Y499946D01*
X2176006Y499785D01*
X2157839Y481618D01*
X2157672Y481365D01*
X2157616Y481079D01*
X2157616Y462394D01*
X2157676Y462097D01*
X2157839Y461856D01*
X2159497Y460198D01*
X2159749Y460031D01*
X2160035Y459975D01*
X2163422Y459975D01*
X2166429Y458730D01*
X2168730Y456429D01*
X2169410Y454787D01*
X2169579Y454536D01*
X2169833Y454370D01*
X2170114Y454317D01*
X2240685Y454317D01*
X2240982Y454377D01*
X2241104Y454459D01*
X2257415Y454459D01*
X2261658Y450217D01*
X2261910Y450050D01*
X2262196Y449994D01*
X2270480Y449994D01*
X2270480Y449994D01*
X2272369Y449994D01*
X2272666Y450054D01*
X2272907Y450217D01*
X2277007Y454317D01*
X2284921Y454317D01*
X2285219Y454377D01*
X2285469Y454549D01*
X2285632Y454804D01*
X2285683Y455079D01*
X2285683Y456788D01*
X2288212Y459317D01*
X2355122Y459317D01*
X2355419Y459377D01*
X2355669Y459549D01*
X2355833Y459804D01*
X2355884Y460079D01*
X2355884Y531705D01*
X2370661Y546482D01*
X2370828Y546735D01*
X2370884Y547021D01*
X2370884Y548379D01*
X2370824Y548677D01*
X2370661Y548918D01*
X2344394Y575185D01*
X2344141Y575353D01*
X2343843Y575409D01*
X2343563Y575351D01*
X2342118Y574752D01*
X2337882Y574752D01*
X2333968Y576373D01*
X2330973Y579368D01*
X2329352Y583282D01*
X2329352Y587518D01*
X2330973Y591432D01*
X2333968Y594427D01*
X2337882Y596048D01*
X2342118Y596048D01*
X2346032Y594427D01*
X2349027Y591432D01*
X2350648Y587518D01*
X2350648Y583282D01*
X2350049Y581837D01*
X2349991Y581539D01*
X2350054Y581242D01*
X2350215Y581006D01*
X2379116Y552105D01*
X2379116Y543295D01*
X2364339Y528518D01*
X2364172Y528265D01*
X2364116Y527979D01*
X2364116Y460079D01*
X2364176Y459781D01*
X2364348Y459531D01*
X2364603Y459368D01*
X2364878Y459317D01*
X2391788Y459317D01*
X2394317Y456788D01*
X2394317Y433212D01*
X2392406Y431301D01*
X2392238Y431048D01*
X2392182Y430750D01*
X2392248Y430454D01*
X2392423Y430206D01*
X2392681Y430047D01*
X2392944Y430000D01*
X2426138Y430000D01*
X2426435Y430060D01*
G37*
%LPC*%
G36*
X2165373Y593156D02*
X2161246Y594865D01*
X2158087Y598024D01*
X2156378Y602151D01*
X2156378Y622873D01*
X2158087Y627000D01*
X2161246Y630159D01*
X2165373Y631868D01*
X2169839Y631868D01*
X2173966Y630159D01*
X2177125Y627000D01*
X2178834Y622873D01*
X2178834Y602151D01*
X2177125Y598024D01*
X2173966Y594865D01*
X2169839Y593156D01*
X2165373Y593156D01*
G37*
G36*
X2120161Y593156D02*
X2116034Y594865D01*
X2112875Y598024D01*
X2111166Y602151D01*
X2111166Y622873D01*
X2112875Y627000D01*
X2116034Y630159D01*
X2120161Y631868D01*
X2124627Y631868D01*
X2128754Y630159D01*
X2131913Y627000D01*
X2133622Y622873D01*
X2133622Y602151D01*
X2131913Y598024D01*
X2128754Y594865D01*
X2124627Y593156D01*
X2120161Y593156D01*
G37*
G36*
X2269912Y543036D02*
X2269912Y544281D01*
X2271448Y547988D01*
X2274286Y550826D01*
X2274507Y550918D01*
X2274759Y551088D01*
X2274924Y551342D01*
X2274977Y551640D01*
X2274910Y551936D01*
X2274733Y552182D01*
X2274473Y552339D01*
X2274216Y552384D01*
X2248295Y552384D01*
X2245884Y554795D01*
X2245884Y559670D01*
X2245824Y559968D01*
X2245652Y560218D01*
X2245414Y560374D01*
X2243968Y560973D01*
X2240973Y563968D01*
X2239352Y567882D01*
X2239352Y572118D01*
X2240973Y576032D01*
X2243968Y579027D01*
X2247882Y580648D01*
X2252118Y580648D01*
X2256032Y579027D01*
X2259027Y576032D01*
X2260648Y572118D01*
X2260648Y567882D01*
X2259027Y563968D01*
X2256975Y561917D01*
X2256808Y561664D01*
X2256752Y561366D01*
X2256817Y561070D01*
X2256993Y560822D01*
X2257251Y560663D01*
X2257514Y560616D01*
X2274079Y560616D01*
X2274377Y560676D01*
X2274618Y560839D01*
X2294785Y581006D01*
X2294953Y581259D01*
X2295009Y581557D01*
X2294951Y581837D01*
X2294352Y583282D01*
X2294352Y587518D01*
X2295973Y591432D01*
X2298968Y594427D01*
X2302882Y596048D01*
X2307118Y596048D01*
X2311032Y594427D01*
X2314027Y591432D01*
X2315648Y587518D01*
X2315648Y583282D01*
X2314027Y579368D01*
X2311032Y576373D01*
X2307118Y574752D01*
X2302882Y574752D01*
X2301437Y575351D01*
X2301139Y575409D01*
X2300842Y575346D01*
X2300606Y575185D01*
X2279084Y553663D01*
X2278916Y553410D01*
X2278861Y553112D01*
X2278926Y552816D01*
X2279101Y552568D01*
X2279238Y552484D01*
X2279238Y543036D01*
X2269912Y543036D01*
G37*
G36*
X1726938Y548250D02*
X1726938Y557738D01*
X1728562Y561659D01*
X1731563Y564660D01*
X1735484Y566284D01*
X1736844Y566284D01*
X1736844Y548250D01*
X1726938Y548250D01*
G37*
G36*
X1738368Y548250D02*
X1738368Y566284D01*
X1739728Y566284D01*
X1743649Y564660D01*
X1746650Y561659D01*
X1748274Y557738D01*
X1748274Y548250D01*
X1738368Y548250D01*
G37*
G36*
X1859912Y545362D02*
X1859912Y546607D01*
X1861448Y550314D01*
X1864286Y553152D01*
X1867993Y554688D01*
X1869238Y554688D01*
X1869238Y545362D01*
X1859912Y545362D01*
G37*
G36*
X1870762Y545362D02*
X1870762Y554688D01*
X1872007Y554688D01*
X1875714Y553152D01*
X1878552Y550314D01*
X1880088Y546607D01*
X1880088Y545362D01*
X1870762Y545362D01*
G37*
G36*
X2280762Y543036D02*
X2280762Y552362D01*
X2282007Y552362D01*
X2285714Y550826D01*
X2288552Y547988D01*
X2290088Y544281D01*
X2290088Y543036D01*
X2280762Y543036D01*
G37*
G36*
X2165484Y528692D02*
X2161563Y530316D01*
X2158562Y533317D01*
X2156938Y537238D01*
X2156938Y546726D01*
X2166844Y546726D01*
X2166844Y528692D01*
X2165484Y528692D01*
G37*
G36*
X2168368Y528692D02*
X2168368Y546726D01*
X2178274Y546726D01*
X2178274Y537238D01*
X2176650Y533317D01*
X2173649Y530316D01*
X2169728Y528692D01*
X2168368Y528692D01*
G37*
G36*
X1867993Y534512D02*
X1864286Y536048D01*
X1861448Y538886D01*
X1859912Y542593D01*
X1859912Y543838D01*
X1869238Y543838D01*
X1869238Y534512D01*
X1867993Y534512D01*
G37*
G36*
X1870762Y534512D02*
X1870762Y543838D01*
X1880088Y543838D01*
X1880088Y542593D01*
X1878552Y538886D01*
X1875714Y536048D01*
X1872007Y534512D01*
X1870762Y534512D01*
G37*
G36*
X2277993Y532186D02*
X2274286Y533722D01*
X2271448Y536560D01*
X2269912Y540267D01*
X2269912Y541512D01*
X2279238Y541512D01*
X2279238Y532186D01*
X2277993Y532186D01*
G37*
G36*
X2280762Y532186D02*
X2280762Y541512D01*
X2290088Y541512D01*
X2290088Y540267D01*
X2288552Y536560D01*
X2285714Y533722D01*
X2282007Y532186D01*
X2280762Y532186D01*
G37*
G36*
X1958383Y469359D02*
X1955376Y470604D01*
X1953075Y472905D01*
X1951830Y475912D01*
X1951830Y479166D01*
X1953075Y482172D01*
X1955376Y484473D01*
X1958383Y485719D01*
X1961637Y485719D01*
X1964644Y484473D01*
X1966309Y482808D01*
X1966562Y482640D01*
X1966860Y482585D01*
X1967156Y482650D01*
X1967387Y482808D01*
X2000185Y515606D01*
X2000353Y515859D01*
X2000409Y516157D01*
X2000351Y516437D01*
X1999752Y517882D01*
X1999752Y522118D01*
X2001373Y526032D01*
X2004368Y529027D01*
X2008282Y530648D01*
X2012518Y530648D01*
X2016432Y529027D01*
X2019427Y526032D01*
X2021048Y522118D01*
X2021048Y517882D01*
X2019427Y513968D01*
X2016432Y510973D01*
X2012518Y509352D01*
X2008282Y509352D01*
X2006837Y509951D01*
X2006539Y510009D01*
X2006242Y509946D01*
X2006006Y509785D01*
X1969644Y473423D01*
X1967668Y473423D01*
X1967371Y473362D01*
X1967121Y473191D01*
X1966964Y472952D01*
X1966945Y472905D01*
X1964644Y470604D01*
X1961637Y469359D01*
X1958383Y469359D01*
G37*
G36*
X1940362Y520762D02*
X1940362Y530088D01*
X1941607Y530088D01*
X1945314Y528552D01*
X1948152Y525714D01*
X1949688Y522007D01*
X1949688Y520762D01*
X1940362Y520762D01*
G37*
G36*
X2294912Y515362D02*
X2294912Y516607D01*
X2296448Y520314D01*
X2299286Y523152D01*
X2302993Y524688D01*
X2304238Y524688D01*
X2304238Y515362D01*
X2294912Y515362D01*
G37*
G36*
X2305762Y515362D02*
X2305762Y524688D01*
X2307007Y524688D01*
X2310714Y523152D01*
X2313552Y520314D01*
X2315088Y516607D01*
X2315088Y515362D01*
X2305762Y515362D01*
G37*
G36*
X2110362Y510762D02*
X2110362Y520088D01*
X2111607Y520088D01*
X2115314Y518552D01*
X2118152Y515714D01*
X2119688Y512007D01*
X2119688Y510762D01*
X2110362Y510762D01*
G37*
G36*
X2099512Y510762D02*
X2099512Y512007D01*
X2101048Y515714D01*
X2103886Y518552D01*
X2107593Y520088D01*
X2108838Y520088D01*
X2108838Y510762D01*
X2099512Y510762D01*
G37*
G36*
X1940362Y509912D02*
X1940362Y519238D01*
X1949688Y519238D01*
X1949688Y517993D01*
X1948152Y514286D01*
X1945314Y511448D01*
X1941607Y509912D01*
X1940362Y509912D01*
G37*
G36*
X2302993Y504512D02*
X2299286Y506048D01*
X2296448Y508886D01*
X2294912Y512593D01*
X2294912Y513838D01*
X2304238Y513838D01*
X2304238Y504512D01*
X2302993Y504512D01*
G37*
G36*
X2305762Y504512D02*
X2305762Y513838D01*
X2315088Y513838D01*
X2315088Y512593D01*
X2313552Y508886D01*
X2310714Y506048D01*
X2307007Y504512D01*
X2305762Y504512D01*
G37*
G36*
X2110362Y499912D02*
X2110362Y509238D01*
X2119688Y509238D01*
X2119688Y507993D01*
X2118152Y504286D01*
X2115314Y501448D01*
X2111607Y499912D01*
X2110362Y499912D01*
G37*
G36*
X2107593Y499912D02*
X2103886Y501448D01*
X2101048Y504286D01*
X2099512Y507993D01*
X2099512Y509238D01*
X2108838Y509238D01*
X2108838Y499912D01*
X2107593Y499912D01*
G37*
G36*
X2414431Y441820D02*
X2411424Y443065D01*
X2409123Y445366D01*
X2407878Y448373D01*
X2407878Y451760D01*
X2407818Y452057D01*
X2407655Y452299D01*
X2396733Y463220D01*
X2396681Y463477D01*
X2396518Y463719D01*
X2390259Y469978D01*
X2390006Y470146D01*
X2389708Y470201D01*
X2389429Y470143D01*
X2387518Y469352D01*
X2383282Y469352D01*
X2379368Y470973D01*
X2376373Y473968D01*
X2374752Y477882D01*
X2374752Y482118D01*
X2376373Y486032D01*
X2379368Y489027D01*
X2383282Y490648D01*
X2387518Y490648D01*
X2391432Y489027D01*
X2394427Y486032D01*
X2396048Y482118D01*
X2396048Y477882D01*
X2395642Y476902D01*
X2395584Y476604D01*
X2395647Y476308D01*
X2395807Y476072D01*
X2402339Y469540D01*
X2402592Y469372D01*
X2402838Y469324D01*
X2413760Y458403D01*
X2414012Y458236D01*
X2414298Y458180D01*
X2417685Y458180D01*
X2420692Y456935D01*
X2422993Y454634D01*
X2424238Y451627D01*
X2424238Y448373D01*
X2422993Y445366D01*
X2420692Y443065D01*
X2417685Y441820D01*
X2414431Y441820D01*
G37*
G36*
X2277882Y460826D02*
X2273968Y462447D01*
X2270973Y465442D01*
X2269352Y469356D01*
X2269352Y473592D01*
X2269471Y473879D01*
X2269529Y474177D01*
X2269466Y474473D01*
X2269293Y474722D01*
X2269036Y474884D01*
X2268767Y474933D01*
X2253952Y474933D01*
X2253655Y474872D01*
X2253405Y474701D01*
X2253241Y474445D01*
X2253190Y474171D01*
X2253190Y470912D01*
X2251945Y467905D01*
X2249644Y465604D01*
X2246637Y464359D01*
X2243383Y464359D01*
X2240376Y465604D01*
X2238075Y467905D01*
X2236830Y470912D01*
X2236830Y474298D01*
X2236770Y474596D01*
X2236607Y474837D01*
X2234183Y477261D01*
X2234183Y480837D01*
X2236712Y483365D01*
X2240300Y483365D01*
X2240518Y483220D01*
X2240804Y483165D01*
X2274130Y483165D01*
X2275606Y481689D01*
X2275859Y481521D01*
X2276157Y481465D01*
X2276437Y481523D01*
X2277882Y482122D01*
X2282118Y482122D01*
X2286032Y480501D01*
X2289027Y477506D01*
X2290648Y473592D01*
X2290648Y469356D01*
X2289027Y465442D01*
X2286032Y462447D01*
X2282118Y460826D01*
X2277882Y460826D01*
G37*
G36*
X2087668Y451115D02*
X2084661Y452360D01*
X2082360Y454661D01*
X2082341Y454709D01*
X2082171Y454960D01*
X2081917Y455126D01*
X2081637Y455179D01*
X2074400Y455179D01*
X2069794Y459785D01*
X2069541Y459953D01*
X2069243Y460009D01*
X2068963Y459951D01*
X2067518Y459352D01*
X2063282Y459352D01*
X2059368Y460973D01*
X2056373Y463968D01*
X2054752Y467882D01*
X2054752Y472118D01*
X2056373Y476032D01*
X2059368Y479027D01*
X2063282Y480648D01*
X2067518Y480648D01*
X2071432Y479027D01*
X2074427Y476032D01*
X2076048Y472118D01*
X2076048Y467882D01*
X2075449Y466437D01*
X2075391Y466139D01*
X2075454Y465842D01*
X2075615Y465606D01*
X2077587Y463634D01*
X2077840Y463467D01*
X2078126Y463411D01*
X2081637Y463411D01*
X2081934Y463471D01*
X2082184Y463643D01*
X2082341Y463881D01*
X2082360Y463929D01*
X2084661Y466230D01*
X2087668Y467475D01*
X2090922Y467475D01*
X2093929Y466230D01*
X2096230Y463929D01*
X2097475Y460922D01*
X2097475Y457668D01*
X2096230Y454661D01*
X2093929Y452360D01*
X2090922Y451115D01*
X2087668Y451115D01*
G37*
G36*
X1995362Y470762D02*
X1995362Y480088D01*
X1996607Y480088D01*
X2000314Y478552D01*
X2003152Y475714D01*
X2004688Y472007D01*
X2004688Y470762D01*
X1995362Y470762D01*
G37*
G36*
X1984512Y470762D02*
X1984512Y472007D01*
X1986048Y475714D01*
X1988886Y478552D01*
X1992593Y480088D01*
X1993838Y480088D01*
X1993838Y470762D01*
X1984512Y470762D01*
G37*
G36*
X2312593Y469912D02*
X2308886Y471448D01*
X2306048Y474286D01*
X2304512Y477993D01*
X2304512Y479238D01*
X2313838Y479238D01*
X2313838Y469912D01*
X2312593Y469912D01*
G37*
G36*
X2315362Y469912D02*
X2315362Y479238D01*
X2324688Y479238D01*
X2324688Y477993D01*
X2323152Y474286D01*
X2320314Y471448D01*
X2316607Y469912D01*
X2315362Y469912D01*
G37*
G36*
X1995362Y459912D02*
X1995362Y469238D01*
X2004688Y469238D01*
X2004688Y467993D01*
X2003152Y464286D01*
X2000314Y461448D01*
X1996607Y459912D01*
X1995362Y459912D01*
G37*
G36*
X1992593Y459912D02*
X1988886Y461448D01*
X1986048Y464286D01*
X1984512Y467993D01*
X1984512Y469238D01*
X1993838Y469238D01*
X1993838Y459912D01*
X1992593Y459912D01*
G37*
%LPD*%
G36*
X755219Y430060D02*
X755469Y430232D01*
X755632Y430487D01*
X755683Y430762D01*
X755683Y456788D01*
X777015Y478120D01*
X822368Y478120D01*
X822666Y478180D01*
X822907Y478343D01*
X828625Y484061D01*
X828793Y484314D01*
X828848Y484612D01*
X828783Y484908D01*
X828625Y485139D01*
X822907Y490857D01*
X822654Y491024D01*
X822368Y491080D01*
X817632Y491080D01*
X817334Y491020D01*
X817093Y490857D01*
X806919Y480683D01*
X633081Y480683D01*
X632907Y480857D01*
X632654Y481024D01*
X632368Y481080D01*
X627632Y481080D01*
X627334Y481020D01*
X627093Y480857D01*
X626919Y480683D01*
X492543Y480683D01*
X478563Y494663D01*
X478310Y494831D01*
X478024Y494887D01*
X360278Y494887D01*
X359981Y494826D01*
X359731Y494655D01*
X359567Y494399D01*
X359516Y494125D01*
X359516Y480330D01*
X359576Y480032D01*
X359748Y479782D01*
X359986Y479626D01*
X361432Y479027D01*
X364427Y476032D01*
X366048Y472118D01*
X366048Y467882D01*
X364427Y463968D01*
X361432Y460973D01*
X357518Y459352D01*
X353282Y459352D01*
X349368Y460973D01*
X346373Y463968D01*
X344752Y467882D01*
X344752Y472118D01*
X346373Y476032D01*
X349368Y479027D01*
X350814Y479626D01*
X351065Y479795D01*
X351231Y480049D01*
X351284Y480330D01*
X351284Y494125D01*
X351224Y494422D01*
X351052Y494672D01*
X350797Y494835D01*
X350522Y494887D01*
X344009Y494887D01*
X338183Y500712D01*
X338183Y504288D01*
X360460Y526565D01*
X360628Y526818D01*
X360683Y527104D01*
X360683Y632896D01*
X360623Y633194D01*
X360460Y633435D01*
X340683Y653212D01*
X340683Y751788D01*
X350112Y761217D01*
X353700Y761217D01*
X353918Y761072D01*
X354204Y761016D01*
X373140Y761016D01*
X373437Y761076D01*
X373687Y761248D01*
X373851Y761503D01*
X373902Y761778D01*
X373902Y765482D01*
X375718Y767298D01*
X392882Y767298D01*
X394698Y765482D01*
X394698Y761778D01*
X394758Y761481D01*
X394930Y761231D01*
X395185Y761067D01*
X395460Y761016D01*
X401154Y761016D01*
X404548Y757622D01*
X404801Y757454D01*
X405087Y757399D01*
X437357Y757399D01*
X437654Y757459D01*
X437904Y757630D01*
X438068Y757886D01*
X438119Y758185D01*
X438049Y758480D01*
X437896Y758699D01*
X435683Y760912D01*
X435683Y804680D01*
X435623Y804977D01*
X435460Y805219D01*
X417384Y823295D01*
X417384Y826622D01*
X417324Y826919D01*
X417152Y827169D01*
X416897Y827333D01*
X416622Y827384D01*
X396395Y827384D01*
X389394Y834385D01*
X389141Y834553D01*
X388843Y834609D01*
X388563Y834551D01*
X387118Y833952D01*
X382882Y833952D01*
X378968Y835573D01*
X375973Y838568D01*
X374352Y842482D01*
X374352Y846718D01*
X375973Y850632D01*
X378968Y853627D01*
X382882Y855248D01*
X387118Y855248D01*
X391032Y853627D01*
X394027Y850632D01*
X395648Y846718D01*
X395648Y842482D01*
X395049Y841037D01*
X394991Y840739D01*
X395054Y840442D01*
X395215Y840206D01*
X399582Y835839D01*
X399835Y835672D01*
X400121Y835616D01*
X419196Y835616D01*
X419493Y835676D01*
X419735Y835839D01*
X425460Y841565D01*
X425628Y841818D01*
X425683Y842104D01*
X425683Y986796D01*
X425623Y987094D01*
X425460Y987335D01*
X412334Y1000462D01*
X412081Y1000629D01*
X411783Y1000685D01*
X411503Y1000627D01*
X410599Y1000252D01*
X406601Y1000252D01*
X402908Y1001782D01*
X400082Y1004608D01*
X398552Y1008301D01*
X398552Y1012299D01*
X400082Y1015992D01*
X402908Y1018818D01*
X406601Y1020348D01*
X410599Y1020348D01*
X414292Y1018818D01*
X417118Y1015992D01*
X417493Y1015087D01*
X417663Y1014836D01*
X417917Y1014670D01*
X418197Y1014617D01*
X438196Y1014617D01*
X438494Y1014677D01*
X438735Y1014840D01*
X445460Y1021565D01*
X445628Y1021818D01*
X445683Y1022104D01*
X445683Y1061788D01*
X474712Y1090817D01*
X478403Y1090817D01*
X478700Y1090877D01*
X478950Y1091049D01*
X479107Y1091287D01*
X479482Y1092192D01*
X482308Y1095018D01*
X486001Y1096548D01*
X489999Y1096548D01*
X493692Y1095018D01*
X496518Y1092192D01*
X498048Y1088499D01*
X498048Y1084501D01*
X496518Y1080808D01*
X493692Y1077982D01*
X489999Y1076452D01*
X486001Y1076452D01*
X482308Y1077982D01*
X479482Y1080808D01*
X479166Y1081571D01*
X478996Y1081823D01*
X478742Y1081988D01*
X478444Y1082041D01*
X478148Y1081974D01*
X477923Y1081818D01*
X454540Y1058435D01*
X454372Y1058182D01*
X454317Y1057896D01*
X454317Y1018212D01*
X442088Y1005983D01*
X420861Y1005983D01*
X420564Y1005923D01*
X420314Y1005752D01*
X420150Y1005496D01*
X420099Y1005197D01*
X420169Y1004902D01*
X420322Y1004683D01*
X434317Y990688D01*
X434317Y838212D01*
X425839Y829735D01*
X425672Y829482D01*
X425616Y829196D01*
X425616Y827021D01*
X425676Y826723D01*
X425839Y826482D01*
X441281Y811040D01*
X441534Y810872D01*
X441780Y810824D01*
X444317Y808288D01*
X444317Y774878D01*
X444377Y774581D01*
X444549Y774331D01*
X444804Y774167D01*
X445079Y774116D01*
X474196Y774116D01*
X474493Y774176D01*
X474701Y774317D01*
X533671Y774317D01*
X533968Y774377D01*
X534219Y774549D01*
X534375Y774787D01*
X535125Y776598D01*
X538402Y779875D01*
X542683Y781648D01*
X547317Y781648D01*
X549128Y780898D01*
X549426Y780840D01*
X549722Y780903D01*
X549958Y781063D01*
X572853Y803957D01*
X696667Y803957D01*
X696965Y804018D01*
X697215Y804189D01*
X697378Y804445D01*
X697429Y804744D01*
X697371Y805011D01*
X696820Y806342D01*
X696820Y809596D01*
X698065Y812603D01*
X699845Y814383D01*
X700012Y814635D01*
X700068Y814934D01*
X700003Y815230D01*
X699828Y815477D01*
X699569Y815636D01*
X699306Y815683D01*
X457567Y815683D01*
X457270Y815623D01*
X457028Y815460D01*
X454634Y813065D01*
X451627Y811820D01*
X448373Y811820D01*
X445366Y813065D01*
X443065Y815366D01*
X441820Y818373D01*
X441820Y821627D01*
X443065Y824634D01*
X445366Y826935D01*
X448373Y828180D01*
X451627Y828180D01*
X454634Y826935D01*
X457028Y824540D01*
X457281Y824372D01*
X457567Y824317D01*
X507138Y824317D01*
X507435Y824377D01*
X507685Y824549D01*
X507849Y824804D01*
X507900Y825079D01*
X507900Y855284D01*
X509716Y857100D01*
X540284Y857100D01*
X542100Y855284D01*
X542100Y825079D01*
X542160Y824781D01*
X542332Y824531D01*
X542587Y824368D01*
X542862Y824317D01*
X597138Y824317D01*
X597435Y824377D01*
X597685Y824549D01*
X597849Y824804D01*
X597900Y825079D01*
X597900Y855284D01*
X599716Y857100D01*
X630284Y857100D01*
X632100Y855284D01*
X632100Y825079D01*
X632160Y824781D01*
X632332Y824531D01*
X632587Y824368D01*
X632862Y824317D01*
X707138Y824317D01*
X707435Y824377D01*
X707685Y824549D01*
X707849Y824804D01*
X707900Y825079D01*
X707900Y855284D01*
X709716Y857100D01*
X740284Y857100D01*
X742100Y855284D01*
X742100Y825079D01*
X742160Y824781D01*
X742332Y824531D01*
X742587Y824368D01*
X742862Y824317D01*
X797138Y824317D01*
X797435Y824377D01*
X797685Y824549D01*
X797849Y824804D01*
X797900Y825079D01*
X797900Y855284D01*
X799716Y857100D01*
X830284Y857100D01*
X832100Y855284D01*
X832100Y825079D01*
X832160Y824781D01*
X832332Y824531D01*
X832587Y824368D01*
X832862Y824317D01*
X907138Y824317D01*
X907435Y824377D01*
X907685Y824549D01*
X907849Y824804D01*
X907900Y825079D01*
X907900Y855284D01*
X909716Y857100D01*
X940284Y857100D01*
X942100Y855284D01*
X942100Y825079D01*
X942160Y824781D01*
X942332Y824531D01*
X942587Y824368D01*
X942862Y824317D01*
X997138Y824317D01*
X997435Y824377D01*
X997685Y824549D01*
X997849Y824804D01*
X997900Y825079D01*
X997900Y855284D01*
X999716Y857100D01*
X1030284Y857100D01*
X1032100Y855284D01*
X1032100Y825079D01*
X1032160Y824781D01*
X1032332Y824531D01*
X1032587Y824368D01*
X1032862Y824317D01*
X1052739Y824317D01*
X1053036Y824377D01*
X1053286Y824549D01*
X1053450Y824804D01*
X1053501Y825103D01*
X1053431Y825398D01*
X1053278Y825617D01*
X1052299Y826597D01*
X1052046Y826764D01*
X1051760Y826820D01*
X1048373Y826820D01*
X1045366Y828065D01*
X1043065Y830366D01*
X1041820Y833373D01*
X1041820Y836627D01*
X1043065Y839634D01*
X1045366Y841935D01*
X1048373Y843180D01*
X1051627Y843180D01*
X1054634Y841935D01*
X1056935Y839634D01*
X1058180Y836627D01*
X1058180Y833240D01*
X1058240Y832943D01*
X1058403Y832702D01*
X1062100Y829005D01*
X1062352Y828838D01*
X1062638Y828782D01*
X1141340Y828782D01*
X1141637Y828842D01*
X1141888Y829014D01*
X1142051Y829269D01*
X1142102Y829568D01*
X1142044Y829836D01*
X1141820Y830377D01*
X1141820Y833631D01*
X1143065Y836638D01*
X1145366Y838939D01*
X1148373Y840184D01*
X1151627Y840184D01*
X1153752Y839304D01*
X1154049Y839246D01*
X1154346Y839309D01*
X1154582Y839469D01*
X1384429Y1069317D01*
X1877104Y1069317D01*
X1877401Y1069377D01*
X1877651Y1069549D01*
X1877808Y1069787D01*
X1878065Y1070409D01*
X1880366Y1072710D01*
X1883373Y1073956D01*
X1886627Y1073956D01*
X1889634Y1072710D01*
X1891935Y1070409D01*
X1893180Y1067403D01*
X1893180Y1064149D01*
X1891935Y1061142D01*
X1890155Y1059363D01*
X1889988Y1059110D01*
X1889932Y1058812D01*
X1889997Y1058515D01*
X1890173Y1058268D01*
X1890431Y1058109D01*
X1890694Y1058062D01*
X1922475Y1058062D01*
X1922773Y1058122D01*
X1923023Y1058294D01*
X1923186Y1058549D01*
X1923237Y1058848D01*
X1923167Y1059143D01*
X1923014Y1059363D01*
X1920571Y1061806D01*
X1918900Y1065840D01*
X1918900Y1070205D01*
X1920571Y1074239D01*
X1923658Y1077326D01*
X1927691Y1078996D01*
X1932057Y1078996D01*
X1936090Y1077326D01*
X1939177Y1074239D01*
X1940848Y1070205D01*
X1940848Y1065840D01*
X1939177Y1061806D01*
X1936734Y1059363D01*
X1936566Y1059110D01*
X1936511Y1058812D01*
X1936576Y1058515D01*
X1936751Y1058268D01*
X1937009Y1058109D01*
X1937273Y1058062D01*
X1946269Y1058062D01*
X1950928Y1053403D01*
X1951181Y1053236D01*
X1951467Y1053180D01*
X1954623Y1053180D01*
X1955954Y1052629D01*
X1956252Y1052571D01*
X1956549Y1052633D01*
X1956798Y1052807D01*
X1956959Y1053064D01*
X1957008Y1053333D01*
X1957008Y1100998D01*
X1956948Y1101295D01*
X1956785Y1101537D01*
X1941899Y1116423D01*
X1941646Y1116590D01*
X1941348Y1116646D01*
X1941052Y1116581D01*
X1940804Y1116405D01*
X1940656Y1116176D01*
X1939177Y1112606D01*
X1936090Y1109519D01*
X1932057Y1107848D01*
X1927691Y1107848D01*
X1923658Y1109519D01*
X1920571Y1112606D01*
X1918900Y1116640D01*
X1918900Y1121005D01*
X1920401Y1124630D01*
X1920459Y1124927D01*
X1920397Y1125224D01*
X1920223Y1125473D01*
X1919966Y1125634D01*
X1919697Y1125683D01*
X1916908Y1125683D01*
X1883517Y1159075D01*
X1883264Y1159243D01*
X1882966Y1159298D01*
X1882686Y1159240D01*
X1881257Y1158648D01*
X1876891Y1158648D01*
X1872858Y1160319D01*
X1869771Y1163406D01*
X1868100Y1167440D01*
X1868100Y1171805D01*
X1869771Y1175839D01*
X1872631Y1178699D01*
X1872799Y1178952D01*
X1872854Y1179250D01*
X1872789Y1179546D01*
X1872614Y1179794D01*
X1872356Y1179953D01*
X1872092Y1180000D01*
X1860656Y1180000D01*
X1860358Y1179940D01*
X1860108Y1179768D01*
X1859945Y1179513D01*
X1859894Y1179214D01*
X1859964Y1178919D01*
X1860117Y1178699D01*
X1862977Y1175839D01*
X1864648Y1171805D01*
X1864648Y1167440D01*
X1862977Y1163406D01*
X1859890Y1160319D01*
X1855857Y1158648D01*
X1851491Y1158648D01*
X1850062Y1159240D01*
X1849764Y1159298D01*
X1849468Y1159236D01*
X1849232Y1159075D01*
X1825840Y1135683D01*
X1387567Y1135683D01*
X1387270Y1135623D01*
X1387028Y1135460D01*
X1384634Y1133065D01*
X1381627Y1131820D01*
X1378373Y1131820D01*
X1375366Y1133065D01*
X1373065Y1135366D01*
X1371820Y1138373D01*
X1371820Y1141627D01*
X1373064Y1144630D01*
X1373122Y1144927D01*
X1373059Y1145224D01*
X1372886Y1145473D01*
X1372629Y1145634D01*
X1372360Y1145683D01*
X1372104Y1145683D01*
X1371806Y1145623D01*
X1371565Y1145460D01*
X1359540Y1133435D01*
X1359372Y1133182D01*
X1359317Y1132896D01*
X1359317Y1125079D01*
X1359377Y1124781D01*
X1359549Y1124531D01*
X1359804Y1124368D01*
X1360079Y1124317D01*
X1762433Y1124317D01*
X1762730Y1124377D01*
X1762972Y1124540D01*
X1765366Y1126935D01*
X1768373Y1128180D01*
X1771627Y1128180D01*
X1774634Y1126935D01*
X1776935Y1124634D01*
X1778180Y1121627D01*
X1778180Y1118373D01*
X1776935Y1115366D01*
X1774634Y1113065D01*
X1771627Y1111820D01*
X1768373Y1111820D01*
X1765366Y1113065D01*
X1762972Y1115460D01*
X1762719Y1115628D01*
X1762433Y1115683D01*
X1353212Y1115683D01*
X1350617Y1118278D01*
X1350365Y1118445D01*
X1350067Y1118501D01*
X1349770Y1118436D01*
X1349523Y1118260D01*
X1349364Y1118002D01*
X1349317Y1117739D01*
X1349317Y1112104D01*
X1349377Y1111806D01*
X1349540Y1111565D01*
X1356565Y1104540D01*
X1356818Y1104372D01*
X1357104Y1104317D01*
X1707433Y1104317D01*
X1707730Y1104377D01*
X1707972Y1104540D01*
X1710366Y1106935D01*
X1713373Y1108180D01*
X1716627Y1108180D01*
X1719634Y1106935D01*
X1721935Y1104634D01*
X1723180Y1101627D01*
X1723180Y1098373D01*
X1721935Y1095366D01*
X1719634Y1093065D01*
X1716627Y1091820D01*
X1713373Y1091820D01*
X1710366Y1093065D01*
X1707972Y1095460D01*
X1707719Y1095628D01*
X1707433Y1095683D01*
X1353212Y1095683D01*
X1340683Y1108212D01*
X1340683Y1136788D01*
X1363212Y1159317D01*
X1786148Y1159317D01*
X1786445Y1159377D01*
X1786687Y1159540D01*
X1792327Y1165180D01*
X1792494Y1165433D01*
X1792550Y1165731D01*
X1792492Y1166010D01*
X1791900Y1167440D01*
X1791900Y1171805D01*
X1793571Y1175839D01*
X1796431Y1178699D01*
X1796599Y1178952D01*
X1796654Y1179250D01*
X1796589Y1179546D01*
X1796414Y1179794D01*
X1796156Y1179953D01*
X1795892Y1180000D01*
X905103Y1180000D01*
X223859Y1176917D01*
X223562Y1176856D01*
X223312Y1176683D01*
X223150Y1176427D01*
X223100Y1176155D01*
X223100Y430762D01*
X223160Y430465D01*
X223332Y430215D01*
X223587Y430051D01*
X223862Y430000D01*
X754921Y430000D01*
X755219Y430060D01*
G37*
%LPC*%
G36*
X275402Y761599D02*
X268899Y768102D01*
X268899Y777298D01*
X275460Y783859D01*
X275628Y784112D01*
X275683Y784398D01*
X275683Y802214D01*
X287837Y814367D01*
X288004Y814620D01*
X288060Y814906D01*
X288060Y825094D01*
X288000Y825391D01*
X287837Y825633D01*
X275683Y837786D01*
X275683Y852042D01*
X275623Y852339D01*
X275452Y852589D01*
X275196Y852753D01*
X274921Y852804D01*
X272981Y852804D01*
X269252Y854349D01*
X266397Y857204D01*
X264852Y860933D01*
X264852Y879067D01*
X266397Y882796D01*
X269252Y885651D01*
X270213Y886049D01*
X270464Y886219D01*
X270630Y886473D01*
X270683Y886753D01*
X270683Y897214D01*
X287837Y914367D01*
X288004Y914620D01*
X288060Y914906D01*
X288060Y946665D01*
X397107Y1055711D01*
X397274Y1055964D01*
X397330Y1056262D01*
X397265Y1056558D01*
X397107Y1056789D01*
X385683Y1068212D01*
X385683Y1111788D01*
X388212Y1114317D01*
X506788Y1114317D01*
X509317Y1111788D01*
X509317Y1050912D01*
X497838Y1039434D01*
X497671Y1039181D01*
X497615Y1038883D01*
X497673Y1038603D01*
X498048Y1037699D01*
X498048Y1033701D01*
X496518Y1030008D01*
X493692Y1027182D01*
X489999Y1025652D01*
X486001Y1025652D01*
X482308Y1027182D01*
X479482Y1030008D01*
X477952Y1033701D01*
X477952Y1037699D01*
X479482Y1041392D01*
X482308Y1044218D01*
X486001Y1045748D01*
X489999Y1045748D01*
X490903Y1045373D01*
X491201Y1045315D01*
X491498Y1045378D01*
X491734Y1045538D01*
X500460Y1054265D01*
X500628Y1054518D01*
X500683Y1054804D01*
X500683Y1104921D01*
X500623Y1105219D01*
X500452Y1105469D01*
X500196Y1105632D01*
X499921Y1105683D01*
X395079Y1105683D01*
X394781Y1105623D01*
X394531Y1105452D01*
X394368Y1105196D01*
X394317Y1104921D01*
X394317Y1072104D01*
X394377Y1071806D01*
X394540Y1071565D01*
X399159Y1066946D01*
X399411Y1066779D01*
X399710Y1066723D01*
X400006Y1066788D01*
X400236Y1066946D01*
X402908Y1069618D01*
X406601Y1071148D01*
X410599Y1071148D01*
X414292Y1069618D01*
X417118Y1066792D01*
X418648Y1063099D01*
X418648Y1059101D01*
X417118Y1055408D01*
X414292Y1052582D01*
X410599Y1051052D01*
X406601Y1051052D01*
X405697Y1051427D01*
X405399Y1051485D01*
X405102Y1051422D01*
X404866Y1051262D01*
X296917Y943312D01*
X296749Y943059D01*
X296693Y942773D01*
X296693Y911014D01*
X279540Y893861D01*
X279372Y893608D01*
X279317Y893322D01*
X279317Y886753D01*
X279377Y886456D01*
X279549Y886206D01*
X279787Y886049D01*
X280748Y885651D01*
X283603Y882796D01*
X285148Y879067D01*
X285148Y860933D01*
X284375Y859066D01*
X284317Y858775D01*
X284317Y841678D01*
X284377Y841381D01*
X284540Y841139D01*
X296693Y828986D01*
X296693Y811014D01*
X284540Y798861D01*
X284372Y798608D01*
X284317Y798322D01*
X284317Y784398D01*
X284377Y784101D01*
X284540Y783859D01*
X291101Y777298D01*
X291101Y768102D01*
X284598Y761599D01*
X275402Y761599D01*
G37*
G36*
X1927691Y1082448D02*
X1923658Y1084119D01*
X1920571Y1087206D01*
X1918900Y1091240D01*
X1918900Y1095605D01*
X1920571Y1099639D01*
X1923658Y1102726D01*
X1927691Y1104396D01*
X1932057Y1104396D01*
X1936090Y1102726D01*
X1939177Y1099639D01*
X1940848Y1095605D01*
X1940848Y1091240D01*
X1939177Y1087206D01*
X1936090Y1084119D01*
X1932057Y1082448D01*
X1927691Y1082448D01*
G37*
G36*
X406601Y1076452D02*
X402908Y1077982D01*
X400082Y1080808D01*
X398552Y1084501D01*
X398552Y1088499D01*
X400082Y1092192D01*
X402908Y1095018D01*
X406601Y1096548D01*
X410599Y1096548D01*
X414292Y1095018D01*
X417118Y1092192D01*
X418648Y1088499D01*
X418648Y1084501D01*
X417118Y1080808D01*
X414292Y1077982D01*
X410599Y1076452D01*
X406601Y1076452D01*
G37*
G36*
X486001Y1051052D02*
X482308Y1052582D01*
X479482Y1055408D01*
X477952Y1059101D01*
X477952Y1063099D01*
X479482Y1066792D01*
X482308Y1069618D01*
X486001Y1071148D01*
X489999Y1071148D01*
X493692Y1069618D01*
X496518Y1066792D01*
X498048Y1063099D01*
X498048Y1059101D01*
X496518Y1055408D01*
X493692Y1052582D01*
X489999Y1051052D01*
X486001Y1051052D01*
G37*
G36*
X406601Y1025652D02*
X402908Y1027182D01*
X400082Y1030008D01*
X398552Y1033701D01*
X398552Y1037699D01*
X400082Y1041392D01*
X402908Y1044218D01*
X406601Y1045748D01*
X410599Y1045748D01*
X414292Y1044218D01*
X417118Y1041392D01*
X418648Y1037699D01*
X418648Y1033701D01*
X417118Y1030008D01*
X414292Y1027182D01*
X410599Y1025652D01*
X406601Y1025652D01*
G37*
G36*
X488762Y1011062D02*
X488762Y1019788D01*
X489887Y1019788D01*
X493375Y1018344D01*
X496044Y1015675D01*
X497488Y1012187D01*
X497488Y1011062D01*
X488762Y1011062D01*
G37*
G36*
X478512Y1011062D02*
X478512Y1012187D01*
X479956Y1015675D01*
X482625Y1018344D01*
X486113Y1019788D01*
X487238Y1019788D01*
X487238Y1011062D01*
X478512Y1011062D01*
G37*
G36*
X486113Y1000812D02*
X482625Y1002256D01*
X479956Y1004925D01*
X478512Y1008413D01*
X478512Y1009538D01*
X487238Y1009538D01*
X487238Y1000812D01*
X486113Y1000812D01*
G37*
G36*
X488762Y1000812D02*
X488762Y1009538D01*
X497488Y1009538D01*
X497488Y1008413D01*
X496044Y1004925D01*
X493375Y1002256D01*
X489887Y1000812D01*
X488762Y1000812D01*
G37*
G36*
X315933Y909852D02*
X312204Y911397D01*
X309349Y914252D01*
X307804Y917981D01*
X307804Y922019D01*
X309349Y925748D01*
X312204Y928603D01*
X315933Y930148D01*
X334067Y930148D01*
X337796Y928603D01*
X340651Y925748D01*
X342196Y922019D01*
X342196Y917981D01*
X340651Y914252D01*
X337796Y911397D01*
X334067Y909852D01*
X315933Y909852D01*
G37*
G36*
X273190Y910900D02*
X269845Y912285D01*
X267285Y914845D01*
X265900Y918190D01*
X265900Y921810D01*
X267285Y925155D01*
X269845Y927715D01*
X273190Y929100D01*
X276810Y929100D01*
X280155Y927715D01*
X282715Y925155D01*
X284100Y921810D01*
X284100Y918190D01*
X282715Y914845D01*
X280155Y912285D01*
X276810Y910900D01*
X273190Y910900D01*
G37*
G36*
X328212Y795683D02*
X320683Y803212D01*
X320683Y809090D01*
X320623Y809387D01*
X320452Y809637D01*
X320196Y809801D01*
X319921Y809852D01*
X315933Y809852D01*
X312204Y811397D01*
X309349Y814252D01*
X307804Y817981D01*
X307804Y822019D01*
X309349Y825748D01*
X312204Y828603D01*
X315933Y830148D01*
X334067Y830148D01*
X337796Y828603D01*
X340651Y825748D01*
X342196Y822019D01*
X342196Y817981D01*
X340651Y814252D01*
X337796Y811397D01*
X334067Y809852D01*
X330079Y809852D01*
X329781Y809792D01*
X329531Y809620D01*
X329368Y809365D01*
X329317Y809090D01*
X329317Y807104D01*
X329377Y806806D01*
X329540Y806565D01*
X331565Y804540D01*
X331818Y804372D01*
X332104Y804317D01*
X361622Y804317D01*
X361919Y804377D01*
X362169Y804549D01*
X362333Y804804D01*
X362384Y805079D01*
X362384Y898605D01*
X374785Y911006D01*
X374953Y911259D01*
X375009Y911557D01*
X374951Y911837D01*
X374352Y913282D01*
X374352Y917518D01*
X375973Y921432D01*
X378968Y924427D01*
X382882Y926048D01*
X387118Y926048D01*
X391032Y924427D01*
X394027Y921432D01*
X395648Y917518D01*
X395648Y913282D01*
X395049Y911837D01*
X394991Y911539D01*
X395054Y911242D01*
X395215Y911006D01*
X419116Y887105D01*
X419116Y872658D01*
X419176Y872361D01*
X419348Y872111D01*
X419586Y871954D01*
X419634Y871935D01*
X421935Y869634D01*
X423180Y866627D01*
X423180Y863373D01*
X421935Y860366D01*
X419634Y858065D01*
X416627Y856820D01*
X413373Y856820D01*
X410366Y858065D01*
X408065Y860366D01*
X406820Y863373D01*
X406820Y866627D01*
X408065Y869634D01*
X410366Y871935D01*
X410414Y871954D01*
X410665Y872124D01*
X410831Y872378D01*
X410884Y872658D01*
X410884Y883379D01*
X410824Y883677D01*
X410661Y883918D01*
X389394Y905185D01*
X389141Y905353D01*
X388843Y905409D01*
X388563Y905351D01*
X387118Y904752D01*
X382882Y904752D01*
X381437Y905351D01*
X381139Y905409D01*
X380842Y905346D01*
X380606Y905185D01*
X370839Y895418D01*
X370672Y895165D01*
X370616Y894879D01*
X370616Y802304D01*
X370676Y802007D01*
X370817Y801799D01*
X370817Y798212D01*
X368288Y795683D01*
X328212Y795683D01*
G37*
G36*
X315933Y884852D02*
X312204Y886397D01*
X309349Y889252D01*
X307804Y892981D01*
X307804Y897019D01*
X309349Y900748D01*
X312204Y903603D01*
X315933Y905148D01*
X334067Y905148D01*
X337796Y903603D01*
X340651Y900748D01*
X342196Y897019D01*
X342196Y892981D01*
X340651Y889252D01*
X337796Y886397D01*
X334067Y884852D01*
X315933Y884852D01*
G37*
G36*
X323190Y860900D02*
X319845Y862285D01*
X317285Y864845D01*
X315900Y868190D01*
X315900Y871810D01*
X317285Y875155D01*
X319845Y877715D01*
X323190Y879100D01*
X326810Y879100D01*
X330155Y877715D01*
X332715Y875155D01*
X334100Y871810D01*
X334100Y868190D01*
X332715Y864845D01*
X330155Y862285D01*
X326810Y860900D01*
X323190Y860900D01*
G37*
G36*
X315933Y834852D02*
X312204Y836397D01*
X309349Y839252D01*
X307804Y842981D01*
X307804Y847019D01*
X309349Y850748D01*
X312204Y853603D01*
X315933Y855148D01*
X334067Y855148D01*
X337796Y853603D01*
X340651Y850748D01*
X342196Y847019D01*
X342196Y842981D01*
X340651Y839252D01*
X337796Y836397D01*
X334067Y834852D01*
X315933Y834852D01*
G37*
G36*
X273190Y810900D02*
X269845Y812285D01*
X267285Y814845D01*
X265900Y818190D01*
X265900Y821810D01*
X267285Y825155D01*
X269845Y827715D01*
X273190Y829100D01*
X276810Y829100D01*
X280155Y827715D01*
X282715Y825155D01*
X284100Y821810D01*
X284100Y818190D01*
X282715Y814845D01*
X280155Y812285D01*
X276810Y810900D01*
X273190Y810900D01*
G37*
G36*
X280762Y748062D02*
X280762Y757841D01*
X284366Y757841D01*
X290541Y751666D01*
X290541Y748062D01*
X280762Y748062D01*
G37*
G36*
X269459Y748062D02*
X269459Y751666D01*
X275634Y757841D01*
X279238Y757841D01*
X279238Y748062D01*
X269459Y748062D01*
G37*
G36*
X275634Y736759D02*
X269459Y742934D01*
X269459Y746538D01*
X279238Y746538D01*
X279238Y736759D01*
X275634Y736759D01*
G37*
G36*
X280762Y736759D02*
X280762Y746538D01*
X290541Y746538D01*
X290541Y742934D01*
X284366Y736759D01*
X280762Y736759D01*
G37*
G36*
X340373Y593156D02*
X336246Y594865D01*
X333087Y598024D01*
X331378Y602151D01*
X331378Y622873D01*
X333087Y627000D01*
X336246Y630159D01*
X340373Y631868D01*
X344839Y631868D01*
X348966Y630159D01*
X352125Y627000D01*
X353834Y622873D01*
X353834Y602151D01*
X352125Y598024D01*
X348966Y594865D01*
X344839Y593156D01*
X340373Y593156D01*
G37*
G36*
X295161Y593156D02*
X291034Y594865D01*
X287875Y598024D01*
X286166Y602151D01*
X286166Y622873D01*
X287875Y627000D01*
X291034Y630159D01*
X295161Y631868D01*
X299627Y631868D01*
X303754Y630159D01*
X306913Y627000D01*
X308622Y622873D01*
X308622Y602151D01*
X306913Y598024D01*
X303754Y594865D01*
X299627Y593156D01*
X295161Y593156D01*
G37*
G36*
X282482Y459352D02*
X278568Y460973D01*
X275573Y463968D01*
X273952Y467882D01*
X273952Y472118D01*
X275573Y476032D01*
X278568Y479027D01*
X282482Y480648D01*
X286718Y480648D01*
X288163Y480049D01*
X288461Y479991D01*
X288758Y480054D01*
X288994Y480215D01*
X293055Y484276D01*
X293222Y484529D01*
X293278Y484815D01*
X293278Y528403D01*
X293218Y528700D01*
X293046Y528950D01*
X292808Y529107D01*
X291034Y529841D01*
X287875Y533000D01*
X286166Y537127D01*
X286166Y557849D01*
X287875Y561976D01*
X291034Y565135D01*
X295161Y566844D01*
X299627Y566844D01*
X303754Y565135D01*
X306913Y561976D01*
X308622Y557849D01*
X308622Y537127D01*
X306913Y533000D01*
X303754Y529841D01*
X301980Y529107D01*
X301729Y528937D01*
X301563Y528683D01*
X301510Y528403D01*
X301510Y481089D01*
X294815Y474394D01*
X294647Y474141D01*
X294591Y473843D01*
X294649Y473563D01*
X295248Y472118D01*
X295248Y467882D01*
X293627Y463968D01*
X290632Y460973D01*
X286718Y459352D01*
X282482Y459352D01*
G37*
G36*
X331938Y548250D02*
X331938Y557738D01*
X333562Y561659D01*
X336563Y564660D01*
X340484Y566284D01*
X341844Y566284D01*
X341844Y548250D01*
X331938Y548250D01*
G37*
G36*
X343368Y548250D02*
X343368Y566284D01*
X344728Y566284D01*
X348649Y564660D01*
X351650Y561659D01*
X353274Y557738D01*
X353274Y548250D01*
X343368Y548250D01*
G37*
G36*
X343368Y528692D02*
X343368Y546726D01*
X353274Y546726D01*
X353274Y537238D01*
X351650Y533317D01*
X348649Y530316D01*
X344728Y528692D01*
X343368Y528692D01*
G37*
G36*
X340484Y528692D02*
X336563Y530316D01*
X333562Y533317D01*
X331938Y537238D01*
X331938Y546726D01*
X341844Y546726D01*
X341844Y528692D01*
X340484Y528692D01*
G37*
%LPD*%
G36*
X2382808Y849449D02*
X2383039Y849607D01*
X2385460Y852028D01*
X2385628Y852281D01*
X2385683Y852567D01*
X2385683Y926119D01*
X2386657Y927093D01*
X2386824Y927346D01*
X2386880Y927632D01*
X2386880Y984390D01*
X2393657Y991167D01*
X2393824Y991420D01*
X2393880Y991706D01*
X2393880Y1007629D01*
X2393820Y1007926D01*
X2393648Y1008176D01*
X2393393Y1008340D01*
X2393094Y1008391D01*
X2392826Y1008333D01*
X2389145Y1006808D01*
X2387836Y1006808D01*
X2387836Y1027636D01*
X2389145Y1027636D01*
X2392826Y1026112D01*
X2393124Y1026054D01*
X2393421Y1026116D01*
X2393670Y1026290D01*
X2393831Y1026547D01*
X2393880Y1026816D01*
X2393880Y1029007D01*
X2393820Y1029305D01*
X2393657Y1029546D01*
X2375617Y1047586D01*
X2375365Y1047753D01*
X2375067Y1047809D01*
X2374770Y1047744D01*
X2374523Y1047568D01*
X2374364Y1047310D01*
X2374317Y1047047D01*
X2374317Y1028212D01*
X2371788Y1025683D01*
X2370572Y1025683D01*
X2370275Y1025623D01*
X2370025Y1025452D01*
X2369861Y1025196D01*
X2369811Y1024897D01*
X2369880Y1024602D01*
X2370033Y1024383D01*
X2370977Y1023439D01*
X2372648Y1019405D01*
X2372648Y1015040D01*
X2370977Y1011006D01*
X2367890Y1007919D01*
X2363857Y1006248D01*
X2359491Y1006248D01*
X2355458Y1007919D01*
X2352371Y1011006D01*
X2350700Y1015040D01*
X2350700Y1019405D01*
X2352371Y1023439D01*
X2353315Y1024383D01*
X2353482Y1024635D01*
X2353538Y1024934D01*
X2353473Y1025230D01*
X2353297Y1025477D01*
X2353039Y1025636D01*
X2352776Y1025683D01*
X2345172Y1025683D01*
X2344875Y1025623D01*
X2344625Y1025452D01*
X2344461Y1025196D01*
X2344411Y1024897D01*
X2344480Y1024602D01*
X2344633Y1024383D01*
X2345577Y1023439D01*
X2347248Y1019405D01*
X2347248Y1015040D01*
X2345577Y1011006D01*
X2342490Y1007919D01*
X2338457Y1006248D01*
X2334091Y1006248D01*
X2330058Y1007919D01*
X2326971Y1011006D01*
X2325300Y1015040D01*
X2325300Y1019405D01*
X2326971Y1023439D01*
X2327915Y1024383D01*
X2328082Y1024635D01*
X2328138Y1024934D01*
X2328073Y1025230D01*
X2327897Y1025477D01*
X2327639Y1025636D01*
X2327376Y1025683D01*
X2319772Y1025683D01*
X2319475Y1025623D01*
X2319225Y1025452D01*
X2319061Y1025196D01*
X2319011Y1024897D01*
X2319080Y1024602D01*
X2319233Y1024383D01*
X2320177Y1023439D01*
X2321848Y1019405D01*
X2321848Y1015040D01*
X2320177Y1011006D01*
X2317090Y1007919D01*
X2313057Y1006248D01*
X2308691Y1006248D01*
X2304658Y1007919D01*
X2301571Y1011006D01*
X2299900Y1015040D01*
X2299900Y1019405D01*
X2301571Y1023439D01*
X2302515Y1024383D01*
X2302682Y1024635D01*
X2302738Y1024934D01*
X2302673Y1025230D01*
X2302497Y1025477D01*
X2302239Y1025636D01*
X2301976Y1025683D01*
X2294372Y1025683D01*
X2294075Y1025623D01*
X2293825Y1025452D01*
X2293661Y1025196D01*
X2293611Y1024897D01*
X2293680Y1024602D01*
X2293833Y1024383D01*
X2294777Y1023439D01*
X2296448Y1019405D01*
X2296448Y1015040D01*
X2294777Y1011006D01*
X2291690Y1007919D01*
X2287657Y1006248D01*
X2283291Y1006248D01*
X2279722Y1007727D01*
X2279424Y1007785D01*
X2279127Y1007722D01*
X2278878Y1007549D01*
X2278717Y1007292D01*
X2278668Y1007023D01*
X2278668Y995045D01*
X2278728Y994748D01*
X2278900Y994498D01*
X2279155Y994334D01*
X2279454Y994284D01*
X2279749Y994353D01*
X2279969Y994506D01*
X2280366Y994904D01*
X2283373Y996149D01*
X2286627Y996149D01*
X2289634Y994904D01*
X2290198Y994339D01*
X2290451Y994172D01*
X2290737Y994116D01*
X2294670Y994116D01*
X2294968Y994176D01*
X2295218Y994348D01*
X2295374Y994586D01*
X2295973Y996032D01*
X2298968Y999027D01*
X2302882Y1000648D01*
X2307118Y1000648D01*
X2311032Y999027D01*
X2314027Y996032D01*
X2315648Y992118D01*
X2315648Y987882D01*
X2314027Y983968D01*
X2311032Y980973D01*
X2307118Y979352D01*
X2302882Y979352D01*
X2298968Y980973D01*
X2295973Y983968D01*
X2295374Y985414D01*
X2295205Y985665D01*
X2294951Y985831D01*
X2294670Y985884D01*
X2293499Y985884D01*
X2293202Y985824D01*
X2292952Y985652D01*
X2292795Y985414D01*
X2291935Y983336D01*
X2289634Y981035D01*
X2286627Y979789D01*
X2283373Y979789D01*
X2280366Y981035D01*
X2279969Y981432D01*
X2279716Y981600D01*
X2279418Y981655D01*
X2279122Y981590D01*
X2278874Y981415D01*
X2278715Y981157D01*
X2278668Y980893D01*
X2278668Y947752D01*
X2278728Y947455D01*
X2278891Y947214D01*
X2372702Y853403D01*
X2372954Y853236D01*
X2373240Y853180D01*
X2376627Y853180D01*
X2379634Y851935D01*
X2381961Y849607D01*
X2382214Y849440D01*
X2382512Y849384D01*
X2382808Y849449D01*
G37*
%LPC*%
G36*
X2376660Y1017984D02*
X2376660Y1019294D01*
X2378245Y1023121D01*
X2381175Y1026051D01*
X2385003Y1027636D01*
X2386312Y1027636D01*
X2386312Y1017984D01*
X2376660Y1017984D01*
G37*
G36*
X2385003Y1006808D02*
X2381175Y1008394D01*
X2378245Y1011323D01*
X2376660Y1015151D01*
X2376660Y1016460D01*
X2386312Y1016460D01*
X2386312Y1006808D01*
X2385003Y1006808D01*
G37*
G36*
X2362882Y954752D02*
X2358968Y956373D01*
X2355973Y959368D01*
X2354352Y963282D01*
X2354352Y967518D01*
X2355973Y971432D01*
X2358968Y974427D01*
X2362882Y976048D01*
X2367118Y976048D01*
X2368563Y975449D01*
X2368861Y975391D01*
X2369158Y975454D01*
X2369394Y975615D01*
X2373162Y979383D01*
X2373329Y979635D01*
X2373385Y979934D01*
X2373320Y980230D01*
X2373144Y980477D01*
X2372886Y980636D01*
X2372623Y980683D01*
X2354618Y980683D01*
X2349640Y985661D01*
X2349387Y985828D01*
X2349101Y985884D01*
X2340330Y985884D01*
X2340032Y985824D01*
X2339782Y985652D01*
X2339626Y985414D01*
X2339027Y983968D01*
X2336032Y980973D01*
X2332118Y979352D01*
X2327882Y979352D01*
X2323968Y980973D01*
X2320973Y983968D01*
X2319352Y987882D01*
X2319352Y992118D01*
X2320973Y996032D01*
X2323968Y999027D01*
X2327882Y1000648D01*
X2332118Y1000648D01*
X2336032Y999027D01*
X2339027Y996032D01*
X2339626Y994586D01*
X2339795Y994335D01*
X2340049Y994169D01*
X2340330Y994116D01*
X2349101Y994116D01*
X2349399Y994176D01*
X2349607Y994317D01*
X2353194Y994317D01*
X2357971Y989540D01*
X2358223Y989372D01*
X2358509Y989317D01*
X2376788Y989317D01*
X2384117Y981988D01*
X2384117Y978412D01*
X2381580Y975875D01*
X2381323Y975823D01*
X2381081Y975660D01*
X2375215Y969794D01*
X2375047Y969541D01*
X2374991Y969243D01*
X2375049Y968963D01*
X2375648Y967518D01*
X2375648Y963282D01*
X2374027Y959368D01*
X2371032Y956373D01*
X2367118Y954752D01*
X2362882Y954752D01*
G37*
G36*
X2365762Y895362D02*
X2365762Y904688D01*
X2367007Y904688D01*
X2370714Y903152D01*
X2373552Y900314D01*
X2375088Y896607D01*
X2375088Y895362D01*
X2365762Y895362D01*
G37*
G36*
X2354912Y895362D02*
X2354912Y896607D01*
X2356448Y900314D01*
X2359286Y903152D01*
X2362993Y904688D01*
X2364238Y904688D01*
X2364238Y895362D01*
X2354912Y895362D01*
G37*
G36*
X2362993Y884512D02*
X2359286Y886048D01*
X2356448Y888886D01*
X2354912Y892593D01*
X2354912Y893838D01*
X2364238Y893838D01*
X2364238Y884512D01*
X2362993Y884512D01*
G37*
G36*
X2365762Y884512D02*
X2365762Y893838D01*
X2375088Y893838D01*
X2375088Y892593D01*
X2373552Y888886D01*
X2370714Y886048D01*
X2367007Y884512D01*
X2365762Y884512D01*
G37*
%LPD*%
G36*
X1194216Y430060D02*
X1194458Y430223D01*
X1223551Y459317D01*
X1274536Y459317D01*
X1274834Y459377D01*
X1275084Y459549D01*
X1275247Y459804D01*
X1275298Y460103D01*
X1275228Y460398D01*
X1275049Y460643D01*
X1274828Y460783D01*
X1274368Y460973D01*
X1271373Y463968D01*
X1270774Y465414D01*
X1270605Y465665D01*
X1270351Y465831D01*
X1270070Y465884D01*
X1268295Y465884D01*
X1255743Y478437D01*
X1255490Y478604D01*
X1255192Y478660D01*
X1254895Y478595D01*
X1254665Y478437D01*
X1254634Y478405D01*
X1251627Y477160D01*
X1248373Y477160D01*
X1245366Y478405D01*
X1243065Y480706D01*
X1241820Y483713D01*
X1241820Y486967D01*
X1243065Y489974D01*
X1245366Y492275D01*
X1248373Y493520D01*
X1251627Y493520D01*
X1254634Y492275D01*
X1256935Y489974D01*
X1257445Y488742D01*
X1257610Y488495D01*
X1257825Y488280D01*
X1257877Y488023D01*
X1258040Y487781D01*
X1270103Y475718D01*
X1270356Y475551D01*
X1270654Y475495D01*
X1270950Y475560D01*
X1271197Y475736D01*
X1271346Y475965D01*
X1271373Y476032D01*
X1274368Y479027D01*
X1278282Y480648D01*
X1282518Y480648D01*
X1286432Y479027D01*
X1289427Y476032D01*
X1291048Y472118D01*
X1291048Y467882D01*
X1289427Y463968D01*
X1286432Y460973D01*
X1283030Y459564D01*
X1282779Y459395D01*
X1282614Y459141D01*
X1282560Y458842D01*
X1282628Y458546D01*
X1282783Y458321D01*
X1284461Y456644D01*
X1284714Y456476D01*
X1285012Y456420D01*
X1285308Y456486D01*
X1285539Y456644D01*
X1288212Y459317D01*
X1305200Y459317D01*
X1305497Y459377D01*
X1305747Y459549D01*
X1305911Y459804D01*
X1305961Y460103D01*
X1305892Y460398D01*
X1305712Y460643D01*
X1305491Y460783D01*
X1303886Y461448D01*
X1301048Y464286D01*
X1299512Y467993D01*
X1299512Y469238D01*
X1319688Y469238D01*
X1319688Y467993D01*
X1318152Y464286D01*
X1315314Y461448D01*
X1313709Y460783D01*
X1313457Y460613D01*
X1313292Y460359D01*
X1313238Y460060D01*
X1313306Y459765D01*
X1313483Y459519D01*
X1313743Y459362D01*
X1314000Y459317D01*
X1374536Y459317D01*
X1374834Y459377D01*
X1375084Y459549D01*
X1375247Y459804D01*
X1375298Y460103D01*
X1375228Y460398D01*
X1375049Y460643D01*
X1374828Y460783D01*
X1374368Y460973D01*
X1371373Y463968D01*
X1369752Y467882D01*
X1369752Y472118D01*
X1371373Y476032D01*
X1374368Y479027D01*
X1378282Y480648D01*
X1379511Y480648D01*
X1379809Y480708D01*
X1380050Y480871D01*
X1386674Y487495D01*
X1386842Y487748D01*
X1386897Y488046D01*
X1386840Y488326D01*
X1386820Y488373D01*
X1386820Y491627D01*
X1388065Y494634D01*
X1390366Y496935D01*
X1393373Y498180D01*
X1396627Y498180D01*
X1399634Y496935D01*
X1401935Y494634D01*
X1403180Y491627D01*
X1403180Y488373D01*
X1401935Y485366D01*
X1399634Y483065D01*
X1396627Y481820D01*
X1393373Y481820D01*
X1393326Y481840D01*
X1393028Y481898D01*
X1392731Y481835D01*
X1392495Y481674D01*
X1388679Y477858D01*
X1388511Y477605D01*
X1388455Y477307D01*
X1388521Y477011D01*
X1388679Y476780D01*
X1389427Y476032D01*
X1391048Y472118D01*
X1391048Y467882D01*
X1389427Y463968D01*
X1386432Y460973D01*
X1385972Y460783D01*
X1385720Y460613D01*
X1385555Y460359D01*
X1385502Y460060D01*
X1385569Y459765D01*
X1385747Y459519D01*
X1386006Y459362D01*
X1386264Y459317D01*
X1405200Y459317D01*
X1405497Y459377D01*
X1405747Y459549D01*
X1405911Y459804D01*
X1405961Y460103D01*
X1405892Y460398D01*
X1405712Y460643D01*
X1405491Y460783D01*
X1403886Y461448D01*
X1401048Y464286D01*
X1399512Y467993D01*
X1399512Y469238D01*
X1419688Y469238D01*
X1419688Y467993D01*
X1418152Y464286D01*
X1415314Y461448D01*
X1413709Y460783D01*
X1413457Y460613D01*
X1413292Y460359D01*
X1413238Y460060D01*
X1413306Y459765D01*
X1413483Y459519D01*
X1413743Y459362D01*
X1414000Y459317D01*
X1425122Y459317D01*
X1425419Y459377D01*
X1425669Y459549D01*
X1425833Y459804D01*
X1425884Y460079D01*
X1425884Y492979D01*
X1425824Y493277D01*
X1425661Y493518D01*
X1410884Y508295D01*
X1410884Y553223D01*
X1410824Y553521D01*
X1410652Y553771D01*
X1410397Y553934D01*
X1410098Y553985D01*
X1409803Y553915D01*
X1409583Y553762D01*
X1394339Y538518D01*
X1394172Y538265D01*
X1394116Y537979D01*
X1394116Y528295D01*
X1371705Y505884D01*
X1308295Y505884D01*
X1274923Y539256D01*
X1274670Y539424D01*
X1274372Y539479D01*
X1274076Y539414D01*
X1273828Y539239D01*
X1273669Y538981D01*
X1273622Y538717D01*
X1273622Y537127D01*
X1271913Y533000D01*
X1268754Y529841D01*
X1264627Y528132D01*
X1260161Y528132D01*
X1256034Y529841D01*
X1252875Y533000D01*
X1251166Y537127D01*
X1251166Y557849D01*
X1252875Y561976D01*
X1256034Y565135D01*
X1260161Y566844D01*
X1264627Y566844D01*
X1268754Y565135D01*
X1270948Y562941D01*
X1271201Y562773D01*
X1271499Y562718D01*
X1271795Y562783D01*
X1272026Y562941D01*
X1285366Y576281D01*
X1285534Y576534D01*
X1285582Y576780D01*
X1288118Y579317D01*
X1347228Y579317D01*
X1347525Y579377D01*
X1347766Y579540D01*
X1417802Y649575D01*
X1588155Y649575D01*
X1588452Y649636D01*
X1588694Y649799D01*
X1648212Y709317D01*
X1927433Y709317D01*
X1927730Y709377D01*
X1927972Y709540D01*
X1930366Y711935D01*
X1933373Y713180D01*
X1936627Y713180D01*
X1939634Y711935D01*
X1941935Y709634D01*
X1943180Y706627D01*
X1943180Y703373D01*
X1941936Y700370D01*
X1941878Y700073D01*
X1941941Y699776D01*
X1942114Y699527D01*
X1942371Y699366D01*
X1942640Y699317D01*
X1952360Y699317D01*
X1952657Y699377D01*
X1952907Y699549D01*
X1953071Y699804D01*
X1953121Y700103D01*
X1953064Y700370D01*
X1951820Y703373D01*
X1951820Y706760D01*
X1951760Y707057D01*
X1951597Y707299D01*
X1890683Y768212D01*
X1890683Y777433D01*
X1890623Y777730D01*
X1890460Y777972D01*
X1888039Y780393D01*
X1887786Y780560D01*
X1887488Y780616D01*
X1887192Y780551D01*
X1886961Y780393D01*
X1884634Y778065D01*
X1881627Y776820D01*
X1878240Y776820D01*
X1877943Y776760D01*
X1877702Y776597D01*
X1866788Y765683D01*
X1823552Y765683D01*
X1823255Y765623D01*
X1823013Y765460D01*
X1816337Y758784D01*
X1816169Y758531D01*
X1816133Y758345D01*
X1806674Y748887D01*
X1788326Y748887D01*
X1774881Y762331D01*
X1774628Y762498D01*
X1774330Y762554D01*
X1774034Y762489D01*
X1773804Y762331D01*
X1771598Y760125D01*
X1767317Y758352D01*
X1762683Y758352D01*
X1758402Y760125D01*
X1755125Y763402D01*
X1753352Y767683D01*
X1753352Y772317D01*
X1755125Y776598D01*
X1758402Y779875D01*
X1762683Y781648D01*
X1767317Y781648D01*
X1771598Y779875D01*
X1774875Y776598D01*
X1776267Y773237D01*
X1776432Y772989D01*
X1777611Y771810D01*
X1777864Y771643D01*
X1778162Y771587D01*
X1778458Y771652D01*
X1778706Y771828D01*
X1778853Y772066D01*
X1778854Y772066D01*
X1778857Y772073D01*
X1778865Y772086D01*
X1778867Y772097D01*
X1780600Y776281D01*
X1783719Y779400D01*
X1787794Y781088D01*
X1789238Y781088D01*
X1789238Y769238D01*
X1801088Y769238D01*
X1801088Y767794D01*
X1799400Y763719D01*
X1796281Y760600D01*
X1792384Y758986D01*
X1792133Y758816D01*
X1791967Y758562D01*
X1791914Y758264D01*
X1791981Y757968D01*
X1792159Y757722D01*
X1792418Y757565D01*
X1792676Y757520D01*
X1802783Y757520D01*
X1803080Y757580D01*
X1803322Y757743D01*
X1807257Y761678D01*
X1807424Y761931D01*
X1807460Y762117D01*
X1819660Y774317D01*
X1862896Y774317D01*
X1863194Y774377D01*
X1863435Y774540D01*
X1871597Y782702D01*
X1871764Y782954D01*
X1871820Y783240D01*
X1871820Y786627D01*
X1873065Y789634D01*
X1875366Y791935D01*
X1878373Y793180D01*
X1881627Y793180D01*
X1884634Y791935D01*
X1886961Y789607D01*
X1887214Y789440D01*
X1887512Y789384D01*
X1887808Y789449D01*
X1888039Y789607D01*
X1890366Y791935D01*
X1893373Y793180D01*
X1896627Y793180D01*
X1899634Y791935D01*
X1901961Y789607D01*
X1902214Y789440D01*
X1902512Y789384D01*
X1902808Y789449D01*
X1903039Y789607D01*
X1905366Y791935D01*
X1908373Y793180D01*
X1911627Y793180D01*
X1914634Y791935D01*
X1916935Y789634D01*
X1918180Y786627D01*
X1918180Y783942D01*
X1918240Y783645D01*
X1918412Y783395D01*
X1918667Y783231D01*
X1918942Y783180D01*
X1919027Y783180D01*
X1919325Y783240D01*
X1919575Y783412D01*
X1919738Y783667D01*
X1919789Y783942D01*
X1919789Y786627D01*
X1921035Y789634D01*
X1923336Y791935D01*
X1926342Y793180D01*
X1929596Y793180D01*
X1932603Y791935D01*
X1934998Y789540D01*
X1935251Y789372D01*
X1935537Y789317D01*
X2061058Y789317D01*
X2061355Y789377D01*
X2061605Y789549D01*
X2061769Y789804D01*
X2061820Y790079D01*
X2061820Y791627D01*
X2063064Y794630D01*
X2063122Y794927D01*
X2063059Y795224D01*
X2062886Y795473D01*
X2062629Y795634D01*
X2062360Y795683D01*
X1752104Y795683D01*
X1751806Y795623D01*
X1751565Y795460D01*
X1744540Y788435D01*
X1744372Y788182D01*
X1744317Y787896D01*
X1744317Y781329D01*
X1744377Y781032D01*
X1744549Y780782D01*
X1744787Y780625D01*
X1746598Y779875D01*
X1749875Y776598D01*
X1751648Y772317D01*
X1751648Y767683D01*
X1749875Y763402D01*
X1746598Y760125D01*
X1742317Y758352D01*
X1737683Y758352D01*
X1733402Y760125D01*
X1730125Y763402D01*
X1728352Y767683D01*
X1728352Y772317D01*
X1730125Y776598D01*
X1733402Y779875D01*
X1735213Y780625D01*
X1735464Y780794D01*
X1735630Y781049D01*
X1735683Y781329D01*
X1735683Y791788D01*
X1738278Y794383D01*
X1738445Y794635D01*
X1738501Y794934D01*
X1738436Y795230D01*
X1738260Y795477D01*
X1738002Y795636D01*
X1737739Y795683D01*
X1322104Y795683D01*
X1321806Y795623D01*
X1321565Y795460D01*
X1314540Y788435D01*
X1314372Y788182D01*
X1314317Y787896D01*
X1314317Y781329D01*
X1314377Y781032D01*
X1314549Y780782D01*
X1314787Y780625D01*
X1316598Y779875D01*
X1319875Y776598D01*
X1321648Y772317D01*
X1321648Y767683D01*
X1319875Y763402D01*
X1316598Y760125D01*
X1312317Y758352D01*
X1307683Y758352D01*
X1303402Y760125D01*
X1300125Y763402D01*
X1298352Y767683D01*
X1298352Y772317D01*
X1300125Y776598D01*
X1303402Y779875D01*
X1305213Y780625D01*
X1305464Y780794D01*
X1305630Y781049D01*
X1305683Y781329D01*
X1305683Y791788D01*
X1308278Y794383D01*
X1308445Y794635D01*
X1308501Y794934D01*
X1308436Y795230D01*
X1308260Y795477D01*
X1308002Y795636D01*
X1307739Y795683D01*
X1237640Y795683D01*
X1237343Y795623D01*
X1237093Y795452D01*
X1236929Y795196D01*
X1236879Y794897D01*
X1236936Y794630D01*
X1238180Y791627D01*
X1238180Y788373D01*
X1236935Y785366D01*
X1234540Y782972D01*
X1234372Y782719D01*
X1234317Y782433D01*
X1234317Y598262D01*
X1067356Y431301D01*
X1067188Y431048D01*
X1067132Y430750D01*
X1067198Y430454D01*
X1067373Y430206D01*
X1067631Y430047D01*
X1067894Y430000D01*
X1193919Y430000D01*
X1194216Y430060D01*
G37*
%LPC*%
G36*
X1332683Y758352D02*
X1328402Y760125D01*
X1325125Y763402D01*
X1323352Y767683D01*
X1323352Y772317D01*
X1325125Y776598D01*
X1328402Y779875D01*
X1332683Y781648D01*
X1337317Y781648D01*
X1341598Y779875D01*
X1344875Y776598D01*
X1346648Y772317D01*
X1346648Y767683D01*
X1344875Y763402D01*
X1341598Y760125D01*
X1337317Y758352D01*
X1332683Y758352D01*
G37*
G36*
X1348912Y770762D02*
X1348912Y772206D01*
X1350600Y776281D01*
X1353719Y779400D01*
X1357794Y781088D01*
X1359238Y781088D01*
X1359238Y770762D01*
X1348912Y770762D01*
G37*
G36*
X1790762Y770762D02*
X1790762Y781088D01*
X1792206Y781088D01*
X1796281Y779400D01*
X1799400Y776281D01*
X1801088Y772206D01*
X1801088Y770762D01*
X1790762Y770762D01*
G37*
G36*
X1360762Y770762D02*
X1360762Y781088D01*
X1362206Y781088D01*
X1366281Y779400D01*
X1369400Y776281D01*
X1371088Y772206D01*
X1371088Y770762D01*
X1360762Y770762D01*
G37*
G36*
X1357794Y758912D02*
X1353719Y760600D01*
X1350600Y763719D01*
X1348912Y767794D01*
X1348912Y769238D01*
X1359238Y769238D01*
X1359238Y758912D01*
X1357794Y758912D01*
G37*
G36*
X1360762Y758912D02*
X1360762Y769238D01*
X1371088Y769238D01*
X1371088Y767794D01*
X1369400Y763719D01*
X1366281Y760600D01*
X1362206Y758912D01*
X1360762Y758912D01*
G37*
G36*
X1260161Y593156D02*
X1256034Y594865D01*
X1252875Y598024D01*
X1251166Y602151D01*
X1251166Y622873D01*
X1252875Y627000D01*
X1256034Y630159D01*
X1260161Y631868D01*
X1264627Y631868D01*
X1268754Y630159D01*
X1271913Y627000D01*
X1273622Y622873D01*
X1273622Y602151D01*
X1271913Y598024D01*
X1268754Y594865D01*
X1264627Y593156D01*
X1260161Y593156D01*
G37*
G36*
X1305373Y593156D02*
X1301246Y594865D01*
X1298087Y598024D01*
X1296378Y602151D01*
X1296378Y622873D01*
X1298087Y627000D01*
X1301246Y630159D01*
X1305373Y631868D01*
X1309839Y631868D01*
X1313966Y630159D01*
X1317125Y627000D01*
X1318834Y622873D01*
X1318834Y602151D01*
X1317125Y598024D01*
X1313966Y594865D01*
X1309839Y593156D01*
X1305373Y593156D01*
G37*
G36*
X1310362Y470762D02*
X1310362Y480088D01*
X1311607Y480088D01*
X1315314Y478552D01*
X1318152Y475714D01*
X1319688Y472007D01*
X1319688Y470762D01*
X1310362Y470762D01*
G37*
G36*
X1210362Y470762D02*
X1210362Y480088D01*
X1211607Y480088D01*
X1215314Y478552D01*
X1218152Y475714D01*
X1219688Y472007D01*
X1219688Y470762D01*
X1210362Y470762D01*
G37*
G36*
X1410362Y470762D02*
X1410362Y480088D01*
X1411607Y480088D01*
X1415314Y478552D01*
X1418152Y475714D01*
X1419688Y472007D01*
X1419688Y470762D01*
X1410362Y470762D01*
G37*
G36*
X1199512Y470762D02*
X1199512Y472007D01*
X1201048Y475714D01*
X1203886Y478552D01*
X1207593Y480088D01*
X1208838Y480088D01*
X1208838Y470762D01*
X1199512Y470762D01*
G37*
G36*
X1399512Y470762D02*
X1399512Y472007D01*
X1401048Y475714D01*
X1403886Y478552D01*
X1407593Y480088D01*
X1408838Y480088D01*
X1408838Y470762D01*
X1399512Y470762D01*
G37*
G36*
X1299512Y470762D02*
X1299512Y472007D01*
X1301048Y475714D01*
X1303886Y478552D01*
X1307593Y480088D01*
X1308838Y480088D01*
X1308838Y470762D01*
X1299512Y470762D01*
G37*
G36*
X1210362Y459912D02*
X1210362Y469238D01*
X1219688Y469238D01*
X1219688Y467993D01*
X1218152Y464286D01*
X1215314Y461448D01*
X1211607Y459912D01*
X1210362Y459912D01*
G37*
G36*
X1207593Y459912D02*
X1203886Y461448D01*
X1201048Y464286D01*
X1199512Y467993D01*
X1199512Y469238D01*
X1208838Y469238D01*
X1208838Y459912D01*
X1207593Y459912D01*
G37*
%LPD*%
G36*
X2238194Y679377D02*
X2238435Y679540D01*
X2335460Y776565D01*
X2335628Y776818D01*
X2335683Y777104D01*
X2335683Y782433D01*
X2335623Y782730D01*
X2335460Y782972D01*
X2333065Y785366D01*
X2331820Y788373D01*
X2331820Y791627D01*
X2333064Y794630D01*
X2333122Y794927D01*
X2333059Y795224D01*
X2332886Y795473D01*
X2332629Y795634D01*
X2332360Y795683D01*
X2182104Y795683D01*
X2181806Y795623D01*
X2181565Y795460D01*
X2174540Y788435D01*
X2174372Y788182D01*
X2174317Y787896D01*
X2174317Y781329D01*
X2174377Y781032D01*
X2174549Y780782D01*
X2174787Y780625D01*
X2176598Y779875D01*
X2179875Y776598D01*
X2181648Y772317D01*
X2181648Y767683D01*
X2179875Y763402D01*
X2177090Y760617D01*
X2176923Y760365D01*
X2176867Y760067D01*
X2176932Y759770D01*
X2177108Y759523D01*
X2177366Y759364D01*
X2177629Y759317D01*
X2177896Y759317D01*
X2178194Y759377D01*
X2178435Y759540D01*
X2183937Y765042D01*
X2184104Y765295D01*
X2184160Y765593D01*
X2184102Y765872D01*
X2183352Y767683D01*
X2183352Y772317D01*
X2185125Y776598D01*
X2188402Y779875D01*
X2192683Y781648D01*
X2197317Y781648D01*
X2201598Y779875D01*
X2204875Y776598D01*
X2206648Y772317D01*
X2206648Y767683D01*
X2204875Y763402D01*
X2201598Y760125D01*
X2197317Y758352D01*
X2192683Y758352D01*
X2190872Y759102D01*
X2190574Y759160D01*
X2190278Y759097D01*
X2190042Y758937D01*
X2181788Y750683D01*
X2150243Y750683D01*
X2139329Y761597D01*
X2139076Y761764D01*
X2138790Y761820D01*
X2135404Y761820D01*
X2132397Y763065D01*
X2130617Y764845D01*
X2130365Y765012D01*
X2130067Y765068D01*
X2129770Y765003D01*
X2129523Y764828D01*
X2129364Y764569D01*
X2129317Y764306D01*
X2129317Y718942D01*
X2129377Y718645D01*
X2129549Y718395D01*
X2129804Y718231D01*
X2130079Y718180D01*
X2131627Y718180D01*
X2134634Y716935D01*
X2136935Y714634D01*
X2138180Y711627D01*
X2138180Y708373D01*
X2136935Y705366D01*
X2134634Y703065D01*
X2131627Y701820D01*
X2128373Y701820D01*
X2125366Y703065D01*
X2123065Y705366D01*
X2121820Y708373D01*
X2121820Y711760D01*
X2121760Y712057D01*
X2121597Y712299D01*
X2120617Y713278D01*
X2120365Y713445D01*
X2120067Y713501D01*
X2119770Y713436D01*
X2119523Y713260D01*
X2119364Y713002D01*
X2119317Y712739D01*
X2119317Y703212D01*
X2096722Y680617D01*
X2096555Y680365D01*
X2096499Y680067D01*
X2096564Y679770D01*
X2096740Y679523D01*
X2096998Y679364D01*
X2097261Y679317D01*
X2237896Y679317D01*
X2238194Y679377D01*
G37*
%LPC*%
G36*
X2208912Y770762D02*
X2208912Y772206D01*
X2210600Y776281D01*
X2213719Y779400D01*
X2217794Y781088D01*
X2219238Y781088D01*
X2219238Y770762D01*
X2208912Y770762D01*
G37*
G36*
X2220762Y770762D02*
X2220762Y781088D01*
X2222206Y781088D01*
X2226281Y779400D01*
X2229400Y776281D01*
X2231088Y772206D01*
X2231088Y770762D01*
X2220762Y770762D01*
G37*
G36*
X2220762Y758912D02*
X2220762Y769238D01*
X2231088Y769238D01*
X2231088Y767794D01*
X2229400Y763719D01*
X2226281Y760600D01*
X2222206Y758912D01*
X2220762Y758912D01*
G37*
G36*
X2217794Y758912D02*
X2213719Y760600D01*
X2210600Y763719D01*
X2208912Y767794D01*
X2208912Y769238D01*
X2219238Y769238D01*
X2219238Y758912D01*
X2217794Y758912D01*
G37*
%LPD*%
G36*
X1143194Y749377D02*
X1143435Y749540D01*
X1150460Y756565D01*
X1150628Y756818D01*
X1150683Y757104D01*
X1150683Y781058D01*
X1150623Y781355D01*
X1150452Y781605D01*
X1150196Y781769D01*
X1149921Y781820D01*
X1148373Y781820D01*
X1145366Y783065D01*
X1143065Y785366D01*
X1141820Y788373D01*
X1141820Y791627D01*
X1143064Y794630D01*
X1143122Y794927D01*
X1143059Y795224D01*
X1142886Y795473D01*
X1142629Y795634D01*
X1142360Y795683D01*
X962104Y795683D01*
X961806Y795623D01*
X961565Y795460D01*
X949540Y783435D01*
X949372Y783182D01*
X949317Y782896D01*
X949317Y781329D01*
X949377Y781032D01*
X949549Y780782D01*
X949787Y780625D01*
X951598Y779875D01*
X954875Y776598D01*
X956648Y772317D01*
X956648Y767683D01*
X954875Y763402D01*
X952090Y760617D01*
X951923Y760365D01*
X951867Y760067D01*
X951932Y759770D01*
X952108Y759523D01*
X952366Y759364D01*
X952629Y759317D01*
X962371Y759317D01*
X962668Y759377D01*
X962918Y759549D01*
X963082Y759804D01*
X963133Y760103D01*
X963063Y760398D01*
X962910Y760617D01*
X960125Y763402D01*
X958352Y767683D01*
X958352Y772317D01*
X960125Y776598D01*
X963402Y779875D01*
X967683Y781648D01*
X972317Y781648D01*
X976598Y779875D01*
X979875Y776598D01*
X981648Y772317D01*
X981648Y767683D01*
X979875Y763402D01*
X977090Y760617D01*
X976923Y760365D01*
X976867Y760067D01*
X976932Y759770D01*
X977108Y759523D01*
X977366Y759364D01*
X977629Y759317D01*
X988163Y759317D01*
X988460Y759377D01*
X988710Y759549D01*
X988874Y759804D01*
X988925Y760103D01*
X988855Y760398D01*
X988702Y760617D01*
X985600Y763719D01*
X983912Y767794D01*
X983912Y769238D01*
X1006088Y769238D01*
X1006088Y767794D01*
X1004400Y763719D01*
X1001298Y760617D01*
X1001131Y760365D01*
X1001075Y760067D01*
X1001140Y759770D01*
X1001316Y759523D01*
X1001574Y759364D01*
X1001837Y759317D01*
X1122433Y759317D01*
X1122730Y759377D01*
X1122972Y759540D01*
X1125366Y761935D01*
X1128373Y763180D01*
X1131627Y763180D01*
X1134634Y761935D01*
X1136935Y759634D01*
X1138180Y756627D01*
X1138180Y753373D01*
X1136936Y750370D01*
X1136878Y750073D01*
X1136941Y749776D01*
X1137114Y749527D01*
X1137371Y749366D01*
X1137640Y749317D01*
X1142896Y749317D01*
X1143194Y749377D01*
G37*
%LPC*%
G36*
X983912Y770762D02*
X983912Y772206D01*
X985600Y776281D01*
X988719Y779400D01*
X992794Y781088D01*
X994238Y781088D01*
X994238Y770762D01*
X983912Y770762D01*
G37*
G36*
X995762Y770762D02*
X995762Y781088D01*
X997206Y781088D01*
X1001281Y779400D01*
X1004400Y776281D01*
X1006088Y772206D01*
X1006088Y770762D01*
X995762Y770762D01*
G37*
%LPD*%
G36*
X560819Y489377D02*
X561069Y489549D01*
X561233Y489804D01*
X561284Y490079D01*
X561284Y499670D01*
X561224Y499968D01*
X561052Y500218D01*
X560814Y500374D01*
X559368Y500973D01*
X556373Y503968D01*
X554752Y507882D01*
X554752Y512118D01*
X556373Y516032D01*
X559368Y519027D01*
X563282Y520648D01*
X567518Y520648D01*
X571432Y519027D01*
X574427Y516032D01*
X576048Y512118D01*
X576048Y507882D01*
X574427Y503968D01*
X571432Y500973D01*
X569986Y500374D01*
X569735Y500205D01*
X569569Y499951D01*
X569516Y499670D01*
X569516Y490079D01*
X569576Y489781D01*
X569748Y489531D01*
X570003Y489368D01*
X570278Y489317D01*
X623028Y489317D01*
X623325Y489377D01*
X623566Y489540D01*
X623740Y489713D01*
X636260Y489713D01*
X636434Y489540D01*
X636687Y489372D01*
X636972Y489317D01*
X760522Y489317D01*
X760819Y489377D01*
X761069Y489549D01*
X761233Y489804D01*
X761284Y490079D01*
X761284Y499670D01*
X761224Y499968D01*
X761052Y500218D01*
X760814Y500374D01*
X759368Y500973D01*
X756373Y503968D01*
X754752Y507882D01*
X754752Y512118D01*
X756373Y516032D01*
X759368Y519027D01*
X763282Y520648D01*
X767518Y520648D01*
X771432Y519027D01*
X774427Y516032D01*
X776048Y512118D01*
X776048Y507882D01*
X774427Y503968D01*
X771432Y500973D01*
X769986Y500374D01*
X769735Y500205D01*
X769569Y499951D01*
X769516Y499670D01*
X769516Y490079D01*
X769576Y489781D01*
X769748Y489531D01*
X770003Y489368D01*
X770278Y489317D01*
X803028Y489317D01*
X803325Y489377D01*
X803566Y489540D01*
X813357Y499330D01*
X813524Y499583D01*
X813580Y499881D01*
X813515Y500177D01*
X813357Y500408D01*
X775683Y538081D01*
X775683Y576788D01*
X845460Y646565D01*
X845628Y646818D01*
X845683Y647104D01*
X845683Y722433D01*
X845623Y722730D01*
X845460Y722972D01*
X843065Y725366D01*
X841820Y728373D01*
X841820Y731627D01*
X843065Y734634D01*
X845366Y736935D01*
X848373Y738180D01*
X851627Y738180D01*
X854634Y736935D01*
X856935Y734634D01*
X858180Y731627D01*
X858180Y728373D01*
X856935Y725366D01*
X854540Y722972D01*
X854372Y722719D01*
X854317Y722433D01*
X854317Y643212D01*
X784540Y573435D01*
X784372Y573182D01*
X784317Y572896D01*
X784317Y541972D01*
X784377Y541675D01*
X784540Y541434D01*
X817630Y508343D01*
X817883Y508176D01*
X818169Y508120D01*
X858097Y508120D01*
X858394Y508180D01*
X858644Y508352D01*
X858807Y508607D01*
X858858Y508906D01*
X858801Y509174D01*
X857384Y512593D01*
X857384Y513838D01*
X868234Y513838D01*
X868234Y524688D01*
X869479Y524688D01*
X872898Y523271D01*
X873196Y523214D01*
X873493Y523276D01*
X873742Y523450D01*
X873903Y523706D01*
X873952Y523975D01*
X873952Y527663D01*
X885943Y539654D01*
X886110Y539906D01*
X886166Y540192D01*
X886166Y557849D01*
X887875Y561976D01*
X891034Y565135D01*
X895161Y566844D01*
X899627Y566844D01*
X903754Y565135D01*
X906913Y561976D01*
X908622Y557849D01*
X908622Y537127D01*
X906913Y533000D01*
X903754Y529841D01*
X902181Y529190D01*
X901930Y529020D01*
X901764Y528766D01*
X901711Y528486D01*
X901711Y515926D01*
X901771Y515629D01*
X901934Y515387D01*
X902982Y514339D01*
X903235Y514172D01*
X903521Y514116D01*
X904270Y514116D01*
X904568Y514176D01*
X904818Y514348D01*
X904974Y514586D01*
X905573Y516032D01*
X908568Y519027D01*
X912482Y520648D01*
X916718Y520648D01*
X920632Y519027D01*
X923627Y516032D01*
X925248Y512118D01*
X925248Y507882D01*
X923627Y503968D01*
X920632Y500973D01*
X916718Y499352D01*
X912482Y499352D01*
X908568Y500973D01*
X905573Y503968D01*
X904974Y505414D01*
X904805Y505665D01*
X904551Y505831D01*
X904270Y505884D01*
X899795Y505884D01*
X896113Y509566D01*
X895860Y509734D01*
X895614Y509782D01*
X893077Y512318D01*
X893077Y528486D01*
X893017Y528783D01*
X892846Y529033D01*
X892607Y529190D01*
X891034Y529841D01*
X890226Y530649D01*
X889973Y530817D01*
X889675Y530873D01*
X889379Y530807D01*
X889148Y530649D01*
X882809Y524310D01*
X882641Y524057D01*
X882585Y523771D01*
X882585Y508340D01*
X873732Y499487D01*
X828326Y499487D01*
X828029Y499426D01*
X827779Y499255D01*
X827616Y498999D01*
X827565Y498700D01*
X827635Y498405D01*
X827788Y498186D01*
X836434Y489540D01*
X836687Y489372D01*
X836972Y489317D01*
X911680Y489317D01*
X911977Y489377D01*
X912219Y489540D01*
X936795Y514116D01*
X975070Y514116D01*
X975368Y514176D01*
X975618Y514348D01*
X975774Y514586D01*
X976373Y516032D01*
X979368Y519027D01*
X983282Y520648D01*
X987518Y520648D01*
X991432Y519027D01*
X994427Y516032D01*
X996048Y512118D01*
X996048Y507882D01*
X994427Y503968D01*
X991432Y500973D01*
X990014Y500386D01*
X989763Y500216D01*
X989597Y499962D01*
X989544Y499664D01*
X989612Y499368D01*
X989789Y499122D01*
X990048Y498965D01*
X990306Y498920D01*
X1022368Y498920D01*
X1022666Y498980D01*
X1022907Y499143D01*
X1210460Y686696D01*
X1210628Y686949D01*
X1210683Y687235D01*
X1210683Y782433D01*
X1210623Y782730D01*
X1210460Y782972D01*
X1208065Y785366D01*
X1206820Y788373D01*
X1206820Y791627D01*
X1208064Y794630D01*
X1208122Y794927D01*
X1208059Y795224D01*
X1207886Y795473D01*
X1207629Y795634D01*
X1207360Y795683D01*
X1187640Y795683D01*
X1187343Y795623D01*
X1187093Y795452D01*
X1186929Y795196D01*
X1186879Y794897D01*
X1186936Y794630D01*
X1188180Y791627D01*
X1188180Y788373D01*
X1186935Y785366D01*
X1184540Y782972D01*
X1184372Y782719D01*
X1184317Y782433D01*
X1184317Y748201D01*
X1184172Y747982D01*
X1184116Y747696D01*
X1184116Y738710D01*
X1027172Y581766D01*
X1027005Y581513D01*
X1026949Y581215D01*
X1027014Y580919D01*
X1027189Y580672D01*
X1027419Y580523D01*
X1031032Y579027D01*
X1034027Y576032D01*
X1035648Y572118D01*
X1035648Y567882D01*
X1034027Y563968D01*
X1031975Y561917D01*
X1031808Y561664D01*
X1031752Y561366D01*
X1031817Y561070D01*
X1031993Y560822D01*
X1032251Y560663D01*
X1032514Y560616D01*
X1039079Y560616D01*
X1039377Y560676D01*
X1039618Y560839D01*
X1059785Y581006D01*
X1059953Y581259D01*
X1060009Y581557D01*
X1059951Y581837D01*
X1059352Y583282D01*
X1059352Y587518D01*
X1060973Y591432D01*
X1063968Y594427D01*
X1067882Y596048D01*
X1072118Y596048D01*
X1076032Y594427D01*
X1079027Y591432D01*
X1080648Y587518D01*
X1080648Y583282D01*
X1079027Y579368D01*
X1076032Y576373D01*
X1072118Y574752D01*
X1067882Y574752D01*
X1066437Y575351D01*
X1066139Y575409D01*
X1065842Y575346D01*
X1065606Y575185D01*
X1042805Y552384D01*
X1023295Y552384D01*
X1020884Y554795D01*
X1020884Y559670D01*
X1020824Y559968D01*
X1020652Y560218D01*
X1020414Y560374D01*
X1018968Y560973D01*
X1015973Y563968D01*
X1014352Y567882D01*
X1014352Y569926D01*
X1014292Y570223D01*
X1014120Y570473D01*
X1013865Y570637D01*
X1013590Y570688D01*
X1011410Y570688D01*
X1011113Y570628D01*
X1010863Y570456D01*
X1010699Y570201D01*
X1010648Y569926D01*
X1010648Y567882D01*
X1009027Y563968D01*
X1006032Y560973D01*
X1002118Y559352D01*
X997882Y559352D01*
X993968Y560973D01*
X990973Y563968D01*
X989352Y567882D01*
X989352Y572118D01*
X990973Y576032D01*
X993968Y579027D01*
X997882Y580648D01*
X1002118Y580648D01*
X1006150Y578978D01*
X1006441Y578920D01*
X1012369Y578920D01*
X1012666Y578980D01*
X1012907Y579143D01*
X1175661Y741897D01*
X1175828Y742150D01*
X1175884Y742435D01*
X1175884Y747696D01*
X1175824Y747993D01*
X1175683Y748201D01*
X1175683Y782433D01*
X1175623Y782730D01*
X1175460Y782972D01*
X1173039Y785393D01*
X1172786Y785560D01*
X1172488Y785616D01*
X1172192Y785551D01*
X1171961Y785393D01*
X1169540Y782972D01*
X1169372Y782719D01*
X1169317Y782433D01*
X1169317Y753212D01*
X1151788Y735683D01*
X971820Y735683D01*
X971523Y735623D01*
X971281Y735460D01*
X810215Y574394D01*
X810047Y574141D01*
X809991Y573843D01*
X810049Y573563D01*
X810648Y572118D01*
X810648Y567882D01*
X809027Y563968D01*
X806032Y560973D01*
X802118Y559352D01*
X797882Y559352D01*
X793968Y560973D01*
X790973Y563968D01*
X789352Y567882D01*
X789352Y572118D01*
X790973Y576032D01*
X793968Y579027D01*
X797882Y580648D01*
X802118Y580648D01*
X803563Y580049D01*
X803861Y579991D01*
X804158Y580054D01*
X804394Y580215D01*
X963562Y739383D01*
X963729Y739635D01*
X963785Y739934D01*
X963720Y740230D01*
X963544Y740477D01*
X963286Y740636D01*
X963023Y740683D01*
X776435Y740683D01*
X776138Y740623D01*
X775896Y740460D01*
X623743Y588307D01*
X623576Y588055D01*
X623520Y587769D01*
X623520Y587699D01*
X610215Y574394D01*
X610047Y574141D01*
X609991Y573843D01*
X610049Y573563D01*
X610648Y572118D01*
X610648Y567882D01*
X609027Y563968D01*
X606032Y560973D01*
X602118Y559352D01*
X597882Y559352D01*
X593968Y560973D01*
X590973Y563968D01*
X589352Y567882D01*
X589352Y572118D01*
X590973Y576032D01*
X593968Y579027D01*
X597882Y580648D01*
X602118Y580648D01*
X603563Y580049D01*
X603861Y579991D01*
X604158Y580054D01*
X604394Y580215D01*
X615065Y590886D01*
X615232Y591139D01*
X615288Y591425D01*
X615288Y591494D01*
X772965Y749171D01*
X772993Y749176D01*
X773235Y749339D01*
X773278Y749383D01*
X773445Y749635D01*
X773501Y749934D01*
X773436Y750230D01*
X773260Y750477D01*
X773002Y750636D01*
X772739Y750683D01*
X586820Y750683D01*
X586523Y750623D01*
X586281Y750460D01*
X410215Y574394D01*
X410047Y574141D01*
X409991Y573843D01*
X410049Y573563D01*
X410648Y572118D01*
X410648Y567882D01*
X409027Y563968D01*
X406032Y560973D01*
X402118Y559352D01*
X397882Y559352D01*
X393968Y560973D01*
X390973Y563968D01*
X389352Y567882D01*
X389352Y572118D01*
X390973Y576032D01*
X393968Y579027D01*
X397882Y580648D01*
X402118Y580648D01*
X403563Y580049D01*
X403861Y579991D01*
X404158Y580054D01*
X404394Y580215D01*
X580460Y756281D01*
X580628Y756534D01*
X580676Y756780D01*
X583212Y759317D01*
X588163Y759317D01*
X588460Y759377D01*
X588710Y759549D01*
X588874Y759804D01*
X588925Y760103D01*
X588855Y760398D01*
X588702Y760617D01*
X585600Y763719D01*
X583912Y767794D01*
X583912Y769238D01*
X606088Y769238D01*
X606088Y767794D01*
X604400Y763719D01*
X601298Y760617D01*
X601131Y760365D01*
X601075Y760067D01*
X601140Y759770D01*
X601316Y759523D01*
X601574Y759364D01*
X601837Y759317D01*
X737371Y759317D01*
X737668Y759377D01*
X737918Y759549D01*
X738082Y759804D01*
X738133Y760103D01*
X738063Y760398D01*
X737910Y760617D01*
X735125Y763402D01*
X733352Y767683D01*
X733352Y772317D01*
X735125Y776598D01*
X738402Y779875D01*
X740213Y780625D01*
X740464Y780794D01*
X740630Y781049D01*
X740683Y781329D01*
X740683Y794921D01*
X740623Y795219D01*
X740452Y795469D01*
X740196Y795632D01*
X739921Y795683D01*
X710913Y795683D01*
X710616Y795623D01*
X710374Y795460D01*
X710238Y795324D01*
X576744Y795324D01*
X576447Y795264D01*
X576205Y795101D01*
X556063Y774958D01*
X555896Y774706D01*
X555840Y774407D01*
X555898Y774128D01*
X556648Y772317D01*
X556648Y767683D01*
X554875Y763402D01*
X551598Y760125D01*
X547317Y758352D01*
X542683Y758352D01*
X538402Y760125D01*
X535125Y763402D01*
X534375Y765213D01*
X534206Y765464D01*
X533952Y765630D01*
X533671Y765683D01*
X474701Y765683D01*
X474482Y765828D01*
X474196Y765884D01*
X445079Y765884D01*
X444781Y765824D01*
X444531Y765652D01*
X444368Y765397D01*
X444317Y765122D01*
X444317Y764804D01*
X444377Y764506D01*
X444540Y764265D01*
X444781Y764024D01*
X445033Y763857D01*
X445319Y763801D01*
X454598Y763801D01*
X461101Y757298D01*
X461101Y748102D01*
X454598Y741599D01*
X445402Y741599D01*
X438874Y748127D01*
X438839Y748301D01*
X438667Y748551D01*
X438412Y748714D01*
X438137Y748765D01*
X401479Y748765D01*
X398943Y751302D01*
X398890Y751559D01*
X398728Y751801D01*
X397968Y752561D01*
X397715Y752728D01*
X397429Y752784D01*
X395460Y752784D01*
X395163Y752724D01*
X394913Y752552D01*
X394749Y752297D01*
X394698Y752022D01*
X394698Y748318D01*
X392882Y746502D01*
X375718Y746502D01*
X373902Y748318D01*
X373902Y752022D01*
X373842Y752319D01*
X373670Y752569D01*
X373415Y752733D01*
X373140Y752784D01*
X354204Y752784D01*
X353907Y752724D01*
X353666Y752561D01*
X349540Y748435D01*
X349372Y748182D01*
X349317Y747896D01*
X349317Y657104D01*
X349377Y656806D01*
X349540Y656565D01*
X369317Y636788D01*
X369317Y523212D01*
X350925Y504821D01*
X350758Y504568D01*
X350702Y504270D01*
X350767Y503974D01*
X350943Y503726D01*
X351201Y503567D01*
X351464Y503520D01*
X466558Y503520D01*
X466855Y503580D01*
X467105Y503752D01*
X467268Y504007D01*
X467319Y504306D01*
X467249Y504601D01*
X467070Y504846D01*
X466849Y504986D01*
X464286Y506048D01*
X461448Y508886D01*
X459912Y512593D01*
X459912Y513838D01*
X480088Y513838D01*
X480088Y512593D01*
X478552Y508886D01*
X475714Y506048D01*
X473151Y504986D01*
X472899Y504816D01*
X472734Y504562D01*
X472681Y504264D01*
X472748Y503968D01*
X472926Y503722D01*
X473185Y503565D01*
X473442Y503520D01*
X481916Y503520D01*
X495896Y489540D01*
X496149Y489372D01*
X496435Y489317D01*
X560522Y489317D01*
X560819Y489377D01*
G37*
%LPC*%
G36*
X567683Y758352D02*
X563402Y760125D01*
X560125Y763402D01*
X558352Y767683D01*
X558352Y772317D01*
X560125Y776598D01*
X563402Y779875D01*
X567683Y781648D01*
X572317Y781648D01*
X576598Y779875D01*
X579875Y776598D01*
X581648Y772317D01*
X581648Y767683D01*
X579875Y763402D01*
X576598Y760125D01*
X572317Y758352D01*
X567683Y758352D01*
G37*
G36*
X583912Y770762D02*
X583912Y772206D01*
X585600Y776281D01*
X588719Y779400D01*
X592794Y781088D01*
X594238Y781088D01*
X594238Y770762D01*
X583912Y770762D01*
G37*
G36*
X595762Y770762D02*
X595762Y781088D01*
X597206Y781088D01*
X601281Y779400D01*
X604400Y776281D01*
X606088Y772206D01*
X606088Y770762D01*
X595762Y770762D01*
G37*
G36*
X385062Y732262D02*
X385062Y741338D01*
X386257Y741338D01*
X389873Y739840D01*
X392640Y737073D01*
X394138Y733457D01*
X394138Y732262D01*
X385062Y732262D01*
G37*
G36*
X374462Y732262D02*
X374462Y733457D01*
X375960Y737073D01*
X378727Y739840D01*
X382343Y741338D01*
X383538Y741338D01*
X383538Y732262D01*
X374462Y732262D01*
G37*
G36*
X450762Y728062D02*
X450762Y737841D01*
X454366Y737841D01*
X460541Y731666D01*
X460541Y728062D01*
X450762Y728062D01*
G37*
G36*
X439459Y728062D02*
X439459Y731666D01*
X445634Y737841D01*
X449238Y737841D01*
X449238Y728062D01*
X439459Y728062D01*
G37*
G36*
X382343Y721662D02*
X378727Y723160D01*
X375960Y725927D01*
X374462Y729543D01*
X374462Y730738D01*
X383538Y730738D01*
X383538Y721662D01*
X382343Y721662D01*
G37*
G36*
X385062Y721662D02*
X385062Y730738D01*
X394138Y730738D01*
X394138Y729543D01*
X392640Y725927D01*
X389873Y723160D01*
X386257Y721662D01*
X385062Y721662D01*
G37*
G36*
X445634Y716759D02*
X439459Y722934D01*
X439459Y726538D01*
X449238Y726538D01*
X449238Y716759D01*
X445634Y716759D01*
G37*
G36*
X450762Y716759D02*
X450762Y726538D01*
X460541Y726538D01*
X460541Y722934D01*
X454366Y716759D01*
X450762Y716759D01*
G37*
G36*
X895161Y593156D02*
X891034Y594865D01*
X887875Y598024D01*
X886166Y602151D01*
X886166Y622873D01*
X887875Y627000D01*
X891034Y630159D01*
X895161Y631868D01*
X899627Y631868D01*
X903754Y630159D01*
X906913Y627000D01*
X908622Y622873D01*
X908622Y602151D01*
X906913Y598024D01*
X903754Y594865D01*
X899627Y593156D01*
X895161Y593156D01*
G37*
G36*
X695161Y593156D02*
X691034Y594865D01*
X687875Y598024D01*
X686166Y602151D01*
X686166Y622873D01*
X687875Y627000D01*
X691034Y630159D01*
X695161Y631868D01*
X699627Y631868D01*
X703754Y630159D01*
X706913Y627000D01*
X708622Y622873D01*
X708622Y602151D01*
X706913Y598024D01*
X703754Y594865D01*
X699627Y593156D01*
X695161Y593156D01*
G37*
G36*
X740373Y593156D02*
X736246Y594865D01*
X733087Y598024D01*
X731378Y602151D01*
X731378Y622873D01*
X733087Y627000D01*
X736246Y630159D01*
X740373Y631868D01*
X744839Y631868D01*
X748966Y630159D01*
X752125Y627000D01*
X753834Y622873D01*
X753834Y602151D01*
X752125Y598024D01*
X748966Y594865D01*
X744839Y593156D01*
X740373Y593156D01*
G37*
G36*
X940373Y593156D02*
X936246Y594865D01*
X933087Y598024D01*
X931378Y602151D01*
X931378Y622873D01*
X933087Y627000D01*
X936246Y630159D01*
X940373Y631868D01*
X944839Y631868D01*
X948966Y630159D01*
X952125Y627000D01*
X953834Y622873D01*
X953834Y602151D01*
X952125Y598024D01*
X948966Y594865D01*
X944839Y593156D01*
X940373Y593156D01*
G37*
G36*
X495161Y593156D02*
X491034Y594865D01*
X487875Y598024D01*
X486166Y602151D01*
X486166Y622873D01*
X487875Y627000D01*
X491034Y630159D01*
X495161Y631868D01*
X499627Y631868D01*
X503754Y630159D01*
X506913Y627000D01*
X508622Y622873D01*
X508622Y602151D01*
X506913Y598024D01*
X503754Y594865D01*
X499627Y593156D01*
X495161Y593156D01*
G37*
G36*
X540373Y593156D02*
X536246Y594865D01*
X533087Y598024D01*
X531378Y602151D01*
X531378Y622873D01*
X533087Y627000D01*
X536246Y630159D01*
X540373Y631868D01*
X544839Y631868D01*
X548966Y630159D01*
X552125Y627000D01*
X553834Y622873D01*
X553834Y602151D01*
X552125Y598024D01*
X548966Y594865D01*
X544839Y593156D01*
X540373Y593156D01*
G37*
G36*
X823295Y552384D02*
X820884Y554795D01*
X820884Y559670D01*
X820824Y559968D01*
X820652Y560218D01*
X820414Y560374D01*
X818968Y560973D01*
X815973Y563968D01*
X814352Y567882D01*
X814352Y572118D01*
X815973Y576032D01*
X818968Y579027D01*
X822882Y580648D01*
X827118Y580648D01*
X831032Y579027D01*
X834027Y576032D01*
X835648Y572118D01*
X835648Y567882D01*
X834027Y563968D01*
X831975Y561917D01*
X831808Y561664D01*
X831752Y561366D01*
X831817Y561070D01*
X831993Y560822D01*
X832251Y560663D01*
X832514Y560616D01*
X836551Y560616D01*
X836849Y560676D01*
X837090Y560839D01*
X857257Y581006D01*
X857425Y581259D01*
X857481Y581557D01*
X857423Y581837D01*
X856824Y583282D01*
X856824Y587518D01*
X858445Y591432D01*
X861440Y594427D01*
X865354Y596048D01*
X869590Y596048D01*
X873504Y594427D01*
X876499Y591432D01*
X878120Y587518D01*
X878120Y583282D01*
X876499Y579368D01*
X873504Y576373D01*
X869590Y574752D01*
X865354Y574752D01*
X863909Y575351D01*
X863611Y575409D01*
X863314Y575346D01*
X863078Y575185D01*
X840277Y552384D01*
X823295Y552384D01*
G37*
G36*
X623295Y552384D02*
X620884Y554795D01*
X620884Y559670D01*
X620824Y559968D01*
X620652Y560218D01*
X620414Y560374D01*
X618968Y560973D01*
X615973Y563968D01*
X614352Y567882D01*
X614352Y572118D01*
X615973Y576032D01*
X618968Y579027D01*
X622882Y580648D01*
X627118Y580648D01*
X631032Y579027D01*
X634027Y576032D01*
X635648Y572118D01*
X635648Y567882D01*
X634027Y563968D01*
X631975Y561917D01*
X631808Y561664D01*
X631752Y561366D01*
X631817Y561070D01*
X631993Y560822D01*
X632251Y560663D01*
X632514Y560616D01*
X639079Y560616D01*
X639377Y560676D01*
X639618Y560839D01*
X659785Y581006D01*
X659953Y581259D01*
X660009Y581557D01*
X659951Y581837D01*
X659352Y583282D01*
X659352Y587518D01*
X660973Y591432D01*
X663968Y594427D01*
X667882Y596048D01*
X672118Y596048D01*
X676032Y594427D01*
X679027Y591432D01*
X680648Y587518D01*
X680648Y583282D01*
X679027Y579368D01*
X676032Y576373D01*
X672118Y574752D01*
X667882Y574752D01*
X666437Y575351D01*
X666139Y575409D01*
X665842Y575346D01*
X665606Y575185D01*
X642805Y552384D01*
X623295Y552384D01*
G37*
G36*
X423295Y552384D02*
X420884Y554795D01*
X420884Y559670D01*
X420824Y559968D01*
X420652Y560218D01*
X420414Y560374D01*
X418968Y560973D01*
X415973Y563968D01*
X414352Y567882D01*
X414352Y572118D01*
X415973Y576032D01*
X418968Y579027D01*
X422882Y580648D01*
X427118Y580648D01*
X431032Y579027D01*
X434027Y576032D01*
X435648Y572118D01*
X435648Y567882D01*
X434027Y563968D01*
X431975Y561917D01*
X431808Y561664D01*
X431752Y561366D01*
X431817Y561070D01*
X431993Y560822D01*
X432251Y560663D01*
X432514Y560616D01*
X439079Y560616D01*
X439377Y560676D01*
X439618Y560839D01*
X459785Y581006D01*
X459953Y581259D01*
X460009Y581557D01*
X459951Y581837D01*
X459352Y583282D01*
X459352Y587518D01*
X460973Y591432D01*
X463968Y594427D01*
X467882Y596048D01*
X472118Y596048D01*
X476032Y594427D01*
X479027Y591432D01*
X480648Y587518D01*
X480648Y583282D01*
X479027Y579368D01*
X476032Y576373D01*
X472118Y574752D01*
X467882Y574752D01*
X466437Y575351D01*
X466139Y575409D01*
X465842Y575346D01*
X465606Y575185D01*
X442805Y552384D01*
X423295Y552384D01*
G37*
G36*
X692482Y499352D02*
X688568Y500973D01*
X685573Y503968D01*
X683952Y507882D01*
X683952Y512118D01*
X685573Y516032D01*
X688568Y519027D01*
X692482Y520648D01*
X692516Y520648D01*
X692813Y520708D01*
X693063Y520880D01*
X693227Y521135D01*
X693278Y521410D01*
X693278Y528403D01*
X693218Y528700D01*
X693046Y528950D01*
X692808Y529107D01*
X691034Y529841D01*
X687875Y533000D01*
X686166Y537127D01*
X686166Y557849D01*
X687875Y561976D01*
X691034Y565135D01*
X695161Y566844D01*
X699627Y566844D01*
X703754Y565135D01*
X706913Y561976D01*
X708622Y557849D01*
X708622Y537127D01*
X706913Y533000D01*
X703754Y529841D01*
X701980Y529107D01*
X701729Y528937D01*
X701563Y528683D01*
X701510Y528403D01*
X701510Y518464D01*
X701570Y518167D01*
X701733Y517925D01*
X703627Y516032D01*
X705248Y512118D01*
X705248Y507882D01*
X703627Y503968D01*
X700632Y500973D01*
X696718Y499352D01*
X692482Y499352D01*
G37*
G36*
X492482Y499352D02*
X488568Y500973D01*
X485573Y503968D01*
X483952Y507882D01*
X483952Y512118D01*
X485573Y516032D01*
X488568Y519027D01*
X492482Y520648D01*
X492516Y520648D01*
X492813Y520708D01*
X493063Y520880D01*
X493227Y521135D01*
X493278Y521410D01*
X493278Y528403D01*
X493218Y528700D01*
X493046Y528950D01*
X492808Y529107D01*
X491034Y529841D01*
X487875Y533000D01*
X486166Y537127D01*
X486166Y557849D01*
X487875Y561976D01*
X491034Y565135D01*
X495161Y566844D01*
X499627Y566844D01*
X503754Y565135D01*
X506913Y561976D01*
X508622Y557849D01*
X508622Y537127D01*
X506913Y533000D01*
X503754Y529841D01*
X501980Y529107D01*
X501729Y528937D01*
X501563Y528683D01*
X501510Y528403D01*
X501510Y518464D01*
X501570Y518167D01*
X501733Y517925D01*
X503627Y516032D01*
X505248Y512118D01*
X505248Y507882D01*
X503627Y503968D01*
X500632Y500973D01*
X496718Y499352D01*
X492482Y499352D01*
G37*
G36*
X531938Y548250D02*
X531938Y557738D01*
X533562Y561659D01*
X536563Y564660D01*
X540484Y566284D01*
X541844Y566284D01*
X541844Y548250D01*
X531938Y548250D01*
G37*
G36*
X731938Y548250D02*
X731938Y557738D01*
X733562Y561659D01*
X736563Y564660D01*
X740484Y566284D01*
X741844Y566284D01*
X741844Y548250D01*
X731938Y548250D01*
G37*
G36*
X931938Y548250D02*
X931938Y557738D01*
X933562Y561659D01*
X936563Y564660D01*
X940484Y566284D01*
X941844Y566284D01*
X941844Y548250D01*
X931938Y548250D01*
G37*
G36*
X943368Y548250D02*
X943368Y566284D01*
X944728Y566284D01*
X948649Y564660D01*
X951650Y561659D01*
X953274Y557738D01*
X953274Y548250D01*
X943368Y548250D01*
G37*
G36*
X743368Y548250D02*
X743368Y566284D01*
X744728Y566284D01*
X748649Y564660D01*
X751650Y561659D01*
X753274Y557738D01*
X753274Y548250D01*
X743368Y548250D01*
G37*
G36*
X543368Y548250D02*
X543368Y566284D01*
X544728Y566284D01*
X548649Y564660D01*
X551650Y561659D01*
X553274Y557738D01*
X553274Y548250D01*
X543368Y548250D01*
G37*
G36*
X740484Y528692D02*
X736563Y530316D01*
X733562Y533317D01*
X731938Y537238D01*
X731938Y546726D01*
X741844Y546726D01*
X741844Y528692D01*
X740484Y528692D01*
G37*
G36*
X743368Y528692D02*
X743368Y546726D01*
X753274Y546726D01*
X753274Y537238D01*
X751650Y533317D01*
X748649Y530316D01*
X744728Y528692D01*
X743368Y528692D01*
G37*
G36*
X940484Y528692D02*
X936563Y530316D01*
X933562Y533317D01*
X931938Y537238D01*
X931938Y546726D01*
X941844Y546726D01*
X941844Y528692D01*
X940484Y528692D01*
G37*
G36*
X943368Y528692D02*
X943368Y546726D01*
X953274Y546726D01*
X953274Y537238D01*
X951650Y533317D01*
X948649Y530316D01*
X944728Y528692D01*
X943368Y528692D01*
G37*
G36*
X540484Y528692D02*
X536563Y530316D01*
X533562Y533317D01*
X531938Y537238D01*
X531938Y546726D01*
X541844Y546726D01*
X541844Y528692D01*
X540484Y528692D01*
G37*
G36*
X543368Y528692D02*
X543368Y546726D01*
X553274Y546726D01*
X553274Y537238D01*
X551650Y533317D01*
X548649Y530316D01*
X544728Y528692D01*
X543368Y528692D01*
G37*
G36*
X459912Y515362D02*
X459912Y516607D01*
X461448Y520314D01*
X464286Y523152D01*
X467993Y524688D01*
X469238Y524688D01*
X469238Y515362D01*
X459912Y515362D01*
G37*
G36*
X659912Y515362D02*
X659912Y516607D01*
X661448Y520314D01*
X664286Y523152D01*
X667993Y524688D01*
X669238Y524688D01*
X669238Y515362D01*
X659912Y515362D01*
G37*
G36*
X670762Y515362D02*
X670762Y524688D01*
X672007Y524688D01*
X675714Y523152D01*
X678552Y520314D01*
X680088Y516607D01*
X680088Y515362D01*
X670762Y515362D01*
G37*
G36*
X470762Y515362D02*
X470762Y524688D01*
X472007Y524688D01*
X475714Y523152D01*
X478552Y520314D01*
X480088Y516607D01*
X480088Y515362D01*
X470762Y515362D01*
G37*
G36*
X857384Y515362D02*
X857384Y516607D01*
X858920Y520314D01*
X861758Y523152D01*
X865465Y524688D01*
X866710Y524688D01*
X866710Y515362D01*
X857384Y515362D01*
G37*
G36*
X667993Y504512D02*
X664286Y506048D01*
X661448Y508886D01*
X659912Y512593D01*
X659912Y513838D01*
X669238Y513838D01*
X669238Y504512D01*
X667993Y504512D01*
G37*
G36*
X670762Y504512D02*
X670762Y513838D01*
X680088Y513838D01*
X680088Y512593D01*
X678552Y508886D01*
X675714Y506048D01*
X672007Y504512D01*
X670762Y504512D01*
G37*
%LPD*%
G36*
X762668Y759377D02*
X762918Y759549D01*
X763082Y759804D01*
X763133Y760103D01*
X763063Y760398D01*
X762910Y760617D01*
X760125Y763402D01*
X758352Y767683D01*
X758352Y772317D01*
X760125Y776598D01*
X763402Y779875D01*
X767683Y781648D01*
X772317Y781648D01*
X776598Y779875D01*
X779875Y776598D01*
X781648Y772317D01*
X781648Y767683D01*
X779875Y763402D01*
X777090Y760617D01*
X776923Y760365D01*
X776867Y760067D01*
X776932Y759770D01*
X777108Y759523D01*
X777366Y759364D01*
X777629Y759317D01*
X788163Y759317D01*
X788460Y759377D01*
X788710Y759549D01*
X788874Y759804D01*
X788925Y760103D01*
X788855Y760398D01*
X788702Y760617D01*
X785600Y763719D01*
X783912Y767794D01*
X783912Y769238D01*
X806088Y769238D01*
X806088Y767794D01*
X804400Y763719D01*
X801298Y760617D01*
X801131Y760365D01*
X801075Y760067D01*
X801140Y759770D01*
X801316Y759523D01*
X801574Y759364D01*
X801837Y759317D01*
X937371Y759317D01*
X937668Y759377D01*
X937918Y759549D01*
X938082Y759804D01*
X938133Y760103D01*
X938063Y760398D01*
X937910Y760617D01*
X935125Y763402D01*
X933352Y767683D01*
X933352Y772317D01*
X935125Y776598D01*
X938402Y779875D01*
X940213Y780625D01*
X940464Y780794D01*
X940630Y781049D01*
X940683Y781329D01*
X940683Y786788D01*
X948278Y794383D01*
X948445Y794635D01*
X948501Y794934D01*
X948436Y795230D01*
X948260Y795477D01*
X948002Y795636D01*
X947739Y795683D01*
X752104Y795683D01*
X751806Y795623D01*
X751565Y795460D01*
X749540Y793435D01*
X749372Y793182D01*
X749317Y792896D01*
X749317Y781329D01*
X749377Y781032D01*
X749549Y780782D01*
X749787Y780625D01*
X751598Y779875D01*
X754875Y776598D01*
X756648Y772317D01*
X756648Y767683D01*
X754875Y763402D01*
X752090Y760617D01*
X751923Y760365D01*
X751867Y760067D01*
X751932Y759770D01*
X752108Y759523D01*
X752366Y759364D01*
X752629Y759317D01*
X762371Y759317D01*
X762668Y759377D01*
G37*
%LPC*%
G36*
X783912Y770762D02*
X783912Y772206D01*
X785600Y776281D01*
X788719Y779400D01*
X792794Y781088D01*
X794238Y781088D01*
X794238Y770762D01*
X783912Y770762D01*
G37*
G36*
X795762Y770762D02*
X795762Y781088D01*
X797206Y781088D01*
X801281Y779400D01*
X804400Y776281D01*
X806088Y772206D01*
X806088Y770762D01*
X795762Y770762D01*
G37*
%LPD*%
G36*
X1053827Y430060D02*
X1054069Y430223D01*
X1225460Y601615D01*
X1225628Y601868D01*
X1225683Y602154D01*
X1225683Y782433D01*
X1225623Y782730D01*
X1225460Y782972D01*
X1223039Y785393D01*
X1222786Y785560D01*
X1222488Y785616D01*
X1222192Y785551D01*
X1221961Y785393D01*
X1219540Y782972D01*
X1219372Y782719D01*
X1219317Y782433D01*
X1219317Y683343D01*
X1026260Y490287D01*
X986657Y490287D01*
X986360Y490226D01*
X986118Y490063D01*
X927356Y431301D01*
X927188Y431048D01*
X927132Y430750D01*
X927198Y430454D01*
X927373Y430206D01*
X927631Y430047D01*
X927894Y430000D01*
X1053530Y430000D01*
X1053827Y430060D01*
G37*
%LPC*%
G36*
X1059912Y515362D02*
X1059912Y516607D01*
X1061448Y520314D01*
X1064286Y523152D01*
X1067993Y524688D01*
X1069238Y524688D01*
X1069238Y515362D01*
X1059912Y515362D01*
G37*
G36*
X1070762Y515362D02*
X1070762Y524688D01*
X1072007Y524688D01*
X1075714Y523152D01*
X1078552Y520314D01*
X1080088Y516607D01*
X1080088Y515362D01*
X1070762Y515362D01*
G37*
G36*
X1067993Y504512D02*
X1064286Y506048D01*
X1061448Y508886D01*
X1059912Y512593D01*
X1059912Y513838D01*
X1069238Y513838D01*
X1069238Y504512D01*
X1067993Y504512D01*
G37*
G36*
X1070762Y504512D02*
X1070762Y513838D01*
X1080088Y513838D01*
X1080088Y512593D01*
X1078552Y508886D01*
X1075714Y506048D01*
X1072007Y504512D01*
X1070762Y504512D01*
G37*
%LPD*%
G36*
X1474834Y459377D02*
X1475084Y459549D01*
X1475247Y459804D01*
X1475298Y460103D01*
X1475228Y460398D01*
X1475049Y460643D01*
X1474828Y460783D01*
X1474368Y460973D01*
X1471373Y463968D01*
X1470774Y465414D01*
X1470605Y465665D01*
X1470351Y465831D01*
X1470070Y465884D01*
X1465295Y465884D01*
X1452219Y478960D01*
X1451966Y479128D01*
X1451720Y479176D01*
X1449183Y481712D01*
X1449183Y485288D01*
X1453212Y489317D01*
X1487896Y489317D01*
X1488194Y489377D01*
X1488435Y489540D01*
X1496597Y497702D01*
X1496764Y497954D01*
X1496820Y498240D01*
X1496820Y501627D01*
X1498065Y504634D01*
X1500366Y506935D01*
X1503373Y508180D01*
X1506760Y508180D01*
X1507057Y508240D01*
X1507299Y508403D01*
X1511607Y512711D01*
X1511774Y512964D01*
X1511830Y513262D01*
X1511765Y513558D01*
X1511589Y513806D01*
X1511331Y513965D01*
X1511068Y514012D01*
X1497567Y514012D01*
X1497270Y513952D01*
X1497028Y513789D01*
X1494634Y511394D01*
X1491627Y510149D01*
X1488373Y510149D01*
X1485366Y511394D01*
X1483065Y513695D01*
X1481820Y516702D01*
X1481820Y518983D01*
X1481760Y519280D01*
X1481588Y519530D01*
X1481333Y519694D01*
X1481034Y519745D01*
X1480739Y519675D01*
X1480519Y519522D01*
X1467035Y506038D01*
X1452815Y506038D01*
X1452517Y505978D01*
X1452276Y505815D01*
X1449881Y503420D01*
X1446874Y502175D01*
X1443620Y502175D01*
X1440614Y503420D01*
X1438313Y505721D01*
X1437067Y508728D01*
X1437067Y511982D01*
X1438313Y514988D01*
X1440614Y517289D01*
X1443620Y518535D01*
X1446874Y518535D01*
X1449881Y517289D01*
X1452276Y514895D01*
X1452529Y514727D01*
X1452815Y514671D01*
X1463144Y514671D01*
X1463441Y514732D01*
X1463683Y514895D01*
X1484762Y535974D01*
X1504446Y535974D01*
X1504744Y536034D01*
X1504985Y536197D01*
X1658171Y689383D01*
X1658338Y689635D01*
X1658394Y689934D01*
X1658329Y690230D01*
X1658153Y690477D01*
X1657895Y690636D01*
X1657632Y690683D01*
X1657104Y690683D01*
X1656806Y690623D01*
X1656565Y690460D01*
X1602582Y636477D01*
X1496184Y636477D01*
X1495886Y636417D01*
X1495636Y636245D01*
X1495473Y635990D01*
X1495422Y635691D01*
X1495492Y635395D01*
X1495645Y635176D01*
X1504116Y626705D01*
X1504116Y553295D01*
X1496305Y545484D01*
X1485330Y545484D01*
X1485032Y545424D01*
X1484782Y545252D01*
X1484626Y545014D01*
X1484027Y543568D01*
X1481032Y540573D01*
X1477118Y538952D01*
X1472882Y538952D01*
X1468968Y540573D01*
X1465973Y543568D01*
X1464352Y547482D01*
X1464352Y551718D01*
X1465973Y555632D01*
X1468968Y558627D01*
X1472882Y560248D01*
X1477118Y560248D01*
X1481032Y558627D01*
X1484027Y555632D01*
X1484626Y554186D01*
X1484795Y553935D01*
X1485049Y553769D01*
X1485330Y553716D01*
X1492579Y553716D01*
X1492877Y553776D01*
X1493118Y553939D01*
X1495661Y556482D01*
X1495828Y556735D01*
X1495884Y557021D01*
X1495884Y622979D01*
X1495824Y623277D01*
X1495661Y623518D01*
X1488518Y630661D01*
X1488265Y630828D01*
X1487979Y630884D01*
X1481345Y630884D01*
X1481048Y630824D01*
X1480797Y630652D01*
X1480634Y630397D01*
X1480583Y630098D01*
X1480653Y629803D01*
X1480832Y629558D01*
X1481019Y629440D01*
X1484027Y626432D01*
X1485648Y622518D01*
X1485648Y618282D01*
X1484027Y614368D01*
X1481032Y611373D01*
X1477118Y609752D01*
X1475889Y609752D01*
X1475591Y609692D01*
X1475350Y609529D01*
X1419339Y553518D01*
X1419172Y553265D01*
X1419116Y552979D01*
X1419116Y512021D01*
X1419176Y511723D01*
X1419339Y511482D01*
X1434116Y496705D01*
X1434116Y460079D01*
X1434176Y459781D01*
X1434348Y459531D01*
X1434603Y459368D01*
X1434878Y459317D01*
X1474536Y459317D01*
X1474834Y459377D01*
G37*
%LPC*%
G36*
X1435762Y535362D02*
X1435762Y544688D01*
X1437007Y544688D01*
X1440714Y543152D01*
X1443552Y540314D01*
X1445088Y536607D01*
X1445088Y535362D01*
X1435762Y535362D01*
G37*
G36*
X1424912Y535362D02*
X1424912Y536607D01*
X1426448Y540314D01*
X1429286Y543152D01*
X1432993Y544688D01*
X1434238Y544688D01*
X1434238Y535362D01*
X1424912Y535362D01*
G37*
G36*
X1432993Y524512D02*
X1429286Y526048D01*
X1426448Y528886D01*
X1424912Y532593D01*
X1424912Y533838D01*
X1434238Y533838D01*
X1434238Y524512D01*
X1432993Y524512D01*
G37*
G36*
X1435762Y524512D02*
X1435762Y533838D01*
X1445088Y533838D01*
X1445088Y532593D01*
X1443552Y528886D01*
X1440714Y526048D01*
X1437007Y524512D01*
X1435762Y524512D01*
G37*
%LPD*%
G36*
X1661653Y453587D02*
X1661895Y453750D01*
X1662462Y454317D01*
X1740685Y454317D01*
X1740982Y454377D01*
X1741104Y454459D01*
X1757415Y454459D01*
X1758125Y453750D01*
X1758378Y453582D01*
X1758664Y453527D01*
X1767049Y453527D01*
X1767347Y453587D01*
X1767588Y453750D01*
X1768155Y454317D01*
X1840685Y454317D01*
X1840982Y454377D01*
X1841104Y454459D01*
X1854681Y454459D01*
X1854979Y454520D01*
X1855229Y454691D01*
X1855392Y454947D01*
X1855443Y455246D01*
X1855373Y455541D01*
X1855220Y455760D01*
X1853075Y457905D01*
X1851830Y460912D01*
X1851830Y464298D01*
X1851770Y464596D01*
X1851607Y464837D01*
X1849183Y467261D01*
X1849183Y470837D01*
X1851720Y473373D01*
X1851977Y473426D01*
X1852219Y473588D01*
X1866061Y487430D01*
X1866228Y487683D01*
X1866284Y487969D01*
X1866284Y499670D01*
X1866224Y499968D01*
X1866052Y500218D01*
X1865814Y500374D01*
X1864368Y500973D01*
X1861373Y503968D01*
X1859752Y507882D01*
X1859752Y512118D01*
X1861373Y516032D01*
X1863929Y518587D01*
X1864096Y518840D01*
X1864152Y519138D01*
X1864087Y519434D01*
X1863911Y519682D01*
X1863653Y519841D01*
X1863390Y519888D01*
X1805818Y519888D01*
X1805521Y519828D01*
X1805271Y519656D01*
X1805107Y519401D01*
X1805057Y519102D01*
X1805126Y518807D01*
X1805279Y518587D01*
X1808152Y515714D01*
X1809688Y512007D01*
X1809688Y510762D01*
X1789512Y510762D01*
X1789512Y512007D01*
X1791048Y515714D01*
X1793921Y518587D01*
X1794088Y518840D01*
X1794144Y519138D01*
X1794079Y519434D01*
X1793903Y519682D01*
X1793645Y519841D01*
X1793382Y519888D01*
X1779482Y519888D01*
X1779185Y519828D01*
X1778935Y519656D01*
X1778771Y519401D01*
X1778721Y519102D01*
X1778790Y518807D01*
X1778943Y518587D01*
X1781499Y516032D01*
X1783120Y512118D01*
X1783120Y507882D01*
X1781499Y503968D01*
X1778504Y500973D01*
X1777058Y500374D01*
X1776807Y500205D01*
X1776641Y499951D01*
X1776588Y499670D01*
X1776588Y490767D01*
X1762375Y476554D01*
X1762207Y476301D01*
X1762151Y476003D01*
X1762217Y475706D01*
X1762392Y475459D01*
X1762622Y475311D01*
X1764644Y474473D01*
X1766945Y472172D01*
X1768190Y469166D01*
X1768190Y465912D01*
X1766945Y462905D01*
X1764644Y460604D01*
X1761637Y459359D01*
X1758383Y459359D01*
X1755376Y460604D01*
X1753075Y462905D01*
X1751830Y465912D01*
X1751830Y469298D01*
X1751770Y469596D01*
X1751607Y469837D01*
X1749458Y471986D01*
X1749458Y475562D01*
X1751994Y478099D01*
X1752252Y478151D01*
X1752493Y478314D01*
X1768133Y493954D01*
X1768300Y494207D01*
X1768356Y494493D01*
X1768356Y499670D01*
X1768296Y499968D01*
X1768124Y500218D01*
X1767886Y500374D01*
X1766440Y500973D01*
X1763445Y503968D01*
X1761824Y507882D01*
X1761824Y512118D01*
X1763445Y516032D01*
X1766001Y518587D01*
X1766168Y518840D01*
X1766224Y519138D01*
X1766159Y519434D01*
X1765983Y519682D01*
X1765725Y519841D01*
X1765462Y519888D01*
X1714173Y519888D01*
X1702026Y532035D01*
X1701773Y532203D01*
X1701475Y532258D01*
X1701179Y532193D01*
X1700948Y532035D01*
X1698754Y529841D01*
X1694627Y528132D01*
X1690161Y528132D01*
X1686034Y529841D01*
X1682875Y533000D01*
X1681166Y537127D01*
X1681166Y557849D01*
X1682875Y561976D01*
X1686034Y565135D01*
X1690161Y566844D01*
X1694627Y566844D01*
X1698754Y565135D01*
X1700948Y562941D01*
X1701201Y562773D01*
X1701499Y562718D01*
X1701795Y562783D01*
X1702026Y562941D01*
X1725366Y586281D01*
X1725534Y586534D01*
X1725582Y586780D01*
X1728118Y589317D01*
X1787228Y589317D01*
X1787525Y589377D01*
X1787766Y589540D01*
X1798740Y600513D01*
X1804093Y600513D01*
X1804390Y600574D01*
X1804632Y600737D01*
X1851597Y647702D01*
X1851764Y647954D01*
X1851820Y648240D01*
X1851820Y651627D01*
X1853065Y654634D01*
X1853349Y654917D01*
X1853516Y655170D01*
X1853572Y655468D01*
X1853507Y655764D01*
X1853332Y656012D01*
X1853073Y656171D01*
X1852810Y656218D01*
X1687638Y656218D01*
X1687341Y656158D01*
X1687100Y655995D01*
X1584540Y553435D01*
X1584372Y553182D01*
X1584317Y552896D01*
X1584317Y508881D01*
X1578343Y502907D01*
X1578176Y502654D01*
X1578120Y502368D01*
X1578120Y497632D01*
X1578180Y497334D01*
X1578343Y497093D01*
X1582232Y493204D01*
X1582232Y489616D01*
X1582087Y489397D01*
X1582032Y489111D01*
X1582032Y486359D01*
X1582092Y486061D01*
X1582263Y485811D01*
X1582502Y485655D01*
X1586432Y484027D01*
X1589427Y481032D01*
X1591048Y477118D01*
X1591048Y472882D01*
X1589427Y468968D01*
X1586432Y465973D01*
X1582518Y464352D01*
X1578282Y464352D01*
X1574368Y465973D01*
X1571373Y468968D01*
X1569752Y472882D01*
X1569752Y477118D01*
X1571373Y481032D01*
X1573576Y483235D01*
X1573744Y483488D01*
X1573800Y483774D01*
X1573800Y489111D01*
X1573739Y489409D01*
X1573576Y489650D01*
X1569487Y493740D01*
X1569487Y506260D01*
X1575460Y512234D01*
X1575628Y512487D01*
X1575683Y512772D01*
X1575683Y532739D01*
X1575623Y533036D01*
X1575452Y533286D01*
X1575196Y533450D01*
X1574897Y533501D01*
X1574602Y533431D01*
X1574383Y533278D01*
X1538403Y497299D01*
X1538236Y497046D01*
X1538180Y496760D01*
X1538180Y493373D01*
X1536935Y490366D01*
X1534634Y488065D01*
X1531627Y486820D01*
X1528373Y486820D01*
X1525366Y488065D01*
X1523065Y490366D01*
X1521820Y493373D01*
X1521820Y496627D01*
X1523065Y499634D01*
X1525366Y501935D01*
X1528373Y503180D01*
X1531760Y503180D01*
X1532057Y503240D01*
X1532299Y503403D01*
X1575460Y546565D01*
X1575628Y546818D01*
X1575683Y547104D01*
X1575683Y556788D01*
X1678278Y659383D01*
X1678445Y659635D01*
X1678501Y659934D01*
X1678436Y660230D01*
X1678260Y660477D01*
X1678002Y660636D01*
X1677739Y660683D01*
X1672104Y660683D01*
X1671806Y660623D01*
X1671565Y660460D01*
X1513403Y502299D01*
X1513236Y502046D01*
X1513180Y501760D01*
X1513180Y498373D01*
X1511935Y495366D01*
X1509634Y493065D01*
X1506627Y491820D01*
X1503240Y491820D01*
X1502943Y491760D01*
X1502702Y491597D01*
X1491788Y480683D01*
X1486264Y480683D01*
X1485966Y480623D01*
X1485716Y480452D01*
X1485553Y480196D01*
X1485502Y479897D01*
X1485572Y479602D01*
X1485751Y479357D01*
X1485972Y479217D01*
X1486432Y479027D01*
X1489427Y476032D01*
X1491048Y472118D01*
X1491048Y467882D01*
X1489427Y463968D01*
X1486432Y460973D01*
X1485972Y460783D01*
X1485720Y460613D01*
X1485555Y460359D01*
X1485502Y460060D01*
X1485569Y459765D01*
X1485747Y459519D01*
X1486006Y459362D01*
X1486264Y459317D01*
X1591788Y459317D01*
X1594317Y456788D01*
X1594317Y455079D01*
X1594377Y454781D01*
X1594549Y454531D01*
X1594804Y454368D01*
X1595079Y454317D01*
X1640685Y454317D01*
X1640982Y454377D01*
X1641104Y454459D01*
X1657415Y454459D01*
X1658125Y453750D01*
X1658378Y453582D01*
X1658664Y453527D01*
X1661356Y453527D01*
X1661653Y453587D01*
G37*
%LPC*%
G36*
X1690161Y593156D02*
X1686034Y594865D01*
X1682875Y598024D01*
X1681166Y602151D01*
X1681166Y622873D01*
X1682875Y627000D01*
X1686034Y630159D01*
X1690161Y631868D01*
X1694627Y631868D01*
X1698754Y630159D01*
X1701913Y627000D01*
X1703622Y622873D01*
X1703622Y602151D01*
X1701913Y598024D01*
X1698754Y594865D01*
X1694627Y593156D01*
X1690161Y593156D01*
G37*
G36*
X1735373Y593156D02*
X1731246Y594865D01*
X1728087Y598024D01*
X1726378Y602151D01*
X1726378Y622873D01*
X1728087Y627000D01*
X1731246Y630159D01*
X1735373Y631868D01*
X1739839Y631868D01*
X1743966Y630159D01*
X1747125Y627000D01*
X1748834Y622873D01*
X1748834Y602151D01*
X1747125Y598024D01*
X1743966Y594865D01*
X1739839Y593156D01*
X1735373Y593156D01*
G37*
G36*
X1604912Y541162D02*
X1604912Y542407D01*
X1606448Y546114D01*
X1609286Y548952D01*
X1612993Y550488D01*
X1614238Y550488D01*
X1614238Y541162D01*
X1604912Y541162D01*
G37*
G36*
X1615762Y541162D02*
X1615762Y550488D01*
X1617007Y550488D01*
X1620714Y548952D01*
X1623552Y546114D01*
X1625088Y542407D01*
X1625088Y541162D01*
X1615762Y541162D01*
G37*
G36*
X1612993Y530312D02*
X1609286Y531848D01*
X1606448Y534686D01*
X1604912Y538393D01*
X1604912Y539638D01*
X1614238Y539638D01*
X1614238Y530312D01*
X1612993Y530312D01*
G37*
G36*
X1615762Y530312D02*
X1615762Y539638D01*
X1625088Y539638D01*
X1625088Y538393D01*
X1623552Y534686D01*
X1620714Y531848D01*
X1617007Y530312D01*
X1615762Y530312D01*
G37*
G36*
X1702434Y510762D02*
X1702434Y520088D01*
X1703679Y520088D01*
X1707386Y518552D01*
X1710224Y515714D01*
X1711760Y512007D01*
X1711760Y510762D01*
X1702434Y510762D01*
G37*
G36*
X1691584Y510762D02*
X1691584Y512007D01*
X1693120Y515714D01*
X1695958Y518552D01*
X1699665Y520088D01*
X1700910Y520088D01*
X1700910Y510762D01*
X1691584Y510762D01*
G37*
G36*
X1800362Y499912D02*
X1800362Y509238D01*
X1809688Y509238D01*
X1809688Y507993D01*
X1808152Y504286D01*
X1805314Y501448D01*
X1801607Y499912D01*
X1800362Y499912D01*
G37*
G36*
X1797593Y499912D02*
X1793886Y501448D01*
X1791048Y504286D01*
X1789512Y507993D01*
X1789512Y509238D01*
X1798838Y509238D01*
X1798838Y499912D01*
X1797593Y499912D01*
G37*
G36*
X1702434Y499912D02*
X1702434Y509238D01*
X1711760Y509238D01*
X1711760Y507993D01*
X1710224Y504286D01*
X1707386Y501448D01*
X1703679Y499912D01*
X1702434Y499912D01*
G37*
G36*
X1699665Y499912D02*
X1695958Y501448D01*
X1693120Y504286D01*
X1691584Y507993D01*
X1691584Y509238D01*
X1700910Y509238D01*
X1700910Y499912D01*
X1699665Y499912D01*
G37*
G36*
X1510362Y475762D02*
X1510362Y485088D01*
X1511607Y485088D01*
X1515314Y483552D01*
X1518152Y480714D01*
X1519688Y477007D01*
X1519688Y475762D01*
X1510362Y475762D01*
G37*
G36*
X1499512Y475762D02*
X1499512Y477007D01*
X1501048Y480714D01*
X1503886Y483552D01*
X1507593Y485088D01*
X1508838Y485088D01*
X1508838Y475762D01*
X1499512Y475762D01*
G37*
G36*
X1612882Y458952D02*
X1608968Y460573D01*
X1605973Y463568D01*
X1604352Y467482D01*
X1604352Y471718D01*
X1605973Y475632D01*
X1608968Y478627D01*
X1612882Y480248D01*
X1617118Y480248D01*
X1621032Y478627D01*
X1621545Y478114D01*
X1621798Y477946D01*
X1622084Y477890D01*
X1651470Y477890D01*
X1651767Y477951D01*
X1651975Y478091D01*
X1655562Y478091D01*
X1657711Y475942D01*
X1657964Y475774D01*
X1658250Y475719D01*
X1661637Y475719D01*
X1664644Y474473D01*
X1666945Y472172D01*
X1668190Y469166D01*
X1668190Y465912D01*
X1666945Y462905D01*
X1664644Y460604D01*
X1661637Y459359D01*
X1658383Y459359D01*
X1655376Y460604D01*
X1653075Y462905D01*
X1651830Y465912D01*
X1651830Y468896D01*
X1651770Y469194D01*
X1651598Y469444D01*
X1651343Y469607D01*
X1651068Y469658D01*
X1626410Y469658D01*
X1626113Y469598D01*
X1625863Y469426D01*
X1625699Y469171D01*
X1625648Y468896D01*
X1625648Y467482D01*
X1624027Y463568D01*
X1621032Y460573D01*
X1617118Y458952D01*
X1612882Y458952D01*
G37*
G36*
X1507593Y464912D02*
X1503886Y466448D01*
X1501048Y469286D01*
X1499512Y472993D01*
X1499512Y474238D01*
X1508838Y474238D01*
X1508838Y464912D01*
X1507593Y464912D01*
G37*
G36*
X1510362Y464912D02*
X1510362Y474238D01*
X1519688Y474238D01*
X1519688Y472993D01*
X1518152Y469286D01*
X1515314Y466448D01*
X1511607Y464912D01*
X1510362Y464912D01*
G37*
%LPD*%
G36*
X1368277Y514176D02*
X1368518Y514339D01*
X1385661Y531482D01*
X1385828Y531735D01*
X1385884Y532021D01*
X1385884Y541705D01*
X1386890Y542711D01*
X1387058Y542964D01*
X1387113Y543262D01*
X1387048Y543558D01*
X1386890Y543789D01*
X1385884Y544795D01*
X1385884Y559670D01*
X1385824Y559968D01*
X1385652Y560218D01*
X1385414Y560374D01*
X1383968Y560973D01*
X1380973Y563968D01*
X1379352Y567882D01*
X1379352Y572118D01*
X1380973Y576032D01*
X1383968Y579027D01*
X1387882Y580648D01*
X1392118Y580648D01*
X1396032Y579027D01*
X1399027Y576032D01*
X1400648Y572118D01*
X1400648Y567882D01*
X1399027Y563968D01*
X1396032Y560973D01*
X1394586Y560374D01*
X1394335Y560205D01*
X1394169Y559951D01*
X1394116Y559670D01*
X1394116Y558277D01*
X1394176Y557979D01*
X1394348Y557729D01*
X1394603Y557566D01*
X1394902Y557515D01*
X1395197Y557585D01*
X1395417Y557738D01*
X1430661Y592982D01*
X1430828Y593235D01*
X1430884Y593521D01*
X1430884Y595070D01*
X1430824Y595368D01*
X1430652Y595618D01*
X1430414Y595774D01*
X1428968Y596373D01*
X1425973Y599368D01*
X1424352Y603282D01*
X1424352Y607518D01*
X1425973Y611432D01*
X1428968Y614427D01*
X1432882Y616048D01*
X1437118Y616048D01*
X1441032Y614427D01*
X1444027Y611432D01*
X1444418Y610488D01*
X1444588Y610236D01*
X1444842Y610071D01*
X1445140Y610017D01*
X1445436Y610085D01*
X1445682Y610262D01*
X1445839Y610522D01*
X1445884Y610779D01*
X1445884Y631705D01*
X1449355Y635176D01*
X1449523Y635429D01*
X1449578Y635727D01*
X1449513Y636023D01*
X1449338Y636271D01*
X1449080Y636430D01*
X1448816Y636477D01*
X1427228Y636477D01*
X1426931Y636417D01*
X1426690Y636254D01*
X1388743Y598307D01*
X1388576Y598054D01*
X1388520Y597768D01*
X1388520Y587415D01*
X1375298Y574193D01*
X1375130Y573940D01*
X1375075Y573642D01*
X1375133Y573363D01*
X1375648Y572118D01*
X1375648Y567882D01*
X1374027Y563968D01*
X1371032Y560973D01*
X1367118Y559352D01*
X1362882Y559352D01*
X1358968Y560973D01*
X1355973Y563968D01*
X1354352Y567882D01*
X1354352Y572077D01*
X1354292Y572374D01*
X1354120Y572624D01*
X1353865Y572787D01*
X1353566Y572838D01*
X1353271Y572768D01*
X1353051Y572615D01*
X1351119Y570683D01*
X1291726Y570683D01*
X1291429Y570623D01*
X1291187Y570460D01*
X1273845Y553118D01*
X1273678Y552865D01*
X1273622Y552579D01*
X1273622Y552366D01*
X1273682Y552069D01*
X1273854Y551819D01*
X1274109Y551655D01*
X1274179Y551642D01*
X1311482Y514339D01*
X1311735Y514172D01*
X1312021Y514116D01*
X1367979Y514116D01*
X1368277Y514176D01*
G37*
%LPC*%
G36*
X1296938Y548250D02*
X1296938Y557738D01*
X1298562Y561659D01*
X1301563Y564660D01*
X1305484Y566284D01*
X1306844Y566284D01*
X1306844Y548250D01*
X1296938Y548250D01*
G37*
G36*
X1308368Y548250D02*
X1308368Y566284D01*
X1309728Y566284D01*
X1313649Y564660D01*
X1316650Y561659D01*
X1318274Y557738D01*
X1318274Y548250D01*
X1308368Y548250D01*
G37*
G36*
X1305484Y528692D02*
X1301563Y530316D01*
X1298562Y533317D01*
X1296938Y537238D01*
X1296938Y546726D01*
X1306844Y546726D01*
X1306844Y528692D01*
X1305484Y528692D01*
G37*
G36*
X1308368Y528692D02*
X1308368Y546726D01*
X1318274Y546726D01*
X1318274Y537238D01*
X1316650Y533317D01*
X1313649Y530316D01*
X1309728Y528692D01*
X1308368Y528692D01*
G37*
%LPD*%
G36*
X1938351Y454377D02*
X1938601Y454549D01*
X1938764Y454804D01*
X1938815Y455079D01*
X1938815Y475048D01*
X1938755Y475345D01*
X1938592Y475587D01*
X1935884Y478295D01*
X1935884Y482979D01*
X1935824Y483277D01*
X1935661Y483518D01*
X1920884Y498295D01*
X1920884Y529221D01*
X1920824Y529518D01*
X1920652Y529768D01*
X1920397Y529932D01*
X1920098Y529983D01*
X1919803Y529913D01*
X1919558Y529733D01*
X1919418Y529512D01*
X1919027Y528568D01*
X1916032Y525573D01*
X1912118Y523952D01*
X1907882Y523952D01*
X1903968Y525573D01*
X1900973Y528568D01*
X1899352Y532482D01*
X1899352Y536718D01*
X1899526Y537138D01*
X1899584Y537436D01*
X1899521Y537732D01*
X1899348Y537981D01*
X1899091Y538142D01*
X1898822Y538191D01*
X1894713Y538191D01*
X1894416Y538131D01*
X1894174Y537968D01*
X1876371Y520165D01*
X1876204Y519912D01*
X1876148Y519614D01*
X1876213Y519318D01*
X1876371Y519088D01*
X1879427Y516032D01*
X1881048Y512118D01*
X1881048Y507882D01*
X1879427Y503968D01*
X1876432Y500973D01*
X1874986Y500374D01*
X1874735Y500205D01*
X1874569Y499951D01*
X1874516Y499670D01*
X1874516Y484244D01*
X1861987Y471714D01*
X1861819Y471461D01*
X1861764Y471163D01*
X1861829Y470867D01*
X1862004Y470620D01*
X1862234Y470472D01*
X1864644Y469473D01*
X1866945Y467172D01*
X1868190Y464166D01*
X1868190Y460912D01*
X1866945Y457905D01*
X1864657Y455617D01*
X1864490Y455365D01*
X1864434Y455067D01*
X1864499Y454770D01*
X1864674Y454523D01*
X1864933Y454364D01*
X1865196Y454317D01*
X1938053Y454317D01*
X1938351Y454377D01*
G37*
G36*
X913827Y430060D02*
X914069Y430223D01*
X982416Y498570D01*
X982583Y498823D01*
X982639Y499121D01*
X982574Y499418D01*
X982398Y499665D01*
X982169Y499813D01*
X979368Y500973D01*
X976373Y503968D01*
X975774Y505414D01*
X975605Y505665D01*
X975351Y505831D01*
X975070Y505884D01*
X940521Y505884D01*
X940223Y505824D01*
X939982Y505661D01*
X918040Y483719D01*
X917872Y483466D01*
X917824Y483220D01*
X915288Y480683D01*
X915073Y480683D01*
X914776Y480623D01*
X914534Y480460D01*
X911788Y477714D01*
X834803Y477714D01*
X834506Y477654D01*
X834264Y477491D01*
X826260Y469487D01*
X780907Y469487D01*
X780610Y469426D01*
X780368Y469263D01*
X764540Y453435D01*
X764372Y453182D01*
X764317Y452896D01*
X764317Y430762D01*
X764377Y430465D01*
X764549Y430215D01*
X764804Y430051D01*
X765079Y430000D01*
X913530Y430000D01*
X913827Y430060D01*
G37*
D10*
X280000Y747300D03*
X280000Y772700D03*
X450000Y727300D03*
X450000Y752700D03*
D11*
X384300Y756900D03*
D12*
X384300Y731500D03*
D13*
X275000Y862952D02*
X275000Y877048D01*
X317952Y820000D02*
X332048Y820000D01*
X332048Y845000D02*
X317952Y845000D01*
X317952Y895000D02*
X332048Y895000D01*
X332048Y920000D02*
X317952Y920000D01*
D14*
X1247300Y439596D02*
X1247300Y425000D01*
X1272700Y425000D02*
X1272700Y439596D01*
X2147300Y439596D02*
X2147300Y425000D01*
X2172700Y425000D02*
X2172700Y439596D01*
X2247300Y439596D02*
X2247300Y425000D01*
X2272700Y425000D02*
X2272700Y439596D01*
X2347300Y439596D02*
X2347300Y425000D01*
X2372700Y425000D02*
X2372700Y439596D01*
X1347300Y439596D02*
X1347300Y425000D01*
X1372700Y425000D02*
X1372700Y439596D01*
X1447300Y439596D02*
X1447300Y425000D01*
X1472700Y425000D02*
X1472700Y439596D01*
X1547300Y439596D02*
X1547300Y425000D01*
X1572700Y425000D02*
X1572700Y439596D01*
X1647300Y439596D02*
X1647300Y425000D01*
X1672700Y425000D02*
X1672700Y439596D01*
X1747300Y439596D02*
X1747300Y425000D01*
X1772700Y425000D02*
X1772700Y439596D01*
X1847300Y439596D02*
X1847300Y425000D01*
X1872700Y425000D02*
X1872700Y439596D01*
X1947300Y439596D02*
X1947300Y425000D01*
X1972700Y425000D02*
X1972700Y439596D01*
X2047300Y439596D02*
X2047300Y425000D01*
X2072700Y425000D02*
X2072700Y439596D01*
D15*
X284600Y470000D03*
X355400Y470000D03*
X1475000Y549600D03*
X1475000Y620400D03*
X1910000Y534600D03*
X1910000Y605400D03*
X2340000Y514600D03*
X2340000Y585400D03*
D12*
X854550Y390000D03*
X879950Y390000D03*
D11*
X905450Y390000D03*
D12*
X994550Y390000D03*
X1019950Y390000D03*
D11*
X1045450Y390000D03*
D15*
X1209600Y470000D03*
X1280400Y470000D03*
X1309600Y470000D03*
X1380400Y470000D03*
X1409600Y470000D03*
X1480400Y470000D03*
X1509600Y475000D03*
X1580400Y475000D03*
X1615000Y540400D03*
X1615000Y469600D03*
X494600Y510000D03*
X565400Y510000D03*
X1701672Y510000D03*
X1772472Y510000D03*
X1799600Y510000D03*
X1870400Y510000D03*
X1939600Y520000D03*
X2010400Y520000D03*
X1994600Y470000D03*
X2065400Y470000D03*
X2109600Y510000D03*
X2180400Y510000D03*
X2280000Y542274D03*
X2280000Y471474D03*
X2314600Y480000D03*
X2385400Y480000D03*
X694600Y510000D03*
X765400Y510000D03*
X385000Y915400D03*
X385000Y844600D03*
D16*
X545000Y770000D03*
X570000Y770000D03*
X595000Y770000D03*
D17*
X615000Y840000D03*
X525000Y840000D03*
D15*
X914600Y510000D03*
X985400Y510000D03*
D16*
X745000Y770000D03*
X770000Y770000D03*
X795000Y770000D03*
D17*
X815000Y840000D03*
X725000Y840000D03*
D16*
X945000Y770000D03*
X970000Y770000D03*
X995000Y770000D03*
D17*
X1015000Y840000D03*
X925000Y840000D03*
D16*
X1310000Y770000D03*
X1335000Y770000D03*
X1360000Y770000D03*
D17*
X1380000Y840000D03*
X1290000Y840000D03*
D16*
X1740000Y770000D03*
X1765000Y770000D03*
X1790000Y770000D03*
D17*
X1810000Y840000D03*
X1720000Y840000D03*
D16*
X2170000Y770000D03*
X2195000Y770000D03*
X2220000Y770000D03*
D17*
X2240000Y840000D03*
X2150000Y840000D03*
D18*
X297394Y555616D02*
X297394Y539360D01*
X342606Y539360D02*
X342606Y555616D01*
X297394Y604384D02*
X297394Y620640D01*
X342606Y620640D02*
X342606Y604384D01*
X497394Y555616D02*
X497394Y539360D01*
X542606Y539360D02*
X542606Y555616D01*
X497394Y604384D02*
X497394Y620640D01*
X542606Y620640D02*
X542606Y604384D01*
X697394Y555616D02*
X697394Y539360D01*
X742606Y539360D02*
X742606Y555616D01*
X697394Y604384D02*
X697394Y620640D01*
X742606Y620640D02*
X742606Y604384D01*
X897394Y555616D02*
X897394Y539360D01*
X942606Y539360D02*
X942606Y555616D01*
X897394Y604384D02*
X897394Y620640D01*
X942606Y620640D02*
X942606Y604384D01*
X1262394Y555616D02*
X1262394Y539360D01*
X1307606Y539360D02*
X1307606Y555616D01*
X1262394Y604384D02*
X1262394Y620640D01*
X1307606Y620640D02*
X1307606Y604384D01*
X1692394Y555616D02*
X1692394Y539360D01*
X1737606Y539360D02*
X1737606Y555616D01*
X1692394Y604384D02*
X1692394Y620640D01*
X1737606Y620640D02*
X1737606Y604384D01*
X2122394Y555616D02*
X2122394Y539360D01*
X2167606Y539360D02*
X2167606Y555616D01*
X2122394Y604384D02*
X2122394Y620640D01*
X2167606Y620640D02*
X2167606Y604384D01*
D19*
X2336274Y1017222D03*
X2310874Y1017222D03*
X2285474Y1017222D03*
X2260074Y1017222D03*
X2234674Y1017222D03*
X2209274Y1017222D03*
X2183874Y1017222D03*
X2158474Y1017222D03*
X2133074Y1017222D03*
X2107674Y1017222D03*
X2082274Y1017222D03*
X2056874Y1017222D03*
X2056874Y1169622D03*
X2082274Y1169622D03*
X2107674Y1169622D03*
X2133074Y1169622D03*
X2158474Y1169622D03*
X2183874Y1169622D03*
X2209274Y1169622D03*
X2234674Y1169622D03*
X2260074Y1169622D03*
X2285474Y1169622D03*
X2310874Y1169622D03*
X2361674Y1017222D03*
X2336274Y1169622D03*
X2361674Y1169622D03*
X2387074Y1017222D03*
X2387074Y1169622D03*
X2031474Y1017222D03*
X2031474Y1169622D03*
X2006074Y1017222D03*
X1980674Y1017222D03*
X1955274Y1017222D03*
X1929874Y1017222D03*
X1904474Y1017222D03*
X1879074Y1017222D03*
X1853674Y1017222D03*
X1828274Y1017222D03*
X1802874Y1017222D03*
X1802874Y1169622D03*
X1828274Y1169622D03*
X1853674Y1169622D03*
X1879074Y1169622D03*
X1904474Y1169622D03*
X1929874Y1169622D03*
X1955274Y1169622D03*
X1980674Y1169622D03*
X2006074Y1169622D03*
X1929874Y1042622D03*
X1929874Y1093422D03*
X1929874Y1118822D03*
X1929874Y1068022D03*
X1929874Y1144222D03*
X2361674Y1144222D03*
X2310874Y1144222D03*
X2285474Y1144222D03*
X2260074Y1144222D03*
X2323574Y1048972D03*
X2298174Y1048972D03*
X2272774Y1048972D03*
X2247374Y1048972D03*
X2221974Y1048972D03*
D20*
X488000Y1010300D03*
X488000Y1035700D03*
X488000Y1061100D03*
X488000Y1086500D03*
X408600Y1086500D03*
X408600Y1061100D03*
X408600Y1035700D03*
X408600Y1010300D03*
D15*
X600000Y570000D03*
X625000Y570000D03*
X670000Y514600D03*
X670000Y585400D03*
X400000Y570000D03*
X425000Y570000D03*
X470000Y514600D03*
X470000Y585400D03*
X800000Y570000D03*
X825000Y570000D03*
X867472Y514600D03*
X867472Y585400D03*
X1000000Y570000D03*
X1025000Y570000D03*
X1070000Y514600D03*
X1070000Y585400D03*
X1365000Y570000D03*
X1390000Y570000D03*
X1435000Y534600D03*
X1435000Y605400D03*
X1795000Y570000D03*
X1820000Y570000D03*
X1870000Y544600D03*
X1870000Y615400D03*
X2225000Y570000D03*
X2250000Y570000D03*
X2305000Y514600D03*
X2305000Y585400D03*
X2305000Y990000D03*
X2330000Y990000D03*
X2365000Y894600D03*
X2365000Y965400D03*
D21*
X1200000Y400000D03*
X1240000Y400000D03*
X1750000Y400000D03*
X2410000Y400000D03*
X1880000Y400000D03*
D22*
X854550Y390000D02*
X854550Y444550D01*
X855000Y445000D01*
X994550Y444550D02*
X994550Y390000D01*
X994550Y444550D02*
X995000Y445000D01*
X994550Y444550D02*
X994550Y450450D01*
X975000Y470000D01*
D23*
X975000Y470000D03*
D22*
X854550Y464550D02*
X854550Y444550D01*
X854550Y464550D02*
X860000Y470000D01*
D23*
X860000Y470000D03*
D24*
X2410000Y433973D02*
X2410000Y400000D01*
X2410000Y433973D02*
X2411572Y435545D01*
D23*
X1679518Y491614D03*
D24*
X1669804Y529564D02*
X1655838Y543530D01*
X1669804Y529564D02*
X1669804Y515611D01*
X1674087Y511328D01*
X1674087Y497046D02*
X1679518Y491614D01*
X1674087Y497046D02*
X1674087Y511328D01*
D23*
X1925060Y475637D03*
D24*
X1907155Y475637D01*
X1332512Y547488D02*
X1307606Y547488D01*
X1332512Y547488D02*
X1335000Y545000D01*
D23*
X1335000Y545000D03*
D24*
X1845400Y544600D02*
X1870000Y544600D01*
X1845400Y544600D02*
X1845000Y545000D01*
D23*
X1845000Y545000D03*
D24*
X1890000Y492792D02*
X1907155Y475637D01*
X1890000Y492792D02*
X1890000Y510000D01*
X1895000Y515000D01*
D23*
X1895000Y515000D03*
D22*
X505000Y1052700D02*
X488000Y1035700D01*
X505000Y1052700D02*
X505000Y1110000D01*
X390000Y1110000D01*
X390000Y1070000D01*
X398900Y1061100D01*
X408600Y1061100D01*
X292377Y944877D01*
X275000Y895426D02*
X275000Y870000D01*
X292377Y912802D02*
X292377Y944877D01*
X292377Y912802D02*
X275000Y895426D01*
X275000Y870000D02*
X280000Y865000D01*
X292377Y827198D02*
X292377Y812802D01*
X280000Y839574D02*
X280000Y865000D01*
X280000Y800426D02*
X280000Y772700D01*
X292377Y827198D02*
X280000Y839574D01*
X292377Y812802D02*
X280000Y800426D01*
D23*
X415000Y865000D03*
D22*
X366500Y800000D02*
X330000Y800000D01*
X325000Y805000D01*
X325000Y820000D01*
D24*
X415000Y885400D02*
X385000Y915400D01*
X415000Y885400D02*
X415000Y865000D01*
X366500Y896900D02*
X385000Y915400D01*
X366500Y896900D02*
X366500Y800000D01*
D22*
X1750000Y800000D02*
X2180000Y800000D01*
X1750000Y800000D02*
X1320000Y800000D01*
X960000Y800000D01*
X750000Y800000D01*
X2170000Y790000D02*
X2170000Y770000D01*
X2170000Y790000D02*
X2180000Y800000D01*
X1740000Y790000D02*
X1740000Y770000D01*
X1740000Y790000D02*
X1750000Y800000D01*
X1310000Y790000D02*
X1310000Y770000D01*
X1310000Y790000D02*
X1320000Y800000D01*
X945000Y785000D02*
X945000Y770000D01*
X945000Y785000D02*
X960000Y800000D01*
X745000Y795000D02*
X745000Y770000D01*
X745000Y795000D02*
X750000Y800000D01*
X545000Y770000D02*
X476500Y770000D01*
X440000Y770000D02*
X440000Y806500D01*
X440000Y770000D02*
X440000Y762700D01*
X450000Y752700D01*
X449618Y753082D01*
X403267Y753082D01*
X476500Y1086500D02*
X488000Y1086500D01*
X476500Y1086500D02*
X450000Y1060000D01*
X450000Y1020000D01*
X440300Y1010300D01*
X408600Y1010300D01*
X760000Y455000D02*
X760000Y370000D01*
X885450Y370000D01*
X905450Y390000D01*
X885450Y370000D02*
X927450Y370000D01*
X1026551Y371101D01*
X1045450Y390000D01*
X1280000Y450000D02*
X1290000Y450000D01*
X1290000Y455000D02*
X1385000Y455000D01*
X1430000Y455000D02*
X1490000Y455000D01*
X1430000Y455000D02*
X1385000Y455000D01*
X1490000Y455000D02*
X1590000Y455000D01*
X2180000Y450000D02*
X2195000Y450000D01*
X2360000Y455000D02*
X2390000Y455000D01*
X2360000Y455000D02*
X2290000Y455000D01*
X2390000Y455000D02*
X2390000Y435000D01*
X2380000Y425000D01*
X2290000Y450000D02*
X2290000Y455000D01*
X2290000Y450000D02*
X2290000Y442300D01*
X2195000Y447300D02*
X2195000Y450000D01*
X2090000Y445077D02*
X2090000Y440000D01*
X2075000Y425000D01*
X1990000Y435000D02*
X1990000Y450000D01*
X1990000Y435000D02*
X1980000Y425000D01*
X1890000Y442300D02*
X1890000Y450000D01*
X1790000Y450000D02*
X1790000Y442300D01*
X1695000Y447300D02*
X1695000Y450000D01*
X1590000Y450000D02*
X1590000Y455000D01*
X1590000Y450000D02*
X1590000Y442300D01*
X1490000Y442300D02*
X1490000Y455000D01*
X1385000Y455000D02*
X1385000Y437300D01*
X1290000Y450000D02*
X1290000Y455000D01*
X1290000Y450000D02*
X1290000Y442300D01*
X1280000Y450000D02*
X1280000Y455000D01*
X430000Y988900D02*
X408600Y1010300D01*
X430000Y988900D02*
X430000Y840000D01*
X421500Y831500D01*
X1769943Y450000D02*
X1790000Y450000D01*
X1969943Y450000D02*
X1990000Y450000D01*
X2402154Y1154542D02*
X2387074Y1169622D01*
X2378685Y800000D02*
X2180000Y800000D01*
X2402154Y1125737D02*
X2402154Y1154542D01*
X351900Y756900D02*
X345000Y750000D01*
X345000Y655000D01*
X365000Y635000D01*
X365000Y525000D01*
X342500Y502500D01*
X2142931Y450143D02*
X2151669Y450143D01*
X2137866Y445077D02*
X2090000Y445077D01*
X2137866Y445077D02*
X2142931Y450143D01*
X2042789Y450000D02*
X1990000Y450000D01*
X2042789Y450000D02*
X2042931Y450143D01*
X1742789Y450000D02*
X1695000Y450000D01*
X1742789Y450000D02*
X1742931Y450143D01*
X1790000Y450000D02*
X1842789Y450000D01*
X1842931Y450143D01*
X1890000Y450000D02*
X1942789Y450000D01*
X1942931Y450143D01*
X2378931Y1056692D02*
X2378931Y1073699D01*
X2378931Y1056692D02*
X2402662Y1032961D01*
X2402662Y823977D01*
X2378685Y800000D01*
X1642789Y450000D02*
X1590000Y450000D01*
X1642789Y450000D02*
X1642931Y450143D01*
X2195000Y450000D02*
X2242789Y450000D01*
X2242931Y450143D01*
X750000Y800000D02*
X708809Y800000D01*
X708450Y799641D01*
X574641Y799641D02*
X545000Y770000D01*
X574641Y799641D02*
X708450Y799641D01*
X2327031Y1094052D02*
X2331909Y1098931D01*
X2327031Y1094052D02*
X2327031Y1087152D01*
X2331909Y1082273D01*
X1663460Y449210D02*
X1656560Y449210D01*
X1663460Y449210D02*
X1664250Y450000D01*
X1695000Y450000D01*
X1856560Y449210D02*
X1863460Y449210D01*
X1864250Y450000D01*
X1890000Y450000D01*
X1969153Y449210D02*
X1969943Y450000D01*
X1969153Y449210D02*
X1956560Y449210D01*
X1955627Y450143D01*
X1769943Y450000D02*
X1769153Y449210D01*
X1756560Y449210D01*
X1755627Y450143D01*
X2066319Y444540D02*
X2066855Y445077D01*
X2090000Y445077D01*
X2151669Y450143D02*
X2158345Y443466D01*
X2165245Y443466D01*
X2171779Y450000D02*
X2180000Y450000D01*
X2171779Y450000D02*
X2165245Y443466D01*
X1856560Y449210D02*
X1855627Y450143D01*
X1656560Y449210D02*
X1655627Y450143D01*
X2331909Y1098931D02*
X2375347Y1098931D01*
X2370357Y1082273D02*
X2378931Y1073699D01*
X2370357Y1082273D02*
X2331909Y1082273D01*
X2255627Y450143D02*
X2242931Y450143D01*
X2375347Y1098931D02*
X2402154Y1125737D01*
X1655627Y450143D02*
X1642931Y450143D01*
X1942931Y450143D02*
X1955627Y450143D01*
X1855627Y450143D02*
X1842931Y450143D01*
X1755627Y450143D02*
X1742931Y450143D01*
X1160339Y390000D02*
X1045450Y390000D01*
X1160339Y390000D02*
X1225339Y455000D01*
X1280000Y455000D01*
D24*
X1290000Y442300D02*
X1272700Y425000D01*
X1372700Y425000D02*
X1385000Y437300D01*
X1472700Y425000D02*
X1490000Y442300D01*
X1572700Y425000D02*
X1590000Y442300D01*
X1672700Y425000D02*
X1695000Y447300D01*
X1772700Y425000D02*
X1790000Y442300D01*
X1872700Y425000D02*
X1890000Y442300D01*
X1972700Y425000D02*
X1980000Y425000D01*
X2072700Y425000D02*
X2075000Y425000D01*
X2172700Y425000D02*
X2195000Y447300D01*
X2272700Y425000D02*
X2290000Y442300D01*
X2372700Y425000D02*
X2380000Y425000D01*
X384300Y756900D02*
X351900Y756900D01*
X384300Y756900D02*
X399449Y756900D01*
X403267Y753082D01*
X398100Y831500D02*
X421500Y831500D01*
X398100Y831500D02*
X385000Y844600D01*
X421500Y831500D02*
X421500Y825000D01*
X440000Y806500D01*
X440000Y770000D02*
X476500Y770000D01*
D22*
X355000Y499203D02*
X345797Y499203D01*
X355000Y499203D02*
X480128Y499203D01*
X494331Y485000D01*
X345797Y499203D02*
X342500Y502500D01*
X815528Y495397D02*
X824472Y495397D01*
X834869Y485000D02*
X910000Y485000D01*
X913500Y485000D01*
X815528Y495397D02*
X805131Y485000D01*
X824472Y495397D02*
X834869Y485000D01*
X832700Y482031D02*
X910000Y482031D01*
X832700Y482031D02*
X824472Y473803D01*
X778803Y473803D02*
X760000Y455000D01*
X778803Y473803D02*
X824472Y473803D01*
X565000Y485000D02*
X494331Y485000D01*
X565000Y485000D02*
X625131Y485000D01*
X625528Y485397D01*
X634472Y485397D01*
X634869Y485000D01*
X765000Y485000D01*
X805131Y485000D01*
X2051669Y450143D02*
X2057271Y444540D01*
X2051669Y450143D02*
X2042931Y450143D01*
X2057271Y444540D02*
X2066319Y444540D01*
X2274472Y445677D02*
X2278795Y450000D01*
X2290000Y450000D01*
X2260093Y445677D02*
X2255627Y450143D01*
X2260093Y445677D02*
X2274472Y445677D01*
D24*
X355400Y498803D02*
X355000Y499203D01*
X355400Y498803D02*
X355400Y470000D01*
X565400Y485400D02*
X565400Y510000D01*
X565400Y485400D02*
X565000Y485000D01*
X765400Y485400D02*
X765400Y510000D01*
X765400Y485400D02*
X765000Y485000D01*
X938500Y510000D02*
X985400Y510000D01*
X938500Y510000D02*
X913500Y485000D01*
X910000Y485000D02*
X910000Y482031D01*
X1910000Y605400D02*
X1925000Y590400D01*
X1925000Y500000D01*
X1940000Y485000D01*
X1940000Y480000D01*
X1942931Y477069D01*
X1942931Y450143D01*
X2340000Y585400D02*
X2375000Y550400D01*
X2375000Y545000D01*
X2360000Y530000D01*
X2360000Y455000D01*
X1475000Y615000D02*
X1475000Y620400D01*
X1475000Y615000D02*
X1415000Y555000D01*
X1415000Y510000D01*
X1430000Y495000D01*
X1430000Y455000D01*
D22*
X2315000Y440000D02*
X2330000Y425000D01*
D23*
X2315000Y440000D03*
X2416058Y485000D03*
D22*
X2390000Y511058D01*
X2390000Y790000D01*
D23*
X2390000Y790000D03*
X2390000Y845000D03*
X2416058Y450000D03*
D22*
X2401058Y465000D01*
X2374465Y1054843D02*
X2374465Y1071850D01*
X2398197Y1031111D02*
X2398197Y989602D01*
X2398197Y1031111D02*
X2374465Y1054843D01*
D23*
X2200359Y1130359D03*
D22*
X2200719Y1130000D02*
X2300000Y1130000D01*
X2200719Y1130000D02*
X2200359Y1130359D01*
X2322565Y1085303D02*
X2330060Y1077808D01*
X2368507Y1077808D02*
X2374465Y1071850D01*
X2322565Y1107435D02*
X2300000Y1130000D01*
X2330060Y1077808D02*
X2368507Y1077808D01*
X2322565Y1085303D02*
X2322565Y1107435D01*
D24*
X2330000Y425000D02*
X2347300Y425000D01*
D22*
X2390000Y845000D02*
X2390000Y924331D01*
X2391197Y925528D01*
X2391197Y982602D02*
X2398197Y989602D01*
X2391197Y982602D02*
X2391197Y925528D01*
D24*
X2386058Y480000D02*
X2385400Y480000D01*
X2386058Y480000D02*
X2401058Y465000D01*
D22*
X2115000Y705000D02*
X2095000Y685000D01*
X2115000Y705000D02*
X2115000Y790000D01*
D23*
X2115000Y790000D03*
X2115000Y840000D03*
D22*
X2115000Y930000D01*
X2120000Y1155000D02*
X2107674Y1167326D01*
X2107674Y1169622D01*
X2204667Y1028345D02*
X2198151Y1021830D01*
X2198151Y1013151D01*
X2115000Y930000D01*
X2120000Y1155000D02*
X2131676Y1155000D01*
X2204667Y1028345D02*
X2217077Y1028345D01*
X2233097Y1053580D02*
X2131676Y1155000D01*
X2233097Y1053580D02*
X2233097Y1044365D01*
X2217077Y1028345D01*
D23*
X1250000Y485340D03*
D22*
X1251160Y486500D01*
X1253500Y486500D01*
X1659893Y685000D02*
X2095000Y685000D01*
D23*
X1445247Y510355D03*
D22*
X1506550Y531657D02*
X1659893Y685000D01*
X1506550Y531657D02*
X1486550Y531657D01*
X1465247Y510355D02*
X1445247Y510355D01*
X1465247Y510355D02*
X1486550Y531657D01*
D24*
X1280400Y470000D02*
X1270000Y470000D01*
X1253500Y486500D01*
D22*
X1670000Y675000D02*
X2240000Y675000D01*
X2340000Y775000D01*
X2340000Y790000D01*
D23*
X2340000Y790000D03*
X2340000Y850000D03*
D22*
X2360000Y1035000D02*
X2365000Y1040000D01*
X2365000Y1065000D01*
D23*
X1395000Y490000D03*
D22*
X2262122Y1035000D02*
X2360000Y1035000D01*
X2262122Y1035000D02*
X2248951Y1021830D01*
X2248951Y941049D02*
X2340000Y850000D01*
X2248951Y941049D02*
X2248951Y1021830D01*
X2266496Y1113504D02*
X2189192Y1113504D01*
X2133074Y1169622D01*
X2361123Y1068877D02*
X2365000Y1065000D01*
X2361123Y1068877D02*
X2311123Y1068877D01*
X2266496Y1113504D01*
D23*
X1490000Y518329D03*
D22*
X1513329Y518329D01*
X1670000Y675000D01*
D24*
X1380400Y475400D02*
X1380400Y470000D01*
X1380400Y475400D02*
X1395000Y490000D01*
D23*
X1505000Y500000D03*
D22*
X1670000Y665000D01*
X2245000Y665000D01*
X2355000Y775000D01*
X2355000Y790000D01*
D23*
X2355000Y790000D03*
X2375000Y845000D03*
D22*
X2370000Y1030000D02*
X2370000Y1070000D01*
X2175000Y1160000D02*
X2165378Y1169622D01*
X2158474Y1169622D01*
X1505000Y500000D02*
X1490000Y485000D01*
X1455000Y485000D01*
X1453500Y483500D01*
X2282522Y1030000D02*
X2370000Y1030000D01*
X2282522Y1030000D02*
X2274351Y1021830D01*
X2274351Y945649D02*
X2375000Y845000D01*
X2274351Y945649D02*
X2274351Y1021830D01*
X2366657Y1073343D02*
X2370000Y1070000D01*
X2366657Y1073343D02*
X2316657Y1073343D01*
X2267969Y1122031D01*
X2196909Y1122031D01*
X2175000Y1143940D01*
X2175000Y1160000D01*
D24*
X1480400Y470000D02*
X1467000Y470000D01*
X1453500Y483500D01*
D23*
X1530000Y495000D03*
D22*
X1580000Y545000D02*
X1580000Y555000D01*
X1685535Y660535D02*
X2246850Y660535D01*
X2410000Y823685D01*
X1580000Y545000D02*
X1530000Y495000D01*
X1580000Y555000D02*
X1685535Y660535D01*
X2370549Y1088396D02*
X2383396Y1075549D01*
X2370549Y1088396D02*
X2337565Y1088396D01*
X2383396Y1075549D02*
X2383396Y1058542D01*
X2410000Y1031938D02*
X2410000Y823685D01*
X2410000Y1031938D02*
X2383396Y1058542D01*
D23*
X2335359Y1090602D03*
D22*
X2337565Y1088396D01*
X1580000Y545000D02*
X1580000Y510669D01*
X1573803Y504472D01*
X1573803Y495528D01*
X1577916Y491416D01*
D24*
X1577916Y477484D02*
X1580400Y475000D01*
X1577916Y477484D02*
X1577916Y491416D01*
D23*
X1660010Y467539D03*
D22*
X1653774Y473774D01*
D24*
X1619174Y473774D02*
X1615000Y469600D01*
X1619174Y473774D02*
X1653774Y473774D01*
D23*
X1760010Y467539D03*
D22*
X1753774Y473774D01*
D24*
X1772472Y492472D02*
X1772472Y510000D01*
X1772472Y492472D02*
X1753774Y473774D01*
D23*
X1860010Y462539D03*
D22*
X1853500Y469049D01*
D24*
X1870400Y485949D02*
X1870400Y510000D01*
X1870400Y485949D02*
X1853500Y469049D01*
D23*
X1960010Y477539D03*
D24*
X1967939Y477539D02*
X2010400Y520000D01*
X1967939Y477539D02*
X1960010Y477539D01*
D23*
X2089295Y459295D03*
D24*
X2076105Y459295D02*
X2065400Y470000D01*
X2076105Y459295D02*
X2089295Y459295D01*
D23*
X2115000Y460000D03*
D22*
X1960000Y615000D01*
X1960000Y650000D01*
D23*
X1960000Y650000D03*
X1960000Y705000D03*
D22*
X1895000Y770000D01*
X1895000Y785000D01*
D23*
X1895000Y785000D03*
X1895000Y815000D03*
D22*
X1895000Y950496D01*
X1828274Y1017222D01*
D23*
X2161795Y451795D03*
D22*
X2153500Y460090D01*
D24*
X2153500Y483100D02*
X2180400Y510000D01*
X2153500Y483100D02*
X2153500Y460090D01*
D23*
X2215000Y470000D03*
D22*
X2190000Y495000D01*
D23*
X2085000Y535000D03*
D22*
X1975000Y645000D01*
X1975000Y650000D01*
D23*
X1975000Y650000D03*
X1975000Y705000D03*
D22*
X1910000Y770000D01*
X1910000Y785000D01*
D23*
X1910000Y785000D03*
X1910000Y815000D03*
D22*
X1910000Y915000D01*
D23*
X1910000Y915000D03*
X1872969Y930000D03*
D22*
X1872969Y947127D02*
X1802874Y1017222D01*
X1872969Y947127D02*
X1872969Y930000D01*
D23*
X2245010Y472539D03*
D22*
X2238500Y479049D01*
X2190000Y495000D02*
X2190000Y499331D01*
D23*
X2195669Y535464D03*
D22*
X2198169Y532964D01*
X2198169Y507500D01*
X2190000Y499331D01*
D24*
X2272425Y479049D02*
X2280000Y471474D01*
X2272425Y479049D02*
X2238500Y479049D01*
D22*
X1824052Y1140000D02*
X1853674Y1169622D01*
X1824052Y1140000D02*
X1380000Y1140000D01*
D23*
X1380000Y1140000D03*
X1409492Y1029492D03*
X1195000Y832004D03*
D22*
X1212004Y832004D02*
X1409492Y1029492D01*
X1212004Y832004D02*
X1195000Y832004D01*
X1865000Y770000D02*
X1880000Y785000D01*
D23*
X1880000Y785000D03*
D22*
X1865000Y770000D02*
X1821448Y770000D01*
D23*
X1880000Y815000D03*
D22*
X1885000Y820000D01*
X1815000Y1025000D02*
X1820000Y1030000D01*
X1918696Y1130000D02*
X1879074Y1169622D01*
X1811797Y760114D02*
X1804886Y753203D01*
X1811797Y760114D02*
X1811797Y760348D01*
X1821448Y770000D01*
X1773317Y770000D02*
X1765000Y770000D01*
X1773317Y770000D02*
X1790114Y753203D01*
X1804886Y753203D01*
X1918696Y1130000D02*
X1934426Y1130000D01*
X1885000Y944767D02*
X1885000Y820000D01*
X1815000Y1014767D02*
X1815000Y1025000D01*
X1815000Y1014767D02*
X1885000Y944767D01*
X1961325Y1103102D02*
X1934426Y1130000D01*
X1961325Y1103102D02*
X1961325Y1041550D01*
X1949775Y1030000D01*
X1820000Y1030000D01*
X2180000Y755000D02*
X2195000Y770000D01*
D23*
X1970000Y975000D03*
X2137031Y770000D03*
D22*
X2152031Y755000D02*
X2180000Y755000D01*
X2152031Y755000D02*
X2137031Y770000D01*
X1970000Y975000D02*
X1966397Y978603D01*
X1940997Y1148830D02*
X1934481Y1155345D01*
X1940997Y1148830D02*
X1940997Y1147688D01*
X1966397Y1122288D02*
X1966397Y978603D01*
X1966397Y1122288D02*
X1940997Y1147688D01*
X1918751Y1155345D02*
X1904474Y1169622D01*
X1918751Y1155345D02*
X1934481Y1155345D01*
D23*
X1970000Y1140000D03*
D22*
X1965000Y1145000D01*
X1955000Y1145000D01*
X1945462Y1154538D02*
X1945462Y1159034D01*
X1934874Y1169622D01*
X1929874Y1169622D01*
X1945462Y1154538D02*
X1955000Y1145000D01*
D23*
X1990000Y1140000D03*
D22*
X1960378Y1169622D01*
X1955274Y1169622D01*
D23*
X2005000Y1140000D03*
D22*
X1980674Y1164326D01*
X1980674Y1169622D01*
X2209274Y1017222D02*
X2209274Y1014274D01*
X2125000Y930000D01*
X2125000Y810000D01*
D23*
X2125000Y810000D03*
X2130000Y785000D03*
D22*
X2125000Y780000D01*
X2125000Y715000D01*
X2130000Y710000D01*
D23*
X2130000Y710000D03*
X2095000Y710000D03*
D22*
X1985000Y710000D01*
X1920000Y775000D01*
D23*
X1920000Y775000D03*
D24*
X697394Y547488D02*
X697394Y514106D01*
X694600Y511312D02*
X694600Y510000D01*
X694600Y511312D02*
X697394Y514106D01*
D22*
X2150000Y983348D02*
X2183874Y1017222D01*
D23*
X1935000Y830000D03*
X1865000Y830000D03*
D22*
X1855000Y830000D01*
X1835000Y810000D01*
D23*
X705000Y807969D03*
D22*
X707031Y810000D02*
X1835000Y810000D01*
X707031Y810000D02*
X705000Y807969D01*
D23*
X2089933Y885000D03*
D22*
X2034933Y830000D02*
X1935000Y830000D01*
X2034933Y830000D02*
X2089933Y885000D01*
D23*
X2150000Y979282D03*
D22*
X2150000Y983348D01*
D24*
X497394Y547488D02*
X497394Y514106D01*
X494600Y511312D02*
X494600Y510000D01*
X494600Y511312D02*
X497394Y514106D01*
D22*
X2121252Y980000D02*
X2158474Y1017222D01*
X2121252Y980000D02*
X2120000Y980000D01*
D23*
X2120000Y980000D03*
X2070000Y960000D03*
X1865000Y880000D03*
D22*
X1280000Y880000D01*
D23*
X450000Y820000D03*
D22*
X2056691Y960000D02*
X2070000Y960000D01*
X2056691Y960000D02*
X2046691Y970000D01*
D23*
X1974626Y920374D03*
D22*
X2024253Y970000D01*
X2046691Y970000D01*
X1144701Y819210D02*
X1143911Y820000D01*
X450000Y820000D01*
X1219210Y819210D02*
X1280000Y880000D01*
X1219210Y819210D02*
X1144701Y819210D01*
D24*
X297394Y547488D02*
X297394Y515000D01*
X297394Y514106D01*
X297394Y482794D01*
X284600Y470000D01*
D22*
X897394Y514106D02*
X897394Y545000D01*
X2021608Y1001608D02*
X2035871Y1001608D01*
D23*
X1855000Y940000D03*
D22*
X1330000Y940000D01*
D23*
X1050000Y835000D03*
X850000Y730000D03*
D22*
X850000Y645000D01*
X780000Y575000D01*
D23*
X1955359Y940359D03*
D22*
X1960359Y940359D02*
X2021608Y1001608D01*
X1960359Y940359D02*
X1955359Y940359D01*
X2123404Y1017222D02*
X2133074Y1017222D01*
X2123404Y1017222D02*
X2112281Y1028345D01*
X2052267Y1028345D01*
X2042597Y1018675D01*
X2042597Y1008334D01*
X2035871Y1001608D01*
X1060535Y824465D02*
X1050000Y835000D01*
X1145760Y824465D02*
X1146550Y823675D01*
X1145760Y824465D02*
X1060535Y824465D01*
X1213675Y823675D02*
X1330000Y940000D01*
X1213675Y823675D02*
X1146550Y823675D01*
D24*
X897394Y547488D02*
X897394Y545000D01*
D22*
X780000Y539869D02*
X780000Y575000D01*
X780000Y539869D02*
X816066Y503803D01*
X871944Y503803D02*
X878269Y510128D01*
X871944Y503803D02*
X816066Y503803D01*
X878269Y525875D02*
X897394Y545000D01*
X878269Y525875D02*
X878269Y510128D01*
D24*
X901500Y510000D02*
X914600Y510000D01*
X901500Y510000D02*
X897394Y514106D01*
D23*
X1860000Y650000D03*
D22*
X2065000Y785000D02*
X2070000Y790000D01*
D23*
X2070000Y790000D03*
X2070000Y900000D03*
X1927969Y785000D03*
D22*
X2065000Y785000D01*
X2070000Y900000D02*
X2089143Y919143D01*
X2089143Y920978D01*
X2107674Y939510D02*
X2107674Y1017222D01*
X2107674Y939510D02*
X2089143Y920978D01*
D24*
X1692394Y547488D02*
X1715878Y524004D01*
X1692394Y547488D02*
X1729906Y585000D01*
D22*
X1800528Y596197D02*
X1806197Y596197D01*
X1860000Y650000D01*
X1789331Y585000D02*
X1729906Y585000D01*
X1789331Y585000D02*
X1800528Y596197D01*
D24*
X1874389Y524004D02*
X1715878Y524004D01*
X1874389Y524004D02*
X1892693Y542307D01*
X1902293Y542307D02*
X1910000Y534600D01*
X1902293Y542307D02*
X1892693Y542307D01*
D22*
X2080000Y589882D02*
X2080000Y650000D01*
D23*
X2080000Y650000D03*
X2060000Y925000D03*
D22*
X2085000Y1014496D02*
X2082274Y1017222D01*
X2085000Y1014496D02*
X2085000Y950000D01*
X2060000Y925000D01*
D24*
X2122394Y547488D02*
X2134941Y534941D01*
X2122394Y547488D02*
X2080000Y589882D01*
X2134941Y544941D02*
X2134941Y534941D01*
X2134941Y544941D02*
X2160000Y570000D01*
X2185000Y570000D01*
X2260000Y495000D01*
X2325000Y495000D01*
X2340000Y510000D01*
X2340000Y514600D01*
D22*
X1935000Y705000D02*
X1650000Y705000D01*
D23*
X1935000Y705000D03*
X1925000Y815000D03*
X2035000Y949492D03*
D22*
X1925000Y839492D02*
X1925000Y815000D01*
X1925000Y839492D02*
X2035000Y949492D01*
D24*
X1289906Y575000D02*
X1262394Y547488D01*
D22*
X1289906Y575000D02*
X1349331Y575000D01*
X1590259Y645259D02*
X1650000Y705000D01*
X1419590Y645259D02*
X1349331Y575000D01*
X1419590Y645259D02*
X1590259Y645259D01*
D24*
X1494600Y549600D02*
X1475000Y549600D01*
X1494600Y549600D02*
X1500000Y555000D01*
X1500000Y625000D01*
X1490000Y635000D01*
X1455000Y635000D01*
X1450000Y630000D01*
X1450000Y600000D01*
X1390000Y530000D02*
X1370000Y510000D01*
X1310000Y510000D01*
X1272512Y547488D01*
X1262394Y547488D01*
X1390000Y540000D02*
X1390000Y530000D01*
X1390000Y540000D02*
X1450000Y600000D01*
X625000Y570000D02*
X625000Y556500D01*
X641100Y556500D02*
X670000Y585400D01*
X641100Y556500D02*
X625000Y556500D01*
D22*
X1180000Y750000D02*
X1180000Y790000D01*
D23*
X1180000Y790000D03*
X1815000Y985000D03*
X2045000Y990000D03*
D22*
X2065000Y990000D02*
X2070000Y995000D01*
X2065000Y990000D02*
X2045000Y990000D01*
D23*
X2070000Y995000D03*
D22*
X1815000Y985000D02*
X1790000Y960000D01*
X1468626Y960000D01*
D23*
X1180000Y832004D03*
D22*
X1183221Y832004D01*
X1336217Y985000D01*
X1406042Y1037821D02*
X1412942Y1037821D01*
X1417821Y1032942D01*
X1353221Y985000D02*
X1336217Y985000D01*
X1417821Y1010805D02*
X1468626Y960000D01*
X1406042Y1037821D02*
X1353221Y985000D01*
X1417821Y1010805D02*
X1417821Y1032942D01*
D24*
X1004804Y574804D02*
X1000000Y570000D01*
X1004804Y574804D02*
X1014389Y574804D01*
X1180000Y740415D02*
X1180000Y750000D01*
X1180000Y740415D02*
X1014389Y574804D01*
D22*
X1130000Y755000D02*
X585000Y755000D01*
D23*
X1130000Y755000D03*
D24*
X585000Y755000D02*
X400000Y570000D01*
D22*
X775000Y745000D02*
X1145000Y745000D01*
X1155000Y755000D01*
X1155000Y785000D01*
X1150000Y790000D01*
D23*
X1150000Y790000D03*
X1885000Y1065776D03*
D22*
X1884224Y1065000D01*
D23*
X1150000Y832004D03*
D22*
X1153221Y832004D01*
X1386217Y1065000D01*
X1884224Y1065000D01*
D24*
X619404Y589404D02*
X600000Y570000D01*
X619404Y589404D02*
X619404Y589789D01*
X774615Y745000D02*
X775000Y745000D01*
X774615Y745000D02*
X619404Y589789D01*
D22*
X970000Y740000D02*
X1150000Y740000D01*
X1165000Y755000D01*
X1165000Y790000D01*
D23*
X1165000Y790000D03*
D22*
X1952996Y1045000D02*
X1952996Y1045230D01*
X1944481Y1053745D01*
D23*
X1165000Y832004D03*
X1952996Y1045000D03*
D22*
X1168221Y832004D02*
X1165000Y832004D01*
X1389963Y1053745D02*
X1944481Y1053745D01*
X1389963Y1053745D02*
X1168221Y832004D01*
D24*
X970000Y740000D02*
X800000Y570000D01*
D22*
X1655000Y695000D02*
X1995000Y695000D01*
D23*
X1995000Y695000D03*
D22*
X1955000Y992096D02*
X1929874Y1017222D01*
D23*
X1955302Y960302D03*
D22*
X1955000Y960604D01*
X1955000Y992096D01*
X1425125Y640794D02*
X1384203Y599872D01*
X1384203Y589203D02*
X1365000Y570000D01*
X1384203Y589203D02*
X1384203Y599872D01*
X1600794Y640794D02*
X1655000Y695000D01*
X1600794Y640794D02*
X1425125Y640794D01*
X1875000Y650000D02*
X1945000Y650000D01*
D23*
X1945000Y650000D03*
X1930000Y980000D03*
D22*
X1904474Y1005526D01*
X1904474Y1017222D01*
D24*
X1815596Y581011D02*
X1809389Y574804D01*
X1799804Y574804D02*
X1795000Y570000D01*
X1815596Y590596D02*
X1875000Y650000D01*
X1809389Y574804D02*
X1799804Y574804D01*
X1815596Y581011D02*
X1815596Y590596D01*
D22*
X2220000Y575000D02*
X2220000Y650000D01*
D23*
X2220000Y650000D03*
X2095000Y815000D03*
X2097472Y917529D03*
D22*
X1922969Y973327D02*
X1879074Y1017222D01*
D23*
X2054569Y947031D03*
D22*
X2051496Y950104D02*
X2051496Y958880D01*
X2051496Y950104D02*
X2054569Y947031D01*
X2097472Y889240D02*
X2098262Y888450D01*
X2097472Y889240D02*
X2097472Y917529D01*
X1978076Y912045D02*
X1971177Y912045D01*
X2095000Y815000D02*
X2098262Y818262D01*
X2098262Y888450D01*
X2051496Y958880D02*
X2048090Y962286D01*
X1922969Y960252D02*
X1922969Y973327D01*
X1922969Y960252D02*
X1971177Y912045D01*
X2028317Y962286D02*
X2048090Y962286D01*
X2028317Y962286D02*
X1978076Y912045D01*
D24*
X2220000Y575000D02*
X2225000Y570000D01*
D23*
X2090000Y940000D03*
D22*
X2090000Y935057D01*
X2060000Y905057D01*
D23*
X2285000Y987969D03*
D22*
X2287031Y990000D01*
X2038450Y957821D02*
X2031550Y957821D01*
X2038450Y957821D02*
X2046241Y950030D01*
X1963317Y907580D02*
X1853674Y1017222D01*
X1963317Y907580D02*
X1981309Y907580D01*
X2031550Y957821D01*
X2046241Y950030D02*
X2046241Y918816D01*
X2060000Y905057D01*
D24*
X2287031Y990000D02*
X2305000Y990000D01*
X425000Y570000D02*
X425000Y556500D01*
X441100Y556500D02*
X470000Y585400D01*
X441100Y556500D02*
X425000Y556500D01*
X825000Y556500D02*
X825000Y570000D01*
X838572Y556500D02*
X867472Y585400D01*
X838572Y556500D02*
X825000Y556500D01*
X1025000Y556500D02*
X1025000Y570000D01*
X1041100Y556500D02*
X1070000Y585400D01*
X1041100Y556500D02*
X1025000Y556500D01*
X1390000Y546500D02*
X1390000Y570000D01*
X1390000Y546500D02*
X1435000Y591500D01*
X1435000Y605400D01*
X1820000Y570000D02*
X1820000Y565400D01*
X1870000Y615400D01*
X2250000Y570000D02*
X2250000Y556500D01*
X2276100Y556500D02*
X2305000Y585400D01*
X2276100Y556500D02*
X2250000Y556500D01*
X2330000Y990000D02*
X2351406Y990000D01*
X2365000Y965400D02*
X2379800Y980200D01*
D22*
X2375000Y985000D01*
X2356406Y985000D01*
X2351406Y990000D01*
X1802874Y1169622D02*
X1788252Y1155000D01*
X1365000Y1155000D01*
X1345000Y1135000D01*
X1345000Y1110000D01*
X1355000Y1100000D01*
X1715000Y1100000D01*
D23*
X1715000Y1100000D03*
X1630000Y1025000D03*
D22*
X1575000Y970000D01*
X1565000Y970000D01*
D23*
X1565000Y970000D03*
X1215000Y790000D03*
D22*
X984553Y494603D02*
X879950Y390000D01*
X984553Y494603D02*
X1024472Y494603D01*
X1215000Y685131D01*
X1215000Y790000D01*
X1808652Y1150000D02*
X1828274Y1169622D01*
X1808652Y1150000D02*
X1370000Y1150000D01*
X1355000Y1135000D01*
X1355000Y1120000D01*
X1770000Y1120000D01*
D23*
X1770000Y1120000D03*
X1660000Y1025000D03*
D22*
X1605000Y970000D01*
X1590000Y970000D01*
D23*
X1590000Y970000D03*
X1230000Y790000D03*
D22*
X1230000Y600050D01*
X1019950Y390000D01*
M02*
