G04 EAGLE Gerber RS-274X export*
G75*
%MOMM*%
%FSLAX34Y34*%
%LPD*%
%IN*%
%IPPOS*%
%AMOC8*
5,1,8,0,0,1.08239X$1,22.5*%
G01*
G04 Define Apertures*
%ADD10C,0.254000*%
D10*
X220000Y350000D02*
X1120000Y360000D01*
X1120000Y10000D01*
X2430000Y10000D01*
X2430000Y1190000D01*
X220000Y1180000D01*
X220000Y350000D01*
X2142000Y829500D02*
X2158000Y829500D01*
X2158000Y850500D01*
X2142000Y850500D01*
X2142000Y829500D01*
X2232000Y829500D02*
X2248000Y829500D01*
X2248000Y850500D01*
X2232000Y850500D01*
X2232000Y829500D01*
X1712000Y829500D02*
X1728000Y829500D01*
X1728000Y850500D01*
X1712000Y850500D01*
X1712000Y829500D01*
X1802000Y829500D02*
X1818000Y829500D01*
X1818000Y850500D01*
X1802000Y850500D01*
X1802000Y829500D01*
X1282000Y829500D02*
X1298000Y829500D01*
X1298000Y850500D01*
X1282000Y850500D01*
X1282000Y829500D01*
X1372000Y829500D02*
X1388000Y829500D01*
X1388000Y850500D01*
X1372000Y850500D01*
X1372000Y829500D01*
X917000Y829500D02*
X933000Y829500D01*
X933000Y850500D01*
X917000Y850500D01*
X917000Y829500D01*
X1007000Y829500D02*
X1023000Y829500D01*
X1023000Y850500D01*
X1007000Y850500D01*
X1007000Y829500D01*
X266000Y862500D02*
X274000Y862500D01*
X274000Y877500D01*
X266000Y877500D01*
X266000Y862500D01*
X717000Y829500D02*
X733000Y829500D01*
X733000Y850500D01*
X717000Y850500D01*
X717000Y829500D01*
X807000Y829500D02*
X823000Y829500D01*
X823000Y850500D01*
X807000Y850500D01*
X807000Y829500D01*
X517000Y829500D02*
X533000Y829500D01*
X533000Y850500D01*
X517000Y850500D01*
X517000Y829500D01*
X607000Y829500D02*
X623000Y829500D01*
X623000Y850500D01*
X607000Y850500D01*
X607000Y829500D01*
X312500Y816000D02*
X327500Y816000D01*
X327500Y824000D01*
X312500Y824000D01*
X312500Y816000D01*
X312500Y841000D02*
X327500Y841000D01*
X327500Y849000D01*
X312500Y849000D01*
X312500Y841000D01*
X312500Y916000D02*
X327500Y916000D01*
X327500Y924000D01*
X312500Y924000D01*
X312500Y916000D01*
X312500Y891000D02*
X327500Y891000D01*
X327500Y899000D01*
X312500Y899000D01*
X312500Y891000D01*
M02*
