G04 EAGLE Gerber RS-274X export*
G75*
%MOMM*%
%FSLAX34Y34*%
%LPD*%
%INSoldermask Top*%
%IPPOS*%
%AMOC8*
5,1,8,0,0,1.08239X$1,22.5*%
G01*
G04 Define Apertures*
%ADD10P,1.95198X8X112.5*%
%ADD11R,1.662800X1.662800*%
%ADD12C,1.662800*%
%ADD13C,1.612800*%
%ADD14C,1.403200*%
%ADD15C,1.662800*%
%ADD16C,1.712800*%
%ADD17C,1.912800*%
%ADD18R,3.003200X3.003200*%
%ADD19C,1.828800*%
%ADD20C,1.778000*%
%ADD21C,1.592800*%
%ADD22C,3.203200*%
D10*
X280000Y747300D03*
X280000Y772700D03*
X450000Y727300D03*
X450000Y752700D03*
D11*
X384300Y756900D03*
D12*
X384300Y731500D03*
D13*
X275000Y862952D02*
X275000Y877048D01*
X317952Y820000D02*
X332048Y820000D01*
X332048Y845000D02*
X317952Y845000D01*
X317952Y895000D02*
X332048Y895000D01*
X332048Y920000D02*
X317952Y920000D01*
D14*
X275000Y920000D03*
X325000Y870000D03*
X275000Y820000D03*
D15*
X1247300Y439596D02*
X1247300Y425000D01*
X1272700Y425000D02*
X1272700Y439596D01*
X2147300Y439596D02*
X2147300Y425000D01*
X2172700Y425000D02*
X2172700Y439596D01*
X2247300Y439596D02*
X2247300Y425000D01*
X2272700Y425000D02*
X2272700Y439596D01*
X2347300Y439596D02*
X2347300Y425000D01*
X2372700Y425000D02*
X2372700Y439596D01*
X1347300Y439596D02*
X1347300Y425000D01*
X1372700Y425000D02*
X1372700Y439596D01*
X1447300Y439596D02*
X1447300Y425000D01*
X1472700Y425000D02*
X1472700Y439596D01*
X1547300Y439596D02*
X1547300Y425000D01*
X1572700Y425000D02*
X1572700Y439596D01*
X1647300Y439596D02*
X1647300Y425000D01*
X1672700Y425000D02*
X1672700Y439596D01*
X1747300Y439596D02*
X1747300Y425000D01*
X1772700Y425000D02*
X1772700Y439596D01*
X1847300Y439596D02*
X1847300Y425000D01*
X1872700Y425000D02*
X1872700Y439596D01*
X1947300Y439596D02*
X1947300Y425000D01*
X1972700Y425000D02*
X1972700Y439596D01*
X2047300Y439596D02*
X2047300Y425000D01*
X2072700Y425000D02*
X2072700Y439596D01*
D16*
X284600Y470000D03*
X355400Y470000D03*
X1475000Y549600D03*
X1475000Y620400D03*
X1910000Y534600D03*
X1910000Y605400D03*
X2340000Y514600D03*
X2340000Y585400D03*
D12*
X854550Y390000D03*
X879950Y390000D03*
D11*
X905450Y390000D03*
D12*
X994550Y390000D03*
X1019950Y390000D03*
D11*
X1045450Y390000D03*
D16*
X1209600Y470000D03*
X1280400Y470000D03*
X1309600Y470000D03*
X1380400Y470000D03*
X1409600Y470000D03*
X1480400Y470000D03*
X1509600Y475000D03*
X1580400Y475000D03*
X1615000Y540400D03*
X1615000Y469600D03*
X494600Y510000D03*
X565400Y510000D03*
X1701672Y510000D03*
X1772472Y510000D03*
X1799600Y510000D03*
X1870400Y510000D03*
X1939600Y520000D03*
X2010400Y520000D03*
X1994600Y470000D03*
X2065400Y470000D03*
X2109600Y510000D03*
X2180400Y510000D03*
X2280000Y542274D03*
X2280000Y471474D03*
X2314600Y480000D03*
X2385400Y480000D03*
X694600Y510000D03*
X765400Y510000D03*
X385000Y915400D03*
X385000Y844600D03*
D17*
X545000Y770000D03*
X570000Y770000D03*
X595000Y770000D03*
D18*
X615000Y840000D03*
X525000Y840000D03*
D16*
X914600Y510000D03*
X985400Y510000D03*
D17*
X745000Y770000D03*
X770000Y770000D03*
X795000Y770000D03*
D18*
X815000Y840000D03*
X725000Y840000D03*
D17*
X945000Y770000D03*
X970000Y770000D03*
X995000Y770000D03*
D18*
X1015000Y840000D03*
X925000Y840000D03*
D17*
X1310000Y770000D03*
X1335000Y770000D03*
X1360000Y770000D03*
D18*
X1380000Y840000D03*
X1290000Y840000D03*
D17*
X1740000Y770000D03*
X1765000Y770000D03*
X1790000Y770000D03*
D18*
X1810000Y840000D03*
X1720000Y840000D03*
D17*
X2170000Y770000D03*
X2195000Y770000D03*
X2220000Y770000D03*
D18*
X2240000Y840000D03*
X2150000Y840000D03*
D19*
X297394Y555616D02*
X297394Y539360D01*
X342606Y539360D02*
X342606Y555616D01*
X297394Y604384D02*
X297394Y620640D01*
X342606Y620640D02*
X342606Y604384D01*
X497394Y555616D02*
X497394Y539360D01*
X542606Y539360D02*
X542606Y555616D01*
X497394Y604384D02*
X497394Y620640D01*
X542606Y620640D02*
X542606Y604384D01*
X697394Y555616D02*
X697394Y539360D01*
X742606Y539360D02*
X742606Y555616D01*
X697394Y604384D02*
X697394Y620640D01*
X742606Y620640D02*
X742606Y604384D01*
X897394Y555616D02*
X897394Y539360D01*
X942606Y539360D02*
X942606Y555616D01*
X897394Y604384D02*
X897394Y620640D01*
X942606Y620640D02*
X942606Y604384D01*
X1262394Y555616D02*
X1262394Y539360D01*
X1307606Y539360D02*
X1307606Y555616D01*
X1262394Y604384D02*
X1262394Y620640D01*
X1307606Y620640D02*
X1307606Y604384D01*
X1692394Y555616D02*
X1692394Y539360D01*
X1737606Y539360D02*
X1737606Y555616D01*
X1692394Y604384D02*
X1692394Y620640D01*
X1737606Y620640D02*
X1737606Y604384D01*
X2122394Y555616D02*
X2122394Y539360D01*
X2167606Y539360D02*
X2167606Y555616D01*
X2122394Y604384D02*
X2122394Y620640D01*
X2167606Y620640D02*
X2167606Y604384D01*
D20*
X2336274Y1017222D03*
X2310874Y1017222D03*
X2285474Y1017222D03*
X2260074Y1017222D03*
X2234674Y1017222D03*
X2209274Y1017222D03*
X2183874Y1017222D03*
X2158474Y1017222D03*
X2133074Y1017222D03*
X2107674Y1017222D03*
X2082274Y1017222D03*
X2056874Y1017222D03*
X2056874Y1169622D03*
X2082274Y1169622D03*
X2107674Y1169622D03*
X2133074Y1169622D03*
X2158474Y1169622D03*
X2183874Y1169622D03*
X2209274Y1169622D03*
X2234674Y1169622D03*
X2260074Y1169622D03*
X2285474Y1169622D03*
X2310874Y1169622D03*
X2361674Y1017222D03*
X2336274Y1169622D03*
X2361674Y1169622D03*
X2387074Y1017222D03*
X2387074Y1169622D03*
X2031474Y1017222D03*
X2031474Y1169622D03*
X2006074Y1017222D03*
X1980674Y1017222D03*
X1955274Y1017222D03*
X1929874Y1017222D03*
X1904474Y1017222D03*
X1879074Y1017222D03*
X1853674Y1017222D03*
X1828274Y1017222D03*
X1802874Y1017222D03*
X1802874Y1169622D03*
X1828274Y1169622D03*
X1853674Y1169622D03*
X1879074Y1169622D03*
X1904474Y1169622D03*
X1929874Y1169622D03*
X1955274Y1169622D03*
X1980674Y1169622D03*
X2006074Y1169622D03*
X1929874Y1042622D03*
X1929874Y1093422D03*
X1929874Y1118822D03*
X1929874Y1068022D03*
X1929874Y1144222D03*
X2361674Y1144222D03*
X2310874Y1144222D03*
X2285474Y1144222D03*
X2260074Y1144222D03*
X2323574Y1048972D03*
X2298174Y1048972D03*
X2272774Y1048972D03*
X2247374Y1048972D03*
X2221974Y1048972D03*
D21*
X488000Y1010300D03*
X488000Y1035700D03*
X488000Y1061100D03*
X488000Y1086500D03*
X408600Y1086500D03*
X408600Y1061100D03*
X408600Y1035700D03*
X408600Y1010300D03*
D16*
X600000Y570000D03*
X625000Y570000D03*
X670000Y514600D03*
X670000Y585400D03*
X400000Y570000D03*
X425000Y570000D03*
X470000Y514600D03*
X470000Y585400D03*
X800000Y570000D03*
X825000Y570000D03*
X867472Y514600D03*
X867472Y585400D03*
X1000000Y570000D03*
X1025000Y570000D03*
X1070000Y514600D03*
X1070000Y585400D03*
X1365000Y570000D03*
X1390000Y570000D03*
X1435000Y534600D03*
X1435000Y605400D03*
X1795000Y570000D03*
X1820000Y570000D03*
X1870000Y544600D03*
X1870000Y615400D03*
X2225000Y570000D03*
X2250000Y570000D03*
X2305000Y514600D03*
X2305000Y585400D03*
X2305000Y990000D03*
X2330000Y990000D03*
X2365000Y894600D03*
X2365000Y965400D03*
D22*
X1200000Y400000D03*
X1240000Y400000D03*
X1750000Y400000D03*
X2410000Y400000D03*
X1880000Y400000D03*
M02*
