G04 EAGLE Gerber RS-274X export*
G75*
%MOMM*%
%FSLAX34Y34*%
%LPD*%
%INTop Copper*%
%IPPOS*%
%AMOC8*
5,1,8,0,0,1.08239X$1,22.5*%
G01*
G04 Define Apertures*
%ADD10P,1.73204X8X112.5*%
%ADD11R,1.459600X1.459600*%
%ADD12C,1.459600*%
%ADD13C,1.409600*%
%ADD14C,1.459600*%
%ADD15R,1.000000X1.100000*%
%ADD16R,1.100000X1.000000*%
%ADD17C,1.709600*%
%ADD18R,2.800000X2.800000*%
%ADD19C,1.625600*%
%ADD20C,1.574800*%
%ADD21C,1.389600*%
%ADD22C,0.300000*%
%ADD23C,0.243331*%
%ADD24C,1.016000*%
G36*
X2427503Y420060D02*
X2427753Y420232D01*
X2427917Y420487D01*
X2427968Y420762D01*
X2427968Y1186128D01*
X2427908Y1186426D01*
X2427736Y1186676D01*
X2427481Y1186839D01*
X2427182Y1186890D01*
X2426887Y1186820D01*
X2426667Y1186667D01*
X2420044Y1180044D01*
X2420017Y1180025D01*
X2419912Y1180000D01*
X2391737Y1180000D01*
X2391439Y1179940D01*
X2391189Y1179768D01*
X2391026Y1179513D01*
X2390975Y1179214D01*
X2391045Y1178919D01*
X2391224Y1178674D01*
X2391445Y1178534D01*
X2392685Y1178020D01*
X2395472Y1175234D01*
X2396980Y1171593D01*
X2396980Y1167652D01*
X2396196Y1165760D01*
X2396138Y1165462D01*
X2396201Y1165165D01*
X2396361Y1164929D01*
X2405403Y1155888D01*
X2405403Y1124392D01*
X2376693Y1095682D01*
X2342093Y1095682D01*
X2341796Y1095622D01*
X2341546Y1095450D01*
X2341383Y1095195D01*
X2341332Y1094896D01*
X2341389Y1094628D01*
X2342431Y1092115D01*
X2342600Y1091864D01*
X2342854Y1091698D01*
X2343135Y1091645D01*
X2371895Y1091645D01*
X2386645Y1076895D01*
X2386645Y1060203D01*
X2386705Y1059906D01*
X2386868Y1059664D01*
X2413249Y1033283D01*
X2413249Y822339D01*
X2389322Y798413D01*
X2389155Y798160D01*
X2389099Y797862D01*
X2389164Y797566D01*
X2389340Y797318D01*
X2389598Y797159D01*
X2389861Y797112D01*
X2391415Y797112D01*
X2394029Y796029D01*
X2396029Y794029D01*
X2397112Y791415D01*
X2397112Y788585D01*
X2396029Y785971D01*
X2394029Y783971D01*
X2393719Y783843D01*
X2393468Y783673D01*
X2393302Y783419D01*
X2393249Y783139D01*
X2393249Y502719D01*
X2393309Y502422D01*
X2393472Y502180D01*
X2413503Y482149D01*
X2413756Y481981D01*
X2414054Y481926D01*
X2414334Y481984D01*
X2414643Y482112D01*
X2417473Y482112D01*
X2420087Y481029D01*
X2422087Y479029D01*
X2423170Y476415D01*
X2423170Y473585D01*
X2422087Y470971D01*
X2420087Y468971D01*
X2417473Y467888D01*
X2414643Y467888D01*
X2412029Y468971D01*
X2410029Y470971D01*
X2408946Y473585D01*
X2408946Y476415D01*
X2409074Y476724D01*
X2409132Y477022D01*
X2409069Y477319D01*
X2408909Y477555D01*
X2386751Y499712D01*
X2386751Y783139D01*
X2386691Y783436D01*
X2386520Y783686D01*
X2386281Y783843D01*
X2385971Y783971D01*
X2383971Y785971D01*
X2382888Y788585D01*
X2382888Y790139D01*
X2382828Y790436D01*
X2382656Y790686D01*
X2382401Y790850D01*
X2382102Y790901D01*
X2381807Y790831D01*
X2381587Y790678D01*
X2248195Y657286D01*
X2224611Y657286D01*
X2224314Y657226D01*
X2224064Y657054D01*
X2223901Y656799D01*
X2223850Y656500D01*
X2223920Y656205D01*
X2224073Y655985D01*
X2226029Y654029D01*
X2227112Y651415D01*
X2227112Y648585D01*
X2226029Y645971D01*
X2224029Y643971D01*
X2223719Y643843D01*
X2223468Y643673D01*
X2223302Y643419D01*
X2223249Y643139D01*
X2223249Y577794D01*
X2223309Y577497D01*
X2223481Y577247D01*
X2223736Y577083D01*
X2224011Y577032D01*
X2229963Y577032D01*
X2232032Y574963D01*
X2232032Y565037D01*
X2229963Y562968D01*
X2220037Y562968D01*
X2217968Y565037D01*
X2217968Y572122D01*
X2217908Y572419D01*
X2217745Y572661D01*
X2216751Y573654D01*
X2216751Y643139D01*
X2216691Y643436D01*
X2216520Y643686D01*
X2216281Y643843D01*
X2215971Y643971D01*
X2213971Y645971D01*
X2212888Y648585D01*
X2212888Y651415D01*
X2213971Y654029D01*
X2215927Y655985D01*
X2216095Y656238D01*
X2216150Y656536D01*
X2216085Y656832D01*
X2215910Y657080D01*
X2215652Y657239D01*
X2215389Y657286D01*
X2084611Y657286D01*
X2084314Y657226D01*
X2084064Y657054D01*
X2083901Y656799D01*
X2083850Y656500D01*
X2083920Y656205D01*
X2084073Y655985D01*
X2086029Y654029D01*
X2087112Y651415D01*
X2087112Y648585D01*
X2086029Y645971D01*
X2084029Y643971D01*
X2083719Y643843D01*
X2083468Y643673D01*
X2083302Y643419D01*
X2083249Y643139D01*
X2083249Y591543D01*
X2083309Y591246D01*
X2083472Y591004D01*
X2112904Y561572D01*
X2113157Y561405D01*
X2113455Y561349D01*
X2113751Y561414D01*
X2113982Y561572D01*
X2116639Y564229D01*
X2120373Y565776D01*
X2124415Y565776D01*
X2128149Y564229D01*
X2131007Y561371D01*
X2132554Y557637D01*
X2132554Y542238D01*
X2132614Y541941D01*
X2132777Y541699D01*
X2139749Y534728D01*
X2139749Y508294D01*
X2139809Y507997D01*
X2139981Y507747D01*
X2140236Y507583D01*
X2140511Y507532D01*
X2142342Y507532D01*
X2143532Y506342D01*
X2143532Y493658D01*
X2142342Y492468D01*
X2130658Y492468D01*
X2129468Y493658D01*
X2129468Y506342D01*
X2130658Y507532D01*
X2132489Y507532D01*
X2132787Y507592D01*
X2133037Y507764D01*
X2133200Y508019D01*
X2133251Y508294D01*
X2133251Y531721D01*
X2133191Y532018D01*
X2133028Y532260D01*
X2131884Y533404D01*
X2131631Y533571D01*
X2131333Y533627D01*
X2131037Y533562D01*
X2130806Y533404D01*
X2128149Y530747D01*
X2124415Y529200D01*
X2120373Y529200D01*
X2116639Y530747D01*
X2113781Y533605D01*
X2112234Y537339D01*
X2112234Y552738D01*
X2112174Y553035D01*
X2112011Y553277D01*
X2076751Y588536D01*
X2076751Y643139D01*
X2076691Y643436D01*
X2076520Y643686D01*
X2076281Y643843D01*
X2075971Y643971D01*
X2073971Y645971D01*
X2072888Y648585D01*
X2072888Y651415D01*
X2073971Y654029D01*
X2075927Y655985D01*
X2076095Y656238D01*
X2076150Y656536D01*
X2076085Y656832D01*
X2075910Y657080D01*
X2075652Y657239D01*
X2075389Y657286D01*
X1979611Y657286D01*
X1979314Y657226D01*
X1979064Y657054D01*
X1978901Y656799D01*
X1978850Y656500D01*
X1978920Y656205D01*
X1979073Y655985D01*
X1981029Y654029D01*
X1982112Y651415D01*
X1982112Y648585D01*
X1981029Y645971D01*
X1979029Y643971D01*
X1978719Y643843D01*
X1978468Y643673D01*
X1978302Y643419D01*
X1978249Y643139D01*
X1978249Y621661D01*
X1978309Y621364D01*
X1978472Y621122D01*
X2082445Y517149D01*
X2082698Y516981D01*
X2082996Y516926D01*
X2083276Y516984D01*
X2083585Y517112D01*
X2086415Y517112D01*
X2089029Y516029D01*
X2091029Y514029D01*
X2092112Y511415D01*
X2092112Y508585D01*
X2091029Y505971D01*
X2089029Y503971D01*
X2086415Y502888D01*
X2083585Y502888D01*
X2080971Y503971D01*
X2078971Y505971D01*
X2077888Y508585D01*
X2077888Y511415D01*
X2078016Y511724D01*
X2078074Y512022D01*
X2078011Y512319D01*
X2077851Y512555D01*
X1971751Y618654D01*
X1971751Y643139D01*
X1971691Y643436D01*
X1971520Y643686D01*
X1971281Y643843D01*
X1970971Y643971D01*
X1968971Y645971D01*
X1968204Y647822D01*
X1968035Y648074D01*
X1967780Y648239D01*
X1967482Y648293D01*
X1967186Y648225D01*
X1966940Y648048D01*
X1966796Y647822D01*
X1966029Y645971D01*
X1964029Y643971D01*
X1963719Y643843D01*
X1963468Y643673D01*
X1963302Y643419D01*
X1963249Y643139D01*
X1963249Y616661D01*
X1963309Y616364D01*
X1963472Y616122D01*
X2099461Y480133D01*
X2099714Y479966D01*
X2100012Y479910D01*
X2100308Y479975D01*
X2100539Y480133D01*
X2108654Y488249D01*
X2111346Y488249D01*
X2118783Y480811D01*
X2118783Y469812D01*
X2118844Y469514D01*
X2119007Y469273D01*
X2123556Y464723D01*
X2123809Y464556D01*
X2124095Y464500D01*
X2128198Y464500D01*
X2128495Y464560D01*
X2128745Y464732D01*
X2128909Y464987D01*
X2128960Y465262D01*
X2128960Y469238D01*
X2144040Y469238D01*
X2144040Y468880D01*
X2144100Y468582D01*
X2144272Y468332D01*
X2144527Y468169D01*
X2144826Y468118D01*
X2145121Y468188D01*
X2145341Y468341D01*
X2146245Y469245D01*
X2146412Y469498D01*
X2146468Y469784D01*
X2146468Y476342D01*
X2147658Y477532D01*
X2159342Y477532D01*
X2160532Y476342D01*
X2160532Y463658D01*
X2159342Y462468D01*
X2157556Y462468D01*
X2157259Y462408D01*
X2157009Y462236D01*
X2156845Y461981D01*
X2156794Y461682D01*
X2156864Y461387D01*
X2157017Y461167D01*
X2159240Y458944D01*
X2159493Y458776D01*
X2159791Y458721D01*
X2160071Y458779D01*
X2160380Y458907D01*
X2163210Y458907D01*
X2165824Y457824D01*
X2167824Y455824D01*
X2168906Y453212D01*
X2169076Y452960D01*
X2169330Y452795D01*
X2169628Y452742D01*
X2169924Y452809D01*
X2170149Y452965D01*
X2170433Y453249D01*
X2175989Y453249D01*
X2176287Y453309D01*
X2176537Y453481D01*
X2176700Y453736D01*
X2176751Y454011D01*
X2176751Y471839D01*
X2176691Y472136D01*
X2176528Y472378D01*
X2156661Y492245D01*
X2156408Y492412D01*
X2156122Y492468D01*
X2147658Y492468D01*
X2146468Y493658D01*
X2146468Y506342D01*
X2147658Y507532D01*
X2159342Y507532D01*
X2160532Y506342D01*
X2160532Y497878D01*
X2160592Y497581D01*
X2160755Y497339D01*
X2183249Y474846D01*
X2183249Y454011D01*
X2183309Y453713D01*
X2183481Y453463D01*
X2183736Y453300D01*
X2184011Y453249D01*
X2241127Y453249D01*
X2241425Y453309D01*
X2241547Y453391D01*
X2252889Y453391D01*
X2253187Y453452D01*
X2253437Y453623D01*
X2253600Y453879D01*
X2253651Y454178D01*
X2253593Y454445D01*
X2252898Y456124D01*
X2252898Y458953D01*
X2253026Y459263D01*
X2253084Y459561D01*
X2253021Y459857D01*
X2252861Y460093D01*
X2250710Y462245D01*
X2250457Y462412D01*
X2250171Y462468D01*
X2247658Y462468D01*
X2246468Y463658D01*
X2246468Y476342D01*
X2247658Y477532D01*
X2259342Y477532D01*
X2260532Y476342D01*
X2260532Y465413D01*
X2260592Y465115D01*
X2260764Y464865D01*
X2261019Y464702D01*
X2261294Y464651D01*
X2261425Y464651D01*
X2264039Y463568D01*
X2266039Y461567D01*
X2267122Y458953D01*
X2267122Y456124D01*
X2266367Y454302D01*
X2266309Y454005D01*
X2266372Y453708D01*
X2266546Y453459D01*
X2266802Y453298D01*
X2267071Y453249D01*
X2285989Y453249D01*
X2286287Y453309D01*
X2286537Y453481D01*
X2286700Y453736D01*
X2286751Y454011D01*
X2286751Y456346D01*
X2288654Y458249D01*
X2391346Y458249D01*
X2393249Y456346D01*
X2393249Y433654D01*
X2381636Y422042D01*
X2381471Y421795D01*
X2381164Y421054D01*
X2381106Y420756D01*
X2381169Y420459D01*
X2381342Y420210D01*
X2381599Y420049D01*
X2381868Y420000D01*
X2427206Y420000D01*
X2427503Y420060D01*
G37*
%LPC*%
G36*
X2120373Y594224D02*
X2116639Y595771D01*
X2113781Y598629D01*
X2112234Y602363D01*
X2112234Y622661D01*
X2113781Y626395D01*
X2116639Y629253D01*
X2120373Y630800D01*
X2124415Y630800D01*
X2128149Y629253D01*
X2131007Y626395D01*
X2132554Y622661D01*
X2132554Y602363D01*
X2131007Y598629D01*
X2128149Y595771D01*
X2124415Y594224D01*
X2120373Y594224D01*
G37*
G36*
X2165585Y594224D02*
X2161851Y595771D01*
X2158993Y598629D01*
X2157446Y602363D01*
X2157446Y622661D01*
X2158993Y626395D01*
X2161851Y629253D01*
X2165585Y630800D01*
X2169627Y630800D01*
X2173361Y629253D01*
X2176219Y626395D01*
X2177766Y622661D01*
X2177766Y602363D01*
X2176219Y598629D01*
X2173361Y595771D01*
X2169627Y594224D01*
X2165585Y594224D01*
G37*
G36*
X2237658Y542468D02*
X2236468Y543658D01*
X2236468Y556342D01*
X2237658Y557532D01*
X2245989Y557532D01*
X2246287Y557592D01*
X2246537Y557764D01*
X2246700Y558019D01*
X2246751Y558294D01*
X2246751Y562206D01*
X2246691Y562503D01*
X2246520Y562753D01*
X2246264Y562917D01*
X2245989Y562968D01*
X2245037Y562968D01*
X2242968Y565037D01*
X2242968Y574963D01*
X2245037Y577032D01*
X2254963Y577032D01*
X2257032Y574963D01*
X2257032Y565037D01*
X2254963Y562968D01*
X2254011Y562968D01*
X2253713Y562908D01*
X2253463Y562736D01*
X2253300Y562481D01*
X2253249Y562206D01*
X2253249Y555154D01*
X2250755Y552661D01*
X2250588Y552408D01*
X2250532Y552122D01*
X2250532Y543658D01*
X2249342Y542468D01*
X2237658Y542468D01*
G37*
G36*
X2156938Y548250D02*
X2156938Y557738D01*
X2158562Y561659D01*
X2161563Y564660D01*
X2165484Y566284D01*
X2166844Y566284D01*
X2166844Y548250D01*
X2156938Y548250D01*
G37*
G36*
X2168368Y548250D02*
X2168368Y566284D01*
X2169728Y566284D01*
X2173649Y564660D01*
X2176650Y561659D01*
X2178274Y557738D01*
X2178274Y548250D01*
X2168368Y548250D01*
G37*
G36*
X2218960Y550762D02*
X2218960Y556552D01*
X2220448Y558040D01*
X2225738Y558040D01*
X2225738Y550762D01*
X2218960Y550762D01*
G37*
G36*
X2227262Y550762D02*
X2227262Y558040D01*
X2232552Y558040D01*
X2234040Y556552D01*
X2234040Y550762D01*
X2227262Y550762D01*
G37*
G36*
X2220448Y541960D02*
X2218960Y543448D01*
X2218960Y549238D01*
X2225738Y549238D01*
X2225738Y541960D01*
X2220448Y541960D01*
G37*
G36*
X2227262Y541960D02*
X2227262Y549238D01*
X2234040Y549238D01*
X2234040Y543448D01*
X2232552Y541960D01*
X2227262Y541960D01*
G37*
G36*
X2168368Y528692D02*
X2168368Y546726D01*
X2178274Y546726D01*
X2178274Y537238D01*
X2176650Y533317D01*
X2173649Y530316D01*
X2169728Y528692D01*
X2168368Y528692D01*
G37*
G36*
X2165484Y528692D02*
X2161563Y530316D01*
X2158562Y533317D01*
X2156938Y537238D01*
X2156938Y546726D01*
X2166844Y546726D01*
X2166844Y528692D01*
X2165484Y528692D01*
G37*
G36*
X2213585Y462888D02*
X2210971Y463971D01*
X2208971Y465971D01*
X2207888Y468585D01*
X2207888Y471415D01*
X2208016Y471724D01*
X2208074Y472022D01*
X2208011Y472319D01*
X2207851Y472555D01*
X2186751Y493654D01*
X2186751Y503139D01*
X2186691Y503436D01*
X2186520Y503686D01*
X2186281Y503843D01*
X2185971Y503971D01*
X2183971Y505971D01*
X2182888Y508585D01*
X2182888Y511415D01*
X2183971Y514029D01*
X2185971Y516029D01*
X2188585Y517112D01*
X2191415Y517112D01*
X2194029Y516029D01*
X2196029Y514029D01*
X2197112Y511415D01*
X2197112Y508585D01*
X2196029Y505971D01*
X2194029Y503971D01*
X2193719Y503843D01*
X2193468Y503673D01*
X2193302Y503419D01*
X2193249Y503139D01*
X2193249Y496661D01*
X2193309Y496364D01*
X2193472Y496122D01*
X2212445Y477149D01*
X2212698Y476981D01*
X2212996Y476926D01*
X2213276Y476984D01*
X2213585Y477112D01*
X2216415Y477112D01*
X2219029Y476029D01*
X2221029Y474029D01*
X2222112Y471415D01*
X2222112Y468585D01*
X2221029Y465971D01*
X2219029Y463971D01*
X2216415Y462888D01*
X2213585Y462888D01*
G37*
G36*
X2137262Y470762D02*
X2137262Y478040D01*
X2142552Y478040D01*
X2144040Y476552D01*
X2144040Y470762D01*
X2137262Y470762D01*
G37*
G36*
X2237262Y470762D02*
X2237262Y478040D01*
X2242552Y478040D01*
X2244040Y476552D01*
X2244040Y470762D01*
X2237262Y470762D01*
G37*
G36*
X2328960Y470762D02*
X2328960Y476552D01*
X2330448Y478040D01*
X2335738Y478040D01*
X2335738Y470762D01*
X2328960Y470762D01*
G37*
G36*
X2337262Y470762D02*
X2337262Y478040D01*
X2342552Y478040D01*
X2344040Y476552D01*
X2344040Y470762D01*
X2337262Y470762D01*
G37*
G36*
X2228960Y470762D02*
X2228960Y476552D01*
X2230448Y478040D01*
X2235738Y478040D01*
X2235738Y470762D01*
X2228960Y470762D01*
G37*
G36*
X2128960Y470762D02*
X2128960Y476552D01*
X2130448Y478040D01*
X2135738Y478040D01*
X2135738Y470762D01*
X2128960Y470762D01*
G37*
G36*
X2414643Y447888D02*
X2412029Y448971D01*
X2410029Y450971D01*
X2408946Y453585D01*
X2408946Y456415D01*
X2409074Y456724D01*
X2409132Y457022D01*
X2409069Y457319D01*
X2408909Y457555D01*
X2399936Y466528D01*
X2399683Y466696D01*
X2399397Y466751D01*
X2361294Y466751D01*
X2360997Y466691D01*
X2360747Y466520D01*
X2360583Y466264D01*
X2360532Y465989D01*
X2360532Y463658D01*
X2359342Y462468D01*
X2347658Y462468D01*
X2346468Y463658D01*
X2346468Y476342D01*
X2347658Y477532D01*
X2359342Y477532D01*
X2360532Y476342D01*
X2360532Y474011D01*
X2360592Y473713D01*
X2360764Y473463D01*
X2361019Y473300D01*
X2361294Y473249D01*
X2402404Y473249D01*
X2413503Y462149D01*
X2413756Y461981D01*
X2414054Y461926D01*
X2414334Y461984D01*
X2414643Y462112D01*
X2417473Y462112D01*
X2420087Y461029D01*
X2422087Y459029D01*
X2423170Y456415D01*
X2423170Y453585D01*
X2422087Y450971D01*
X2420087Y448971D01*
X2417473Y447888D01*
X2414643Y447888D01*
G37*
G36*
X2230448Y461960D02*
X2228960Y463448D01*
X2228960Y469238D01*
X2235738Y469238D01*
X2235738Y461960D01*
X2230448Y461960D01*
G37*
G36*
X2337262Y461960D02*
X2337262Y469238D01*
X2344040Y469238D01*
X2344040Y463448D01*
X2342552Y461960D01*
X2337262Y461960D01*
G37*
G36*
X2330448Y461960D02*
X2328960Y463448D01*
X2328960Y469238D01*
X2335738Y469238D01*
X2335738Y461960D01*
X2330448Y461960D01*
G37*
G36*
X2237262Y461960D02*
X2237262Y469238D01*
X2244040Y469238D01*
X2244040Y463448D01*
X2242552Y461960D01*
X2237262Y461960D01*
G37*
%LPD*%
G36*
X756287Y420060D02*
X756537Y420232D01*
X756700Y420487D01*
X756751Y420762D01*
X756751Y456346D01*
X780856Y480451D01*
X781024Y480703D01*
X781079Y481002D01*
X781014Y481298D01*
X780839Y481545D01*
X780581Y481704D01*
X780317Y481751D01*
X503654Y481751D01*
X488878Y496528D01*
X488625Y496696D01*
X488339Y496751D01*
X336294Y496751D01*
X335997Y496691D01*
X335747Y496520D01*
X335583Y496264D01*
X335532Y495989D01*
X335532Y493658D01*
X334342Y492468D01*
X322658Y492468D01*
X321468Y493658D01*
X321468Y506342D01*
X322658Y507532D01*
X325989Y507532D01*
X326287Y507592D01*
X326537Y507764D01*
X326700Y508019D01*
X326751Y508294D01*
X326751Y516346D01*
X328654Y518249D01*
X348339Y518249D01*
X348636Y518309D01*
X348878Y518472D01*
X361528Y531122D01*
X361696Y531375D01*
X361751Y531661D01*
X361751Y633339D01*
X361691Y633636D01*
X361528Y633878D01*
X341751Y653654D01*
X341751Y751346D01*
X350554Y760149D01*
X374208Y760149D01*
X374505Y760209D01*
X374755Y760381D01*
X374919Y760636D01*
X374970Y760911D01*
X374970Y765040D01*
X376160Y766230D01*
X392440Y766230D01*
X393630Y765040D01*
X393630Y756711D01*
X393690Y756413D01*
X393862Y756163D01*
X394117Y756000D01*
X394392Y755949D01*
X439205Y755949D01*
X439502Y756009D01*
X439752Y756181D01*
X439916Y756436D01*
X439967Y756711D01*
X439967Y756856D01*
X440070Y756958D01*
X440237Y757211D01*
X440293Y757509D01*
X440228Y757806D01*
X440070Y758036D01*
X438878Y759228D01*
X436751Y761354D01*
X436751Y804839D01*
X436691Y805136D01*
X436528Y805378D01*
X417661Y824245D01*
X417408Y824412D01*
X417122Y824468D01*
X408658Y824468D01*
X407468Y825658D01*
X407468Y834534D01*
X407408Y834831D01*
X407236Y835081D01*
X406981Y835245D01*
X406682Y835296D01*
X406387Y835226D01*
X406167Y835073D01*
X367846Y796751D01*
X328654Y796751D01*
X321751Y803654D01*
X321751Y810158D01*
X321691Y810455D01*
X321520Y810705D01*
X321264Y810869D01*
X320989Y810920D01*
X316146Y810920D01*
X312809Y812302D01*
X310254Y814857D01*
X308872Y818194D01*
X308872Y821806D01*
X310254Y825143D01*
X312809Y827698D01*
X316146Y829080D01*
X333854Y829080D01*
X337191Y827698D01*
X339746Y825143D01*
X341128Y821806D01*
X341128Y818194D01*
X339746Y814857D01*
X337191Y812302D01*
X333854Y810920D01*
X329011Y810920D01*
X328713Y810860D01*
X328463Y810688D01*
X328300Y810433D01*
X328249Y810158D01*
X328249Y806661D01*
X328309Y806364D01*
X328472Y806122D01*
X331122Y803472D01*
X331375Y803304D01*
X331661Y803249D01*
X364839Y803249D01*
X365136Y803309D01*
X365378Y803472D01*
X407245Y845339D01*
X407412Y845592D01*
X407468Y845878D01*
X407468Y854342D01*
X408658Y855532D01*
X410989Y855532D01*
X411287Y855592D01*
X411537Y855764D01*
X411700Y856019D01*
X411751Y856294D01*
X411751Y858139D01*
X411691Y858436D01*
X411520Y858686D01*
X411281Y858843D01*
X410971Y858971D01*
X408971Y860971D01*
X407888Y863585D01*
X407888Y866415D01*
X408971Y869029D01*
X410971Y871029D01*
X413585Y872112D01*
X416415Y872112D01*
X419029Y871029D01*
X421029Y869029D01*
X422112Y866415D01*
X422112Y863585D01*
X421029Y860971D01*
X419029Y858971D01*
X418719Y858843D01*
X418468Y858673D01*
X418302Y858419D01*
X418249Y858139D01*
X418249Y856294D01*
X418309Y855997D01*
X418481Y855747D01*
X418736Y855583D01*
X419011Y855532D01*
X421342Y855532D01*
X422532Y854342D01*
X422532Y842658D01*
X421342Y841468D01*
X412878Y841468D01*
X412581Y841408D01*
X412339Y841245D01*
X410927Y839833D01*
X410760Y839580D01*
X410704Y839282D01*
X410769Y838986D01*
X410945Y838738D01*
X411203Y838579D01*
X411466Y838532D01*
X421342Y838532D01*
X422101Y837773D01*
X422354Y837605D01*
X422652Y837550D01*
X422948Y837615D01*
X423179Y837773D01*
X426528Y841122D01*
X426696Y841375D01*
X426751Y841661D01*
X426751Y987239D01*
X426691Y987536D01*
X426528Y987778D01*
X412584Y1001721D01*
X412332Y1001889D01*
X412033Y1001944D01*
X411754Y1001887D01*
X410386Y1001320D01*
X406814Y1001320D01*
X403513Y1002687D01*
X400987Y1005213D01*
X399620Y1008514D01*
X399620Y1012086D01*
X400987Y1015387D01*
X403513Y1017913D01*
X406814Y1019280D01*
X410386Y1019280D01*
X413687Y1017913D01*
X416213Y1015387D01*
X416779Y1014019D01*
X416949Y1013768D01*
X417203Y1013602D01*
X417483Y1013549D01*
X438639Y1013549D01*
X438936Y1013609D01*
X439178Y1013772D01*
X446528Y1021122D01*
X446696Y1021375D01*
X446751Y1021661D01*
X446751Y1061346D01*
X475154Y1089749D01*
X479117Y1089749D01*
X479414Y1089809D01*
X479664Y1089981D01*
X479821Y1090219D01*
X480387Y1091587D01*
X482913Y1094113D01*
X486214Y1095480D01*
X489786Y1095480D01*
X493087Y1094113D01*
X495613Y1091587D01*
X496980Y1088286D01*
X496980Y1084714D01*
X495613Y1081413D01*
X493087Y1078887D01*
X489786Y1077520D01*
X486214Y1077520D01*
X482913Y1078887D01*
X480387Y1081413D01*
X479821Y1082781D01*
X479651Y1083032D01*
X479397Y1083198D01*
X479117Y1083251D01*
X478161Y1083251D01*
X477864Y1083191D01*
X477622Y1083028D01*
X453472Y1058878D01*
X453304Y1058625D01*
X453249Y1058339D01*
X453249Y1018654D01*
X441646Y1007051D01*
X418283Y1007051D01*
X417985Y1006991D01*
X417735Y1006820D01*
X417572Y1006564D01*
X417521Y1006265D01*
X417591Y1005970D01*
X417744Y1005751D01*
X433249Y990246D01*
X433249Y838654D01*
X423383Y828789D01*
X423216Y828536D01*
X423160Y828238D01*
X423225Y827942D01*
X423383Y827711D01*
X477622Y773472D01*
X477875Y773304D01*
X478161Y773249D01*
X534385Y773249D01*
X534682Y773309D01*
X534932Y773481D01*
X535089Y773719D01*
X536031Y775993D01*
X539007Y778969D01*
X542896Y780580D01*
X547105Y780580D01*
X549379Y779638D01*
X549676Y779580D01*
X549973Y779643D01*
X550209Y779803D01*
X573295Y802889D01*
X698266Y802889D01*
X698563Y802950D01*
X698813Y803121D01*
X698977Y803377D01*
X699027Y803676D01*
X698970Y803943D01*
X697888Y806555D01*
X697888Y809384D01*
X698971Y811998D01*
X700971Y813999D01*
X703585Y815081D01*
X706415Y815081D01*
X709029Y813999D01*
X709555Y813472D01*
X709808Y813304D01*
X710094Y813249D01*
X1833339Y813249D01*
X1833636Y813309D01*
X1833878Y813472D01*
X1853654Y833249D01*
X1858139Y833249D01*
X1858436Y833309D01*
X1858686Y833481D01*
X1858843Y833719D01*
X1858971Y834029D01*
X1860971Y836029D01*
X1863585Y837112D01*
X1866415Y837112D01*
X1869029Y836029D01*
X1871029Y834029D01*
X1872112Y831415D01*
X1872112Y828585D01*
X1871029Y825971D01*
X1869029Y823971D01*
X1866415Y822888D01*
X1863585Y822888D01*
X1860971Y823971D01*
X1858971Y825971D01*
X1858843Y826281D01*
X1858673Y826532D01*
X1858419Y826698D01*
X1858139Y826751D01*
X1856661Y826751D01*
X1856364Y826691D01*
X1856122Y826528D01*
X1836346Y806751D01*
X712703Y806751D01*
X712405Y806691D01*
X712155Y806520D01*
X711999Y806281D01*
X711179Y804302D01*
X711121Y804005D01*
X711184Y803708D01*
X711357Y803459D01*
X711614Y803298D01*
X711883Y803249D01*
X2119854Y803249D01*
X2120151Y803309D01*
X2120401Y803481D01*
X2120565Y803736D01*
X2120615Y804035D01*
X2120546Y804330D01*
X2120393Y804549D01*
X2118971Y805971D01*
X2117888Y808585D01*
X2117888Y811415D01*
X2118971Y814029D01*
X2120971Y816029D01*
X2121281Y816157D01*
X2121532Y816327D01*
X2121698Y816581D01*
X2121751Y816861D01*
X2121751Y834854D01*
X2121691Y835151D01*
X2121520Y835401D01*
X2121264Y835565D01*
X2120965Y835615D01*
X2120670Y835546D01*
X2120451Y835393D01*
X2119029Y833971D01*
X2116415Y832888D01*
X2113585Y832888D01*
X2110971Y833971D01*
X2108971Y835971D01*
X2107888Y838585D01*
X2107888Y841415D01*
X2108971Y844029D01*
X2110971Y846029D01*
X2111281Y846157D01*
X2111532Y846327D01*
X2111698Y846581D01*
X2111751Y846861D01*
X2111751Y931346D01*
X2151274Y970869D01*
X2151442Y971122D01*
X2151498Y971420D01*
X2151432Y971716D01*
X2151257Y971963D01*
X2150999Y972123D01*
X2150736Y972170D01*
X2148585Y972170D01*
X2145971Y973252D01*
X2143971Y975253D01*
X2142888Y977867D01*
X2142888Y980696D01*
X2143971Y983310D01*
X2145971Y985311D01*
X2148216Y986241D01*
X2148463Y986406D01*
X2174587Y1012529D01*
X2174754Y1012782D01*
X2174810Y1013080D01*
X2174752Y1013360D01*
X2173968Y1015252D01*
X2173968Y1019193D01*
X2175476Y1022834D01*
X2178263Y1025620D01*
X2181904Y1027128D01*
X2185844Y1027128D01*
X2189485Y1025620D01*
X2192272Y1022834D01*
X2193437Y1020022D01*
X2193606Y1019770D01*
X2193860Y1019605D01*
X2194159Y1019552D01*
X2194455Y1019619D01*
X2194701Y1019796D01*
X2194858Y1020056D01*
X2194903Y1020313D01*
X2194903Y1023175D01*
X2203321Y1031594D01*
X2215415Y1031594D01*
X2215713Y1031654D01*
X2215954Y1031817D01*
X2221903Y1037766D01*
X2222070Y1038018D01*
X2222126Y1038317D01*
X2222061Y1038613D01*
X2221885Y1038860D01*
X2221627Y1039019D01*
X2221364Y1039066D01*
X2220004Y1039066D01*
X2216363Y1040574D01*
X2213576Y1043361D01*
X2212068Y1047002D01*
X2212068Y1050943D01*
X2213576Y1054584D01*
X2216363Y1057370D01*
X2220004Y1058878D01*
X2221364Y1058878D01*
X2221661Y1058939D01*
X2221911Y1059110D01*
X2222075Y1059366D01*
X2222126Y1059665D01*
X2222056Y1059960D01*
X2221903Y1060179D01*
X2130554Y1151528D01*
X2130301Y1151696D01*
X2130015Y1151751D01*
X2118654Y1151751D01*
X2110743Y1159662D01*
X2110490Y1159830D01*
X2110192Y1159885D01*
X2109913Y1159828D01*
X2109644Y1159716D01*
X2105704Y1159716D01*
X2102063Y1161224D01*
X2099276Y1164011D01*
X2097768Y1167652D01*
X2097768Y1171593D01*
X2099276Y1175234D01*
X2102063Y1178020D01*
X2103303Y1178534D01*
X2103554Y1178704D01*
X2103720Y1178958D01*
X2103773Y1179256D01*
X2103706Y1179552D01*
X2103528Y1179798D01*
X2103269Y1179955D01*
X2103011Y1180000D01*
X2086937Y1180000D01*
X2086639Y1179940D01*
X2086389Y1179768D01*
X2086226Y1179513D01*
X2086175Y1179214D01*
X2086245Y1178919D01*
X2086424Y1178674D01*
X2086645Y1178534D01*
X2087885Y1178020D01*
X2090672Y1175234D01*
X2092180Y1171593D01*
X2092180Y1167652D01*
X2090672Y1164011D01*
X2087885Y1161224D01*
X2084244Y1159716D01*
X2080304Y1159716D01*
X2076663Y1161224D01*
X2073876Y1164011D01*
X2072368Y1167652D01*
X2072368Y1171593D01*
X2073876Y1175234D01*
X2076663Y1178020D01*
X2077903Y1178534D01*
X2078154Y1178704D01*
X2078320Y1178958D01*
X2078373Y1179256D01*
X2078306Y1179552D01*
X2078128Y1179798D01*
X2077869Y1179955D01*
X2077611Y1180000D01*
X2061537Y1180000D01*
X2061239Y1179940D01*
X2060989Y1179768D01*
X2060826Y1179513D01*
X2060775Y1179214D01*
X2060845Y1178919D01*
X2061024Y1178674D01*
X2061245Y1178534D01*
X2062485Y1178020D01*
X2065272Y1175234D01*
X2066780Y1171593D01*
X2066780Y1167652D01*
X2065272Y1164011D01*
X2062485Y1161224D01*
X2058844Y1159716D01*
X2054904Y1159716D01*
X2051263Y1161224D01*
X2048476Y1164011D01*
X2046968Y1167652D01*
X2046968Y1171593D01*
X2048476Y1175234D01*
X2051263Y1178020D01*
X2052503Y1178534D01*
X2052754Y1178704D01*
X2052920Y1178958D01*
X2052973Y1179256D01*
X2052906Y1179552D01*
X2052728Y1179798D01*
X2052469Y1179955D01*
X2052211Y1180000D01*
X2036137Y1180000D01*
X2035839Y1179940D01*
X2035589Y1179768D01*
X2035426Y1179513D01*
X2035375Y1179214D01*
X2035445Y1178919D01*
X2035624Y1178674D01*
X2035845Y1178534D01*
X2037085Y1178020D01*
X2039872Y1175234D01*
X2041380Y1171593D01*
X2041380Y1167652D01*
X2039872Y1164011D01*
X2037085Y1161224D01*
X2033444Y1159716D01*
X2029504Y1159716D01*
X2025863Y1161224D01*
X2023076Y1164011D01*
X2021568Y1167652D01*
X2021568Y1171593D01*
X2023076Y1175234D01*
X2025863Y1178020D01*
X2027103Y1178534D01*
X2027354Y1178704D01*
X2027520Y1178958D01*
X2027573Y1179256D01*
X2027506Y1179552D01*
X2027328Y1179798D01*
X2027069Y1179955D01*
X2026811Y1180000D01*
X2010737Y1180000D01*
X2010439Y1179940D01*
X2010189Y1179768D01*
X2010026Y1179513D01*
X2009975Y1179214D01*
X2010045Y1178919D01*
X2010224Y1178674D01*
X2010445Y1178534D01*
X2011685Y1178020D01*
X2014472Y1175234D01*
X2015980Y1171593D01*
X2015980Y1167652D01*
X2014472Y1164011D01*
X2011685Y1161224D01*
X2008044Y1159716D01*
X2004104Y1159716D01*
X2000463Y1161224D01*
X1997676Y1164011D01*
X1996168Y1167652D01*
X1996168Y1171593D01*
X1997676Y1175234D01*
X2000463Y1178020D01*
X2001703Y1178534D01*
X2001954Y1178704D01*
X2002120Y1178958D01*
X2002173Y1179256D01*
X2002106Y1179552D01*
X2001928Y1179798D01*
X2001669Y1179955D01*
X2001411Y1180000D01*
X1985337Y1180000D01*
X1985039Y1179940D01*
X1984789Y1179768D01*
X1984626Y1179513D01*
X1984575Y1179214D01*
X1984645Y1178919D01*
X1984824Y1178674D01*
X1985045Y1178534D01*
X1986285Y1178020D01*
X1989072Y1175234D01*
X1990580Y1171593D01*
X1990580Y1167652D01*
X1989072Y1164011D01*
X1987866Y1162806D01*
X1987699Y1162553D01*
X1987643Y1162255D01*
X1987708Y1161958D01*
X1987866Y1161728D01*
X2002445Y1147149D01*
X2002698Y1146981D01*
X2002996Y1146926D01*
X2003276Y1146984D01*
X2003585Y1147112D01*
X2006415Y1147112D01*
X2009029Y1146029D01*
X2011029Y1144029D01*
X2012112Y1141415D01*
X2012112Y1138585D01*
X2011029Y1135971D01*
X2009029Y1133971D01*
X2006415Y1132888D01*
X2003585Y1132888D01*
X2000971Y1133971D01*
X1998971Y1135971D01*
X1998204Y1137822D01*
X1998035Y1138074D01*
X1997780Y1138239D01*
X1997482Y1138293D01*
X1997186Y1138225D01*
X1996940Y1138048D01*
X1996796Y1137822D01*
X1996029Y1135971D01*
X1994029Y1133971D01*
X1991415Y1132888D01*
X1988585Y1132888D01*
X1985971Y1133971D01*
X1983971Y1135971D01*
X1982888Y1138585D01*
X1982888Y1141415D01*
X1983016Y1141724D01*
X1983074Y1142022D01*
X1983011Y1142319D01*
X1982851Y1142555D01*
X1963072Y1162334D01*
X1962819Y1162501D01*
X1962521Y1162557D01*
X1962225Y1162492D01*
X1961994Y1162334D01*
X1960885Y1161224D01*
X1957244Y1159716D01*
X1953304Y1159716D01*
X1949764Y1161182D01*
X1949467Y1161240D01*
X1949170Y1161178D01*
X1948921Y1161004D01*
X1948760Y1160747D01*
X1948711Y1160478D01*
X1948711Y1156199D01*
X1948771Y1155902D01*
X1948934Y1155660D01*
X1956122Y1148472D01*
X1956375Y1148304D01*
X1956661Y1148249D01*
X1966346Y1148249D01*
X1967445Y1147149D01*
X1967698Y1146981D01*
X1967996Y1146926D01*
X1968276Y1146984D01*
X1968585Y1147112D01*
X1971415Y1147112D01*
X1974029Y1146029D01*
X1976029Y1144029D01*
X1977112Y1141415D01*
X1977112Y1138585D01*
X1976029Y1135971D01*
X1974029Y1133971D01*
X1971415Y1132888D01*
X1968585Y1132888D01*
X1965971Y1133971D01*
X1963971Y1135971D01*
X1962888Y1138585D01*
X1962888Y1140989D01*
X1962828Y1141287D01*
X1962656Y1141537D01*
X1962401Y1141700D01*
X1962126Y1141751D01*
X1953368Y1141751D01*
X1953070Y1141691D01*
X1952820Y1141520D01*
X1952657Y1141264D01*
X1952606Y1140965D01*
X1952676Y1140670D01*
X1952829Y1140451D01*
X1969645Y1123634D01*
X1969645Y1020313D01*
X1969706Y1020016D01*
X1969877Y1019766D01*
X1970133Y1019603D01*
X1970432Y1019552D01*
X1970727Y1019622D01*
X1970971Y1019801D01*
X1971111Y1020022D01*
X1972276Y1022834D01*
X1975063Y1025620D01*
X1978704Y1027128D01*
X1982644Y1027128D01*
X1986285Y1025620D01*
X1989072Y1022834D01*
X1990580Y1019193D01*
X1990580Y1015252D01*
X1989072Y1011611D01*
X1986285Y1008824D01*
X1982644Y1007316D01*
X1978704Y1007316D01*
X1975063Y1008824D01*
X1972276Y1011611D01*
X1971111Y1014423D01*
X1970942Y1014675D01*
X1970688Y1014840D01*
X1970389Y1014893D01*
X1970093Y1014826D01*
X1969848Y1014648D01*
X1969690Y1014389D01*
X1969645Y1014131D01*
X1969645Y982874D01*
X1969706Y982577D01*
X1969877Y982327D01*
X1970133Y982163D01*
X1970407Y982112D01*
X1971415Y982112D01*
X1974029Y981029D01*
X1976029Y979029D01*
X1977112Y976415D01*
X1977112Y973585D01*
X1976029Y970971D01*
X1974029Y968971D01*
X1971415Y967888D01*
X1968585Y967888D01*
X1965971Y968971D01*
X1963971Y970971D01*
X1962888Y973585D01*
X1962888Y976415D01*
X1963090Y976902D01*
X1963148Y977194D01*
X1963148Y1009248D01*
X1963088Y1009545D01*
X1962916Y1009795D01*
X1962661Y1009958D01*
X1962362Y1010009D01*
X1962067Y1009939D01*
X1961847Y1009786D01*
X1960885Y1008824D01*
X1957244Y1007316D01*
X1953304Y1007316D01*
X1949663Y1008824D01*
X1946876Y1011611D01*
X1945368Y1015252D01*
X1945368Y1019193D01*
X1946876Y1022834D01*
X1949493Y1025451D01*
X1949660Y1025703D01*
X1949716Y1026002D01*
X1949651Y1026298D01*
X1949476Y1026545D01*
X1949217Y1026704D01*
X1948954Y1026751D01*
X1936194Y1026751D01*
X1935897Y1026691D01*
X1935647Y1026520D01*
X1935483Y1026264D01*
X1935432Y1025965D01*
X1935502Y1025670D01*
X1935655Y1025451D01*
X1938272Y1022834D01*
X1939780Y1019193D01*
X1939780Y1015252D01*
X1938996Y1013360D01*
X1938938Y1013062D01*
X1939001Y1012765D01*
X1939161Y1012529D01*
X1958249Y993442D01*
X1958249Y967289D01*
X1958309Y966992D01*
X1958481Y966742D01*
X1958719Y966585D01*
X1959331Y966331D01*
X1961331Y964331D01*
X1962414Y961717D01*
X1962414Y958888D01*
X1961331Y956274D01*
X1959331Y954273D01*
X1956717Y953190D01*
X1953888Y953190D01*
X1951274Y954273D01*
X1949273Y956274D01*
X1948190Y958888D01*
X1948190Y961717D01*
X1949273Y964331D01*
X1951274Y966331D01*
X1951281Y966335D01*
X1951532Y966504D01*
X1951698Y966758D01*
X1951751Y967039D01*
X1951751Y990435D01*
X1951691Y990732D01*
X1951528Y990974D01*
X1934567Y1007935D01*
X1934314Y1008102D01*
X1934016Y1008158D01*
X1933737Y1008100D01*
X1931844Y1007316D01*
X1927904Y1007316D01*
X1924263Y1008824D01*
X1921476Y1011611D01*
X1919968Y1015252D01*
X1919968Y1019193D01*
X1921476Y1022834D01*
X1924093Y1025451D01*
X1924260Y1025703D01*
X1924316Y1026002D01*
X1924251Y1026298D01*
X1924076Y1026545D01*
X1923817Y1026704D01*
X1923554Y1026751D01*
X1910794Y1026751D01*
X1910497Y1026691D01*
X1910247Y1026520D01*
X1910083Y1026264D01*
X1910032Y1025965D01*
X1910102Y1025670D01*
X1910255Y1025451D01*
X1912872Y1022834D01*
X1914380Y1019193D01*
X1914380Y1015252D01*
X1912872Y1011611D01*
X1910085Y1008824D01*
X1908193Y1008041D01*
X1907942Y1007871D01*
X1907776Y1007617D01*
X1907723Y1007337D01*
X1907723Y1007187D01*
X1907783Y1006890D01*
X1907946Y1006648D01*
X1927445Y987149D01*
X1927698Y986981D01*
X1927996Y986926D01*
X1928276Y986984D01*
X1928585Y987112D01*
X1931415Y987112D01*
X1934029Y986029D01*
X1936029Y984029D01*
X1937112Y981415D01*
X1937112Y978585D01*
X1936029Y975971D01*
X1934029Y973971D01*
X1931415Y972888D01*
X1928585Y972888D01*
X1927272Y973432D01*
X1926974Y973490D01*
X1926677Y973427D01*
X1926428Y973254D01*
X1926267Y972997D01*
X1926218Y972728D01*
X1926218Y961913D01*
X1926278Y961616D01*
X1926441Y961375D01*
X1946946Y940869D01*
X1947199Y940702D01*
X1947497Y940646D01*
X1947794Y940711D01*
X1948041Y940887D01*
X1948200Y941145D01*
X1948247Y941408D01*
X1948247Y941774D01*
X1949330Y944388D01*
X1951331Y946389D01*
X1953945Y947471D01*
X1956774Y947471D01*
X1959388Y946389D01*
X1960052Y945724D01*
X1960305Y945557D01*
X1960603Y945501D01*
X1960899Y945566D01*
X1961130Y945724D01*
X2020262Y1004856D01*
X2034209Y1004856D01*
X2034507Y1004917D01*
X2034748Y1005080D01*
X2036780Y1007111D01*
X2036947Y1007364D01*
X2037003Y1007662D01*
X2036938Y1007958D01*
X2036763Y1008206D01*
X2036504Y1008365D01*
X2036205Y1008411D01*
X2035950Y1008354D01*
X2033444Y1007316D01*
X2029504Y1007316D01*
X2025863Y1008824D01*
X2023076Y1011611D01*
X2021568Y1015252D01*
X2021568Y1019193D01*
X2023076Y1022834D01*
X2025863Y1025620D01*
X2029504Y1027128D01*
X2033444Y1027128D01*
X2037085Y1025620D01*
X2039872Y1022834D01*
X2040106Y1022269D01*
X2040275Y1022017D01*
X2040530Y1021852D01*
X2040828Y1021798D01*
X2041124Y1021866D01*
X2041349Y1022021D01*
X2050921Y1031594D01*
X2113627Y1031594D01*
X2123199Y1022021D01*
X2123452Y1021854D01*
X2123750Y1021798D01*
X2124046Y1021863D01*
X2124294Y1022039D01*
X2124442Y1022269D01*
X2124676Y1022834D01*
X2127463Y1025620D01*
X2131104Y1027128D01*
X2135044Y1027128D01*
X2138685Y1025620D01*
X2141472Y1022834D01*
X2142980Y1019193D01*
X2142980Y1015252D01*
X2141472Y1011611D01*
X2138685Y1008824D01*
X2135044Y1007316D01*
X2131104Y1007316D01*
X2127463Y1008824D01*
X2124676Y1011611D01*
X2123892Y1013503D01*
X2123723Y1013755D01*
X2123469Y1013920D01*
X2123188Y1013974D01*
X2122058Y1013974D01*
X2118881Y1017151D01*
X2118628Y1017319D01*
X2118330Y1017374D01*
X2118034Y1017309D01*
X2117786Y1017134D01*
X2117627Y1016876D01*
X2117580Y1016612D01*
X2117580Y1015252D01*
X2116072Y1011611D01*
X2113285Y1008824D01*
X2111393Y1008041D01*
X2111142Y1007871D01*
X2110976Y1007617D01*
X2110923Y1007337D01*
X2110923Y938164D01*
X2098641Y925882D01*
X2098474Y925630D01*
X2098418Y925331D01*
X2098483Y925035D01*
X2098659Y924788D01*
X2098888Y924640D01*
X2101500Y923558D01*
X2103501Y921557D01*
X2104584Y918943D01*
X2104584Y916114D01*
X2103501Y913500D01*
X2101500Y911499D01*
X2101191Y911371D01*
X2100939Y911202D01*
X2100774Y910947D01*
X2100720Y910667D01*
X2100720Y890901D01*
X2100781Y890604D01*
X2100943Y890362D01*
X2101510Y889796D01*
X2101510Y818019D01*
X2101568Y817728D01*
X2102112Y816415D01*
X2102112Y813585D01*
X2101029Y810971D01*
X2099029Y808971D01*
X2096415Y807888D01*
X2093585Y807888D01*
X2090971Y808971D01*
X2088971Y810971D01*
X2087888Y813585D01*
X2087888Y816415D01*
X2088971Y819029D01*
X2090971Y821029D01*
X2093585Y822112D01*
X2094251Y822112D01*
X2094548Y822172D01*
X2094798Y822344D01*
X2094962Y822599D01*
X2095013Y822874D01*
X2095013Y878266D01*
X2094953Y878563D01*
X2094781Y878813D01*
X2094526Y878977D01*
X2094227Y879027D01*
X2093959Y878970D01*
X2091348Y877888D01*
X2088518Y877888D01*
X2088209Y878016D01*
X2087911Y878074D01*
X2087614Y878011D01*
X2087378Y877851D01*
X2036278Y826751D01*
X1941861Y826751D01*
X1941564Y826691D01*
X1941314Y826520D01*
X1941157Y826281D01*
X1941029Y825971D01*
X1939029Y823971D01*
X1936415Y822888D01*
X1933585Y822888D01*
X1930971Y823971D01*
X1929549Y825393D01*
X1929297Y825560D01*
X1928999Y825616D01*
X1928702Y825551D01*
X1928455Y825375D01*
X1928296Y825117D01*
X1928249Y824854D01*
X1928249Y821861D01*
X1928309Y821564D01*
X1928481Y821314D01*
X1928719Y821157D01*
X1929029Y821029D01*
X1931029Y819029D01*
X1932112Y816415D01*
X1932112Y813585D01*
X1931029Y810971D01*
X1929029Y808971D01*
X1926415Y807888D01*
X1923585Y807888D01*
X1920971Y808971D01*
X1918971Y810971D01*
X1918204Y812822D01*
X1918035Y813074D01*
X1917780Y813239D01*
X1917482Y813293D01*
X1917186Y813225D01*
X1916940Y813048D01*
X1916796Y812822D01*
X1916029Y810971D01*
X1914029Y808971D01*
X1911415Y807888D01*
X1908585Y807888D01*
X1905971Y808971D01*
X1903971Y810971D01*
X1903204Y812822D01*
X1903035Y813074D01*
X1902780Y813239D01*
X1902482Y813293D01*
X1902186Y813225D01*
X1901940Y813048D01*
X1901796Y812822D01*
X1901029Y810971D01*
X1899029Y808971D01*
X1896415Y807888D01*
X1893585Y807888D01*
X1890971Y808971D01*
X1888971Y810971D01*
X1888204Y812822D01*
X1888035Y813074D01*
X1887780Y813239D01*
X1887482Y813293D01*
X1887186Y813225D01*
X1886940Y813048D01*
X1886796Y812822D01*
X1886029Y810971D01*
X1884029Y808971D01*
X1881415Y807888D01*
X1878585Y807888D01*
X1875971Y808971D01*
X1873971Y810971D01*
X1872888Y813585D01*
X1872888Y816415D01*
X1873971Y819029D01*
X1875971Y821029D01*
X1878585Y822112D01*
X1880989Y822112D01*
X1881287Y822172D01*
X1881537Y822344D01*
X1881700Y822599D01*
X1881751Y822874D01*
X1881751Y943105D01*
X1881691Y943402D01*
X1881528Y943644D01*
X1877519Y947653D01*
X1877266Y947821D01*
X1876968Y947877D01*
X1876672Y947811D01*
X1876424Y947636D01*
X1876265Y947378D01*
X1876218Y947115D01*
X1876218Y936861D01*
X1876278Y936564D01*
X1876450Y936314D01*
X1876688Y936157D01*
X1876998Y936029D01*
X1878999Y934029D01*
X1880081Y931415D01*
X1880081Y928585D01*
X1878999Y925971D01*
X1876998Y923971D01*
X1874384Y922888D01*
X1871555Y922888D01*
X1868941Y923971D01*
X1866940Y925971D01*
X1865857Y928585D01*
X1865857Y931415D01*
X1866940Y934029D01*
X1868941Y936029D01*
X1869250Y936157D01*
X1869502Y936327D01*
X1869667Y936581D01*
X1869721Y936861D01*
X1869721Y945466D01*
X1869660Y945763D01*
X1869497Y946005D01*
X1807567Y1007935D01*
X1807314Y1008102D01*
X1807016Y1008158D01*
X1806737Y1008100D01*
X1804844Y1007316D01*
X1800904Y1007316D01*
X1797263Y1008824D01*
X1794476Y1011611D01*
X1792968Y1015252D01*
X1792968Y1019193D01*
X1794476Y1022834D01*
X1797263Y1025620D01*
X1800904Y1027128D01*
X1804844Y1027128D01*
X1808485Y1025620D01*
X1810451Y1023655D01*
X1810703Y1023488D01*
X1811002Y1023432D01*
X1811298Y1023497D01*
X1811545Y1023673D01*
X1811704Y1023931D01*
X1811751Y1024194D01*
X1811751Y1026346D01*
X1818654Y1033249D01*
X1923399Y1033249D01*
X1923696Y1033309D01*
X1923946Y1033481D01*
X1924110Y1033736D01*
X1924161Y1034035D01*
X1924091Y1034330D01*
X1923938Y1034549D01*
X1921476Y1037011D01*
X1919968Y1040652D01*
X1919968Y1044593D01*
X1921476Y1048234D01*
X1922438Y1049196D01*
X1922606Y1049448D01*
X1922661Y1049747D01*
X1922596Y1050043D01*
X1922421Y1050290D01*
X1922163Y1050449D01*
X1921899Y1050496D01*
X1391624Y1050496D01*
X1391327Y1050436D01*
X1391085Y1050273D01*
X1181170Y840358D01*
X1181002Y840105D01*
X1180947Y839807D01*
X1181012Y839511D01*
X1181187Y839263D01*
X1181417Y839115D01*
X1184002Y838044D01*
X1184300Y837986D01*
X1184597Y838049D01*
X1184833Y838209D01*
X1334872Y988249D01*
X1351560Y988249D01*
X1351857Y988309D01*
X1352099Y988472D01*
X1404696Y1041069D01*
X1414288Y1041069D01*
X1421069Y1034288D01*
X1421069Y1012466D01*
X1421130Y1012169D01*
X1421293Y1011927D01*
X1469748Y963472D01*
X1470001Y963304D01*
X1470287Y963249D01*
X1559854Y963249D01*
X1560151Y963309D01*
X1560401Y963481D01*
X1560565Y963736D01*
X1560615Y964035D01*
X1560546Y964330D01*
X1560393Y964549D01*
X1558971Y965971D01*
X1557888Y968585D01*
X1557888Y971415D01*
X1558971Y974029D01*
X1560971Y976029D01*
X1563585Y977112D01*
X1566415Y977112D01*
X1569029Y976029D01*
X1571029Y974029D01*
X1571157Y973719D01*
X1571327Y973468D01*
X1571581Y973302D01*
X1571861Y973249D01*
X1573339Y973249D01*
X1573636Y973309D01*
X1573878Y973472D01*
X1622851Y1022445D01*
X1623019Y1022698D01*
X1623074Y1022996D01*
X1623016Y1023276D01*
X1622888Y1023585D01*
X1622888Y1026415D01*
X1623971Y1029029D01*
X1625971Y1031029D01*
X1628585Y1032112D01*
X1631415Y1032112D01*
X1634029Y1031029D01*
X1636029Y1029029D01*
X1637112Y1026415D01*
X1637112Y1023585D01*
X1636029Y1020971D01*
X1634029Y1018971D01*
X1631415Y1017888D01*
X1628585Y1017888D01*
X1628276Y1018016D01*
X1627978Y1018074D01*
X1627681Y1018011D01*
X1627445Y1017851D01*
X1588007Y978413D01*
X1587840Y978160D01*
X1587784Y977862D01*
X1587849Y977566D01*
X1588025Y977318D01*
X1588283Y977159D01*
X1588546Y977112D01*
X1591415Y977112D01*
X1594029Y976029D01*
X1596029Y974029D01*
X1596157Y973719D01*
X1596327Y973468D01*
X1596581Y973302D01*
X1596861Y973249D01*
X1603339Y973249D01*
X1603636Y973309D01*
X1603878Y973472D01*
X1652851Y1022445D01*
X1653019Y1022698D01*
X1653074Y1022996D01*
X1653016Y1023276D01*
X1652888Y1023585D01*
X1652888Y1026415D01*
X1653971Y1029029D01*
X1655971Y1031029D01*
X1658585Y1032112D01*
X1661415Y1032112D01*
X1664029Y1031029D01*
X1666029Y1029029D01*
X1667112Y1026415D01*
X1667112Y1023585D01*
X1666029Y1020971D01*
X1664029Y1018971D01*
X1661415Y1017888D01*
X1658585Y1017888D01*
X1658276Y1018016D01*
X1657978Y1018074D01*
X1657681Y1018011D01*
X1657445Y1017851D01*
X1606346Y966751D01*
X1596861Y966751D01*
X1596564Y966691D01*
X1596314Y966520D01*
X1596157Y966281D01*
X1596029Y965971D01*
X1594607Y964549D01*
X1594440Y964297D01*
X1594384Y963999D01*
X1594449Y963702D01*
X1594625Y963455D01*
X1594883Y963296D01*
X1595146Y963249D01*
X1788339Y963249D01*
X1788636Y963309D01*
X1788878Y963472D01*
X1807851Y982445D01*
X1808019Y982698D01*
X1808074Y982996D01*
X1808016Y983276D01*
X1807888Y983585D01*
X1807888Y986415D01*
X1808971Y989029D01*
X1810971Y991029D01*
X1813585Y992112D01*
X1816415Y992112D01*
X1819029Y991029D01*
X1821029Y989029D01*
X1822112Y986415D01*
X1822112Y983585D01*
X1821029Y980971D01*
X1819029Y978971D01*
X1816415Y977888D01*
X1813585Y977888D01*
X1813276Y978016D01*
X1812978Y978074D01*
X1812681Y978011D01*
X1812445Y977851D01*
X1791346Y956751D01*
X1467280Y956751D01*
X1414572Y1009459D01*
X1414572Y1022758D01*
X1414512Y1023055D01*
X1414340Y1023305D01*
X1414085Y1023469D01*
X1413786Y1023519D01*
X1413518Y1023462D01*
X1410907Y1022380D01*
X1408077Y1022380D01*
X1407768Y1022508D01*
X1407470Y1022566D01*
X1407173Y1022503D01*
X1406937Y1022343D01*
X1329144Y944549D01*
X1328976Y944297D01*
X1328921Y943999D01*
X1328986Y943702D01*
X1329161Y943455D01*
X1329419Y943296D01*
X1329683Y943249D01*
X1848139Y943249D01*
X1848436Y943309D01*
X1848686Y943481D01*
X1848843Y943719D01*
X1848971Y944029D01*
X1850971Y946029D01*
X1853585Y947112D01*
X1856415Y947112D01*
X1859029Y946029D01*
X1861029Y944029D01*
X1862112Y941415D01*
X1862112Y938585D01*
X1861029Y935971D01*
X1859029Y933971D01*
X1856415Y932888D01*
X1853585Y932888D01*
X1850971Y933971D01*
X1848971Y935971D01*
X1848843Y936281D01*
X1848673Y936532D01*
X1848419Y936698D01*
X1848139Y936751D01*
X1331661Y936751D01*
X1331364Y936691D01*
X1331122Y936528D01*
X1279144Y884549D01*
X1278976Y884297D01*
X1278921Y883999D01*
X1278986Y883702D01*
X1279161Y883455D01*
X1279419Y883296D01*
X1279683Y883249D01*
X1858139Y883249D01*
X1858436Y883309D01*
X1858686Y883481D01*
X1858843Y883719D01*
X1858971Y884029D01*
X1860971Y886029D01*
X1863585Y887112D01*
X1866415Y887112D01*
X1869029Y886029D01*
X1871029Y884029D01*
X1872112Y881415D01*
X1872112Y878585D01*
X1871029Y875971D01*
X1869029Y873971D01*
X1866415Y872888D01*
X1863585Y872888D01*
X1860971Y873971D01*
X1858971Y875971D01*
X1858843Y876281D01*
X1858673Y876532D01*
X1858419Y876698D01*
X1858139Y876751D01*
X1281661Y876751D01*
X1281364Y876691D01*
X1281122Y876528D01*
X1220556Y815961D01*
X1143355Y815961D01*
X1142788Y816528D01*
X1142535Y816696D01*
X1142249Y816751D01*
X456861Y816751D01*
X456564Y816691D01*
X456314Y816520D01*
X456157Y816281D01*
X456029Y815971D01*
X454029Y813971D01*
X451415Y812888D01*
X448585Y812888D01*
X445971Y813971D01*
X443971Y815971D01*
X442888Y818585D01*
X442888Y821415D01*
X443971Y824029D01*
X445971Y826029D01*
X448585Y827112D01*
X451415Y827112D01*
X454029Y826029D01*
X456029Y824029D01*
X456157Y823719D01*
X456327Y823468D01*
X456581Y823302D01*
X456861Y823249D01*
X509038Y823249D01*
X509335Y823309D01*
X509585Y823481D01*
X509749Y823736D01*
X509800Y824035D01*
X509730Y824330D01*
X509577Y824549D01*
X508968Y825158D01*
X508968Y854842D01*
X510158Y856032D01*
X539842Y856032D01*
X541032Y854842D01*
X541032Y825158D01*
X540423Y824549D01*
X540256Y824297D01*
X540200Y823999D01*
X540265Y823702D01*
X540441Y823455D01*
X540699Y823296D01*
X540962Y823249D01*
X599038Y823249D01*
X599335Y823309D01*
X599585Y823481D01*
X599749Y823736D01*
X599800Y824035D01*
X599730Y824330D01*
X599577Y824549D01*
X598968Y825158D01*
X598968Y854842D01*
X600158Y856032D01*
X629842Y856032D01*
X631032Y854842D01*
X631032Y825158D01*
X630423Y824549D01*
X630256Y824297D01*
X630200Y823999D01*
X630265Y823702D01*
X630441Y823455D01*
X630699Y823296D01*
X630962Y823249D01*
X709038Y823249D01*
X709335Y823309D01*
X709585Y823481D01*
X709749Y823736D01*
X709800Y824035D01*
X709730Y824330D01*
X709577Y824549D01*
X708968Y825158D01*
X708968Y854842D01*
X710158Y856032D01*
X739842Y856032D01*
X741032Y854842D01*
X741032Y825158D01*
X740423Y824549D01*
X740256Y824297D01*
X740200Y823999D01*
X740265Y823702D01*
X740441Y823455D01*
X740699Y823296D01*
X740962Y823249D01*
X799038Y823249D01*
X799335Y823309D01*
X799585Y823481D01*
X799749Y823736D01*
X799800Y824035D01*
X799730Y824330D01*
X799577Y824549D01*
X798968Y825158D01*
X798968Y854842D01*
X800158Y856032D01*
X829842Y856032D01*
X831032Y854842D01*
X831032Y825158D01*
X830423Y824549D01*
X830256Y824297D01*
X830200Y823999D01*
X830265Y823702D01*
X830441Y823455D01*
X830699Y823296D01*
X830962Y823249D01*
X909038Y823249D01*
X909335Y823309D01*
X909585Y823481D01*
X909749Y823736D01*
X909800Y824035D01*
X909730Y824330D01*
X909577Y824549D01*
X908968Y825158D01*
X908968Y854842D01*
X910158Y856032D01*
X939842Y856032D01*
X941032Y854842D01*
X941032Y825158D01*
X940423Y824549D01*
X940256Y824297D01*
X940200Y823999D01*
X940265Y823702D01*
X940441Y823455D01*
X940699Y823296D01*
X940962Y823249D01*
X999038Y823249D01*
X999335Y823309D01*
X999585Y823481D01*
X999749Y823736D01*
X999800Y824035D01*
X999730Y824330D01*
X999577Y824549D01*
X998968Y825158D01*
X998968Y854842D01*
X1000158Y856032D01*
X1029842Y856032D01*
X1031032Y854842D01*
X1031032Y825158D01*
X1030423Y824549D01*
X1030256Y824297D01*
X1030200Y823999D01*
X1030265Y823702D01*
X1030441Y823455D01*
X1030699Y823296D01*
X1030962Y823249D01*
X1055317Y823249D01*
X1055615Y823309D01*
X1055865Y823481D01*
X1056028Y823736D01*
X1056079Y824035D01*
X1056009Y824330D01*
X1055856Y824549D01*
X1052555Y827851D01*
X1052302Y828019D01*
X1052004Y828074D01*
X1051724Y828016D01*
X1051415Y827888D01*
X1048585Y827888D01*
X1045971Y828971D01*
X1043971Y830971D01*
X1042888Y833585D01*
X1042888Y836415D01*
X1043971Y839029D01*
X1045971Y841029D01*
X1048585Y842112D01*
X1051415Y842112D01*
X1054029Y841029D01*
X1056029Y839029D01*
X1057112Y836415D01*
X1057112Y833585D01*
X1056984Y833276D01*
X1056926Y832978D01*
X1056989Y832681D01*
X1057149Y832445D01*
X1061657Y827937D01*
X1061910Y827770D01*
X1062196Y827714D01*
X1142939Y827714D01*
X1143236Y827774D01*
X1143486Y827946D01*
X1143649Y828201D01*
X1143700Y828500D01*
X1143643Y828768D01*
X1142888Y830589D01*
X1142888Y833419D01*
X1143971Y836033D01*
X1145971Y838033D01*
X1148585Y839116D01*
X1151415Y839116D01*
X1154002Y838044D01*
X1154300Y837986D01*
X1154597Y838049D01*
X1154833Y838209D01*
X1384872Y1068249D01*
X1877817Y1068249D01*
X1878114Y1068309D01*
X1878365Y1068481D01*
X1878521Y1068719D01*
X1878971Y1069804D01*
X1880971Y1071805D01*
X1883585Y1072888D01*
X1886415Y1072888D01*
X1889029Y1071805D01*
X1891029Y1069804D01*
X1892112Y1067190D01*
X1892112Y1064361D01*
X1891029Y1061747D01*
X1889029Y1059747D01*
X1886415Y1058664D01*
X1883585Y1058664D01*
X1880971Y1059747D01*
X1879190Y1061528D01*
X1878937Y1061696D01*
X1878651Y1061751D01*
X1387879Y1061751D01*
X1387582Y1061691D01*
X1387340Y1061528D01*
X1166170Y840358D01*
X1166002Y840105D01*
X1165947Y839807D01*
X1166012Y839511D01*
X1166187Y839263D01*
X1166417Y839115D01*
X1169002Y838044D01*
X1169300Y837986D01*
X1169597Y838049D01*
X1169833Y838209D01*
X1388617Y1056994D01*
X1926783Y1056994D01*
X1927080Y1057054D01*
X1927330Y1057226D01*
X1927494Y1057481D01*
X1927545Y1057780D01*
X1927475Y1058075D01*
X1927296Y1058320D01*
X1927075Y1058460D01*
X1924263Y1059624D01*
X1921476Y1062411D01*
X1919968Y1066052D01*
X1919968Y1069993D01*
X1921476Y1073634D01*
X1924263Y1076420D01*
X1927904Y1077928D01*
X1931844Y1077928D01*
X1935485Y1076420D01*
X1938272Y1073634D01*
X1939780Y1069993D01*
X1939780Y1066052D01*
X1938272Y1062411D01*
X1935485Y1059624D01*
X1932673Y1058460D01*
X1932422Y1058290D01*
X1932256Y1058036D01*
X1932203Y1057738D01*
X1932271Y1057442D01*
X1932448Y1057196D01*
X1932707Y1057039D01*
X1932965Y1056994D01*
X1945827Y1056994D01*
X1950604Y1052216D01*
X1950857Y1052049D01*
X1951155Y1051993D01*
X1951435Y1052051D01*
X1951581Y1052112D01*
X1954411Y1052112D01*
X1957022Y1051030D01*
X1957320Y1050972D01*
X1957617Y1051035D01*
X1957866Y1051208D01*
X1958027Y1051465D01*
X1958076Y1051734D01*
X1958076Y1101440D01*
X1958016Y1101738D01*
X1957853Y1101979D01*
X1941081Y1118751D01*
X1940828Y1118919D01*
X1940530Y1118974D01*
X1940234Y1118909D01*
X1939986Y1118734D01*
X1939827Y1118476D01*
X1939780Y1118212D01*
X1939780Y1116852D01*
X1938272Y1113211D01*
X1935485Y1110424D01*
X1931844Y1108916D01*
X1927904Y1108916D01*
X1924263Y1110424D01*
X1921476Y1113211D01*
X1919968Y1116852D01*
X1919968Y1120793D01*
X1921476Y1124434D01*
X1922493Y1125451D01*
X1922660Y1125703D01*
X1922716Y1126002D01*
X1922651Y1126298D01*
X1922476Y1126545D01*
X1922217Y1126704D01*
X1921954Y1126751D01*
X1917351Y1126751D01*
X1883767Y1160335D01*
X1883514Y1160502D01*
X1883216Y1160558D01*
X1882937Y1160500D01*
X1881044Y1159716D01*
X1877104Y1159716D01*
X1873463Y1161224D01*
X1870676Y1164011D01*
X1869168Y1167652D01*
X1869168Y1171593D01*
X1870676Y1175234D01*
X1873463Y1178020D01*
X1874703Y1178534D01*
X1874954Y1178704D01*
X1875120Y1178958D01*
X1875173Y1179256D01*
X1875106Y1179552D01*
X1874928Y1179798D01*
X1874669Y1179955D01*
X1874411Y1180000D01*
X1858337Y1180000D01*
X1858039Y1179940D01*
X1857789Y1179768D01*
X1857626Y1179513D01*
X1857575Y1179214D01*
X1857645Y1178919D01*
X1857824Y1178674D01*
X1858045Y1178534D01*
X1859285Y1178020D01*
X1862072Y1175234D01*
X1863580Y1171593D01*
X1863580Y1167652D01*
X1862072Y1164011D01*
X1859285Y1161224D01*
X1855644Y1159716D01*
X1851704Y1159716D01*
X1849811Y1160500D01*
X1849514Y1160558D01*
X1849217Y1160495D01*
X1848981Y1160335D01*
X1825397Y1136751D01*
X1386861Y1136751D01*
X1386564Y1136691D01*
X1386314Y1136520D01*
X1386157Y1136281D01*
X1386029Y1135971D01*
X1384029Y1133971D01*
X1381415Y1132888D01*
X1378585Y1132888D01*
X1375971Y1133971D01*
X1373971Y1135971D01*
X1372888Y1138585D01*
X1372888Y1141415D01*
X1373971Y1144029D01*
X1375393Y1145451D01*
X1375560Y1145703D01*
X1375616Y1146002D01*
X1375551Y1146298D01*
X1375375Y1146545D01*
X1375117Y1146704D01*
X1374854Y1146751D01*
X1371661Y1146751D01*
X1371364Y1146691D01*
X1371122Y1146528D01*
X1358472Y1133878D01*
X1358304Y1133625D01*
X1358249Y1133339D01*
X1358249Y1124011D01*
X1358309Y1123713D01*
X1358481Y1123463D01*
X1358736Y1123300D01*
X1359011Y1123249D01*
X1763139Y1123249D01*
X1763436Y1123309D01*
X1763686Y1123481D01*
X1763843Y1123719D01*
X1763971Y1124029D01*
X1765971Y1126029D01*
X1768585Y1127112D01*
X1771415Y1127112D01*
X1774029Y1126029D01*
X1776029Y1124029D01*
X1777112Y1121415D01*
X1777112Y1118585D01*
X1776029Y1115971D01*
X1774029Y1113971D01*
X1771415Y1112888D01*
X1768585Y1112888D01*
X1765971Y1113971D01*
X1763971Y1115971D01*
X1763843Y1116281D01*
X1763673Y1116532D01*
X1763419Y1116698D01*
X1763139Y1116751D01*
X1353654Y1116751D01*
X1351751Y1118654D01*
X1351751Y1135317D01*
X1351691Y1135615D01*
X1351520Y1135865D01*
X1351264Y1136028D01*
X1350965Y1136079D01*
X1350670Y1136009D01*
X1350451Y1135856D01*
X1348472Y1133878D01*
X1348304Y1133625D01*
X1348249Y1133339D01*
X1348249Y1111661D01*
X1348309Y1111364D01*
X1348472Y1111122D01*
X1356122Y1103472D01*
X1356375Y1103304D01*
X1356661Y1103249D01*
X1708139Y1103249D01*
X1708436Y1103309D01*
X1708686Y1103481D01*
X1708843Y1103719D01*
X1708971Y1104029D01*
X1710971Y1106029D01*
X1713585Y1107112D01*
X1716415Y1107112D01*
X1719029Y1106029D01*
X1721029Y1104029D01*
X1722112Y1101415D01*
X1722112Y1098585D01*
X1721029Y1095971D01*
X1719029Y1093971D01*
X1716415Y1092888D01*
X1713585Y1092888D01*
X1710971Y1093971D01*
X1708971Y1095971D01*
X1708843Y1096281D01*
X1708673Y1096532D01*
X1708419Y1096698D01*
X1708139Y1096751D01*
X1353654Y1096751D01*
X1341751Y1108654D01*
X1341751Y1136346D01*
X1363654Y1158249D01*
X1786590Y1158249D01*
X1786888Y1158309D01*
X1787129Y1158472D01*
X1793587Y1164929D01*
X1793754Y1165182D01*
X1793810Y1165480D01*
X1793752Y1165760D01*
X1792968Y1167652D01*
X1792968Y1171593D01*
X1794476Y1175234D01*
X1797263Y1178020D01*
X1798503Y1178534D01*
X1798754Y1178704D01*
X1798920Y1178958D01*
X1798973Y1179256D01*
X1798906Y1179552D01*
X1798728Y1179798D01*
X1798469Y1179955D01*
X1798211Y1180000D01*
X669077Y1180000D01*
X222791Y1177981D01*
X222494Y1177919D01*
X222244Y1177746D01*
X222082Y1177490D01*
X222032Y1177219D01*
X222032Y420762D01*
X222092Y420465D01*
X222264Y420215D01*
X222519Y420051D01*
X222794Y420000D01*
X755989Y420000D01*
X756287Y420060D01*
G37*
%LPC*%
G36*
X275844Y762667D02*
X269967Y768544D01*
X269967Y776856D01*
X275844Y782733D01*
X275989Y782733D01*
X276287Y782793D01*
X276537Y782965D01*
X276700Y783220D01*
X276751Y783495D01*
X276751Y801771D01*
X288905Y813925D01*
X289072Y814178D01*
X289128Y814464D01*
X289128Y825536D01*
X289068Y825834D01*
X288905Y826075D01*
X276751Y838229D01*
X276751Y853110D01*
X276691Y853407D01*
X276520Y853657D01*
X276264Y853821D01*
X275989Y853872D01*
X273194Y853872D01*
X269857Y855254D01*
X267302Y857809D01*
X265920Y861146D01*
X265920Y878854D01*
X267302Y882191D01*
X269857Y884746D01*
X271281Y885336D01*
X271532Y885505D01*
X271698Y885759D01*
X271751Y886040D01*
X271751Y896771D01*
X288905Y913925D01*
X289072Y914178D01*
X289128Y914464D01*
X289128Y946222D01*
X399456Y1056551D01*
X399624Y1056803D01*
X399679Y1057102D01*
X399614Y1057398D01*
X399439Y1057645D01*
X399181Y1057804D01*
X398917Y1057851D01*
X397554Y1057851D01*
X386751Y1068654D01*
X386751Y1111346D01*
X388654Y1113249D01*
X506346Y1113249D01*
X508249Y1111346D01*
X508249Y1051354D01*
X496579Y1039684D01*
X496411Y1039432D01*
X496356Y1039133D01*
X496413Y1038854D01*
X496980Y1037486D01*
X496980Y1033914D01*
X495613Y1030613D01*
X493087Y1028087D01*
X489786Y1026720D01*
X486214Y1026720D01*
X482913Y1028087D01*
X480387Y1030613D01*
X479020Y1033914D01*
X479020Y1037486D01*
X480387Y1040787D01*
X482913Y1043313D01*
X486214Y1044680D01*
X489786Y1044680D01*
X491154Y1044113D01*
X491452Y1044056D01*
X491748Y1044118D01*
X491984Y1044279D01*
X501528Y1053822D01*
X501696Y1054075D01*
X501751Y1054361D01*
X501751Y1105989D01*
X501691Y1106287D01*
X501520Y1106537D01*
X501264Y1106700D01*
X500989Y1106751D01*
X394011Y1106751D01*
X393713Y1106691D01*
X393463Y1106520D01*
X393300Y1106264D01*
X393249Y1105989D01*
X393249Y1071661D01*
X393309Y1071364D01*
X393472Y1071122D01*
X399425Y1065169D01*
X399678Y1065002D01*
X399976Y1064946D01*
X400272Y1065011D01*
X400520Y1065187D01*
X400668Y1065416D01*
X400987Y1066187D01*
X403513Y1068713D01*
X406814Y1070080D01*
X410386Y1070080D01*
X413687Y1068713D01*
X416213Y1066187D01*
X417580Y1062886D01*
X417580Y1059314D01*
X416213Y1056013D01*
X413687Y1053487D01*
X410386Y1052120D01*
X406814Y1052120D01*
X405446Y1052687D01*
X405148Y1052745D01*
X404852Y1052682D01*
X404616Y1052521D01*
X295849Y943754D01*
X295681Y943501D01*
X295625Y943215D01*
X295625Y911457D01*
X278472Y894303D01*
X278304Y894050D01*
X278249Y893764D01*
X278249Y886040D01*
X278309Y885742D01*
X278481Y885492D01*
X278719Y885336D01*
X280143Y884746D01*
X282698Y882191D01*
X284080Y878854D01*
X284080Y861146D01*
X283307Y859279D01*
X283249Y858987D01*
X283249Y841236D01*
X283309Y840938D01*
X283472Y840697D01*
X295625Y828543D01*
X295625Y811457D01*
X283472Y799303D01*
X283304Y799050D01*
X283249Y798764D01*
X283249Y783495D01*
X283309Y783198D01*
X283481Y782948D01*
X283736Y782784D01*
X284011Y782733D01*
X284156Y782733D01*
X290033Y776856D01*
X290033Y768544D01*
X284156Y762667D01*
X275844Y762667D01*
G37*
G36*
X1927904Y1083516D02*
X1924263Y1085024D01*
X1921476Y1087811D01*
X1919968Y1091452D01*
X1919968Y1095393D01*
X1921476Y1099034D01*
X1924263Y1101820D01*
X1927904Y1103328D01*
X1931844Y1103328D01*
X1935485Y1101820D01*
X1938272Y1099034D01*
X1939780Y1095393D01*
X1939780Y1091452D01*
X1938272Y1087811D01*
X1935485Y1085024D01*
X1931844Y1083516D01*
X1927904Y1083516D01*
G37*
G36*
X406814Y1077520D02*
X403513Y1078887D01*
X400987Y1081413D01*
X399620Y1084714D01*
X399620Y1088286D01*
X400987Y1091587D01*
X403513Y1094113D01*
X406814Y1095480D01*
X410386Y1095480D01*
X413687Y1094113D01*
X416213Y1091587D01*
X417580Y1088286D01*
X417580Y1084714D01*
X416213Y1081413D01*
X413687Y1078887D01*
X410386Y1077520D01*
X406814Y1077520D01*
G37*
G36*
X486214Y1052120D02*
X482913Y1053487D01*
X480387Y1056013D01*
X479020Y1059314D01*
X479020Y1062886D01*
X480387Y1066187D01*
X482913Y1068713D01*
X486214Y1070080D01*
X489786Y1070080D01*
X493087Y1068713D01*
X495613Y1066187D01*
X496980Y1062886D01*
X496980Y1059314D01*
X495613Y1056013D01*
X493087Y1053487D01*
X489786Y1052120D01*
X486214Y1052120D01*
G37*
G36*
X406814Y1026720D02*
X403513Y1028087D01*
X400987Y1030613D01*
X399620Y1033914D01*
X399620Y1037486D01*
X400987Y1040787D01*
X403513Y1043313D01*
X406814Y1044680D01*
X410386Y1044680D01*
X413687Y1043313D01*
X416213Y1040787D01*
X417580Y1037486D01*
X417580Y1033914D01*
X416213Y1030613D01*
X413687Y1028087D01*
X410386Y1026720D01*
X406814Y1026720D01*
G37*
G36*
X2118585Y972888D02*
X2115971Y973971D01*
X2113971Y975971D01*
X2112888Y978585D01*
X2112888Y981415D01*
X2113971Y984029D01*
X2115971Y986029D01*
X2118585Y987112D01*
X2121415Y987112D01*
X2122609Y986617D01*
X2122907Y986559D01*
X2123204Y986622D01*
X2123440Y986782D01*
X2149187Y1012529D01*
X2149354Y1012782D01*
X2149410Y1013080D01*
X2149352Y1013360D01*
X2148568Y1015252D01*
X2148568Y1019193D01*
X2150076Y1022834D01*
X2152863Y1025620D01*
X2156504Y1027128D01*
X2160444Y1027128D01*
X2164085Y1025620D01*
X2166872Y1022834D01*
X2168380Y1019193D01*
X2168380Y1015252D01*
X2166872Y1011611D01*
X2164085Y1008824D01*
X2160444Y1007316D01*
X2156504Y1007316D01*
X2154611Y1008100D01*
X2154314Y1008158D01*
X2154017Y1008095D01*
X2153781Y1007935D01*
X2127335Y981489D01*
X2127168Y981236D01*
X2127112Y980950D01*
X2127112Y978585D01*
X2126029Y975971D01*
X2124029Y973971D01*
X2121415Y972888D01*
X2118585Y972888D01*
G37*
G36*
X2004104Y1007316D02*
X2000463Y1008824D01*
X1997676Y1011611D01*
X1996168Y1015252D01*
X1996168Y1019193D01*
X1997676Y1022834D01*
X2000463Y1025620D01*
X2004104Y1027128D01*
X2008044Y1027128D01*
X2011685Y1025620D01*
X2014472Y1022834D01*
X2015980Y1019193D01*
X2015980Y1015252D01*
X2014472Y1011611D01*
X2011685Y1008824D01*
X2008044Y1007316D01*
X2004104Y1007316D01*
G37*
G36*
X478512Y1011062D02*
X478512Y1012187D01*
X479956Y1015675D01*
X482625Y1018344D01*
X486113Y1019788D01*
X487238Y1019788D01*
X487238Y1011062D01*
X478512Y1011062D01*
G37*
G36*
X488762Y1011062D02*
X488762Y1019788D01*
X489887Y1019788D01*
X493375Y1018344D01*
X496044Y1015675D01*
X497488Y1012187D01*
X497488Y1011062D01*
X488762Y1011062D01*
G37*
G36*
X486113Y1000812D02*
X482625Y1002256D01*
X479956Y1004925D01*
X478512Y1008413D01*
X478512Y1009538D01*
X487238Y1009538D01*
X487238Y1000812D01*
X486113Y1000812D01*
G37*
G36*
X488762Y1000812D02*
X488762Y1009538D01*
X497488Y1009538D01*
X497488Y1008413D01*
X496044Y1004925D01*
X493375Y1002256D01*
X489887Y1000812D01*
X488762Y1000812D01*
G37*
G36*
X316146Y910920D02*
X312809Y912302D01*
X310254Y914857D01*
X308872Y918194D01*
X308872Y921806D01*
X310254Y925143D01*
X312809Y927698D01*
X316146Y929080D01*
X333854Y929080D01*
X337191Y927698D01*
X339746Y925143D01*
X341128Y921806D01*
X341128Y918194D01*
X339746Y914857D01*
X337191Y912302D01*
X333854Y910920D01*
X316146Y910920D01*
G37*
G36*
X273402Y911968D02*
X270450Y913191D01*
X268191Y915450D01*
X266968Y918402D01*
X266968Y921598D01*
X268191Y924550D01*
X270450Y926809D01*
X273402Y928032D01*
X276598Y928032D01*
X279550Y926809D01*
X281809Y924550D01*
X283032Y921598D01*
X283032Y918402D01*
X281809Y915450D01*
X279550Y913191D01*
X276598Y911968D01*
X273402Y911968D01*
G37*
G36*
X316146Y885920D02*
X312809Y887302D01*
X310254Y889857D01*
X308872Y893194D01*
X308872Y896806D01*
X310254Y900143D01*
X312809Y902698D01*
X316146Y904080D01*
X333854Y904080D01*
X337191Y902698D01*
X339746Y900143D01*
X341128Y896806D01*
X341128Y893194D01*
X339746Y889857D01*
X337191Y887302D01*
X333854Y885920D01*
X316146Y885920D01*
G37*
G36*
X323402Y861968D02*
X320450Y863191D01*
X318191Y865450D01*
X316968Y868402D01*
X316968Y871598D01*
X318191Y874550D01*
X320450Y876809D01*
X323402Y878032D01*
X326598Y878032D01*
X329550Y876809D01*
X331809Y874550D01*
X333032Y871598D01*
X333032Y868402D01*
X331809Y865450D01*
X329550Y863191D01*
X326598Y861968D01*
X323402Y861968D01*
G37*
G36*
X1795158Y823968D02*
X1793968Y825158D01*
X1793968Y854842D01*
X1795158Y856032D01*
X1824842Y856032D01*
X1826032Y854842D01*
X1826032Y825158D01*
X1824842Y823968D01*
X1795158Y823968D01*
G37*
G36*
X1705158Y823968D02*
X1703968Y825158D01*
X1703968Y854842D01*
X1705158Y856032D01*
X1734842Y856032D01*
X1736032Y854842D01*
X1736032Y825158D01*
X1734842Y823968D01*
X1705158Y823968D01*
G37*
G36*
X1275158Y823968D02*
X1273968Y825158D01*
X1273968Y854842D01*
X1275158Y856032D01*
X1304842Y856032D01*
X1306032Y854842D01*
X1306032Y825158D01*
X1304842Y823968D01*
X1275158Y823968D01*
G37*
G36*
X1365158Y823968D02*
X1363968Y825158D01*
X1363968Y854842D01*
X1365158Y856032D01*
X1394842Y856032D01*
X1396032Y854842D01*
X1396032Y825158D01*
X1394842Y823968D01*
X1365158Y823968D01*
G37*
G36*
X316146Y835920D02*
X312809Y837302D01*
X310254Y839857D01*
X308872Y843194D01*
X308872Y846806D01*
X310254Y850143D01*
X312809Y852698D01*
X316146Y854080D01*
X333854Y854080D01*
X337191Y852698D01*
X339746Y850143D01*
X341128Y846806D01*
X341128Y843194D01*
X339746Y839857D01*
X337191Y837302D01*
X333854Y835920D01*
X316146Y835920D01*
G37*
G36*
X273402Y811968D02*
X270450Y813191D01*
X268191Y815450D01*
X266968Y818402D01*
X266968Y821598D01*
X268191Y824550D01*
X270450Y826809D01*
X273402Y828032D01*
X276598Y828032D01*
X279550Y826809D01*
X281809Y824550D01*
X283032Y821598D01*
X283032Y818402D01*
X281809Y815450D01*
X279550Y813191D01*
X276598Y811968D01*
X273402Y811968D01*
G37*
G36*
X280762Y748062D02*
X280762Y757841D01*
X284366Y757841D01*
X290541Y751666D01*
X290541Y748062D01*
X280762Y748062D01*
G37*
G36*
X269459Y748062D02*
X269459Y751666D01*
X275634Y757841D01*
X279238Y757841D01*
X279238Y748062D01*
X269459Y748062D01*
G37*
G36*
X275634Y736759D02*
X269459Y742934D01*
X269459Y746538D01*
X279238Y746538D01*
X279238Y736759D01*
X275634Y736759D01*
G37*
G36*
X280762Y736759D02*
X280762Y746538D01*
X290541Y746538D01*
X290541Y742934D01*
X284366Y736759D01*
X280762Y736759D01*
G37*
G36*
X340585Y594224D02*
X336851Y595771D01*
X333993Y598629D01*
X332446Y602363D01*
X332446Y622661D01*
X333993Y626395D01*
X336851Y629253D01*
X340585Y630800D01*
X344627Y630800D01*
X348361Y629253D01*
X351219Y626395D01*
X352766Y622661D01*
X352766Y602363D01*
X351219Y598629D01*
X348361Y595771D01*
X344627Y594224D01*
X340585Y594224D01*
G37*
G36*
X295373Y594224D02*
X291639Y595771D01*
X288781Y598629D01*
X287234Y602363D01*
X287234Y622661D01*
X288781Y626395D01*
X291639Y629253D01*
X295373Y630800D01*
X299415Y630800D01*
X303149Y629253D01*
X306007Y626395D01*
X307554Y622661D01*
X307554Y602363D01*
X306007Y598629D01*
X303149Y595771D01*
X299415Y594224D01*
X295373Y594224D01*
G37*
G36*
X331938Y548250D02*
X331938Y557738D01*
X333562Y561659D01*
X336563Y564660D01*
X340484Y566284D01*
X341844Y566284D01*
X341844Y548250D01*
X331938Y548250D01*
G37*
G36*
X343368Y548250D02*
X343368Y566284D01*
X344728Y566284D01*
X348649Y564660D01*
X351650Y561659D01*
X353274Y557738D01*
X353274Y548250D01*
X343368Y548250D01*
G37*
G36*
X305658Y492468D02*
X304468Y493658D01*
X304468Y502122D01*
X304408Y502419D01*
X304245Y502661D01*
X294145Y512760D01*
X294145Y529199D01*
X294085Y529497D01*
X293914Y529747D01*
X293675Y529903D01*
X291639Y530747D01*
X288781Y533605D01*
X287234Y537339D01*
X287234Y557637D01*
X288781Y561371D01*
X291639Y564229D01*
X295373Y565776D01*
X299415Y565776D01*
X303149Y564229D01*
X306007Y561371D01*
X307554Y557637D01*
X307554Y537339D01*
X306007Y533605D01*
X303149Y530747D01*
X301113Y529903D01*
X300862Y529734D01*
X300696Y529480D01*
X300643Y529199D01*
X300643Y515767D01*
X300703Y515470D01*
X300866Y515228D01*
X308339Y507755D01*
X308592Y507588D01*
X308878Y507532D01*
X317342Y507532D01*
X318532Y506342D01*
X318532Y493658D01*
X317342Y492468D01*
X305658Y492468D01*
G37*
G36*
X343368Y528692D02*
X343368Y546726D01*
X353274Y546726D01*
X353274Y537238D01*
X351650Y533317D01*
X348649Y530316D01*
X344728Y528692D01*
X343368Y528692D01*
G37*
G36*
X340484Y528692D02*
X336563Y530316D01*
X333562Y533317D01*
X331938Y537238D01*
X331938Y546726D01*
X341844Y546726D01*
X341844Y528692D01*
X340484Y528692D01*
G37*
%LPD*%
G36*
X2382814Y846775D02*
X2383060Y846952D01*
X2383204Y847178D01*
X2383971Y849029D01*
X2385971Y851029D01*
X2386281Y851157D01*
X2386532Y851327D01*
X2386698Y851581D01*
X2386751Y851861D01*
X2386751Y981706D01*
X2386691Y982003D01*
X2386520Y982253D01*
X2386264Y982417D01*
X2385989Y982468D01*
X2378972Y982468D01*
X2378675Y982408D01*
X2378433Y982245D01*
X2374191Y978003D01*
X2358809Y978003D01*
X2350283Y986528D01*
X2350030Y986696D01*
X2349744Y986751D01*
X2337794Y986751D01*
X2337497Y986691D01*
X2337247Y986520D01*
X2337083Y986264D01*
X2337032Y985989D01*
X2337032Y985037D01*
X2334963Y982968D01*
X2325037Y982968D01*
X2322968Y985037D01*
X2322968Y994963D01*
X2325037Y997032D01*
X2334963Y997032D01*
X2337032Y994963D01*
X2337032Y994011D01*
X2337092Y993713D01*
X2337264Y993463D01*
X2337519Y993300D01*
X2337794Y993249D01*
X2352751Y993249D01*
X2357659Y988341D01*
X2357912Y988173D01*
X2358210Y988118D01*
X2358506Y988183D01*
X2358754Y988358D01*
X2358913Y988616D01*
X2358960Y988880D01*
X2358960Y989238D01*
X2374040Y989238D01*
X2374040Y988880D01*
X2374100Y988582D01*
X2374272Y988332D01*
X2374527Y988169D01*
X2374826Y988118D01*
X2375121Y988188D01*
X2375341Y988341D01*
X2376245Y989245D01*
X2376412Y989498D01*
X2376468Y989784D01*
X2376468Y996342D01*
X2377658Y997532D01*
X2389342Y997532D01*
X2390532Y996342D01*
X2390532Y988372D01*
X2390592Y988074D01*
X2390764Y987824D01*
X2391019Y987661D01*
X2391318Y987610D01*
X2391613Y987680D01*
X2391833Y987833D01*
X2394725Y990725D01*
X2394892Y990978D01*
X2394948Y991264D01*
X2394948Y1008529D01*
X2394888Y1008826D01*
X2394716Y1009077D01*
X2394461Y1009240D01*
X2394162Y1009291D01*
X2393867Y1009221D01*
X2393647Y1009068D01*
X2392973Y1008394D01*
X2389145Y1006808D01*
X2387836Y1006808D01*
X2387836Y1027636D01*
X2389145Y1027636D01*
X2392973Y1026051D01*
X2393647Y1025377D01*
X2393900Y1025209D01*
X2394198Y1025154D01*
X2394494Y1025219D01*
X2394742Y1025394D01*
X2394901Y1025652D01*
X2394948Y1025916D01*
X2394948Y1029450D01*
X2394888Y1029747D01*
X2394725Y1029989D01*
X2374549Y1050164D01*
X2374297Y1050332D01*
X2373999Y1050387D01*
X2373702Y1050322D01*
X2373455Y1050147D01*
X2373296Y1049889D01*
X2373249Y1049625D01*
X2373249Y1028654D01*
X2371346Y1026751D01*
X2367994Y1026751D01*
X2367697Y1026691D01*
X2367447Y1026520D01*
X2367283Y1026264D01*
X2367232Y1025965D01*
X2367302Y1025670D01*
X2367455Y1025451D01*
X2370072Y1022834D01*
X2371580Y1019193D01*
X2371580Y1015252D01*
X2370072Y1011611D01*
X2367285Y1008824D01*
X2363644Y1007316D01*
X2359704Y1007316D01*
X2356063Y1008824D01*
X2353276Y1011611D01*
X2351768Y1015252D01*
X2351768Y1019193D01*
X2353276Y1022834D01*
X2355893Y1025451D01*
X2356060Y1025703D01*
X2356116Y1026002D01*
X2356051Y1026298D01*
X2355876Y1026545D01*
X2355617Y1026704D01*
X2355354Y1026751D01*
X2342594Y1026751D01*
X2342297Y1026691D01*
X2342047Y1026520D01*
X2341883Y1026264D01*
X2341832Y1025965D01*
X2341902Y1025670D01*
X2342055Y1025451D01*
X2344672Y1022834D01*
X2346180Y1019193D01*
X2346180Y1015252D01*
X2344672Y1011611D01*
X2341885Y1008824D01*
X2338244Y1007316D01*
X2334304Y1007316D01*
X2330663Y1008824D01*
X2327876Y1011611D01*
X2326368Y1015252D01*
X2326368Y1019193D01*
X2327876Y1022834D01*
X2330493Y1025451D01*
X2330660Y1025703D01*
X2330716Y1026002D01*
X2330651Y1026298D01*
X2330476Y1026545D01*
X2330217Y1026704D01*
X2329954Y1026751D01*
X2317194Y1026751D01*
X2316897Y1026691D01*
X2316647Y1026520D01*
X2316483Y1026264D01*
X2316432Y1025965D01*
X2316502Y1025670D01*
X2316655Y1025451D01*
X2319272Y1022834D01*
X2320780Y1019193D01*
X2320780Y1015252D01*
X2319272Y1011611D01*
X2316485Y1008824D01*
X2312844Y1007316D01*
X2308904Y1007316D01*
X2305263Y1008824D01*
X2302476Y1011611D01*
X2300968Y1015252D01*
X2300968Y1019193D01*
X2302476Y1022834D01*
X2305093Y1025451D01*
X2305260Y1025703D01*
X2305316Y1026002D01*
X2305251Y1026298D01*
X2305076Y1026545D01*
X2304817Y1026704D01*
X2304554Y1026751D01*
X2291794Y1026751D01*
X2291497Y1026691D01*
X2291247Y1026520D01*
X2291083Y1026264D01*
X2291032Y1025965D01*
X2291102Y1025670D01*
X2291255Y1025451D01*
X2293872Y1022834D01*
X2295380Y1019193D01*
X2295380Y1015252D01*
X2293872Y1011611D01*
X2291085Y1008824D01*
X2287444Y1007316D01*
X2283504Y1007316D01*
X2279863Y1008824D01*
X2278901Y1009786D01*
X2278648Y1009954D01*
X2278350Y1010009D01*
X2278054Y1009944D01*
X2277806Y1009769D01*
X2277647Y1009511D01*
X2277600Y1009248D01*
X2277600Y992467D01*
X2277660Y992170D01*
X2277832Y991919D01*
X2278087Y991756D01*
X2278386Y991705D01*
X2278681Y991775D01*
X2278901Y991928D01*
X2280971Y993999D01*
X2283585Y995081D01*
X2286415Y995081D01*
X2289029Y993999D01*
X2289555Y993472D01*
X2289808Y993304D01*
X2290094Y993249D01*
X2297206Y993249D01*
X2297503Y993309D01*
X2297753Y993481D01*
X2297917Y993736D01*
X2297968Y994011D01*
X2297968Y994963D01*
X2300037Y997032D01*
X2309963Y997032D01*
X2312032Y994963D01*
X2312032Y985037D01*
X2309963Y982968D01*
X2300037Y982968D01*
X2297968Y985037D01*
X2297968Y985989D01*
X2297908Y986287D01*
X2297736Y986537D01*
X2297481Y986700D01*
X2297206Y986751D01*
X2292703Y986751D01*
X2292405Y986691D01*
X2292155Y986520D01*
X2291999Y986281D01*
X2291029Y983941D01*
X2289029Y981940D01*
X2286415Y980857D01*
X2283585Y980857D01*
X2280971Y981940D01*
X2278901Y984011D01*
X2278648Y984178D01*
X2278350Y984234D01*
X2278054Y984169D01*
X2277806Y983993D01*
X2277647Y983735D01*
X2277600Y983472D01*
X2277600Y947310D01*
X2277660Y947013D01*
X2277823Y946771D01*
X2372445Y852149D01*
X2372698Y851981D01*
X2372996Y851926D01*
X2373276Y851984D01*
X2373585Y852112D01*
X2376415Y852112D01*
X2379029Y851029D01*
X2381029Y849029D01*
X2381796Y847178D01*
X2381966Y846926D01*
X2382220Y846761D01*
X2382518Y846707D01*
X2382814Y846775D01*
G37*
%LPC*%
G36*
X2376660Y1017984D02*
X2376660Y1019294D01*
X2378245Y1023121D01*
X2381175Y1026051D01*
X2385003Y1027636D01*
X2386312Y1027636D01*
X2386312Y1017984D01*
X2376660Y1017984D01*
G37*
G36*
X2385003Y1006808D02*
X2381175Y1008394D01*
X2378245Y1011323D01*
X2376660Y1015151D01*
X2376660Y1016460D01*
X2386312Y1016460D01*
X2386312Y1006808D01*
X2385003Y1006808D01*
G37*
G36*
X2367262Y990762D02*
X2367262Y998040D01*
X2372552Y998040D01*
X2374040Y996552D01*
X2374040Y990762D01*
X2367262Y990762D01*
G37*
G36*
X2358960Y990762D02*
X2358960Y996552D01*
X2360448Y998040D01*
X2365738Y998040D01*
X2365738Y990762D01*
X2358960Y990762D01*
G37*
%LPD*%
G36*
X905337Y420060D02*
X905579Y420223D01*
X1211528Y726172D01*
X1211696Y726425D01*
X1211751Y726711D01*
X1211751Y783139D01*
X1211691Y783436D01*
X1211520Y783686D01*
X1211281Y783843D01*
X1210971Y783971D01*
X1208971Y785971D01*
X1207888Y788585D01*
X1207888Y791415D01*
X1208971Y794029D01*
X1210393Y795451D01*
X1210560Y795703D01*
X1210616Y796002D01*
X1210551Y796298D01*
X1210375Y796545D01*
X1210117Y796704D01*
X1209854Y796751D01*
X1185146Y796751D01*
X1184849Y796691D01*
X1184599Y796520D01*
X1184435Y796264D01*
X1184385Y795965D01*
X1184454Y795670D01*
X1184607Y795451D01*
X1186029Y794029D01*
X1187112Y791415D01*
X1187112Y788585D01*
X1186029Y785971D01*
X1184029Y783971D01*
X1183719Y783843D01*
X1183468Y783673D01*
X1183302Y783419D01*
X1183249Y783139D01*
X1183249Y748654D01*
X1007255Y572661D01*
X1007088Y572408D01*
X1007032Y572122D01*
X1007032Y565037D01*
X1004963Y562968D01*
X995037Y562968D01*
X992968Y565037D01*
X992968Y574963D01*
X995037Y577032D01*
X1002122Y577032D01*
X1002419Y577092D01*
X1002661Y577255D01*
X1176528Y751122D01*
X1176696Y751375D01*
X1176751Y751661D01*
X1176751Y783139D01*
X1176691Y783436D01*
X1176520Y783686D01*
X1176281Y783843D01*
X1175971Y783971D01*
X1173971Y785971D01*
X1173204Y787822D01*
X1173035Y788074D01*
X1172780Y788239D01*
X1172482Y788293D01*
X1172186Y788225D01*
X1171940Y788048D01*
X1171796Y787822D01*
X1171029Y785971D01*
X1169029Y783971D01*
X1168719Y783843D01*
X1168468Y783673D01*
X1168302Y783419D01*
X1168249Y783139D01*
X1168249Y753654D01*
X1151346Y736751D01*
X971661Y736751D01*
X971364Y736691D01*
X971122Y736528D01*
X807255Y572661D01*
X807088Y572408D01*
X807032Y572122D01*
X807032Y565037D01*
X804963Y562968D01*
X795037Y562968D01*
X792968Y565037D01*
X792968Y574963D01*
X795037Y577032D01*
X802122Y577032D01*
X802419Y577092D01*
X802661Y577255D01*
X965856Y740451D01*
X966024Y740703D01*
X966079Y741002D01*
X966014Y741298D01*
X965839Y741545D01*
X965581Y741704D01*
X965317Y741751D01*
X776661Y741751D01*
X776364Y741691D01*
X776122Y741528D01*
X607255Y572661D01*
X607088Y572408D01*
X607032Y572122D01*
X607032Y565037D01*
X604963Y562968D01*
X595037Y562968D01*
X592968Y565037D01*
X592968Y574963D01*
X595037Y577032D01*
X602122Y577032D01*
X602419Y577092D01*
X602661Y577255D01*
X773654Y748249D01*
X1124854Y748249D01*
X1125151Y748309D01*
X1125401Y748481D01*
X1125565Y748736D01*
X1125615Y749035D01*
X1125546Y749330D01*
X1125393Y749549D01*
X1123971Y750971D01*
X1123843Y751281D01*
X1123673Y751532D01*
X1123419Y751698D01*
X1123139Y751751D01*
X586661Y751751D01*
X586364Y751691D01*
X586122Y751528D01*
X407255Y572661D01*
X407088Y572408D01*
X407032Y572122D01*
X407032Y565037D01*
X404963Y562968D01*
X395037Y562968D01*
X392968Y565037D01*
X392968Y574963D01*
X395037Y577032D01*
X402122Y577032D01*
X402419Y577092D01*
X402661Y577255D01*
X583654Y758249D01*
X590565Y758249D01*
X590862Y758309D01*
X591112Y758481D01*
X591276Y758736D01*
X591327Y759035D01*
X591257Y759330D01*
X591078Y759575D01*
X590857Y759715D01*
X588719Y760600D01*
X585600Y763719D01*
X583912Y767794D01*
X583912Y769238D01*
X606088Y769238D01*
X606088Y767794D01*
X604400Y763719D01*
X601281Y760600D01*
X599143Y759715D01*
X598892Y759545D01*
X598726Y759291D01*
X598673Y758992D01*
X598741Y758697D01*
X598918Y758451D01*
X599177Y758294D01*
X599435Y758249D01*
X741893Y758249D01*
X742190Y758309D01*
X742440Y758481D01*
X742603Y758736D01*
X742654Y759035D01*
X742584Y759330D01*
X742405Y759575D01*
X742184Y759715D01*
X739007Y761031D01*
X736031Y764007D01*
X734420Y767896D01*
X734420Y772105D01*
X736031Y775993D01*
X739007Y778969D01*
X741281Y779911D01*
X741532Y780081D01*
X741698Y780335D01*
X741751Y780615D01*
X741751Y795989D01*
X741691Y796287D01*
X741520Y796537D01*
X741264Y796700D01*
X740989Y796751D01*
X710471Y796751D01*
X710173Y796691D01*
X709932Y796528D01*
X709796Y796392D01*
X576302Y796392D01*
X576005Y796332D01*
X575763Y796169D01*
X554803Y775209D01*
X554636Y774956D01*
X554580Y774658D01*
X554638Y774379D01*
X555580Y772105D01*
X555580Y767896D01*
X553969Y764007D01*
X550993Y761031D01*
X547105Y759420D01*
X542896Y759420D01*
X539007Y761031D01*
X536031Y764007D01*
X535089Y766281D01*
X534919Y766532D01*
X534665Y766698D01*
X534385Y766751D01*
X475154Y766751D01*
X444549Y797356D01*
X444297Y797524D01*
X443999Y797579D01*
X443702Y797514D01*
X443455Y797339D01*
X443296Y797081D01*
X443249Y796817D01*
X443249Y764361D01*
X443309Y764064D01*
X443472Y763822D01*
X444664Y762630D01*
X444917Y762463D01*
X445215Y762407D01*
X445511Y762472D01*
X445742Y762630D01*
X445844Y762733D01*
X454156Y762733D01*
X460033Y756856D01*
X460033Y748544D01*
X454156Y742667D01*
X445844Y742667D01*
X439967Y748544D01*
X439967Y748689D01*
X439907Y748987D01*
X439735Y749237D01*
X439480Y749400D01*
X439205Y749451D01*
X394392Y749451D01*
X394095Y749391D01*
X393845Y749220D01*
X393681Y748964D01*
X393646Y748777D01*
X392440Y747570D01*
X376160Y747570D01*
X374970Y748760D01*
X374970Y752889D01*
X374910Y753187D01*
X374738Y753437D01*
X374483Y753600D01*
X374208Y753651D01*
X353561Y753651D01*
X353264Y753591D01*
X353022Y753428D01*
X348472Y748878D01*
X348304Y748625D01*
X348249Y748339D01*
X348249Y656661D01*
X348309Y656364D01*
X348472Y656122D01*
X368249Y636346D01*
X368249Y528654D01*
X351346Y511751D01*
X334011Y511751D01*
X333713Y511691D01*
X333463Y511520D01*
X333300Y511264D01*
X333249Y510989D01*
X333249Y508294D01*
X333309Y507997D01*
X333481Y507747D01*
X333736Y507583D01*
X334011Y507532D01*
X334342Y507532D01*
X335532Y506342D01*
X335532Y504011D01*
X335592Y503713D01*
X335764Y503463D01*
X336019Y503300D01*
X336294Y503249D01*
X491346Y503249D01*
X506122Y488472D01*
X506375Y488304D01*
X506661Y488249D01*
X533817Y488249D01*
X534115Y488309D01*
X534365Y488481D01*
X534528Y488736D01*
X534579Y489035D01*
X534509Y489330D01*
X534356Y489549D01*
X531661Y492245D01*
X531408Y492412D01*
X531122Y492468D01*
X522658Y492468D01*
X521468Y493658D01*
X521468Y506342D01*
X522658Y507532D01*
X534342Y507532D01*
X535532Y506342D01*
X535532Y497878D01*
X535592Y497581D01*
X535755Y497339D01*
X543249Y489846D01*
X543249Y489011D01*
X543309Y488713D01*
X543481Y488463D01*
X543736Y488300D01*
X544011Y488249D01*
X740317Y488249D01*
X740615Y488309D01*
X740865Y488481D01*
X741028Y488736D01*
X741079Y489035D01*
X741009Y489330D01*
X740856Y489549D01*
X736679Y493727D01*
X736426Y493895D01*
X736128Y493950D01*
X735831Y493885D01*
X735601Y493727D01*
X734342Y492468D01*
X722658Y492468D01*
X721468Y493658D01*
X721468Y506342D01*
X722658Y507532D01*
X734342Y507532D01*
X735532Y506342D01*
X735532Y504011D01*
X735592Y503713D01*
X735764Y503463D01*
X736019Y503300D01*
X736294Y503249D01*
X736346Y503249D01*
X751122Y488472D01*
X751375Y488304D01*
X751661Y488249D01*
X911839Y488249D01*
X912136Y488309D01*
X912378Y488472D01*
X915073Y491167D01*
X915240Y491420D01*
X915296Y491718D01*
X915231Y492014D01*
X915055Y492262D01*
X914797Y492421D01*
X914534Y492468D01*
X905658Y492468D01*
X904468Y493658D01*
X904468Y502122D01*
X904408Y502419D01*
X904245Y502661D01*
X894145Y512760D01*
X894145Y529199D01*
X894085Y529497D01*
X893914Y529747D01*
X893675Y529903D01*
X891639Y530747D01*
X890226Y532160D01*
X889973Y532327D01*
X889675Y532383D01*
X889379Y532318D01*
X889148Y532160D01*
X868740Y511751D01*
X783654Y511751D01*
X776751Y518654D01*
X776751Y576346D01*
X846528Y646122D01*
X846696Y646375D01*
X846751Y646661D01*
X846751Y723139D01*
X846691Y723436D01*
X846520Y723686D01*
X846281Y723843D01*
X845971Y723971D01*
X843971Y725971D01*
X842888Y728585D01*
X842888Y731415D01*
X843971Y734029D01*
X845971Y736029D01*
X848585Y737112D01*
X851415Y737112D01*
X854029Y736029D01*
X856029Y734029D01*
X857112Y731415D01*
X857112Y728585D01*
X856029Y725971D01*
X854029Y723971D01*
X853719Y723843D01*
X853468Y723673D01*
X853302Y723419D01*
X853249Y723139D01*
X853249Y643654D01*
X783472Y573878D01*
X783304Y573625D01*
X783249Y573339D01*
X783249Y521661D01*
X783309Y521364D01*
X783472Y521122D01*
X786122Y518472D01*
X786375Y518304D01*
X786661Y518249D01*
X865733Y518249D01*
X866030Y518309D01*
X866272Y518472D01*
X887011Y539211D01*
X887178Y539464D01*
X887234Y539750D01*
X887234Y557637D01*
X888781Y561371D01*
X891639Y564229D01*
X895373Y565776D01*
X899415Y565776D01*
X903149Y564229D01*
X906007Y561371D01*
X907554Y557637D01*
X907554Y537339D01*
X906007Y533605D01*
X903149Y530747D01*
X901113Y529903D01*
X900862Y529734D01*
X900696Y529480D01*
X900643Y529199D01*
X900643Y515767D01*
X900703Y515470D01*
X900866Y515228D01*
X908339Y507755D01*
X908592Y507588D01*
X908878Y507532D01*
X917342Y507532D01*
X918532Y506342D01*
X918532Y496466D01*
X918592Y496169D01*
X918764Y495919D01*
X919019Y495755D01*
X919318Y495704D01*
X919613Y495774D01*
X919833Y495927D01*
X921245Y497339D01*
X921412Y497592D01*
X921468Y497878D01*
X921468Y506342D01*
X922658Y507532D01*
X934342Y507532D01*
X935532Y506342D01*
X935532Y493658D01*
X934342Y492468D01*
X925878Y492468D01*
X925581Y492408D01*
X925339Y492245D01*
X911876Y478782D01*
X788692Y478782D01*
X788395Y478722D01*
X788153Y478559D01*
X763472Y453878D01*
X763304Y453625D01*
X763249Y453339D01*
X763249Y420762D01*
X763309Y420465D01*
X763481Y420215D01*
X763736Y420051D01*
X764011Y420000D01*
X905040Y420000D01*
X905337Y420060D01*
G37*
%LPC*%
G36*
X595762Y770762D02*
X595762Y781088D01*
X597206Y781088D01*
X601281Y779400D01*
X604400Y776281D01*
X606088Y772206D01*
X606088Y770762D01*
X595762Y770762D01*
G37*
G36*
X583912Y770762D02*
X583912Y772206D01*
X585600Y776281D01*
X588719Y779400D01*
X592794Y781088D01*
X594238Y781088D01*
X594238Y770762D01*
X583912Y770762D01*
G37*
G36*
X567896Y759420D02*
X564007Y761031D01*
X561031Y764007D01*
X559420Y767896D01*
X559420Y772105D01*
X561031Y775993D01*
X564007Y778969D01*
X567896Y780580D01*
X572105Y780580D01*
X575993Y778969D01*
X578969Y775993D01*
X580580Y772105D01*
X580580Y767896D01*
X578969Y764007D01*
X575993Y761031D01*
X572105Y759420D01*
X567896Y759420D01*
G37*
G36*
X385062Y732262D02*
X385062Y741338D01*
X386257Y741338D01*
X389873Y739840D01*
X392640Y737073D01*
X394138Y733457D01*
X394138Y732262D01*
X385062Y732262D01*
G37*
G36*
X374462Y732262D02*
X374462Y733457D01*
X375960Y737073D01*
X378727Y739840D01*
X382343Y741338D01*
X383538Y741338D01*
X383538Y732262D01*
X374462Y732262D01*
G37*
G36*
X450762Y728062D02*
X450762Y737841D01*
X454366Y737841D01*
X460541Y731666D01*
X460541Y728062D01*
X450762Y728062D01*
G37*
G36*
X439459Y728062D02*
X439459Y731666D01*
X445634Y737841D01*
X449238Y737841D01*
X449238Y728062D01*
X439459Y728062D01*
G37*
G36*
X382343Y721662D02*
X378727Y723160D01*
X375960Y725927D01*
X374462Y729543D01*
X374462Y730738D01*
X383538Y730738D01*
X383538Y721662D01*
X382343Y721662D01*
G37*
G36*
X385062Y721662D02*
X385062Y730738D01*
X394138Y730738D01*
X394138Y729543D01*
X392640Y725927D01*
X389873Y723160D01*
X386257Y721662D01*
X385062Y721662D01*
G37*
G36*
X445634Y716759D02*
X439459Y722934D01*
X439459Y726538D01*
X449238Y726538D01*
X449238Y716759D01*
X445634Y716759D01*
G37*
G36*
X450762Y716759D02*
X450762Y726538D01*
X460541Y726538D01*
X460541Y722934D01*
X454366Y716759D01*
X450762Y716759D01*
G37*
G36*
X540585Y594224D02*
X536851Y595771D01*
X533993Y598629D01*
X532446Y602363D01*
X532446Y622661D01*
X533993Y626395D01*
X536851Y629253D01*
X540585Y630800D01*
X544627Y630800D01*
X548361Y629253D01*
X551219Y626395D01*
X552766Y622661D01*
X552766Y602363D01*
X551219Y598629D01*
X548361Y595771D01*
X544627Y594224D01*
X540585Y594224D01*
G37*
G36*
X940585Y594224D02*
X936851Y595771D01*
X933993Y598629D01*
X932446Y602363D01*
X932446Y622661D01*
X933993Y626395D01*
X936851Y629253D01*
X940585Y630800D01*
X944627Y630800D01*
X948361Y629253D01*
X951219Y626395D01*
X952766Y622661D01*
X952766Y602363D01*
X951219Y598629D01*
X948361Y595771D01*
X944627Y594224D01*
X940585Y594224D01*
G37*
G36*
X895373Y594224D02*
X891639Y595771D01*
X888781Y598629D01*
X887234Y602363D01*
X887234Y622661D01*
X888781Y626395D01*
X891639Y629253D01*
X895373Y630800D01*
X899415Y630800D01*
X903149Y629253D01*
X906007Y626395D01*
X907554Y622661D01*
X907554Y602363D01*
X906007Y598629D01*
X903149Y595771D01*
X899415Y594224D01*
X895373Y594224D01*
G37*
G36*
X740585Y594224D02*
X736851Y595771D01*
X733993Y598629D01*
X732446Y602363D01*
X732446Y622661D01*
X733993Y626395D01*
X736851Y629253D01*
X740585Y630800D01*
X744627Y630800D01*
X748361Y629253D01*
X751219Y626395D01*
X752766Y622661D01*
X752766Y602363D01*
X751219Y598629D01*
X748361Y595771D01*
X744627Y594224D01*
X740585Y594224D01*
G37*
G36*
X695373Y594224D02*
X691639Y595771D01*
X688781Y598629D01*
X687234Y602363D01*
X687234Y622661D01*
X688781Y626395D01*
X691639Y629253D01*
X695373Y630800D01*
X699415Y630800D01*
X703149Y629253D01*
X706007Y626395D01*
X707554Y622661D01*
X707554Y602363D01*
X706007Y598629D01*
X703149Y595771D01*
X699415Y594224D01*
X695373Y594224D01*
G37*
G36*
X495373Y594224D02*
X491639Y595771D01*
X488781Y598629D01*
X487234Y602363D01*
X487234Y622661D01*
X488781Y626395D01*
X491639Y629253D01*
X495373Y630800D01*
X499415Y630800D01*
X503149Y629253D01*
X506007Y626395D01*
X507554Y622661D01*
X507554Y602363D01*
X506007Y598629D01*
X503149Y595771D01*
X499415Y594224D01*
X495373Y594224D01*
G37*
G36*
X412658Y542468D02*
X411468Y543658D01*
X411468Y556342D01*
X412658Y557532D01*
X420989Y557532D01*
X421287Y557592D01*
X421537Y557764D01*
X421700Y558019D01*
X421751Y558294D01*
X421751Y562206D01*
X421691Y562503D01*
X421520Y562753D01*
X421264Y562917D01*
X420989Y562968D01*
X420037Y562968D01*
X417968Y565037D01*
X417968Y574963D01*
X420037Y577032D01*
X429963Y577032D01*
X432032Y574963D01*
X432032Y565037D01*
X429963Y562968D01*
X429011Y562968D01*
X428713Y562908D01*
X428463Y562736D01*
X428300Y562481D01*
X428249Y562206D01*
X428249Y555154D01*
X425755Y552661D01*
X425588Y552408D01*
X425532Y552122D01*
X425532Y543658D01*
X424342Y542468D01*
X412658Y542468D01*
G37*
G36*
X612658Y542468D02*
X611468Y543658D01*
X611468Y556342D01*
X612658Y557532D01*
X620989Y557532D01*
X621287Y557592D01*
X621537Y557764D01*
X621700Y558019D01*
X621751Y558294D01*
X621751Y562206D01*
X621691Y562503D01*
X621520Y562753D01*
X621264Y562917D01*
X620989Y562968D01*
X620037Y562968D01*
X617968Y565037D01*
X617968Y574963D01*
X620037Y577032D01*
X629963Y577032D01*
X632032Y574963D01*
X632032Y565037D01*
X629963Y562968D01*
X629011Y562968D01*
X628713Y562908D01*
X628463Y562736D01*
X628300Y562481D01*
X628249Y562206D01*
X628249Y555154D01*
X625755Y552661D01*
X625588Y552408D01*
X625532Y552122D01*
X625532Y543658D01*
X624342Y542468D01*
X612658Y542468D01*
G37*
G36*
X812658Y542468D02*
X811468Y543658D01*
X811468Y556342D01*
X812658Y557532D01*
X820989Y557532D01*
X821287Y557592D01*
X821537Y557764D01*
X821700Y558019D01*
X821751Y558294D01*
X821751Y562206D01*
X821691Y562503D01*
X821520Y562753D01*
X821264Y562917D01*
X820989Y562968D01*
X820037Y562968D01*
X817968Y565037D01*
X817968Y574963D01*
X820037Y577032D01*
X829963Y577032D01*
X832032Y574963D01*
X832032Y565037D01*
X829963Y562968D01*
X829011Y562968D01*
X828713Y562908D01*
X828463Y562736D01*
X828300Y562481D01*
X828249Y562206D01*
X828249Y555154D01*
X825755Y552661D01*
X825588Y552408D01*
X825532Y552122D01*
X825532Y543658D01*
X824342Y542468D01*
X812658Y542468D01*
G37*
G36*
X1012658Y542468D02*
X1011468Y543658D01*
X1011468Y556342D01*
X1012658Y557532D01*
X1020989Y557532D01*
X1021287Y557592D01*
X1021537Y557764D01*
X1021700Y558019D01*
X1021751Y558294D01*
X1021751Y562206D01*
X1021691Y562503D01*
X1021520Y562753D01*
X1021264Y562917D01*
X1020989Y562968D01*
X1020037Y562968D01*
X1017968Y565037D01*
X1017968Y574963D01*
X1020037Y577032D01*
X1029963Y577032D01*
X1032032Y574963D01*
X1032032Y565037D01*
X1029963Y562968D01*
X1029011Y562968D01*
X1028713Y562908D01*
X1028463Y562736D01*
X1028300Y562481D01*
X1028249Y562206D01*
X1028249Y555154D01*
X1025755Y552661D01*
X1025588Y552408D01*
X1025532Y552122D01*
X1025532Y543658D01*
X1024342Y542468D01*
X1012658Y542468D01*
G37*
G36*
X931938Y548250D02*
X931938Y557738D01*
X933562Y561659D01*
X936563Y564660D01*
X940484Y566284D01*
X941844Y566284D01*
X941844Y548250D01*
X931938Y548250D01*
G37*
G36*
X531938Y548250D02*
X531938Y557738D01*
X533562Y561659D01*
X536563Y564660D01*
X540484Y566284D01*
X541844Y566284D01*
X541844Y548250D01*
X531938Y548250D01*
G37*
G36*
X731938Y548250D02*
X731938Y557738D01*
X733562Y561659D01*
X736563Y564660D01*
X740484Y566284D01*
X741844Y566284D01*
X741844Y548250D01*
X731938Y548250D01*
G37*
G36*
X743368Y548250D02*
X743368Y566284D01*
X744728Y566284D01*
X748649Y564660D01*
X751650Y561659D01*
X753274Y557738D01*
X753274Y548250D01*
X743368Y548250D01*
G37*
G36*
X943368Y548250D02*
X943368Y566284D01*
X944728Y566284D01*
X948649Y564660D01*
X951650Y561659D01*
X953274Y557738D01*
X953274Y548250D01*
X943368Y548250D01*
G37*
G36*
X543368Y548250D02*
X543368Y566284D01*
X544728Y566284D01*
X548649Y564660D01*
X551650Y561659D01*
X553274Y557738D01*
X553274Y548250D01*
X543368Y548250D01*
G37*
G36*
X505658Y492468D02*
X504468Y493658D01*
X504468Y502122D01*
X504408Y502419D01*
X504245Y502661D01*
X494145Y512760D01*
X494145Y529199D01*
X494085Y529497D01*
X493914Y529747D01*
X493675Y529903D01*
X491639Y530747D01*
X488781Y533605D01*
X487234Y537339D01*
X487234Y557637D01*
X488781Y561371D01*
X491639Y564229D01*
X495373Y565776D01*
X499415Y565776D01*
X503149Y564229D01*
X506007Y561371D01*
X507554Y557637D01*
X507554Y537339D01*
X506007Y533605D01*
X503149Y530747D01*
X501113Y529903D01*
X500862Y529734D01*
X500696Y529480D01*
X500643Y529199D01*
X500643Y515767D01*
X500703Y515470D01*
X500866Y515228D01*
X508339Y507755D01*
X508592Y507588D01*
X508878Y507532D01*
X517342Y507532D01*
X518532Y506342D01*
X518532Y493658D01*
X517342Y492468D01*
X505658Y492468D01*
G37*
G36*
X705658Y492468D02*
X704468Y493658D01*
X704468Y502122D01*
X704408Y502419D01*
X704245Y502661D01*
X694145Y512760D01*
X694145Y529199D01*
X694085Y529497D01*
X693914Y529747D01*
X693675Y529903D01*
X691639Y530747D01*
X688781Y533605D01*
X687234Y537339D01*
X687234Y557637D01*
X688781Y561371D01*
X691639Y564229D01*
X695373Y565776D01*
X699415Y565776D01*
X703149Y564229D01*
X706007Y561371D01*
X707554Y557637D01*
X707554Y537339D01*
X706007Y533605D01*
X703149Y530747D01*
X701113Y529903D01*
X700862Y529734D01*
X700696Y529480D01*
X700643Y529199D01*
X700643Y515767D01*
X700703Y515470D01*
X700866Y515228D01*
X708339Y507755D01*
X708592Y507588D01*
X708878Y507532D01*
X717342Y507532D01*
X718532Y506342D01*
X718532Y493658D01*
X717342Y492468D01*
X705658Y492468D01*
G37*
G36*
X593960Y550762D02*
X593960Y556552D01*
X595448Y558040D01*
X600738Y558040D01*
X600738Y550762D01*
X593960Y550762D01*
G37*
G36*
X393960Y550762D02*
X393960Y556552D01*
X395448Y558040D01*
X400738Y558040D01*
X400738Y550762D01*
X393960Y550762D01*
G37*
G36*
X793960Y550762D02*
X793960Y556552D01*
X795448Y558040D01*
X800738Y558040D01*
X800738Y550762D01*
X793960Y550762D01*
G37*
G36*
X993960Y550762D02*
X993960Y556552D01*
X995448Y558040D01*
X1000738Y558040D01*
X1000738Y550762D01*
X993960Y550762D01*
G37*
G36*
X1002262Y550762D02*
X1002262Y558040D01*
X1007552Y558040D01*
X1009040Y556552D01*
X1009040Y550762D01*
X1002262Y550762D01*
G37*
G36*
X802262Y550762D02*
X802262Y558040D01*
X807552Y558040D01*
X809040Y556552D01*
X809040Y550762D01*
X802262Y550762D01*
G37*
G36*
X402262Y550762D02*
X402262Y558040D01*
X407552Y558040D01*
X409040Y556552D01*
X409040Y550762D01*
X402262Y550762D01*
G37*
G36*
X602262Y550762D02*
X602262Y558040D01*
X607552Y558040D01*
X609040Y556552D01*
X609040Y550762D01*
X602262Y550762D01*
G37*
G36*
X602262Y541960D02*
X602262Y549238D01*
X609040Y549238D01*
X609040Y543448D01*
X607552Y541960D01*
X602262Y541960D01*
G37*
G36*
X795448Y541960D02*
X793960Y543448D01*
X793960Y549238D01*
X800738Y549238D01*
X800738Y541960D01*
X795448Y541960D01*
G37*
G36*
X802262Y541960D02*
X802262Y549238D01*
X809040Y549238D01*
X809040Y543448D01*
X807552Y541960D01*
X802262Y541960D01*
G37*
G36*
X1002262Y541960D02*
X1002262Y549238D01*
X1009040Y549238D01*
X1009040Y543448D01*
X1007552Y541960D01*
X1002262Y541960D01*
G37*
G36*
X995448Y541960D02*
X993960Y543448D01*
X993960Y549238D01*
X1000738Y549238D01*
X1000738Y541960D01*
X995448Y541960D01*
G37*
G36*
X595448Y541960D02*
X593960Y543448D01*
X593960Y549238D01*
X600738Y549238D01*
X600738Y541960D01*
X595448Y541960D01*
G37*
G36*
X402262Y541960D02*
X402262Y549238D01*
X409040Y549238D01*
X409040Y543448D01*
X407552Y541960D01*
X402262Y541960D01*
G37*
G36*
X395448Y541960D02*
X393960Y543448D01*
X393960Y549238D01*
X400738Y549238D01*
X400738Y541960D01*
X395448Y541960D01*
G37*
G36*
X943368Y528692D02*
X943368Y546726D01*
X953274Y546726D01*
X953274Y537238D01*
X951650Y533317D01*
X948649Y530316D01*
X944728Y528692D01*
X943368Y528692D01*
G37*
G36*
X940484Y528692D02*
X936563Y530316D01*
X933562Y533317D01*
X931938Y537238D01*
X931938Y546726D01*
X941844Y546726D01*
X941844Y528692D01*
X940484Y528692D01*
G37*
G36*
X743368Y528692D02*
X743368Y546726D01*
X753274Y546726D01*
X753274Y537238D01*
X751650Y533317D01*
X748649Y530316D01*
X744728Y528692D01*
X743368Y528692D01*
G37*
G36*
X740484Y528692D02*
X736563Y530316D01*
X733562Y533317D01*
X731938Y537238D01*
X731938Y546726D01*
X741844Y546726D01*
X741844Y528692D01*
X740484Y528692D01*
G37*
G36*
X543368Y528692D02*
X543368Y546726D01*
X553274Y546726D01*
X553274Y537238D01*
X551650Y533317D01*
X548649Y530316D01*
X544728Y528692D01*
X543368Y528692D01*
G37*
G36*
X540484Y528692D02*
X536563Y530316D01*
X533562Y533317D01*
X531938Y537238D01*
X531938Y546726D01*
X541844Y546726D01*
X541844Y528692D01*
X540484Y528692D01*
G37*
%LPD*%
G36*
X767190Y758309D02*
X767440Y758481D01*
X767603Y758736D01*
X767654Y759035D01*
X767584Y759330D01*
X767405Y759575D01*
X767184Y759715D01*
X764007Y761031D01*
X761031Y764007D01*
X759420Y767896D01*
X759420Y772105D01*
X761031Y775993D01*
X764007Y778969D01*
X767896Y780580D01*
X772105Y780580D01*
X775993Y778969D01*
X778969Y775993D01*
X780580Y772105D01*
X780580Y767896D01*
X778969Y764007D01*
X775993Y761031D01*
X772816Y759715D01*
X772564Y759545D01*
X772399Y759291D01*
X772346Y758992D01*
X772413Y758697D01*
X772591Y758451D01*
X772850Y758294D01*
X773107Y758249D01*
X790565Y758249D01*
X790862Y758309D01*
X791112Y758481D01*
X791276Y758736D01*
X791327Y759035D01*
X791257Y759330D01*
X791078Y759575D01*
X790857Y759715D01*
X788719Y760600D01*
X785600Y763719D01*
X783912Y767794D01*
X783912Y769238D01*
X806088Y769238D01*
X806088Y767794D01*
X804400Y763719D01*
X801281Y760600D01*
X799143Y759715D01*
X798892Y759545D01*
X798726Y759291D01*
X798673Y758992D01*
X798741Y758697D01*
X798918Y758451D01*
X799177Y758294D01*
X799435Y758249D01*
X941893Y758249D01*
X942190Y758309D01*
X942440Y758481D01*
X942603Y758736D01*
X942654Y759035D01*
X942584Y759330D01*
X942405Y759575D01*
X942184Y759715D01*
X939007Y761031D01*
X936031Y764007D01*
X934420Y767896D01*
X934420Y772105D01*
X936031Y775993D01*
X939007Y778969D01*
X941281Y779911D01*
X941532Y780081D01*
X941698Y780335D01*
X941751Y780615D01*
X941751Y786346D01*
X950856Y795451D01*
X951024Y795703D01*
X951079Y796002D01*
X951014Y796298D01*
X950839Y796545D01*
X950581Y796704D01*
X950317Y796751D01*
X751661Y796751D01*
X751364Y796691D01*
X751122Y796528D01*
X748472Y793878D01*
X748304Y793625D01*
X748249Y793339D01*
X748249Y780615D01*
X748309Y780318D01*
X748481Y780068D01*
X748719Y779911D01*
X750993Y778969D01*
X753969Y775993D01*
X755580Y772105D01*
X755580Y767896D01*
X753969Y764007D01*
X750993Y761031D01*
X747816Y759715D01*
X747564Y759545D01*
X747399Y759291D01*
X747346Y758992D01*
X747413Y758697D01*
X747591Y758451D01*
X747850Y758294D01*
X748107Y758249D01*
X766893Y758249D01*
X767190Y758309D01*
G37*
%LPC*%
G36*
X795762Y770762D02*
X795762Y781088D01*
X797206Y781088D01*
X801281Y779400D01*
X804400Y776281D01*
X806088Y772206D01*
X806088Y770762D01*
X795762Y770762D01*
G37*
G36*
X783912Y770762D02*
X783912Y772206D01*
X785600Y776281D01*
X788719Y779400D01*
X792794Y781088D01*
X794238Y781088D01*
X794238Y770762D01*
X783912Y770762D01*
G37*
%LPD*%
G36*
X1195387Y420060D02*
X1195629Y420223D01*
X1233654Y458249D01*
X1275989Y458249D01*
X1276287Y458309D01*
X1276537Y458481D01*
X1276700Y458736D01*
X1276751Y459011D01*
X1276751Y487846D01*
X1280073Y491167D01*
X1280240Y491420D01*
X1280296Y491718D01*
X1280231Y492014D01*
X1280055Y492262D01*
X1279797Y492421D01*
X1279534Y492468D01*
X1270658Y492468D01*
X1269468Y493658D01*
X1269468Y506342D01*
X1270658Y507532D01*
X1272489Y507532D01*
X1272787Y507592D01*
X1273037Y507764D01*
X1273200Y508019D01*
X1273251Y508294D01*
X1273251Y531721D01*
X1273191Y532018D01*
X1273028Y532260D01*
X1271884Y533404D01*
X1271631Y533571D01*
X1271333Y533627D01*
X1271037Y533562D01*
X1270806Y533404D01*
X1268149Y530747D01*
X1264415Y529200D01*
X1260373Y529200D01*
X1256639Y530747D01*
X1253781Y533605D01*
X1252234Y537339D01*
X1252234Y557637D01*
X1253781Y561371D01*
X1256639Y564229D01*
X1260373Y565776D01*
X1264415Y565776D01*
X1268149Y564229D01*
X1270806Y561572D01*
X1271059Y561405D01*
X1271357Y561349D01*
X1271653Y561414D01*
X1271884Y561572D01*
X1288560Y578249D01*
X1348339Y578249D01*
X1348636Y578309D01*
X1348878Y578472D01*
X1378654Y608249D01*
X1548339Y608249D01*
X1548636Y608309D01*
X1548878Y608472D01*
X1648654Y708249D01*
X1928139Y708249D01*
X1928436Y708309D01*
X1928686Y708481D01*
X1928843Y708719D01*
X1928971Y709029D01*
X1930971Y711029D01*
X1933585Y712112D01*
X1936415Y712112D01*
X1939029Y711029D01*
X1941029Y709029D01*
X1942112Y706415D01*
X1942112Y703585D01*
X1941029Y700971D01*
X1939607Y699549D01*
X1939440Y699297D01*
X1939384Y698999D01*
X1939449Y698702D01*
X1939625Y698455D01*
X1939883Y698296D01*
X1940146Y698249D01*
X1954854Y698249D01*
X1955151Y698309D01*
X1955401Y698481D01*
X1955565Y698736D01*
X1955615Y699035D01*
X1955546Y699330D01*
X1955393Y699549D01*
X1953971Y700971D01*
X1952888Y703585D01*
X1952888Y706415D01*
X1953016Y706724D01*
X1953074Y707022D01*
X1953011Y707319D01*
X1952851Y707555D01*
X1891751Y768654D01*
X1891751Y778139D01*
X1891691Y778436D01*
X1891520Y778686D01*
X1891281Y778843D01*
X1890971Y778971D01*
X1888971Y780971D01*
X1888204Y782822D01*
X1888035Y783074D01*
X1887780Y783239D01*
X1887482Y783293D01*
X1887186Y783225D01*
X1886940Y783048D01*
X1886796Y782822D01*
X1886029Y780971D01*
X1884029Y778971D01*
X1881415Y777888D01*
X1878585Y777888D01*
X1878276Y778016D01*
X1877978Y778074D01*
X1877681Y778011D01*
X1877445Y777851D01*
X1866346Y766751D01*
X1823110Y766751D01*
X1822812Y766691D01*
X1822571Y766528D01*
X1815269Y759226D01*
X1815101Y758973D01*
X1815065Y758788D01*
X1806232Y749955D01*
X1788768Y749955D01*
X1774881Y763841D01*
X1774628Y764009D01*
X1774330Y764064D01*
X1774034Y763999D01*
X1773804Y763841D01*
X1770993Y761031D01*
X1767105Y759420D01*
X1762896Y759420D01*
X1759007Y761031D01*
X1756031Y764007D01*
X1754420Y767896D01*
X1754420Y772105D01*
X1756031Y775993D01*
X1759007Y778969D01*
X1762896Y780580D01*
X1767105Y780580D01*
X1770993Y778969D01*
X1773969Y775993D01*
X1775362Y772632D01*
X1775527Y772384D01*
X1777611Y770300D01*
X1777864Y770133D01*
X1778162Y770077D01*
X1778458Y770142D01*
X1778706Y770318D01*
X1778865Y770576D01*
X1778912Y770839D01*
X1778912Y772206D01*
X1780600Y776281D01*
X1783719Y779400D01*
X1787794Y781088D01*
X1789238Y781088D01*
X1789238Y769238D01*
X1801088Y769238D01*
X1801088Y767794D01*
X1799400Y763719D01*
X1796281Y760600D01*
X1792206Y758912D01*
X1790839Y758912D01*
X1790542Y758852D01*
X1790292Y758680D01*
X1790128Y758425D01*
X1790077Y758126D01*
X1790147Y757831D01*
X1790300Y757611D01*
X1791236Y756675D01*
X1791489Y756508D01*
X1791775Y756452D01*
X1803225Y756452D01*
X1803522Y756512D01*
X1803764Y756675D01*
X1808325Y761236D01*
X1808492Y761489D01*
X1808528Y761674D01*
X1820103Y773249D01*
X1863339Y773249D01*
X1863636Y773309D01*
X1863878Y773472D01*
X1872851Y782445D01*
X1873019Y782698D01*
X1873074Y782996D01*
X1873016Y783276D01*
X1872888Y783585D01*
X1872888Y786415D01*
X1873971Y789029D01*
X1875971Y791029D01*
X1878585Y792112D01*
X1881415Y792112D01*
X1884029Y791029D01*
X1886029Y789029D01*
X1886796Y787178D01*
X1886966Y786926D01*
X1887220Y786761D01*
X1887518Y786707D01*
X1887814Y786775D01*
X1888060Y786952D01*
X1888204Y787178D01*
X1888971Y789029D01*
X1890971Y791029D01*
X1893585Y792112D01*
X1896415Y792112D01*
X1899029Y791029D01*
X1901029Y789029D01*
X1901796Y787178D01*
X1901966Y786926D01*
X1902220Y786761D01*
X1902518Y786707D01*
X1902814Y786775D01*
X1903060Y786952D01*
X1903204Y787178D01*
X1903971Y789029D01*
X1905971Y791029D01*
X1908585Y792112D01*
X1911415Y792112D01*
X1914029Y791029D01*
X1916029Y789029D01*
X1917112Y786415D01*
X1917112Y783585D01*
X1916774Y782770D01*
X1916716Y782472D01*
X1916779Y782175D01*
X1916952Y781927D01*
X1917209Y781765D01*
X1917509Y781717D01*
X1917770Y781774D01*
X1918585Y782112D01*
X1920327Y782112D01*
X1920624Y782172D01*
X1920875Y782344D01*
X1921038Y782599D01*
X1921089Y782898D01*
X1921031Y783166D01*
X1920857Y783585D01*
X1920857Y786415D01*
X1921940Y789029D01*
X1923941Y791029D01*
X1926555Y792112D01*
X1929384Y792112D01*
X1931998Y791029D01*
X1933999Y789029D01*
X1934127Y788719D01*
X1934296Y788468D01*
X1934550Y788302D01*
X1934831Y788249D01*
X2062126Y788249D01*
X2062423Y788309D01*
X2062673Y788481D01*
X2062837Y788736D01*
X2062888Y789011D01*
X2062888Y791415D01*
X2063971Y794029D01*
X2065393Y795451D01*
X2065560Y795703D01*
X2065616Y796002D01*
X2065551Y796298D01*
X2065375Y796545D01*
X2065117Y796704D01*
X2064854Y796751D01*
X1751661Y796751D01*
X1751364Y796691D01*
X1751122Y796528D01*
X1743472Y788878D01*
X1743304Y788625D01*
X1743249Y788339D01*
X1743249Y780615D01*
X1743309Y780318D01*
X1743481Y780068D01*
X1743719Y779911D01*
X1745993Y778969D01*
X1748969Y775993D01*
X1750580Y772105D01*
X1750580Y767896D01*
X1748969Y764007D01*
X1745993Y761031D01*
X1742105Y759420D01*
X1737896Y759420D01*
X1734007Y761031D01*
X1731031Y764007D01*
X1729420Y767896D01*
X1729420Y772105D01*
X1731031Y775993D01*
X1734007Y778969D01*
X1736281Y779911D01*
X1736532Y780081D01*
X1736698Y780335D01*
X1736751Y780615D01*
X1736751Y791346D01*
X1740856Y795451D01*
X1741024Y795703D01*
X1741079Y796002D01*
X1741014Y796298D01*
X1740839Y796545D01*
X1740581Y796704D01*
X1740317Y796751D01*
X1321661Y796751D01*
X1321364Y796691D01*
X1321122Y796528D01*
X1313472Y788878D01*
X1313304Y788625D01*
X1313249Y788339D01*
X1313249Y780615D01*
X1313309Y780318D01*
X1313481Y780068D01*
X1313719Y779911D01*
X1315993Y778969D01*
X1318969Y775993D01*
X1320580Y772105D01*
X1320580Y767896D01*
X1318969Y764007D01*
X1315993Y761031D01*
X1312105Y759420D01*
X1307896Y759420D01*
X1304007Y761031D01*
X1301031Y764007D01*
X1299420Y767896D01*
X1299420Y772105D01*
X1301031Y775993D01*
X1304007Y778969D01*
X1306281Y779911D01*
X1306532Y780081D01*
X1306698Y780335D01*
X1306751Y780615D01*
X1306751Y791346D01*
X1310856Y795451D01*
X1311024Y795703D01*
X1311079Y796002D01*
X1311014Y796298D01*
X1310839Y796545D01*
X1310581Y796704D01*
X1310317Y796751D01*
X1235146Y796751D01*
X1234849Y796691D01*
X1234599Y796520D01*
X1234435Y796264D01*
X1234385Y795965D01*
X1234454Y795670D01*
X1234607Y795451D01*
X1236029Y794029D01*
X1237112Y791415D01*
X1237112Y788585D01*
X1236029Y785971D01*
X1234029Y783971D01*
X1233719Y783843D01*
X1233468Y783673D01*
X1233302Y783419D01*
X1233249Y783139D01*
X1233249Y598704D01*
X1055845Y421301D01*
X1055678Y421048D01*
X1055622Y420750D01*
X1055687Y420454D01*
X1055863Y420206D01*
X1056121Y420047D01*
X1056384Y420000D01*
X1195090Y420000D01*
X1195387Y420060D01*
G37*
%LPC*%
G36*
X1348912Y770762D02*
X1348912Y772206D01*
X1350600Y776281D01*
X1353719Y779400D01*
X1357794Y781088D01*
X1359238Y781088D01*
X1359238Y770762D01*
X1348912Y770762D01*
G37*
G36*
X1360762Y770762D02*
X1360762Y781088D01*
X1362206Y781088D01*
X1366281Y779400D01*
X1369400Y776281D01*
X1371088Y772206D01*
X1371088Y770762D01*
X1360762Y770762D01*
G37*
G36*
X1790762Y770762D02*
X1790762Y781088D01*
X1792206Y781088D01*
X1796281Y779400D01*
X1799400Y776281D01*
X1801088Y772206D01*
X1801088Y770762D01*
X1790762Y770762D01*
G37*
G36*
X1332896Y759420D02*
X1329007Y761031D01*
X1326031Y764007D01*
X1324420Y767896D01*
X1324420Y772105D01*
X1326031Y775993D01*
X1329007Y778969D01*
X1332896Y780580D01*
X1337105Y780580D01*
X1340993Y778969D01*
X1343969Y775993D01*
X1345580Y772105D01*
X1345580Y767896D01*
X1343969Y764007D01*
X1340993Y761031D01*
X1337105Y759420D01*
X1332896Y759420D01*
G37*
G36*
X1360762Y758912D02*
X1360762Y769238D01*
X1371088Y769238D01*
X1371088Y767794D01*
X1369400Y763719D01*
X1366281Y760600D01*
X1362206Y758912D01*
X1360762Y758912D01*
G37*
G36*
X1357794Y758912D02*
X1353719Y760600D01*
X1350600Y763719D01*
X1348912Y767794D01*
X1348912Y769238D01*
X1359238Y769238D01*
X1359238Y758912D01*
X1357794Y758912D01*
G37*
G36*
X1305585Y594224D02*
X1301851Y595771D01*
X1298993Y598629D01*
X1297446Y602363D01*
X1297446Y622661D01*
X1298993Y626395D01*
X1301851Y629253D01*
X1305585Y630800D01*
X1309627Y630800D01*
X1313361Y629253D01*
X1316219Y626395D01*
X1317766Y622661D01*
X1317766Y602363D01*
X1316219Y598629D01*
X1313361Y595771D01*
X1309627Y594224D01*
X1305585Y594224D01*
G37*
G36*
X1260373Y594224D02*
X1256639Y595771D01*
X1253781Y598629D01*
X1252234Y602363D01*
X1252234Y622661D01*
X1253781Y626395D01*
X1256639Y629253D01*
X1260373Y630800D01*
X1264415Y630800D01*
X1268149Y629253D01*
X1271007Y626395D01*
X1272554Y622661D01*
X1272554Y602363D01*
X1271007Y598629D01*
X1268149Y595771D01*
X1264415Y594224D01*
X1260373Y594224D01*
G37*
G36*
X1247658Y462468D02*
X1246468Y463658D01*
X1246468Y476342D01*
X1247658Y477532D01*
X1249489Y477532D01*
X1249787Y477592D01*
X1250037Y477764D01*
X1250200Y478019D01*
X1250251Y478294D01*
X1250251Y482126D01*
X1250191Y482423D01*
X1250020Y482673D01*
X1249764Y482837D01*
X1249489Y482888D01*
X1248585Y482888D01*
X1245971Y483971D01*
X1243971Y485971D01*
X1242888Y488585D01*
X1242888Y491415D01*
X1243971Y494029D01*
X1245971Y496029D01*
X1248585Y497112D01*
X1251415Y497112D01*
X1254029Y496029D01*
X1256029Y494029D01*
X1257112Y491415D01*
X1257112Y488585D01*
X1256807Y487848D01*
X1256749Y487557D01*
X1256749Y478294D01*
X1256809Y477997D01*
X1256981Y477747D01*
X1257236Y477583D01*
X1257511Y477532D01*
X1259342Y477532D01*
X1260532Y476342D01*
X1260532Y463658D01*
X1259342Y462468D01*
X1247658Y462468D01*
G37*
G36*
X1237262Y470762D02*
X1237262Y478040D01*
X1242552Y478040D01*
X1244040Y476552D01*
X1244040Y470762D01*
X1237262Y470762D01*
G37*
G36*
X1228960Y470762D02*
X1228960Y476552D01*
X1230448Y478040D01*
X1235738Y478040D01*
X1235738Y470762D01*
X1228960Y470762D01*
G37*
G36*
X1237262Y461960D02*
X1237262Y469238D01*
X1244040Y469238D01*
X1244040Y463448D01*
X1242552Y461960D01*
X1237262Y461960D01*
G37*
G36*
X1230448Y461960D02*
X1228960Y463448D01*
X1228960Y469238D01*
X1235738Y469238D01*
X1235738Y461960D01*
X1230448Y461960D01*
G37*
%LPD*%
G36*
X1487770Y501774D02*
X1488585Y502112D01*
X1491415Y502112D01*
X1491724Y501984D01*
X1492022Y501926D01*
X1492319Y501989D01*
X1492555Y502149D01*
X1668654Y678249D01*
X2238339Y678249D01*
X2238636Y678309D01*
X2238878Y678472D01*
X2336528Y776122D01*
X2336696Y776375D01*
X2336751Y776661D01*
X2336751Y783139D01*
X2336691Y783436D01*
X2336520Y783686D01*
X2336281Y783843D01*
X2335971Y783971D01*
X2333971Y785971D01*
X2332888Y788585D01*
X2332888Y791415D01*
X2333971Y794029D01*
X2335393Y795451D01*
X2335560Y795703D01*
X2335616Y796002D01*
X2335551Y796298D01*
X2335375Y796545D01*
X2335117Y796704D01*
X2334854Y796751D01*
X2181661Y796751D01*
X2181364Y796691D01*
X2181122Y796528D01*
X2173472Y788878D01*
X2173304Y788625D01*
X2173249Y788339D01*
X2173249Y780615D01*
X2173309Y780318D01*
X2173481Y780068D01*
X2173719Y779911D01*
X2175993Y778969D01*
X2178969Y775993D01*
X2180580Y772105D01*
X2180580Y767896D01*
X2178969Y764007D01*
X2175993Y761031D01*
X2172816Y759715D01*
X2172564Y759545D01*
X2172399Y759291D01*
X2172346Y758992D01*
X2172413Y758697D01*
X2172591Y758451D01*
X2172850Y758294D01*
X2173107Y758249D01*
X2178339Y758249D01*
X2178636Y758309D01*
X2178878Y758472D01*
X2185197Y764791D01*
X2185364Y765044D01*
X2185420Y765342D01*
X2185362Y765621D01*
X2184420Y767896D01*
X2184420Y772105D01*
X2186031Y775993D01*
X2189007Y778969D01*
X2192896Y780580D01*
X2197105Y780580D01*
X2200993Y778969D01*
X2203969Y775993D01*
X2205580Y772105D01*
X2205580Y767896D01*
X2203969Y764007D01*
X2200993Y761031D01*
X2197105Y759420D01*
X2192896Y759420D01*
X2190621Y760362D01*
X2190324Y760420D01*
X2190027Y760357D01*
X2189791Y760197D01*
X2181346Y751751D01*
X2150685Y751751D01*
X2139585Y762851D01*
X2139333Y763019D01*
X2139034Y763074D01*
X2138755Y763016D01*
X2138445Y762888D01*
X2135616Y762888D01*
X2133002Y763971D01*
X2131001Y765971D01*
X2129919Y768585D01*
X2129919Y771415D01*
X2131001Y774029D01*
X2133002Y776029D01*
X2135616Y777112D01*
X2138445Y777112D01*
X2141059Y776029D01*
X2143060Y774029D01*
X2144143Y771415D01*
X2144143Y768585D01*
X2144014Y768276D01*
X2143957Y767978D01*
X2144019Y767681D01*
X2144180Y767445D01*
X2153153Y758472D01*
X2153406Y758304D01*
X2153692Y758249D01*
X2166893Y758249D01*
X2167190Y758309D01*
X2167440Y758481D01*
X2167603Y758736D01*
X2167654Y759035D01*
X2167584Y759330D01*
X2167405Y759575D01*
X2167184Y759715D01*
X2164007Y761031D01*
X2161031Y764007D01*
X2159420Y767896D01*
X2159420Y772105D01*
X2161031Y775993D01*
X2164007Y778969D01*
X2166281Y779911D01*
X2166532Y780081D01*
X2166698Y780335D01*
X2166751Y780615D01*
X2166751Y791346D01*
X2170856Y795451D01*
X2171024Y795703D01*
X2171079Y796002D01*
X2171014Y796298D01*
X2170839Y796545D01*
X2170581Y796704D01*
X2170317Y796751D01*
X2120146Y796751D01*
X2119849Y796691D01*
X2119599Y796520D01*
X2119435Y796264D01*
X2119385Y795965D01*
X2119454Y795670D01*
X2119607Y795451D01*
X2121029Y794029D01*
X2122112Y791415D01*
X2122112Y788585D01*
X2121029Y785971D01*
X2119029Y783971D01*
X2118719Y783843D01*
X2118468Y783673D01*
X2118302Y783419D01*
X2118249Y783139D01*
X2118249Y703654D01*
X2096346Y681751D01*
X1661661Y681751D01*
X1661364Y681691D01*
X1661122Y681528D01*
X1487149Y507555D01*
X1486981Y507302D01*
X1486926Y507004D01*
X1486984Y506724D01*
X1487112Y506415D01*
X1487112Y503585D01*
X1486774Y502770D01*
X1486716Y502472D01*
X1486779Y502175D01*
X1486952Y501927D01*
X1487209Y501765D01*
X1487509Y501717D01*
X1487770Y501774D01*
G37*
%LPC*%
G36*
X2128585Y702888D02*
X2125971Y703971D01*
X2123971Y705971D01*
X2122888Y708585D01*
X2122888Y711415D01*
X2123016Y711724D01*
X2123074Y712022D01*
X2123011Y712319D01*
X2122851Y712555D01*
X2121751Y713654D01*
X2121751Y781346D01*
X2122851Y782445D01*
X2123019Y782698D01*
X2123074Y782996D01*
X2123016Y783276D01*
X2122888Y783585D01*
X2122888Y786415D01*
X2123971Y789029D01*
X2125971Y791029D01*
X2128585Y792112D01*
X2131415Y792112D01*
X2134029Y791029D01*
X2136029Y789029D01*
X2137112Y786415D01*
X2137112Y783585D01*
X2136029Y780971D01*
X2134029Y778971D01*
X2131415Y777888D01*
X2129011Y777888D01*
X2128713Y777828D01*
X2128463Y777656D01*
X2128300Y777401D01*
X2128249Y777126D01*
X2128249Y717874D01*
X2128309Y717577D01*
X2128481Y717327D01*
X2128736Y717163D01*
X2129011Y717112D01*
X2131415Y717112D01*
X2134029Y716029D01*
X2136029Y714029D01*
X2137112Y711415D01*
X2137112Y708585D01*
X2136029Y705971D01*
X2134029Y703971D01*
X2131415Y702888D01*
X2128585Y702888D01*
G37*
G36*
X2220762Y770762D02*
X2220762Y781088D01*
X2222206Y781088D01*
X2226281Y779400D01*
X2229400Y776281D01*
X2231088Y772206D01*
X2231088Y770762D01*
X2220762Y770762D01*
G37*
G36*
X2208912Y770762D02*
X2208912Y772206D01*
X2210600Y776281D01*
X2213719Y779400D01*
X2217794Y781088D01*
X2219238Y781088D01*
X2219238Y770762D01*
X2208912Y770762D01*
G37*
G36*
X2220762Y758912D02*
X2220762Y769238D01*
X2231088Y769238D01*
X2231088Y767794D01*
X2229400Y763719D01*
X2226281Y760600D01*
X2222206Y758912D01*
X2220762Y758912D01*
G37*
G36*
X2217794Y758912D02*
X2213719Y760600D01*
X2210600Y763719D01*
X2208912Y767794D01*
X2208912Y769238D01*
X2219238Y769238D01*
X2219238Y758912D01*
X2217794Y758912D01*
G37*
%LPD*%
G36*
X1143636Y748309D02*
X1143878Y748472D01*
X1151528Y756122D01*
X1151696Y756375D01*
X1151751Y756661D01*
X1151751Y782126D01*
X1151691Y782423D01*
X1151520Y782673D01*
X1151264Y782837D01*
X1150989Y782888D01*
X1148585Y782888D01*
X1145971Y783971D01*
X1143971Y785971D01*
X1142888Y788585D01*
X1142888Y791415D01*
X1143971Y794029D01*
X1145393Y795451D01*
X1145560Y795703D01*
X1145616Y796002D01*
X1145551Y796298D01*
X1145375Y796545D01*
X1145117Y796704D01*
X1144854Y796751D01*
X961661Y796751D01*
X961364Y796691D01*
X961122Y796528D01*
X948472Y783878D01*
X948304Y783625D01*
X948249Y783339D01*
X948249Y780615D01*
X948309Y780318D01*
X948481Y780068D01*
X948719Y779911D01*
X950993Y778969D01*
X953969Y775993D01*
X955580Y772105D01*
X955580Y767896D01*
X953969Y764007D01*
X950993Y761031D01*
X947816Y759715D01*
X947564Y759545D01*
X947399Y759291D01*
X947346Y758992D01*
X947413Y758697D01*
X947591Y758451D01*
X947850Y758294D01*
X948107Y758249D01*
X966893Y758249D01*
X967190Y758309D01*
X967440Y758481D01*
X967603Y758736D01*
X967654Y759035D01*
X967584Y759330D01*
X967405Y759575D01*
X967184Y759715D01*
X964007Y761031D01*
X961031Y764007D01*
X959420Y767896D01*
X959420Y772105D01*
X961031Y775993D01*
X964007Y778969D01*
X967896Y780580D01*
X972105Y780580D01*
X975993Y778969D01*
X978969Y775993D01*
X980580Y772105D01*
X980580Y767896D01*
X978969Y764007D01*
X975993Y761031D01*
X972816Y759715D01*
X972564Y759545D01*
X972399Y759291D01*
X972346Y758992D01*
X972413Y758697D01*
X972591Y758451D01*
X972850Y758294D01*
X973107Y758249D01*
X990565Y758249D01*
X990862Y758309D01*
X991112Y758481D01*
X991276Y758736D01*
X991327Y759035D01*
X991257Y759330D01*
X991078Y759575D01*
X990857Y759715D01*
X988719Y760600D01*
X985600Y763719D01*
X983912Y767794D01*
X983912Y769238D01*
X1006088Y769238D01*
X1006088Y767794D01*
X1004400Y763719D01*
X1001281Y760600D01*
X999143Y759715D01*
X998892Y759545D01*
X998726Y759291D01*
X998673Y758992D01*
X998741Y758697D01*
X998918Y758451D01*
X999177Y758294D01*
X999435Y758249D01*
X1123139Y758249D01*
X1123436Y758309D01*
X1123686Y758481D01*
X1123843Y758719D01*
X1123971Y759029D01*
X1125971Y761029D01*
X1128585Y762112D01*
X1131415Y762112D01*
X1134029Y761029D01*
X1136029Y759029D01*
X1137112Y756415D01*
X1137112Y753585D01*
X1136029Y750971D01*
X1134607Y749549D01*
X1134440Y749297D01*
X1134384Y748999D01*
X1134449Y748702D01*
X1134625Y748455D01*
X1134883Y748296D01*
X1135146Y748249D01*
X1143339Y748249D01*
X1143636Y748309D01*
G37*
%LPC*%
G36*
X995762Y770762D02*
X995762Y781088D01*
X997206Y781088D01*
X1001281Y779400D01*
X1004400Y776281D01*
X1006088Y772206D01*
X1006088Y770762D01*
X995762Y770762D01*
G37*
G36*
X983912Y770762D02*
X983912Y772206D01*
X985600Y776281D01*
X988719Y779400D01*
X992794Y781088D01*
X994238Y781088D01*
X994238Y770762D01*
X983912Y770762D01*
G37*
%LPD*%
G36*
X1045337Y420060D02*
X1045579Y420223D01*
X1226528Y601172D01*
X1226696Y601425D01*
X1226751Y601711D01*
X1226751Y783139D01*
X1226691Y783436D01*
X1226520Y783686D01*
X1226281Y783843D01*
X1225971Y783971D01*
X1223971Y785971D01*
X1223204Y787822D01*
X1223035Y788074D01*
X1222780Y788239D01*
X1222482Y788293D01*
X1222186Y788225D01*
X1221940Y788048D01*
X1221796Y787822D01*
X1221029Y785971D01*
X1219029Y783971D01*
X1218719Y783843D01*
X1218468Y783673D01*
X1218302Y783419D01*
X1218249Y783139D01*
X1218249Y723704D01*
X915845Y421301D01*
X915678Y421048D01*
X915622Y420750D01*
X915687Y420454D01*
X915863Y420206D01*
X916121Y420047D01*
X916384Y420000D01*
X1045040Y420000D01*
X1045337Y420060D01*
G37*
G36*
X1286287Y453309D02*
X1286537Y453481D01*
X1286700Y453736D01*
X1286751Y454011D01*
X1286751Y456346D01*
X1288654Y458249D01*
X1591346Y458249D01*
X1593249Y456346D01*
X1593249Y454011D01*
X1593309Y453713D01*
X1593481Y453463D01*
X1593736Y453300D01*
X1594011Y453249D01*
X1641127Y453249D01*
X1641425Y453309D01*
X1641547Y453391D01*
X1652889Y453391D01*
X1653187Y453452D01*
X1653437Y453623D01*
X1653600Y453879D01*
X1653651Y454178D01*
X1653593Y454445D01*
X1652898Y456124D01*
X1652898Y458953D01*
X1653026Y459263D01*
X1653084Y459561D01*
X1653021Y459857D01*
X1652861Y460093D01*
X1650710Y462245D01*
X1650457Y462412D01*
X1650171Y462468D01*
X1647658Y462468D01*
X1646468Y463658D01*
X1646468Y476342D01*
X1647658Y477532D01*
X1659342Y477532D01*
X1660532Y476342D01*
X1660532Y465413D01*
X1660592Y465115D01*
X1660764Y464865D01*
X1661019Y464702D01*
X1661294Y464651D01*
X1661425Y464651D01*
X1664039Y463568D01*
X1666039Y461567D01*
X1667122Y458953D01*
X1667122Y456124D01*
X1666367Y454302D01*
X1666309Y454005D01*
X1666372Y453708D01*
X1666546Y453459D01*
X1666802Y453298D01*
X1667071Y453249D01*
X1705989Y453249D01*
X1706287Y453309D01*
X1706537Y453481D01*
X1706700Y453736D01*
X1706751Y454011D01*
X1706751Y487846D01*
X1710073Y491167D01*
X1710240Y491420D01*
X1710296Y491718D01*
X1710231Y492014D01*
X1710055Y492262D01*
X1709797Y492421D01*
X1709534Y492468D01*
X1700658Y492468D01*
X1699468Y493658D01*
X1699468Y506342D01*
X1700658Y507532D01*
X1702489Y507532D01*
X1702787Y507592D01*
X1703037Y507764D01*
X1703200Y508019D01*
X1703251Y508294D01*
X1703251Y531721D01*
X1703191Y532018D01*
X1703028Y532260D01*
X1701884Y533404D01*
X1701631Y533571D01*
X1701333Y533627D01*
X1701037Y533562D01*
X1700806Y533404D01*
X1698149Y530747D01*
X1694415Y529200D01*
X1690373Y529200D01*
X1686639Y530747D01*
X1683781Y533605D01*
X1682234Y537339D01*
X1682234Y557637D01*
X1683781Y561371D01*
X1686639Y564229D01*
X1690373Y565776D01*
X1694415Y565776D01*
X1698149Y564229D01*
X1700806Y561572D01*
X1701059Y561405D01*
X1701357Y561349D01*
X1701653Y561414D01*
X1701884Y561572D01*
X1728560Y588249D01*
X1793339Y588249D01*
X1793636Y588309D01*
X1793878Y588472D01*
X1852851Y647445D01*
X1853019Y647698D01*
X1853074Y647996D01*
X1853016Y648276D01*
X1852888Y648585D01*
X1852888Y651415D01*
X1853971Y654029D01*
X1855927Y655985D01*
X1856095Y656238D01*
X1856150Y656536D01*
X1856085Y656832D01*
X1855910Y657080D01*
X1855652Y657239D01*
X1855389Y657286D01*
X1687196Y657286D01*
X1686899Y657226D01*
X1686657Y657063D01*
X1553472Y523878D01*
X1553304Y523625D01*
X1553249Y523339D01*
X1553249Y478294D01*
X1553309Y477997D01*
X1553481Y477747D01*
X1553736Y477583D01*
X1554011Y477532D01*
X1559342Y477532D01*
X1560532Y476342D01*
X1560532Y463658D01*
X1559342Y462468D01*
X1547658Y462468D01*
X1546468Y463658D01*
X1546468Y476342D01*
X1546528Y476402D01*
X1546696Y476655D01*
X1546751Y476941D01*
X1546751Y515317D01*
X1546691Y515615D01*
X1546520Y515865D01*
X1546264Y516028D01*
X1545965Y516079D01*
X1545670Y516009D01*
X1545451Y515856D01*
X1527149Y497555D01*
X1526981Y497302D01*
X1526926Y497004D01*
X1526984Y496724D01*
X1527112Y496415D01*
X1527112Y493585D01*
X1526029Y490971D01*
X1524029Y488971D01*
X1521415Y487888D01*
X1518585Y487888D01*
X1515971Y488971D01*
X1513971Y490971D01*
X1513204Y492822D01*
X1513035Y493074D01*
X1512780Y493239D01*
X1512482Y493293D01*
X1512186Y493225D01*
X1511940Y493048D01*
X1511796Y492822D01*
X1511029Y490971D01*
X1509029Y488971D01*
X1506415Y487888D01*
X1503585Y487888D01*
X1503276Y488016D01*
X1502978Y488074D01*
X1502681Y488011D01*
X1502445Y487851D01*
X1496346Y481751D01*
X1457511Y481751D01*
X1457213Y481691D01*
X1456963Y481520D01*
X1456800Y481264D01*
X1456749Y480989D01*
X1456749Y478294D01*
X1456809Y477997D01*
X1456981Y477747D01*
X1457236Y477583D01*
X1457511Y477532D01*
X1459342Y477532D01*
X1460532Y476342D01*
X1460532Y463658D01*
X1459342Y462468D01*
X1447658Y462468D01*
X1446468Y463658D01*
X1446468Y476342D01*
X1447658Y477532D01*
X1449489Y477532D01*
X1449787Y477592D01*
X1450037Y477764D01*
X1450200Y478019D01*
X1450251Y478294D01*
X1450251Y484846D01*
X1453654Y488249D01*
X1484854Y488249D01*
X1485151Y488309D01*
X1485401Y488481D01*
X1485565Y488736D01*
X1485615Y489035D01*
X1485546Y489330D01*
X1485393Y489549D01*
X1483971Y490971D01*
X1482888Y493585D01*
X1482888Y496415D01*
X1483226Y497230D01*
X1483284Y497528D01*
X1483221Y497825D01*
X1483048Y498073D01*
X1482791Y498235D01*
X1482491Y498283D01*
X1482230Y498226D01*
X1481415Y497888D01*
X1478585Y497888D01*
X1475971Y498971D01*
X1473971Y500971D01*
X1472888Y503585D01*
X1472888Y506415D01*
X1473971Y509029D01*
X1475971Y511029D01*
X1478585Y512112D01*
X1481415Y512112D01*
X1481724Y511984D01*
X1482022Y511926D01*
X1482319Y511989D01*
X1482555Y512149D01*
X1658654Y688249D01*
X1989854Y688249D01*
X1990151Y688309D01*
X1990401Y688481D01*
X1990565Y688736D01*
X1990615Y689035D01*
X1990546Y689330D01*
X1990393Y689549D01*
X1988971Y690971D01*
X1988843Y691281D01*
X1988673Y691532D01*
X1988419Y691698D01*
X1988139Y691751D01*
X1656661Y691751D01*
X1656364Y691691D01*
X1656122Y691528D01*
X1556346Y591751D01*
X1391661Y591751D01*
X1391364Y591691D01*
X1391122Y591528D01*
X1372255Y572661D01*
X1372088Y572408D01*
X1372032Y572122D01*
X1372032Y565037D01*
X1369963Y562968D01*
X1360037Y562968D01*
X1357968Y565037D01*
X1357968Y574963D01*
X1360037Y577032D01*
X1367122Y577032D01*
X1367419Y577092D01*
X1367661Y577255D01*
X1388654Y598249D01*
X1553339Y598249D01*
X1553636Y598309D01*
X1553878Y598472D01*
X1653654Y698249D01*
X1929854Y698249D01*
X1930151Y698309D01*
X1930401Y698481D01*
X1930565Y698736D01*
X1930615Y699035D01*
X1930546Y699330D01*
X1930393Y699549D01*
X1928971Y700971D01*
X1928843Y701281D01*
X1928673Y701532D01*
X1928419Y701698D01*
X1928139Y701751D01*
X1651661Y701751D01*
X1651364Y701691D01*
X1651122Y701528D01*
X1551346Y601751D01*
X1381661Y601751D01*
X1381364Y601691D01*
X1381122Y601528D01*
X1351346Y571751D01*
X1291567Y571751D01*
X1291270Y571691D01*
X1291028Y571528D01*
X1272777Y553277D01*
X1272610Y553024D01*
X1272554Y552738D01*
X1272554Y542238D01*
X1272614Y541941D01*
X1272777Y541699D01*
X1279749Y534728D01*
X1279749Y508294D01*
X1279809Y507997D01*
X1279981Y507747D01*
X1280236Y507583D01*
X1280511Y507532D01*
X1282342Y507532D01*
X1283532Y506342D01*
X1283532Y496466D01*
X1283592Y496169D01*
X1283764Y495919D01*
X1284019Y495755D01*
X1284318Y495704D01*
X1284613Y495774D01*
X1284833Y495927D01*
X1286245Y497339D01*
X1286412Y497592D01*
X1286468Y497878D01*
X1286468Y506342D01*
X1287658Y507532D01*
X1299342Y507532D01*
X1300532Y506342D01*
X1300532Y493658D01*
X1299342Y492468D01*
X1290878Y492468D01*
X1290581Y492408D01*
X1290339Y492245D01*
X1283472Y485378D01*
X1283304Y485125D01*
X1283249Y484839D01*
X1283249Y454011D01*
X1283309Y453713D01*
X1283481Y453463D01*
X1283736Y453300D01*
X1284011Y453249D01*
X1285989Y453249D01*
X1286287Y453309D01*
G37*
%LPC*%
G36*
X1690373Y594224D02*
X1686639Y595771D01*
X1683781Y598629D01*
X1682234Y602363D01*
X1682234Y622661D01*
X1683781Y626395D01*
X1686639Y629253D01*
X1690373Y630800D01*
X1694415Y630800D01*
X1698149Y629253D01*
X1701007Y626395D01*
X1702554Y622661D01*
X1702554Y602363D01*
X1701007Y598629D01*
X1698149Y595771D01*
X1694415Y594224D01*
X1690373Y594224D01*
G37*
G36*
X1735585Y594224D02*
X1731851Y595771D01*
X1728993Y598629D01*
X1727446Y602363D01*
X1727446Y622661D01*
X1728993Y626395D01*
X1731851Y629253D01*
X1735585Y630800D01*
X1739627Y630800D01*
X1743361Y629253D01*
X1746219Y626395D01*
X1747766Y622661D01*
X1747766Y602363D01*
X1746219Y598629D01*
X1743361Y595771D01*
X1739627Y594224D01*
X1735585Y594224D01*
G37*
G36*
X1377658Y542468D02*
X1376468Y543658D01*
X1376468Y556342D01*
X1377658Y557532D01*
X1385989Y557532D01*
X1386287Y557592D01*
X1386537Y557764D01*
X1386700Y558019D01*
X1386751Y558294D01*
X1386751Y562206D01*
X1386691Y562503D01*
X1386520Y562753D01*
X1386264Y562917D01*
X1385989Y562968D01*
X1385037Y562968D01*
X1382968Y565037D01*
X1382968Y574963D01*
X1385037Y577032D01*
X1394963Y577032D01*
X1397032Y574963D01*
X1397032Y565037D01*
X1394963Y562968D01*
X1394011Y562968D01*
X1393713Y562908D01*
X1393463Y562736D01*
X1393300Y562481D01*
X1393249Y562206D01*
X1393249Y555154D01*
X1390755Y552661D01*
X1390588Y552408D01*
X1390532Y552122D01*
X1390532Y543658D01*
X1389342Y542468D01*
X1377658Y542468D01*
G37*
G36*
X1296938Y548250D02*
X1296938Y557738D01*
X1298562Y561659D01*
X1301563Y564660D01*
X1305484Y566284D01*
X1306844Y566284D01*
X1306844Y548250D01*
X1296938Y548250D01*
G37*
G36*
X1308368Y548250D02*
X1308368Y566284D01*
X1309728Y566284D01*
X1313649Y564660D01*
X1316650Y561659D01*
X1318274Y557738D01*
X1318274Y548250D01*
X1308368Y548250D01*
G37*
G36*
X1358960Y550762D02*
X1358960Y556552D01*
X1360448Y558040D01*
X1365738Y558040D01*
X1365738Y550762D01*
X1358960Y550762D01*
G37*
G36*
X1367262Y550762D02*
X1367262Y558040D01*
X1372552Y558040D01*
X1374040Y556552D01*
X1374040Y550762D01*
X1367262Y550762D01*
G37*
G36*
X1360448Y541960D02*
X1358960Y543448D01*
X1358960Y549238D01*
X1365738Y549238D01*
X1365738Y541960D01*
X1360448Y541960D01*
G37*
G36*
X1367262Y541960D02*
X1367262Y549238D01*
X1374040Y549238D01*
X1374040Y543448D01*
X1372552Y541960D01*
X1367262Y541960D01*
G37*
G36*
X1308368Y528692D02*
X1308368Y546726D01*
X1318274Y546726D01*
X1318274Y537238D01*
X1316650Y533317D01*
X1313649Y530316D01*
X1309728Y528692D01*
X1308368Y528692D01*
G37*
G36*
X1305484Y528692D02*
X1301563Y530316D01*
X1298562Y533317D01*
X1296938Y537238D01*
X1296938Y546726D01*
X1306844Y546726D01*
X1306844Y528692D01*
X1305484Y528692D01*
G37*
G36*
X1637262Y470762D02*
X1637262Y478040D01*
X1642552Y478040D01*
X1644040Y476552D01*
X1644040Y470762D01*
X1637262Y470762D01*
G37*
G36*
X1537262Y470762D02*
X1537262Y478040D01*
X1542552Y478040D01*
X1544040Y476552D01*
X1544040Y470762D01*
X1537262Y470762D01*
G37*
G36*
X1437262Y470762D02*
X1437262Y478040D01*
X1442552Y478040D01*
X1444040Y476552D01*
X1444040Y470762D01*
X1437262Y470762D01*
G37*
G36*
X1337262Y470762D02*
X1337262Y478040D01*
X1342552Y478040D01*
X1344040Y476552D01*
X1344040Y470762D01*
X1337262Y470762D01*
G37*
G36*
X1328960Y470762D02*
X1328960Y476552D01*
X1330448Y478040D01*
X1335738Y478040D01*
X1335738Y470762D01*
X1328960Y470762D01*
G37*
G36*
X1428960Y470762D02*
X1428960Y476552D01*
X1430448Y478040D01*
X1435738Y478040D01*
X1435738Y470762D01*
X1428960Y470762D01*
G37*
G36*
X1628960Y470762D02*
X1628960Y476552D01*
X1630448Y478040D01*
X1635738Y478040D01*
X1635738Y470762D01*
X1628960Y470762D01*
G37*
G36*
X1528960Y470762D02*
X1528960Y476552D01*
X1530448Y478040D01*
X1535738Y478040D01*
X1535738Y470762D01*
X1528960Y470762D01*
G37*
G36*
X1347658Y462468D02*
X1346468Y463658D01*
X1346468Y476342D01*
X1347658Y477532D01*
X1359342Y477532D01*
X1360532Y476342D01*
X1360532Y474011D01*
X1360592Y473713D01*
X1360764Y473463D01*
X1361019Y473300D01*
X1361294Y473249D01*
X1378139Y473249D01*
X1378436Y473309D01*
X1378686Y473481D01*
X1378843Y473719D01*
X1378971Y474029D01*
X1380971Y476029D01*
X1383585Y477112D01*
X1386415Y477112D01*
X1389029Y476029D01*
X1391029Y474029D01*
X1392112Y471415D01*
X1392112Y468585D01*
X1391029Y465971D01*
X1389029Y463971D01*
X1386415Y462888D01*
X1383585Y462888D01*
X1380971Y463971D01*
X1378971Y465971D01*
X1378843Y466281D01*
X1378673Y466532D01*
X1378419Y466698D01*
X1378139Y466751D01*
X1361294Y466751D01*
X1360997Y466691D01*
X1360747Y466520D01*
X1360583Y466264D01*
X1360532Y465989D01*
X1360532Y463658D01*
X1359342Y462468D01*
X1347658Y462468D01*
G37*
G36*
X1330448Y461960D02*
X1328960Y463448D01*
X1328960Y469238D01*
X1335738Y469238D01*
X1335738Y461960D01*
X1330448Y461960D01*
G37*
G36*
X1337262Y461960D02*
X1337262Y469238D01*
X1344040Y469238D01*
X1344040Y463448D01*
X1342552Y461960D01*
X1337262Y461960D01*
G37*
G36*
X1637262Y461960D02*
X1637262Y469238D01*
X1644040Y469238D01*
X1644040Y463448D01*
X1642552Y461960D01*
X1637262Y461960D01*
G37*
G36*
X1630448Y461960D02*
X1628960Y463448D01*
X1628960Y469238D01*
X1635738Y469238D01*
X1635738Y461960D01*
X1630448Y461960D01*
G37*
G36*
X1537262Y461960D02*
X1537262Y469238D01*
X1544040Y469238D01*
X1544040Y463448D01*
X1542552Y461960D01*
X1537262Y461960D01*
G37*
G36*
X1530448Y461960D02*
X1528960Y463448D01*
X1528960Y469238D01*
X1535738Y469238D01*
X1535738Y461960D01*
X1530448Y461960D01*
G37*
G36*
X1437262Y461960D02*
X1437262Y469238D01*
X1444040Y469238D01*
X1444040Y463448D01*
X1442552Y461960D01*
X1437262Y461960D01*
G37*
G36*
X1430448Y461960D02*
X1428960Y463448D01*
X1428960Y469238D01*
X1435738Y469238D01*
X1435738Y461960D01*
X1430448Y461960D01*
G37*
%LPD*%
G36*
X2136502Y448386D02*
X2136743Y448549D01*
X2141586Y453391D01*
X2153014Y453391D01*
X2153441Y452965D01*
X2153694Y452797D01*
X2153992Y452741D01*
X2154288Y452807D01*
X2154536Y452982D01*
X2154684Y453212D01*
X2154811Y453519D01*
X2154869Y453817D01*
X2154806Y454114D01*
X2154646Y454350D01*
X2150251Y458744D01*
X2150251Y461706D01*
X2150191Y462003D01*
X2150020Y462253D01*
X2149764Y462417D01*
X2149489Y462468D01*
X2148972Y462468D01*
X2148675Y462408D01*
X2148433Y462245D01*
X2144191Y458003D01*
X2122380Y458003D01*
X2122083Y457942D01*
X2121832Y457771D01*
X2121676Y457532D01*
X2121029Y455971D01*
X2119029Y453971D01*
X2116415Y452888D01*
X2113585Y452888D01*
X2110971Y453971D01*
X2108971Y455971D01*
X2107888Y458585D01*
X2107888Y461415D01*
X2108016Y461724D01*
X2108074Y462022D01*
X2108011Y462319D01*
X2107851Y462555D01*
X1956751Y613654D01*
X1956751Y643139D01*
X1956691Y643436D01*
X1956520Y643686D01*
X1956281Y643843D01*
X1955971Y643971D01*
X1953971Y645971D01*
X1953204Y647822D01*
X1953035Y648074D01*
X1952780Y648239D01*
X1952482Y648293D01*
X1952186Y648225D01*
X1951940Y648048D01*
X1951796Y647822D01*
X1951029Y645971D01*
X1949029Y643971D01*
X1946415Y642888D01*
X1943585Y642888D01*
X1940971Y643971D01*
X1938971Y645971D01*
X1938843Y646281D01*
X1938673Y646532D01*
X1938419Y646698D01*
X1938139Y646751D01*
X1876661Y646751D01*
X1876364Y646691D01*
X1876122Y646528D01*
X1802255Y572661D01*
X1802088Y572408D01*
X1802032Y572122D01*
X1802032Y565037D01*
X1799963Y562968D01*
X1790037Y562968D01*
X1787968Y565037D01*
X1787968Y574963D01*
X1790037Y577032D01*
X1797122Y577032D01*
X1797419Y577092D01*
X1797661Y577255D01*
X1861993Y641587D01*
X1862160Y641840D01*
X1862216Y642138D01*
X1862151Y642434D01*
X1861975Y642682D01*
X1861717Y642841D01*
X1861454Y642888D01*
X1858585Y642888D01*
X1858276Y643016D01*
X1857978Y643074D01*
X1857681Y643011D01*
X1857445Y642851D01*
X1796346Y581751D01*
X1731567Y581751D01*
X1731270Y581691D01*
X1731028Y581528D01*
X1702777Y553277D01*
X1702610Y553024D01*
X1702554Y552738D01*
X1702554Y542238D01*
X1702614Y541941D01*
X1702777Y541699D01*
X1709749Y534728D01*
X1709749Y508294D01*
X1709809Y507997D01*
X1709981Y507747D01*
X1710236Y507583D01*
X1710511Y507532D01*
X1712342Y507532D01*
X1713532Y506342D01*
X1713532Y496466D01*
X1713592Y496169D01*
X1713764Y495919D01*
X1714019Y495755D01*
X1714318Y495704D01*
X1714613Y495774D01*
X1714833Y495927D01*
X1716245Y497339D01*
X1716412Y497592D01*
X1716468Y497878D01*
X1716468Y506342D01*
X1717658Y507532D01*
X1729342Y507532D01*
X1730532Y506342D01*
X1730532Y493658D01*
X1729342Y492468D01*
X1720878Y492468D01*
X1720581Y492408D01*
X1720339Y492245D01*
X1713472Y485378D01*
X1713304Y485125D01*
X1713249Y484839D01*
X1713249Y454011D01*
X1713309Y453713D01*
X1713481Y453463D01*
X1713736Y453300D01*
X1714011Y453249D01*
X1741127Y453249D01*
X1741425Y453309D01*
X1741547Y453391D01*
X1752889Y453391D01*
X1753187Y453452D01*
X1753437Y453623D01*
X1753600Y453879D01*
X1753651Y454178D01*
X1753593Y454445D01*
X1752898Y456124D01*
X1752898Y458953D01*
X1753026Y459263D01*
X1753084Y459561D01*
X1753021Y459857D01*
X1752861Y460093D01*
X1750710Y462245D01*
X1750457Y462412D01*
X1750171Y462468D01*
X1747658Y462468D01*
X1746468Y463658D01*
X1746468Y476342D01*
X1747658Y477532D01*
X1759342Y477532D01*
X1760532Y476342D01*
X1760532Y465413D01*
X1760592Y465115D01*
X1760764Y464865D01*
X1761019Y464702D01*
X1761294Y464651D01*
X1761425Y464651D01*
X1764039Y463568D01*
X1766039Y461567D01*
X1767122Y458953D01*
X1767122Y456124D01*
X1766040Y453512D01*
X1765982Y453215D01*
X1766045Y452918D01*
X1766218Y452669D01*
X1766475Y452508D01*
X1766744Y452459D01*
X1767492Y452459D01*
X1767789Y452519D01*
X1768030Y452682D01*
X1768597Y453249D01*
X1841127Y453249D01*
X1841425Y453309D01*
X1841547Y453391D01*
X1852889Y453391D01*
X1853187Y453452D01*
X1853437Y453623D01*
X1853600Y453879D01*
X1853651Y454178D01*
X1853593Y454445D01*
X1852898Y456124D01*
X1852898Y458953D01*
X1853026Y459263D01*
X1853084Y459561D01*
X1853021Y459857D01*
X1852861Y460093D01*
X1850710Y462245D01*
X1850457Y462412D01*
X1850171Y462468D01*
X1847658Y462468D01*
X1846468Y463658D01*
X1846468Y476342D01*
X1847658Y477532D01*
X1859342Y477532D01*
X1860532Y476342D01*
X1860532Y465413D01*
X1860592Y465115D01*
X1860764Y464865D01*
X1861019Y464702D01*
X1861294Y464651D01*
X1861425Y464651D01*
X1864039Y463568D01*
X1866039Y461567D01*
X1867122Y458953D01*
X1867122Y456124D01*
X1866367Y454302D01*
X1866309Y454005D01*
X1866372Y453708D01*
X1866546Y453459D01*
X1866802Y453298D01*
X1867071Y453249D01*
X1941127Y453249D01*
X1941425Y453309D01*
X1941547Y453391D01*
X1952889Y453391D01*
X1953187Y453452D01*
X1953437Y453623D01*
X1953600Y453879D01*
X1953651Y454178D01*
X1953593Y454445D01*
X1952898Y456124D01*
X1952898Y458953D01*
X1953026Y459263D01*
X1953084Y459561D01*
X1953021Y459857D01*
X1952861Y460093D01*
X1950710Y462245D01*
X1950457Y462412D01*
X1950171Y462468D01*
X1947658Y462468D01*
X1946468Y463658D01*
X1946468Y476342D01*
X1947658Y477532D01*
X1959342Y477532D01*
X1960532Y476342D01*
X1960532Y465413D01*
X1960592Y465115D01*
X1960764Y464865D01*
X1961019Y464702D01*
X1961294Y464651D01*
X1961425Y464651D01*
X1964039Y463568D01*
X1966039Y461567D01*
X1967122Y458953D01*
X1967122Y456124D01*
X1966040Y453512D01*
X1965982Y453215D01*
X1966045Y452918D01*
X1966218Y452669D01*
X1966475Y452508D01*
X1966744Y452459D01*
X1967492Y452459D01*
X1967789Y452519D01*
X1968030Y452682D01*
X1968597Y453249D01*
X2041127Y453249D01*
X2041425Y453309D01*
X2041547Y453391D01*
X2054995Y453391D01*
X2055292Y453452D01*
X2055542Y453623D01*
X2055706Y453879D01*
X2055757Y454153D01*
X2055757Y454284D01*
X2055885Y454593D01*
X2055943Y454891D01*
X2055881Y455188D01*
X2055720Y455424D01*
X2050251Y460893D01*
X2050251Y461706D01*
X2050191Y462003D01*
X2050020Y462253D01*
X2049764Y462417D01*
X2049489Y462468D01*
X2047658Y462468D01*
X2046468Y463658D01*
X2046468Y476342D01*
X2047658Y477532D01*
X2059342Y477532D01*
X2060532Y476342D01*
X2060532Y463658D01*
X2059142Y462268D01*
X2058974Y462015D01*
X2058919Y461717D01*
X2058984Y461421D01*
X2059142Y461191D01*
X2060314Y460018D01*
X2060567Y459851D01*
X2060865Y459795D01*
X2061145Y459853D01*
X2061454Y459981D01*
X2064284Y459981D01*
X2066898Y458898D01*
X2068898Y456898D01*
X2069981Y454284D01*
X2069981Y451454D01*
X2069242Y449670D01*
X2069184Y449373D01*
X2069247Y449076D01*
X2069420Y448827D01*
X2069677Y448666D01*
X2069977Y448617D01*
X2070238Y448675D01*
X2070844Y448926D01*
X2074556Y448926D01*
X2075866Y448384D01*
X2076157Y448326D01*
X2136204Y448326D01*
X2136502Y448386D01*
G37*
%LPC*%
G36*
X1807658Y542468D02*
X1806468Y543658D01*
X1806468Y556342D01*
X1807658Y557532D01*
X1815989Y557532D01*
X1816287Y557592D01*
X1816537Y557764D01*
X1816700Y558019D01*
X1816751Y558294D01*
X1816751Y562206D01*
X1816691Y562503D01*
X1816520Y562753D01*
X1816264Y562917D01*
X1815989Y562968D01*
X1815037Y562968D01*
X1812968Y565037D01*
X1812968Y574963D01*
X1815037Y577032D01*
X1824963Y577032D01*
X1827032Y574963D01*
X1827032Y565037D01*
X1824963Y562968D01*
X1824011Y562968D01*
X1823713Y562908D01*
X1823463Y562736D01*
X1823300Y562481D01*
X1823249Y562206D01*
X1823249Y555154D01*
X1820755Y552661D01*
X1820588Y552408D01*
X1820532Y552122D01*
X1820532Y543658D01*
X1819342Y542468D01*
X1807658Y542468D01*
G37*
G36*
X1726938Y548250D02*
X1726938Y557738D01*
X1728562Y561659D01*
X1731563Y564660D01*
X1735484Y566284D01*
X1736844Y566284D01*
X1736844Y548250D01*
X1726938Y548250D01*
G37*
G36*
X1738368Y548250D02*
X1738368Y566284D01*
X1739728Y566284D01*
X1743649Y564660D01*
X1746650Y561659D01*
X1748274Y557738D01*
X1748274Y548250D01*
X1738368Y548250D01*
G37*
G36*
X1788960Y550762D02*
X1788960Y556552D01*
X1790448Y558040D01*
X1795738Y558040D01*
X1795738Y550762D01*
X1788960Y550762D01*
G37*
G36*
X1797262Y550762D02*
X1797262Y558040D01*
X1802552Y558040D01*
X1804040Y556552D01*
X1804040Y550762D01*
X1797262Y550762D01*
G37*
G36*
X1790448Y541960D02*
X1788960Y543448D01*
X1788960Y549238D01*
X1795738Y549238D01*
X1795738Y541960D01*
X1790448Y541960D01*
G37*
G36*
X1797262Y541960D02*
X1797262Y549238D01*
X1804040Y549238D01*
X1804040Y543448D01*
X1802552Y541960D01*
X1797262Y541960D01*
G37*
G36*
X1738368Y528692D02*
X1738368Y546726D01*
X1748274Y546726D01*
X1748274Y537238D01*
X1746650Y533317D01*
X1743649Y530316D01*
X1739728Y528692D01*
X1738368Y528692D01*
G37*
G36*
X1735484Y528692D02*
X1731563Y530316D01*
X1728562Y533317D01*
X1726938Y537238D01*
X1726938Y546726D01*
X1736844Y546726D01*
X1736844Y528692D01*
X1735484Y528692D01*
G37*
G36*
X2037262Y470762D02*
X2037262Y478040D01*
X2042552Y478040D01*
X2044040Y476552D01*
X2044040Y470762D01*
X2037262Y470762D01*
G37*
G36*
X1937262Y470762D02*
X1937262Y478040D01*
X1942552Y478040D01*
X1944040Y476552D01*
X1944040Y470762D01*
X1937262Y470762D01*
G37*
G36*
X1837262Y470762D02*
X1837262Y478040D01*
X1842552Y478040D01*
X1844040Y476552D01*
X1844040Y470762D01*
X1837262Y470762D01*
G37*
G36*
X1737262Y470762D02*
X1737262Y478040D01*
X1742552Y478040D01*
X1744040Y476552D01*
X1744040Y470762D01*
X1737262Y470762D01*
G37*
G36*
X2028960Y470762D02*
X2028960Y476552D01*
X2030448Y478040D01*
X2035738Y478040D01*
X2035738Y470762D01*
X2028960Y470762D01*
G37*
G36*
X1928960Y470762D02*
X1928960Y476552D01*
X1930448Y478040D01*
X1935738Y478040D01*
X1935738Y470762D01*
X1928960Y470762D01*
G37*
G36*
X1828960Y470762D02*
X1828960Y476552D01*
X1830448Y478040D01*
X1835738Y478040D01*
X1835738Y470762D01*
X1828960Y470762D01*
G37*
G36*
X1728960Y470762D02*
X1728960Y476552D01*
X1730448Y478040D01*
X1735738Y478040D01*
X1735738Y470762D01*
X1728960Y470762D01*
G37*
G36*
X2037262Y461960D02*
X2037262Y469238D01*
X2044040Y469238D01*
X2044040Y463448D01*
X2042552Y461960D01*
X2037262Y461960D01*
G37*
G36*
X2030448Y461960D02*
X2028960Y463448D01*
X2028960Y469238D01*
X2035738Y469238D01*
X2035738Y461960D01*
X2030448Y461960D01*
G37*
G36*
X1937262Y461960D02*
X1937262Y469238D01*
X1944040Y469238D01*
X1944040Y463448D01*
X1942552Y461960D01*
X1937262Y461960D01*
G37*
G36*
X1930448Y461960D02*
X1928960Y463448D01*
X1928960Y469238D01*
X1935738Y469238D01*
X1935738Y461960D01*
X1930448Y461960D01*
G37*
G36*
X1837262Y461960D02*
X1837262Y469238D01*
X1844040Y469238D01*
X1844040Y463448D01*
X1842552Y461960D01*
X1837262Y461960D01*
G37*
G36*
X1830448Y461960D02*
X1828960Y463448D01*
X1828960Y469238D01*
X1835738Y469238D01*
X1835738Y461960D01*
X1830448Y461960D01*
G37*
G36*
X1737262Y461960D02*
X1737262Y469238D01*
X1744040Y469238D01*
X1744040Y463448D01*
X1742552Y461960D01*
X1737262Y461960D01*
G37*
G36*
X1730448Y461960D02*
X1728960Y463448D01*
X1728960Y469238D01*
X1735738Y469238D01*
X1735738Y461960D01*
X1730448Y461960D01*
G37*
%LPD*%
D10*
X280000Y747300D03*
X280000Y772700D03*
X450000Y727300D03*
X450000Y752700D03*
D11*
X384300Y756900D03*
D12*
X384300Y731500D03*
D13*
X275000Y862952D02*
X275000Y877048D01*
X317952Y820000D02*
X332048Y820000D01*
X332048Y845000D02*
X317952Y845000D01*
X317952Y895000D02*
X332048Y895000D01*
X332048Y920000D02*
X317952Y920000D01*
D14*
X1247300Y439596D02*
X1247300Y425000D01*
X1272700Y425000D02*
X1272700Y439596D01*
X2147300Y439596D02*
X2147300Y425000D01*
X2172700Y425000D02*
X2172700Y439596D01*
X2247300Y439596D02*
X2247300Y425000D01*
X2272700Y425000D02*
X2272700Y439596D01*
X2347300Y439596D02*
X2347300Y425000D01*
X2372700Y425000D02*
X2372700Y439596D01*
X1347300Y439596D02*
X1347300Y425000D01*
X1372700Y425000D02*
X1372700Y439596D01*
X1447300Y439596D02*
X1447300Y425000D01*
X1472700Y425000D02*
X1472700Y439596D01*
X1547300Y439596D02*
X1547300Y425000D01*
X1572700Y425000D02*
X1572700Y439596D01*
X1647300Y439596D02*
X1647300Y425000D01*
X1672700Y425000D02*
X1672700Y439596D01*
X1747300Y439596D02*
X1747300Y425000D01*
X1772700Y425000D02*
X1772700Y439596D01*
X1847300Y439596D02*
X1847300Y425000D01*
X1872700Y425000D02*
X1872700Y439596D01*
X1947300Y439596D02*
X1947300Y425000D01*
X1972700Y425000D02*
X1972700Y439596D01*
X2047300Y439596D02*
X2047300Y425000D01*
X2072700Y425000D02*
X2072700Y439596D01*
D15*
X311500Y500000D03*
X328500Y500000D03*
X1276500Y500000D03*
X1293500Y500000D03*
X1706500Y500000D03*
X1723500Y500000D03*
X2136500Y500000D03*
X2153500Y500000D03*
D12*
X854550Y390000D03*
X879950Y390000D03*
D11*
X905450Y390000D03*
D12*
X994550Y390000D03*
X1019950Y390000D03*
D11*
X1045450Y390000D03*
D15*
X1236500Y470000D03*
X1253500Y470000D03*
X1336500Y470000D03*
X1353500Y470000D03*
X1436500Y470000D03*
X1453500Y470000D03*
X1536500Y470000D03*
X1553500Y470000D03*
X1636500Y470000D03*
X1653500Y470000D03*
X511500Y500000D03*
X528500Y500000D03*
X1736500Y470000D03*
X1753500Y470000D03*
X1836500Y470000D03*
X1853500Y470000D03*
X1936500Y470000D03*
X1953500Y470000D03*
X2036500Y470000D03*
X2053500Y470000D03*
X2136500Y470000D03*
X2153500Y470000D03*
X2236500Y470000D03*
X2253500Y470000D03*
X2336500Y470000D03*
X2353500Y470000D03*
X711500Y500000D03*
X728500Y500000D03*
D16*
X415000Y848500D03*
X415000Y831500D03*
D17*
X545000Y770000D03*
X570000Y770000D03*
X595000Y770000D03*
D18*
X615000Y840000D03*
X525000Y840000D03*
D15*
X911500Y500000D03*
X928500Y500000D03*
D17*
X745000Y770000D03*
X770000Y770000D03*
X795000Y770000D03*
D18*
X815000Y840000D03*
X725000Y840000D03*
D17*
X945000Y770000D03*
X970000Y770000D03*
X995000Y770000D03*
D18*
X1015000Y840000D03*
X925000Y840000D03*
D17*
X1310000Y770000D03*
X1335000Y770000D03*
X1360000Y770000D03*
D18*
X1380000Y840000D03*
X1290000Y840000D03*
D17*
X1740000Y770000D03*
X1765000Y770000D03*
X1790000Y770000D03*
D18*
X1810000Y840000D03*
X1720000Y840000D03*
D17*
X2170000Y770000D03*
X2195000Y770000D03*
X2220000Y770000D03*
D18*
X2240000Y840000D03*
X2150000Y840000D03*
D19*
X297394Y555616D02*
X297394Y539360D01*
X342606Y539360D02*
X342606Y555616D01*
X297394Y604384D02*
X297394Y620640D01*
X342606Y620640D02*
X342606Y604384D01*
X497394Y555616D02*
X497394Y539360D01*
X542606Y539360D02*
X542606Y555616D01*
X497394Y604384D02*
X497394Y620640D01*
X542606Y620640D02*
X542606Y604384D01*
X697394Y555616D02*
X697394Y539360D01*
X742606Y539360D02*
X742606Y555616D01*
X697394Y604384D02*
X697394Y620640D01*
X742606Y620640D02*
X742606Y604384D01*
X897394Y555616D02*
X897394Y539360D01*
X942606Y539360D02*
X942606Y555616D01*
X897394Y604384D02*
X897394Y620640D01*
X942606Y620640D02*
X942606Y604384D01*
X1262394Y555616D02*
X1262394Y539360D01*
X1307606Y539360D02*
X1307606Y555616D01*
X1262394Y604384D02*
X1262394Y620640D01*
X1307606Y620640D02*
X1307606Y604384D01*
X1692394Y555616D02*
X1692394Y539360D01*
X1737606Y539360D02*
X1737606Y555616D01*
X1692394Y604384D02*
X1692394Y620640D01*
X1737606Y620640D02*
X1737606Y604384D01*
X2122394Y555616D02*
X2122394Y539360D01*
X2167606Y539360D02*
X2167606Y555616D01*
X2122394Y604384D02*
X2122394Y620640D01*
X2167606Y620640D02*
X2167606Y604384D01*
D20*
X2336274Y1017222D03*
X2310874Y1017222D03*
X2285474Y1017222D03*
X2260074Y1017222D03*
X2234674Y1017222D03*
X2209274Y1017222D03*
X2183874Y1017222D03*
X2158474Y1017222D03*
X2133074Y1017222D03*
X2107674Y1017222D03*
X2082274Y1017222D03*
X2056874Y1017222D03*
X2056874Y1169622D03*
X2082274Y1169622D03*
X2107674Y1169622D03*
X2133074Y1169622D03*
X2158474Y1169622D03*
X2183874Y1169622D03*
X2209274Y1169622D03*
X2234674Y1169622D03*
X2260074Y1169622D03*
X2285474Y1169622D03*
X2310874Y1169622D03*
X2361674Y1017222D03*
X2336274Y1169622D03*
X2361674Y1169622D03*
X2387074Y1017222D03*
X2387074Y1169622D03*
X2031474Y1017222D03*
X2031474Y1169622D03*
X2006074Y1017222D03*
X1980674Y1017222D03*
X1955274Y1017222D03*
X1929874Y1017222D03*
X1904474Y1017222D03*
X1879074Y1017222D03*
X1853674Y1017222D03*
X1828274Y1017222D03*
X1802874Y1017222D03*
X1802874Y1169622D03*
X1828274Y1169622D03*
X1853674Y1169622D03*
X1879074Y1169622D03*
X1904474Y1169622D03*
X1929874Y1169622D03*
X1955274Y1169622D03*
X1980674Y1169622D03*
X2006074Y1169622D03*
X1929874Y1042622D03*
X1929874Y1093422D03*
X1929874Y1118822D03*
X1929874Y1068022D03*
X1929874Y1144222D03*
X2361674Y1144222D03*
X2310874Y1144222D03*
X2285474Y1144222D03*
X2260074Y1144222D03*
X2323574Y1048972D03*
X2298174Y1048972D03*
X2272774Y1048972D03*
X2247374Y1048972D03*
X2221974Y1048972D03*
D21*
X488000Y1010300D03*
X488000Y1035700D03*
X488000Y1061100D03*
X488000Y1086500D03*
X408600Y1086500D03*
X408600Y1061100D03*
X408600Y1035700D03*
X408600Y1010300D03*
D22*
X621500Y573500D02*
X621500Y566500D01*
X621500Y573500D02*
X628500Y573500D01*
X628500Y566500D01*
X621500Y566500D01*
X621500Y569350D02*
X628500Y569350D01*
X628500Y572200D02*
X621500Y572200D01*
X596500Y573500D02*
X596500Y566500D01*
X596500Y573500D02*
X603500Y573500D01*
X603500Y566500D01*
X596500Y566500D01*
X596500Y569350D02*
X603500Y569350D01*
X603500Y572200D02*
X596500Y572200D01*
D15*
X601500Y550000D03*
X618500Y550000D03*
D22*
X421500Y566500D02*
X421500Y573500D01*
X428500Y573500D01*
X428500Y566500D01*
X421500Y566500D01*
X421500Y569350D02*
X428500Y569350D01*
X428500Y572200D02*
X421500Y572200D01*
X396500Y573500D02*
X396500Y566500D01*
X396500Y573500D02*
X403500Y573500D01*
X403500Y566500D01*
X396500Y566500D01*
X396500Y569350D02*
X403500Y569350D01*
X403500Y572200D02*
X396500Y572200D01*
D15*
X401500Y550000D03*
X418500Y550000D03*
D22*
X821500Y566500D02*
X821500Y573500D01*
X828500Y573500D01*
X828500Y566500D01*
X821500Y566500D01*
X821500Y569350D02*
X828500Y569350D01*
X828500Y572200D02*
X821500Y572200D01*
X796500Y573500D02*
X796500Y566500D01*
X796500Y573500D02*
X803500Y573500D01*
X803500Y566500D01*
X796500Y566500D01*
X796500Y569350D02*
X803500Y569350D01*
X803500Y572200D02*
X796500Y572200D01*
D15*
X801500Y550000D03*
X818500Y550000D03*
D22*
X1021500Y566500D02*
X1021500Y573500D01*
X1028500Y573500D01*
X1028500Y566500D01*
X1021500Y566500D01*
X1021500Y569350D02*
X1028500Y569350D01*
X1028500Y572200D02*
X1021500Y572200D01*
X996500Y573500D02*
X996500Y566500D01*
X996500Y573500D02*
X1003500Y573500D01*
X1003500Y566500D01*
X996500Y566500D01*
X996500Y569350D02*
X1003500Y569350D01*
X1003500Y572200D02*
X996500Y572200D01*
D15*
X1001500Y550000D03*
X1018500Y550000D03*
D22*
X1386500Y566500D02*
X1386500Y573500D01*
X1393500Y573500D01*
X1393500Y566500D01*
X1386500Y566500D01*
X1386500Y569350D02*
X1393500Y569350D01*
X1393500Y572200D02*
X1386500Y572200D01*
X1361500Y573500D02*
X1361500Y566500D01*
X1361500Y573500D02*
X1368500Y573500D01*
X1368500Y566500D01*
X1361500Y566500D01*
X1361500Y569350D02*
X1368500Y569350D01*
X1368500Y572200D02*
X1361500Y572200D01*
D15*
X1366500Y550000D03*
X1383500Y550000D03*
D22*
X1816500Y566500D02*
X1816500Y573500D01*
X1823500Y573500D01*
X1823500Y566500D01*
X1816500Y566500D01*
X1816500Y569350D02*
X1823500Y569350D01*
X1823500Y572200D02*
X1816500Y572200D01*
X1791500Y573500D02*
X1791500Y566500D01*
X1791500Y573500D02*
X1798500Y573500D01*
X1798500Y566500D01*
X1791500Y566500D01*
X1791500Y569350D02*
X1798500Y569350D01*
X1798500Y572200D02*
X1791500Y572200D01*
D15*
X1796500Y550000D03*
X1813500Y550000D03*
D22*
X2246500Y566500D02*
X2246500Y573500D01*
X2253500Y573500D01*
X2253500Y566500D01*
X2246500Y566500D01*
X2246500Y569350D02*
X2253500Y569350D01*
X2253500Y572200D02*
X2246500Y572200D01*
X2221500Y573500D02*
X2221500Y566500D01*
X2221500Y573500D02*
X2228500Y573500D01*
X2228500Y566500D01*
X2221500Y566500D01*
X2221500Y569350D02*
X2228500Y569350D01*
X2228500Y572200D02*
X2221500Y572200D01*
D15*
X2226500Y550000D03*
X2243500Y550000D03*
D22*
X2326500Y986500D02*
X2326500Y993500D01*
X2333500Y993500D01*
X2333500Y986500D01*
X2326500Y986500D01*
X2326500Y989350D02*
X2333500Y989350D01*
X2333500Y992200D02*
X2326500Y992200D01*
X2301500Y993500D02*
X2301500Y986500D01*
X2301500Y993500D02*
X2308500Y993500D01*
X2308500Y986500D01*
X2301500Y986500D01*
X2301500Y989350D02*
X2308500Y989350D01*
X2308500Y992200D02*
X2301500Y992200D01*
D15*
X2366500Y990000D03*
X2383500Y990000D03*
D23*
X854550Y444550D02*
X854550Y390000D01*
X854550Y444550D02*
X855000Y445000D01*
X994550Y444550D02*
X994550Y390000D01*
X994550Y444550D02*
X995000Y445000D01*
X2120000Y470000D02*
X2136500Y470000D01*
X994550Y450450D02*
X994550Y444550D01*
X994550Y450450D02*
X975000Y470000D01*
D24*
X975000Y470000D03*
D23*
X854550Y464550D02*
X854550Y444550D01*
X854550Y464550D02*
X860000Y470000D01*
D24*
X860000Y470000D03*
D23*
X488000Y1035700D02*
X505000Y1052700D01*
X505000Y1110000D01*
X390000Y1110000D01*
X390000Y1070000D01*
X398900Y1061100D01*
X408600Y1061100D01*
X292377Y944877D01*
X275000Y895426D02*
X275000Y870000D01*
X292377Y912802D02*
X292377Y944877D01*
X292377Y912802D02*
X275000Y895426D01*
X275000Y870000D02*
X280000Y865000D01*
X292377Y827198D02*
X292377Y812802D01*
X280000Y839574D02*
X280000Y865000D01*
X280000Y800426D02*
X280000Y772700D01*
X292377Y827198D02*
X280000Y839574D01*
X292377Y812802D02*
X280000Y800426D01*
D24*
X415000Y865000D03*
D23*
X415000Y848500D01*
X366500Y800000D01*
X330000Y800000D01*
X325000Y805000D01*
X325000Y820000D01*
X1750000Y800000D02*
X2180000Y800000D01*
X1750000Y800000D02*
X1320000Y800000D01*
X960000Y800000D01*
X750000Y800000D01*
X2170000Y790000D02*
X2170000Y770000D01*
X2170000Y790000D02*
X2180000Y800000D01*
X1740000Y790000D02*
X1740000Y770000D01*
X1740000Y790000D02*
X1750000Y800000D01*
X1310000Y790000D02*
X1310000Y770000D01*
X1310000Y790000D02*
X1320000Y800000D01*
X945000Y785000D02*
X945000Y770000D01*
X945000Y785000D02*
X960000Y800000D01*
X745000Y795000D02*
X745000Y770000D01*
X745000Y795000D02*
X750000Y800000D01*
X545000Y770000D02*
X476500Y770000D01*
X415000Y831500D01*
X440000Y806500D01*
X440000Y762700D01*
X450000Y752700D01*
X388500Y752700D01*
X384300Y756900D01*
X476500Y1086500D02*
X488000Y1086500D01*
X476500Y1086500D02*
X450000Y1060000D01*
X450000Y1020000D01*
X440300Y1010300D01*
X408600Y1010300D01*
X330000Y500000D02*
X328500Y500000D01*
X330000Y500000D02*
X490000Y500000D01*
X505000Y485000D01*
X540000Y485000D01*
X750000Y485000D01*
X913500Y485000D01*
X928500Y500000D01*
X540000Y488500D02*
X528500Y500000D01*
X540000Y488500D02*
X540000Y485000D01*
X728500Y500000D02*
X735000Y500000D01*
X750000Y485000D01*
X760000Y455000D02*
X760000Y370000D01*
X885450Y370000D01*
X905450Y390000D01*
X885450Y370000D02*
X927450Y370000D01*
X1026551Y371101D01*
X1045450Y390000D01*
X1170000Y390000D01*
X1235000Y455000D01*
X1280000Y455000D01*
X1280000Y450000D02*
X1290000Y450000D01*
X1290000Y455000D02*
X1385000Y455000D01*
X1490000Y455000D01*
X1590000Y455000D01*
X1695000Y450000D02*
X1710000Y450000D01*
X2180000Y450000D02*
X2195000Y450000D01*
X2290000Y455000D02*
X2390000Y455000D01*
X2390000Y435000D01*
X2380000Y425000D01*
X2372700Y425000D01*
X2290000Y450000D02*
X2290000Y455000D01*
X2290000Y450000D02*
X2290000Y442300D01*
X2272700Y425000D01*
X2195000Y447300D02*
X2195000Y450000D01*
X2195000Y447300D02*
X2172700Y425000D01*
X2090000Y440000D02*
X2090000Y445077D01*
X2090000Y440000D02*
X2075000Y425000D01*
X2072700Y425000D01*
X1990000Y435000D02*
X1990000Y450000D01*
X1990000Y435000D02*
X1980000Y425000D01*
X1972700Y425000D01*
X1890000Y442300D02*
X1890000Y450000D01*
X1890000Y442300D02*
X1872700Y425000D01*
X1790000Y442300D02*
X1790000Y450000D01*
X1790000Y442300D02*
X1772700Y425000D01*
X1695000Y447300D02*
X1695000Y450000D01*
X1695000Y447300D02*
X1672700Y425000D01*
X1590000Y450000D02*
X1590000Y455000D01*
X1590000Y450000D02*
X1590000Y442300D01*
X1572700Y425000D01*
X1490000Y442300D02*
X1490000Y455000D01*
X1490000Y442300D02*
X1472700Y425000D01*
X1385000Y437300D02*
X1385000Y455000D01*
X1385000Y437300D02*
X1372700Y425000D01*
X1290000Y450000D02*
X1290000Y455000D01*
X1290000Y450000D02*
X1290000Y442300D01*
X1272700Y425000D01*
X1280000Y486500D02*
X1293500Y500000D01*
X1280000Y486500D02*
X1280000Y455000D01*
X1280000Y450000D01*
X1710000Y486500D02*
X1723500Y500000D01*
X1710000Y486500D02*
X1710000Y450000D01*
X2153500Y500000D02*
X2180000Y473500D01*
X2180000Y450000D01*
X430000Y988900D02*
X408600Y1010300D01*
X430000Y988900D02*
X430000Y840000D01*
X421500Y831500D01*
X415000Y831500D01*
X1769943Y450000D02*
X1790000Y450000D01*
X1969943Y450000D02*
X1990000Y450000D01*
X2402154Y1154542D02*
X2387074Y1169622D01*
X2378685Y800000D02*
X2180000Y800000D01*
X2402154Y1125737D02*
X2402154Y1154542D01*
X384300Y756900D02*
X351900Y756900D01*
X345000Y750000D01*
X345000Y655000D01*
X365000Y635000D01*
X365000Y530000D01*
X350000Y515000D01*
X330000Y515000D01*
X330000Y500000D01*
X910531Y482031D02*
X928500Y500000D01*
X910531Y482031D02*
X787031Y482031D01*
X760000Y455000D01*
X2142931Y450143D02*
X2151669Y450143D01*
X2137866Y445077D02*
X2090000Y445077D01*
X2137866Y445077D02*
X2142931Y450143D01*
X2042789Y450000D02*
X1990000Y450000D01*
X2042789Y450000D02*
X2042931Y450143D01*
X1742789Y450000D02*
X1710000Y450000D01*
X1742789Y450000D02*
X1742931Y450143D01*
X1790000Y450000D02*
X1842789Y450000D01*
X1842931Y450143D01*
X1890000Y450000D02*
X1942789Y450000D01*
X1942931Y450143D01*
X2378931Y1056692D02*
X2378931Y1073699D01*
X2378931Y1056692D02*
X2402662Y1032961D01*
X2402662Y823977D01*
X2378685Y800000D01*
X1642789Y450000D02*
X1590000Y450000D01*
X1642789Y450000D02*
X1642931Y450143D01*
X2195000Y450000D02*
X2242789Y450000D01*
X2242931Y450143D01*
X750000Y800000D02*
X708809Y800000D01*
X708450Y799641D01*
X574641Y799641D02*
X545000Y770000D01*
X574641Y799641D02*
X708450Y799641D01*
X2256560Y449210D02*
X2263460Y449210D01*
X2264250Y450000D01*
X2290000Y450000D01*
X2327031Y1094052D02*
X2331909Y1098931D01*
X2327031Y1094052D02*
X2327031Y1087152D01*
X2331909Y1082273D01*
X1663460Y449210D02*
X1656560Y449210D01*
X1663460Y449210D02*
X1664250Y450000D01*
X1695000Y450000D01*
X1856560Y449210D02*
X1863460Y449210D01*
X1864250Y450000D01*
X1890000Y450000D01*
X2059419Y444540D02*
X2066319Y444540D01*
X1969943Y450000D02*
X1969153Y449210D01*
X1956560Y449210D01*
X1955627Y450143D01*
X1769943Y450000D02*
X1769153Y449210D01*
X1756560Y449210D01*
X1755627Y450143D01*
X2066319Y444540D02*
X2066855Y445077D01*
X2090000Y445077D01*
X2059419Y444540D02*
X2053817Y450143D01*
X2151669Y450143D02*
X2158345Y443466D01*
X2165245Y443466D01*
X2171779Y450000D02*
X2180000Y450000D01*
X2171779Y450000D02*
X2165245Y443466D01*
X1856560Y449210D02*
X1855627Y450143D01*
X1656560Y449210D02*
X1655627Y450143D01*
X2331909Y1098931D02*
X2375347Y1098931D01*
X2370357Y1082273D02*
X2378931Y1073699D01*
X2370357Y1082273D02*
X2331909Y1082273D01*
X2255627Y450143D02*
X2256560Y449210D01*
X2255627Y450143D02*
X2242931Y450143D01*
X2375347Y1098931D02*
X2402154Y1125737D01*
X1655627Y450143D02*
X1642931Y450143D01*
X1942931Y450143D02*
X1955627Y450143D01*
X1855627Y450143D02*
X1842931Y450143D01*
X1755627Y450143D02*
X1742931Y450143D01*
X2042931Y450143D02*
X2053817Y450143D01*
X2330000Y425000D02*
X2347300Y425000D01*
X2330000Y425000D02*
X2315000Y440000D01*
D24*
X2315000Y440000D03*
X2416058Y475000D03*
D23*
X2390000Y501058D01*
X2390000Y790000D01*
D24*
X2390000Y790000D03*
X2390000Y845000D03*
D23*
X2390000Y981406D01*
D24*
X2416058Y455000D03*
D23*
X2401058Y470000D01*
X2353500Y470000D01*
X2374465Y1054843D02*
X2374465Y1071850D01*
X2398197Y989602D02*
X2390000Y981406D01*
X2398197Y989602D02*
X2398197Y1031111D01*
X2374465Y1054843D01*
D24*
X2200359Y1130359D03*
D23*
X2200719Y1130000D02*
X2300000Y1130000D01*
X2200719Y1130000D02*
X2200359Y1130359D01*
X2322565Y1085303D02*
X2330060Y1077808D01*
X2368507Y1077808D02*
X2374465Y1071850D01*
X2322565Y1107435D02*
X2300000Y1130000D01*
X2330060Y1077808D02*
X2368507Y1077808D01*
X2322565Y1085303D02*
X2322565Y1107435D01*
D24*
X1480000Y505000D03*
D23*
X1660000Y685000D01*
X2095000Y685000D01*
X2115000Y705000D01*
X2115000Y790000D01*
D24*
X2115000Y790000D03*
X2115000Y840000D03*
D23*
X2115000Y930000D01*
X2120000Y1155000D02*
X2107674Y1167326D01*
X2107674Y1169622D01*
D24*
X1250000Y490000D03*
D23*
X1253500Y486500D01*
X1253500Y470000D01*
X2198151Y1021830D02*
X2204667Y1028345D01*
X2198151Y1021830D02*
X2198151Y1013151D01*
X2115000Y930000D01*
X2120000Y1155000D02*
X2131676Y1155000D01*
X2204667Y1028345D02*
X2217077Y1028345D01*
X2233097Y1053580D02*
X2131676Y1155000D01*
X2233097Y1053580D02*
X2233097Y1044365D01*
X2217077Y1028345D01*
D24*
X1490000Y495000D03*
D23*
X1670000Y675000D01*
X2240000Y675000D01*
X2340000Y775000D01*
X2340000Y790000D01*
D24*
X2340000Y790000D03*
X2340000Y850000D03*
D23*
X2360000Y1035000D02*
X2365000Y1040000D01*
X2365000Y1065000D01*
D24*
X1385000Y470000D03*
D23*
X1353500Y470000D01*
X2262122Y1035000D02*
X2360000Y1035000D01*
X2262122Y1035000D02*
X2248951Y1021830D01*
X2248951Y941049D02*
X2340000Y850000D01*
X2248951Y941049D02*
X2248951Y1021830D01*
X2266496Y1113504D02*
X2189192Y1113504D01*
X2133074Y1169622D01*
X2361123Y1068877D02*
X2365000Y1065000D01*
X2361123Y1068877D02*
X2311123Y1068877D01*
X2266496Y1113504D01*
D24*
X1505000Y495000D03*
D23*
X1675000Y665000D01*
X2245000Y665000D01*
X2355000Y775000D01*
X2355000Y790000D01*
D24*
X2355000Y790000D03*
X2375000Y845000D03*
D23*
X2370000Y1030000D02*
X2370000Y1070000D01*
X2175000Y1160000D02*
X2165378Y1169622D01*
X2158474Y1169622D01*
X1505000Y495000D02*
X1495000Y485000D01*
X1455000Y485000D01*
X1453500Y483500D01*
X1453500Y470000D01*
X2282522Y1030000D02*
X2370000Y1030000D01*
X2282522Y1030000D02*
X2274351Y1021830D01*
X2274351Y945649D02*
X2375000Y845000D01*
X2274351Y945649D02*
X2274351Y1021830D01*
X2366657Y1073343D02*
X2370000Y1070000D01*
X2366657Y1073343D02*
X2316657Y1073343D01*
X2267969Y1122031D01*
X2196909Y1122031D01*
X2175000Y1143940D01*
X2175000Y1160000D01*
D24*
X1520000Y495000D03*
D23*
X1550000Y525000D01*
X1550000Y473500D01*
X1553500Y470000D01*
X1685535Y660535D02*
X2246850Y660535D01*
X2410000Y823685D01*
X1685535Y660535D02*
X1550000Y525000D01*
X2370549Y1088396D02*
X2383396Y1075549D01*
X2370549Y1088396D02*
X2337565Y1088396D01*
X2383396Y1075549D02*
X2383396Y1058542D01*
X2410000Y1031938D02*
X2410000Y823685D01*
X2410000Y1031938D02*
X2383396Y1058542D01*
D24*
X2335359Y1090602D03*
D23*
X2337565Y1088396D01*
D24*
X1660010Y457539D03*
D23*
X1653500Y464049D02*
X1653500Y470000D01*
X1653500Y464049D02*
X1660010Y457539D01*
D24*
X1760010Y457539D03*
D23*
X1753500Y464049D02*
X1753500Y470000D01*
X1753500Y464049D02*
X1760010Y457539D01*
D24*
X1860010Y457539D03*
D23*
X1853500Y464049D02*
X1853500Y470000D01*
X1853500Y464049D02*
X1860010Y457539D01*
D24*
X1960010Y457539D03*
D23*
X1953500Y464049D02*
X1953500Y470000D01*
X1953500Y464049D02*
X1960010Y457539D01*
D24*
X2062869Y452869D03*
D23*
X2053500Y462238D02*
X2053500Y470000D01*
X2053500Y462238D02*
X2062869Y452869D01*
D24*
X2115000Y460000D03*
D23*
X2100000Y475000D01*
X1960000Y615000D01*
X1960000Y650000D01*
D24*
X1960000Y650000D03*
X1960000Y705000D03*
D23*
X1895000Y770000D01*
X1895000Y785000D01*
D24*
X1895000Y785000D03*
X1895000Y815000D03*
D23*
X1895000Y950496D01*
X1828274Y1017222D01*
X2110000Y485000D02*
X2100000Y475000D01*
X2110000Y485000D02*
X2115535Y479465D01*
X2151594Y470000D02*
X2153500Y470000D01*
X2115535Y468150D02*
X2115535Y479465D01*
X2142846Y461251D02*
X2151594Y470000D01*
X2122434Y461251D02*
X2115535Y468150D01*
X2122434Y461251D02*
X2142846Y461251D01*
D24*
X2161795Y451795D03*
D23*
X2153500Y460090D01*
X2153500Y470000D01*
D24*
X2215000Y470000D03*
D23*
X2190000Y495000D01*
X2190000Y510000D01*
D24*
X2190000Y510000D03*
X2085000Y510000D03*
D23*
X1975000Y620000D01*
X1975000Y650000D01*
D24*
X1975000Y650000D03*
X1975000Y705000D03*
D23*
X1910000Y770000D01*
X1910000Y785000D01*
D24*
X1910000Y785000D03*
X1910000Y815000D03*
D23*
X1910000Y915000D01*
D24*
X1910000Y915000D03*
X1872969Y930000D03*
D23*
X1872969Y947127D02*
X1802874Y1017222D01*
X1872969Y947127D02*
X1872969Y930000D01*
D24*
X2260010Y457539D03*
D23*
X2253500Y464049D02*
X2253500Y470000D01*
X2253500Y464049D02*
X2260010Y457539D01*
X1824052Y1140000D02*
X1853674Y1169622D01*
X1824052Y1140000D02*
X1380000Y1140000D01*
D24*
X1380000Y1140000D03*
X1409492Y1029492D03*
X1195000Y832004D03*
D23*
X1212004Y832004D02*
X1409492Y1029492D01*
X1212004Y832004D02*
X1195000Y832004D01*
X1865000Y770000D02*
X1880000Y785000D01*
D24*
X1880000Y785000D03*
D23*
X1865000Y770000D02*
X1821448Y770000D01*
D24*
X1880000Y815000D03*
D23*
X1885000Y820000D01*
X1815000Y1025000D02*
X1820000Y1030000D01*
X1918696Y1130000D02*
X1879074Y1169622D01*
X1811797Y760114D02*
X1804886Y753203D01*
X1811797Y760114D02*
X1811797Y760348D01*
X1821448Y770000D01*
X1773317Y770000D02*
X1765000Y770000D01*
X1773317Y770000D02*
X1790114Y753203D01*
X1804886Y753203D01*
X1918696Y1130000D02*
X1934426Y1130000D01*
X1885000Y944767D02*
X1885000Y820000D01*
X1815000Y1014767D02*
X1815000Y1025000D01*
X1815000Y1014767D02*
X1885000Y944767D01*
X1961325Y1103102D02*
X1934426Y1130000D01*
X1961325Y1103102D02*
X1961325Y1041550D01*
X1949775Y1030000D01*
X1820000Y1030000D01*
X2180000Y755000D02*
X2195000Y770000D01*
D24*
X1970000Y975000D03*
X2137031Y770000D03*
D23*
X2152031Y755000D02*
X2180000Y755000D01*
X2152031Y755000D02*
X2137031Y770000D01*
X1970000Y975000D02*
X1966397Y978603D01*
X1940997Y1148830D02*
X1934481Y1155345D01*
X1940997Y1148830D02*
X1940997Y1147688D01*
X1966397Y1122288D02*
X1966397Y978603D01*
X1966397Y1122288D02*
X1940997Y1147688D01*
X1918751Y1155345D02*
X1904474Y1169622D01*
X1918751Y1155345D02*
X1934481Y1155345D01*
D24*
X1970000Y1140000D03*
D23*
X1965000Y1145000D01*
X1955000Y1145000D01*
X1945462Y1154538D02*
X1945462Y1159034D01*
X1934874Y1169622D01*
X1929874Y1169622D01*
X1945462Y1154538D02*
X1955000Y1145000D01*
D24*
X1990000Y1140000D03*
D23*
X1960378Y1169622D01*
X1955274Y1169622D01*
D24*
X2005000Y1140000D03*
D23*
X1980674Y1164326D01*
X1980674Y1169622D01*
X697394Y547488D02*
X697394Y514106D01*
X711500Y500000D01*
X2209274Y1014274D02*
X2209274Y1017222D01*
X2209274Y1014274D02*
X2125000Y930000D01*
X2125000Y810000D01*
D24*
X2125000Y810000D03*
X2130000Y785000D03*
D23*
X2125000Y780000D01*
X2125000Y715000D01*
X2130000Y710000D01*
D24*
X2130000Y710000D03*
X2095000Y710000D03*
D23*
X1985000Y710000D01*
X1920000Y775000D01*
D24*
X1920000Y775000D03*
D23*
X497394Y547488D02*
X497394Y514106D01*
X511500Y500000D01*
X2150000Y983348D02*
X2183874Y1017222D01*
D24*
X1935000Y830000D03*
X1865000Y830000D03*
D23*
X1855000Y830000D01*
X1835000Y810000D01*
D24*
X705000Y807969D03*
D23*
X707031Y810000D02*
X1835000Y810000D01*
X707031Y810000D02*
X705000Y807969D01*
D24*
X2089933Y885000D03*
D23*
X2034933Y830000D02*
X1935000Y830000D01*
X2034933Y830000D02*
X2089933Y885000D01*
D24*
X2150000Y979282D03*
D23*
X2150000Y983348D01*
X297394Y547488D02*
X297394Y514106D01*
X311500Y500000D01*
X2121252Y980000D02*
X2158474Y1017222D01*
X2121252Y980000D02*
X2120000Y980000D01*
D24*
X2120000Y980000D03*
X2070000Y960000D03*
X1865000Y880000D03*
D23*
X1280000Y880000D01*
D24*
X450000Y820000D03*
D23*
X2056691Y960000D02*
X2070000Y960000D01*
X2056691Y960000D02*
X2046691Y970000D01*
D24*
X1974626Y920374D03*
D23*
X2024253Y970000D01*
X2046691Y970000D01*
X1144701Y819210D02*
X1143911Y820000D01*
X450000Y820000D01*
X1219210Y819210D02*
X1280000Y880000D01*
X1219210Y819210D02*
X1144701Y819210D01*
X897394Y547488D02*
X897394Y545000D01*
X897394Y514106D01*
X911500Y500000D01*
X2021608Y1001608D02*
X2035871Y1001608D01*
D24*
X1855000Y940000D03*
D23*
X1330000Y940000D01*
D24*
X1050000Y835000D03*
X850000Y730000D03*
D23*
X850000Y645000D01*
X780000Y575000D01*
X780000Y520000D01*
X785000Y515000D01*
X867394Y515000D01*
X897394Y545000D01*
D24*
X1955359Y940359D03*
D23*
X1960359Y940359D02*
X2021608Y1001608D01*
X1960359Y940359D02*
X1955359Y940359D01*
X2123404Y1017222D02*
X2133074Y1017222D01*
X2123404Y1017222D02*
X2112281Y1028345D01*
X2052267Y1028345D01*
X2042597Y1018675D01*
X2042597Y1008334D01*
X2035871Y1001608D01*
X1060535Y824465D02*
X1050000Y835000D01*
X1145760Y824465D02*
X1146550Y823675D01*
X1145760Y824465D02*
X1060535Y824465D01*
X1213675Y823675D02*
X1330000Y940000D01*
X1213675Y823675D02*
X1146550Y823675D01*
X1692394Y547488D02*
X1706500Y533382D01*
X1706500Y500000D01*
X1692394Y547488D02*
X1729906Y585000D01*
X1795000Y585000D01*
X1860000Y650000D01*
D24*
X1860000Y650000D03*
D23*
X2065000Y785000D02*
X2070000Y790000D01*
D24*
X2070000Y790000D03*
X2070000Y900000D03*
X1927969Y785000D03*
D23*
X2065000Y785000D01*
X2070000Y900000D02*
X2089143Y919143D01*
X2089143Y920978D01*
X2107674Y939510D02*
X2107674Y1017222D01*
X2107674Y939510D02*
X2089143Y920978D01*
X2122394Y547488D02*
X2136500Y533382D01*
X2136500Y500000D01*
X2122394Y547488D02*
X2080000Y589882D01*
X2080000Y650000D01*
D24*
X2080000Y650000D03*
X2060000Y925000D03*
D23*
X2085000Y1014496D02*
X2082274Y1017222D01*
X2085000Y1014496D02*
X2085000Y950000D01*
X2060000Y925000D01*
X1276500Y533382D02*
X1262394Y547488D01*
X1276500Y533382D02*
X1276500Y500000D01*
X1262394Y547488D02*
X1289906Y575000D01*
X1350000Y575000D01*
X1380000Y605000D01*
X1550000Y605000D01*
X1650000Y705000D01*
X1935000Y705000D01*
D24*
X1935000Y705000D03*
X1925000Y815000D03*
X2035000Y949492D03*
D23*
X1925000Y839492D02*
X1925000Y815000D01*
X1925000Y839492D02*
X2035000Y949492D01*
X625000Y570000D02*
X625000Y556500D01*
X618500Y550000D01*
X1000000Y570000D02*
X1180000Y750000D01*
X1180000Y790000D01*
D24*
X1180000Y790000D03*
X1815000Y985000D03*
X2045000Y990000D03*
D23*
X2065000Y990000D02*
X2070000Y995000D01*
X2065000Y990000D02*
X2045000Y990000D01*
D24*
X2070000Y995000D03*
D23*
X1815000Y985000D02*
X1790000Y960000D01*
X1468626Y960000D01*
D24*
X1180000Y832004D03*
D23*
X1183221Y832004D01*
X1336217Y985000D01*
X1406042Y1037821D02*
X1412942Y1037821D01*
X1417821Y1032942D01*
X1353221Y985000D02*
X1336217Y985000D01*
X1417821Y1010805D02*
X1468626Y960000D01*
X1406042Y1037821D02*
X1353221Y985000D01*
X1417821Y1010805D02*
X1417821Y1032942D01*
X585000Y755000D02*
X400000Y570000D01*
X585000Y755000D02*
X1130000Y755000D01*
D24*
X1130000Y755000D03*
D23*
X775000Y745000D02*
X600000Y570000D01*
X775000Y745000D02*
X1145000Y745000D01*
X1155000Y755000D01*
X1155000Y785000D01*
X1150000Y790000D01*
D24*
X1150000Y790000D03*
X1885000Y1065776D03*
D23*
X1884224Y1065000D01*
D24*
X1150000Y832004D03*
D23*
X1153221Y832004D01*
X1386217Y1065000D01*
X1884224Y1065000D01*
X970000Y740000D02*
X800000Y570000D01*
X970000Y740000D02*
X1150000Y740000D01*
X1165000Y755000D01*
X1165000Y790000D01*
D24*
X1165000Y790000D03*
D23*
X1952996Y1045000D02*
X1952996Y1045230D01*
X1944481Y1053745D01*
D24*
X1165000Y832004D03*
X1952996Y1045000D03*
D23*
X1168221Y832004D02*
X1165000Y832004D01*
X1389963Y1053745D02*
X1944481Y1053745D01*
X1389963Y1053745D02*
X1168221Y832004D01*
X1390000Y595000D02*
X1365000Y570000D01*
X1390000Y595000D02*
X1555000Y595000D01*
X1655000Y695000D01*
X1995000Y695000D01*
D24*
X1995000Y695000D03*
D23*
X1955000Y992096D02*
X1929874Y1017222D01*
D24*
X1955302Y960302D03*
D23*
X1955000Y960604D01*
X1955000Y992096D01*
X1875000Y650000D02*
X1795000Y570000D01*
X1875000Y650000D02*
X1945000Y650000D01*
D24*
X1945000Y650000D03*
X1930000Y980000D03*
D23*
X1904474Y1005526D01*
X1904474Y1017222D01*
X2220000Y575000D02*
X2225000Y570000D01*
X2220000Y575000D02*
X2220000Y650000D01*
D24*
X2220000Y650000D03*
X2095000Y815000D03*
X2097472Y917529D03*
D23*
X1922969Y973327D02*
X1879074Y1017222D01*
D24*
X2054569Y947031D03*
D23*
X2051496Y950104D02*
X2051496Y958880D01*
X2051496Y950104D02*
X2054569Y947031D01*
X2097472Y889240D02*
X2098262Y888450D01*
X2097472Y889240D02*
X2097472Y917529D01*
X1978076Y912045D02*
X1971177Y912045D01*
X2095000Y815000D02*
X2098262Y818262D01*
X2098262Y888450D01*
X2051496Y958880D02*
X2048090Y962286D01*
X1922969Y960252D02*
X1922969Y973327D01*
X1922969Y960252D02*
X1971177Y912045D01*
X2028317Y962286D02*
X2048090Y962286D01*
X2028317Y962286D02*
X1978076Y912045D01*
D24*
X2090000Y940000D03*
D23*
X2090000Y935057D01*
X2060000Y905057D01*
D24*
X2285000Y987969D03*
D23*
X2287031Y990000D02*
X2305000Y990000D01*
X2287031Y990000D02*
X2285000Y987969D01*
X2038450Y957821D02*
X2031550Y957821D01*
X2038450Y957821D02*
X2046241Y950030D01*
X1963317Y907580D02*
X1853674Y1017222D01*
X1963317Y907580D02*
X1981309Y907580D01*
X2031550Y957821D01*
X2046241Y950030D02*
X2046241Y918816D01*
X2060000Y905057D01*
X425000Y570000D02*
X425000Y556500D01*
X418500Y550000D01*
X825000Y556500D02*
X825000Y570000D01*
X825000Y556500D02*
X818500Y550000D01*
X1025000Y556500D02*
X1025000Y570000D01*
X1025000Y556500D02*
X1018500Y550000D01*
X1390000Y556500D02*
X1390000Y570000D01*
X1390000Y556500D02*
X1383500Y550000D01*
X1820000Y556500D02*
X1820000Y570000D01*
X1820000Y556500D02*
X1813500Y550000D01*
X2250000Y556500D02*
X2250000Y570000D01*
X2250000Y556500D02*
X2243500Y550000D01*
X2360154Y981251D02*
X2372846Y981251D01*
X2351406Y990000D02*
X2330000Y990000D01*
X2381594Y990000D02*
X2383500Y990000D01*
X2360154Y981251D02*
X2351406Y990000D01*
X2372846Y981251D02*
X2381594Y990000D01*
X1802874Y1169622D02*
X1788252Y1155000D01*
X1365000Y1155000D01*
X1345000Y1135000D01*
X1345000Y1110000D01*
X1355000Y1100000D01*
X1715000Y1100000D01*
D24*
X1715000Y1100000D03*
X1630000Y1025000D03*
D23*
X1575000Y970000D01*
X1565000Y970000D01*
D24*
X1565000Y970000D03*
X1215000Y790000D03*
D23*
X1215000Y725050D01*
X879950Y390000D01*
X1808652Y1150000D02*
X1828274Y1169622D01*
X1808652Y1150000D02*
X1370000Y1150000D01*
X1355000Y1135000D01*
X1355000Y1120000D01*
X1770000Y1120000D01*
D24*
X1770000Y1120000D03*
X1660000Y1025000D03*
D23*
X1605000Y970000D01*
X1590000Y970000D01*
D24*
X1590000Y970000D03*
X1230000Y790000D03*
D23*
X1230000Y600050D01*
X1019950Y390000D01*
M02*
