G04 EAGLE Gerber RS-274X export*
G75*
%MOMM*%
%FSLAX34Y34*%
%LPD*%
%INSilkscreen Bottom*%
%IPPOS*%
%AMOC8*
5,1,8,0,0,1.08239X$1,22.5*%
G01*
G04 Define Apertures*
%ADD10C,0.152400*%
%ADD11C,0.254000*%
%ADD12C,0.120000*%
%ADD13C,0.304800*%
%ADD14C,0.127000*%
G36*
X301831Y744407D02*
X302185Y744426D01*
X302529Y744457D01*
X302863Y744501D01*
X303187Y744557D01*
X303501Y744625D01*
X303805Y744706D01*
X304099Y744799D01*
X304383Y744905D01*
X304657Y745024D01*
X305175Y745298D01*
X305654Y745621D01*
X306092Y745995D01*
X306484Y746413D01*
X306824Y746869D01*
X306974Y747111D01*
X307111Y747363D01*
X307235Y747624D01*
X307346Y747896D01*
X307445Y748176D01*
X307529Y748466D01*
X307601Y748766D01*
X307660Y749076D01*
X307706Y749395D01*
X307739Y749723D01*
X307758Y750062D01*
X307765Y750409D01*
X307753Y750892D01*
X307717Y751354D01*
X307656Y751796D01*
X307572Y752218D01*
X307464Y752619D01*
X307331Y753001D01*
X307175Y753362D01*
X306994Y753702D01*
X306790Y754022D01*
X306562Y754320D01*
X306311Y754596D01*
X306037Y754850D01*
X305740Y755082D01*
X305419Y755292D01*
X305075Y755480D01*
X304708Y755647D01*
X304182Y754062D01*
X304444Y753946D01*
X304689Y753814D01*
X304919Y753666D01*
X305133Y753502D01*
X305331Y753322D01*
X305513Y753125D01*
X305679Y752912D01*
X305829Y752682D01*
X305963Y752439D01*
X306078Y752185D01*
X306176Y751919D01*
X306256Y751643D01*
X306318Y751356D01*
X306363Y751057D01*
X306389Y750747D01*
X306398Y750427D01*
X306378Y749929D01*
X306316Y749459D01*
X306213Y749018D01*
X306069Y748605D01*
X305883Y748221D01*
X305657Y747865D01*
X305389Y747538D01*
X305080Y747239D01*
X304735Y746972D01*
X304360Y746741D01*
X303954Y746545D01*
X303518Y746385D01*
X303051Y746260D01*
X302554Y746171D01*
X302026Y746118D01*
X301467Y746100D01*
X300914Y746119D01*
X300389Y746174D01*
X299891Y746267D01*
X299421Y746397D01*
X298979Y746564D01*
X298565Y746768D01*
X298178Y747009D01*
X297819Y747287D01*
X297496Y747597D01*
X297216Y747932D01*
X296979Y748295D01*
X296785Y748683D01*
X296634Y749097D01*
X296526Y749538D01*
X296461Y750004D01*
X296440Y750497D01*
X296450Y750816D01*
X296480Y751125D01*
X296530Y751424D01*
X296600Y751713D01*
X296691Y751991D01*
X296801Y752260D01*
X296931Y752519D01*
X297081Y752767D01*
X297252Y753006D01*
X297442Y753235D01*
X297653Y753453D01*
X297883Y753661D01*
X298134Y753860D01*
X298405Y754048D01*
X298695Y754226D01*
X299006Y754394D01*
X298323Y755761D01*
X297936Y755561D01*
X297574Y755341D01*
X297235Y755102D01*
X296919Y754844D01*
X296628Y754567D01*
X296361Y754270D01*
X296117Y753954D01*
X295897Y753619D01*
X295702Y753267D01*
X295533Y752902D01*
X295390Y752522D01*
X295273Y752129D01*
X295182Y751722D01*
X295117Y751301D01*
X295078Y750867D01*
X295065Y750418D01*
X295077Y749959D01*
X295113Y749517D01*
X295174Y749090D01*
X295259Y748678D01*
X295368Y748283D01*
X295501Y747903D01*
X295658Y747539D01*
X295840Y747190D01*
X296044Y746860D01*
X296269Y746550D01*
X296515Y746260D01*
X296782Y745991D01*
X297069Y745741D01*
X297377Y745512D01*
X297706Y745303D01*
X298056Y745115D01*
X298424Y744947D01*
X298809Y744802D01*
X299211Y744680D01*
X299629Y744579D01*
X300064Y744501D01*
X300515Y744446D01*
X300983Y744412D01*
X301467Y744401D01*
X301831Y744407D01*
G37*
G36*
X296580Y760938D02*
X306074Y760938D01*
X304086Y758153D01*
X305575Y758153D01*
X307581Y761070D01*
X307581Y762523D01*
X296580Y762523D01*
X296580Y765528D01*
X295240Y765528D01*
X295240Y757794D01*
X296580Y757794D01*
X296580Y760938D01*
G37*
G36*
X471831Y724407D02*
X472185Y724426D01*
X472529Y724457D01*
X472863Y724501D01*
X473187Y724557D01*
X473501Y724625D01*
X473805Y724706D01*
X474099Y724799D01*
X474383Y724905D01*
X474657Y725024D01*
X475175Y725298D01*
X475654Y725621D01*
X476092Y725995D01*
X476484Y726413D01*
X476824Y726869D01*
X476974Y727111D01*
X477111Y727363D01*
X477235Y727624D01*
X477346Y727896D01*
X477445Y728176D01*
X477529Y728466D01*
X477601Y728766D01*
X477660Y729076D01*
X477706Y729395D01*
X477739Y729723D01*
X477758Y730062D01*
X477765Y730409D01*
X477753Y730892D01*
X477717Y731354D01*
X477656Y731796D01*
X477572Y732218D01*
X477464Y732619D01*
X477331Y733001D01*
X477175Y733362D01*
X476994Y733702D01*
X476790Y734022D01*
X476562Y734320D01*
X476311Y734596D01*
X476037Y734850D01*
X475740Y735082D01*
X475419Y735292D01*
X475075Y735480D01*
X474708Y735647D01*
X474182Y734062D01*
X474444Y733946D01*
X474689Y733814D01*
X474919Y733666D01*
X475133Y733502D01*
X475331Y733322D01*
X475513Y733125D01*
X475679Y732912D01*
X475829Y732682D01*
X475963Y732439D01*
X476078Y732185D01*
X476176Y731919D01*
X476256Y731643D01*
X476318Y731356D01*
X476363Y731057D01*
X476389Y730747D01*
X476398Y730427D01*
X476378Y729929D01*
X476316Y729459D01*
X476213Y729018D01*
X476069Y728605D01*
X475883Y728221D01*
X475657Y727865D01*
X475389Y727538D01*
X475080Y727239D01*
X474735Y726972D01*
X474360Y726741D01*
X473954Y726545D01*
X473518Y726385D01*
X473051Y726260D01*
X472554Y726171D01*
X472026Y726118D01*
X471467Y726100D01*
X470914Y726119D01*
X470389Y726174D01*
X469891Y726267D01*
X469421Y726397D01*
X468979Y726564D01*
X468565Y726768D01*
X468178Y727009D01*
X467819Y727287D01*
X467496Y727597D01*
X467216Y727932D01*
X466979Y728295D01*
X466785Y728683D01*
X466634Y729097D01*
X466526Y729538D01*
X466461Y730004D01*
X466440Y730497D01*
X466450Y730816D01*
X466480Y731125D01*
X466530Y731424D01*
X466600Y731713D01*
X466691Y731991D01*
X466801Y732260D01*
X466931Y732519D01*
X467081Y732767D01*
X467252Y733006D01*
X467442Y733235D01*
X467653Y733453D01*
X467883Y733661D01*
X468134Y733860D01*
X468405Y734048D01*
X468695Y734226D01*
X469006Y734394D01*
X468323Y735761D01*
X467936Y735561D01*
X467574Y735341D01*
X467235Y735102D01*
X466919Y734844D01*
X466628Y734567D01*
X466361Y734270D01*
X466117Y733954D01*
X465897Y733619D01*
X465702Y733267D01*
X465533Y732902D01*
X465390Y732522D01*
X465273Y732129D01*
X465182Y731722D01*
X465117Y731301D01*
X465078Y730867D01*
X465065Y730418D01*
X465077Y729959D01*
X465113Y729517D01*
X465174Y729090D01*
X465259Y728678D01*
X465368Y728283D01*
X465501Y727903D01*
X465658Y727539D01*
X465840Y727190D01*
X466044Y726860D01*
X466269Y726550D01*
X466515Y726260D01*
X466782Y725991D01*
X467069Y725741D01*
X467377Y725512D01*
X467706Y725303D01*
X468056Y725115D01*
X468424Y724947D01*
X468809Y724802D01*
X469211Y724680D01*
X469629Y724579D01*
X470064Y724501D01*
X470515Y724446D01*
X470983Y724412D01*
X471467Y724401D01*
X471831Y724407D01*
G37*
G36*
X466850Y737565D02*
X467317Y737826D01*
X467754Y738111D01*
X468161Y738420D01*
X468544Y738746D01*
X468908Y739080D01*
X469253Y739423D01*
X469580Y739773D01*
X470192Y740479D01*
X470758Y741179D01*
X471301Y741841D01*
X471844Y742436D01*
X472119Y742703D01*
X472400Y742943D01*
X472688Y743156D01*
X472983Y743342D01*
X473290Y743494D01*
X473618Y743602D01*
X473965Y743667D01*
X474331Y743688D01*
X474578Y743679D01*
X474811Y743651D01*
X475029Y743605D01*
X475233Y743539D01*
X475423Y743456D01*
X475599Y743353D01*
X475761Y743232D01*
X475908Y743093D01*
X476039Y742937D01*
X476153Y742766D01*
X476249Y742581D01*
X476328Y742381D01*
X476390Y742167D01*
X476433Y741938D01*
X476460Y741695D01*
X476468Y741437D01*
X476460Y741191D01*
X476434Y740956D01*
X476391Y740732D01*
X476332Y740519D01*
X476255Y740317D01*
X476161Y740126D01*
X476049Y739946D01*
X475921Y739778D01*
X475777Y739623D01*
X475620Y739485D01*
X475448Y739364D01*
X475263Y739260D01*
X475064Y739172D01*
X474851Y739102D01*
X474624Y739048D01*
X474384Y739011D01*
X474533Y737400D01*
X474893Y737458D01*
X475235Y737544D01*
X475558Y737659D01*
X475862Y737801D01*
X476147Y737973D01*
X476413Y738172D01*
X476660Y738400D01*
X476889Y738657D01*
X477094Y738937D01*
X477272Y739236D01*
X477423Y739555D01*
X477546Y739893D01*
X477642Y740250D01*
X477710Y740626D01*
X477751Y741022D01*
X477765Y741437D01*
X477751Y741890D01*
X477710Y742316D01*
X477641Y742715D01*
X477545Y743087D01*
X477421Y743432D01*
X477270Y743750D01*
X477091Y744042D01*
X476884Y744306D01*
X476653Y744541D01*
X476398Y744745D01*
X476120Y744917D01*
X475819Y745058D01*
X475495Y745168D01*
X475148Y745246D01*
X474777Y745293D01*
X474384Y745309D01*
X474025Y745288D01*
X473668Y745227D01*
X473312Y745124D01*
X472956Y744980D01*
X472602Y744796D01*
X472247Y744572D01*
X471892Y744308D01*
X471537Y744004D01*
X471134Y743606D01*
X470633Y743060D01*
X470035Y742366D01*
X469339Y741525D01*
X468937Y741047D01*
X468556Y740621D01*
X468195Y740246D01*
X467854Y739922D01*
X467527Y739645D01*
X467205Y739410D01*
X466890Y739216D01*
X466580Y739064D01*
X466580Y745501D01*
X465240Y745501D01*
X465240Y737330D01*
X466352Y737330D01*
X466850Y737565D01*
G37*
G36*
X279341Y733653D02*
X279695Y733671D01*
X280039Y733702D01*
X280373Y733746D01*
X280697Y733802D01*
X281011Y733870D01*
X281315Y733951D01*
X281609Y734045D01*
X281893Y734151D01*
X282167Y734269D01*
X282685Y734543D01*
X283164Y734867D01*
X283602Y735240D01*
X283994Y735658D01*
X284334Y736114D01*
X284484Y736356D01*
X284621Y736608D01*
X284745Y736870D01*
X284856Y737141D01*
X284955Y737422D01*
X285039Y737712D01*
X285111Y738012D01*
X285170Y738321D01*
X285216Y738640D01*
X285249Y738969D01*
X285268Y739307D01*
X285275Y739655D01*
X285263Y740137D01*
X285227Y740599D01*
X285166Y741042D01*
X285082Y741463D01*
X284974Y741865D01*
X284841Y742246D01*
X284685Y742607D01*
X284504Y742948D01*
X284300Y743268D01*
X284072Y743565D01*
X283821Y743841D01*
X283547Y744095D01*
X283250Y744327D01*
X282929Y744538D01*
X282585Y744726D01*
X282218Y744892D01*
X281692Y743307D01*
X281954Y743192D01*
X282199Y743060D01*
X282429Y742912D01*
X282643Y742748D01*
X282841Y742567D01*
X283023Y742370D01*
X283189Y742157D01*
X283339Y741927D01*
X283473Y741684D01*
X283588Y741430D01*
X283686Y741165D01*
X283766Y740889D01*
X283828Y740601D01*
X283873Y740303D01*
X283899Y739993D01*
X283908Y739672D01*
X283888Y739174D01*
X283826Y738704D01*
X283723Y738263D01*
X283579Y737850D01*
X283393Y737466D01*
X283167Y737110D01*
X282899Y736783D01*
X282590Y736484D01*
X282245Y736217D01*
X281870Y735986D01*
X281464Y735790D01*
X281028Y735630D01*
X280561Y735506D01*
X280064Y735417D01*
X279536Y735363D01*
X278977Y735345D01*
X278424Y735364D01*
X277899Y735420D01*
X277401Y735512D01*
X276931Y735642D01*
X276489Y735809D01*
X276075Y736013D01*
X275688Y736254D01*
X275329Y736532D01*
X275006Y736842D01*
X274726Y737178D01*
X274489Y737540D01*
X274295Y737928D01*
X274144Y738342D01*
X274036Y738783D01*
X273971Y739250D01*
X273950Y739742D01*
X273960Y740061D01*
X273990Y740370D01*
X274040Y740669D01*
X274110Y740958D01*
X274201Y741237D01*
X274311Y741506D01*
X274441Y741764D01*
X274591Y742013D01*
X274762Y742251D01*
X274952Y742480D01*
X275163Y742698D01*
X275393Y742907D01*
X275644Y743105D01*
X275915Y743293D01*
X276205Y743472D01*
X276516Y743640D01*
X275833Y745006D01*
X275446Y744806D01*
X275084Y744587D01*
X274745Y744348D01*
X274429Y744090D01*
X274138Y743812D01*
X273871Y743516D01*
X273627Y743200D01*
X273407Y742865D01*
X273212Y742513D01*
X273043Y742147D01*
X272900Y741768D01*
X272783Y741375D01*
X272692Y740968D01*
X272627Y740547D01*
X272588Y740112D01*
X272575Y739663D01*
X272587Y739205D01*
X272623Y738762D01*
X272684Y738335D01*
X272769Y737924D01*
X272878Y737528D01*
X273011Y737148D01*
X273168Y736784D01*
X273350Y736436D01*
X273554Y736106D01*
X273779Y735795D01*
X274025Y735506D01*
X274292Y735236D01*
X274579Y734987D01*
X274887Y734758D01*
X275216Y734549D01*
X275566Y734360D01*
X275934Y734193D01*
X276319Y734048D01*
X276721Y733925D01*
X277139Y733825D01*
X277574Y733747D01*
X278025Y733691D01*
X278493Y733657D01*
X278977Y733646D01*
X279341Y733653D01*
G37*
G36*
X276069Y747985D02*
X275804Y748033D01*
X275556Y748096D01*
X275325Y748176D01*
X275112Y748271D01*
X274915Y748383D01*
X274735Y748511D01*
X274573Y748655D01*
X274427Y748815D01*
X274299Y748991D01*
X274188Y749183D01*
X274094Y749392D01*
X274017Y749616D01*
X273957Y749856D01*
X273914Y750113D01*
X273888Y750385D01*
X273880Y750674D01*
X273889Y750964D01*
X273917Y751238D01*
X273962Y751495D01*
X274027Y751737D01*
X274109Y751963D01*
X274210Y752173D01*
X274329Y752366D01*
X274467Y752544D01*
X274622Y752703D01*
X274796Y752841D01*
X274987Y752958D01*
X275196Y753053D01*
X275423Y753127D01*
X275667Y753180D01*
X275929Y753212D01*
X276210Y753223D01*
X276455Y753211D01*
X276686Y753174D01*
X276903Y753114D01*
X277106Y753029D01*
X277296Y752920D01*
X277472Y752787D01*
X277634Y752629D01*
X277782Y752448D01*
X277914Y752243D01*
X278029Y752017D01*
X278126Y751770D01*
X278205Y751501D01*
X278267Y751210D01*
X278311Y750898D01*
X278338Y750565D01*
X278347Y750210D01*
X278347Y749316D01*
X279713Y749316D01*
X279713Y750175D01*
X279722Y750490D01*
X279748Y750787D01*
X279792Y751065D01*
X279854Y751325D01*
X279934Y751568D01*
X280031Y751792D01*
X280146Y751997D01*
X280278Y752185D01*
X280426Y752352D01*
X280588Y752497D01*
X280763Y752620D01*
X280951Y752720D01*
X281153Y752798D01*
X281369Y752854D01*
X281599Y752888D01*
X281841Y752899D01*
X282082Y752890D01*
X282310Y752862D01*
X282525Y752817D01*
X282727Y752753D01*
X282916Y752671D01*
X283092Y752571D01*
X283255Y752453D01*
X283405Y752316D01*
X283539Y752162D01*
X283656Y751990D01*
X283754Y751800D01*
X283835Y751593D01*
X283898Y751368D01*
X283943Y751125D01*
X283969Y750864D01*
X283978Y750586D01*
X283970Y750332D01*
X283945Y750090D01*
X283903Y749861D01*
X283845Y749644D01*
X283770Y749439D01*
X283678Y749247D01*
X283569Y749068D01*
X283444Y748900D01*
X283304Y748748D01*
X283150Y748612D01*
X282982Y748493D01*
X282800Y748391D01*
X282605Y748306D01*
X282396Y748238D01*
X282174Y748186D01*
X281938Y748152D01*
X282060Y746566D01*
X282429Y746624D01*
X282776Y746711D01*
X283103Y746825D01*
X283409Y746968D01*
X283694Y747139D01*
X283959Y747339D01*
X284202Y747567D01*
X284425Y747823D01*
X284624Y748103D01*
X284797Y748403D01*
X284943Y748721D01*
X285062Y749059D01*
X285155Y749416D01*
X285222Y749793D01*
X285261Y750189D01*
X285275Y750604D01*
X285261Y751055D01*
X285221Y751481D01*
X285153Y751880D01*
X285059Y752254D01*
X284938Y752602D01*
X284789Y752924D01*
X284614Y753220D01*
X284412Y753490D01*
X284186Y753731D01*
X283938Y753940D01*
X283670Y754117D01*
X283380Y754262D01*
X283068Y754374D01*
X282736Y754455D01*
X282383Y754503D01*
X282008Y754519D01*
X281719Y754509D01*
X281444Y754478D01*
X281183Y754426D01*
X280936Y754354D01*
X280703Y754261D01*
X280483Y754147D01*
X280277Y754013D01*
X280085Y753858D01*
X279908Y753683D01*
X279745Y753490D01*
X279597Y753277D01*
X279465Y753047D01*
X279347Y752797D01*
X279244Y752528D01*
X279156Y752241D01*
X279082Y751935D01*
X279047Y751935D01*
X279000Y752272D01*
X278934Y752589D01*
X278847Y752887D01*
X278741Y753166D01*
X278615Y753426D01*
X278469Y753666D01*
X278304Y753888D01*
X278119Y754090D01*
X277918Y754271D01*
X277704Y754427D01*
X277478Y754560D01*
X277239Y754668D01*
X276987Y754752D01*
X276723Y754812D01*
X276446Y754849D01*
X276157Y754861D01*
X275742Y754844D01*
X275351Y754793D01*
X274985Y754708D01*
X274642Y754589D01*
X274323Y754436D01*
X274029Y754250D01*
X273758Y754029D01*
X273512Y753775D01*
X273292Y753489D01*
X273102Y753174D01*
X272941Y752829D01*
X272809Y752456D01*
X272707Y752054D01*
X272633Y751623D01*
X272590Y751163D01*
X272575Y750674D01*
X272588Y750217D01*
X272628Y749784D01*
X272694Y749375D01*
X272786Y748989D01*
X272905Y748627D01*
X273050Y748289D01*
X273222Y747974D01*
X273420Y747683D01*
X273644Y747418D01*
X273893Y747181D01*
X274168Y746973D01*
X274468Y746793D01*
X274793Y746641D01*
X275144Y746518D01*
X275519Y746423D01*
X275921Y746356D01*
X276069Y747985D01*
G37*
G36*
X1631661Y481474D02*
X1635506Y481474D01*
X1635506Y476350D01*
X1637179Y476350D01*
X1637179Y488691D01*
X1631372Y488691D01*
X1630865Y488676D01*
X1630389Y488632D01*
X1629942Y488560D01*
X1629525Y488458D01*
X1629137Y488326D01*
X1628779Y488166D01*
X1628451Y487977D01*
X1628153Y487758D01*
X1627887Y487513D01*
X1627657Y487246D01*
X1627462Y486956D01*
X1627302Y486642D01*
X1627178Y486306D01*
X1627090Y485947D01*
X1627036Y485566D01*
X1627019Y485161D01*
X1627031Y484824D01*
X1627069Y484501D01*
X1627131Y484191D01*
X1627219Y483895D01*
X1627332Y483613D01*
X1627469Y483345D01*
X1627632Y483090D01*
X1627820Y482849D01*
X1628030Y482625D01*
X1628259Y482424D01*
X1628507Y482243D01*
X1628618Y482177D01*
X1628774Y482085D01*
X1629060Y481948D01*
X1629365Y481832D01*
X1629689Y481739D01*
X1630032Y481666D01*
X1628540Y479403D01*
X1626528Y476350D01*
X1628455Y476350D01*
X1631661Y481474D01*
G37*
%LPC*%
G36*
X1631468Y482796D02*
X1631147Y482806D01*
X1630844Y482835D01*
X1630560Y482883D01*
X1630295Y482951D01*
X1630049Y483037D01*
X1629822Y483144D01*
X1629613Y483269D01*
X1629423Y483414D01*
X1629254Y483576D01*
X1629107Y483753D01*
X1628983Y483946D01*
X1628881Y484155D01*
X1628802Y484379D01*
X1628745Y484618D01*
X1628712Y484873D01*
X1628700Y485144D01*
X1628712Y485405D01*
X1628746Y485650D01*
X1628803Y485880D01*
X1628883Y486093D01*
X1628986Y486290D01*
X1629112Y486471D01*
X1629260Y486637D01*
X1629432Y486786D01*
X1629625Y486918D01*
X1629838Y487033D01*
X1630071Y487130D01*
X1630324Y487210D01*
X1630597Y487271D01*
X1630891Y487315D01*
X1631204Y487342D01*
X1631538Y487351D01*
X1635506Y487351D01*
X1635506Y482796D01*
X1631468Y482796D01*
G37*
%LPD*%
G36*
X1611437Y476184D02*
X1611771Y476213D01*
X1612087Y476260D01*
X1612386Y476327D01*
X1612667Y476413D01*
X1612929Y476517D01*
X1613174Y476641D01*
X1613401Y476784D01*
X1613611Y476947D01*
X1613806Y477135D01*
X1613985Y477345D01*
X1614149Y477579D01*
X1614297Y477837D01*
X1614430Y478118D01*
X1614547Y478422D01*
X1614649Y478750D01*
X1613142Y478986D01*
X1613006Y478625D01*
X1612835Y478312D01*
X1612628Y478047D01*
X1612385Y477830D01*
X1612107Y477662D01*
X1611793Y477541D01*
X1611443Y477469D01*
X1611255Y477451D01*
X1611058Y477445D01*
X1610728Y477465D01*
X1610417Y477524D01*
X1610126Y477622D01*
X1609854Y477760D01*
X1609600Y477937D01*
X1609366Y478154D01*
X1609152Y478410D01*
X1608956Y478706D01*
X1608781Y479038D01*
X1608628Y479404D01*
X1608497Y479803D01*
X1608389Y480237D01*
X1608302Y480703D01*
X1608238Y481204D01*
X1608196Y481738D01*
X1608176Y482306D01*
X1608272Y482114D01*
X1608383Y481931D01*
X1608509Y481758D01*
X1608652Y481595D01*
X1608809Y481442D01*
X1608983Y481298D01*
X1609172Y481164D01*
X1609376Y481040D01*
X1609591Y480928D01*
X1609812Y480831D01*
X1610037Y480749D01*
X1610268Y480682D01*
X1610503Y480630D01*
X1610744Y480593D01*
X1610990Y480570D01*
X1611242Y480563D01*
X1611648Y480581D01*
X1612032Y480634D01*
X1612396Y480723D01*
X1612740Y480848D01*
X1613062Y481008D01*
X1613364Y481203D01*
X1613644Y481435D01*
X1613904Y481701D01*
X1614139Y481998D01*
X1614341Y482317D01*
X1614513Y482660D01*
X1614653Y483026D01*
X1614763Y483416D01*
X1614841Y483828D01*
X1614887Y484264D01*
X1614903Y484723D01*
X1614886Y485194D01*
X1614835Y485639D01*
X1614750Y486059D01*
X1614631Y486452D01*
X1614479Y486819D01*
X1614292Y487161D01*
X1614071Y487477D01*
X1613817Y487767D01*
X1613532Y488026D01*
X1613221Y488251D01*
X1612883Y488442D01*
X1612518Y488598D01*
X1612127Y488719D01*
X1611710Y488805D01*
X1611266Y488857D01*
X1610795Y488875D01*
X1610542Y488869D01*
X1610296Y488851D01*
X1609828Y488779D01*
X1609392Y488660D01*
X1608987Y488494D01*
X1608612Y488279D01*
X1608269Y488017D01*
X1607958Y487708D01*
X1607677Y487351D01*
X1607429Y486946D01*
X1607214Y486493D01*
X1607031Y485992D01*
X1606882Y485444D01*
X1606766Y484847D01*
X1606684Y484203D01*
X1606634Y483510D01*
X1606617Y482770D01*
X1606636Y481998D01*
X1606690Y481272D01*
X1606781Y480592D01*
X1606908Y479959D01*
X1607071Y479371D01*
X1607270Y478829D01*
X1607506Y478333D01*
X1607778Y477883D01*
X1608083Y477482D01*
X1608420Y477136D01*
X1608787Y476842D01*
X1609185Y476602D01*
X1609613Y476415D01*
X1609839Y476342D01*
X1610073Y476282D01*
X1610314Y476235D01*
X1610563Y476202D01*
X1610820Y476182D01*
X1611084Y476175D01*
X1611437Y476184D01*
G37*
%LPC*%
G36*
X1610530Y481826D02*
X1610206Y481884D01*
X1609895Y481981D01*
X1609595Y482118D01*
X1609317Y482289D01*
X1609071Y482493D01*
X1608855Y482729D01*
X1608671Y482998D01*
X1608524Y483292D01*
X1608418Y483606D01*
X1608355Y483940D01*
X1608334Y484294D01*
X1608345Y484657D01*
X1608377Y485002D01*
X1608430Y485329D01*
X1608505Y485637D01*
X1608601Y485928D01*
X1608718Y486200D01*
X1608857Y486454D01*
X1609017Y486689D01*
X1609195Y486902D01*
X1609388Y487086D01*
X1609595Y487242D01*
X1609816Y487369D01*
X1610053Y487468D01*
X1610303Y487539D01*
X1610568Y487582D01*
X1610848Y487596D01*
X1611125Y487584D01*
X1611387Y487548D01*
X1611634Y487487D01*
X1611866Y487402D01*
X1612083Y487293D01*
X1612285Y487160D01*
X1612472Y487003D01*
X1612643Y486821D01*
X1612797Y486619D01*
X1612931Y486399D01*
X1613044Y486163D01*
X1613136Y485909D01*
X1613208Y485638D01*
X1613259Y485350D01*
X1613290Y485045D01*
X1613300Y484723D01*
X1613290Y484395D01*
X1613259Y484084D01*
X1613208Y483791D01*
X1613136Y483516D01*
X1613044Y483258D01*
X1612931Y483018D01*
X1612797Y482795D01*
X1612643Y482590D01*
X1612472Y482407D01*
X1612286Y482248D01*
X1612085Y482113D01*
X1611870Y482003D01*
X1611641Y481917D01*
X1611397Y481856D01*
X1611138Y481819D01*
X1610865Y481807D01*
X1610530Y481826D01*
G37*
%LPD*%
G36*
X1624346Y477690D02*
X1621202Y477690D01*
X1621202Y487184D01*
X1623987Y485196D01*
X1623987Y486685D01*
X1621071Y488691D01*
X1619617Y488691D01*
X1619617Y477690D01*
X1616612Y477690D01*
X1616612Y476350D01*
X1624346Y476350D01*
X1624346Y477690D01*
G37*
G36*
X2070285Y1073183D02*
X2070634Y1073208D01*
X2070972Y1073251D01*
X2071299Y1073310D01*
X2071616Y1073387D01*
X2071922Y1073480D01*
X2072217Y1073590D01*
X2072501Y1073717D01*
X2072775Y1073862D01*
X2073038Y1074023D01*
X2073290Y1074201D01*
X2073532Y1074396D01*
X2073763Y1074608D01*
X2073983Y1074837D01*
X2074192Y1075083D01*
X2074391Y1075346D01*
X2074578Y1075625D01*
X2074753Y1075920D01*
X2074916Y1076230D01*
X2075067Y1076555D01*
X2075206Y1076896D01*
X2075333Y1077252D01*
X2075447Y1077624D01*
X2075550Y1078011D01*
X2075641Y1078414D01*
X2075719Y1078832D01*
X2075786Y1079265D01*
X2075840Y1079714D01*
X2075882Y1080178D01*
X2075912Y1080658D01*
X2075930Y1081153D01*
X2075937Y1081664D01*
X2075930Y1082217D01*
X2075911Y1082754D01*
X2075880Y1083274D01*
X2075836Y1083779D01*
X2075780Y1084267D01*
X2075711Y1084738D01*
X2075629Y1085194D01*
X2075535Y1085633D01*
X2075428Y1086056D01*
X2075309Y1086462D01*
X2075177Y1086852D01*
X2075033Y1087226D01*
X2074876Y1087584D01*
X2074706Y1087925D01*
X2074524Y1088250D01*
X2074329Y1088559D01*
X2074123Y1088850D01*
X2073906Y1089122D01*
X2073679Y1089376D01*
X2073441Y1089611D01*
X2073192Y1089827D01*
X2072933Y1090024D01*
X2072663Y1090202D01*
X2072382Y1090362D01*
X2072091Y1090503D01*
X2071789Y1090625D01*
X2071476Y1090728D01*
X2071153Y1090813D01*
X2070819Y1090879D01*
X2070474Y1090926D01*
X2070119Y1090954D01*
X2069753Y1090963D01*
X2069276Y1090949D01*
X2068820Y1090908D01*
X2068388Y1090839D01*
X2067978Y1090743D01*
X2067590Y1090619D01*
X2067225Y1090468D01*
X2066883Y1090289D01*
X2066564Y1090083D01*
X2066267Y1089849D01*
X2065992Y1089588D01*
X2065741Y1089299D01*
X2065512Y1088983D01*
X2065305Y1088639D01*
X2065121Y1088267D01*
X2064960Y1087869D01*
X2064822Y1087442D01*
X2066932Y1087062D01*
X2067019Y1087317D01*
X2067118Y1087557D01*
X2067230Y1087779D01*
X2067353Y1087985D01*
X2067489Y1088175D01*
X2067637Y1088348D01*
X2067797Y1088504D01*
X2067968Y1088645D01*
X2068152Y1088768D01*
X2068348Y1088875D01*
X2068556Y1088966D01*
X2068777Y1089040D01*
X2069009Y1089098D01*
X2069253Y1089139D01*
X2069509Y1089164D01*
X2069778Y1089172D01*
X2070011Y1089165D01*
X2070237Y1089145D01*
X2070456Y1089110D01*
X2070669Y1089062D01*
X2070875Y1089000D01*
X2071075Y1088925D01*
X2071454Y1088732D01*
X2071807Y1088484D01*
X2072132Y1088182D01*
X2072431Y1087824D01*
X2072704Y1087412D01*
X2072947Y1086947D01*
X2073157Y1086433D01*
X2073336Y1085870D01*
X2073481Y1085257D01*
X2073595Y1084595D01*
X2073676Y1083884D01*
X2073724Y1083124D01*
X2073741Y1082314D01*
X2073583Y1082585D01*
X2073409Y1082839D01*
X2073221Y1083076D01*
X2073017Y1083297D01*
X2072797Y1083501D01*
X2072563Y1083689D01*
X2072313Y1083859D01*
X2072048Y1084013D01*
X2071770Y1084150D01*
X2071482Y1084268D01*
X2071184Y1084368D01*
X2070876Y1084450D01*
X2070558Y1084514D01*
X2070230Y1084560D01*
X2069893Y1084587D01*
X2069545Y1084596D01*
X2068962Y1084573D01*
X2068410Y1084503D01*
X2067890Y1084386D01*
X2067399Y1084222D01*
X2066940Y1084011D01*
X2066512Y1083754D01*
X2066115Y1083450D01*
X2065748Y1083099D01*
X2065419Y1082709D01*
X2065133Y1082287D01*
X2064892Y1081832D01*
X2064694Y1081345D01*
X2064541Y1080826D01*
X2064431Y1080275D01*
X2064365Y1079691D01*
X2064343Y1079075D01*
X2064366Y1078410D01*
X2064436Y1077780D01*
X2064552Y1077186D01*
X2064714Y1076628D01*
X2064923Y1076106D01*
X2065178Y1075620D01*
X2065480Y1075171D01*
X2065828Y1074757D01*
X2066216Y1074386D01*
X2066640Y1074065D01*
X2067100Y1073793D01*
X2067594Y1073570D01*
X2068124Y1073397D01*
X2068402Y1073329D01*
X2068689Y1073273D01*
X2068985Y1073230D01*
X2069290Y1073199D01*
X2069603Y1073181D01*
X2069925Y1073175D01*
X2070285Y1073183D01*
G37*
%LPC*%
G36*
X2069611Y1074970D02*
X2069244Y1075020D01*
X2068899Y1075104D01*
X2068576Y1075222D01*
X2068274Y1075373D01*
X2067993Y1075557D01*
X2067734Y1075775D01*
X2067496Y1076027D01*
X2067283Y1076308D01*
X2067099Y1076614D01*
X2066943Y1076945D01*
X2066815Y1077301D01*
X2066716Y1077683D01*
X2066645Y1078089D01*
X2066602Y1078521D01*
X2066588Y1078977D01*
X2066603Y1079433D01*
X2066646Y1079862D01*
X2066718Y1080264D01*
X2066818Y1080640D01*
X2066948Y1080988D01*
X2067106Y1081310D01*
X2067293Y1081605D01*
X2067508Y1081873D01*
X2067750Y1082111D01*
X2068014Y1082318D01*
X2068300Y1082493D01*
X2068609Y1082636D01*
X2068941Y1082748D01*
X2069296Y1082827D01*
X2069673Y1082875D01*
X2070072Y1082891D01*
X2070450Y1082877D01*
X2070808Y1082834D01*
X2071148Y1082764D01*
X2071469Y1082665D01*
X2071772Y1082539D01*
X2072056Y1082384D01*
X2072322Y1082200D01*
X2072569Y1081989D01*
X2072792Y1081753D01*
X2072985Y1081496D01*
X2073148Y1081217D01*
X2073282Y1080917D01*
X2073386Y1080596D01*
X2073460Y1080254D01*
X2073505Y1079890D01*
X2073520Y1079505D01*
X2073504Y1079016D01*
X2073458Y1078550D01*
X2073381Y1078107D01*
X2073273Y1077686D01*
X2073134Y1077288D01*
X2072964Y1076912D01*
X2072764Y1076560D01*
X2072532Y1076229D01*
X2072277Y1075930D01*
X2072003Y1075671D01*
X2071713Y1075452D01*
X2071405Y1075272D01*
X2071080Y1075133D01*
X2070737Y1075033D01*
X2070377Y1074973D01*
X2069999Y1074953D01*
X2069611Y1074970D01*
G37*
%LPD*%
G36*
X2078080Y1110367D02*
X2078019Y1109177D01*
X2077957Y1107128D01*
X2077957Y1095645D01*
X2080043Y1095645D01*
X2080043Y1112931D01*
X2077319Y1112931D01*
X2067971Y1098111D01*
X2068082Y1100184D01*
X2068109Y1100972D01*
X2068118Y1101595D01*
X2068118Y1112931D01*
X2066008Y1112931D01*
X2066008Y1095645D01*
X2068830Y1095645D01*
X2078080Y1110367D01*
G37*
G36*
X2096793Y1112931D02*
X2083678Y1112931D01*
X2083678Y1111017D01*
X2094450Y1111017D01*
X2094450Y1105472D01*
X2084414Y1105472D01*
X2084414Y1103582D01*
X2094450Y1103582D01*
X2094450Y1097559D01*
X2083175Y1097559D01*
X2083175Y1095645D01*
X2096793Y1095645D01*
X2096793Y1112931D01*
G37*
G36*
X2113543Y1112931D02*
X2100428Y1112931D01*
X2100428Y1111017D01*
X2111200Y1111017D01*
X2111200Y1105472D01*
X2101164Y1105472D01*
X2101164Y1103582D01*
X2111200Y1103582D01*
X2111200Y1097559D01*
X2099925Y1097559D01*
X2099925Y1095645D01*
X2113543Y1095645D01*
X2113543Y1112931D01*
G37*
G36*
X2056252Y1095417D02*
X2056979Y1095468D01*
X2057665Y1095554D01*
X2058310Y1095674D01*
X2058913Y1095828D01*
X2059474Y1096017D01*
X2059994Y1096240D01*
X2060473Y1096498D01*
X2060910Y1096789D01*
X2061305Y1097115D01*
X2061659Y1097475D01*
X2061972Y1097870D01*
X2062243Y1098299D01*
X2062472Y1098762D01*
X2062660Y1099260D01*
X2062807Y1099791D01*
X2060537Y1100245D01*
X2060425Y1099869D01*
X2060286Y1099518D01*
X2060119Y1099193D01*
X2059924Y1098894D01*
X2059701Y1098621D01*
X2059452Y1098374D01*
X2059174Y1098153D01*
X2058869Y1097957D01*
X2058535Y1097786D01*
X2058173Y1097638D01*
X2057782Y1097513D01*
X2057363Y1097410D01*
X2056915Y1097330D01*
X2056437Y1097273D01*
X2055932Y1097239D01*
X2055397Y1097227D01*
X2054846Y1097240D01*
X2054327Y1097276D01*
X2053840Y1097337D01*
X2053386Y1097422D01*
X2052965Y1097532D01*
X2052576Y1097666D01*
X2052219Y1097824D01*
X2051894Y1098006D01*
X2051605Y1098213D01*
X2051355Y1098442D01*
X2051143Y1098693D01*
X2050970Y1098968D01*
X2050835Y1099265D01*
X2050738Y1099586D01*
X2050681Y1099929D01*
X2050661Y1100294D01*
X2050667Y1100501D01*
X2050686Y1100698D01*
X2050716Y1100884D01*
X2050758Y1101061D01*
X2050879Y1101385D01*
X2051048Y1101668D01*
X2051261Y1101921D01*
X2051513Y1102150D01*
X2051804Y1102356D01*
X2052134Y1102540D01*
X2052500Y1102704D01*
X2052900Y1102855D01*
X2053334Y1102993D01*
X2053802Y1103116D01*
X2055949Y1103619D01*
X2056912Y1103846D01*
X2057751Y1104073D01*
X2058467Y1104300D01*
X2059059Y1104527D01*
X2059562Y1104760D01*
X2060008Y1105007D01*
X2060399Y1105266D01*
X2060734Y1105539D01*
X2061022Y1105830D01*
X2061275Y1106145D01*
X2061491Y1106483D01*
X2061672Y1106846D01*
X2061814Y1107234D01*
X2061916Y1107649D01*
X2061977Y1108092D01*
X2061997Y1108563D01*
X2061990Y1108837D01*
X2061971Y1109102D01*
X2061937Y1109360D01*
X2061891Y1109610D01*
X2061831Y1109852D01*
X2061758Y1110085D01*
X2061572Y1110529D01*
X2061333Y1110941D01*
X2061041Y1111321D01*
X2060696Y1111669D01*
X2060298Y1111986D01*
X2059850Y1112268D01*
X2059357Y1112512D01*
X2058817Y1112719D01*
X2058232Y1112888D01*
X2057601Y1113019D01*
X2056925Y1113113D01*
X2056202Y1113169D01*
X2055434Y1113188D01*
X2054719Y1113174D01*
X2054048Y1113132D01*
X2053420Y1113061D01*
X2052836Y1112963D01*
X2052295Y1112836D01*
X2051797Y1112681D01*
X2051343Y1112498D01*
X2050931Y1112287D01*
X2050556Y1112041D01*
X2050211Y1111756D01*
X2049894Y1111432D01*
X2049606Y1111067D01*
X2049348Y1110663D01*
X2049119Y1110220D01*
X2048919Y1109736D01*
X2048748Y1109213D01*
X2051054Y1108809D01*
X2051160Y1109140D01*
X2051287Y1109448D01*
X2051436Y1109733D01*
X2051606Y1109994D01*
X2051798Y1110231D01*
X2052011Y1110445D01*
X2052246Y1110635D01*
X2052502Y1110802D01*
X2052781Y1110947D01*
X2053087Y1111073D01*
X2053418Y1111180D01*
X2053774Y1111267D01*
X2054157Y1111334D01*
X2054565Y1111383D01*
X2054999Y1111412D01*
X2055458Y1111422D01*
X2055961Y1111411D01*
X2056434Y1111379D01*
X2056875Y1111325D01*
X2057286Y1111250D01*
X2057666Y1111153D01*
X2058016Y1111035D01*
X2058335Y1110896D01*
X2058623Y1110735D01*
X2058879Y1110552D01*
X2059101Y1110349D01*
X2059289Y1110124D01*
X2059442Y1109879D01*
X2059562Y1109612D01*
X2059647Y1109325D01*
X2059698Y1109016D01*
X2059715Y1108686D01*
X2059709Y1108491D01*
X2059689Y1108304D01*
X2059656Y1108127D01*
X2059609Y1107957D01*
X2059550Y1107797D01*
X2059477Y1107645D01*
X2059292Y1107367D01*
X2059057Y1107116D01*
X2058775Y1106885D01*
X2058447Y1106675D01*
X2058071Y1106484D01*
X2057574Y1106292D01*
X2056878Y1106080D01*
X2055985Y1105848D01*
X2054894Y1105594D01*
X2053305Y1105220D01*
X2052531Y1105012D01*
X2051790Y1104766D01*
X2051089Y1104479D01*
X2050434Y1104147D01*
X2050129Y1103959D01*
X2049844Y1103751D01*
X2049580Y1103523D01*
X2049336Y1103276D01*
X2049116Y1103006D01*
X2048921Y1102714D01*
X2048751Y1102399D01*
X2048607Y1102061D01*
X2048491Y1101696D01*
X2048409Y1101300D01*
X2048359Y1100874D01*
X2048343Y1100417D01*
X2048350Y1100122D01*
X2048372Y1099836D01*
X2048409Y1099558D01*
X2048460Y1099288D01*
X2048525Y1099027D01*
X2048606Y1098775D01*
X2048701Y1098531D01*
X2048810Y1098295D01*
X2048935Y1098067D01*
X2049074Y1097849D01*
X2049227Y1097638D01*
X2049395Y1097436D01*
X2049775Y1097057D01*
X2050214Y1096712D01*
X2050705Y1096405D01*
X2051245Y1096138D01*
X2051832Y1095912D01*
X2052466Y1095728D01*
X2053149Y1095584D01*
X2053879Y1095482D01*
X2054657Y1095420D01*
X2055483Y1095400D01*
X2056252Y1095417D01*
G37*
G36*
X2091785Y1073193D02*
X2092391Y1073249D01*
X2092965Y1073341D01*
X2093505Y1073470D01*
X2094012Y1073637D01*
X2094486Y1073840D01*
X2094927Y1074081D01*
X2095334Y1074358D01*
X2095706Y1074672D01*
X2096037Y1075021D01*
X2096329Y1075406D01*
X2096581Y1075826D01*
X2096794Y1076281D01*
X2096966Y1076773D01*
X2097100Y1077299D01*
X2097193Y1077861D01*
X2094911Y1078069D01*
X2094845Y1077698D01*
X2094756Y1077351D01*
X2094644Y1077027D01*
X2094510Y1076728D01*
X2094354Y1076452D01*
X2094174Y1076201D01*
X2093973Y1075973D01*
X2093749Y1075769D01*
X2093502Y1075590D01*
X2093233Y1075434D01*
X2092941Y1075302D01*
X2092627Y1075194D01*
X2092290Y1075110D01*
X2091931Y1075050D01*
X2091549Y1075014D01*
X2091145Y1075002D01*
X2090739Y1075015D01*
X2090355Y1075054D01*
X2089994Y1075118D01*
X2089656Y1075208D01*
X2089340Y1075324D01*
X2089046Y1075465D01*
X2088775Y1075632D01*
X2088526Y1075824D01*
X2088303Y1076042D01*
X2088110Y1076285D01*
X2087946Y1076553D01*
X2087813Y1076846D01*
X2087709Y1077163D01*
X2087634Y1077506D01*
X2087590Y1077873D01*
X2087575Y1078266D01*
X2087592Y1078609D01*
X2087643Y1078932D01*
X2087728Y1079237D01*
X2087846Y1079522D01*
X2087999Y1079787D01*
X2088186Y1080034D01*
X2088406Y1080260D01*
X2088661Y1080468D01*
X2088947Y1080653D01*
X2089264Y1080814D01*
X2089610Y1080950D01*
X2089987Y1081061D01*
X2090394Y1081148D01*
X2090831Y1081210D01*
X2091298Y1081247D01*
X2091795Y1081259D01*
X2093046Y1081259D01*
X2093046Y1083173D01*
X2091844Y1083173D01*
X2091403Y1083185D01*
X2090987Y1083222D01*
X2090597Y1083284D01*
X2090232Y1083371D01*
X2089893Y1083482D01*
X2089580Y1083618D01*
X2089291Y1083779D01*
X2089029Y1083964D01*
X2088794Y1084172D01*
X2088591Y1084398D01*
X2088419Y1084643D01*
X2088279Y1084907D01*
X2088169Y1085191D01*
X2088091Y1085493D01*
X2088044Y1085814D01*
X2088029Y1086154D01*
X2088041Y1086492D01*
X2088080Y1086811D01*
X2088143Y1087112D01*
X2088233Y1087395D01*
X2088347Y1087659D01*
X2088488Y1087906D01*
X2088653Y1088134D01*
X2088845Y1088344D01*
X2089061Y1088532D01*
X2089302Y1088696D01*
X2089568Y1088834D01*
X2089858Y1088947D01*
X2090173Y1089035D01*
X2090513Y1089097D01*
X2090878Y1089135D01*
X2091268Y1089148D01*
X2091624Y1089136D01*
X2091963Y1089101D01*
X2092284Y1089042D01*
X2092588Y1088960D01*
X2092874Y1088855D01*
X2093143Y1088727D01*
X2093395Y1088575D01*
X2093629Y1088399D01*
X2093843Y1088203D01*
X2094033Y1087987D01*
X2094199Y1087752D01*
X2094342Y1087497D01*
X2094462Y1087224D01*
X2094557Y1086932D01*
X2094629Y1086620D01*
X2094678Y1086289D01*
X2096899Y1086461D01*
X2096817Y1086977D01*
X2096697Y1087464D01*
X2096536Y1087921D01*
X2096336Y1088350D01*
X2096096Y1088750D01*
X2095816Y1089120D01*
X2095497Y1089461D01*
X2095138Y1089773D01*
X2094746Y1090052D01*
X2094326Y1090294D01*
X2093880Y1090498D01*
X2093407Y1090666D01*
X2092906Y1090796D01*
X2092379Y1090889D01*
X2091824Y1090945D01*
X2091243Y1090963D01*
X2090611Y1090944D01*
X2090015Y1090888D01*
X2089455Y1090793D01*
X2088932Y1090661D01*
X2088445Y1090491D01*
X2087994Y1090283D01*
X2087579Y1090038D01*
X2087201Y1089755D01*
X2086863Y1089438D01*
X2086570Y1089091D01*
X2086322Y1088715D01*
X2086120Y1088309D01*
X2085962Y1087873D01*
X2085849Y1087407D01*
X2085782Y1086912D01*
X2085759Y1086387D01*
X2085774Y1085983D01*
X2085817Y1085598D01*
X2085889Y1085232D01*
X2085991Y1084886D01*
X2086121Y1084559D01*
X2086280Y1084251D01*
X2086468Y1083963D01*
X2086685Y1083694D01*
X2086930Y1083446D01*
X2087201Y1083218D01*
X2087498Y1083011D01*
X2087822Y1082825D01*
X2088171Y1082660D01*
X2088547Y1082515D01*
X2088950Y1082392D01*
X2089378Y1082290D01*
X2089378Y1082241D01*
X2088907Y1082175D01*
X2088463Y1082081D01*
X2088045Y1081960D01*
X2087655Y1081811D01*
X2087291Y1081635D01*
X2086954Y1081431D01*
X2086644Y1081199D01*
X2086360Y1080940D01*
X2086107Y1080658D01*
X2085888Y1080359D01*
X2085702Y1080042D01*
X2085551Y1079707D01*
X2085433Y1079355D01*
X2085348Y1078985D01*
X2085298Y1078597D01*
X2085281Y1078192D01*
X2085287Y1077897D01*
X2085304Y1077611D01*
X2085376Y1077063D01*
X2085495Y1076550D01*
X2085661Y1076070D01*
X2085875Y1075624D01*
X2086136Y1075211D01*
X2086445Y1074832D01*
X2086802Y1074487D01*
X2087203Y1074180D01*
X2087644Y1073913D01*
X2088126Y1073687D01*
X2088648Y1073503D01*
X2089211Y1073359D01*
X2089815Y1073257D01*
X2090460Y1073195D01*
X2091145Y1073175D01*
X2091785Y1073193D01*
G37*
G36*
X2039996Y1102809D02*
X2046646Y1112931D01*
X2044069Y1112931D01*
X2038806Y1104699D01*
X2033568Y1112931D01*
X2030992Y1112931D01*
X2037665Y1102809D01*
X2037665Y1095645D01*
X2039996Y1095645D01*
X2039996Y1102809D01*
G37*
G36*
X2124446Y1111017D02*
X2130383Y1111017D01*
X2130383Y1112931D01*
X2116177Y1112931D01*
X2116177Y1111017D01*
X2122115Y1111017D01*
X2122115Y1095645D01*
X2124446Y1095645D01*
X2124446Y1111017D01*
G37*
G36*
X2081887Y1076107D02*
X2079495Y1076107D01*
X2079495Y1073420D01*
X2081887Y1073420D01*
X2081887Y1076107D01*
G37*
D10*
X292700Y738410D02*
X292700Y781590D01*
X267300Y781590D02*
X267300Y738410D01*
X269840Y784130D02*
X290160Y784130D01*
X290160Y735870D02*
X269840Y735870D01*
X292700Y781590D02*
X292698Y781690D01*
X292692Y781789D01*
X292682Y781889D01*
X292669Y781987D01*
X292651Y782086D01*
X292630Y782183D01*
X292605Y782279D01*
X292576Y782375D01*
X292543Y782469D01*
X292507Y782562D01*
X292467Y782653D01*
X292423Y782743D01*
X292376Y782831D01*
X292326Y782917D01*
X292272Y783001D01*
X292215Y783083D01*
X292155Y783162D01*
X292091Y783240D01*
X292025Y783314D01*
X291956Y783386D01*
X291884Y783455D01*
X291810Y783521D01*
X291732Y783585D01*
X291653Y783645D01*
X291571Y783702D01*
X291487Y783756D01*
X291401Y783806D01*
X291313Y783853D01*
X291223Y783897D01*
X291132Y783937D01*
X291039Y783973D01*
X290945Y784006D01*
X290849Y784035D01*
X290753Y784060D01*
X290656Y784081D01*
X290557Y784099D01*
X290459Y784112D01*
X290359Y784122D01*
X290260Y784128D01*
X290160Y784130D01*
X292700Y738410D02*
X292698Y738310D01*
X292692Y738211D01*
X292682Y738111D01*
X292669Y738013D01*
X292651Y737914D01*
X292630Y737817D01*
X292605Y737721D01*
X292576Y737625D01*
X292543Y737531D01*
X292507Y737438D01*
X292467Y737347D01*
X292423Y737257D01*
X292376Y737169D01*
X292326Y737083D01*
X292272Y736999D01*
X292215Y736917D01*
X292155Y736838D01*
X292091Y736760D01*
X292025Y736686D01*
X291956Y736614D01*
X291884Y736545D01*
X291810Y736479D01*
X291732Y736415D01*
X291653Y736355D01*
X291571Y736298D01*
X291487Y736244D01*
X291401Y736194D01*
X291313Y736147D01*
X291223Y736103D01*
X291132Y736063D01*
X291039Y736027D01*
X290945Y735994D01*
X290849Y735965D01*
X290753Y735940D01*
X290656Y735919D01*
X290557Y735901D01*
X290459Y735888D01*
X290359Y735878D01*
X290260Y735872D01*
X290160Y735870D01*
X267300Y781590D02*
X267302Y781690D01*
X267308Y781789D01*
X267318Y781889D01*
X267331Y781987D01*
X267349Y782086D01*
X267370Y782183D01*
X267395Y782279D01*
X267424Y782375D01*
X267457Y782469D01*
X267493Y782562D01*
X267533Y782653D01*
X267577Y782743D01*
X267624Y782831D01*
X267674Y782917D01*
X267728Y783001D01*
X267785Y783083D01*
X267845Y783162D01*
X267909Y783240D01*
X267975Y783314D01*
X268044Y783386D01*
X268116Y783455D01*
X268190Y783521D01*
X268268Y783585D01*
X268347Y783645D01*
X268429Y783702D01*
X268513Y783756D01*
X268599Y783806D01*
X268687Y783853D01*
X268777Y783897D01*
X268868Y783937D01*
X268961Y783973D01*
X269055Y784006D01*
X269151Y784035D01*
X269247Y784060D01*
X269344Y784081D01*
X269443Y784099D01*
X269541Y784112D01*
X269641Y784122D01*
X269740Y784128D01*
X269840Y784130D01*
X267300Y738410D02*
X267302Y738310D01*
X267308Y738211D01*
X267318Y738111D01*
X267331Y738013D01*
X267349Y737914D01*
X267370Y737817D01*
X267395Y737721D01*
X267424Y737625D01*
X267457Y737531D01*
X267493Y737438D01*
X267533Y737347D01*
X267577Y737257D01*
X267624Y737169D01*
X267674Y737083D01*
X267728Y736999D01*
X267785Y736917D01*
X267845Y736838D01*
X267909Y736760D01*
X267975Y736686D01*
X268044Y736614D01*
X268116Y736545D01*
X268190Y736479D01*
X268268Y736415D01*
X268347Y736355D01*
X268429Y736298D01*
X268513Y736244D01*
X268599Y736194D01*
X268687Y736147D01*
X268777Y736103D01*
X268868Y736063D01*
X268961Y736027D01*
X269055Y735994D01*
X269151Y735965D01*
X269247Y735940D01*
X269344Y735919D01*
X269443Y735901D01*
X269541Y735888D01*
X269641Y735878D01*
X269740Y735872D01*
X269840Y735870D01*
X280000Y762540D02*
X280000Y763810D01*
D11*
X280000Y762540D02*
X287620Y762540D01*
X280000Y762540D02*
X272380Y762540D01*
X280000Y757460D02*
X287620Y757460D01*
X280000Y757460D02*
X272380Y757460D01*
D10*
X280000Y757460D02*
X280000Y756190D01*
X462700Y761590D02*
X462700Y718410D01*
X437300Y718410D02*
X437300Y761590D01*
X439840Y764130D02*
X460160Y764130D01*
X460160Y715870D02*
X439840Y715870D01*
X462700Y761590D02*
X462698Y761690D01*
X462692Y761789D01*
X462682Y761889D01*
X462669Y761987D01*
X462651Y762086D01*
X462630Y762183D01*
X462605Y762279D01*
X462576Y762375D01*
X462543Y762469D01*
X462507Y762562D01*
X462467Y762653D01*
X462423Y762743D01*
X462376Y762831D01*
X462326Y762917D01*
X462272Y763001D01*
X462215Y763083D01*
X462155Y763162D01*
X462091Y763240D01*
X462025Y763314D01*
X461956Y763386D01*
X461884Y763455D01*
X461810Y763521D01*
X461732Y763585D01*
X461653Y763645D01*
X461571Y763702D01*
X461487Y763756D01*
X461401Y763806D01*
X461313Y763853D01*
X461223Y763897D01*
X461132Y763937D01*
X461039Y763973D01*
X460945Y764006D01*
X460849Y764035D01*
X460753Y764060D01*
X460656Y764081D01*
X460557Y764099D01*
X460459Y764112D01*
X460359Y764122D01*
X460260Y764128D01*
X460160Y764130D01*
X462700Y718410D02*
X462698Y718310D01*
X462692Y718211D01*
X462682Y718111D01*
X462669Y718013D01*
X462651Y717914D01*
X462630Y717817D01*
X462605Y717721D01*
X462576Y717625D01*
X462543Y717531D01*
X462507Y717438D01*
X462467Y717347D01*
X462423Y717257D01*
X462376Y717169D01*
X462326Y717083D01*
X462272Y716999D01*
X462215Y716917D01*
X462155Y716838D01*
X462091Y716760D01*
X462025Y716686D01*
X461956Y716614D01*
X461884Y716545D01*
X461810Y716479D01*
X461732Y716415D01*
X461653Y716355D01*
X461571Y716298D01*
X461487Y716244D01*
X461401Y716194D01*
X461313Y716147D01*
X461223Y716103D01*
X461132Y716063D01*
X461039Y716027D01*
X460945Y715994D01*
X460849Y715965D01*
X460753Y715940D01*
X460656Y715919D01*
X460557Y715901D01*
X460459Y715888D01*
X460359Y715878D01*
X460260Y715872D01*
X460160Y715870D01*
X437300Y761590D02*
X437302Y761690D01*
X437308Y761789D01*
X437318Y761889D01*
X437331Y761987D01*
X437349Y762086D01*
X437370Y762183D01*
X437395Y762279D01*
X437424Y762375D01*
X437457Y762469D01*
X437493Y762562D01*
X437533Y762653D01*
X437577Y762743D01*
X437624Y762831D01*
X437674Y762917D01*
X437728Y763001D01*
X437785Y763083D01*
X437845Y763162D01*
X437909Y763240D01*
X437975Y763314D01*
X438044Y763386D01*
X438116Y763455D01*
X438190Y763521D01*
X438268Y763585D01*
X438347Y763645D01*
X438429Y763702D01*
X438513Y763756D01*
X438599Y763806D01*
X438687Y763853D01*
X438777Y763897D01*
X438868Y763937D01*
X438961Y763973D01*
X439055Y764006D01*
X439151Y764035D01*
X439247Y764060D01*
X439344Y764081D01*
X439443Y764099D01*
X439541Y764112D01*
X439641Y764122D01*
X439740Y764128D01*
X439840Y764130D01*
X437300Y718410D02*
X437302Y718310D01*
X437308Y718211D01*
X437318Y718111D01*
X437331Y718013D01*
X437349Y717914D01*
X437370Y717817D01*
X437395Y717721D01*
X437424Y717625D01*
X437457Y717531D01*
X437493Y717438D01*
X437533Y717347D01*
X437577Y717257D01*
X437624Y717169D01*
X437674Y717083D01*
X437728Y716999D01*
X437785Y716917D01*
X437845Y716838D01*
X437909Y716760D01*
X437975Y716686D01*
X438044Y716614D01*
X438116Y716545D01*
X438190Y716479D01*
X438268Y716415D01*
X438347Y716355D01*
X438429Y716298D01*
X438513Y716244D01*
X438599Y716194D01*
X438687Y716147D01*
X438777Y716103D01*
X438868Y716063D01*
X438961Y716027D01*
X439055Y715994D01*
X439151Y715965D01*
X439247Y715940D01*
X439344Y715919D01*
X439443Y715901D01*
X439541Y715888D01*
X439641Y715878D01*
X439740Y715872D01*
X439840Y715870D01*
X450000Y742540D02*
X450000Y743810D01*
D11*
X450000Y742540D02*
X457620Y742540D01*
X450000Y742540D02*
X442380Y742540D01*
X450000Y737460D02*
X457620Y737460D01*
X450000Y737460D02*
X442380Y737460D01*
D10*
X450000Y737460D02*
X450000Y736190D01*
D12*
X352800Y744200D02*
X352809Y744973D01*
X352838Y745746D01*
X352885Y746517D01*
X352952Y747288D01*
X353037Y748056D01*
X353141Y748822D01*
X353264Y749585D01*
X353405Y750345D01*
X353565Y751102D01*
X353744Y751854D01*
X353941Y752601D01*
X354156Y753344D01*
X354390Y754081D01*
X354641Y754812D01*
X354911Y755537D01*
X355198Y756255D01*
X355502Y756965D01*
X355824Y757668D01*
X356163Y758363D01*
X356519Y759049D01*
X356892Y759726D01*
X357282Y760394D01*
X357687Y761052D01*
X358109Y761700D01*
X358546Y762338D01*
X358999Y762965D01*
X359467Y763580D01*
X359950Y764183D01*
X360448Y764775D01*
X360960Y765354D01*
X361486Y765921D01*
X362026Y766474D01*
X362579Y767014D01*
X363146Y767540D01*
X363725Y768052D01*
X364317Y768550D01*
X364920Y769033D01*
X365535Y769501D01*
X366162Y769954D01*
X366800Y770391D01*
X367448Y770813D01*
X368106Y771218D01*
X368774Y771608D01*
X369451Y771981D01*
X370137Y772337D01*
X370832Y772676D01*
X371535Y772998D01*
X372245Y773302D01*
X372963Y773589D01*
X373688Y773859D01*
X374419Y774110D01*
X375156Y774344D01*
X375899Y774559D01*
X376646Y774756D01*
X377398Y774935D01*
X378155Y775095D01*
X378915Y775236D01*
X379678Y775359D01*
X380444Y775463D01*
X381212Y775548D01*
X381983Y775615D01*
X382754Y775662D01*
X383527Y775691D01*
X384300Y775700D01*
X385073Y775691D01*
X385846Y775662D01*
X386617Y775615D01*
X387388Y775548D01*
X388156Y775463D01*
X388922Y775359D01*
X389685Y775236D01*
X390445Y775095D01*
X391202Y774935D01*
X391954Y774756D01*
X392701Y774559D01*
X393444Y774344D01*
X394181Y774110D01*
X394912Y773859D01*
X395637Y773589D01*
X396355Y773302D01*
X397065Y772998D01*
X397768Y772676D01*
X398463Y772337D01*
X399149Y771981D01*
X399826Y771608D01*
X400494Y771218D01*
X401152Y770813D01*
X401800Y770391D01*
X402438Y769954D01*
X403065Y769501D01*
X403680Y769033D01*
X404283Y768550D01*
X404875Y768052D01*
X405454Y767540D01*
X406021Y767014D01*
X406574Y766474D01*
X407114Y765921D01*
X407640Y765354D01*
X408152Y764775D01*
X408650Y764183D01*
X409133Y763580D01*
X409601Y762965D01*
X410054Y762338D01*
X410491Y761700D01*
X410913Y761052D01*
X411318Y760394D01*
X411708Y759726D01*
X412081Y759049D01*
X412437Y758363D01*
X412776Y757668D01*
X413098Y756965D01*
X413402Y756255D01*
X413689Y755537D01*
X413959Y754812D01*
X414210Y754081D01*
X414444Y753344D01*
X414659Y752601D01*
X414856Y751854D01*
X415035Y751102D01*
X415195Y750345D01*
X415336Y749585D01*
X415459Y748822D01*
X415563Y748056D01*
X415648Y747288D01*
X415715Y746517D01*
X415762Y745746D01*
X415791Y744973D01*
X415800Y744200D01*
X415791Y743427D01*
X415762Y742654D01*
X415715Y741883D01*
X415648Y741112D01*
X415563Y740344D01*
X415459Y739578D01*
X415336Y738815D01*
X415195Y738055D01*
X415035Y737298D01*
X414856Y736546D01*
X414659Y735799D01*
X414444Y735056D01*
X414210Y734319D01*
X413959Y733588D01*
X413689Y732863D01*
X413402Y732145D01*
X413098Y731435D01*
X412776Y730732D01*
X412437Y730037D01*
X412081Y729351D01*
X411708Y728674D01*
X411318Y728006D01*
X410913Y727348D01*
X410491Y726700D01*
X410054Y726062D01*
X409601Y725435D01*
X409133Y724820D01*
X408650Y724217D01*
X408152Y723625D01*
X407640Y723046D01*
X407114Y722479D01*
X406574Y721926D01*
X406021Y721386D01*
X405454Y720860D01*
X404875Y720348D01*
X404283Y719850D01*
X403680Y719367D01*
X403065Y718899D01*
X402438Y718446D01*
X401800Y718009D01*
X401152Y717587D01*
X400494Y717182D01*
X399826Y716792D01*
X399149Y716419D01*
X398463Y716063D01*
X397768Y715724D01*
X397065Y715402D01*
X396355Y715098D01*
X395637Y714811D01*
X394912Y714541D01*
X394181Y714290D01*
X393444Y714056D01*
X392701Y713841D01*
X391954Y713644D01*
X391202Y713465D01*
X390445Y713305D01*
X389685Y713164D01*
X388922Y713041D01*
X388156Y712937D01*
X387388Y712852D01*
X386617Y712785D01*
X385846Y712738D01*
X385073Y712709D01*
X384300Y712700D01*
X383527Y712709D01*
X382754Y712738D01*
X381983Y712785D01*
X381212Y712852D01*
X380444Y712937D01*
X379678Y713041D01*
X378915Y713164D01*
X378155Y713305D01*
X377398Y713465D01*
X376646Y713644D01*
X375899Y713841D01*
X375156Y714056D01*
X374419Y714290D01*
X373688Y714541D01*
X372963Y714811D01*
X372245Y715098D01*
X371535Y715402D01*
X370832Y715724D01*
X370137Y716063D01*
X369451Y716419D01*
X368774Y716792D01*
X368106Y717182D01*
X367448Y717587D01*
X366800Y718009D01*
X366162Y718446D01*
X365535Y718899D01*
X364920Y719367D01*
X364317Y719850D01*
X363725Y720348D01*
X363146Y720860D01*
X362579Y721386D01*
X362026Y721926D01*
X361486Y722479D01*
X360960Y723046D01*
X360448Y723625D01*
X359950Y724217D01*
X359467Y724820D01*
X358999Y725435D01*
X358546Y726062D01*
X358109Y726700D01*
X357687Y727348D01*
X357282Y728006D01*
X356892Y728674D01*
X356519Y729351D01*
X356163Y730037D01*
X355824Y730732D01*
X355502Y731435D01*
X355198Y732145D01*
X354911Y732863D01*
X354641Y733588D01*
X354390Y734319D01*
X354156Y735056D01*
X353941Y735799D01*
X353744Y736546D01*
X353565Y737298D01*
X353405Y738055D01*
X353264Y738815D01*
X353141Y739578D01*
X353037Y740344D01*
X352952Y741112D01*
X352885Y741883D01*
X352838Y742654D01*
X352809Y743427D01*
X352800Y744200D01*
X342974Y778025D02*
X342974Y785525D01*
X339224Y781775D02*
X346724Y781775D01*
D13*
X1790174Y1182322D02*
X2399774Y1182322D01*
X2399774Y1004522D02*
X1790174Y1004522D01*
X2021314Y1029922D02*
X2143234Y1029922D01*
X2143334Y1029924D01*
X2143433Y1029930D01*
X2143533Y1029940D01*
X2143631Y1029953D01*
X2143730Y1029971D01*
X2143827Y1029992D01*
X2143923Y1030017D01*
X2144019Y1030046D01*
X2144113Y1030079D01*
X2144206Y1030115D01*
X2144297Y1030155D01*
X2144387Y1030199D01*
X2144475Y1030246D01*
X2144561Y1030296D01*
X2144645Y1030350D01*
X2144727Y1030407D01*
X2144806Y1030467D01*
X2144884Y1030531D01*
X2144958Y1030597D01*
X2145030Y1030666D01*
X2145099Y1030738D01*
X2145165Y1030812D01*
X2145229Y1030890D01*
X2145289Y1030969D01*
X2145346Y1031051D01*
X2145400Y1031135D01*
X2145450Y1031221D01*
X2145497Y1031309D01*
X2145541Y1031399D01*
X2145581Y1031490D01*
X2145617Y1031583D01*
X2145650Y1031677D01*
X2145679Y1031773D01*
X2145704Y1031869D01*
X2145725Y1031966D01*
X2145743Y1032065D01*
X2145756Y1032163D01*
X2145766Y1032263D01*
X2145772Y1032362D01*
X2145774Y1032462D01*
X2145774Y1154382D01*
X2145772Y1154482D01*
X2145766Y1154581D01*
X2145756Y1154681D01*
X2145743Y1154779D01*
X2145725Y1154878D01*
X2145704Y1154975D01*
X2145679Y1155071D01*
X2145650Y1155167D01*
X2145617Y1155261D01*
X2145581Y1155354D01*
X2145541Y1155445D01*
X2145497Y1155535D01*
X2145450Y1155623D01*
X2145400Y1155709D01*
X2145346Y1155793D01*
X2145289Y1155875D01*
X2145229Y1155954D01*
X2145165Y1156032D01*
X2145099Y1156106D01*
X2145030Y1156178D01*
X2144958Y1156247D01*
X2144884Y1156313D01*
X2144806Y1156377D01*
X2144727Y1156437D01*
X2144645Y1156494D01*
X2144561Y1156548D01*
X2144475Y1156598D01*
X2144387Y1156645D01*
X2144297Y1156689D01*
X2144206Y1156729D01*
X2144113Y1156765D01*
X2144019Y1156798D01*
X2143923Y1156827D01*
X2143827Y1156852D01*
X2143730Y1156873D01*
X2143631Y1156891D01*
X2143533Y1156904D01*
X2143433Y1156914D01*
X2143334Y1156920D01*
X2143234Y1156922D01*
X2021314Y1156922D01*
X2021214Y1156920D01*
X2021115Y1156914D01*
X2021015Y1156904D01*
X2020917Y1156891D01*
X2020818Y1156873D01*
X2020721Y1156852D01*
X2020625Y1156827D01*
X2020529Y1156798D01*
X2020435Y1156765D01*
X2020342Y1156729D01*
X2020251Y1156689D01*
X2020161Y1156645D01*
X2020073Y1156598D01*
X2019987Y1156548D01*
X2019903Y1156494D01*
X2019821Y1156437D01*
X2019742Y1156377D01*
X2019664Y1156313D01*
X2019590Y1156247D01*
X2019518Y1156178D01*
X2019449Y1156106D01*
X2019383Y1156032D01*
X2019319Y1155954D01*
X2019259Y1155875D01*
X2019202Y1155793D01*
X2019148Y1155709D01*
X2019098Y1155623D01*
X2019051Y1155535D01*
X2019007Y1155445D01*
X2018967Y1155354D01*
X2018931Y1155261D01*
X2018898Y1155167D01*
X2018869Y1155071D01*
X2018844Y1154975D01*
X2018823Y1154878D01*
X2018805Y1154779D01*
X2018792Y1154681D01*
X2018782Y1154581D01*
X2018776Y1154482D01*
X2018774Y1154382D01*
X2018774Y1032462D01*
X2018776Y1032362D01*
X2018782Y1032263D01*
X2018792Y1032163D01*
X2018805Y1032065D01*
X2018823Y1031966D01*
X2018844Y1031869D01*
X2018869Y1031773D01*
X2018898Y1031677D01*
X2018931Y1031583D01*
X2018967Y1031490D01*
X2019007Y1031399D01*
X2019051Y1031309D01*
X2019098Y1031221D01*
X2019148Y1031135D01*
X2019202Y1031051D01*
X2019259Y1030969D01*
X2019319Y1030890D01*
X2019383Y1030812D01*
X2019449Y1030738D01*
X2019518Y1030666D01*
X2019590Y1030597D01*
X2019664Y1030531D01*
X2019742Y1030467D01*
X2019821Y1030407D01*
X2019903Y1030350D01*
X2019987Y1030296D01*
X2020073Y1030246D01*
X2020161Y1030199D01*
X2020251Y1030155D01*
X2020342Y1030115D01*
X2020435Y1030079D01*
X2020529Y1030046D01*
X2020625Y1030017D01*
X2020721Y1029992D01*
X2020818Y1029971D01*
X2020917Y1029953D01*
X2021015Y1029940D01*
X2021115Y1029930D01*
X2021214Y1029924D01*
X2021314Y1029922D01*
X1790174Y1004522D02*
X1790174Y1182322D01*
X2361674Y1131522D02*
X2380724Y1131522D01*
X2393424Y1131522D01*
X2399774Y1131522D01*
X2412474Y1131522D01*
X2412474Y1055322D01*
X2399774Y1055322D01*
X2393424Y1055322D01*
X2380724Y1055322D01*
X2361674Y1055322D01*
X2361674Y1061672D01*
X2361674Y1071197D01*
X2361674Y1074372D01*
X2361674Y1080722D01*
X2361674Y1087072D01*
X2361674Y1093422D01*
X2361674Y1099772D01*
X2361674Y1106122D01*
X2361674Y1112472D01*
X2361674Y1115647D01*
X2361674Y1125172D01*
X2361674Y1131522D01*
X2399774Y1131522D02*
X2399774Y1182322D01*
X2399774Y1055322D02*
X2399774Y1004522D01*
D14*
X1917174Y1144222D02*
X1917174Y1154382D01*
X1917172Y1154482D01*
X1917166Y1154581D01*
X1917156Y1154681D01*
X1917143Y1154779D01*
X1917125Y1154878D01*
X1917104Y1154975D01*
X1917079Y1155071D01*
X1917050Y1155167D01*
X1917017Y1155261D01*
X1916981Y1155354D01*
X1916941Y1155445D01*
X1916897Y1155535D01*
X1916850Y1155623D01*
X1916800Y1155709D01*
X1916746Y1155793D01*
X1916689Y1155875D01*
X1916629Y1155954D01*
X1916565Y1156032D01*
X1916499Y1156106D01*
X1916430Y1156178D01*
X1916358Y1156247D01*
X1916284Y1156313D01*
X1916206Y1156377D01*
X1916127Y1156437D01*
X1916045Y1156494D01*
X1915961Y1156548D01*
X1915875Y1156598D01*
X1915787Y1156645D01*
X1915697Y1156689D01*
X1915606Y1156729D01*
X1915513Y1156765D01*
X1915419Y1156798D01*
X1915323Y1156827D01*
X1915227Y1156852D01*
X1915130Y1156873D01*
X1915031Y1156891D01*
X1914933Y1156904D01*
X1914833Y1156914D01*
X1914734Y1156920D01*
X1914634Y1156922D01*
X1891774Y1156922D01*
D13*
X1872724Y1156922D01*
D14*
X1853674Y1156922D01*
D13*
X1831449Y1156922D01*
X1799064Y1156922D01*
X1798964Y1156920D01*
X1798865Y1156914D01*
X1798765Y1156904D01*
X1798667Y1156891D01*
X1798568Y1156873D01*
X1798471Y1156852D01*
X1798375Y1156827D01*
X1798279Y1156798D01*
X1798185Y1156765D01*
X1798092Y1156729D01*
X1798001Y1156689D01*
X1797911Y1156645D01*
X1797823Y1156598D01*
X1797737Y1156548D01*
X1797653Y1156494D01*
X1797571Y1156437D01*
X1797492Y1156377D01*
X1797414Y1156313D01*
X1797340Y1156247D01*
X1797268Y1156178D01*
X1797199Y1156106D01*
X1797133Y1156032D01*
X1797069Y1155954D01*
X1797009Y1155875D01*
X1796952Y1155793D01*
X1796898Y1155709D01*
X1796848Y1155623D01*
X1796801Y1155535D01*
X1796757Y1155445D01*
X1796717Y1155354D01*
X1796681Y1155261D01*
X1796648Y1155167D01*
X1796619Y1155071D01*
X1796594Y1154975D01*
X1796573Y1154878D01*
X1796555Y1154779D01*
X1796542Y1154681D01*
X1796532Y1154581D01*
X1796526Y1154482D01*
X1796524Y1154382D01*
X1796524Y1147397D01*
X1796526Y1147286D01*
X1796532Y1147176D01*
X1796541Y1147065D01*
X1796555Y1146955D01*
X1796572Y1146846D01*
X1796593Y1146737D01*
X1796618Y1146629D01*
X1796647Y1146522D01*
X1796679Y1146416D01*
X1796715Y1146311D01*
X1796755Y1146208D01*
X1796798Y1146106D01*
X1796845Y1146005D01*
X1796896Y1145906D01*
X1796949Y1145810D01*
X1797006Y1145715D01*
X1797067Y1145622D01*
X1797130Y1145531D01*
X1797197Y1145442D01*
X1797267Y1145356D01*
X1797340Y1145273D01*
X1797415Y1145191D01*
X1797493Y1145113D01*
X1797575Y1145038D01*
X1797658Y1144965D01*
X1797744Y1144895D01*
X1797833Y1144828D01*
X1797924Y1144765D01*
X1798017Y1144704D01*
X1798112Y1144647D01*
X1798208Y1144594D01*
X1798307Y1144543D01*
X1798408Y1144496D01*
X1798510Y1144453D01*
X1798613Y1144413D01*
X1798718Y1144377D01*
X1798824Y1144345D01*
X1798931Y1144316D01*
X1799039Y1144291D01*
X1799148Y1144270D01*
X1799257Y1144253D01*
X1799367Y1144239D01*
X1799478Y1144230D01*
X1799588Y1144224D01*
X1799699Y1144222D01*
X1809224Y1144222D01*
X1809382Y1144220D01*
X1809541Y1144214D01*
X1809699Y1144204D01*
X1809856Y1144190D01*
X1810014Y1144173D01*
X1810170Y1144151D01*
X1810327Y1144126D01*
X1810482Y1144096D01*
X1810637Y1144063D01*
X1810791Y1144026D01*
X1810944Y1143985D01*
X1811096Y1143940D01*
X1811246Y1143891D01*
X1811396Y1143839D01*
X1811544Y1143783D01*
X1811691Y1143723D01*
X1811836Y1143660D01*
X1811979Y1143593D01*
X1812121Y1143523D01*
X1812261Y1143449D01*
X1812399Y1143371D01*
X1812535Y1143290D01*
X1812669Y1143206D01*
X1812801Y1143119D01*
X1812931Y1143028D01*
X1813058Y1142934D01*
X1813183Y1142837D01*
X1813306Y1142736D01*
X1813426Y1142633D01*
X1813543Y1142527D01*
X1813658Y1142418D01*
X1813770Y1142306D01*
X1813879Y1142191D01*
X1813985Y1142074D01*
X1814088Y1141954D01*
X1814189Y1141831D01*
X1814286Y1141706D01*
X1814380Y1141579D01*
X1814471Y1141449D01*
X1814558Y1141317D01*
X1814642Y1141183D01*
X1814723Y1141047D01*
X1814801Y1140909D01*
X1814875Y1140769D01*
X1814945Y1140627D01*
X1815012Y1140484D01*
X1815075Y1140339D01*
X1815135Y1140192D01*
X1815191Y1140044D01*
X1815243Y1139894D01*
X1815292Y1139744D01*
X1815337Y1139592D01*
X1815378Y1139439D01*
X1815415Y1139285D01*
X1815448Y1139130D01*
X1815478Y1138975D01*
X1815503Y1138818D01*
X1815525Y1138662D01*
X1815542Y1138504D01*
X1815556Y1138347D01*
X1815566Y1138189D01*
X1815572Y1138030D01*
X1815574Y1137872D01*
X1815574Y1125172D01*
X1815574Y1118822D01*
X1815574Y1112472D01*
X1815574Y1106122D01*
X1815574Y1099772D01*
X1815574Y1093422D01*
X1815574Y1087072D01*
X1815574Y1080722D01*
X1815574Y1074372D01*
X1815574Y1068022D01*
X1815574Y1061672D01*
X1815574Y1055322D01*
X1815574Y1048972D01*
X1815574Y1042622D01*
X1815572Y1042464D01*
X1815566Y1042305D01*
X1815556Y1042147D01*
X1815542Y1041990D01*
X1815525Y1041832D01*
X1815503Y1041676D01*
X1815478Y1041519D01*
X1815448Y1041364D01*
X1815415Y1041209D01*
X1815378Y1041055D01*
X1815337Y1040902D01*
X1815292Y1040750D01*
X1815243Y1040600D01*
X1815191Y1040450D01*
X1815135Y1040302D01*
X1815075Y1040155D01*
X1815012Y1040010D01*
X1814945Y1039867D01*
X1814875Y1039725D01*
X1814801Y1039585D01*
X1814723Y1039447D01*
X1814642Y1039311D01*
X1814558Y1039177D01*
X1814471Y1039045D01*
X1814380Y1038915D01*
X1814286Y1038788D01*
X1814189Y1038663D01*
X1814088Y1038540D01*
X1813985Y1038420D01*
X1813879Y1038303D01*
X1813770Y1038188D01*
X1813658Y1038076D01*
X1813543Y1037967D01*
X1813426Y1037861D01*
X1813306Y1037758D01*
X1813183Y1037657D01*
X1813058Y1037560D01*
X1812931Y1037466D01*
X1812801Y1037375D01*
X1812669Y1037288D01*
X1812535Y1037204D01*
X1812399Y1037123D01*
X1812261Y1037045D01*
X1812121Y1036971D01*
X1811979Y1036901D01*
X1811836Y1036834D01*
X1811691Y1036771D01*
X1811544Y1036711D01*
X1811396Y1036655D01*
X1811246Y1036603D01*
X1811096Y1036554D01*
X1810944Y1036509D01*
X1810791Y1036468D01*
X1810637Y1036431D01*
X1810482Y1036398D01*
X1810327Y1036368D01*
X1810170Y1036343D01*
X1810014Y1036321D01*
X1809856Y1036304D01*
X1809699Y1036290D01*
X1809541Y1036280D01*
X1809382Y1036274D01*
X1809224Y1036272D01*
X1799699Y1036272D01*
X1799588Y1036270D01*
X1799478Y1036264D01*
X1799367Y1036255D01*
X1799257Y1036241D01*
X1799148Y1036224D01*
X1799039Y1036203D01*
X1798931Y1036178D01*
X1798824Y1036149D01*
X1798718Y1036117D01*
X1798613Y1036081D01*
X1798510Y1036041D01*
X1798408Y1035998D01*
X1798307Y1035951D01*
X1798208Y1035900D01*
X1798112Y1035847D01*
X1798017Y1035790D01*
X1797924Y1035729D01*
X1797833Y1035666D01*
X1797744Y1035599D01*
X1797658Y1035529D01*
X1797575Y1035456D01*
X1797493Y1035381D01*
X1797415Y1035303D01*
X1797340Y1035221D01*
X1797267Y1035138D01*
X1797197Y1035052D01*
X1797130Y1034963D01*
X1797067Y1034872D01*
X1797006Y1034779D01*
X1796949Y1034685D01*
X1796896Y1034588D01*
X1796845Y1034489D01*
X1796798Y1034388D01*
X1796755Y1034286D01*
X1796715Y1034183D01*
X1796679Y1034078D01*
X1796647Y1033972D01*
X1796618Y1033865D01*
X1796593Y1033757D01*
X1796572Y1033648D01*
X1796555Y1033539D01*
X1796541Y1033429D01*
X1796532Y1033318D01*
X1796526Y1033208D01*
X1796524Y1033097D01*
X1796524Y1032462D01*
X1796526Y1032362D01*
X1796532Y1032263D01*
X1796542Y1032163D01*
X1796555Y1032065D01*
X1796573Y1031966D01*
X1796594Y1031869D01*
X1796619Y1031773D01*
X1796648Y1031677D01*
X1796681Y1031583D01*
X1796717Y1031490D01*
X1796757Y1031399D01*
X1796801Y1031309D01*
X1796848Y1031221D01*
X1796898Y1031135D01*
X1796952Y1031051D01*
X1797009Y1030969D01*
X1797069Y1030890D01*
X1797133Y1030812D01*
X1797199Y1030738D01*
X1797268Y1030666D01*
X1797340Y1030597D01*
X1797414Y1030531D01*
X1797492Y1030467D01*
X1797571Y1030407D01*
X1797653Y1030350D01*
X1797737Y1030296D01*
X1797823Y1030246D01*
X1797911Y1030199D01*
X1798001Y1030155D01*
X1798092Y1030115D01*
X1798185Y1030079D01*
X1798279Y1030046D01*
X1798375Y1030017D01*
X1798471Y1029992D01*
X1798568Y1029971D01*
X1798667Y1029953D01*
X1798765Y1029940D01*
X1798865Y1029930D01*
X1798964Y1029924D01*
X1799064Y1029922D01*
X1914634Y1029922D01*
X1914734Y1029924D01*
X1914833Y1029930D01*
X1914933Y1029940D01*
X1915031Y1029953D01*
X1915130Y1029971D01*
X1915227Y1029992D01*
X1915323Y1030017D01*
X1915419Y1030046D01*
X1915513Y1030079D01*
X1915606Y1030115D01*
X1915697Y1030155D01*
X1915787Y1030199D01*
X1915875Y1030246D01*
X1915961Y1030296D01*
X1916045Y1030350D01*
X1916127Y1030407D01*
X1916206Y1030467D01*
X1916284Y1030531D01*
X1916358Y1030597D01*
X1916430Y1030666D01*
X1916499Y1030738D01*
X1916565Y1030812D01*
X1916629Y1030890D01*
X1916689Y1030969D01*
X1916746Y1031051D01*
X1916800Y1031135D01*
X1916850Y1031221D01*
X1916897Y1031309D01*
X1916941Y1031399D01*
X1916981Y1031490D01*
X1917017Y1031583D01*
X1917050Y1031677D01*
X1917079Y1031773D01*
X1917104Y1031869D01*
X1917125Y1031966D01*
X1917143Y1032065D01*
X1917156Y1032163D01*
X1917166Y1032263D01*
X1917172Y1032362D01*
X1917174Y1032462D01*
X1917174Y1144222D01*
D14*
X1815574Y1125172D02*
X1799064Y1125172D01*
X1798964Y1125170D01*
X1798865Y1125164D01*
X1798765Y1125154D01*
X1798667Y1125141D01*
X1798568Y1125123D01*
X1798471Y1125102D01*
X1798375Y1125077D01*
X1798279Y1125048D01*
X1798185Y1125015D01*
X1798092Y1124979D01*
X1798001Y1124939D01*
X1797911Y1124895D01*
X1797823Y1124848D01*
X1797737Y1124798D01*
X1797653Y1124744D01*
X1797571Y1124687D01*
X1797492Y1124627D01*
X1797414Y1124563D01*
X1797340Y1124497D01*
X1797268Y1124428D01*
X1797199Y1124356D01*
X1797133Y1124282D01*
X1797069Y1124204D01*
X1797009Y1124125D01*
X1796952Y1124043D01*
X1796898Y1123959D01*
X1796848Y1123873D01*
X1796801Y1123785D01*
X1796757Y1123695D01*
X1796717Y1123604D01*
X1796681Y1123511D01*
X1796648Y1123417D01*
X1796619Y1123321D01*
X1796594Y1123225D01*
X1796573Y1123128D01*
X1796555Y1123029D01*
X1796542Y1122931D01*
X1796532Y1122831D01*
X1796526Y1122732D01*
X1796524Y1122632D01*
X1796524Y1121362D01*
X1796526Y1121262D01*
X1796532Y1121163D01*
X1796542Y1121063D01*
X1796555Y1120965D01*
X1796573Y1120866D01*
X1796594Y1120769D01*
X1796619Y1120673D01*
X1796648Y1120577D01*
X1796681Y1120483D01*
X1796717Y1120390D01*
X1796757Y1120299D01*
X1796801Y1120209D01*
X1796848Y1120121D01*
X1796898Y1120035D01*
X1796952Y1119951D01*
X1797009Y1119869D01*
X1797069Y1119790D01*
X1797133Y1119712D01*
X1797199Y1119638D01*
X1797268Y1119566D01*
X1797340Y1119497D01*
X1797414Y1119431D01*
X1797492Y1119367D01*
X1797571Y1119307D01*
X1797653Y1119250D01*
X1797737Y1119196D01*
X1797823Y1119146D01*
X1797911Y1119099D01*
X1798001Y1119055D01*
X1798092Y1119015D01*
X1798185Y1118979D01*
X1798279Y1118946D01*
X1798375Y1118917D01*
X1798471Y1118892D01*
X1798568Y1118871D01*
X1798667Y1118853D01*
X1798765Y1118840D01*
X1798865Y1118830D01*
X1798964Y1118824D01*
X1799064Y1118822D01*
X1815574Y1118822D01*
X1815574Y1112472D02*
X1799064Y1112472D01*
X1798964Y1112470D01*
X1798865Y1112464D01*
X1798765Y1112454D01*
X1798667Y1112441D01*
X1798568Y1112423D01*
X1798471Y1112402D01*
X1798375Y1112377D01*
X1798279Y1112348D01*
X1798185Y1112315D01*
X1798092Y1112279D01*
X1798001Y1112239D01*
X1797911Y1112195D01*
X1797823Y1112148D01*
X1797737Y1112098D01*
X1797653Y1112044D01*
X1797571Y1111987D01*
X1797492Y1111927D01*
X1797414Y1111863D01*
X1797340Y1111797D01*
X1797268Y1111728D01*
X1797199Y1111656D01*
X1797133Y1111582D01*
X1797069Y1111504D01*
X1797009Y1111425D01*
X1796952Y1111343D01*
X1796898Y1111259D01*
X1796848Y1111173D01*
X1796801Y1111085D01*
X1796757Y1110995D01*
X1796717Y1110904D01*
X1796681Y1110811D01*
X1796648Y1110717D01*
X1796619Y1110621D01*
X1796594Y1110525D01*
X1796573Y1110428D01*
X1796555Y1110329D01*
X1796542Y1110231D01*
X1796532Y1110131D01*
X1796526Y1110032D01*
X1796524Y1109932D01*
X1796524Y1108662D01*
X1796526Y1108562D01*
X1796532Y1108463D01*
X1796542Y1108363D01*
X1796555Y1108265D01*
X1796573Y1108166D01*
X1796594Y1108069D01*
X1796619Y1107973D01*
X1796648Y1107877D01*
X1796681Y1107783D01*
X1796717Y1107690D01*
X1796757Y1107599D01*
X1796801Y1107509D01*
X1796848Y1107421D01*
X1796898Y1107335D01*
X1796952Y1107251D01*
X1797009Y1107169D01*
X1797069Y1107090D01*
X1797133Y1107012D01*
X1797199Y1106938D01*
X1797268Y1106866D01*
X1797340Y1106797D01*
X1797414Y1106731D01*
X1797492Y1106667D01*
X1797571Y1106607D01*
X1797653Y1106550D01*
X1797737Y1106496D01*
X1797823Y1106446D01*
X1797911Y1106399D01*
X1798001Y1106355D01*
X1798092Y1106315D01*
X1798185Y1106279D01*
X1798279Y1106246D01*
X1798375Y1106217D01*
X1798471Y1106192D01*
X1798568Y1106171D01*
X1798667Y1106153D01*
X1798765Y1106140D01*
X1798865Y1106130D01*
X1798964Y1106124D01*
X1799064Y1106122D01*
X1815574Y1106122D01*
X1815574Y1099772D02*
X1799064Y1099772D01*
X1798964Y1099770D01*
X1798865Y1099764D01*
X1798765Y1099754D01*
X1798667Y1099741D01*
X1798568Y1099723D01*
X1798471Y1099702D01*
X1798375Y1099677D01*
X1798279Y1099648D01*
X1798185Y1099615D01*
X1798092Y1099579D01*
X1798001Y1099539D01*
X1797911Y1099495D01*
X1797823Y1099448D01*
X1797737Y1099398D01*
X1797653Y1099344D01*
X1797571Y1099287D01*
X1797492Y1099227D01*
X1797414Y1099163D01*
X1797340Y1099097D01*
X1797268Y1099028D01*
X1797199Y1098956D01*
X1797133Y1098882D01*
X1797069Y1098804D01*
X1797009Y1098725D01*
X1796952Y1098643D01*
X1796898Y1098559D01*
X1796848Y1098473D01*
X1796801Y1098385D01*
X1796757Y1098295D01*
X1796717Y1098204D01*
X1796681Y1098111D01*
X1796648Y1098017D01*
X1796619Y1097921D01*
X1796594Y1097825D01*
X1796573Y1097728D01*
X1796555Y1097629D01*
X1796542Y1097531D01*
X1796532Y1097431D01*
X1796526Y1097332D01*
X1796524Y1097232D01*
X1796524Y1095962D01*
X1796526Y1095862D01*
X1796532Y1095763D01*
X1796542Y1095663D01*
X1796555Y1095565D01*
X1796573Y1095466D01*
X1796594Y1095369D01*
X1796619Y1095273D01*
X1796648Y1095177D01*
X1796681Y1095083D01*
X1796717Y1094990D01*
X1796757Y1094899D01*
X1796801Y1094809D01*
X1796848Y1094721D01*
X1796898Y1094635D01*
X1796952Y1094551D01*
X1797009Y1094469D01*
X1797069Y1094390D01*
X1797133Y1094312D01*
X1797199Y1094238D01*
X1797268Y1094166D01*
X1797340Y1094097D01*
X1797414Y1094031D01*
X1797492Y1093967D01*
X1797571Y1093907D01*
X1797653Y1093850D01*
X1797737Y1093796D01*
X1797823Y1093746D01*
X1797911Y1093699D01*
X1798001Y1093655D01*
X1798092Y1093615D01*
X1798185Y1093579D01*
X1798279Y1093546D01*
X1798375Y1093517D01*
X1798471Y1093492D01*
X1798568Y1093471D01*
X1798667Y1093453D01*
X1798765Y1093440D01*
X1798865Y1093430D01*
X1798964Y1093424D01*
X1799064Y1093422D01*
X1815574Y1093422D01*
X1815574Y1087072D02*
X1799064Y1087072D01*
X1798964Y1087070D01*
X1798865Y1087064D01*
X1798765Y1087054D01*
X1798667Y1087041D01*
X1798568Y1087023D01*
X1798471Y1087002D01*
X1798375Y1086977D01*
X1798279Y1086948D01*
X1798185Y1086915D01*
X1798092Y1086879D01*
X1798001Y1086839D01*
X1797911Y1086795D01*
X1797823Y1086748D01*
X1797737Y1086698D01*
X1797653Y1086644D01*
X1797571Y1086587D01*
X1797492Y1086527D01*
X1797414Y1086463D01*
X1797340Y1086397D01*
X1797268Y1086328D01*
X1797199Y1086256D01*
X1797133Y1086182D01*
X1797069Y1086104D01*
X1797009Y1086025D01*
X1796952Y1085943D01*
X1796898Y1085859D01*
X1796848Y1085773D01*
X1796801Y1085685D01*
X1796757Y1085595D01*
X1796717Y1085504D01*
X1796681Y1085411D01*
X1796648Y1085317D01*
X1796619Y1085221D01*
X1796594Y1085125D01*
X1796573Y1085028D01*
X1796555Y1084929D01*
X1796542Y1084831D01*
X1796532Y1084731D01*
X1796526Y1084632D01*
X1796524Y1084532D01*
X1796524Y1083262D01*
X1796526Y1083162D01*
X1796532Y1083063D01*
X1796542Y1082963D01*
X1796555Y1082865D01*
X1796573Y1082766D01*
X1796594Y1082669D01*
X1796619Y1082573D01*
X1796648Y1082477D01*
X1796681Y1082383D01*
X1796717Y1082290D01*
X1796757Y1082199D01*
X1796801Y1082109D01*
X1796848Y1082021D01*
X1796898Y1081935D01*
X1796952Y1081851D01*
X1797009Y1081769D01*
X1797069Y1081690D01*
X1797133Y1081612D01*
X1797199Y1081538D01*
X1797268Y1081466D01*
X1797340Y1081397D01*
X1797414Y1081331D01*
X1797492Y1081267D01*
X1797571Y1081207D01*
X1797653Y1081150D01*
X1797737Y1081096D01*
X1797823Y1081046D01*
X1797911Y1080999D01*
X1798001Y1080955D01*
X1798092Y1080915D01*
X1798185Y1080879D01*
X1798279Y1080846D01*
X1798375Y1080817D01*
X1798471Y1080792D01*
X1798568Y1080771D01*
X1798667Y1080753D01*
X1798765Y1080740D01*
X1798865Y1080730D01*
X1798964Y1080724D01*
X1799064Y1080722D01*
X1815574Y1080722D01*
X1815574Y1074372D02*
X1799064Y1074372D01*
X1798964Y1074370D01*
X1798865Y1074364D01*
X1798765Y1074354D01*
X1798667Y1074341D01*
X1798568Y1074323D01*
X1798471Y1074302D01*
X1798375Y1074277D01*
X1798279Y1074248D01*
X1798185Y1074215D01*
X1798092Y1074179D01*
X1798001Y1074139D01*
X1797911Y1074095D01*
X1797823Y1074048D01*
X1797737Y1073998D01*
X1797653Y1073944D01*
X1797571Y1073887D01*
X1797492Y1073827D01*
X1797414Y1073763D01*
X1797340Y1073697D01*
X1797268Y1073628D01*
X1797199Y1073556D01*
X1797133Y1073482D01*
X1797069Y1073404D01*
X1797009Y1073325D01*
X1796952Y1073243D01*
X1796898Y1073159D01*
X1796848Y1073073D01*
X1796801Y1072985D01*
X1796757Y1072895D01*
X1796717Y1072804D01*
X1796681Y1072711D01*
X1796648Y1072617D01*
X1796619Y1072521D01*
X1796594Y1072425D01*
X1796573Y1072328D01*
X1796555Y1072229D01*
X1796542Y1072131D01*
X1796532Y1072031D01*
X1796526Y1071932D01*
X1796524Y1071832D01*
X1796524Y1070562D01*
X1796526Y1070462D01*
X1796532Y1070363D01*
X1796542Y1070263D01*
X1796555Y1070165D01*
X1796573Y1070066D01*
X1796594Y1069969D01*
X1796619Y1069873D01*
X1796648Y1069777D01*
X1796681Y1069683D01*
X1796717Y1069590D01*
X1796757Y1069499D01*
X1796801Y1069409D01*
X1796848Y1069321D01*
X1796898Y1069235D01*
X1796952Y1069151D01*
X1797009Y1069069D01*
X1797069Y1068990D01*
X1797133Y1068912D01*
X1797199Y1068838D01*
X1797268Y1068766D01*
X1797340Y1068697D01*
X1797414Y1068631D01*
X1797492Y1068567D01*
X1797571Y1068507D01*
X1797653Y1068450D01*
X1797737Y1068396D01*
X1797823Y1068346D01*
X1797911Y1068299D01*
X1798001Y1068255D01*
X1798092Y1068215D01*
X1798185Y1068179D01*
X1798279Y1068146D01*
X1798375Y1068117D01*
X1798471Y1068092D01*
X1798568Y1068071D01*
X1798667Y1068053D01*
X1798765Y1068040D01*
X1798865Y1068030D01*
X1798964Y1068024D01*
X1799064Y1068022D01*
X1815574Y1068022D01*
X1815574Y1061672D02*
X1799064Y1061672D01*
X1798964Y1061670D01*
X1798865Y1061664D01*
X1798765Y1061654D01*
X1798667Y1061641D01*
X1798568Y1061623D01*
X1798471Y1061602D01*
X1798375Y1061577D01*
X1798279Y1061548D01*
X1798185Y1061515D01*
X1798092Y1061479D01*
X1798001Y1061439D01*
X1797911Y1061395D01*
X1797823Y1061348D01*
X1797737Y1061298D01*
X1797653Y1061244D01*
X1797571Y1061187D01*
X1797492Y1061127D01*
X1797414Y1061063D01*
X1797340Y1060997D01*
X1797268Y1060928D01*
X1797199Y1060856D01*
X1797133Y1060782D01*
X1797069Y1060704D01*
X1797009Y1060625D01*
X1796952Y1060543D01*
X1796898Y1060459D01*
X1796848Y1060373D01*
X1796801Y1060285D01*
X1796757Y1060195D01*
X1796717Y1060104D01*
X1796681Y1060011D01*
X1796648Y1059917D01*
X1796619Y1059821D01*
X1796594Y1059725D01*
X1796573Y1059628D01*
X1796555Y1059529D01*
X1796542Y1059431D01*
X1796532Y1059331D01*
X1796526Y1059232D01*
X1796524Y1059132D01*
X1796524Y1057862D01*
X1796526Y1057762D01*
X1796532Y1057663D01*
X1796542Y1057563D01*
X1796555Y1057465D01*
X1796573Y1057366D01*
X1796594Y1057269D01*
X1796619Y1057173D01*
X1796648Y1057077D01*
X1796681Y1056983D01*
X1796717Y1056890D01*
X1796757Y1056799D01*
X1796801Y1056709D01*
X1796848Y1056621D01*
X1796898Y1056535D01*
X1796952Y1056451D01*
X1797009Y1056369D01*
X1797069Y1056290D01*
X1797133Y1056212D01*
X1797199Y1056138D01*
X1797268Y1056066D01*
X1797340Y1055997D01*
X1797414Y1055931D01*
X1797492Y1055867D01*
X1797571Y1055807D01*
X1797653Y1055750D01*
X1797737Y1055696D01*
X1797823Y1055646D01*
X1797911Y1055599D01*
X1798001Y1055555D01*
X1798092Y1055515D01*
X1798185Y1055479D01*
X1798279Y1055446D01*
X1798375Y1055417D01*
X1798471Y1055392D01*
X1798568Y1055371D01*
X1798667Y1055353D01*
X1798765Y1055340D01*
X1798865Y1055330D01*
X1798964Y1055324D01*
X1799064Y1055322D01*
X1815574Y1055322D01*
X1815574Y1048972D02*
X1799064Y1048972D01*
X1798964Y1048970D01*
X1798865Y1048964D01*
X1798765Y1048954D01*
X1798667Y1048941D01*
X1798568Y1048923D01*
X1798471Y1048902D01*
X1798375Y1048877D01*
X1798279Y1048848D01*
X1798185Y1048815D01*
X1798092Y1048779D01*
X1798001Y1048739D01*
X1797911Y1048695D01*
X1797823Y1048648D01*
X1797737Y1048598D01*
X1797653Y1048544D01*
X1797571Y1048487D01*
X1797492Y1048427D01*
X1797414Y1048363D01*
X1797340Y1048297D01*
X1797268Y1048228D01*
X1797199Y1048156D01*
X1797133Y1048082D01*
X1797069Y1048004D01*
X1797009Y1047925D01*
X1796952Y1047843D01*
X1796898Y1047759D01*
X1796848Y1047673D01*
X1796801Y1047585D01*
X1796757Y1047495D01*
X1796717Y1047404D01*
X1796681Y1047311D01*
X1796648Y1047217D01*
X1796619Y1047121D01*
X1796594Y1047025D01*
X1796573Y1046928D01*
X1796555Y1046829D01*
X1796542Y1046731D01*
X1796532Y1046631D01*
X1796526Y1046532D01*
X1796524Y1046432D01*
X1796524Y1045162D01*
X1796526Y1045062D01*
X1796532Y1044963D01*
X1796542Y1044863D01*
X1796555Y1044765D01*
X1796573Y1044666D01*
X1796594Y1044569D01*
X1796619Y1044473D01*
X1796648Y1044377D01*
X1796681Y1044283D01*
X1796717Y1044190D01*
X1796757Y1044099D01*
X1796801Y1044009D01*
X1796848Y1043921D01*
X1796898Y1043835D01*
X1796952Y1043751D01*
X1797009Y1043669D01*
X1797069Y1043590D01*
X1797133Y1043512D01*
X1797199Y1043438D01*
X1797268Y1043366D01*
X1797340Y1043297D01*
X1797414Y1043231D01*
X1797492Y1043167D01*
X1797571Y1043107D01*
X1797653Y1043050D01*
X1797737Y1042996D01*
X1797823Y1042946D01*
X1797911Y1042899D01*
X1798001Y1042855D01*
X1798092Y1042815D01*
X1798185Y1042779D01*
X1798279Y1042746D01*
X1798375Y1042717D01*
X1798471Y1042692D01*
X1798568Y1042671D01*
X1798667Y1042653D01*
X1798765Y1042640D01*
X1798865Y1042630D01*
X1798964Y1042624D01*
X1799064Y1042622D01*
X1815574Y1042622D01*
X1945114Y1068022D02*
X1978134Y1068022D01*
X1945114Y1068022D02*
X1945014Y1068024D01*
X1944915Y1068030D01*
X1944815Y1068040D01*
X1944717Y1068053D01*
X1944618Y1068071D01*
X1944521Y1068092D01*
X1944425Y1068117D01*
X1944329Y1068146D01*
X1944235Y1068179D01*
X1944142Y1068215D01*
X1944051Y1068255D01*
X1943961Y1068299D01*
X1943873Y1068346D01*
X1943787Y1068396D01*
X1943703Y1068450D01*
X1943621Y1068507D01*
X1943542Y1068567D01*
X1943464Y1068631D01*
X1943390Y1068697D01*
X1943318Y1068766D01*
X1943249Y1068838D01*
X1943183Y1068912D01*
X1943119Y1068990D01*
X1943059Y1069069D01*
X1943002Y1069151D01*
X1942948Y1069235D01*
X1942898Y1069321D01*
X1942851Y1069409D01*
X1942807Y1069499D01*
X1942767Y1069590D01*
X1942731Y1069683D01*
X1942698Y1069777D01*
X1942669Y1069873D01*
X1942644Y1069969D01*
X1942623Y1070066D01*
X1942605Y1070165D01*
X1942592Y1070263D01*
X1942582Y1070363D01*
X1942576Y1070462D01*
X1942574Y1070562D01*
X1942574Y1116282D01*
X1942576Y1116382D01*
X1942582Y1116481D01*
X1942592Y1116581D01*
X1942605Y1116679D01*
X1942623Y1116778D01*
X1942644Y1116875D01*
X1942669Y1116971D01*
X1942698Y1117067D01*
X1942731Y1117161D01*
X1942767Y1117254D01*
X1942807Y1117345D01*
X1942851Y1117435D01*
X1942898Y1117523D01*
X1942948Y1117609D01*
X1943002Y1117693D01*
X1943059Y1117775D01*
X1943119Y1117854D01*
X1943183Y1117932D01*
X1943249Y1118006D01*
X1943318Y1118078D01*
X1943390Y1118147D01*
X1943464Y1118213D01*
X1943542Y1118277D01*
X1943621Y1118337D01*
X1943703Y1118394D01*
X1943787Y1118448D01*
X1943873Y1118498D01*
X1943961Y1118545D01*
X1944051Y1118589D01*
X1944142Y1118629D01*
X1944235Y1118665D01*
X1944329Y1118698D01*
X1944425Y1118727D01*
X1944521Y1118752D01*
X1944618Y1118773D01*
X1944717Y1118791D01*
X1944815Y1118804D01*
X1944915Y1118814D01*
X1945014Y1118820D01*
X1945114Y1118822D01*
X1978134Y1118822D01*
X1978234Y1118820D01*
X1978333Y1118814D01*
X1978433Y1118804D01*
X1978531Y1118791D01*
X1978630Y1118773D01*
X1978727Y1118752D01*
X1978823Y1118727D01*
X1978919Y1118698D01*
X1979013Y1118665D01*
X1979106Y1118629D01*
X1979197Y1118589D01*
X1979287Y1118545D01*
X1979375Y1118498D01*
X1979461Y1118448D01*
X1979545Y1118394D01*
X1979627Y1118337D01*
X1979706Y1118277D01*
X1979784Y1118213D01*
X1979858Y1118147D01*
X1979930Y1118078D01*
X1979999Y1118006D01*
X1980065Y1117932D01*
X1980129Y1117854D01*
X1980189Y1117775D01*
X1980246Y1117693D01*
X1980300Y1117609D01*
X1980350Y1117523D01*
X1980397Y1117435D01*
X1980441Y1117345D01*
X1980481Y1117254D01*
X1980517Y1117161D01*
X1980550Y1117067D01*
X1980579Y1116971D01*
X1980604Y1116875D01*
X1980625Y1116778D01*
X1980643Y1116679D01*
X1980656Y1116581D01*
X1980666Y1116481D01*
X1980672Y1116382D01*
X1980674Y1116282D01*
X1980674Y1070562D01*
X1980672Y1070462D01*
X1980666Y1070363D01*
X1980656Y1070263D01*
X1980643Y1070165D01*
X1980625Y1070066D01*
X1980604Y1069969D01*
X1980579Y1069873D01*
X1980550Y1069777D01*
X1980517Y1069683D01*
X1980481Y1069590D01*
X1980441Y1069499D01*
X1980397Y1069409D01*
X1980350Y1069321D01*
X1980300Y1069235D01*
X1980246Y1069151D01*
X1980189Y1069069D01*
X1980129Y1068990D01*
X1980065Y1068912D01*
X1979999Y1068838D01*
X1979930Y1068766D01*
X1979858Y1068697D01*
X1979784Y1068631D01*
X1979706Y1068567D01*
X1979627Y1068507D01*
X1979545Y1068450D01*
X1979461Y1068396D01*
X1979375Y1068346D01*
X1979287Y1068299D01*
X1979197Y1068255D01*
X1979106Y1068215D01*
X1979013Y1068179D01*
X1978919Y1068146D01*
X1978823Y1068117D01*
X1978727Y1068092D01*
X1978630Y1068071D01*
X1978531Y1068053D01*
X1978433Y1068040D01*
X1978333Y1068030D01*
X1978234Y1068024D01*
X1978134Y1068022D01*
D13*
X1961624Y1074372D02*
X1961931Y1074376D01*
X1962238Y1074387D01*
X1962544Y1074405D01*
X1962850Y1074431D01*
X1963155Y1074465D01*
X1963459Y1074505D01*
X1963762Y1074553D01*
X1964064Y1074609D01*
X1964364Y1074671D01*
X1964663Y1074741D01*
X1964960Y1074818D01*
X1965256Y1074902D01*
X1965549Y1074994D01*
X1965839Y1075092D01*
X1966127Y1075197D01*
X1966413Y1075310D01*
X1966696Y1075429D01*
X1966976Y1075555D01*
X1967253Y1075687D01*
X1967526Y1075827D01*
X1967796Y1075973D01*
X1968062Y1076125D01*
X1968325Y1076284D01*
X1968584Y1076449D01*
X1968838Y1076620D01*
X1969089Y1076797D01*
X1969335Y1076981D01*
X1969577Y1077170D01*
X1969813Y1077365D01*
X1970046Y1077566D01*
X1970273Y1077772D01*
X1970495Y1077984D01*
X1970712Y1078201D01*
X1970924Y1078423D01*
X1971130Y1078650D01*
X1971331Y1078883D01*
X1971526Y1079119D01*
X1971715Y1079361D01*
X1971899Y1079607D01*
X1972076Y1079858D01*
X1972247Y1080112D01*
X1972412Y1080371D01*
X1972571Y1080634D01*
X1972723Y1080900D01*
X1972869Y1081170D01*
X1973009Y1081443D01*
X1973141Y1081720D01*
X1973267Y1082000D01*
X1973386Y1082283D01*
X1973499Y1082569D01*
X1973604Y1082857D01*
X1973702Y1083147D01*
X1973794Y1083440D01*
X1973878Y1083736D01*
X1973955Y1084033D01*
X1974025Y1084332D01*
X1974087Y1084632D01*
X1974143Y1084934D01*
X1974191Y1085237D01*
X1974231Y1085541D01*
X1974265Y1085846D01*
X1974291Y1086152D01*
X1974309Y1086458D01*
X1974320Y1086765D01*
X1974324Y1087072D01*
X1974324Y1099772D01*
X1974320Y1100079D01*
X1974309Y1100386D01*
X1974291Y1100692D01*
X1974265Y1100998D01*
X1974231Y1101303D01*
X1974191Y1101607D01*
X1974143Y1101910D01*
X1974087Y1102212D01*
X1974025Y1102512D01*
X1973955Y1102811D01*
X1973878Y1103108D01*
X1973794Y1103404D01*
X1973702Y1103697D01*
X1973604Y1103987D01*
X1973499Y1104275D01*
X1973386Y1104561D01*
X1973267Y1104844D01*
X1973141Y1105124D01*
X1973009Y1105401D01*
X1972869Y1105674D01*
X1972723Y1105944D01*
X1972571Y1106210D01*
X1972412Y1106473D01*
X1972247Y1106732D01*
X1972076Y1106986D01*
X1971899Y1107237D01*
X1971715Y1107483D01*
X1971526Y1107725D01*
X1971331Y1107961D01*
X1971130Y1108194D01*
X1970924Y1108421D01*
X1970712Y1108643D01*
X1970495Y1108860D01*
X1970273Y1109072D01*
X1970046Y1109278D01*
X1969813Y1109479D01*
X1969577Y1109674D01*
X1969335Y1109863D01*
X1969089Y1110047D01*
X1968838Y1110224D01*
X1968584Y1110395D01*
X1968325Y1110560D01*
X1968062Y1110719D01*
X1967796Y1110871D01*
X1967526Y1111017D01*
X1967253Y1111157D01*
X1966976Y1111289D01*
X1966696Y1111415D01*
X1966413Y1111534D01*
X1966127Y1111647D01*
X1965839Y1111752D01*
X1965549Y1111850D01*
X1965256Y1111942D01*
X1964960Y1112026D01*
X1964663Y1112103D01*
X1964364Y1112173D01*
X1964064Y1112235D01*
X1963762Y1112291D01*
X1963459Y1112339D01*
X1963155Y1112379D01*
X1962850Y1112413D01*
X1962544Y1112439D01*
X1962238Y1112457D01*
X1961931Y1112468D01*
X1961624Y1112472D01*
X1961317Y1112468D01*
X1961010Y1112457D01*
X1960704Y1112439D01*
X1960398Y1112413D01*
X1960093Y1112379D01*
X1959789Y1112339D01*
X1959486Y1112291D01*
X1959184Y1112235D01*
X1958884Y1112173D01*
X1958585Y1112103D01*
X1958288Y1112026D01*
X1957992Y1111942D01*
X1957699Y1111850D01*
X1957409Y1111752D01*
X1957121Y1111647D01*
X1956835Y1111534D01*
X1956552Y1111415D01*
X1956272Y1111289D01*
X1955995Y1111157D01*
X1955722Y1111017D01*
X1955452Y1110871D01*
X1955186Y1110719D01*
X1954923Y1110560D01*
X1954664Y1110395D01*
X1954410Y1110224D01*
X1954159Y1110047D01*
X1953913Y1109863D01*
X1953671Y1109674D01*
X1953435Y1109479D01*
X1953202Y1109278D01*
X1952975Y1109072D01*
X1952753Y1108860D01*
X1952536Y1108643D01*
X1952324Y1108421D01*
X1952118Y1108194D01*
X1951917Y1107961D01*
X1951722Y1107725D01*
X1951533Y1107483D01*
X1951349Y1107237D01*
X1951172Y1106986D01*
X1951001Y1106732D01*
X1950836Y1106473D01*
X1950677Y1106210D01*
X1950525Y1105944D01*
X1950379Y1105674D01*
X1950239Y1105401D01*
X1950107Y1105124D01*
X1949981Y1104844D01*
X1949862Y1104561D01*
X1949749Y1104275D01*
X1949644Y1103987D01*
X1949546Y1103697D01*
X1949454Y1103404D01*
X1949370Y1103108D01*
X1949293Y1102811D01*
X1949223Y1102512D01*
X1949161Y1102212D01*
X1949105Y1101910D01*
X1949057Y1101607D01*
X1949017Y1101303D01*
X1948983Y1100998D01*
X1948957Y1100692D01*
X1948939Y1100386D01*
X1948928Y1100079D01*
X1948924Y1099772D01*
X1948924Y1087072D01*
X1948928Y1086765D01*
X1948939Y1086458D01*
X1948957Y1086152D01*
X1948983Y1085846D01*
X1949017Y1085541D01*
X1949057Y1085237D01*
X1949105Y1084934D01*
X1949161Y1084632D01*
X1949223Y1084332D01*
X1949293Y1084033D01*
X1949370Y1083736D01*
X1949454Y1083440D01*
X1949546Y1083147D01*
X1949644Y1082857D01*
X1949749Y1082569D01*
X1949862Y1082283D01*
X1949981Y1082000D01*
X1950107Y1081720D01*
X1950239Y1081443D01*
X1950379Y1081170D01*
X1950525Y1080900D01*
X1950677Y1080634D01*
X1950836Y1080371D01*
X1951001Y1080112D01*
X1951172Y1079858D01*
X1951349Y1079607D01*
X1951533Y1079361D01*
X1951722Y1079119D01*
X1951917Y1078883D01*
X1952118Y1078650D01*
X1952324Y1078423D01*
X1952536Y1078201D01*
X1952753Y1077984D01*
X1952975Y1077772D01*
X1953202Y1077566D01*
X1953435Y1077365D01*
X1953671Y1077170D01*
X1953913Y1076981D01*
X1954159Y1076797D01*
X1954410Y1076620D01*
X1954664Y1076449D01*
X1954923Y1076284D01*
X1955186Y1076125D01*
X1955452Y1075973D01*
X1955722Y1075827D01*
X1955995Y1075687D01*
X1956272Y1075555D01*
X1956552Y1075429D01*
X1956835Y1075310D01*
X1957121Y1075197D01*
X1957409Y1075092D01*
X1957699Y1074994D01*
X1957992Y1074902D01*
X1958288Y1074818D01*
X1958585Y1074741D01*
X1958884Y1074671D01*
X1959184Y1074609D01*
X1959486Y1074553D01*
X1959789Y1074505D01*
X1960093Y1074465D01*
X1960398Y1074431D01*
X1960704Y1074405D01*
X1961010Y1074387D01*
X1961317Y1074376D01*
X1961624Y1074372D01*
D14*
X2310874Y1061672D02*
X2336274Y1061672D01*
X2310874Y1061672D02*
X2209274Y1061672D01*
X2209274Y1036272D01*
X2310874Y1036272D01*
X2336274Y1036272D01*
X2336274Y1061672D01*
X2310874Y1061672D02*
X2310874Y1036272D01*
X2348974Y1093422D02*
X2361674Y1093422D01*
X2361674Y1099772D02*
X2348974Y1099772D01*
X2348974Y1106122D02*
X2361674Y1106122D01*
X2361674Y1087072D02*
X2348974Y1087072D01*
X2348974Y1080722D02*
X2361674Y1080722D01*
D13*
X1917174Y1144222D02*
X1894314Y1144222D01*
X1894214Y1144224D01*
X1894115Y1144230D01*
X1894015Y1144240D01*
X1893917Y1144253D01*
X1893818Y1144271D01*
X1893721Y1144292D01*
X1893625Y1144317D01*
X1893529Y1144346D01*
X1893435Y1144379D01*
X1893342Y1144415D01*
X1893251Y1144455D01*
X1893161Y1144499D01*
X1893073Y1144546D01*
X1892987Y1144596D01*
X1892903Y1144650D01*
X1892821Y1144707D01*
X1892742Y1144767D01*
X1892664Y1144831D01*
X1892590Y1144897D01*
X1892518Y1144966D01*
X1892449Y1145038D01*
X1892383Y1145112D01*
X1892319Y1145190D01*
X1892259Y1145269D01*
X1892202Y1145351D01*
X1892148Y1145435D01*
X1892098Y1145521D01*
X1892051Y1145609D01*
X1892007Y1145699D01*
X1891967Y1145790D01*
X1891931Y1145883D01*
X1891898Y1145977D01*
X1891869Y1146073D01*
X1891844Y1146169D01*
X1891823Y1146266D01*
X1891805Y1146365D01*
X1891792Y1146463D01*
X1891782Y1146563D01*
X1891776Y1146662D01*
X1891774Y1146762D01*
X1891774Y1156922D01*
X1872724Y1156922D02*
X1872724Y1146762D01*
X1872722Y1146662D01*
X1872716Y1146563D01*
X1872706Y1146463D01*
X1872693Y1146365D01*
X1872675Y1146266D01*
X1872654Y1146169D01*
X1872629Y1146073D01*
X1872600Y1145977D01*
X1872567Y1145883D01*
X1872531Y1145790D01*
X1872491Y1145699D01*
X1872447Y1145609D01*
X1872400Y1145521D01*
X1872350Y1145435D01*
X1872296Y1145351D01*
X1872239Y1145269D01*
X1872179Y1145190D01*
X1872115Y1145112D01*
X1872049Y1145038D01*
X1871980Y1144966D01*
X1871908Y1144897D01*
X1871834Y1144831D01*
X1871756Y1144767D01*
X1871677Y1144707D01*
X1871595Y1144650D01*
X1871511Y1144596D01*
X1871425Y1144546D01*
X1871337Y1144499D01*
X1871247Y1144455D01*
X1871156Y1144415D01*
X1871063Y1144379D01*
X1870969Y1144346D01*
X1870873Y1144317D01*
X1870777Y1144292D01*
X1870680Y1144271D01*
X1870581Y1144253D01*
X1870483Y1144240D01*
X1870383Y1144230D01*
X1870284Y1144224D01*
X1870184Y1144222D01*
X1856214Y1144222D01*
X1856114Y1144224D01*
X1856015Y1144230D01*
X1855915Y1144240D01*
X1855817Y1144253D01*
X1855718Y1144271D01*
X1855621Y1144292D01*
X1855525Y1144317D01*
X1855429Y1144346D01*
X1855335Y1144379D01*
X1855242Y1144415D01*
X1855151Y1144455D01*
X1855061Y1144499D01*
X1854973Y1144546D01*
X1854887Y1144596D01*
X1854803Y1144650D01*
X1854721Y1144707D01*
X1854642Y1144767D01*
X1854564Y1144831D01*
X1854490Y1144897D01*
X1854418Y1144966D01*
X1854349Y1145038D01*
X1854283Y1145112D01*
X1854219Y1145190D01*
X1854159Y1145269D01*
X1854102Y1145351D01*
X1854048Y1145435D01*
X1853998Y1145521D01*
X1853951Y1145609D01*
X1853907Y1145699D01*
X1853867Y1145790D01*
X1853831Y1145883D01*
X1853798Y1145977D01*
X1853769Y1146073D01*
X1853744Y1146169D01*
X1853723Y1146266D01*
X1853705Y1146365D01*
X1853692Y1146463D01*
X1853682Y1146563D01*
X1853676Y1146662D01*
X1853674Y1146762D01*
X1853674Y1156922D01*
D14*
X2348974Y1112472D02*
X2361674Y1112472D01*
X2348974Y1112472D02*
X2348974Y1125172D01*
X2361674Y1125172D01*
X2361674Y1074372D02*
X2348974Y1074372D01*
X2348974Y1061672D01*
X2361674Y1061672D01*
X2393424Y1131522D02*
X2393424Y1144222D01*
X2380724Y1144222D01*
X2380724Y1131522D01*
X2393424Y1055322D02*
X2393424Y1042622D01*
X2380724Y1042622D01*
X2380724Y1055322D01*
X2390249Y1125172D02*
X2406124Y1125172D01*
X2390249Y1125172D02*
X2390138Y1125170D01*
X2390028Y1125164D01*
X2389917Y1125155D01*
X2389807Y1125141D01*
X2389698Y1125124D01*
X2389589Y1125103D01*
X2389481Y1125078D01*
X2389374Y1125049D01*
X2389268Y1125017D01*
X2389163Y1124981D01*
X2389060Y1124941D01*
X2388958Y1124898D01*
X2388857Y1124851D01*
X2388758Y1124800D01*
X2388662Y1124747D01*
X2388567Y1124690D01*
X2388474Y1124629D01*
X2388383Y1124566D01*
X2388294Y1124499D01*
X2388208Y1124429D01*
X2388125Y1124356D01*
X2388043Y1124281D01*
X2387965Y1124203D01*
X2387890Y1124121D01*
X2387817Y1124038D01*
X2387747Y1123952D01*
X2387680Y1123863D01*
X2387617Y1123772D01*
X2387556Y1123679D01*
X2387499Y1123585D01*
X2387446Y1123488D01*
X2387395Y1123389D01*
X2387348Y1123288D01*
X2387305Y1123186D01*
X2387265Y1123083D01*
X2387229Y1122978D01*
X2387197Y1122872D01*
X2387168Y1122765D01*
X2387143Y1122657D01*
X2387122Y1122548D01*
X2387105Y1122439D01*
X2387091Y1122329D01*
X2387082Y1122218D01*
X2387076Y1122108D01*
X2387074Y1121997D01*
X2387074Y1115647D01*
X2387076Y1115536D01*
X2387082Y1115426D01*
X2387091Y1115315D01*
X2387105Y1115205D01*
X2387122Y1115096D01*
X2387143Y1114987D01*
X2387168Y1114879D01*
X2387197Y1114772D01*
X2387229Y1114666D01*
X2387265Y1114561D01*
X2387305Y1114458D01*
X2387348Y1114356D01*
X2387395Y1114255D01*
X2387446Y1114156D01*
X2387499Y1114060D01*
X2387556Y1113965D01*
X2387617Y1113872D01*
X2387680Y1113781D01*
X2387747Y1113692D01*
X2387817Y1113606D01*
X2387890Y1113523D01*
X2387965Y1113441D01*
X2388043Y1113363D01*
X2388125Y1113288D01*
X2388208Y1113215D01*
X2388294Y1113145D01*
X2388383Y1113078D01*
X2388474Y1113015D01*
X2388567Y1112954D01*
X2388662Y1112897D01*
X2388758Y1112844D01*
X2388857Y1112793D01*
X2388958Y1112746D01*
X2389060Y1112703D01*
X2389163Y1112663D01*
X2389268Y1112627D01*
X2389374Y1112595D01*
X2389481Y1112566D01*
X2389589Y1112541D01*
X2389698Y1112520D01*
X2389807Y1112503D01*
X2389917Y1112489D01*
X2390028Y1112480D01*
X2390138Y1112474D01*
X2390249Y1112472D01*
X2406124Y1112472D01*
X2406124Y1061672D02*
X2390249Y1061672D01*
X2390138Y1061674D01*
X2390028Y1061680D01*
X2389917Y1061689D01*
X2389807Y1061703D01*
X2389698Y1061720D01*
X2389589Y1061741D01*
X2389481Y1061766D01*
X2389374Y1061795D01*
X2389268Y1061827D01*
X2389163Y1061863D01*
X2389060Y1061903D01*
X2388958Y1061946D01*
X2388857Y1061993D01*
X2388758Y1062044D01*
X2388662Y1062097D01*
X2388567Y1062154D01*
X2388474Y1062215D01*
X2388383Y1062278D01*
X2388294Y1062345D01*
X2388208Y1062415D01*
X2388125Y1062488D01*
X2388043Y1062563D01*
X2387965Y1062641D01*
X2387890Y1062723D01*
X2387817Y1062806D01*
X2387747Y1062892D01*
X2387680Y1062981D01*
X2387617Y1063072D01*
X2387556Y1063165D01*
X2387499Y1063260D01*
X2387446Y1063356D01*
X2387395Y1063455D01*
X2387348Y1063556D01*
X2387305Y1063658D01*
X2387265Y1063761D01*
X2387229Y1063866D01*
X2387197Y1063972D01*
X2387168Y1064079D01*
X2387143Y1064187D01*
X2387122Y1064296D01*
X2387105Y1064405D01*
X2387091Y1064515D01*
X2387082Y1064626D01*
X2387076Y1064736D01*
X2387074Y1064847D01*
X2387074Y1071197D01*
X2387076Y1071308D01*
X2387082Y1071418D01*
X2387091Y1071529D01*
X2387105Y1071639D01*
X2387122Y1071748D01*
X2387143Y1071857D01*
X2387168Y1071965D01*
X2387197Y1072072D01*
X2387229Y1072178D01*
X2387265Y1072283D01*
X2387305Y1072386D01*
X2387348Y1072488D01*
X2387395Y1072589D01*
X2387446Y1072688D01*
X2387499Y1072785D01*
X2387556Y1072879D01*
X2387617Y1072972D01*
X2387680Y1073063D01*
X2387747Y1073152D01*
X2387817Y1073238D01*
X2387890Y1073321D01*
X2387965Y1073403D01*
X2388043Y1073481D01*
X2388125Y1073556D01*
X2388208Y1073629D01*
X2388294Y1073699D01*
X2388383Y1073766D01*
X2388474Y1073829D01*
X2388567Y1073890D01*
X2388662Y1073947D01*
X2388758Y1074000D01*
X2388857Y1074051D01*
X2388958Y1074098D01*
X2389060Y1074141D01*
X2389163Y1074181D01*
X2389268Y1074217D01*
X2389374Y1074249D01*
X2389481Y1074278D01*
X2389589Y1074303D01*
X2389698Y1074324D01*
X2389807Y1074341D01*
X2389917Y1074355D01*
X2390028Y1074364D01*
X2390138Y1074370D01*
X2390249Y1074372D01*
X2406124Y1074372D01*
X2406124Y1112472D02*
X2406124Y1125172D01*
X2406124Y1074372D02*
X2406124Y1061672D01*
X2164824Y1036272D02*
X2161014Y1036272D01*
X2160914Y1036274D01*
X2160815Y1036280D01*
X2160715Y1036290D01*
X2160617Y1036303D01*
X2160518Y1036321D01*
X2160421Y1036342D01*
X2160325Y1036367D01*
X2160229Y1036396D01*
X2160135Y1036429D01*
X2160042Y1036465D01*
X2159951Y1036505D01*
X2159861Y1036549D01*
X2159773Y1036596D01*
X2159687Y1036646D01*
X2159603Y1036700D01*
X2159521Y1036757D01*
X2159442Y1036817D01*
X2159364Y1036881D01*
X2159290Y1036947D01*
X2159218Y1037016D01*
X2159149Y1037088D01*
X2159083Y1037162D01*
X2159019Y1037240D01*
X2158959Y1037319D01*
X2158902Y1037401D01*
X2158848Y1037485D01*
X2158798Y1037571D01*
X2158751Y1037659D01*
X2158707Y1037749D01*
X2158667Y1037840D01*
X2158631Y1037933D01*
X2158598Y1038027D01*
X2158569Y1038123D01*
X2158544Y1038219D01*
X2158523Y1038316D01*
X2158505Y1038415D01*
X2158492Y1038513D01*
X2158482Y1038613D01*
X2158476Y1038712D01*
X2158474Y1038812D01*
X2158474Y1042622D01*
X2158474Y1048972D01*
X2158474Y1055322D01*
X2158474Y1061672D01*
X2158474Y1065482D01*
X2158476Y1065582D01*
X2158482Y1065681D01*
X2158492Y1065781D01*
X2158505Y1065879D01*
X2158523Y1065978D01*
X2158544Y1066075D01*
X2158569Y1066171D01*
X2158598Y1066267D01*
X2158631Y1066361D01*
X2158667Y1066454D01*
X2158707Y1066545D01*
X2158751Y1066635D01*
X2158798Y1066723D01*
X2158848Y1066809D01*
X2158902Y1066893D01*
X2158959Y1066975D01*
X2159019Y1067054D01*
X2159083Y1067132D01*
X2159149Y1067206D01*
X2159218Y1067278D01*
X2159290Y1067347D01*
X2159364Y1067413D01*
X2159442Y1067477D01*
X2159521Y1067537D01*
X2159603Y1067594D01*
X2159687Y1067648D01*
X2159773Y1067698D01*
X2159861Y1067745D01*
X2159951Y1067789D01*
X2160042Y1067829D01*
X2160135Y1067865D01*
X2160229Y1067898D01*
X2160325Y1067927D01*
X2160421Y1067952D01*
X2160518Y1067973D01*
X2160617Y1067991D01*
X2160715Y1068004D01*
X2160815Y1068014D01*
X2160914Y1068020D01*
X2161014Y1068022D01*
X2164824Y1068022D01*
X2171174Y1068022D01*
X2177524Y1068022D01*
X2183874Y1068022D01*
X2187684Y1068022D01*
X2187784Y1068020D01*
X2187883Y1068014D01*
X2187983Y1068004D01*
X2188081Y1067991D01*
X2188180Y1067973D01*
X2188277Y1067952D01*
X2188373Y1067927D01*
X2188469Y1067898D01*
X2188563Y1067865D01*
X2188656Y1067829D01*
X2188747Y1067789D01*
X2188837Y1067745D01*
X2188925Y1067698D01*
X2189011Y1067648D01*
X2189095Y1067594D01*
X2189177Y1067537D01*
X2189256Y1067477D01*
X2189334Y1067413D01*
X2189408Y1067347D01*
X2189480Y1067278D01*
X2189549Y1067206D01*
X2189615Y1067132D01*
X2189679Y1067054D01*
X2189739Y1066975D01*
X2189796Y1066893D01*
X2189850Y1066809D01*
X2189900Y1066723D01*
X2189947Y1066635D01*
X2189991Y1066545D01*
X2190031Y1066454D01*
X2190067Y1066361D01*
X2190100Y1066267D01*
X2190129Y1066171D01*
X2190154Y1066075D01*
X2190175Y1065978D01*
X2190193Y1065879D01*
X2190206Y1065781D01*
X2190216Y1065681D01*
X2190222Y1065582D01*
X2190224Y1065482D01*
X2190224Y1061672D01*
X2190224Y1055322D01*
X2190224Y1048972D01*
X2190224Y1042622D01*
X2190224Y1038812D01*
X2190222Y1038712D01*
X2190216Y1038613D01*
X2190206Y1038513D01*
X2190193Y1038415D01*
X2190175Y1038316D01*
X2190154Y1038219D01*
X2190129Y1038123D01*
X2190100Y1038027D01*
X2190067Y1037933D01*
X2190031Y1037840D01*
X2189991Y1037749D01*
X2189947Y1037659D01*
X2189900Y1037571D01*
X2189850Y1037485D01*
X2189796Y1037401D01*
X2189739Y1037319D01*
X2189679Y1037240D01*
X2189615Y1037162D01*
X2189549Y1037088D01*
X2189480Y1037016D01*
X2189408Y1036947D01*
X2189334Y1036881D01*
X2189256Y1036817D01*
X2189177Y1036757D01*
X2189095Y1036700D01*
X2189011Y1036646D01*
X2188925Y1036596D01*
X2188837Y1036549D01*
X2188747Y1036505D01*
X2188656Y1036465D01*
X2188563Y1036429D01*
X2188469Y1036396D01*
X2188373Y1036367D01*
X2188277Y1036342D01*
X2188180Y1036321D01*
X2188081Y1036303D01*
X2187983Y1036290D01*
X2187883Y1036280D01*
X2187784Y1036274D01*
X2187684Y1036272D01*
X2183874Y1036272D01*
X2177524Y1036272D01*
X2171174Y1036272D01*
X2164824Y1036272D01*
X2241024Y1083262D02*
X2241024Y1103582D01*
X2241024Y1083262D02*
X2241022Y1083162D01*
X2241016Y1083063D01*
X2241006Y1082963D01*
X2240993Y1082865D01*
X2240975Y1082766D01*
X2240954Y1082669D01*
X2240929Y1082573D01*
X2240900Y1082477D01*
X2240867Y1082383D01*
X2240831Y1082290D01*
X2240791Y1082199D01*
X2240747Y1082109D01*
X2240700Y1082021D01*
X2240650Y1081935D01*
X2240596Y1081851D01*
X2240539Y1081769D01*
X2240479Y1081690D01*
X2240415Y1081612D01*
X2240349Y1081538D01*
X2240280Y1081466D01*
X2240208Y1081397D01*
X2240134Y1081331D01*
X2240056Y1081267D01*
X2239977Y1081207D01*
X2239895Y1081150D01*
X2239811Y1081096D01*
X2239725Y1081046D01*
X2239637Y1080999D01*
X2239547Y1080955D01*
X2239456Y1080915D01*
X2239363Y1080879D01*
X2239269Y1080846D01*
X2239173Y1080817D01*
X2239077Y1080792D01*
X2238980Y1080771D01*
X2238881Y1080753D01*
X2238783Y1080740D01*
X2238683Y1080730D01*
X2238584Y1080724D01*
X2238484Y1080722D01*
X2218164Y1080722D01*
X2218064Y1080724D01*
X2217965Y1080730D01*
X2217865Y1080740D01*
X2217767Y1080753D01*
X2217668Y1080771D01*
X2217571Y1080792D01*
X2217475Y1080817D01*
X2217379Y1080846D01*
X2217285Y1080879D01*
X2217192Y1080915D01*
X2217101Y1080955D01*
X2217011Y1080999D01*
X2216923Y1081046D01*
X2216837Y1081096D01*
X2216753Y1081150D01*
X2216671Y1081207D01*
X2216592Y1081267D01*
X2216514Y1081331D01*
X2216440Y1081397D01*
X2216368Y1081466D01*
X2216299Y1081538D01*
X2216233Y1081612D01*
X2216169Y1081690D01*
X2216109Y1081769D01*
X2216052Y1081851D01*
X2215998Y1081935D01*
X2215948Y1082021D01*
X2215901Y1082109D01*
X2215857Y1082199D01*
X2215817Y1082290D01*
X2215781Y1082383D01*
X2215748Y1082477D01*
X2215719Y1082573D01*
X2215694Y1082669D01*
X2215673Y1082766D01*
X2215655Y1082865D01*
X2215642Y1082963D01*
X2215632Y1083063D01*
X2215626Y1083162D01*
X2215624Y1083262D01*
X2215624Y1103582D01*
X2215626Y1103682D01*
X2215632Y1103781D01*
X2215642Y1103881D01*
X2215655Y1103979D01*
X2215673Y1104078D01*
X2215694Y1104175D01*
X2215719Y1104271D01*
X2215748Y1104367D01*
X2215781Y1104461D01*
X2215817Y1104554D01*
X2215857Y1104645D01*
X2215901Y1104735D01*
X2215948Y1104823D01*
X2215998Y1104909D01*
X2216052Y1104993D01*
X2216109Y1105075D01*
X2216169Y1105154D01*
X2216233Y1105232D01*
X2216299Y1105306D01*
X2216368Y1105378D01*
X2216440Y1105447D01*
X2216514Y1105513D01*
X2216592Y1105577D01*
X2216671Y1105637D01*
X2216753Y1105694D01*
X2216837Y1105748D01*
X2216923Y1105798D01*
X2217011Y1105845D01*
X2217101Y1105889D01*
X2217192Y1105929D01*
X2217285Y1105965D01*
X2217379Y1105998D01*
X2217475Y1106027D01*
X2217571Y1106052D01*
X2217668Y1106073D01*
X2217767Y1106091D01*
X2217865Y1106104D01*
X2217965Y1106114D01*
X2218064Y1106120D01*
X2218164Y1106122D01*
X2238484Y1106122D01*
X2238584Y1106120D01*
X2238683Y1106114D01*
X2238783Y1106104D01*
X2238881Y1106091D01*
X2238980Y1106073D01*
X2239077Y1106052D01*
X2239173Y1106027D01*
X2239269Y1105998D01*
X2239363Y1105965D01*
X2239456Y1105929D01*
X2239547Y1105889D01*
X2239637Y1105845D01*
X2239725Y1105798D01*
X2239811Y1105748D01*
X2239895Y1105694D01*
X2239977Y1105637D01*
X2240056Y1105577D01*
X2240134Y1105513D01*
X2240208Y1105447D01*
X2240280Y1105378D01*
X2240349Y1105306D01*
X2240415Y1105232D01*
X2240479Y1105154D01*
X2240539Y1105075D01*
X2240596Y1104993D01*
X2240650Y1104909D01*
X2240700Y1104823D01*
X2240747Y1104735D01*
X2240791Y1104645D01*
X2240831Y1104554D01*
X2240867Y1104461D01*
X2240900Y1104367D01*
X2240929Y1104271D01*
X2240954Y1104175D01*
X2240975Y1104078D01*
X2240993Y1103979D01*
X2241006Y1103881D01*
X2241016Y1103781D01*
X2241022Y1103682D01*
X2241024Y1103582D01*
X1907649Y1071832D02*
X1907649Y1067387D01*
X1907647Y1067287D01*
X1907641Y1067188D01*
X1907631Y1067088D01*
X1907618Y1066990D01*
X1907600Y1066891D01*
X1907579Y1066794D01*
X1907554Y1066698D01*
X1907525Y1066602D01*
X1907492Y1066508D01*
X1907456Y1066415D01*
X1907416Y1066324D01*
X1907372Y1066234D01*
X1907325Y1066146D01*
X1907275Y1066060D01*
X1907221Y1065976D01*
X1907164Y1065894D01*
X1907104Y1065815D01*
X1907040Y1065737D01*
X1906974Y1065663D01*
X1906905Y1065591D01*
X1906833Y1065522D01*
X1906759Y1065456D01*
X1906681Y1065392D01*
X1906602Y1065332D01*
X1906520Y1065275D01*
X1906436Y1065221D01*
X1906350Y1065171D01*
X1906262Y1065124D01*
X1906172Y1065080D01*
X1906081Y1065040D01*
X1905988Y1065004D01*
X1905894Y1064971D01*
X1905798Y1064942D01*
X1905702Y1064917D01*
X1905605Y1064896D01*
X1905506Y1064878D01*
X1905408Y1064865D01*
X1905308Y1064855D01*
X1905209Y1064849D01*
X1905109Y1064847D01*
X1894314Y1064847D01*
X1894214Y1064849D01*
X1894115Y1064855D01*
X1894015Y1064865D01*
X1893917Y1064878D01*
X1893818Y1064896D01*
X1893721Y1064917D01*
X1893625Y1064942D01*
X1893529Y1064971D01*
X1893435Y1065004D01*
X1893342Y1065040D01*
X1893251Y1065080D01*
X1893161Y1065124D01*
X1893073Y1065171D01*
X1892987Y1065221D01*
X1892903Y1065275D01*
X1892821Y1065332D01*
X1892742Y1065392D01*
X1892664Y1065456D01*
X1892590Y1065522D01*
X1892518Y1065591D01*
X1892449Y1065663D01*
X1892383Y1065737D01*
X1892319Y1065815D01*
X1892259Y1065894D01*
X1892202Y1065976D01*
X1892148Y1066060D01*
X1892098Y1066146D01*
X1892051Y1066234D01*
X1892007Y1066324D01*
X1891967Y1066415D01*
X1891931Y1066508D01*
X1891898Y1066602D01*
X1891869Y1066698D01*
X1891844Y1066794D01*
X1891823Y1066891D01*
X1891805Y1066990D01*
X1891792Y1067088D01*
X1891782Y1067188D01*
X1891776Y1067287D01*
X1891774Y1067387D01*
X1891774Y1071832D01*
X1891776Y1071932D01*
X1891782Y1072031D01*
X1891792Y1072131D01*
X1891805Y1072229D01*
X1891823Y1072328D01*
X1891844Y1072425D01*
X1891869Y1072521D01*
X1891898Y1072617D01*
X1891931Y1072711D01*
X1891967Y1072804D01*
X1892007Y1072895D01*
X1892051Y1072985D01*
X1892098Y1073073D01*
X1892148Y1073159D01*
X1892202Y1073243D01*
X1892259Y1073325D01*
X1892319Y1073404D01*
X1892383Y1073482D01*
X1892449Y1073556D01*
X1892518Y1073628D01*
X1892590Y1073697D01*
X1892664Y1073763D01*
X1892742Y1073827D01*
X1892821Y1073887D01*
X1892903Y1073944D01*
X1892987Y1073998D01*
X1893073Y1074048D01*
X1893161Y1074095D01*
X1893251Y1074139D01*
X1893342Y1074179D01*
X1893435Y1074215D01*
X1893529Y1074248D01*
X1893625Y1074277D01*
X1893721Y1074302D01*
X1893818Y1074323D01*
X1893917Y1074341D01*
X1894015Y1074354D01*
X1894115Y1074364D01*
X1894214Y1074370D01*
X1894314Y1074372D01*
X1905109Y1074372D01*
X1905209Y1074370D01*
X1905308Y1074364D01*
X1905408Y1074354D01*
X1905506Y1074341D01*
X1905605Y1074323D01*
X1905702Y1074302D01*
X1905798Y1074277D01*
X1905894Y1074248D01*
X1905988Y1074215D01*
X1906081Y1074179D01*
X1906172Y1074139D01*
X1906262Y1074095D01*
X1906350Y1074048D01*
X1906436Y1073998D01*
X1906520Y1073944D01*
X1906602Y1073887D01*
X1906681Y1073827D01*
X1906759Y1073763D01*
X1906833Y1073697D01*
X1906905Y1073628D01*
X1906974Y1073556D01*
X1907040Y1073482D01*
X1907104Y1073404D01*
X1907164Y1073325D01*
X1907221Y1073243D01*
X1907275Y1073159D01*
X1907325Y1073073D01*
X1907372Y1072985D01*
X1907416Y1072895D01*
X1907456Y1072804D01*
X1907492Y1072711D01*
X1907525Y1072617D01*
X1907554Y1072521D01*
X1907579Y1072425D01*
X1907600Y1072328D01*
X1907618Y1072229D01*
X1907631Y1072131D01*
X1907641Y1072031D01*
X1907647Y1071932D01*
X1907649Y1071832D01*
X1907649Y1055322D02*
X1907649Y1039447D01*
X1891774Y1039447D01*
X2155299Y1055322D02*
X2158474Y1055322D01*
X2158474Y1048972D02*
X2155299Y1048972D01*
X2155299Y1042622D02*
X2158474Y1042622D01*
X2158474Y1061672D02*
X2155299Y1061672D01*
X2164824Y1068022D02*
X2164824Y1071197D01*
X2171174Y1071197D02*
X2171174Y1068022D01*
X2177524Y1068022D02*
X2177524Y1071197D01*
X2183874Y1071197D02*
X2183874Y1068022D01*
X2190224Y1061672D02*
X2193399Y1061672D01*
X2193399Y1055322D02*
X2190224Y1055322D01*
X2190224Y1048972D02*
X2193399Y1048972D01*
X2193399Y1042622D02*
X2190224Y1042622D01*
X2164824Y1036272D02*
X2164824Y1033097D01*
X2171174Y1033097D02*
X2171174Y1036272D01*
X2177524Y1036272D02*
X2177524Y1033097D01*
X2183874Y1033097D02*
X2183874Y1036272D01*
X1831449Y1147397D02*
X1831449Y1156922D01*
X1831449Y1147397D02*
X1831447Y1147286D01*
X1831441Y1147176D01*
X1831432Y1147065D01*
X1831418Y1146955D01*
X1831401Y1146846D01*
X1831380Y1146737D01*
X1831355Y1146629D01*
X1831326Y1146522D01*
X1831294Y1146416D01*
X1831258Y1146311D01*
X1831218Y1146208D01*
X1831175Y1146106D01*
X1831128Y1146005D01*
X1831077Y1145906D01*
X1831024Y1145810D01*
X1830967Y1145715D01*
X1830906Y1145622D01*
X1830843Y1145531D01*
X1830776Y1145442D01*
X1830706Y1145356D01*
X1830633Y1145273D01*
X1830558Y1145191D01*
X1830480Y1145113D01*
X1830398Y1145038D01*
X1830315Y1144965D01*
X1830229Y1144895D01*
X1830140Y1144828D01*
X1830049Y1144765D01*
X1829956Y1144704D01*
X1829862Y1144647D01*
X1829765Y1144594D01*
X1829666Y1144543D01*
X1829565Y1144496D01*
X1829463Y1144453D01*
X1829360Y1144413D01*
X1829255Y1144377D01*
X1829149Y1144345D01*
X1829042Y1144316D01*
X1828934Y1144291D01*
X1828825Y1144270D01*
X1828716Y1144253D01*
X1828606Y1144239D01*
X1828495Y1144230D01*
X1828385Y1144224D01*
X1828274Y1144222D01*
X1818749Y1144222D01*
X1818749Y1147397D01*
X1818747Y1147508D01*
X1818741Y1147618D01*
X1818732Y1147729D01*
X1818718Y1147839D01*
X1818701Y1147948D01*
X1818680Y1148057D01*
X1818655Y1148165D01*
X1818626Y1148272D01*
X1818594Y1148378D01*
X1818558Y1148483D01*
X1818518Y1148586D01*
X1818475Y1148688D01*
X1818428Y1148789D01*
X1818377Y1148888D01*
X1818324Y1148985D01*
X1818267Y1149079D01*
X1818206Y1149172D01*
X1818143Y1149263D01*
X1818076Y1149352D01*
X1818006Y1149438D01*
X1817933Y1149521D01*
X1817858Y1149603D01*
X1817780Y1149681D01*
X1817698Y1149756D01*
X1817615Y1149829D01*
X1817529Y1149899D01*
X1817440Y1149966D01*
X1817349Y1150029D01*
X1817256Y1150090D01*
X1817162Y1150147D01*
X1817065Y1150200D01*
X1816966Y1150251D01*
X1816865Y1150298D01*
X1816763Y1150341D01*
X1816660Y1150381D01*
X1816555Y1150417D01*
X1816449Y1150449D01*
X1816342Y1150478D01*
X1816234Y1150503D01*
X1816125Y1150524D01*
X1816016Y1150541D01*
X1815906Y1150555D01*
X1815795Y1150564D01*
X1815685Y1150570D01*
X1815574Y1150572D01*
X1812399Y1150572D01*
X2361674Y1106122D02*
X2374374Y1106122D01*
X2374374Y1125172D01*
X2369723Y1125172D01*
X2369612Y1125170D01*
X2369500Y1125164D01*
X2369389Y1125154D01*
X2369279Y1125141D01*
X2369169Y1125123D01*
X2369059Y1125102D01*
X2368951Y1125077D01*
X2368843Y1125048D01*
X2368737Y1125015D01*
X2368631Y1124978D01*
X2368527Y1124938D01*
X2368425Y1124895D01*
X2368324Y1124847D01*
X2368225Y1124796D01*
X2368128Y1124742D01*
X2368032Y1124684D01*
X2367939Y1124623D01*
X2367848Y1124559D01*
X2367759Y1124492D01*
X2367673Y1124421D01*
X2367589Y1124348D01*
X2367508Y1124272D01*
X2367429Y1124192D01*
X2367354Y1124111D01*
X2367281Y1124026D01*
X2367211Y1123939D01*
X2367145Y1123850D01*
X2367081Y1123758D01*
X2367081Y1123759D02*
X2361674Y1115647D01*
X2361674Y1080722D02*
X2374374Y1080722D01*
X2374374Y1061672D01*
X2369723Y1061672D01*
X2369612Y1061674D01*
X2369500Y1061680D01*
X2369389Y1061690D01*
X2369279Y1061703D01*
X2369169Y1061721D01*
X2369059Y1061742D01*
X2368951Y1061767D01*
X2368843Y1061796D01*
X2368737Y1061829D01*
X2368631Y1061866D01*
X2368527Y1061906D01*
X2368425Y1061949D01*
X2368324Y1061997D01*
X2368225Y1062048D01*
X2368128Y1062102D01*
X2368032Y1062160D01*
X2367939Y1062221D01*
X2367848Y1062285D01*
X2367759Y1062352D01*
X2367673Y1062423D01*
X2367589Y1062496D01*
X2367508Y1062572D01*
X2367429Y1062652D01*
X2367354Y1062733D01*
X2367281Y1062818D01*
X2367211Y1062905D01*
X2367145Y1062994D01*
X2367081Y1063086D01*
X2361674Y1071197D01*
M02*
