M48
;GenerationSoftware,Autodesk,EAGLE,9.7.0*%
;CreationDate,2022-04-08T22:24:30Z*%
FMAT,2
ICI,OFF
METRIC,TZ,000.000
T12C0.508
T11C0.780
T10C0.800
T9C0.813
T8C0.850
T7C0.900
T6C0.965
T5C1.016
T4C1.100
T3C1.200
T2C1.600
T1C2.000
%
G90
M71
T1
X147500Y74000
X25000Y40000
X129000Y113500
X25000Y113500
X115000Y5000
X241297Y5000
X188000Y40000
X241000Y40000
X175000Y40000
X124000Y40000
X120000Y40000
T2
X61500Y84000
X52500Y84000
X81500Y84000
X72500Y84000
X101500Y84000
X92500Y84000
X138000Y84000
X129000Y84000
X181000Y84000
X172000Y84000
X224000Y84000
X215000Y84000
T3
X27500Y82000
X32500Y87000
X27500Y92000
T4
X54500Y77000
X222000Y77000
X57000Y77000
X59500Y77000
X74500Y77000
X77000Y77000
X79500Y77000
X94500Y77000
X97000Y77000
X99500Y77000
X131000Y77000
X133500Y77000
X136000Y77000
X174000Y77000
X176500Y77000
X179000Y77000
X217000Y77000
X219500Y77000
T5
X169239Y54749
X29739Y54749
X34261Y54749
X29739Y61251
X34261Y61251
X49739Y54749
X54261Y54749
X49739Y61251
X54261Y61251
X69739Y54749
X74261Y54749
X69739Y61251
X74261Y61251
X89739Y54749
X94261Y54749
X89739Y61251
X94261Y61251
X126239Y54749
X130761Y54749
X126239Y61251
X130761Y61251
X173761Y54749
X169239Y61251
X173761Y61251
X212239Y54749
X216761Y54749
X212239Y61251
X216761Y61251
T6
X233627Y101722
X231087Y101722
X228547Y101722
X226007Y101722
X223467Y101722
X198067Y116962
X218387Y101722
X215847Y101722
X195527Y116962
X213307Y101722
X210767Y101722
X208227Y101722
X205687Y101722
X205687Y116962
X208227Y116962
X210767Y116962
X213307Y116962
X215847Y116962
X218387Y116962
X220927Y116962
X223467Y116962
X226007Y116962
X228547Y116962
X231087Y116962
X236167Y101722
X233627Y116962
X236167Y116962
X238707Y101722
X238707Y116962
X200607Y116962
X192987Y104262
X203147Y101722
X203147Y116962
X200607Y101722
X192987Y109342
X192987Y111882
X198067Y101722
X195527Y101722
X192987Y101722
X192987Y106802
X192987Y114422
X190447Y101722
X187907Y101722
X185367Y101722
X236167Y114422
X231087Y114422
X228547Y114422
X226007Y114422
X232357Y104897
X182827Y101722
X180287Y101722
X180287Y116962
X229817Y104897
X227277Y104897
X182827Y116962
X185367Y116962
X187907Y116962
X224737Y104897
X222197Y104897
X190447Y116962
X192987Y116962
X220927Y101722
T7
X201040Y52000
X76540Y51000
X60000Y57000
X62500Y57000
X67000Y51460
X67000Y58540
X40000Y57000
X42500Y57000
X47000Y51460
X47000Y58540
X80000Y57000
X82500Y57000
X86747Y51460
X86747Y58540
X100000Y57000
X102500Y57000
X107000Y51460
X107000Y58540
X136500Y57000
X139000Y57000
X28460Y47000
X35540Y47000
X147500Y54960
X147500Y62040
X191000Y53460
X191000Y60540
X234000Y51460
X234000Y58540
X143500Y53460
X143500Y60540
X179500Y57000
X182000Y57000
X187000Y54460
X187000Y61540
X120960Y47000
X128040Y47000
X130960Y47000
X138040Y47000
X140960Y47000
X148040Y47000
X150960Y47500
X158040Y47500
X161500Y54040
X161500Y46960
X49460Y51000
X56540Y51000
X170167Y51000
X177247Y51000
X179960Y51000
X187040Y51000
X193960Y52000
X222500Y57000
X199460Y47000
X206540Y47000
X210960Y51000
X218040Y51000
X228060Y53877
X228060Y46797
X231460Y48000
X238540Y48000
X69460Y51000
X225000Y57000
X38500Y91540
X38500Y84460
X230500Y51460
X230500Y58540
X230500Y99000
X233000Y99000
X236500Y89460
X91460Y51000
X98540Y51000
X236500Y96540
T8
X227270Y42500
X197270Y42500
X234730Y42500
X38430Y73150
X38430Y75690
X147270Y42500
X154730Y42500
X157270Y42500
X164730Y42500
X237270Y42500
X134730Y42500
X124730Y42500
X127270Y42500
X214730Y42500
X217270Y42500
X137270Y42500
X224730Y42500
X104545Y39000
X101995Y39000
X99455Y39000
X90545Y39000
X87995Y39000
X85455Y39000
X207270Y42500
X204730Y42500
X144730Y42500
X194730Y42500
X187270Y42500
X184730Y42500
X177270Y42500
X174730Y42500
X167270Y42500
T9
X28000Y74730
X28000Y77270
X45000Y72730
X45000Y75270
T10
X32500Y82000
X32500Y84500
X32500Y92000
X32500Y89500
X27500Y87000
T11
X40860Y101030
X40860Y103570
X40860Y106110
X40860Y108650
X48800Y108650
X48800Y106110
X48800Y103570
X48800Y101030
T12
X85000Y73000
X105000Y83500
X185500Y94000
X197463Y92037
X45000Y82000
X186500Y88000
X207000Y96000
X212000Y98000
X215000Y97928
X208993Y88500
X70500Y80797
X186500Y83000
X193500Y83000
X192000Y77500
X209500Y71000
X213000Y71000
X213000Y78500
X212500Y81000
X200500Y114000
X199000Y114000
X197000Y114000
X213703Y77000
X197000Y97500
X188000Y81500
X188000Y78500
X119500Y83200
X140949Y102949
X138000Y114000
X219567Y53546
X224501Y47254
X187297Y93000
X191000Y91500
X191000Y81500
X191000Y78500
X197500Y70500
X197500Y65000
X208500Y53500
X221500Y47000
X216179Y45179
X189500Y81500
X189500Y78500
X196000Y70500
X196000Y65000
X211500Y46000
X208929Y45929
X196001Y47754
X186001Y46254
X176001Y46754
X166001Y46754
X233536Y109060
X153000Y49500
X237500Y84500
X235500Y79000
X150500Y50000
X149000Y51833
X139500Y49000
X234000Y85000
X234000Y79000
X144525Y51035
X125000Y48534
X211500Y84000
X211500Y79000
X220036Y113036
X241606Y45000
X239000Y84500
X195536Y94036
X186000Y65000
X207000Y79000
X207000Y90000
X192797Y78500
X208000Y65000
X206000Y92500
X193500Y70500
X192500Y81500
X203500Y94949
X118000Y79000
X181500Y98500
X204500Y99000
X207000Y99500
X118000Y83200
X113000Y75500
X115000Y79000
X188500Y106578
X115000Y83200
X116500Y79000
X116500Y83200
X195300Y104500
X199500Y69500
X195530Y96030
X194500Y65000
X193000Y98000
X222000Y65000
X209500Y81500
X209747Y91753
X205457Y94703
X209000Y94000
X228500Y98797
X171500Y110000
X163000Y102500
X156500Y97000
X121500Y79000
X177000Y112000
X166000Y102500
X159000Y97000
X123000Y79000
X239000Y79000
X241606Y48500
X231500Y44000
X41500Y86500
X189500Y51500
X184500Y54500
X133500Y54500
X192506Y47564
X167952Y49161
X86000Y47000
X97500Y47000
M30